G04 #@! TF.GenerationSoftware,KiCad,Pcbnew,(5.1.5-0-10_14)*
G04 #@! TF.CreationDate,2020-07-09T21:36:47+03:00*
G04 #@! TF.ProjectId,miniRGBii,6d696e69-5247-4426-9969-2e6b69636164,rev?*
G04 #@! TF.SameCoordinates,Original*
G04 #@! TF.FileFunction,Legend,Bot*
G04 #@! TF.FilePolarity,Positive*
%FSLAX46Y46*%
G04 Gerber Fmt 4.6, Leading zero omitted, Abs format (unit mm)*
G04 Created by KiCad (PCBNEW (5.1.5-0-10_14)) date 2020-07-09 21:36:47*
%MOMM*%
%LPD*%
G04 APERTURE LIST*
%ADD10C,0.150000*%
%ADD11C,0.100000*%
G04 APERTURE END LIST*
D10*
X23065619Y-19312380D02*
X23065619Y-18312380D01*
X22827523Y-18312380D01*
X22684666Y-18360000D01*
X22589428Y-18455238D01*
X22541809Y-18550476D01*
X22494190Y-18740952D01*
X22494190Y-18883809D01*
X22541809Y-19074285D01*
X22589428Y-19169523D01*
X22684666Y-19264761D01*
X22827523Y-19312380D01*
X23065619Y-19312380D01*
X21922761Y-19312380D02*
X22018000Y-19264761D01*
X22065619Y-19217142D01*
X22113238Y-19121904D01*
X22113238Y-18836190D01*
X22065619Y-18740952D01*
X22018000Y-18693333D01*
X21922761Y-18645714D01*
X21779904Y-18645714D01*
X21684666Y-18693333D01*
X21637047Y-18740952D01*
X21589428Y-18836190D01*
X21589428Y-19121904D01*
X21637047Y-19217142D01*
X21684666Y-19264761D01*
X21779904Y-19312380D01*
X21922761Y-19312380D01*
X21160857Y-18645714D02*
X21160857Y-19312380D01*
X21160857Y-18740952D02*
X21113238Y-18693333D01*
X21018000Y-18645714D01*
X20875142Y-18645714D01*
X20779904Y-18693333D01*
X20732285Y-18788571D01*
X20732285Y-19312380D01*
X20208476Y-18312380D02*
X20208476Y-18360000D01*
X20256095Y-18455238D01*
X20303714Y-18502857D01*
X19922761Y-18645714D02*
X19541809Y-18645714D01*
X19779904Y-18312380D02*
X19779904Y-19169523D01*
X19732285Y-19264761D01*
X19637047Y-19312380D01*
X19541809Y-19312380D01*
X18589428Y-18645714D02*
X18208476Y-18645714D01*
X18446571Y-19312380D02*
X18446571Y-18455238D01*
X18398952Y-18360000D01*
X18303714Y-18312380D01*
X18208476Y-18312380D01*
X17732285Y-19312380D02*
X17827523Y-19264761D01*
X17875142Y-19217142D01*
X17922761Y-19121904D01*
X17922761Y-18836190D01*
X17875142Y-18740952D01*
X17827523Y-18693333D01*
X17732285Y-18645714D01*
X17589428Y-18645714D01*
X17494190Y-18693333D01*
X17446571Y-18740952D01*
X17398952Y-18836190D01*
X17398952Y-19121904D01*
X17446571Y-19217142D01*
X17494190Y-19264761D01*
X17589428Y-19312380D01*
X17732285Y-19312380D01*
X16970380Y-19312380D02*
X16970380Y-18645714D01*
X16970380Y-18836190D02*
X16922761Y-18740952D01*
X16875142Y-18693333D01*
X16779904Y-18645714D01*
X16684666Y-18645714D01*
X15922761Y-18645714D02*
X15922761Y-19455238D01*
X15970380Y-19550476D01*
X16018000Y-19598095D01*
X16113238Y-19645714D01*
X16256095Y-19645714D01*
X16351333Y-19598095D01*
X15922761Y-19264761D02*
X16018000Y-19312380D01*
X16208476Y-19312380D01*
X16303714Y-19264761D01*
X16351333Y-19217142D01*
X16398952Y-19121904D01*
X16398952Y-18836190D01*
X16351333Y-18740952D01*
X16303714Y-18693333D01*
X16208476Y-18645714D01*
X16018000Y-18645714D01*
X15922761Y-18693333D01*
X15065619Y-19264761D02*
X15160857Y-19312380D01*
X15351333Y-19312380D01*
X15446571Y-19264761D01*
X15494190Y-19169523D01*
X15494190Y-18788571D01*
X15446571Y-18693333D01*
X15351333Y-18645714D01*
X15160857Y-18645714D01*
X15065619Y-18693333D01*
X15018000Y-18788571D01*
X15018000Y-18883809D01*
X15494190Y-18979047D01*
X14732285Y-18645714D02*
X14351333Y-18645714D01*
X14589428Y-18312380D02*
X14589428Y-19169523D01*
X14541809Y-19264761D01*
X14446571Y-19312380D01*
X14351333Y-19312380D01*
X13398952Y-18645714D02*
X13018000Y-18645714D01*
X13256095Y-18312380D02*
X13256095Y-19169523D01*
X13208476Y-19264761D01*
X13113238Y-19312380D01*
X13018000Y-19312380D01*
X12684666Y-19312380D02*
X12684666Y-18312380D01*
X12256095Y-19312380D02*
X12256095Y-18788571D01*
X12303714Y-18693333D01*
X12398952Y-18645714D01*
X12541809Y-18645714D01*
X12637047Y-18693333D01*
X12684666Y-18740952D01*
X11779904Y-19312380D02*
X11779904Y-18645714D01*
X11779904Y-18312380D02*
X11827523Y-18360000D01*
X11779904Y-18407619D01*
X11732285Y-18360000D01*
X11779904Y-18312380D01*
X11779904Y-18407619D01*
X11351333Y-19264761D02*
X11256095Y-19312380D01*
X11065619Y-19312380D01*
X10970380Y-19264761D01*
X10922761Y-19169523D01*
X10922761Y-19121904D01*
X10970380Y-19026666D01*
X11065619Y-18979047D01*
X11208476Y-18979047D01*
X11303714Y-18931428D01*
X11351333Y-18836190D01*
X11351333Y-18788571D01*
X11303714Y-18693333D01*
X11208476Y-18645714D01*
X11065619Y-18645714D01*
X10970380Y-18693333D01*
X19589428Y-20438571D02*
X19446571Y-20486190D01*
X19398952Y-20533809D01*
X19351333Y-20629047D01*
X19351333Y-20771904D01*
X19398952Y-20867142D01*
X19446571Y-20914761D01*
X19541809Y-20962380D01*
X19922761Y-20962380D01*
X19922761Y-19962380D01*
X19589428Y-19962380D01*
X19494190Y-20010000D01*
X19446571Y-20057619D01*
X19398952Y-20152857D01*
X19398952Y-20248095D01*
X19446571Y-20343333D01*
X19494190Y-20390952D01*
X19589428Y-20438571D01*
X19922761Y-20438571D01*
X18446571Y-20962380D02*
X18922761Y-20962380D01*
X18922761Y-19962380D01*
X18160857Y-20676666D02*
X17684666Y-20676666D01*
X18256095Y-20962380D02*
X17922761Y-19962380D01*
X17589428Y-20962380D01*
X17256095Y-20962380D02*
X17256095Y-19962380D01*
X17256095Y-20438571D02*
X16684666Y-20438571D01*
X16684666Y-20962380D02*
X16684666Y-19962380D01*
X16208476Y-20962380D02*
X16208476Y-19962380D01*
X16208476Y-20438571D02*
X15637047Y-20438571D01*
X15637047Y-20962380D02*
X15637047Y-19962380D01*
X15160857Y-20962380D02*
X15160857Y-19962380D01*
X15160857Y-20438571D02*
X14589428Y-20438571D01*
X14589428Y-20962380D02*
X14589428Y-19962380D01*
X14113238Y-20867142D02*
X14065619Y-20914761D01*
X14113238Y-20962380D01*
X14160857Y-20914761D01*
X14113238Y-20867142D01*
X14113238Y-20962380D01*
X14113238Y-20581428D02*
X14160857Y-20010000D01*
X14113238Y-19962380D01*
X14065619Y-20010000D01*
X14113238Y-20581428D01*
X14113238Y-19962380D01*
D11*
G36*
X16764000Y-22733000D02*
G01*
X16764000Y-22225000D01*
X17399000Y-22225000D01*
X16764000Y-22733000D01*
G37*
X16764000Y-22733000D02*
X16764000Y-22225000D01*
X17399000Y-22225000D01*
X16764000Y-22733000D01*
G36*
X16764000Y-22733000D02*
G01*
X16129000Y-22225000D01*
X16764000Y-22225000D01*
X16764000Y-22733000D01*
G37*
X16764000Y-22733000D02*
X16129000Y-22225000D01*
X16764000Y-22225000D01*
X16764000Y-22733000D01*
D10*
X16129000Y-22225000D02*
X16764000Y-22733000D01*
X17399000Y-22225000D02*
X16129000Y-22225000D01*
X16764000Y-22733000D02*
X17399000Y-22225000D01*
X16764000Y-21463000D02*
X16764000Y-22733000D01*
X22709142Y-1485047D02*
X22756761Y-1437428D01*
X22804380Y-1294571D01*
X22804380Y-1199333D01*
X22756761Y-1056476D01*
X22661523Y-961238D01*
X22566285Y-913619D01*
X22375809Y-866000D01*
X22232952Y-866000D01*
X22042476Y-913619D01*
X21947238Y-961238D01*
X21852000Y-1056476D01*
X21804380Y-1199333D01*
X21804380Y-1294571D01*
X21852000Y-1437428D01*
X21899619Y-1485047D01*
X22804380Y-2056476D02*
X22756761Y-1961238D01*
X22709142Y-1913619D01*
X22613904Y-1866000D01*
X22328190Y-1866000D01*
X22232952Y-1913619D01*
X22185333Y-1961238D01*
X22137714Y-2056476D01*
X22137714Y-2199333D01*
X22185333Y-2294571D01*
X22232952Y-2342190D01*
X22328190Y-2389809D01*
X22613904Y-2389809D01*
X22709142Y-2342190D01*
X22756761Y-2294571D01*
X22804380Y-2199333D01*
X22804380Y-2056476D01*
X22137714Y-2818380D02*
X22804380Y-2818380D01*
X22232952Y-2818380D02*
X22185333Y-2866000D01*
X22137714Y-2961238D01*
X22137714Y-3104095D01*
X22185333Y-3199333D01*
X22280571Y-3246952D01*
X22804380Y-3246952D01*
X22756761Y-3675523D02*
X22804380Y-3770761D01*
X22804380Y-3961238D01*
X22756761Y-4056476D01*
X22661523Y-4104095D01*
X22613904Y-4104095D01*
X22518666Y-4056476D01*
X22471047Y-3961238D01*
X22471047Y-3818380D01*
X22423428Y-3723142D01*
X22328190Y-3675523D01*
X22280571Y-3675523D01*
X22185333Y-3723142D01*
X22137714Y-3818380D01*
X22137714Y-3961238D01*
X22185333Y-4056476D01*
X22804380Y-4675523D02*
X22756761Y-4580285D01*
X22709142Y-4532666D01*
X22613904Y-4485047D01*
X22328190Y-4485047D01*
X22232952Y-4532666D01*
X22185333Y-4580285D01*
X22137714Y-4675523D01*
X22137714Y-4818380D01*
X22185333Y-4913619D01*
X22232952Y-4961238D01*
X22328190Y-5008857D01*
X22613904Y-5008857D01*
X22709142Y-4961238D01*
X22756761Y-4913619D01*
X22804380Y-4818380D01*
X22804380Y-4675523D01*
X22804380Y-5580285D02*
X22756761Y-5485047D01*
X22661523Y-5437428D01*
X21804380Y-5437428D01*
X22756761Y-6342190D02*
X22804380Y-6246952D01*
X22804380Y-6056476D01*
X22756761Y-5961238D01*
X22661523Y-5913619D01*
X22280571Y-5913619D01*
X22185333Y-5961238D01*
X22137714Y-6056476D01*
X22137714Y-6246952D01*
X22185333Y-6342190D01*
X22280571Y-6389809D01*
X22375809Y-6389809D01*
X22471047Y-5913619D01*
X22804380Y-6818380D02*
X21804380Y-6818380D01*
X22185333Y-6818380D02*
X22137714Y-6913619D01*
X22137714Y-7104095D01*
X22185333Y-7199333D01*
X22232952Y-7246952D01*
X22328190Y-7294571D01*
X22613904Y-7294571D01*
X22709142Y-7246952D01*
X22756761Y-7199333D01*
X22804380Y-7104095D01*
X22804380Y-6913619D01*
X22756761Y-6818380D01*
X22137714Y-7627904D02*
X22804380Y-7866000D01*
X22137714Y-8104095D02*
X22804380Y-7866000D01*
X23042476Y-7770761D01*
X23090095Y-7723142D01*
X23137714Y-7627904D01*
X22137714Y-8342190D02*
X22137714Y-8723142D01*
X21804380Y-8485047D02*
X22661523Y-8485047D01*
X22756761Y-8532666D01*
X22804380Y-8627904D01*
X22804380Y-8723142D01*
X22756761Y-9437428D02*
X22804380Y-9342190D01*
X22804380Y-9151714D01*
X22756761Y-9056476D01*
X22661523Y-9008857D01*
X22280571Y-9008857D01*
X22185333Y-9056476D01*
X22137714Y-9151714D01*
X22137714Y-9342190D01*
X22185333Y-9437428D01*
X22280571Y-9485047D01*
X22375809Y-9485047D01*
X22471047Y-9008857D01*
X22756761Y-9866000D02*
X22804380Y-9961238D01*
X22804380Y-10151714D01*
X22756761Y-10246952D01*
X22661523Y-10294571D01*
X22613904Y-10294571D01*
X22518666Y-10246952D01*
X22471047Y-10151714D01*
X22471047Y-10008857D01*
X22423428Y-9913619D01*
X22328190Y-9866000D01*
X22280571Y-9866000D01*
X22185333Y-9913619D01*
X22137714Y-10008857D01*
X22137714Y-10151714D01*
X22185333Y-10246952D01*
X22709142Y-10723142D02*
X22756761Y-10770761D01*
X22804380Y-10723142D01*
X22756761Y-10675523D01*
X22709142Y-10723142D01*
X22804380Y-10723142D01*
X22756761Y-11627904D02*
X22804380Y-11532666D01*
X22804380Y-11342190D01*
X22756761Y-11246952D01*
X22709142Y-11199333D01*
X22613904Y-11151714D01*
X22328190Y-11151714D01*
X22232952Y-11199333D01*
X22185333Y-11246952D01*
X22137714Y-11342190D01*
X22137714Y-11532666D01*
X22185333Y-11627904D01*
X22804380Y-12199333D02*
X22756761Y-12104095D01*
X22709142Y-12056476D01*
X22613904Y-12008857D01*
X22328190Y-12008857D01*
X22232952Y-12056476D01*
X22185333Y-12104095D01*
X22137714Y-12199333D01*
X22137714Y-12342190D01*
X22185333Y-12437428D01*
X22232952Y-12485047D01*
X22328190Y-12532666D01*
X22613904Y-12532666D01*
X22709142Y-12485047D01*
X22756761Y-12437428D01*
X22804380Y-12342190D01*
X22804380Y-12199333D01*
X22804380Y-12961238D02*
X22137714Y-12961238D01*
X22232952Y-12961238D02*
X22185333Y-13008857D01*
X22137714Y-13104095D01*
X22137714Y-13246952D01*
X22185333Y-13342190D01*
X22280571Y-13389809D01*
X22804380Y-13389809D01*
X22280571Y-13389809D02*
X22185333Y-13437428D01*
X22137714Y-13532666D01*
X22137714Y-13675523D01*
X22185333Y-13770761D01*
X22280571Y-13818380D01*
X22804380Y-13818380D01*
X21922142Y-26614380D02*
X21922142Y-25614380D01*
X21684047Y-25614380D01*
X21541190Y-25662000D01*
X21445952Y-25757238D01*
X21398333Y-25852476D01*
X21350714Y-26042952D01*
X21350714Y-26185809D01*
X21398333Y-26376285D01*
X21445952Y-26471523D01*
X21541190Y-26566761D01*
X21684047Y-26614380D01*
X21922142Y-26614380D01*
X20922142Y-26614380D02*
X20922142Y-25947714D01*
X20922142Y-25614380D02*
X20969761Y-25662000D01*
X20922142Y-25709619D01*
X20874523Y-25662000D01*
X20922142Y-25614380D01*
X20922142Y-25709619D01*
X20017380Y-26614380D02*
X20017380Y-25614380D01*
X20017380Y-26566761D02*
X20112619Y-26614380D01*
X20303095Y-26614380D01*
X20398333Y-26566761D01*
X20445952Y-26519142D01*
X20493571Y-26423904D01*
X20493571Y-26138190D01*
X20445952Y-26042952D01*
X20398333Y-25995333D01*
X20303095Y-25947714D01*
X20112619Y-25947714D01*
X20017380Y-25995333D01*
X18874523Y-25947714D02*
X18636428Y-26614380D01*
X18398333Y-25947714D02*
X18636428Y-26614380D01*
X18731666Y-26852476D01*
X18779285Y-26900095D01*
X18874523Y-26947714D01*
X17874523Y-26614380D02*
X17969761Y-26566761D01*
X18017380Y-26519142D01*
X18065000Y-26423904D01*
X18065000Y-26138190D01*
X18017380Y-26042952D01*
X17969761Y-25995333D01*
X17874523Y-25947714D01*
X17731666Y-25947714D01*
X17636428Y-25995333D01*
X17588809Y-26042952D01*
X17541190Y-26138190D01*
X17541190Y-26423904D01*
X17588809Y-26519142D01*
X17636428Y-26566761D01*
X17731666Y-26614380D01*
X17874523Y-26614380D01*
X16684047Y-25947714D02*
X16684047Y-26614380D01*
X17112619Y-25947714D02*
X17112619Y-26471523D01*
X17065000Y-26566761D01*
X16969761Y-26614380D01*
X16826904Y-26614380D01*
X16731666Y-26566761D01*
X16684047Y-26519142D01*
X15541190Y-25947714D02*
X15350714Y-26614380D01*
X15160238Y-26138190D01*
X14969761Y-26614380D01*
X14779285Y-25947714D01*
X14398333Y-26614380D02*
X14398333Y-25947714D01*
X14398333Y-25614380D02*
X14445952Y-25662000D01*
X14398333Y-25709619D01*
X14350714Y-25662000D01*
X14398333Y-25614380D01*
X14398333Y-25709619D01*
X13922142Y-26614380D02*
X13922142Y-25947714D01*
X13922142Y-26138190D02*
X13874523Y-26042952D01*
X13826904Y-25995333D01*
X13731666Y-25947714D01*
X13636428Y-25947714D01*
X12922142Y-26566761D02*
X13017380Y-26614380D01*
X13207857Y-26614380D01*
X13303095Y-26566761D01*
X13350714Y-26471523D01*
X13350714Y-26090571D01*
X13303095Y-25995333D01*
X13207857Y-25947714D01*
X13017380Y-25947714D01*
X12922142Y-25995333D01*
X12874523Y-26090571D01*
X12874523Y-26185809D01*
X13350714Y-26281047D01*
X11779285Y-25947714D02*
X11541190Y-26614380D01*
X11303095Y-25947714D02*
X11541190Y-26614380D01*
X11636428Y-26852476D01*
X11684047Y-26900095D01*
X11779285Y-26947714D01*
X10779285Y-26614380D02*
X10874523Y-26566761D01*
X10922142Y-26519142D01*
X10969761Y-26423904D01*
X10969761Y-26138190D01*
X10922142Y-26042952D01*
X10874523Y-25995333D01*
X10779285Y-25947714D01*
X10636428Y-25947714D01*
X10541190Y-25995333D01*
X10493571Y-26042952D01*
X10445952Y-26138190D01*
X10445952Y-26423904D01*
X10493571Y-26519142D01*
X10541190Y-26566761D01*
X10636428Y-26614380D01*
X10779285Y-26614380D01*
X9588809Y-25947714D02*
X9588809Y-26614380D01*
X10017380Y-25947714D02*
X10017380Y-26471523D01*
X9969761Y-26566761D01*
X9874523Y-26614380D01*
X9731666Y-26614380D01*
X9636428Y-26566761D01*
X9588809Y-26519142D01*
X9112619Y-26614380D02*
X9112619Y-25947714D01*
X9112619Y-26138190D02*
X9065000Y-26042952D01*
X9017380Y-25995333D01*
X8922142Y-25947714D01*
X8826904Y-25947714D01*
X7303095Y-25947714D02*
X7303095Y-26757238D01*
X7350714Y-26852476D01*
X7398333Y-26900095D01*
X7493571Y-26947714D01*
X7636428Y-26947714D01*
X7731666Y-26900095D01*
X7303095Y-26566761D02*
X7398333Y-26614380D01*
X7588809Y-26614380D01*
X7684047Y-26566761D01*
X7731666Y-26519142D01*
X7779285Y-26423904D01*
X7779285Y-26138190D01*
X7731666Y-26042952D01*
X7684047Y-25995333D01*
X7588809Y-25947714D01*
X7398333Y-25947714D01*
X7303095Y-25995333D01*
X6826904Y-26614380D02*
X6826904Y-25947714D01*
X6826904Y-26138190D02*
X6779285Y-26042952D01*
X6731666Y-25995333D01*
X6636428Y-25947714D01*
X6541190Y-25947714D01*
X6065000Y-26614380D02*
X6160238Y-26566761D01*
X6207857Y-26519142D01*
X6255476Y-26423904D01*
X6255476Y-26138190D01*
X6207857Y-26042952D01*
X6160238Y-25995333D01*
X6065000Y-25947714D01*
X5922142Y-25947714D01*
X5826904Y-25995333D01*
X5779285Y-26042952D01*
X5731666Y-26138190D01*
X5731666Y-26423904D01*
X5779285Y-26519142D01*
X5826904Y-26566761D01*
X5922142Y-26614380D01*
X6065000Y-26614380D01*
X4874523Y-25947714D02*
X4874523Y-26614380D01*
X5303095Y-25947714D02*
X5303095Y-26471523D01*
X5255476Y-26566761D01*
X5160238Y-26614380D01*
X5017380Y-26614380D01*
X4922142Y-26566761D01*
X4874523Y-26519142D01*
X4398333Y-25947714D02*
X4398333Y-26614380D01*
X4398333Y-26042952D02*
X4350714Y-25995333D01*
X4255476Y-25947714D01*
X4112619Y-25947714D01*
X4017380Y-25995333D01*
X3969761Y-26090571D01*
X3969761Y-26614380D01*
X3065000Y-26614380D02*
X3065000Y-25614380D01*
X3065000Y-26566761D02*
X3160238Y-26614380D01*
X3350714Y-26614380D01*
X3445952Y-26566761D01*
X3493571Y-26519142D01*
X3541190Y-26423904D01*
X3541190Y-26138190D01*
X3493571Y-26042952D01*
X3445952Y-25995333D01*
X3350714Y-25947714D01*
X3160238Y-25947714D01*
X3065000Y-25995333D01*
X2445952Y-26519142D02*
X2398333Y-26566761D01*
X2445952Y-26614380D01*
X2493571Y-26566761D01*
X2445952Y-26519142D01*
X2445952Y-26614380D01*
X2636428Y-25662000D02*
X2541190Y-25614380D01*
X2303095Y-25614380D01*
X2207857Y-25662000D01*
X2160238Y-25757238D01*
X2160238Y-25852476D01*
X2207857Y-25947714D01*
X2255476Y-25995333D01*
X2350714Y-26042952D01*
X2398333Y-26090571D01*
X2445952Y-26185809D01*
X2445952Y-26233428D01*
X7437380Y-913619D02*
X6770714Y-913619D01*
X6865952Y-913619D02*
X6818333Y-961238D01*
X6770714Y-1056476D01*
X6770714Y-1199333D01*
X6818333Y-1294571D01*
X6913571Y-1342190D01*
X7437380Y-1342190D01*
X6913571Y-1342190D02*
X6818333Y-1389809D01*
X6770714Y-1485047D01*
X6770714Y-1627904D01*
X6818333Y-1723142D01*
X6913571Y-1770761D01*
X7437380Y-1770761D01*
X7437380Y-2246952D02*
X6770714Y-2246952D01*
X6437380Y-2246952D02*
X6485000Y-2199333D01*
X6532619Y-2246952D01*
X6485000Y-2294571D01*
X6437380Y-2246952D01*
X6532619Y-2246952D01*
X6770714Y-2723142D02*
X7437380Y-2723142D01*
X6865952Y-2723142D02*
X6818333Y-2770761D01*
X6770714Y-2866000D01*
X6770714Y-3008857D01*
X6818333Y-3104095D01*
X6913571Y-3151714D01*
X7437380Y-3151714D01*
X7437380Y-3627904D02*
X6770714Y-3627904D01*
X6437380Y-3627904D02*
X6485000Y-3580285D01*
X6532619Y-3627904D01*
X6485000Y-3675523D01*
X6437380Y-3627904D01*
X6532619Y-3627904D01*
X7437380Y-4675523D02*
X6961190Y-4342190D01*
X7437380Y-4104095D02*
X6437380Y-4104095D01*
X6437380Y-4485047D01*
X6485000Y-4580285D01*
X6532619Y-4627904D01*
X6627857Y-4675523D01*
X6770714Y-4675523D01*
X6865952Y-4627904D01*
X6913571Y-4580285D01*
X6961190Y-4485047D01*
X6961190Y-4104095D01*
X6485000Y-5627904D02*
X6437380Y-5532666D01*
X6437380Y-5389809D01*
X6485000Y-5246952D01*
X6580238Y-5151714D01*
X6675476Y-5104095D01*
X6865952Y-5056476D01*
X7008809Y-5056476D01*
X7199285Y-5104095D01*
X7294523Y-5151714D01*
X7389761Y-5246952D01*
X7437380Y-5389809D01*
X7437380Y-5485047D01*
X7389761Y-5627904D01*
X7342142Y-5675523D01*
X7008809Y-5675523D01*
X7008809Y-5485047D01*
X6913571Y-6437428D02*
X6961190Y-6580285D01*
X7008809Y-6627904D01*
X7104047Y-6675523D01*
X7246904Y-6675523D01*
X7342142Y-6627904D01*
X7389761Y-6580285D01*
X7437380Y-6485047D01*
X7437380Y-6104095D01*
X6437380Y-6104095D01*
X6437380Y-6437428D01*
X6485000Y-6532666D01*
X6532619Y-6580285D01*
X6627857Y-6627904D01*
X6723095Y-6627904D01*
X6818333Y-6580285D01*
X6865952Y-6532666D01*
X6913571Y-6437428D01*
X6913571Y-6104095D01*
X7437380Y-7104095D02*
X6770714Y-7104095D01*
X6437380Y-7104095D02*
X6485000Y-7056476D01*
X6532619Y-7104095D01*
X6485000Y-7151714D01*
X6437380Y-7104095D01*
X6532619Y-7104095D01*
X7437380Y-7580285D02*
X6770714Y-7580285D01*
X6437380Y-7580285D02*
X6485000Y-7532666D01*
X6532619Y-7580285D01*
X6485000Y-7627904D01*
X6437380Y-7580285D01*
X6532619Y-7580285D01*
X7437380Y-9389809D02*
X6961190Y-9056476D01*
X7437380Y-8818380D02*
X6437380Y-8818380D01*
X6437380Y-9199333D01*
X6485000Y-9294571D01*
X6532619Y-9342190D01*
X6627857Y-9389809D01*
X6770714Y-9389809D01*
X6865952Y-9342190D01*
X6913571Y-9294571D01*
X6961190Y-9199333D01*
X6961190Y-8818380D01*
X7389761Y-10199333D02*
X7437380Y-10104095D01*
X7437380Y-9913619D01*
X7389761Y-9818380D01*
X7294523Y-9770761D01*
X6913571Y-9770761D01*
X6818333Y-9818380D01*
X6770714Y-9913619D01*
X6770714Y-10104095D01*
X6818333Y-10199333D01*
X6913571Y-10246952D01*
X7008809Y-10246952D01*
X7104047Y-9770761D01*
X6770714Y-10580285D02*
X7437380Y-10818380D01*
X6770714Y-11056476D01*
X7342142Y-11437428D02*
X7389761Y-11485047D01*
X7437380Y-11437428D01*
X7389761Y-11389809D01*
X7342142Y-11437428D01*
X7437380Y-11437428D01*
X7437380Y-13199333D02*
X7437380Y-12627904D01*
X7437380Y-12913619D02*
X6437380Y-12913619D01*
X6580238Y-12818380D01*
X6675476Y-12723142D01*
X6723095Y-12627904D01*
X7342142Y-13627904D02*
X7389761Y-13675523D01*
X7437380Y-13627904D01*
X7389761Y-13580285D01*
X7342142Y-13627904D01*
X7437380Y-13627904D01*
X6437380Y-14294571D02*
X6437380Y-14389809D01*
X6485000Y-14485047D01*
X6532619Y-14532666D01*
X6627857Y-14580285D01*
X6818333Y-14627904D01*
X7056428Y-14627904D01*
X7246904Y-14580285D01*
X7342142Y-14532666D01*
X7389761Y-14485047D01*
X7437380Y-14389809D01*
X7437380Y-14294571D01*
X7389761Y-14199333D01*
X7342142Y-14151714D01*
X7246904Y-14104095D01*
X7056428Y-14056476D01*
X6818333Y-14056476D01*
X6627857Y-14104095D01*
X6532619Y-14151714D01*
X6485000Y-14199333D01*
X6437380Y-14294571D01*
X8834380Y-1001142D02*
X7834380Y-1001142D01*
X8215333Y-1001142D02*
X8167714Y-1096380D01*
X8167714Y-1286857D01*
X8215333Y-1382095D01*
X8262952Y-1429714D01*
X8358190Y-1477333D01*
X8643904Y-1477333D01*
X8739142Y-1429714D01*
X8786761Y-1382095D01*
X8834380Y-1286857D01*
X8834380Y-1096380D01*
X8786761Y-1001142D01*
X8167714Y-1810666D02*
X8834380Y-2048761D01*
X8167714Y-2286857D02*
X8834380Y-2048761D01*
X9072476Y-1953523D01*
X9120095Y-1905904D01*
X9167714Y-1810666D01*
X8739142Y-4001142D02*
X8786761Y-3953523D01*
X8834380Y-3810666D01*
X8834380Y-3715428D01*
X8786761Y-3572571D01*
X8691523Y-3477333D01*
X8596285Y-3429714D01*
X8405809Y-3382095D01*
X8262952Y-3382095D01*
X8072476Y-3429714D01*
X7977238Y-3477333D01*
X7882000Y-3572571D01*
X7834380Y-3715428D01*
X7834380Y-3810666D01*
X7882000Y-3953523D01*
X7929619Y-4001142D01*
X8834380Y-4572571D02*
X8786761Y-4477333D01*
X8739142Y-4429714D01*
X8643904Y-4382095D01*
X8358190Y-4382095D01*
X8262952Y-4429714D01*
X8215333Y-4477333D01*
X8167714Y-4572571D01*
X8167714Y-4715428D01*
X8215333Y-4810666D01*
X8262952Y-4858285D01*
X8358190Y-4905904D01*
X8643904Y-4905904D01*
X8739142Y-4858285D01*
X8786761Y-4810666D01*
X8834380Y-4715428D01*
X8834380Y-4572571D01*
X8834380Y-5334476D02*
X8167714Y-5334476D01*
X8262952Y-5334476D02*
X8215333Y-5382095D01*
X8167714Y-5477333D01*
X8167714Y-5620190D01*
X8215333Y-5715428D01*
X8310571Y-5763047D01*
X8834380Y-5763047D01*
X8310571Y-5763047D02*
X8215333Y-5810666D01*
X8167714Y-5905904D01*
X8167714Y-6048761D01*
X8215333Y-6143999D01*
X8310571Y-6191619D01*
X8834380Y-6191619D01*
X8834380Y-6667809D02*
X8167714Y-6667809D01*
X8262952Y-6667809D02*
X8215333Y-6715428D01*
X8167714Y-6810666D01*
X8167714Y-6953523D01*
X8215333Y-7048761D01*
X8310571Y-7096380D01*
X8834380Y-7096380D01*
X8310571Y-7096380D02*
X8215333Y-7143999D01*
X8167714Y-7239238D01*
X8167714Y-7382095D01*
X8215333Y-7477333D01*
X8310571Y-7524952D01*
X8834380Y-7524952D01*
X8834380Y-8429714D02*
X8310571Y-8429714D01*
X8215333Y-8382095D01*
X8167714Y-8286857D01*
X8167714Y-8096380D01*
X8215333Y-8001142D01*
X8786761Y-8429714D02*
X8834380Y-8334476D01*
X8834380Y-8096380D01*
X8786761Y-8001142D01*
X8691523Y-7953523D01*
X8596285Y-7953523D01*
X8501047Y-8001142D01*
X8453428Y-8096380D01*
X8453428Y-8334476D01*
X8405809Y-8429714D01*
X8167714Y-8905904D02*
X8834380Y-8905904D01*
X8262952Y-8905904D02*
X8215333Y-8953523D01*
X8167714Y-9048761D01*
X8167714Y-9191619D01*
X8215333Y-9286857D01*
X8310571Y-9334476D01*
X8834380Y-9334476D01*
X8834380Y-10239238D02*
X7834380Y-10239238D01*
X8786761Y-10239238D02*
X8834380Y-10143999D01*
X8834380Y-9953523D01*
X8786761Y-9858285D01*
X8739142Y-9810666D01*
X8643904Y-9763047D01*
X8358190Y-9763047D01*
X8262952Y-9810666D01*
X8215333Y-9858285D01*
X8167714Y-9953523D01*
X8167714Y-10143999D01*
X8215333Y-10239238D01*
X8834380Y-10715428D02*
X7834380Y-10715428D01*
X8215333Y-10715428D02*
X8167714Y-10810666D01*
X8167714Y-11001142D01*
X8215333Y-11096380D01*
X8262952Y-11144000D01*
X8358190Y-11191619D01*
X8643904Y-11191619D01*
X8739142Y-11144000D01*
X8786761Y-11096380D01*
X8834380Y-11001142D01*
X8834380Y-10810666D01*
X8786761Y-10715428D01*
X8834380Y-11763047D02*
X8786761Y-11667809D01*
X8691523Y-11620190D01*
X7834380Y-11620190D01*
X8834380Y-12286857D02*
X8786761Y-12191619D01*
X8739142Y-12143999D01*
X8643904Y-12096380D01*
X8358190Y-12096380D01*
X8262952Y-12143999D01*
X8215333Y-12191619D01*
X8167714Y-12286857D01*
X8167714Y-12429714D01*
X8215333Y-12524952D01*
X8262952Y-12572571D01*
X8358190Y-12620190D01*
X8643904Y-12620190D01*
X8739142Y-12572571D01*
X8786761Y-12524952D01*
X8834380Y-12429714D01*
X8834380Y-12286857D01*
X8786761Y-13477333D02*
X8834380Y-13382095D01*
X8834380Y-13191619D01*
X8786761Y-13096380D01*
X8739142Y-13048761D01*
X8643904Y-13001142D01*
X8358190Y-13001142D01*
X8262952Y-13048761D01*
X8215333Y-13096380D01*
X8167714Y-13191619D01*
X8167714Y-13382095D01*
X8215333Y-13477333D01*
X8834380Y-13905904D02*
X7834380Y-13905904D01*
X8453428Y-14001142D02*
X8834380Y-14286857D01*
X8167714Y-14286857D02*
X8548666Y-13905904D01*
X7834380Y-15143999D02*
X7834380Y-14953523D01*
X7882000Y-14858285D01*
X7929619Y-14810666D01*
X8072476Y-14715428D01*
X8262952Y-14667809D01*
X8643904Y-14667809D01*
X8739142Y-14715428D01*
X8786761Y-14763047D01*
X8834380Y-14858285D01*
X8834380Y-15048761D01*
X8786761Y-15143999D01*
X8739142Y-15191619D01*
X8643904Y-15239238D01*
X8405809Y-15239238D01*
X8310571Y-15191619D01*
X8262952Y-15143999D01*
X8215333Y-15048761D01*
X8215333Y-14858285D01*
X8262952Y-14763047D01*
X8310571Y-14715428D01*
X8405809Y-14667809D01*
X8167714Y-16096380D02*
X8834380Y-16096380D01*
X7786761Y-15858285D02*
X8501047Y-15620190D01*
X8501047Y-16239238D01*
X8834380Y-17144000D02*
X8834380Y-16572571D01*
X8834380Y-16858285D02*
X7834380Y-16858285D01*
X7977238Y-16763047D01*
X8072476Y-16667809D01*
X8120095Y-16572571D01*
X7834380Y-17477333D02*
X7834380Y-18144000D01*
X8834380Y-17715428D01*
M02*
