G04 #@! TF.GenerationSoftware,KiCad,Pcbnew,(5.1.5-0-10_14)*
G04 #@! TF.CreationDate,2020-07-09T21:36:47+03:00*
G04 #@! TF.ProjectId,miniRGBii,6d696e69-5247-4426-9969-2e6b69636164,rev?*
G04 #@! TF.SameCoordinates,Original*
G04 #@! TF.FileFunction,Paste,Top*
G04 #@! TF.FilePolarity,Positive*
%FSLAX46Y46*%
G04 Gerber Fmt 4.6, Leading zero omitted, Abs format (unit mm)*
G04 Created by KiCad (PCBNEW (5.1.5-0-10_14)) date 2020-07-09 21:36:47*
%MOMM*%
%LPD*%
G04 APERTURE LIST*
%ADD10C,0.100000*%
G04 APERTURE END LIST*
D10*
G36*
X12502779Y-21243144D02*
G01*
X12525834Y-21246563D01*
X12548443Y-21252227D01*
X12570387Y-21260079D01*
X12591457Y-21270044D01*
X12611448Y-21282026D01*
X12630168Y-21295910D01*
X12647438Y-21311562D01*
X12663090Y-21328832D01*
X12676974Y-21347552D01*
X12688956Y-21367543D01*
X12698921Y-21388613D01*
X12706773Y-21410557D01*
X12712437Y-21433166D01*
X12715856Y-21456221D01*
X12717000Y-21479500D01*
X12717000Y-21954500D01*
X12715856Y-21977779D01*
X12712437Y-22000834D01*
X12706773Y-22023443D01*
X12698921Y-22045387D01*
X12688956Y-22066457D01*
X12676974Y-22086448D01*
X12663090Y-22105168D01*
X12647438Y-22122438D01*
X12630168Y-22138090D01*
X12611448Y-22151974D01*
X12591457Y-22163956D01*
X12570387Y-22173921D01*
X12548443Y-22181773D01*
X12525834Y-22187437D01*
X12502779Y-22190856D01*
X12479500Y-22192000D01*
X11904500Y-22192000D01*
X11881221Y-22190856D01*
X11858166Y-22187437D01*
X11835557Y-22181773D01*
X11813613Y-22173921D01*
X11792543Y-22163956D01*
X11772552Y-22151974D01*
X11753832Y-22138090D01*
X11736562Y-22122438D01*
X11720910Y-22105168D01*
X11707026Y-22086448D01*
X11695044Y-22066457D01*
X11685079Y-22045387D01*
X11677227Y-22023443D01*
X11671563Y-22000834D01*
X11668144Y-21977779D01*
X11667000Y-21954500D01*
X11667000Y-21479500D01*
X11668144Y-21456221D01*
X11671563Y-21433166D01*
X11677227Y-21410557D01*
X11685079Y-21388613D01*
X11695044Y-21367543D01*
X11707026Y-21347552D01*
X11720910Y-21328832D01*
X11736562Y-21311562D01*
X11753832Y-21295910D01*
X11772552Y-21282026D01*
X11792543Y-21270044D01*
X11813613Y-21260079D01*
X11835557Y-21252227D01*
X11858166Y-21246563D01*
X11881221Y-21243144D01*
X11904500Y-21242000D01*
X12479500Y-21242000D01*
X12502779Y-21243144D01*
G37*
G36*
X10752779Y-21243144D02*
G01*
X10775834Y-21246563D01*
X10798443Y-21252227D01*
X10820387Y-21260079D01*
X10841457Y-21270044D01*
X10861448Y-21282026D01*
X10880168Y-21295910D01*
X10897438Y-21311562D01*
X10913090Y-21328832D01*
X10926974Y-21347552D01*
X10938956Y-21367543D01*
X10948921Y-21388613D01*
X10956773Y-21410557D01*
X10962437Y-21433166D01*
X10965856Y-21456221D01*
X10967000Y-21479500D01*
X10967000Y-21954500D01*
X10965856Y-21977779D01*
X10962437Y-22000834D01*
X10956773Y-22023443D01*
X10948921Y-22045387D01*
X10938956Y-22066457D01*
X10926974Y-22086448D01*
X10913090Y-22105168D01*
X10897438Y-22122438D01*
X10880168Y-22138090D01*
X10861448Y-22151974D01*
X10841457Y-22163956D01*
X10820387Y-22173921D01*
X10798443Y-22181773D01*
X10775834Y-22187437D01*
X10752779Y-22190856D01*
X10729500Y-22192000D01*
X10154500Y-22192000D01*
X10131221Y-22190856D01*
X10108166Y-22187437D01*
X10085557Y-22181773D01*
X10063613Y-22173921D01*
X10042543Y-22163956D01*
X10022552Y-22151974D01*
X10003832Y-22138090D01*
X9986562Y-22122438D01*
X9970910Y-22105168D01*
X9957026Y-22086448D01*
X9945044Y-22066457D01*
X9935079Y-22045387D01*
X9927227Y-22023443D01*
X9921563Y-22000834D01*
X9918144Y-21977779D01*
X9917000Y-21954500D01*
X9917000Y-21479500D01*
X9918144Y-21456221D01*
X9921563Y-21433166D01*
X9927227Y-21410557D01*
X9935079Y-21388613D01*
X9945044Y-21367543D01*
X9957026Y-21347552D01*
X9970910Y-21328832D01*
X9986562Y-21311562D01*
X10003832Y-21295910D01*
X10022552Y-21282026D01*
X10042543Y-21270044D01*
X10063613Y-21260079D01*
X10085557Y-21252227D01*
X10108166Y-21246563D01*
X10131221Y-21243144D01*
X10154500Y-21242000D01*
X10729500Y-21242000D01*
X10752779Y-21243144D01*
G37*
G36*
X18372779Y-4098144D02*
G01*
X18395834Y-4101563D01*
X18418443Y-4107227D01*
X18440387Y-4115079D01*
X18461457Y-4125044D01*
X18481448Y-4137026D01*
X18500168Y-4150910D01*
X18517438Y-4166562D01*
X18533090Y-4183832D01*
X18546974Y-4202552D01*
X18558956Y-4222543D01*
X18568921Y-4243613D01*
X18576773Y-4265557D01*
X18582437Y-4288166D01*
X18585856Y-4311221D01*
X18587000Y-4334500D01*
X18587000Y-4809500D01*
X18585856Y-4832779D01*
X18582437Y-4855834D01*
X18576773Y-4878443D01*
X18568921Y-4900387D01*
X18558956Y-4921457D01*
X18546974Y-4941448D01*
X18533090Y-4960168D01*
X18517438Y-4977438D01*
X18500168Y-4993090D01*
X18481448Y-5006974D01*
X18461457Y-5018956D01*
X18440387Y-5028921D01*
X18418443Y-5036773D01*
X18395834Y-5042437D01*
X18372779Y-5045856D01*
X18349500Y-5047000D01*
X17774500Y-5047000D01*
X17751221Y-5045856D01*
X17728166Y-5042437D01*
X17705557Y-5036773D01*
X17683613Y-5028921D01*
X17662543Y-5018956D01*
X17642552Y-5006974D01*
X17623832Y-4993090D01*
X17606562Y-4977438D01*
X17590910Y-4960168D01*
X17577026Y-4941448D01*
X17565044Y-4921457D01*
X17555079Y-4900387D01*
X17547227Y-4878443D01*
X17541563Y-4855834D01*
X17538144Y-4832779D01*
X17537000Y-4809500D01*
X17537000Y-4334500D01*
X17538144Y-4311221D01*
X17541563Y-4288166D01*
X17547227Y-4265557D01*
X17555079Y-4243613D01*
X17565044Y-4222543D01*
X17577026Y-4202552D01*
X17590910Y-4183832D01*
X17606562Y-4166562D01*
X17623832Y-4150910D01*
X17642552Y-4137026D01*
X17662543Y-4125044D01*
X17683613Y-4115079D01*
X17705557Y-4107227D01*
X17728166Y-4101563D01*
X17751221Y-4098144D01*
X17774500Y-4097000D01*
X18349500Y-4097000D01*
X18372779Y-4098144D01*
G37*
G36*
X20122779Y-4098144D02*
G01*
X20145834Y-4101563D01*
X20168443Y-4107227D01*
X20190387Y-4115079D01*
X20211457Y-4125044D01*
X20231448Y-4137026D01*
X20250168Y-4150910D01*
X20267438Y-4166562D01*
X20283090Y-4183832D01*
X20296974Y-4202552D01*
X20308956Y-4222543D01*
X20318921Y-4243613D01*
X20326773Y-4265557D01*
X20332437Y-4288166D01*
X20335856Y-4311221D01*
X20337000Y-4334500D01*
X20337000Y-4809500D01*
X20335856Y-4832779D01*
X20332437Y-4855834D01*
X20326773Y-4878443D01*
X20318921Y-4900387D01*
X20308956Y-4921457D01*
X20296974Y-4941448D01*
X20283090Y-4960168D01*
X20267438Y-4977438D01*
X20250168Y-4993090D01*
X20231448Y-5006974D01*
X20211457Y-5018956D01*
X20190387Y-5028921D01*
X20168443Y-5036773D01*
X20145834Y-5042437D01*
X20122779Y-5045856D01*
X20099500Y-5047000D01*
X19524500Y-5047000D01*
X19501221Y-5045856D01*
X19478166Y-5042437D01*
X19455557Y-5036773D01*
X19433613Y-5028921D01*
X19412543Y-5018956D01*
X19392552Y-5006974D01*
X19373832Y-4993090D01*
X19356562Y-4977438D01*
X19340910Y-4960168D01*
X19327026Y-4941448D01*
X19315044Y-4921457D01*
X19305079Y-4900387D01*
X19297227Y-4878443D01*
X19291563Y-4855834D01*
X19288144Y-4832779D01*
X19287000Y-4809500D01*
X19287000Y-4334500D01*
X19288144Y-4311221D01*
X19291563Y-4288166D01*
X19297227Y-4265557D01*
X19305079Y-4243613D01*
X19315044Y-4222543D01*
X19327026Y-4202552D01*
X19340910Y-4183832D01*
X19356562Y-4166562D01*
X19373832Y-4150910D01*
X19392552Y-4137026D01*
X19412543Y-4125044D01*
X19433613Y-4115079D01*
X19455557Y-4107227D01*
X19478166Y-4101563D01*
X19501221Y-4098144D01*
X19524500Y-4097000D01*
X20099500Y-4097000D01*
X20122779Y-4098144D01*
G37*
G36*
X12766504Y-16953204D02*
G01*
X12790773Y-16956804D01*
X12814571Y-16962765D01*
X12837671Y-16971030D01*
X12859849Y-16981520D01*
X12880893Y-16994133D01*
X12900598Y-17008747D01*
X12918777Y-17025223D01*
X12935253Y-17043402D01*
X12949867Y-17063107D01*
X12962480Y-17084151D01*
X12972970Y-17106329D01*
X12981235Y-17129429D01*
X12987196Y-17153227D01*
X12990796Y-17177496D01*
X12992000Y-17202000D01*
X12992000Y-20202000D01*
X12990796Y-20226504D01*
X12987196Y-20250773D01*
X12981235Y-20274571D01*
X12972970Y-20297671D01*
X12962480Y-20319849D01*
X12949867Y-20340893D01*
X12935253Y-20360598D01*
X12918777Y-20378777D01*
X12900598Y-20395253D01*
X12880893Y-20409867D01*
X12859849Y-20422480D01*
X12837671Y-20432970D01*
X12814571Y-20441235D01*
X12790773Y-20447196D01*
X12766504Y-20450796D01*
X12742000Y-20452000D01*
X11642000Y-20452000D01*
X11617496Y-20450796D01*
X11593227Y-20447196D01*
X11569429Y-20441235D01*
X11546329Y-20432970D01*
X11524151Y-20422480D01*
X11503107Y-20409867D01*
X11483402Y-20395253D01*
X11465223Y-20378777D01*
X11448747Y-20360598D01*
X11434133Y-20340893D01*
X11421520Y-20319849D01*
X11411030Y-20297671D01*
X11402765Y-20274571D01*
X11396804Y-20250773D01*
X11393204Y-20226504D01*
X11392000Y-20202000D01*
X11392000Y-17202000D01*
X11393204Y-17177496D01*
X11396804Y-17153227D01*
X11402765Y-17129429D01*
X11411030Y-17106329D01*
X11421520Y-17084151D01*
X11434133Y-17063107D01*
X11448747Y-17043402D01*
X11465223Y-17025223D01*
X11483402Y-17008747D01*
X11503107Y-16994133D01*
X11524151Y-16981520D01*
X11546329Y-16971030D01*
X11569429Y-16962765D01*
X11593227Y-16956804D01*
X11617496Y-16953204D01*
X11642000Y-16952000D01*
X12742000Y-16952000D01*
X12766504Y-16953204D01*
G37*
G36*
X12766504Y-11553204D02*
G01*
X12790773Y-11556804D01*
X12814571Y-11562765D01*
X12837671Y-11571030D01*
X12859849Y-11581520D01*
X12880893Y-11594133D01*
X12900598Y-11608747D01*
X12918777Y-11625223D01*
X12935253Y-11643402D01*
X12949867Y-11663107D01*
X12962480Y-11684151D01*
X12972970Y-11706329D01*
X12981235Y-11729429D01*
X12987196Y-11753227D01*
X12990796Y-11777496D01*
X12992000Y-11802000D01*
X12992000Y-14802000D01*
X12990796Y-14826504D01*
X12987196Y-14850773D01*
X12981235Y-14874571D01*
X12972970Y-14897671D01*
X12962480Y-14919849D01*
X12949867Y-14940893D01*
X12935253Y-14960598D01*
X12918777Y-14978777D01*
X12900598Y-14995253D01*
X12880893Y-15009867D01*
X12859849Y-15022480D01*
X12837671Y-15032970D01*
X12814571Y-15041235D01*
X12790773Y-15047196D01*
X12766504Y-15050796D01*
X12742000Y-15052000D01*
X11642000Y-15052000D01*
X11617496Y-15050796D01*
X11593227Y-15047196D01*
X11569429Y-15041235D01*
X11546329Y-15032970D01*
X11524151Y-15022480D01*
X11503107Y-15009867D01*
X11483402Y-14995253D01*
X11465223Y-14978777D01*
X11448747Y-14960598D01*
X11434133Y-14940893D01*
X11421520Y-14919849D01*
X11411030Y-14897671D01*
X11402765Y-14874571D01*
X11396804Y-14850773D01*
X11393204Y-14826504D01*
X11392000Y-14802000D01*
X11392000Y-11802000D01*
X11393204Y-11777496D01*
X11396804Y-11753227D01*
X11402765Y-11729429D01*
X11411030Y-11706329D01*
X11421520Y-11684151D01*
X11434133Y-11663107D01*
X11448747Y-11643402D01*
X11465223Y-11625223D01*
X11483402Y-11608747D01*
X11503107Y-11594133D01*
X11524151Y-11581520D01*
X11546329Y-11571030D01*
X11569429Y-11562765D01*
X11593227Y-11556804D01*
X11617496Y-11553204D01*
X11642000Y-11552000D01*
X12742000Y-11552000D01*
X12766504Y-11553204D01*
G37*
G36*
X20386504Y-11553204D02*
G01*
X20410773Y-11556804D01*
X20434571Y-11562765D01*
X20457671Y-11571030D01*
X20479849Y-11581520D01*
X20500893Y-11594133D01*
X20520598Y-11608747D01*
X20538777Y-11625223D01*
X20555253Y-11643402D01*
X20569867Y-11663107D01*
X20582480Y-11684151D01*
X20592970Y-11706329D01*
X20601235Y-11729429D01*
X20607196Y-11753227D01*
X20610796Y-11777496D01*
X20612000Y-11802000D01*
X20612000Y-14802000D01*
X20610796Y-14826504D01*
X20607196Y-14850773D01*
X20601235Y-14874571D01*
X20592970Y-14897671D01*
X20582480Y-14919849D01*
X20569867Y-14940893D01*
X20555253Y-14960598D01*
X20538777Y-14978777D01*
X20520598Y-14995253D01*
X20500893Y-15009867D01*
X20479849Y-15022480D01*
X20457671Y-15032970D01*
X20434571Y-15041235D01*
X20410773Y-15047196D01*
X20386504Y-15050796D01*
X20362000Y-15052000D01*
X19262000Y-15052000D01*
X19237496Y-15050796D01*
X19213227Y-15047196D01*
X19189429Y-15041235D01*
X19166329Y-15032970D01*
X19144151Y-15022480D01*
X19123107Y-15009867D01*
X19103402Y-14995253D01*
X19085223Y-14978777D01*
X19068747Y-14960598D01*
X19054133Y-14940893D01*
X19041520Y-14919849D01*
X19031030Y-14897671D01*
X19022765Y-14874571D01*
X19016804Y-14850773D01*
X19013204Y-14826504D01*
X19012000Y-14802000D01*
X19012000Y-11802000D01*
X19013204Y-11777496D01*
X19016804Y-11753227D01*
X19022765Y-11729429D01*
X19031030Y-11706329D01*
X19041520Y-11684151D01*
X19054133Y-11663107D01*
X19068747Y-11643402D01*
X19085223Y-11625223D01*
X19103402Y-11608747D01*
X19123107Y-11594133D01*
X19144151Y-11581520D01*
X19166329Y-11571030D01*
X19189429Y-11562765D01*
X19213227Y-11556804D01*
X19237496Y-11553204D01*
X19262000Y-11552000D01*
X20362000Y-11552000D01*
X20386504Y-11553204D01*
G37*
G36*
X20386504Y-16953204D02*
G01*
X20410773Y-16956804D01*
X20434571Y-16962765D01*
X20457671Y-16971030D01*
X20479849Y-16981520D01*
X20500893Y-16994133D01*
X20520598Y-17008747D01*
X20538777Y-17025223D01*
X20555253Y-17043402D01*
X20569867Y-17063107D01*
X20582480Y-17084151D01*
X20592970Y-17106329D01*
X20601235Y-17129429D01*
X20607196Y-17153227D01*
X20610796Y-17177496D01*
X20612000Y-17202000D01*
X20612000Y-20202000D01*
X20610796Y-20226504D01*
X20607196Y-20250773D01*
X20601235Y-20274571D01*
X20592970Y-20297671D01*
X20582480Y-20319849D01*
X20569867Y-20340893D01*
X20555253Y-20360598D01*
X20538777Y-20378777D01*
X20520598Y-20395253D01*
X20500893Y-20409867D01*
X20479849Y-20422480D01*
X20457671Y-20432970D01*
X20434571Y-20441235D01*
X20410773Y-20447196D01*
X20386504Y-20450796D01*
X20362000Y-20452000D01*
X19262000Y-20452000D01*
X19237496Y-20450796D01*
X19213227Y-20447196D01*
X19189429Y-20441235D01*
X19166329Y-20432970D01*
X19144151Y-20422480D01*
X19123107Y-20409867D01*
X19103402Y-20395253D01*
X19085223Y-20378777D01*
X19068747Y-20360598D01*
X19054133Y-20340893D01*
X19041520Y-20319849D01*
X19031030Y-20297671D01*
X19022765Y-20274571D01*
X19016804Y-20250773D01*
X19013204Y-20226504D01*
X19012000Y-20202000D01*
X19012000Y-17202000D01*
X19013204Y-17177496D01*
X19016804Y-17153227D01*
X19022765Y-17129429D01*
X19031030Y-17106329D01*
X19041520Y-17084151D01*
X19054133Y-17063107D01*
X19068747Y-17043402D01*
X19085223Y-17025223D01*
X19103402Y-17008747D01*
X19123107Y-16994133D01*
X19144151Y-16981520D01*
X19166329Y-16971030D01*
X19189429Y-16962765D01*
X19213227Y-16956804D01*
X19237496Y-16953204D01*
X19262000Y-16952000D01*
X20362000Y-16952000D01*
X20386504Y-16953204D01*
G37*
G36*
X5146504Y-16953204D02*
G01*
X5170773Y-16956804D01*
X5194571Y-16962765D01*
X5217671Y-16971030D01*
X5239849Y-16981520D01*
X5260893Y-16994133D01*
X5280598Y-17008747D01*
X5298777Y-17025223D01*
X5315253Y-17043402D01*
X5329867Y-17063107D01*
X5342480Y-17084151D01*
X5352970Y-17106329D01*
X5361235Y-17129429D01*
X5367196Y-17153227D01*
X5370796Y-17177496D01*
X5372000Y-17202000D01*
X5372000Y-20202000D01*
X5370796Y-20226504D01*
X5367196Y-20250773D01*
X5361235Y-20274571D01*
X5352970Y-20297671D01*
X5342480Y-20319849D01*
X5329867Y-20340893D01*
X5315253Y-20360598D01*
X5298777Y-20378777D01*
X5280598Y-20395253D01*
X5260893Y-20409867D01*
X5239849Y-20422480D01*
X5217671Y-20432970D01*
X5194571Y-20441235D01*
X5170773Y-20447196D01*
X5146504Y-20450796D01*
X5122000Y-20452000D01*
X4022000Y-20452000D01*
X3997496Y-20450796D01*
X3973227Y-20447196D01*
X3949429Y-20441235D01*
X3926329Y-20432970D01*
X3904151Y-20422480D01*
X3883107Y-20409867D01*
X3863402Y-20395253D01*
X3845223Y-20378777D01*
X3828747Y-20360598D01*
X3814133Y-20340893D01*
X3801520Y-20319849D01*
X3791030Y-20297671D01*
X3782765Y-20274571D01*
X3776804Y-20250773D01*
X3773204Y-20226504D01*
X3772000Y-20202000D01*
X3772000Y-17202000D01*
X3773204Y-17177496D01*
X3776804Y-17153227D01*
X3782765Y-17129429D01*
X3791030Y-17106329D01*
X3801520Y-17084151D01*
X3814133Y-17063107D01*
X3828747Y-17043402D01*
X3845223Y-17025223D01*
X3863402Y-17008747D01*
X3883107Y-16994133D01*
X3904151Y-16981520D01*
X3926329Y-16971030D01*
X3949429Y-16962765D01*
X3973227Y-16956804D01*
X3997496Y-16953204D01*
X4022000Y-16952000D01*
X5122000Y-16952000D01*
X5146504Y-16953204D01*
G37*
G36*
X5146504Y-11553204D02*
G01*
X5170773Y-11556804D01*
X5194571Y-11562765D01*
X5217671Y-11571030D01*
X5239849Y-11581520D01*
X5260893Y-11594133D01*
X5280598Y-11608747D01*
X5298777Y-11625223D01*
X5315253Y-11643402D01*
X5329867Y-11663107D01*
X5342480Y-11684151D01*
X5352970Y-11706329D01*
X5361235Y-11729429D01*
X5367196Y-11753227D01*
X5370796Y-11777496D01*
X5372000Y-11802000D01*
X5372000Y-14802000D01*
X5370796Y-14826504D01*
X5367196Y-14850773D01*
X5361235Y-14874571D01*
X5352970Y-14897671D01*
X5342480Y-14919849D01*
X5329867Y-14940893D01*
X5315253Y-14960598D01*
X5298777Y-14978777D01*
X5280598Y-14995253D01*
X5260893Y-15009867D01*
X5239849Y-15022480D01*
X5217671Y-15032970D01*
X5194571Y-15041235D01*
X5170773Y-15047196D01*
X5146504Y-15050796D01*
X5122000Y-15052000D01*
X4022000Y-15052000D01*
X3997496Y-15050796D01*
X3973227Y-15047196D01*
X3949429Y-15041235D01*
X3926329Y-15032970D01*
X3904151Y-15022480D01*
X3883107Y-15009867D01*
X3863402Y-14995253D01*
X3845223Y-14978777D01*
X3828747Y-14960598D01*
X3814133Y-14940893D01*
X3801520Y-14919849D01*
X3791030Y-14897671D01*
X3782765Y-14874571D01*
X3776804Y-14850773D01*
X3773204Y-14826504D01*
X3772000Y-14802000D01*
X3772000Y-11802000D01*
X3773204Y-11777496D01*
X3776804Y-11753227D01*
X3782765Y-11729429D01*
X3791030Y-11706329D01*
X3801520Y-11684151D01*
X3814133Y-11663107D01*
X3828747Y-11643402D01*
X3845223Y-11625223D01*
X3863402Y-11608747D01*
X3883107Y-11594133D01*
X3904151Y-11581520D01*
X3926329Y-11571030D01*
X3949429Y-11562765D01*
X3973227Y-11556804D01*
X3997496Y-11553204D01*
X4022000Y-11552000D01*
X5122000Y-11552000D01*
X5146504Y-11553204D01*
G37*
G36*
X4882779Y-9813144D02*
G01*
X4905834Y-9816563D01*
X4928443Y-9822227D01*
X4950387Y-9830079D01*
X4971457Y-9840044D01*
X4991448Y-9852026D01*
X5010168Y-9865910D01*
X5027438Y-9881562D01*
X5043090Y-9898832D01*
X5056974Y-9917552D01*
X5068956Y-9937543D01*
X5078921Y-9958613D01*
X5086773Y-9980557D01*
X5092437Y-10003166D01*
X5095856Y-10026221D01*
X5097000Y-10049500D01*
X5097000Y-10524500D01*
X5095856Y-10547779D01*
X5092437Y-10570834D01*
X5086773Y-10593443D01*
X5078921Y-10615387D01*
X5068956Y-10636457D01*
X5056974Y-10656448D01*
X5043090Y-10675168D01*
X5027438Y-10692438D01*
X5010168Y-10708090D01*
X4991448Y-10721974D01*
X4971457Y-10733956D01*
X4950387Y-10743921D01*
X4928443Y-10751773D01*
X4905834Y-10757437D01*
X4882779Y-10760856D01*
X4859500Y-10762000D01*
X4284500Y-10762000D01*
X4261221Y-10760856D01*
X4238166Y-10757437D01*
X4215557Y-10751773D01*
X4193613Y-10743921D01*
X4172543Y-10733956D01*
X4152552Y-10721974D01*
X4133832Y-10708090D01*
X4116562Y-10692438D01*
X4100910Y-10675168D01*
X4087026Y-10656448D01*
X4075044Y-10636457D01*
X4065079Y-10615387D01*
X4057227Y-10593443D01*
X4051563Y-10570834D01*
X4048144Y-10547779D01*
X4047000Y-10524500D01*
X4047000Y-10049500D01*
X4048144Y-10026221D01*
X4051563Y-10003166D01*
X4057227Y-9980557D01*
X4065079Y-9958613D01*
X4075044Y-9937543D01*
X4087026Y-9917552D01*
X4100910Y-9898832D01*
X4116562Y-9881562D01*
X4133832Y-9865910D01*
X4152552Y-9852026D01*
X4172543Y-9840044D01*
X4193613Y-9830079D01*
X4215557Y-9822227D01*
X4238166Y-9816563D01*
X4261221Y-9813144D01*
X4284500Y-9812000D01*
X4859500Y-9812000D01*
X4882779Y-9813144D01*
G37*
G36*
X3132779Y-9813144D02*
G01*
X3155834Y-9816563D01*
X3178443Y-9822227D01*
X3200387Y-9830079D01*
X3221457Y-9840044D01*
X3241448Y-9852026D01*
X3260168Y-9865910D01*
X3277438Y-9881562D01*
X3293090Y-9898832D01*
X3306974Y-9917552D01*
X3318956Y-9937543D01*
X3328921Y-9958613D01*
X3336773Y-9980557D01*
X3342437Y-10003166D01*
X3345856Y-10026221D01*
X3347000Y-10049500D01*
X3347000Y-10524500D01*
X3345856Y-10547779D01*
X3342437Y-10570834D01*
X3336773Y-10593443D01*
X3328921Y-10615387D01*
X3318956Y-10636457D01*
X3306974Y-10656448D01*
X3293090Y-10675168D01*
X3277438Y-10692438D01*
X3260168Y-10708090D01*
X3241448Y-10721974D01*
X3221457Y-10733956D01*
X3200387Y-10743921D01*
X3178443Y-10751773D01*
X3155834Y-10757437D01*
X3132779Y-10760856D01*
X3109500Y-10762000D01*
X2534500Y-10762000D01*
X2511221Y-10760856D01*
X2488166Y-10757437D01*
X2465557Y-10751773D01*
X2443613Y-10743921D01*
X2422543Y-10733956D01*
X2402552Y-10721974D01*
X2383832Y-10708090D01*
X2366562Y-10692438D01*
X2350910Y-10675168D01*
X2337026Y-10656448D01*
X2325044Y-10636457D01*
X2315079Y-10615387D01*
X2307227Y-10593443D01*
X2301563Y-10570834D01*
X2298144Y-10547779D01*
X2297000Y-10524500D01*
X2297000Y-10049500D01*
X2298144Y-10026221D01*
X2301563Y-10003166D01*
X2307227Y-9980557D01*
X2315079Y-9958613D01*
X2325044Y-9937543D01*
X2337026Y-9917552D01*
X2350910Y-9898832D01*
X2366562Y-9881562D01*
X2383832Y-9865910D01*
X2402552Y-9852026D01*
X2422543Y-9840044D01*
X2443613Y-9830079D01*
X2465557Y-9822227D01*
X2488166Y-9816563D01*
X2511221Y-9813144D01*
X2534500Y-9812000D01*
X3109500Y-9812000D01*
X3132779Y-9813144D01*
G37*
G36*
X2927779Y-7858144D02*
G01*
X2950834Y-7861563D01*
X2973443Y-7867227D01*
X2995387Y-7875079D01*
X3016457Y-7885044D01*
X3036448Y-7897026D01*
X3055168Y-7910910D01*
X3072438Y-7926562D01*
X3088090Y-7943832D01*
X3101974Y-7962552D01*
X3113956Y-7982543D01*
X3123921Y-8003613D01*
X3131773Y-8025557D01*
X3137437Y-8048166D01*
X3140856Y-8071221D01*
X3142000Y-8094500D01*
X3142000Y-8669500D01*
X3140856Y-8692779D01*
X3137437Y-8715834D01*
X3131773Y-8738443D01*
X3123921Y-8760387D01*
X3113956Y-8781457D01*
X3101974Y-8801448D01*
X3088090Y-8820168D01*
X3072438Y-8837438D01*
X3055168Y-8853090D01*
X3036448Y-8866974D01*
X3016457Y-8878956D01*
X2995387Y-8888921D01*
X2973443Y-8896773D01*
X2950834Y-8902437D01*
X2927779Y-8905856D01*
X2904500Y-8907000D01*
X2429500Y-8907000D01*
X2406221Y-8905856D01*
X2383166Y-8902437D01*
X2360557Y-8896773D01*
X2338613Y-8888921D01*
X2317543Y-8878956D01*
X2297552Y-8866974D01*
X2278832Y-8853090D01*
X2261562Y-8837438D01*
X2245910Y-8820168D01*
X2232026Y-8801448D01*
X2220044Y-8781457D01*
X2210079Y-8760387D01*
X2202227Y-8738443D01*
X2196563Y-8715834D01*
X2193144Y-8692779D01*
X2192000Y-8669500D01*
X2192000Y-8094500D01*
X2193144Y-8071221D01*
X2196563Y-8048166D01*
X2202227Y-8025557D01*
X2210079Y-8003613D01*
X2220044Y-7982543D01*
X2232026Y-7962552D01*
X2245910Y-7943832D01*
X2261562Y-7926562D01*
X2278832Y-7910910D01*
X2297552Y-7897026D01*
X2317543Y-7885044D01*
X2338613Y-7875079D01*
X2360557Y-7867227D01*
X2383166Y-7861563D01*
X2406221Y-7858144D01*
X2429500Y-7857000D01*
X2904500Y-7857000D01*
X2927779Y-7858144D01*
G37*
G36*
X2927779Y-6108144D02*
G01*
X2950834Y-6111563D01*
X2973443Y-6117227D01*
X2995387Y-6125079D01*
X3016457Y-6135044D01*
X3036448Y-6147026D01*
X3055168Y-6160910D01*
X3072438Y-6176562D01*
X3088090Y-6193832D01*
X3101974Y-6212552D01*
X3113956Y-6232543D01*
X3123921Y-6253613D01*
X3131773Y-6275557D01*
X3137437Y-6298166D01*
X3140856Y-6321221D01*
X3142000Y-6344500D01*
X3142000Y-6919500D01*
X3140856Y-6942779D01*
X3137437Y-6965834D01*
X3131773Y-6988443D01*
X3123921Y-7010387D01*
X3113956Y-7031457D01*
X3101974Y-7051448D01*
X3088090Y-7070168D01*
X3072438Y-7087438D01*
X3055168Y-7103090D01*
X3036448Y-7116974D01*
X3016457Y-7128956D01*
X2995387Y-7138921D01*
X2973443Y-7146773D01*
X2950834Y-7152437D01*
X2927779Y-7155856D01*
X2904500Y-7157000D01*
X2429500Y-7157000D01*
X2406221Y-7155856D01*
X2383166Y-7152437D01*
X2360557Y-7146773D01*
X2338613Y-7138921D01*
X2317543Y-7128956D01*
X2297552Y-7116974D01*
X2278832Y-7103090D01*
X2261562Y-7087438D01*
X2245910Y-7070168D01*
X2232026Y-7051448D01*
X2220044Y-7031457D01*
X2210079Y-7010387D01*
X2202227Y-6988443D01*
X2196563Y-6965834D01*
X2193144Y-6942779D01*
X2192000Y-6919500D01*
X2192000Y-6344500D01*
X2193144Y-6321221D01*
X2196563Y-6298166D01*
X2202227Y-6275557D01*
X2210079Y-6253613D01*
X2220044Y-6232543D01*
X2232026Y-6212552D01*
X2245910Y-6193832D01*
X2261562Y-6176562D01*
X2278832Y-6160910D01*
X2297552Y-6147026D01*
X2317543Y-6135044D01*
X2338613Y-6125079D01*
X2360557Y-6117227D01*
X2383166Y-6111563D01*
X2406221Y-6108144D01*
X2429500Y-6107000D01*
X2904500Y-6107000D01*
X2927779Y-6108144D01*
G37*
G36*
X12502779Y-9813144D02*
G01*
X12525834Y-9816563D01*
X12548443Y-9822227D01*
X12570387Y-9830079D01*
X12591457Y-9840044D01*
X12611448Y-9852026D01*
X12630168Y-9865910D01*
X12647438Y-9881562D01*
X12663090Y-9898832D01*
X12676974Y-9917552D01*
X12688956Y-9937543D01*
X12698921Y-9958613D01*
X12706773Y-9980557D01*
X12712437Y-10003166D01*
X12715856Y-10026221D01*
X12717000Y-10049500D01*
X12717000Y-10524500D01*
X12715856Y-10547779D01*
X12712437Y-10570834D01*
X12706773Y-10593443D01*
X12698921Y-10615387D01*
X12688956Y-10636457D01*
X12676974Y-10656448D01*
X12663090Y-10675168D01*
X12647438Y-10692438D01*
X12630168Y-10708090D01*
X12611448Y-10721974D01*
X12591457Y-10733956D01*
X12570387Y-10743921D01*
X12548443Y-10751773D01*
X12525834Y-10757437D01*
X12502779Y-10760856D01*
X12479500Y-10762000D01*
X11904500Y-10762000D01*
X11881221Y-10760856D01*
X11858166Y-10757437D01*
X11835557Y-10751773D01*
X11813613Y-10743921D01*
X11792543Y-10733956D01*
X11772552Y-10721974D01*
X11753832Y-10708090D01*
X11736562Y-10692438D01*
X11720910Y-10675168D01*
X11707026Y-10656448D01*
X11695044Y-10636457D01*
X11685079Y-10615387D01*
X11677227Y-10593443D01*
X11671563Y-10570834D01*
X11668144Y-10547779D01*
X11667000Y-10524500D01*
X11667000Y-10049500D01*
X11668144Y-10026221D01*
X11671563Y-10003166D01*
X11677227Y-9980557D01*
X11685079Y-9958613D01*
X11695044Y-9937543D01*
X11707026Y-9917552D01*
X11720910Y-9898832D01*
X11736562Y-9881562D01*
X11753832Y-9865910D01*
X11772552Y-9852026D01*
X11792543Y-9840044D01*
X11813613Y-9830079D01*
X11835557Y-9822227D01*
X11858166Y-9816563D01*
X11881221Y-9813144D01*
X11904500Y-9812000D01*
X12479500Y-9812000D01*
X12502779Y-9813144D01*
G37*
G36*
X10752779Y-9813144D02*
G01*
X10775834Y-9816563D01*
X10798443Y-9822227D01*
X10820387Y-9830079D01*
X10841457Y-9840044D01*
X10861448Y-9852026D01*
X10880168Y-9865910D01*
X10897438Y-9881562D01*
X10913090Y-9898832D01*
X10926974Y-9917552D01*
X10938956Y-9937543D01*
X10948921Y-9958613D01*
X10956773Y-9980557D01*
X10962437Y-10003166D01*
X10965856Y-10026221D01*
X10967000Y-10049500D01*
X10967000Y-10524500D01*
X10965856Y-10547779D01*
X10962437Y-10570834D01*
X10956773Y-10593443D01*
X10948921Y-10615387D01*
X10938956Y-10636457D01*
X10926974Y-10656448D01*
X10913090Y-10675168D01*
X10897438Y-10692438D01*
X10880168Y-10708090D01*
X10861448Y-10721974D01*
X10841457Y-10733956D01*
X10820387Y-10743921D01*
X10798443Y-10751773D01*
X10775834Y-10757437D01*
X10752779Y-10760856D01*
X10729500Y-10762000D01*
X10154500Y-10762000D01*
X10131221Y-10760856D01*
X10108166Y-10757437D01*
X10085557Y-10751773D01*
X10063613Y-10743921D01*
X10042543Y-10733956D01*
X10022552Y-10721974D01*
X10003832Y-10708090D01*
X9986562Y-10692438D01*
X9970910Y-10675168D01*
X9957026Y-10656448D01*
X9945044Y-10636457D01*
X9935079Y-10615387D01*
X9927227Y-10593443D01*
X9921563Y-10570834D01*
X9918144Y-10547779D01*
X9917000Y-10524500D01*
X9917000Y-10049500D01*
X9918144Y-10026221D01*
X9921563Y-10003166D01*
X9927227Y-9980557D01*
X9935079Y-9958613D01*
X9945044Y-9937543D01*
X9957026Y-9917552D01*
X9970910Y-9898832D01*
X9986562Y-9881562D01*
X10003832Y-9865910D01*
X10022552Y-9852026D01*
X10042543Y-9840044D01*
X10063613Y-9830079D01*
X10085557Y-9822227D01*
X10108166Y-9816563D01*
X10131221Y-9813144D01*
X10154500Y-9812000D01*
X10729500Y-9812000D01*
X10752779Y-9813144D01*
G37*
G36*
X10547779Y-7858144D02*
G01*
X10570834Y-7861563D01*
X10593443Y-7867227D01*
X10615387Y-7875079D01*
X10636457Y-7885044D01*
X10656448Y-7897026D01*
X10675168Y-7910910D01*
X10692438Y-7926562D01*
X10708090Y-7943832D01*
X10721974Y-7962552D01*
X10733956Y-7982543D01*
X10743921Y-8003613D01*
X10751773Y-8025557D01*
X10757437Y-8048166D01*
X10760856Y-8071221D01*
X10762000Y-8094500D01*
X10762000Y-8669500D01*
X10760856Y-8692779D01*
X10757437Y-8715834D01*
X10751773Y-8738443D01*
X10743921Y-8760387D01*
X10733956Y-8781457D01*
X10721974Y-8801448D01*
X10708090Y-8820168D01*
X10692438Y-8837438D01*
X10675168Y-8853090D01*
X10656448Y-8866974D01*
X10636457Y-8878956D01*
X10615387Y-8888921D01*
X10593443Y-8896773D01*
X10570834Y-8902437D01*
X10547779Y-8905856D01*
X10524500Y-8907000D01*
X10049500Y-8907000D01*
X10026221Y-8905856D01*
X10003166Y-8902437D01*
X9980557Y-8896773D01*
X9958613Y-8888921D01*
X9937543Y-8878956D01*
X9917552Y-8866974D01*
X9898832Y-8853090D01*
X9881562Y-8837438D01*
X9865910Y-8820168D01*
X9852026Y-8801448D01*
X9840044Y-8781457D01*
X9830079Y-8760387D01*
X9822227Y-8738443D01*
X9816563Y-8715834D01*
X9813144Y-8692779D01*
X9812000Y-8669500D01*
X9812000Y-8094500D01*
X9813144Y-8071221D01*
X9816563Y-8048166D01*
X9822227Y-8025557D01*
X9830079Y-8003613D01*
X9840044Y-7982543D01*
X9852026Y-7962552D01*
X9865910Y-7943832D01*
X9881562Y-7926562D01*
X9898832Y-7910910D01*
X9917552Y-7897026D01*
X9937543Y-7885044D01*
X9958613Y-7875079D01*
X9980557Y-7867227D01*
X10003166Y-7861563D01*
X10026221Y-7858144D01*
X10049500Y-7857000D01*
X10524500Y-7857000D01*
X10547779Y-7858144D01*
G37*
G36*
X10547779Y-6108144D02*
G01*
X10570834Y-6111563D01*
X10593443Y-6117227D01*
X10615387Y-6125079D01*
X10636457Y-6135044D01*
X10656448Y-6147026D01*
X10675168Y-6160910D01*
X10692438Y-6176562D01*
X10708090Y-6193832D01*
X10721974Y-6212552D01*
X10733956Y-6232543D01*
X10743921Y-6253613D01*
X10751773Y-6275557D01*
X10757437Y-6298166D01*
X10760856Y-6321221D01*
X10762000Y-6344500D01*
X10762000Y-6919500D01*
X10760856Y-6942779D01*
X10757437Y-6965834D01*
X10751773Y-6988443D01*
X10743921Y-7010387D01*
X10733956Y-7031457D01*
X10721974Y-7051448D01*
X10708090Y-7070168D01*
X10692438Y-7087438D01*
X10675168Y-7103090D01*
X10656448Y-7116974D01*
X10636457Y-7128956D01*
X10615387Y-7138921D01*
X10593443Y-7146773D01*
X10570834Y-7152437D01*
X10547779Y-7155856D01*
X10524500Y-7157000D01*
X10049500Y-7157000D01*
X10026221Y-7155856D01*
X10003166Y-7152437D01*
X9980557Y-7146773D01*
X9958613Y-7138921D01*
X9937543Y-7128956D01*
X9917552Y-7116974D01*
X9898832Y-7103090D01*
X9881562Y-7087438D01*
X9865910Y-7070168D01*
X9852026Y-7051448D01*
X9840044Y-7031457D01*
X9830079Y-7010387D01*
X9822227Y-6988443D01*
X9816563Y-6965834D01*
X9813144Y-6942779D01*
X9812000Y-6919500D01*
X9812000Y-6344500D01*
X9813144Y-6321221D01*
X9816563Y-6298166D01*
X9822227Y-6275557D01*
X9830079Y-6253613D01*
X9840044Y-6232543D01*
X9852026Y-6212552D01*
X9865910Y-6193832D01*
X9881562Y-6176562D01*
X9898832Y-6160910D01*
X9917552Y-6147026D01*
X9937543Y-6135044D01*
X9958613Y-6125079D01*
X9980557Y-6117227D01*
X10003166Y-6111563D01*
X10026221Y-6108144D01*
X10049500Y-6107000D01*
X10524500Y-6107000D01*
X10547779Y-6108144D01*
G37*
G36*
X20122779Y-9813144D02*
G01*
X20145834Y-9816563D01*
X20168443Y-9822227D01*
X20190387Y-9830079D01*
X20211457Y-9840044D01*
X20231448Y-9852026D01*
X20250168Y-9865910D01*
X20267438Y-9881562D01*
X20283090Y-9898832D01*
X20296974Y-9917552D01*
X20308956Y-9937543D01*
X20318921Y-9958613D01*
X20326773Y-9980557D01*
X20332437Y-10003166D01*
X20335856Y-10026221D01*
X20337000Y-10049500D01*
X20337000Y-10524500D01*
X20335856Y-10547779D01*
X20332437Y-10570834D01*
X20326773Y-10593443D01*
X20318921Y-10615387D01*
X20308956Y-10636457D01*
X20296974Y-10656448D01*
X20283090Y-10675168D01*
X20267438Y-10692438D01*
X20250168Y-10708090D01*
X20231448Y-10721974D01*
X20211457Y-10733956D01*
X20190387Y-10743921D01*
X20168443Y-10751773D01*
X20145834Y-10757437D01*
X20122779Y-10760856D01*
X20099500Y-10762000D01*
X19524500Y-10762000D01*
X19501221Y-10760856D01*
X19478166Y-10757437D01*
X19455557Y-10751773D01*
X19433613Y-10743921D01*
X19412543Y-10733956D01*
X19392552Y-10721974D01*
X19373832Y-10708090D01*
X19356562Y-10692438D01*
X19340910Y-10675168D01*
X19327026Y-10656448D01*
X19315044Y-10636457D01*
X19305079Y-10615387D01*
X19297227Y-10593443D01*
X19291563Y-10570834D01*
X19288144Y-10547779D01*
X19287000Y-10524500D01*
X19287000Y-10049500D01*
X19288144Y-10026221D01*
X19291563Y-10003166D01*
X19297227Y-9980557D01*
X19305079Y-9958613D01*
X19315044Y-9937543D01*
X19327026Y-9917552D01*
X19340910Y-9898832D01*
X19356562Y-9881562D01*
X19373832Y-9865910D01*
X19392552Y-9852026D01*
X19412543Y-9840044D01*
X19433613Y-9830079D01*
X19455557Y-9822227D01*
X19478166Y-9816563D01*
X19501221Y-9813144D01*
X19524500Y-9812000D01*
X20099500Y-9812000D01*
X20122779Y-9813144D01*
G37*
G36*
X18372779Y-9813144D02*
G01*
X18395834Y-9816563D01*
X18418443Y-9822227D01*
X18440387Y-9830079D01*
X18461457Y-9840044D01*
X18481448Y-9852026D01*
X18500168Y-9865910D01*
X18517438Y-9881562D01*
X18533090Y-9898832D01*
X18546974Y-9917552D01*
X18558956Y-9937543D01*
X18568921Y-9958613D01*
X18576773Y-9980557D01*
X18582437Y-10003166D01*
X18585856Y-10026221D01*
X18587000Y-10049500D01*
X18587000Y-10524500D01*
X18585856Y-10547779D01*
X18582437Y-10570834D01*
X18576773Y-10593443D01*
X18568921Y-10615387D01*
X18558956Y-10636457D01*
X18546974Y-10656448D01*
X18533090Y-10675168D01*
X18517438Y-10692438D01*
X18500168Y-10708090D01*
X18481448Y-10721974D01*
X18461457Y-10733956D01*
X18440387Y-10743921D01*
X18418443Y-10751773D01*
X18395834Y-10757437D01*
X18372779Y-10760856D01*
X18349500Y-10762000D01*
X17774500Y-10762000D01*
X17751221Y-10760856D01*
X17728166Y-10757437D01*
X17705557Y-10751773D01*
X17683613Y-10743921D01*
X17662543Y-10733956D01*
X17642552Y-10721974D01*
X17623832Y-10708090D01*
X17606562Y-10692438D01*
X17590910Y-10675168D01*
X17577026Y-10656448D01*
X17565044Y-10636457D01*
X17555079Y-10615387D01*
X17547227Y-10593443D01*
X17541563Y-10570834D01*
X17538144Y-10547779D01*
X17537000Y-10524500D01*
X17537000Y-10049500D01*
X17538144Y-10026221D01*
X17541563Y-10003166D01*
X17547227Y-9980557D01*
X17555079Y-9958613D01*
X17565044Y-9937543D01*
X17577026Y-9917552D01*
X17590910Y-9898832D01*
X17606562Y-9881562D01*
X17623832Y-9865910D01*
X17642552Y-9852026D01*
X17662543Y-9840044D01*
X17683613Y-9830079D01*
X17705557Y-9822227D01*
X17728166Y-9816563D01*
X17751221Y-9813144D01*
X17774500Y-9812000D01*
X18349500Y-9812000D01*
X18372779Y-9813144D01*
G37*
G36*
X18167779Y-7858144D02*
G01*
X18190834Y-7861563D01*
X18213443Y-7867227D01*
X18235387Y-7875079D01*
X18256457Y-7885044D01*
X18276448Y-7897026D01*
X18295168Y-7910910D01*
X18312438Y-7926562D01*
X18328090Y-7943832D01*
X18341974Y-7962552D01*
X18353956Y-7982543D01*
X18363921Y-8003613D01*
X18371773Y-8025557D01*
X18377437Y-8048166D01*
X18380856Y-8071221D01*
X18382000Y-8094500D01*
X18382000Y-8669500D01*
X18380856Y-8692779D01*
X18377437Y-8715834D01*
X18371773Y-8738443D01*
X18363921Y-8760387D01*
X18353956Y-8781457D01*
X18341974Y-8801448D01*
X18328090Y-8820168D01*
X18312438Y-8837438D01*
X18295168Y-8853090D01*
X18276448Y-8866974D01*
X18256457Y-8878956D01*
X18235387Y-8888921D01*
X18213443Y-8896773D01*
X18190834Y-8902437D01*
X18167779Y-8905856D01*
X18144500Y-8907000D01*
X17669500Y-8907000D01*
X17646221Y-8905856D01*
X17623166Y-8902437D01*
X17600557Y-8896773D01*
X17578613Y-8888921D01*
X17557543Y-8878956D01*
X17537552Y-8866974D01*
X17518832Y-8853090D01*
X17501562Y-8837438D01*
X17485910Y-8820168D01*
X17472026Y-8801448D01*
X17460044Y-8781457D01*
X17450079Y-8760387D01*
X17442227Y-8738443D01*
X17436563Y-8715834D01*
X17433144Y-8692779D01*
X17432000Y-8669500D01*
X17432000Y-8094500D01*
X17433144Y-8071221D01*
X17436563Y-8048166D01*
X17442227Y-8025557D01*
X17450079Y-8003613D01*
X17460044Y-7982543D01*
X17472026Y-7962552D01*
X17485910Y-7943832D01*
X17501562Y-7926562D01*
X17518832Y-7910910D01*
X17537552Y-7897026D01*
X17557543Y-7885044D01*
X17578613Y-7875079D01*
X17600557Y-7867227D01*
X17623166Y-7861563D01*
X17646221Y-7858144D01*
X17669500Y-7857000D01*
X18144500Y-7857000D01*
X18167779Y-7858144D01*
G37*
G36*
X18167779Y-6108144D02*
G01*
X18190834Y-6111563D01*
X18213443Y-6117227D01*
X18235387Y-6125079D01*
X18256457Y-6135044D01*
X18276448Y-6147026D01*
X18295168Y-6160910D01*
X18312438Y-6176562D01*
X18328090Y-6193832D01*
X18341974Y-6212552D01*
X18353956Y-6232543D01*
X18363921Y-6253613D01*
X18371773Y-6275557D01*
X18377437Y-6298166D01*
X18380856Y-6321221D01*
X18382000Y-6344500D01*
X18382000Y-6919500D01*
X18380856Y-6942779D01*
X18377437Y-6965834D01*
X18371773Y-6988443D01*
X18363921Y-7010387D01*
X18353956Y-7031457D01*
X18341974Y-7051448D01*
X18328090Y-7070168D01*
X18312438Y-7087438D01*
X18295168Y-7103090D01*
X18276448Y-7116974D01*
X18256457Y-7128956D01*
X18235387Y-7138921D01*
X18213443Y-7146773D01*
X18190834Y-7152437D01*
X18167779Y-7155856D01*
X18144500Y-7157000D01*
X17669500Y-7157000D01*
X17646221Y-7155856D01*
X17623166Y-7152437D01*
X17600557Y-7146773D01*
X17578613Y-7138921D01*
X17557543Y-7128956D01*
X17537552Y-7116974D01*
X17518832Y-7103090D01*
X17501562Y-7087438D01*
X17485910Y-7070168D01*
X17472026Y-7051448D01*
X17460044Y-7031457D01*
X17450079Y-7010387D01*
X17442227Y-6988443D01*
X17436563Y-6965834D01*
X17433144Y-6942779D01*
X17432000Y-6919500D01*
X17432000Y-6344500D01*
X17433144Y-6321221D01*
X17436563Y-6298166D01*
X17442227Y-6275557D01*
X17450079Y-6253613D01*
X17460044Y-6232543D01*
X17472026Y-6212552D01*
X17485910Y-6193832D01*
X17501562Y-6176562D01*
X17518832Y-6160910D01*
X17537552Y-6147026D01*
X17557543Y-6135044D01*
X17578613Y-6125079D01*
X17600557Y-6117227D01*
X17623166Y-6111563D01*
X17646221Y-6108144D01*
X17669500Y-6107000D01*
X18144500Y-6107000D01*
X18167779Y-6108144D01*
G37*
G36*
X4832779Y-6108144D02*
G01*
X4855834Y-6111563D01*
X4878443Y-6117227D01*
X4900387Y-6125079D01*
X4921457Y-6135044D01*
X4941448Y-6147026D01*
X4960168Y-6160910D01*
X4977438Y-6176562D01*
X4993090Y-6193832D01*
X5006974Y-6212552D01*
X5018956Y-6232543D01*
X5028921Y-6253613D01*
X5036773Y-6275557D01*
X5042437Y-6298166D01*
X5045856Y-6321221D01*
X5047000Y-6344500D01*
X5047000Y-6919500D01*
X5045856Y-6942779D01*
X5042437Y-6965834D01*
X5036773Y-6988443D01*
X5028921Y-7010387D01*
X5018956Y-7031457D01*
X5006974Y-7051448D01*
X4993090Y-7070168D01*
X4977438Y-7087438D01*
X4960168Y-7103090D01*
X4941448Y-7116974D01*
X4921457Y-7128956D01*
X4900387Y-7138921D01*
X4878443Y-7146773D01*
X4855834Y-7152437D01*
X4832779Y-7155856D01*
X4809500Y-7157000D01*
X4334500Y-7157000D01*
X4311221Y-7155856D01*
X4288166Y-7152437D01*
X4265557Y-7146773D01*
X4243613Y-7138921D01*
X4222543Y-7128956D01*
X4202552Y-7116974D01*
X4183832Y-7103090D01*
X4166562Y-7087438D01*
X4150910Y-7070168D01*
X4137026Y-7051448D01*
X4125044Y-7031457D01*
X4115079Y-7010387D01*
X4107227Y-6988443D01*
X4101563Y-6965834D01*
X4098144Y-6942779D01*
X4097000Y-6919500D01*
X4097000Y-6344500D01*
X4098144Y-6321221D01*
X4101563Y-6298166D01*
X4107227Y-6275557D01*
X4115079Y-6253613D01*
X4125044Y-6232543D01*
X4137026Y-6212552D01*
X4150910Y-6193832D01*
X4166562Y-6176562D01*
X4183832Y-6160910D01*
X4202552Y-6147026D01*
X4222543Y-6135044D01*
X4243613Y-6125079D01*
X4265557Y-6117227D01*
X4288166Y-6111563D01*
X4311221Y-6108144D01*
X4334500Y-6107000D01*
X4809500Y-6107000D01*
X4832779Y-6108144D01*
G37*
G36*
X4832779Y-7858144D02*
G01*
X4855834Y-7861563D01*
X4878443Y-7867227D01*
X4900387Y-7875079D01*
X4921457Y-7885044D01*
X4941448Y-7897026D01*
X4960168Y-7910910D01*
X4977438Y-7926562D01*
X4993090Y-7943832D01*
X5006974Y-7962552D01*
X5018956Y-7982543D01*
X5028921Y-8003613D01*
X5036773Y-8025557D01*
X5042437Y-8048166D01*
X5045856Y-8071221D01*
X5047000Y-8094500D01*
X5047000Y-8669500D01*
X5045856Y-8692779D01*
X5042437Y-8715834D01*
X5036773Y-8738443D01*
X5028921Y-8760387D01*
X5018956Y-8781457D01*
X5006974Y-8801448D01*
X4993090Y-8820168D01*
X4977438Y-8837438D01*
X4960168Y-8853090D01*
X4941448Y-8866974D01*
X4921457Y-8878956D01*
X4900387Y-8888921D01*
X4878443Y-8896773D01*
X4855834Y-8902437D01*
X4832779Y-8905856D01*
X4809500Y-8907000D01*
X4334500Y-8907000D01*
X4311221Y-8905856D01*
X4288166Y-8902437D01*
X4265557Y-8896773D01*
X4243613Y-8888921D01*
X4222543Y-8878956D01*
X4202552Y-8866974D01*
X4183832Y-8853090D01*
X4166562Y-8837438D01*
X4150910Y-8820168D01*
X4137026Y-8801448D01*
X4125044Y-8781457D01*
X4115079Y-8760387D01*
X4107227Y-8738443D01*
X4101563Y-8715834D01*
X4098144Y-8692779D01*
X4097000Y-8669500D01*
X4097000Y-8094500D01*
X4098144Y-8071221D01*
X4101563Y-8048166D01*
X4107227Y-8025557D01*
X4115079Y-8003613D01*
X4125044Y-7982543D01*
X4137026Y-7962552D01*
X4150910Y-7943832D01*
X4166562Y-7926562D01*
X4183832Y-7910910D01*
X4202552Y-7897026D01*
X4222543Y-7885044D01*
X4243613Y-7875079D01*
X4265557Y-7867227D01*
X4288166Y-7861563D01*
X4311221Y-7858144D01*
X4334500Y-7857000D01*
X4809500Y-7857000D01*
X4832779Y-7858144D01*
G37*
G36*
X12452779Y-7858144D02*
G01*
X12475834Y-7861563D01*
X12498443Y-7867227D01*
X12520387Y-7875079D01*
X12541457Y-7885044D01*
X12561448Y-7897026D01*
X12580168Y-7910910D01*
X12597438Y-7926562D01*
X12613090Y-7943832D01*
X12626974Y-7962552D01*
X12638956Y-7982543D01*
X12648921Y-8003613D01*
X12656773Y-8025557D01*
X12662437Y-8048166D01*
X12665856Y-8071221D01*
X12667000Y-8094500D01*
X12667000Y-8669500D01*
X12665856Y-8692779D01*
X12662437Y-8715834D01*
X12656773Y-8738443D01*
X12648921Y-8760387D01*
X12638956Y-8781457D01*
X12626974Y-8801448D01*
X12613090Y-8820168D01*
X12597438Y-8837438D01*
X12580168Y-8853090D01*
X12561448Y-8866974D01*
X12541457Y-8878956D01*
X12520387Y-8888921D01*
X12498443Y-8896773D01*
X12475834Y-8902437D01*
X12452779Y-8905856D01*
X12429500Y-8907000D01*
X11954500Y-8907000D01*
X11931221Y-8905856D01*
X11908166Y-8902437D01*
X11885557Y-8896773D01*
X11863613Y-8888921D01*
X11842543Y-8878956D01*
X11822552Y-8866974D01*
X11803832Y-8853090D01*
X11786562Y-8837438D01*
X11770910Y-8820168D01*
X11757026Y-8801448D01*
X11745044Y-8781457D01*
X11735079Y-8760387D01*
X11727227Y-8738443D01*
X11721563Y-8715834D01*
X11718144Y-8692779D01*
X11717000Y-8669500D01*
X11717000Y-8094500D01*
X11718144Y-8071221D01*
X11721563Y-8048166D01*
X11727227Y-8025557D01*
X11735079Y-8003613D01*
X11745044Y-7982543D01*
X11757026Y-7962552D01*
X11770910Y-7943832D01*
X11786562Y-7926562D01*
X11803832Y-7910910D01*
X11822552Y-7897026D01*
X11842543Y-7885044D01*
X11863613Y-7875079D01*
X11885557Y-7867227D01*
X11908166Y-7861563D01*
X11931221Y-7858144D01*
X11954500Y-7857000D01*
X12429500Y-7857000D01*
X12452779Y-7858144D01*
G37*
G36*
X12452779Y-6108144D02*
G01*
X12475834Y-6111563D01*
X12498443Y-6117227D01*
X12520387Y-6125079D01*
X12541457Y-6135044D01*
X12561448Y-6147026D01*
X12580168Y-6160910D01*
X12597438Y-6176562D01*
X12613090Y-6193832D01*
X12626974Y-6212552D01*
X12638956Y-6232543D01*
X12648921Y-6253613D01*
X12656773Y-6275557D01*
X12662437Y-6298166D01*
X12665856Y-6321221D01*
X12667000Y-6344500D01*
X12667000Y-6919500D01*
X12665856Y-6942779D01*
X12662437Y-6965834D01*
X12656773Y-6988443D01*
X12648921Y-7010387D01*
X12638956Y-7031457D01*
X12626974Y-7051448D01*
X12613090Y-7070168D01*
X12597438Y-7087438D01*
X12580168Y-7103090D01*
X12561448Y-7116974D01*
X12541457Y-7128956D01*
X12520387Y-7138921D01*
X12498443Y-7146773D01*
X12475834Y-7152437D01*
X12452779Y-7155856D01*
X12429500Y-7157000D01*
X11954500Y-7157000D01*
X11931221Y-7155856D01*
X11908166Y-7152437D01*
X11885557Y-7146773D01*
X11863613Y-7138921D01*
X11842543Y-7128956D01*
X11822552Y-7116974D01*
X11803832Y-7103090D01*
X11786562Y-7087438D01*
X11770910Y-7070168D01*
X11757026Y-7051448D01*
X11745044Y-7031457D01*
X11735079Y-7010387D01*
X11727227Y-6988443D01*
X11721563Y-6965834D01*
X11718144Y-6942779D01*
X11717000Y-6919500D01*
X11717000Y-6344500D01*
X11718144Y-6321221D01*
X11721563Y-6298166D01*
X11727227Y-6275557D01*
X11735079Y-6253613D01*
X11745044Y-6232543D01*
X11757026Y-6212552D01*
X11770910Y-6193832D01*
X11786562Y-6176562D01*
X11803832Y-6160910D01*
X11822552Y-6147026D01*
X11842543Y-6135044D01*
X11863613Y-6125079D01*
X11885557Y-6117227D01*
X11908166Y-6111563D01*
X11931221Y-6108144D01*
X11954500Y-6107000D01*
X12429500Y-6107000D01*
X12452779Y-6108144D01*
G37*
G36*
X20072779Y-6108144D02*
G01*
X20095834Y-6111563D01*
X20118443Y-6117227D01*
X20140387Y-6125079D01*
X20161457Y-6135044D01*
X20181448Y-6147026D01*
X20200168Y-6160910D01*
X20217438Y-6176562D01*
X20233090Y-6193832D01*
X20246974Y-6212552D01*
X20258956Y-6232543D01*
X20268921Y-6253613D01*
X20276773Y-6275557D01*
X20282437Y-6298166D01*
X20285856Y-6321221D01*
X20287000Y-6344500D01*
X20287000Y-6919500D01*
X20285856Y-6942779D01*
X20282437Y-6965834D01*
X20276773Y-6988443D01*
X20268921Y-7010387D01*
X20258956Y-7031457D01*
X20246974Y-7051448D01*
X20233090Y-7070168D01*
X20217438Y-7087438D01*
X20200168Y-7103090D01*
X20181448Y-7116974D01*
X20161457Y-7128956D01*
X20140387Y-7138921D01*
X20118443Y-7146773D01*
X20095834Y-7152437D01*
X20072779Y-7155856D01*
X20049500Y-7157000D01*
X19574500Y-7157000D01*
X19551221Y-7155856D01*
X19528166Y-7152437D01*
X19505557Y-7146773D01*
X19483613Y-7138921D01*
X19462543Y-7128956D01*
X19442552Y-7116974D01*
X19423832Y-7103090D01*
X19406562Y-7087438D01*
X19390910Y-7070168D01*
X19377026Y-7051448D01*
X19365044Y-7031457D01*
X19355079Y-7010387D01*
X19347227Y-6988443D01*
X19341563Y-6965834D01*
X19338144Y-6942779D01*
X19337000Y-6919500D01*
X19337000Y-6344500D01*
X19338144Y-6321221D01*
X19341563Y-6298166D01*
X19347227Y-6275557D01*
X19355079Y-6253613D01*
X19365044Y-6232543D01*
X19377026Y-6212552D01*
X19390910Y-6193832D01*
X19406562Y-6176562D01*
X19423832Y-6160910D01*
X19442552Y-6147026D01*
X19462543Y-6135044D01*
X19483613Y-6125079D01*
X19505557Y-6117227D01*
X19528166Y-6111563D01*
X19551221Y-6108144D01*
X19574500Y-6107000D01*
X20049500Y-6107000D01*
X20072779Y-6108144D01*
G37*
G36*
X20072779Y-7858144D02*
G01*
X20095834Y-7861563D01*
X20118443Y-7867227D01*
X20140387Y-7875079D01*
X20161457Y-7885044D01*
X20181448Y-7897026D01*
X20200168Y-7910910D01*
X20217438Y-7926562D01*
X20233090Y-7943832D01*
X20246974Y-7962552D01*
X20258956Y-7982543D01*
X20268921Y-8003613D01*
X20276773Y-8025557D01*
X20282437Y-8048166D01*
X20285856Y-8071221D01*
X20287000Y-8094500D01*
X20287000Y-8669500D01*
X20285856Y-8692779D01*
X20282437Y-8715834D01*
X20276773Y-8738443D01*
X20268921Y-8760387D01*
X20258956Y-8781457D01*
X20246974Y-8801448D01*
X20233090Y-8820168D01*
X20217438Y-8837438D01*
X20200168Y-8853090D01*
X20181448Y-8866974D01*
X20161457Y-8878956D01*
X20140387Y-8888921D01*
X20118443Y-8896773D01*
X20095834Y-8902437D01*
X20072779Y-8905856D01*
X20049500Y-8907000D01*
X19574500Y-8907000D01*
X19551221Y-8905856D01*
X19528166Y-8902437D01*
X19505557Y-8896773D01*
X19483613Y-8888921D01*
X19462543Y-8878956D01*
X19442552Y-8866974D01*
X19423832Y-8853090D01*
X19406562Y-8837438D01*
X19390910Y-8820168D01*
X19377026Y-8801448D01*
X19365044Y-8781457D01*
X19355079Y-8760387D01*
X19347227Y-8738443D01*
X19341563Y-8715834D01*
X19338144Y-8692779D01*
X19337000Y-8669500D01*
X19337000Y-8094500D01*
X19338144Y-8071221D01*
X19341563Y-8048166D01*
X19347227Y-8025557D01*
X19355079Y-8003613D01*
X19365044Y-7982543D01*
X19377026Y-7962552D01*
X19390910Y-7943832D01*
X19406562Y-7926562D01*
X19423832Y-7910910D01*
X19442552Y-7897026D01*
X19462543Y-7885044D01*
X19483613Y-7875079D01*
X19505557Y-7867227D01*
X19528166Y-7861563D01*
X19551221Y-7858144D01*
X19574500Y-7857000D01*
X20049500Y-7857000D01*
X20072779Y-7858144D01*
G37*
G36*
X3132779Y-4098144D02*
G01*
X3155834Y-4101563D01*
X3178443Y-4107227D01*
X3200387Y-4115079D01*
X3221457Y-4125044D01*
X3241448Y-4137026D01*
X3260168Y-4150910D01*
X3277438Y-4166562D01*
X3293090Y-4183832D01*
X3306974Y-4202552D01*
X3318956Y-4222543D01*
X3328921Y-4243613D01*
X3336773Y-4265557D01*
X3342437Y-4288166D01*
X3345856Y-4311221D01*
X3347000Y-4334500D01*
X3347000Y-4809500D01*
X3345856Y-4832779D01*
X3342437Y-4855834D01*
X3336773Y-4878443D01*
X3328921Y-4900387D01*
X3318956Y-4921457D01*
X3306974Y-4941448D01*
X3293090Y-4960168D01*
X3277438Y-4977438D01*
X3260168Y-4993090D01*
X3241448Y-5006974D01*
X3221457Y-5018956D01*
X3200387Y-5028921D01*
X3178443Y-5036773D01*
X3155834Y-5042437D01*
X3132779Y-5045856D01*
X3109500Y-5047000D01*
X2534500Y-5047000D01*
X2511221Y-5045856D01*
X2488166Y-5042437D01*
X2465557Y-5036773D01*
X2443613Y-5028921D01*
X2422543Y-5018956D01*
X2402552Y-5006974D01*
X2383832Y-4993090D01*
X2366562Y-4977438D01*
X2350910Y-4960168D01*
X2337026Y-4941448D01*
X2325044Y-4921457D01*
X2315079Y-4900387D01*
X2307227Y-4878443D01*
X2301563Y-4855834D01*
X2298144Y-4832779D01*
X2297000Y-4809500D01*
X2297000Y-4334500D01*
X2298144Y-4311221D01*
X2301563Y-4288166D01*
X2307227Y-4265557D01*
X2315079Y-4243613D01*
X2325044Y-4222543D01*
X2337026Y-4202552D01*
X2350910Y-4183832D01*
X2366562Y-4166562D01*
X2383832Y-4150910D01*
X2402552Y-4137026D01*
X2422543Y-4125044D01*
X2443613Y-4115079D01*
X2465557Y-4107227D01*
X2488166Y-4101563D01*
X2511221Y-4098144D01*
X2534500Y-4097000D01*
X3109500Y-4097000D01*
X3132779Y-4098144D01*
G37*
G36*
X4882779Y-4098144D02*
G01*
X4905834Y-4101563D01*
X4928443Y-4107227D01*
X4950387Y-4115079D01*
X4971457Y-4125044D01*
X4991448Y-4137026D01*
X5010168Y-4150910D01*
X5027438Y-4166562D01*
X5043090Y-4183832D01*
X5056974Y-4202552D01*
X5068956Y-4222543D01*
X5078921Y-4243613D01*
X5086773Y-4265557D01*
X5092437Y-4288166D01*
X5095856Y-4311221D01*
X5097000Y-4334500D01*
X5097000Y-4809500D01*
X5095856Y-4832779D01*
X5092437Y-4855834D01*
X5086773Y-4878443D01*
X5078921Y-4900387D01*
X5068956Y-4921457D01*
X5056974Y-4941448D01*
X5043090Y-4960168D01*
X5027438Y-4977438D01*
X5010168Y-4993090D01*
X4991448Y-5006974D01*
X4971457Y-5018956D01*
X4950387Y-5028921D01*
X4928443Y-5036773D01*
X4905834Y-5042437D01*
X4882779Y-5045856D01*
X4859500Y-5047000D01*
X4284500Y-5047000D01*
X4261221Y-5045856D01*
X4238166Y-5042437D01*
X4215557Y-5036773D01*
X4193613Y-5028921D01*
X4172543Y-5018956D01*
X4152552Y-5006974D01*
X4133832Y-4993090D01*
X4116562Y-4977438D01*
X4100910Y-4960168D01*
X4087026Y-4941448D01*
X4075044Y-4921457D01*
X4065079Y-4900387D01*
X4057227Y-4878443D01*
X4051563Y-4855834D01*
X4048144Y-4832779D01*
X4047000Y-4809500D01*
X4047000Y-4334500D01*
X4048144Y-4311221D01*
X4051563Y-4288166D01*
X4057227Y-4265557D01*
X4065079Y-4243613D01*
X4075044Y-4222543D01*
X4087026Y-4202552D01*
X4100910Y-4183832D01*
X4116562Y-4166562D01*
X4133832Y-4150910D01*
X4152552Y-4137026D01*
X4172543Y-4125044D01*
X4193613Y-4115079D01*
X4215557Y-4107227D01*
X4238166Y-4101563D01*
X4261221Y-4098144D01*
X4284500Y-4097000D01*
X4859500Y-4097000D01*
X4882779Y-4098144D01*
G37*
G36*
X20122779Y-21243144D02*
G01*
X20145834Y-21246563D01*
X20168443Y-21252227D01*
X20190387Y-21260079D01*
X20211457Y-21270044D01*
X20231448Y-21282026D01*
X20250168Y-21295910D01*
X20267438Y-21311562D01*
X20283090Y-21328832D01*
X20296974Y-21347552D01*
X20308956Y-21367543D01*
X20318921Y-21388613D01*
X20326773Y-21410557D01*
X20332437Y-21433166D01*
X20335856Y-21456221D01*
X20337000Y-21479500D01*
X20337000Y-21954500D01*
X20335856Y-21977779D01*
X20332437Y-22000834D01*
X20326773Y-22023443D01*
X20318921Y-22045387D01*
X20308956Y-22066457D01*
X20296974Y-22086448D01*
X20283090Y-22105168D01*
X20267438Y-22122438D01*
X20250168Y-22138090D01*
X20231448Y-22151974D01*
X20211457Y-22163956D01*
X20190387Y-22173921D01*
X20168443Y-22181773D01*
X20145834Y-22187437D01*
X20122779Y-22190856D01*
X20099500Y-22192000D01*
X19524500Y-22192000D01*
X19501221Y-22190856D01*
X19478166Y-22187437D01*
X19455557Y-22181773D01*
X19433613Y-22173921D01*
X19412543Y-22163956D01*
X19392552Y-22151974D01*
X19373832Y-22138090D01*
X19356562Y-22122438D01*
X19340910Y-22105168D01*
X19327026Y-22086448D01*
X19315044Y-22066457D01*
X19305079Y-22045387D01*
X19297227Y-22023443D01*
X19291563Y-22000834D01*
X19288144Y-21977779D01*
X19287000Y-21954500D01*
X19287000Y-21479500D01*
X19288144Y-21456221D01*
X19291563Y-21433166D01*
X19297227Y-21410557D01*
X19305079Y-21388613D01*
X19315044Y-21367543D01*
X19327026Y-21347552D01*
X19340910Y-21328832D01*
X19356562Y-21311562D01*
X19373832Y-21295910D01*
X19392552Y-21282026D01*
X19412543Y-21270044D01*
X19433613Y-21260079D01*
X19455557Y-21252227D01*
X19478166Y-21246563D01*
X19501221Y-21243144D01*
X19524500Y-21242000D01*
X20099500Y-21242000D01*
X20122779Y-21243144D01*
G37*
G36*
X18372779Y-21243144D02*
G01*
X18395834Y-21246563D01*
X18418443Y-21252227D01*
X18440387Y-21260079D01*
X18461457Y-21270044D01*
X18481448Y-21282026D01*
X18500168Y-21295910D01*
X18517438Y-21311562D01*
X18533090Y-21328832D01*
X18546974Y-21347552D01*
X18558956Y-21367543D01*
X18568921Y-21388613D01*
X18576773Y-21410557D01*
X18582437Y-21433166D01*
X18585856Y-21456221D01*
X18587000Y-21479500D01*
X18587000Y-21954500D01*
X18585856Y-21977779D01*
X18582437Y-22000834D01*
X18576773Y-22023443D01*
X18568921Y-22045387D01*
X18558956Y-22066457D01*
X18546974Y-22086448D01*
X18533090Y-22105168D01*
X18517438Y-22122438D01*
X18500168Y-22138090D01*
X18481448Y-22151974D01*
X18461457Y-22163956D01*
X18440387Y-22173921D01*
X18418443Y-22181773D01*
X18395834Y-22187437D01*
X18372779Y-22190856D01*
X18349500Y-22192000D01*
X17774500Y-22192000D01*
X17751221Y-22190856D01*
X17728166Y-22187437D01*
X17705557Y-22181773D01*
X17683613Y-22173921D01*
X17662543Y-22163956D01*
X17642552Y-22151974D01*
X17623832Y-22138090D01*
X17606562Y-22122438D01*
X17590910Y-22105168D01*
X17577026Y-22086448D01*
X17565044Y-22066457D01*
X17555079Y-22045387D01*
X17547227Y-22023443D01*
X17541563Y-22000834D01*
X17538144Y-21977779D01*
X17537000Y-21954500D01*
X17537000Y-21479500D01*
X17538144Y-21456221D01*
X17541563Y-21433166D01*
X17547227Y-21410557D01*
X17555079Y-21388613D01*
X17565044Y-21367543D01*
X17577026Y-21347552D01*
X17590910Y-21328832D01*
X17606562Y-21311562D01*
X17623832Y-21295910D01*
X17642552Y-21282026D01*
X17662543Y-21270044D01*
X17683613Y-21260079D01*
X17705557Y-21252227D01*
X17728166Y-21246563D01*
X17751221Y-21243144D01*
X17774500Y-21242000D01*
X18349500Y-21242000D01*
X18372779Y-21243144D01*
G37*
G36*
X3132779Y-21370144D02*
G01*
X3155834Y-21373563D01*
X3178443Y-21379227D01*
X3200387Y-21387079D01*
X3221457Y-21397044D01*
X3241448Y-21409026D01*
X3260168Y-21422910D01*
X3277438Y-21438562D01*
X3293090Y-21455832D01*
X3306974Y-21474552D01*
X3318956Y-21494543D01*
X3328921Y-21515613D01*
X3336773Y-21537557D01*
X3342437Y-21560166D01*
X3345856Y-21583221D01*
X3347000Y-21606500D01*
X3347000Y-22081500D01*
X3345856Y-22104779D01*
X3342437Y-22127834D01*
X3336773Y-22150443D01*
X3328921Y-22172387D01*
X3318956Y-22193457D01*
X3306974Y-22213448D01*
X3293090Y-22232168D01*
X3277438Y-22249438D01*
X3260168Y-22265090D01*
X3241448Y-22278974D01*
X3221457Y-22290956D01*
X3200387Y-22300921D01*
X3178443Y-22308773D01*
X3155834Y-22314437D01*
X3132779Y-22317856D01*
X3109500Y-22319000D01*
X2534500Y-22319000D01*
X2511221Y-22317856D01*
X2488166Y-22314437D01*
X2465557Y-22308773D01*
X2443613Y-22300921D01*
X2422543Y-22290956D01*
X2402552Y-22278974D01*
X2383832Y-22265090D01*
X2366562Y-22249438D01*
X2350910Y-22232168D01*
X2337026Y-22213448D01*
X2325044Y-22193457D01*
X2315079Y-22172387D01*
X2307227Y-22150443D01*
X2301563Y-22127834D01*
X2298144Y-22104779D01*
X2297000Y-22081500D01*
X2297000Y-21606500D01*
X2298144Y-21583221D01*
X2301563Y-21560166D01*
X2307227Y-21537557D01*
X2315079Y-21515613D01*
X2325044Y-21494543D01*
X2337026Y-21474552D01*
X2350910Y-21455832D01*
X2366562Y-21438562D01*
X2383832Y-21422910D01*
X2402552Y-21409026D01*
X2422543Y-21397044D01*
X2443613Y-21387079D01*
X2465557Y-21379227D01*
X2488166Y-21373563D01*
X2511221Y-21370144D01*
X2534500Y-21369000D01*
X3109500Y-21369000D01*
X3132779Y-21370144D01*
G37*
G36*
X4882779Y-21370144D02*
G01*
X4905834Y-21373563D01*
X4928443Y-21379227D01*
X4950387Y-21387079D01*
X4971457Y-21397044D01*
X4991448Y-21409026D01*
X5010168Y-21422910D01*
X5027438Y-21438562D01*
X5043090Y-21455832D01*
X5056974Y-21474552D01*
X5068956Y-21494543D01*
X5078921Y-21515613D01*
X5086773Y-21537557D01*
X5092437Y-21560166D01*
X5095856Y-21583221D01*
X5097000Y-21606500D01*
X5097000Y-22081500D01*
X5095856Y-22104779D01*
X5092437Y-22127834D01*
X5086773Y-22150443D01*
X5078921Y-22172387D01*
X5068956Y-22193457D01*
X5056974Y-22213448D01*
X5043090Y-22232168D01*
X5027438Y-22249438D01*
X5010168Y-22265090D01*
X4991448Y-22278974D01*
X4971457Y-22290956D01*
X4950387Y-22300921D01*
X4928443Y-22308773D01*
X4905834Y-22314437D01*
X4882779Y-22317856D01*
X4859500Y-22319000D01*
X4284500Y-22319000D01*
X4261221Y-22317856D01*
X4238166Y-22314437D01*
X4215557Y-22308773D01*
X4193613Y-22300921D01*
X4172543Y-22290956D01*
X4152552Y-22278974D01*
X4133832Y-22265090D01*
X4116562Y-22249438D01*
X4100910Y-22232168D01*
X4087026Y-22213448D01*
X4075044Y-22193457D01*
X4065079Y-22172387D01*
X4057227Y-22150443D01*
X4051563Y-22127834D01*
X4048144Y-22104779D01*
X4047000Y-22081500D01*
X4047000Y-21606500D01*
X4048144Y-21583221D01*
X4051563Y-21560166D01*
X4057227Y-21537557D01*
X4065079Y-21515613D01*
X4075044Y-21494543D01*
X4087026Y-21474552D01*
X4100910Y-21455832D01*
X4116562Y-21438562D01*
X4133832Y-21422910D01*
X4152552Y-21409026D01*
X4172543Y-21397044D01*
X4193613Y-21387079D01*
X4215557Y-21379227D01*
X4238166Y-21373563D01*
X4261221Y-21370144D01*
X4284500Y-21369000D01*
X4859500Y-21369000D01*
X4882779Y-21370144D01*
G37*
G36*
X10752779Y-4098144D02*
G01*
X10775834Y-4101563D01*
X10798443Y-4107227D01*
X10820387Y-4115079D01*
X10841457Y-4125044D01*
X10861448Y-4137026D01*
X10880168Y-4150910D01*
X10897438Y-4166562D01*
X10913090Y-4183832D01*
X10926974Y-4202552D01*
X10938956Y-4222543D01*
X10948921Y-4243613D01*
X10956773Y-4265557D01*
X10962437Y-4288166D01*
X10965856Y-4311221D01*
X10967000Y-4334500D01*
X10967000Y-4809500D01*
X10965856Y-4832779D01*
X10962437Y-4855834D01*
X10956773Y-4878443D01*
X10948921Y-4900387D01*
X10938956Y-4921457D01*
X10926974Y-4941448D01*
X10913090Y-4960168D01*
X10897438Y-4977438D01*
X10880168Y-4993090D01*
X10861448Y-5006974D01*
X10841457Y-5018956D01*
X10820387Y-5028921D01*
X10798443Y-5036773D01*
X10775834Y-5042437D01*
X10752779Y-5045856D01*
X10729500Y-5047000D01*
X10154500Y-5047000D01*
X10131221Y-5045856D01*
X10108166Y-5042437D01*
X10085557Y-5036773D01*
X10063613Y-5028921D01*
X10042543Y-5018956D01*
X10022552Y-5006974D01*
X10003832Y-4993090D01*
X9986562Y-4977438D01*
X9970910Y-4960168D01*
X9957026Y-4941448D01*
X9945044Y-4921457D01*
X9935079Y-4900387D01*
X9927227Y-4878443D01*
X9921563Y-4855834D01*
X9918144Y-4832779D01*
X9917000Y-4809500D01*
X9917000Y-4334500D01*
X9918144Y-4311221D01*
X9921563Y-4288166D01*
X9927227Y-4265557D01*
X9935079Y-4243613D01*
X9945044Y-4222543D01*
X9957026Y-4202552D01*
X9970910Y-4183832D01*
X9986562Y-4166562D01*
X10003832Y-4150910D01*
X10022552Y-4137026D01*
X10042543Y-4125044D01*
X10063613Y-4115079D01*
X10085557Y-4107227D01*
X10108166Y-4101563D01*
X10131221Y-4098144D01*
X10154500Y-4097000D01*
X10729500Y-4097000D01*
X10752779Y-4098144D01*
G37*
G36*
X12502779Y-4098144D02*
G01*
X12525834Y-4101563D01*
X12548443Y-4107227D01*
X12570387Y-4115079D01*
X12591457Y-4125044D01*
X12611448Y-4137026D01*
X12630168Y-4150910D01*
X12647438Y-4166562D01*
X12663090Y-4183832D01*
X12676974Y-4202552D01*
X12688956Y-4222543D01*
X12698921Y-4243613D01*
X12706773Y-4265557D01*
X12712437Y-4288166D01*
X12715856Y-4311221D01*
X12717000Y-4334500D01*
X12717000Y-4809500D01*
X12715856Y-4832779D01*
X12712437Y-4855834D01*
X12706773Y-4878443D01*
X12698921Y-4900387D01*
X12688956Y-4921457D01*
X12676974Y-4941448D01*
X12663090Y-4960168D01*
X12647438Y-4977438D01*
X12630168Y-4993090D01*
X12611448Y-5006974D01*
X12591457Y-5018956D01*
X12570387Y-5028921D01*
X12548443Y-5036773D01*
X12525834Y-5042437D01*
X12502779Y-5045856D01*
X12479500Y-5047000D01*
X11904500Y-5047000D01*
X11881221Y-5045856D01*
X11858166Y-5042437D01*
X11835557Y-5036773D01*
X11813613Y-5028921D01*
X11792543Y-5018956D01*
X11772552Y-5006974D01*
X11753832Y-4993090D01*
X11736562Y-4977438D01*
X11720910Y-4960168D01*
X11707026Y-4941448D01*
X11695044Y-4921457D01*
X11685079Y-4900387D01*
X11677227Y-4878443D01*
X11671563Y-4855834D01*
X11668144Y-4832779D01*
X11667000Y-4809500D01*
X11667000Y-4334500D01*
X11668144Y-4311221D01*
X11671563Y-4288166D01*
X11677227Y-4265557D01*
X11685079Y-4243613D01*
X11695044Y-4222543D01*
X11707026Y-4202552D01*
X11720910Y-4183832D01*
X11736562Y-4166562D01*
X11753832Y-4150910D01*
X11772552Y-4137026D01*
X11792543Y-4125044D01*
X11813613Y-4115079D01*
X11835557Y-4107227D01*
X11858166Y-4101563D01*
X11881221Y-4098144D01*
X11904500Y-4097000D01*
X12479500Y-4097000D01*
X12502779Y-4098144D01*
G37*
M02*
