G04 #@! TF.GenerationSoftware,KiCad,Pcbnew,(5.1.5-0-10_14)*
G04 #@! TF.CreationDate,2020-07-09T21:36:47+03:00*
G04 #@! TF.ProjectId,miniRGBii,6d696e69-5247-4426-9969-2e6b69636164,rev?*
G04 #@! TF.SameCoordinates,Original*
G04 #@! TF.FileFunction,Copper,L1,Top*
G04 #@! TF.FilePolarity,Positive*
%FSLAX46Y46*%
G04 Gerber Fmt 4.6, Leading zero omitted, Abs format (unit mm)*
G04 Created by KiCad (PCBNEW (5.1.5-0-10_14)) date 2020-07-09 21:36:47*
%MOMM*%
%LPD*%
G04 APERTURE LIST*
%ADD10C,2.000000*%
%ADD11C,0.100000*%
%ADD12C,0.800000*%
%ADD13C,0.500000*%
%ADD14C,0.254000*%
G04 APERTURE END LIST*
D10*
X16764000Y-24384000D03*
G04 #@! TA.AperFunction,SMDPad,CuDef*
D11*
G36*
X12502779Y-21243144D02*
G01*
X12525834Y-21246563D01*
X12548443Y-21252227D01*
X12570387Y-21260079D01*
X12591457Y-21270044D01*
X12611448Y-21282026D01*
X12630168Y-21295910D01*
X12647438Y-21311562D01*
X12663090Y-21328832D01*
X12676974Y-21347552D01*
X12688956Y-21367543D01*
X12698921Y-21388613D01*
X12706773Y-21410557D01*
X12712437Y-21433166D01*
X12715856Y-21456221D01*
X12717000Y-21479500D01*
X12717000Y-21954500D01*
X12715856Y-21977779D01*
X12712437Y-22000834D01*
X12706773Y-22023443D01*
X12698921Y-22045387D01*
X12688956Y-22066457D01*
X12676974Y-22086448D01*
X12663090Y-22105168D01*
X12647438Y-22122438D01*
X12630168Y-22138090D01*
X12611448Y-22151974D01*
X12591457Y-22163956D01*
X12570387Y-22173921D01*
X12548443Y-22181773D01*
X12525834Y-22187437D01*
X12502779Y-22190856D01*
X12479500Y-22192000D01*
X11904500Y-22192000D01*
X11881221Y-22190856D01*
X11858166Y-22187437D01*
X11835557Y-22181773D01*
X11813613Y-22173921D01*
X11792543Y-22163956D01*
X11772552Y-22151974D01*
X11753832Y-22138090D01*
X11736562Y-22122438D01*
X11720910Y-22105168D01*
X11707026Y-22086448D01*
X11695044Y-22066457D01*
X11685079Y-22045387D01*
X11677227Y-22023443D01*
X11671563Y-22000834D01*
X11668144Y-21977779D01*
X11667000Y-21954500D01*
X11667000Y-21479500D01*
X11668144Y-21456221D01*
X11671563Y-21433166D01*
X11677227Y-21410557D01*
X11685079Y-21388613D01*
X11695044Y-21367543D01*
X11707026Y-21347552D01*
X11720910Y-21328832D01*
X11736562Y-21311562D01*
X11753832Y-21295910D01*
X11772552Y-21282026D01*
X11792543Y-21270044D01*
X11813613Y-21260079D01*
X11835557Y-21252227D01*
X11858166Y-21246563D01*
X11881221Y-21243144D01*
X11904500Y-21242000D01*
X12479500Y-21242000D01*
X12502779Y-21243144D01*
G37*
G04 #@! TD.AperFunction*
G04 #@! TA.AperFunction,SMDPad,CuDef*
G36*
X10752779Y-21243144D02*
G01*
X10775834Y-21246563D01*
X10798443Y-21252227D01*
X10820387Y-21260079D01*
X10841457Y-21270044D01*
X10861448Y-21282026D01*
X10880168Y-21295910D01*
X10897438Y-21311562D01*
X10913090Y-21328832D01*
X10926974Y-21347552D01*
X10938956Y-21367543D01*
X10948921Y-21388613D01*
X10956773Y-21410557D01*
X10962437Y-21433166D01*
X10965856Y-21456221D01*
X10967000Y-21479500D01*
X10967000Y-21954500D01*
X10965856Y-21977779D01*
X10962437Y-22000834D01*
X10956773Y-22023443D01*
X10948921Y-22045387D01*
X10938956Y-22066457D01*
X10926974Y-22086448D01*
X10913090Y-22105168D01*
X10897438Y-22122438D01*
X10880168Y-22138090D01*
X10861448Y-22151974D01*
X10841457Y-22163956D01*
X10820387Y-22173921D01*
X10798443Y-22181773D01*
X10775834Y-22187437D01*
X10752779Y-22190856D01*
X10729500Y-22192000D01*
X10154500Y-22192000D01*
X10131221Y-22190856D01*
X10108166Y-22187437D01*
X10085557Y-22181773D01*
X10063613Y-22173921D01*
X10042543Y-22163956D01*
X10022552Y-22151974D01*
X10003832Y-22138090D01*
X9986562Y-22122438D01*
X9970910Y-22105168D01*
X9957026Y-22086448D01*
X9945044Y-22066457D01*
X9935079Y-22045387D01*
X9927227Y-22023443D01*
X9921563Y-22000834D01*
X9918144Y-21977779D01*
X9917000Y-21954500D01*
X9917000Y-21479500D01*
X9918144Y-21456221D01*
X9921563Y-21433166D01*
X9927227Y-21410557D01*
X9935079Y-21388613D01*
X9945044Y-21367543D01*
X9957026Y-21347552D01*
X9970910Y-21328832D01*
X9986562Y-21311562D01*
X10003832Y-21295910D01*
X10022552Y-21282026D01*
X10042543Y-21270044D01*
X10063613Y-21260079D01*
X10085557Y-21252227D01*
X10108166Y-21246563D01*
X10131221Y-21243144D01*
X10154500Y-21242000D01*
X10729500Y-21242000D01*
X10752779Y-21243144D01*
G37*
G04 #@! TD.AperFunction*
D10*
X4572000Y-2032000D03*
X19812000Y-2032000D03*
X12192000Y-2032000D03*
X19812000Y-24384000D03*
X12192000Y-24384000D03*
X4572000Y-24384000D03*
G04 #@! TA.AperFunction,SMDPad,CuDef*
D11*
G36*
X18372779Y-4098144D02*
G01*
X18395834Y-4101563D01*
X18418443Y-4107227D01*
X18440387Y-4115079D01*
X18461457Y-4125044D01*
X18481448Y-4137026D01*
X18500168Y-4150910D01*
X18517438Y-4166562D01*
X18533090Y-4183832D01*
X18546974Y-4202552D01*
X18558956Y-4222543D01*
X18568921Y-4243613D01*
X18576773Y-4265557D01*
X18582437Y-4288166D01*
X18585856Y-4311221D01*
X18587000Y-4334500D01*
X18587000Y-4809500D01*
X18585856Y-4832779D01*
X18582437Y-4855834D01*
X18576773Y-4878443D01*
X18568921Y-4900387D01*
X18558956Y-4921457D01*
X18546974Y-4941448D01*
X18533090Y-4960168D01*
X18517438Y-4977438D01*
X18500168Y-4993090D01*
X18481448Y-5006974D01*
X18461457Y-5018956D01*
X18440387Y-5028921D01*
X18418443Y-5036773D01*
X18395834Y-5042437D01*
X18372779Y-5045856D01*
X18349500Y-5047000D01*
X17774500Y-5047000D01*
X17751221Y-5045856D01*
X17728166Y-5042437D01*
X17705557Y-5036773D01*
X17683613Y-5028921D01*
X17662543Y-5018956D01*
X17642552Y-5006974D01*
X17623832Y-4993090D01*
X17606562Y-4977438D01*
X17590910Y-4960168D01*
X17577026Y-4941448D01*
X17565044Y-4921457D01*
X17555079Y-4900387D01*
X17547227Y-4878443D01*
X17541563Y-4855834D01*
X17538144Y-4832779D01*
X17537000Y-4809500D01*
X17537000Y-4334500D01*
X17538144Y-4311221D01*
X17541563Y-4288166D01*
X17547227Y-4265557D01*
X17555079Y-4243613D01*
X17565044Y-4222543D01*
X17577026Y-4202552D01*
X17590910Y-4183832D01*
X17606562Y-4166562D01*
X17623832Y-4150910D01*
X17642552Y-4137026D01*
X17662543Y-4125044D01*
X17683613Y-4115079D01*
X17705557Y-4107227D01*
X17728166Y-4101563D01*
X17751221Y-4098144D01*
X17774500Y-4097000D01*
X18349500Y-4097000D01*
X18372779Y-4098144D01*
G37*
G04 #@! TD.AperFunction*
G04 #@! TA.AperFunction,SMDPad,CuDef*
G36*
X20122779Y-4098144D02*
G01*
X20145834Y-4101563D01*
X20168443Y-4107227D01*
X20190387Y-4115079D01*
X20211457Y-4125044D01*
X20231448Y-4137026D01*
X20250168Y-4150910D01*
X20267438Y-4166562D01*
X20283090Y-4183832D01*
X20296974Y-4202552D01*
X20308956Y-4222543D01*
X20318921Y-4243613D01*
X20326773Y-4265557D01*
X20332437Y-4288166D01*
X20335856Y-4311221D01*
X20337000Y-4334500D01*
X20337000Y-4809500D01*
X20335856Y-4832779D01*
X20332437Y-4855834D01*
X20326773Y-4878443D01*
X20318921Y-4900387D01*
X20308956Y-4921457D01*
X20296974Y-4941448D01*
X20283090Y-4960168D01*
X20267438Y-4977438D01*
X20250168Y-4993090D01*
X20231448Y-5006974D01*
X20211457Y-5018956D01*
X20190387Y-5028921D01*
X20168443Y-5036773D01*
X20145834Y-5042437D01*
X20122779Y-5045856D01*
X20099500Y-5047000D01*
X19524500Y-5047000D01*
X19501221Y-5045856D01*
X19478166Y-5042437D01*
X19455557Y-5036773D01*
X19433613Y-5028921D01*
X19412543Y-5018956D01*
X19392552Y-5006974D01*
X19373832Y-4993090D01*
X19356562Y-4977438D01*
X19340910Y-4960168D01*
X19327026Y-4941448D01*
X19315044Y-4921457D01*
X19305079Y-4900387D01*
X19297227Y-4878443D01*
X19291563Y-4855834D01*
X19288144Y-4832779D01*
X19287000Y-4809500D01*
X19287000Y-4334500D01*
X19288144Y-4311221D01*
X19291563Y-4288166D01*
X19297227Y-4265557D01*
X19305079Y-4243613D01*
X19315044Y-4222543D01*
X19327026Y-4202552D01*
X19340910Y-4183832D01*
X19356562Y-4166562D01*
X19373832Y-4150910D01*
X19392552Y-4137026D01*
X19412543Y-4125044D01*
X19433613Y-4115079D01*
X19455557Y-4107227D01*
X19478166Y-4101563D01*
X19501221Y-4098144D01*
X19524500Y-4097000D01*
X20099500Y-4097000D01*
X20122779Y-4098144D01*
G37*
G04 #@! TD.AperFunction*
G04 #@! TA.AperFunction,SMDPad,CuDef*
G36*
X12766504Y-16953204D02*
G01*
X12790773Y-16956804D01*
X12814571Y-16962765D01*
X12837671Y-16971030D01*
X12859849Y-16981520D01*
X12880893Y-16994133D01*
X12900598Y-17008747D01*
X12918777Y-17025223D01*
X12935253Y-17043402D01*
X12949867Y-17063107D01*
X12962480Y-17084151D01*
X12972970Y-17106329D01*
X12981235Y-17129429D01*
X12987196Y-17153227D01*
X12990796Y-17177496D01*
X12992000Y-17202000D01*
X12992000Y-20202000D01*
X12990796Y-20226504D01*
X12987196Y-20250773D01*
X12981235Y-20274571D01*
X12972970Y-20297671D01*
X12962480Y-20319849D01*
X12949867Y-20340893D01*
X12935253Y-20360598D01*
X12918777Y-20378777D01*
X12900598Y-20395253D01*
X12880893Y-20409867D01*
X12859849Y-20422480D01*
X12837671Y-20432970D01*
X12814571Y-20441235D01*
X12790773Y-20447196D01*
X12766504Y-20450796D01*
X12742000Y-20452000D01*
X11642000Y-20452000D01*
X11617496Y-20450796D01*
X11593227Y-20447196D01*
X11569429Y-20441235D01*
X11546329Y-20432970D01*
X11524151Y-20422480D01*
X11503107Y-20409867D01*
X11483402Y-20395253D01*
X11465223Y-20378777D01*
X11448747Y-20360598D01*
X11434133Y-20340893D01*
X11421520Y-20319849D01*
X11411030Y-20297671D01*
X11402765Y-20274571D01*
X11396804Y-20250773D01*
X11393204Y-20226504D01*
X11392000Y-20202000D01*
X11392000Y-17202000D01*
X11393204Y-17177496D01*
X11396804Y-17153227D01*
X11402765Y-17129429D01*
X11411030Y-17106329D01*
X11421520Y-17084151D01*
X11434133Y-17063107D01*
X11448747Y-17043402D01*
X11465223Y-17025223D01*
X11483402Y-17008747D01*
X11503107Y-16994133D01*
X11524151Y-16981520D01*
X11546329Y-16971030D01*
X11569429Y-16962765D01*
X11593227Y-16956804D01*
X11617496Y-16953204D01*
X11642000Y-16952000D01*
X12742000Y-16952000D01*
X12766504Y-16953204D01*
G37*
G04 #@! TD.AperFunction*
G04 #@! TA.AperFunction,SMDPad,CuDef*
G36*
X12766504Y-11553204D02*
G01*
X12790773Y-11556804D01*
X12814571Y-11562765D01*
X12837671Y-11571030D01*
X12859849Y-11581520D01*
X12880893Y-11594133D01*
X12900598Y-11608747D01*
X12918777Y-11625223D01*
X12935253Y-11643402D01*
X12949867Y-11663107D01*
X12962480Y-11684151D01*
X12972970Y-11706329D01*
X12981235Y-11729429D01*
X12987196Y-11753227D01*
X12990796Y-11777496D01*
X12992000Y-11802000D01*
X12992000Y-14802000D01*
X12990796Y-14826504D01*
X12987196Y-14850773D01*
X12981235Y-14874571D01*
X12972970Y-14897671D01*
X12962480Y-14919849D01*
X12949867Y-14940893D01*
X12935253Y-14960598D01*
X12918777Y-14978777D01*
X12900598Y-14995253D01*
X12880893Y-15009867D01*
X12859849Y-15022480D01*
X12837671Y-15032970D01*
X12814571Y-15041235D01*
X12790773Y-15047196D01*
X12766504Y-15050796D01*
X12742000Y-15052000D01*
X11642000Y-15052000D01*
X11617496Y-15050796D01*
X11593227Y-15047196D01*
X11569429Y-15041235D01*
X11546329Y-15032970D01*
X11524151Y-15022480D01*
X11503107Y-15009867D01*
X11483402Y-14995253D01*
X11465223Y-14978777D01*
X11448747Y-14960598D01*
X11434133Y-14940893D01*
X11421520Y-14919849D01*
X11411030Y-14897671D01*
X11402765Y-14874571D01*
X11396804Y-14850773D01*
X11393204Y-14826504D01*
X11392000Y-14802000D01*
X11392000Y-11802000D01*
X11393204Y-11777496D01*
X11396804Y-11753227D01*
X11402765Y-11729429D01*
X11411030Y-11706329D01*
X11421520Y-11684151D01*
X11434133Y-11663107D01*
X11448747Y-11643402D01*
X11465223Y-11625223D01*
X11483402Y-11608747D01*
X11503107Y-11594133D01*
X11524151Y-11581520D01*
X11546329Y-11571030D01*
X11569429Y-11562765D01*
X11593227Y-11556804D01*
X11617496Y-11553204D01*
X11642000Y-11552000D01*
X12742000Y-11552000D01*
X12766504Y-11553204D01*
G37*
G04 #@! TD.AperFunction*
G04 #@! TA.AperFunction,SMDPad,CuDef*
G36*
X20386504Y-11553204D02*
G01*
X20410773Y-11556804D01*
X20434571Y-11562765D01*
X20457671Y-11571030D01*
X20479849Y-11581520D01*
X20500893Y-11594133D01*
X20520598Y-11608747D01*
X20538777Y-11625223D01*
X20555253Y-11643402D01*
X20569867Y-11663107D01*
X20582480Y-11684151D01*
X20592970Y-11706329D01*
X20601235Y-11729429D01*
X20607196Y-11753227D01*
X20610796Y-11777496D01*
X20612000Y-11802000D01*
X20612000Y-14802000D01*
X20610796Y-14826504D01*
X20607196Y-14850773D01*
X20601235Y-14874571D01*
X20592970Y-14897671D01*
X20582480Y-14919849D01*
X20569867Y-14940893D01*
X20555253Y-14960598D01*
X20538777Y-14978777D01*
X20520598Y-14995253D01*
X20500893Y-15009867D01*
X20479849Y-15022480D01*
X20457671Y-15032970D01*
X20434571Y-15041235D01*
X20410773Y-15047196D01*
X20386504Y-15050796D01*
X20362000Y-15052000D01*
X19262000Y-15052000D01*
X19237496Y-15050796D01*
X19213227Y-15047196D01*
X19189429Y-15041235D01*
X19166329Y-15032970D01*
X19144151Y-15022480D01*
X19123107Y-15009867D01*
X19103402Y-14995253D01*
X19085223Y-14978777D01*
X19068747Y-14960598D01*
X19054133Y-14940893D01*
X19041520Y-14919849D01*
X19031030Y-14897671D01*
X19022765Y-14874571D01*
X19016804Y-14850773D01*
X19013204Y-14826504D01*
X19012000Y-14802000D01*
X19012000Y-11802000D01*
X19013204Y-11777496D01*
X19016804Y-11753227D01*
X19022765Y-11729429D01*
X19031030Y-11706329D01*
X19041520Y-11684151D01*
X19054133Y-11663107D01*
X19068747Y-11643402D01*
X19085223Y-11625223D01*
X19103402Y-11608747D01*
X19123107Y-11594133D01*
X19144151Y-11581520D01*
X19166329Y-11571030D01*
X19189429Y-11562765D01*
X19213227Y-11556804D01*
X19237496Y-11553204D01*
X19262000Y-11552000D01*
X20362000Y-11552000D01*
X20386504Y-11553204D01*
G37*
G04 #@! TD.AperFunction*
G04 #@! TA.AperFunction,SMDPad,CuDef*
G36*
X20386504Y-16953204D02*
G01*
X20410773Y-16956804D01*
X20434571Y-16962765D01*
X20457671Y-16971030D01*
X20479849Y-16981520D01*
X20500893Y-16994133D01*
X20520598Y-17008747D01*
X20538777Y-17025223D01*
X20555253Y-17043402D01*
X20569867Y-17063107D01*
X20582480Y-17084151D01*
X20592970Y-17106329D01*
X20601235Y-17129429D01*
X20607196Y-17153227D01*
X20610796Y-17177496D01*
X20612000Y-17202000D01*
X20612000Y-20202000D01*
X20610796Y-20226504D01*
X20607196Y-20250773D01*
X20601235Y-20274571D01*
X20592970Y-20297671D01*
X20582480Y-20319849D01*
X20569867Y-20340893D01*
X20555253Y-20360598D01*
X20538777Y-20378777D01*
X20520598Y-20395253D01*
X20500893Y-20409867D01*
X20479849Y-20422480D01*
X20457671Y-20432970D01*
X20434571Y-20441235D01*
X20410773Y-20447196D01*
X20386504Y-20450796D01*
X20362000Y-20452000D01*
X19262000Y-20452000D01*
X19237496Y-20450796D01*
X19213227Y-20447196D01*
X19189429Y-20441235D01*
X19166329Y-20432970D01*
X19144151Y-20422480D01*
X19123107Y-20409867D01*
X19103402Y-20395253D01*
X19085223Y-20378777D01*
X19068747Y-20360598D01*
X19054133Y-20340893D01*
X19041520Y-20319849D01*
X19031030Y-20297671D01*
X19022765Y-20274571D01*
X19016804Y-20250773D01*
X19013204Y-20226504D01*
X19012000Y-20202000D01*
X19012000Y-17202000D01*
X19013204Y-17177496D01*
X19016804Y-17153227D01*
X19022765Y-17129429D01*
X19031030Y-17106329D01*
X19041520Y-17084151D01*
X19054133Y-17063107D01*
X19068747Y-17043402D01*
X19085223Y-17025223D01*
X19103402Y-17008747D01*
X19123107Y-16994133D01*
X19144151Y-16981520D01*
X19166329Y-16971030D01*
X19189429Y-16962765D01*
X19213227Y-16956804D01*
X19237496Y-16953204D01*
X19262000Y-16952000D01*
X20362000Y-16952000D01*
X20386504Y-16953204D01*
G37*
G04 #@! TD.AperFunction*
G04 #@! TA.AperFunction,SMDPad,CuDef*
G36*
X5146504Y-16953204D02*
G01*
X5170773Y-16956804D01*
X5194571Y-16962765D01*
X5217671Y-16971030D01*
X5239849Y-16981520D01*
X5260893Y-16994133D01*
X5280598Y-17008747D01*
X5298777Y-17025223D01*
X5315253Y-17043402D01*
X5329867Y-17063107D01*
X5342480Y-17084151D01*
X5352970Y-17106329D01*
X5361235Y-17129429D01*
X5367196Y-17153227D01*
X5370796Y-17177496D01*
X5372000Y-17202000D01*
X5372000Y-20202000D01*
X5370796Y-20226504D01*
X5367196Y-20250773D01*
X5361235Y-20274571D01*
X5352970Y-20297671D01*
X5342480Y-20319849D01*
X5329867Y-20340893D01*
X5315253Y-20360598D01*
X5298777Y-20378777D01*
X5280598Y-20395253D01*
X5260893Y-20409867D01*
X5239849Y-20422480D01*
X5217671Y-20432970D01*
X5194571Y-20441235D01*
X5170773Y-20447196D01*
X5146504Y-20450796D01*
X5122000Y-20452000D01*
X4022000Y-20452000D01*
X3997496Y-20450796D01*
X3973227Y-20447196D01*
X3949429Y-20441235D01*
X3926329Y-20432970D01*
X3904151Y-20422480D01*
X3883107Y-20409867D01*
X3863402Y-20395253D01*
X3845223Y-20378777D01*
X3828747Y-20360598D01*
X3814133Y-20340893D01*
X3801520Y-20319849D01*
X3791030Y-20297671D01*
X3782765Y-20274571D01*
X3776804Y-20250773D01*
X3773204Y-20226504D01*
X3772000Y-20202000D01*
X3772000Y-17202000D01*
X3773204Y-17177496D01*
X3776804Y-17153227D01*
X3782765Y-17129429D01*
X3791030Y-17106329D01*
X3801520Y-17084151D01*
X3814133Y-17063107D01*
X3828747Y-17043402D01*
X3845223Y-17025223D01*
X3863402Y-17008747D01*
X3883107Y-16994133D01*
X3904151Y-16981520D01*
X3926329Y-16971030D01*
X3949429Y-16962765D01*
X3973227Y-16956804D01*
X3997496Y-16953204D01*
X4022000Y-16952000D01*
X5122000Y-16952000D01*
X5146504Y-16953204D01*
G37*
G04 #@! TD.AperFunction*
G04 #@! TA.AperFunction,SMDPad,CuDef*
G36*
X5146504Y-11553204D02*
G01*
X5170773Y-11556804D01*
X5194571Y-11562765D01*
X5217671Y-11571030D01*
X5239849Y-11581520D01*
X5260893Y-11594133D01*
X5280598Y-11608747D01*
X5298777Y-11625223D01*
X5315253Y-11643402D01*
X5329867Y-11663107D01*
X5342480Y-11684151D01*
X5352970Y-11706329D01*
X5361235Y-11729429D01*
X5367196Y-11753227D01*
X5370796Y-11777496D01*
X5372000Y-11802000D01*
X5372000Y-14802000D01*
X5370796Y-14826504D01*
X5367196Y-14850773D01*
X5361235Y-14874571D01*
X5352970Y-14897671D01*
X5342480Y-14919849D01*
X5329867Y-14940893D01*
X5315253Y-14960598D01*
X5298777Y-14978777D01*
X5280598Y-14995253D01*
X5260893Y-15009867D01*
X5239849Y-15022480D01*
X5217671Y-15032970D01*
X5194571Y-15041235D01*
X5170773Y-15047196D01*
X5146504Y-15050796D01*
X5122000Y-15052000D01*
X4022000Y-15052000D01*
X3997496Y-15050796D01*
X3973227Y-15047196D01*
X3949429Y-15041235D01*
X3926329Y-15032970D01*
X3904151Y-15022480D01*
X3883107Y-15009867D01*
X3863402Y-14995253D01*
X3845223Y-14978777D01*
X3828747Y-14960598D01*
X3814133Y-14940893D01*
X3801520Y-14919849D01*
X3791030Y-14897671D01*
X3782765Y-14874571D01*
X3776804Y-14850773D01*
X3773204Y-14826504D01*
X3772000Y-14802000D01*
X3772000Y-11802000D01*
X3773204Y-11777496D01*
X3776804Y-11753227D01*
X3782765Y-11729429D01*
X3791030Y-11706329D01*
X3801520Y-11684151D01*
X3814133Y-11663107D01*
X3828747Y-11643402D01*
X3845223Y-11625223D01*
X3863402Y-11608747D01*
X3883107Y-11594133D01*
X3904151Y-11581520D01*
X3926329Y-11571030D01*
X3949429Y-11562765D01*
X3973227Y-11556804D01*
X3997496Y-11553204D01*
X4022000Y-11552000D01*
X5122000Y-11552000D01*
X5146504Y-11553204D01*
G37*
G04 #@! TD.AperFunction*
G04 #@! TA.AperFunction,SMDPad,CuDef*
G36*
X4882779Y-9813144D02*
G01*
X4905834Y-9816563D01*
X4928443Y-9822227D01*
X4950387Y-9830079D01*
X4971457Y-9840044D01*
X4991448Y-9852026D01*
X5010168Y-9865910D01*
X5027438Y-9881562D01*
X5043090Y-9898832D01*
X5056974Y-9917552D01*
X5068956Y-9937543D01*
X5078921Y-9958613D01*
X5086773Y-9980557D01*
X5092437Y-10003166D01*
X5095856Y-10026221D01*
X5097000Y-10049500D01*
X5097000Y-10524500D01*
X5095856Y-10547779D01*
X5092437Y-10570834D01*
X5086773Y-10593443D01*
X5078921Y-10615387D01*
X5068956Y-10636457D01*
X5056974Y-10656448D01*
X5043090Y-10675168D01*
X5027438Y-10692438D01*
X5010168Y-10708090D01*
X4991448Y-10721974D01*
X4971457Y-10733956D01*
X4950387Y-10743921D01*
X4928443Y-10751773D01*
X4905834Y-10757437D01*
X4882779Y-10760856D01*
X4859500Y-10762000D01*
X4284500Y-10762000D01*
X4261221Y-10760856D01*
X4238166Y-10757437D01*
X4215557Y-10751773D01*
X4193613Y-10743921D01*
X4172543Y-10733956D01*
X4152552Y-10721974D01*
X4133832Y-10708090D01*
X4116562Y-10692438D01*
X4100910Y-10675168D01*
X4087026Y-10656448D01*
X4075044Y-10636457D01*
X4065079Y-10615387D01*
X4057227Y-10593443D01*
X4051563Y-10570834D01*
X4048144Y-10547779D01*
X4047000Y-10524500D01*
X4047000Y-10049500D01*
X4048144Y-10026221D01*
X4051563Y-10003166D01*
X4057227Y-9980557D01*
X4065079Y-9958613D01*
X4075044Y-9937543D01*
X4087026Y-9917552D01*
X4100910Y-9898832D01*
X4116562Y-9881562D01*
X4133832Y-9865910D01*
X4152552Y-9852026D01*
X4172543Y-9840044D01*
X4193613Y-9830079D01*
X4215557Y-9822227D01*
X4238166Y-9816563D01*
X4261221Y-9813144D01*
X4284500Y-9812000D01*
X4859500Y-9812000D01*
X4882779Y-9813144D01*
G37*
G04 #@! TD.AperFunction*
G04 #@! TA.AperFunction,SMDPad,CuDef*
G36*
X3132779Y-9813144D02*
G01*
X3155834Y-9816563D01*
X3178443Y-9822227D01*
X3200387Y-9830079D01*
X3221457Y-9840044D01*
X3241448Y-9852026D01*
X3260168Y-9865910D01*
X3277438Y-9881562D01*
X3293090Y-9898832D01*
X3306974Y-9917552D01*
X3318956Y-9937543D01*
X3328921Y-9958613D01*
X3336773Y-9980557D01*
X3342437Y-10003166D01*
X3345856Y-10026221D01*
X3347000Y-10049500D01*
X3347000Y-10524500D01*
X3345856Y-10547779D01*
X3342437Y-10570834D01*
X3336773Y-10593443D01*
X3328921Y-10615387D01*
X3318956Y-10636457D01*
X3306974Y-10656448D01*
X3293090Y-10675168D01*
X3277438Y-10692438D01*
X3260168Y-10708090D01*
X3241448Y-10721974D01*
X3221457Y-10733956D01*
X3200387Y-10743921D01*
X3178443Y-10751773D01*
X3155834Y-10757437D01*
X3132779Y-10760856D01*
X3109500Y-10762000D01*
X2534500Y-10762000D01*
X2511221Y-10760856D01*
X2488166Y-10757437D01*
X2465557Y-10751773D01*
X2443613Y-10743921D01*
X2422543Y-10733956D01*
X2402552Y-10721974D01*
X2383832Y-10708090D01*
X2366562Y-10692438D01*
X2350910Y-10675168D01*
X2337026Y-10656448D01*
X2325044Y-10636457D01*
X2315079Y-10615387D01*
X2307227Y-10593443D01*
X2301563Y-10570834D01*
X2298144Y-10547779D01*
X2297000Y-10524500D01*
X2297000Y-10049500D01*
X2298144Y-10026221D01*
X2301563Y-10003166D01*
X2307227Y-9980557D01*
X2315079Y-9958613D01*
X2325044Y-9937543D01*
X2337026Y-9917552D01*
X2350910Y-9898832D01*
X2366562Y-9881562D01*
X2383832Y-9865910D01*
X2402552Y-9852026D01*
X2422543Y-9840044D01*
X2443613Y-9830079D01*
X2465557Y-9822227D01*
X2488166Y-9816563D01*
X2511221Y-9813144D01*
X2534500Y-9812000D01*
X3109500Y-9812000D01*
X3132779Y-9813144D01*
G37*
G04 #@! TD.AperFunction*
G04 #@! TA.AperFunction,SMDPad,CuDef*
G36*
X2927779Y-7858144D02*
G01*
X2950834Y-7861563D01*
X2973443Y-7867227D01*
X2995387Y-7875079D01*
X3016457Y-7885044D01*
X3036448Y-7897026D01*
X3055168Y-7910910D01*
X3072438Y-7926562D01*
X3088090Y-7943832D01*
X3101974Y-7962552D01*
X3113956Y-7982543D01*
X3123921Y-8003613D01*
X3131773Y-8025557D01*
X3137437Y-8048166D01*
X3140856Y-8071221D01*
X3142000Y-8094500D01*
X3142000Y-8669500D01*
X3140856Y-8692779D01*
X3137437Y-8715834D01*
X3131773Y-8738443D01*
X3123921Y-8760387D01*
X3113956Y-8781457D01*
X3101974Y-8801448D01*
X3088090Y-8820168D01*
X3072438Y-8837438D01*
X3055168Y-8853090D01*
X3036448Y-8866974D01*
X3016457Y-8878956D01*
X2995387Y-8888921D01*
X2973443Y-8896773D01*
X2950834Y-8902437D01*
X2927779Y-8905856D01*
X2904500Y-8907000D01*
X2429500Y-8907000D01*
X2406221Y-8905856D01*
X2383166Y-8902437D01*
X2360557Y-8896773D01*
X2338613Y-8888921D01*
X2317543Y-8878956D01*
X2297552Y-8866974D01*
X2278832Y-8853090D01*
X2261562Y-8837438D01*
X2245910Y-8820168D01*
X2232026Y-8801448D01*
X2220044Y-8781457D01*
X2210079Y-8760387D01*
X2202227Y-8738443D01*
X2196563Y-8715834D01*
X2193144Y-8692779D01*
X2192000Y-8669500D01*
X2192000Y-8094500D01*
X2193144Y-8071221D01*
X2196563Y-8048166D01*
X2202227Y-8025557D01*
X2210079Y-8003613D01*
X2220044Y-7982543D01*
X2232026Y-7962552D01*
X2245910Y-7943832D01*
X2261562Y-7926562D01*
X2278832Y-7910910D01*
X2297552Y-7897026D01*
X2317543Y-7885044D01*
X2338613Y-7875079D01*
X2360557Y-7867227D01*
X2383166Y-7861563D01*
X2406221Y-7858144D01*
X2429500Y-7857000D01*
X2904500Y-7857000D01*
X2927779Y-7858144D01*
G37*
G04 #@! TD.AperFunction*
G04 #@! TA.AperFunction,SMDPad,CuDef*
G36*
X2927779Y-6108144D02*
G01*
X2950834Y-6111563D01*
X2973443Y-6117227D01*
X2995387Y-6125079D01*
X3016457Y-6135044D01*
X3036448Y-6147026D01*
X3055168Y-6160910D01*
X3072438Y-6176562D01*
X3088090Y-6193832D01*
X3101974Y-6212552D01*
X3113956Y-6232543D01*
X3123921Y-6253613D01*
X3131773Y-6275557D01*
X3137437Y-6298166D01*
X3140856Y-6321221D01*
X3142000Y-6344500D01*
X3142000Y-6919500D01*
X3140856Y-6942779D01*
X3137437Y-6965834D01*
X3131773Y-6988443D01*
X3123921Y-7010387D01*
X3113956Y-7031457D01*
X3101974Y-7051448D01*
X3088090Y-7070168D01*
X3072438Y-7087438D01*
X3055168Y-7103090D01*
X3036448Y-7116974D01*
X3016457Y-7128956D01*
X2995387Y-7138921D01*
X2973443Y-7146773D01*
X2950834Y-7152437D01*
X2927779Y-7155856D01*
X2904500Y-7157000D01*
X2429500Y-7157000D01*
X2406221Y-7155856D01*
X2383166Y-7152437D01*
X2360557Y-7146773D01*
X2338613Y-7138921D01*
X2317543Y-7128956D01*
X2297552Y-7116974D01*
X2278832Y-7103090D01*
X2261562Y-7087438D01*
X2245910Y-7070168D01*
X2232026Y-7051448D01*
X2220044Y-7031457D01*
X2210079Y-7010387D01*
X2202227Y-6988443D01*
X2196563Y-6965834D01*
X2193144Y-6942779D01*
X2192000Y-6919500D01*
X2192000Y-6344500D01*
X2193144Y-6321221D01*
X2196563Y-6298166D01*
X2202227Y-6275557D01*
X2210079Y-6253613D01*
X2220044Y-6232543D01*
X2232026Y-6212552D01*
X2245910Y-6193832D01*
X2261562Y-6176562D01*
X2278832Y-6160910D01*
X2297552Y-6147026D01*
X2317543Y-6135044D01*
X2338613Y-6125079D01*
X2360557Y-6117227D01*
X2383166Y-6111563D01*
X2406221Y-6108144D01*
X2429500Y-6107000D01*
X2904500Y-6107000D01*
X2927779Y-6108144D01*
G37*
G04 #@! TD.AperFunction*
G04 #@! TA.AperFunction,SMDPad,CuDef*
G36*
X12502779Y-9813144D02*
G01*
X12525834Y-9816563D01*
X12548443Y-9822227D01*
X12570387Y-9830079D01*
X12591457Y-9840044D01*
X12611448Y-9852026D01*
X12630168Y-9865910D01*
X12647438Y-9881562D01*
X12663090Y-9898832D01*
X12676974Y-9917552D01*
X12688956Y-9937543D01*
X12698921Y-9958613D01*
X12706773Y-9980557D01*
X12712437Y-10003166D01*
X12715856Y-10026221D01*
X12717000Y-10049500D01*
X12717000Y-10524500D01*
X12715856Y-10547779D01*
X12712437Y-10570834D01*
X12706773Y-10593443D01*
X12698921Y-10615387D01*
X12688956Y-10636457D01*
X12676974Y-10656448D01*
X12663090Y-10675168D01*
X12647438Y-10692438D01*
X12630168Y-10708090D01*
X12611448Y-10721974D01*
X12591457Y-10733956D01*
X12570387Y-10743921D01*
X12548443Y-10751773D01*
X12525834Y-10757437D01*
X12502779Y-10760856D01*
X12479500Y-10762000D01*
X11904500Y-10762000D01*
X11881221Y-10760856D01*
X11858166Y-10757437D01*
X11835557Y-10751773D01*
X11813613Y-10743921D01*
X11792543Y-10733956D01*
X11772552Y-10721974D01*
X11753832Y-10708090D01*
X11736562Y-10692438D01*
X11720910Y-10675168D01*
X11707026Y-10656448D01*
X11695044Y-10636457D01*
X11685079Y-10615387D01*
X11677227Y-10593443D01*
X11671563Y-10570834D01*
X11668144Y-10547779D01*
X11667000Y-10524500D01*
X11667000Y-10049500D01*
X11668144Y-10026221D01*
X11671563Y-10003166D01*
X11677227Y-9980557D01*
X11685079Y-9958613D01*
X11695044Y-9937543D01*
X11707026Y-9917552D01*
X11720910Y-9898832D01*
X11736562Y-9881562D01*
X11753832Y-9865910D01*
X11772552Y-9852026D01*
X11792543Y-9840044D01*
X11813613Y-9830079D01*
X11835557Y-9822227D01*
X11858166Y-9816563D01*
X11881221Y-9813144D01*
X11904500Y-9812000D01*
X12479500Y-9812000D01*
X12502779Y-9813144D01*
G37*
G04 #@! TD.AperFunction*
G04 #@! TA.AperFunction,SMDPad,CuDef*
G36*
X10752779Y-9813144D02*
G01*
X10775834Y-9816563D01*
X10798443Y-9822227D01*
X10820387Y-9830079D01*
X10841457Y-9840044D01*
X10861448Y-9852026D01*
X10880168Y-9865910D01*
X10897438Y-9881562D01*
X10913090Y-9898832D01*
X10926974Y-9917552D01*
X10938956Y-9937543D01*
X10948921Y-9958613D01*
X10956773Y-9980557D01*
X10962437Y-10003166D01*
X10965856Y-10026221D01*
X10967000Y-10049500D01*
X10967000Y-10524500D01*
X10965856Y-10547779D01*
X10962437Y-10570834D01*
X10956773Y-10593443D01*
X10948921Y-10615387D01*
X10938956Y-10636457D01*
X10926974Y-10656448D01*
X10913090Y-10675168D01*
X10897438Y-10692438D01*
X10880168Y-10708090D01*
X10861448Y-10721974D01*
X10841457Y-10733956D01*
X10820387Y-10743921D01*
X10798443Y-10751773D01*
X10775834Y-10757437D01*
X10752779Y-10760856D01*
X10729500Y-10762000D01*
X10154500Y-10762000D01*
X10131221Y-10760856D01*
X10108166Y-10757437D01*
X10085557Y-10751773D01*
X10063613Y-10743921D01*
X10042543Y-10733956D01*
X10022552Y-10721974D01*
X10003832Y-10708090D01*
X9986562Y-10692438D01*
X9970910Y-10675168D01*
X9957026Y-10656448D01*
X9945044Y-10636457D01*
X9935079Y-10615387D01*
X9927227Y-10593443D01*
X9921563Y-10570834D01*
X9918144Y-10547779D01*
X9917000Y-10524500D01*
X9917000Y-10049500D01*
X9918144Y-10026221D01*
X9921563Y-10003166D01*
X9927227Y-9980557D01*
X9935079Y-9958613D01*
X9945044Y-9937543D01*
X9957026Y-9917552D01*
X9970910Y-9898832D01*
X9986562Y-9881562D01*
X10003832Y-9865910D01*
X10022552Y-9852026D01*
X10042543Y-9840044D01*
X10063613Y-9830079D01*
X10085557Y-9822227D01*
X10108166Y-9816563D01*
X10131221Y-9813144D01*
X10154500Y-9812000D01*
X10729500Y-9812000D01*
X10752779Y-9813144D01*
G37*
G04 #@! TD.AperFunction*
G04 #@! TA.AperFunction,SMDPad,CuDef*
G36*
X10547779Y-7858144D02*
G01*
X10570834Y-7861563D01*
X10593443Y-7867227D01*
X10615387Y-7875079D01*
X10636457Y-7885044D01*
X10656448Y-7897026D01*
X10675168Y-7910910D01*
X10692438Y-7926562D01*
X10708090Y-7943832D01*
X10721974Y-7962552D01*
X10733956Y-7982543D01*
X10743921Y-8003613D01*
X10751773Y-8025557D01*
X10757437Y-8048166D01*
X10760856Y-8071221D01*
X10762000Y-8094500D01*
X10762000Y-8669500D01*
X10760856Y-8692779D01*
X10757437Y-8715834D01*
X10751773Y-8738443D01*
X10743921Y-8760387D01*
X10733956Y-8781457D01*
X10721974Y-8801448D01*
X10708090Y-8820168D01*
X10692438Y-8837438D01*
X10675168Y-8853090D01*
X10656448Y-8866974D01*
X10636457Y-8878956D01*
X10615387Y-8888921D01*
X10593443Y-8896773D01*
X10570834Y-8902437D01*
X10547779Y-8905856D01*
X10524500Y-8907000D01*
X10049500Y-8907000D01*
X10026221Y-8905856D01*
X10003166Y-8902437D01*
X9980557Y-8896773D01*
X9958613Y-8888921D01*
X9937543Y-8878956D01*
X9917552Y-8866974D01*
X9898832Y-8853090D01*
X9881562Y-8837438D01*
X9865910Y-8820168D01*
X9852026Y-8801448D01*
X9840044Y-8781457D01*
X9830079Y-8760387D01*
X9822227Y-8738443D01*
X9816563Y-8715834D01*
X9813144Y-8692779D01*
X9812000Y-8669500D01*
X9812000Y-8094500D01*
X9813144Y-8071221D01*
X9816563Y-8048166D01*
X9822227Y-8025557D01*
X9830079Y-8003613D01*
X9840044Y-7982543D01*
X9852026Y-7962552D01*
X9865910Y-7943832D01*
X9881562Y-7926562D01*
X9898832Y-7910910D01*
X9917552Y-7897026D01*
X9937543Y-7885044D01*
X9958613Y-7875079D01*
X9980557Y-7867227D01*
X10003166Y-7861563D01*
X10026221Y-7858144D01*
X10049500Y-7857000D01*
X10524500Y-7857000D01*
X10547779Y-7858144D01*
G37*
G04 #@! TD.AperFunction*
G04 #@! TA.AperFunction,SMDPad,CuDef*
G36*
X10547779Y-6108144D02*
G01*
X10570834Y-6111563D01*
X10593443Y-6117227D01*
X10615387Y-6125079D01*
X10636457Y-6135044D01*
X10656448Y-6147026D01*
X10675168Y-6160910D01*
X10692438Y-6176562D01*
X10708090Y-6193832D01*
X10721974Y-6212552D01*
X10733956Y-6232543D01*
X10743921Y-6253613D01*
X10751773Y-6275557D01*
X10757437Y-6298166D01*
X10760856Y-6321221D01*
X10762000Y-6344500D01*
X10762000Y-6919500D01*
X10760856Y-6942779D01*
X10757437Y-6965834D01*
X10751773Y-6988443D01*
X10743921Y-7010387D01*
X10733956Y-7031457D01*
X10721974Y-7051448D01*
X10708090Y-7070168D01*
X10692438Y-7087438D01*
X10675168Y-7103090D01*
X10656448Y-7116974D01*
X10636457Y-7128956D01*
X10615387Y-7138921D01*
X10593443Y-7146773D01*
X10570834Y-7152437D01*
X10547779Y-7155856D01*
X10524500Y-7157000D01*
X10049500Y-7157000D01*
X10026221Y-7155856D01*
X10003166Y-7152437D01*
X9980557Y-7146773D01*
X9958613Y-7138921D01*
X9937543Y-7128956D01*
X9917552Y-7116974D01*
X9898832Y-7103090D01*
X9881562Y-7087438D01*
X9865910Y-7070168D01*
X9852026Y-7051448D01*
X9840044Y-7031457D01*
X9830079Y-7010387D01*
X9822227Y-6988443D01*
X9816563Y-6965834D01*
X9813144Y-6942779D01*
X9812000Y-6919500D01*
X9812000Y-6344500D01*
X9813144Y-6321221D01*
X9816563Y-6298166D01*
X9822227Y-6275557D01*
X9830079Y-6253613D01*
X9840044Y-6232543D01*
X9852026Y-6212552D01*
X9865910Y-6193832D01*
X9881562Y-6176562D01*
X9898832Y-6160910D01*
X9917552Y-6147026D01*
X9937543Y-6135044D01*
X9958613Y-6125079D01*
X9980557Y-6117227D01*
X10003166Y-6111563D01*
X10026221Y-6108144D01*
X10049500Y-6107000D01*
X10524500Y-6107000D01*
X10547779Y-6108144D01*
G37*
G04 #@! TD.AperFunction*
G04 #@! TA.AperFunction,SMDPad,CuDef*
G36*
X20122779Y-9813144D02*
G01*
X20145834Y-9816563D01*
X20168443Y-9822227D01*
X20190387Y-9830079D01*
X20211457Y-9840044D01*
X20231448Y-9852026D01*
X20250168Y-9865910D01*
X20267438Y-9881562D01*
X20283090Y-9898832D01*
X20296974Y-9917552D01*
X20308956Y-9937543D01*
X20318921Y-9958613D01*
X20326773Y-9980557D01*
X20332437Y-10003166D01*
X20335856Y-10026221D01*
X20337000Y-10049500D01*
X20337000Y-10524500D01*
X20335856Y-10547779D01*
X20332437Y-10570834D01*
X20326773Y-10593443D01*
X20318921Y-10615387D01*
X20308956Y-10636457D01*
X20296974Y-10656448D01*
X20283090Y-10675168D01*
X20267438Y-10692438D01*
X20250168Y-10708090D01*
X20231448Y-10721974D01*
X20211457Y-10733956D01*
X20190387Y-10743921D01*
X20168443Y-10751773D01*
X20145834Y-10757437D01*
X20122779Y-10760856D01*
X20099500Y-10762000D01*
X19524500Y-10762000D01*
X19501221Y-10760856D01*
X19478166Y-10757437D01*
X19455557Y-10751773D01*
X19433613Y-10743921D01*
X19412543Y-10733956D01*
X19392552Y-10721974D01*
X19373832Y-10708090D01*
X19356562Y-10692438D01*
X19340910Y-10675168D01*
X19327026Y-10656448D01*
X19315044Y-10636457D01*
X19305079Y-10615387D01*
X19297227Y-10593443D01*
X19291563Y-10570834D01*
X19288144Y-10547779D01*
X19287000Y-10524500D01*
X19287000Y-10049500D01*
X19288144Y-10026221D01*
X19291563Y-10003166D01*
X19297227Y-9980557D01*
X19305079Y-9958613D01*
X19315044Y-9937543D01*
X19327026Y-9917552D01*
X19340910Y-9898832D01*
X19356562Y-9881562D01*
X19373832Y-9865910D01*
X19392552Y-9852026D01*
X19412543Y-9840044D01*
X19433613Y-9830079D01*
X19455557Y-9822227D01*
X19478166Y-9816563D01*
X19501221Y-9813144D01*
X19524500Y-9812000D01*
X20099500Y-9812000D01*
X20122779Y-9813144D01*
G37*
G04 #@! TD.AperFunction*
G04 #@! TA.AperFunction,SMDPad,CuDef*
G36*
X18372779Y-9813144D02*
G01*
X18395834Y-9816563D01*
X18418443Y-9822227D01*
X18440387Y-9830079D01*
X18461457Y-9840044D01*
X18481448Y-9852026D01*
X18500168Y-9865910D01*
X18517438Y-9881562D01*
X18533090Y-9898832D01*
X18546974Y-9917552D01*
X18558956Y-9937543D01*
X18568921Y-9958613D01*
X18576773Y-9980557D01*
X18582437Y-10003166D01*
X18585856Y-10026221D01*
X18587000Y-10049500D01*
X18587000Y-10524500D01*
X18585856Y-10547779D01*
X18582437Y-10570834D01*
X18576773Y-10593443D01*
X18568921Y-10615387D01*
X18558956Y-10636457D01*
X18546974Y-10656448D01*
X18533090Y-10675168D01*
X18517438Y-10692438D01*
X18500168Y-10708090D01*
X18481448Y-10721974D01*
X18461457Y-10733956D01*
X18440387Y-10743921D01*
X18418443Y-10751773D01*
X18395834Y-10757437D01*
X18372779Y-10760856D01*
X18349500Y-10762000D01*
X17774500Y-10762000D01*
X17751221Y-10760856D01*
X17728166Y-10757437D01*
X17705557Y-10751773D01*
X17683613Y-10743921D01*
X17662543Y-10733956D01*
X17642552Y-10721974D01*
X17623832Y-10708090D01*
X17606562Y-10692438D01*
X17590910Y-10675168D01*
X17577026Y-10656448D01*
X17565044Y-10636457D01*
X17555079Y-10615387D01*
X17547227Y-10593443D01*
X17541563Y-10570834D01*
X17538144Y-10547779D01*
X17537000Y-10524500D01*
X17537000Y-10049500D01*
X17538144Y-10026221D01*
X17541563Y-10003166D01*
X17547227Y-9980557D01*
X17555079Y-9958613D01*
X17565044Y-9937543D01*
X17577026Y-9917552D01*
X17590910Y-9898832D01*
X17606562Y-9881562D01*
X17623832Y-9865910D01*
X17642552Y-9852026D01*
X17662543Y-9840044D01*
X17683613Y-9830079D01*
X17705557Y-9822227D01*
X17728166Y-9816563D01*
X17751221Y-9813144D01*
X17774500Y-9812000D01*
X18349500Y-9812000D01*
X18372779Y-9813144D01*
G37*
G04 #@! TD.AperFunction*
G04 #@! TA.AperFunction,SMDPad,CuDef*
G36*
X18167779Y-7858144D02*
G01*
X18190834Y-7861563D01*
X18213443Y-7867227D01*
X18235387Y-7875079D01*
X18256457Y-7885044D01*
X18276448Y-7897026D01*
X18295168Y-7910910D01*
X18312438Y-7926562D01*
X18328090Y-7943832D01*
X18341974Y-7962552D01*
X18353956Y-7982543D01*
X18363921Y-8003613D01*
X18371773Y-8025557D01*
X18377437Y-8048166D01*
X18380856Y-8071221D01*
X18382000Y-8094500D01*
X18382000Y-8669500D01*
X18380856Y-8692779D01*
X18377437Y-8715834D01*
X18371773Y-8738443D01*
X18363921Y-8760387D01*
X18353956Y-8781457D01*
X18341974Y-8801448D01*
X18328090Y-8820168D01*
X18312438Y-8837438D01*
X18295168Y-8853090D01*
X18276448Y-8866974D01*
X18256457Y-8878956D01*
X18235387Y-8888921D01*
X18213443Y-8896773D01*
X18190834Y-8902437D01*
X18167779Y-8905856D01*
X18144500Y-8907000D01*
X17669500Y-8907000D01*
X17646221Y-8905856D01*
X17623166Y-8902437D01*
X17600557Y-8896773D01*
X17578613Y-8888921D01*
X17557543Y-8878956D01*
X17537552Y-8866974D01*
X17518832Y-8853090D01*
X17501562Y-8837438D01*
X17485910Y-8820168D01*
X17472026Y-8801448D01*
X17460044Y-8781457D01*
X17450079Y-8760387D01*
X17442227Y-8738443D01*
X17436563Y-8715834D01*
X17433144Y-8692779D01*
X17432000Y-8669500D01*
X17432000Y-8094500D01*
X17433144Y-8071221D01*
X17436563Y-8048166D01*
X17442227Y-8025557D01*
X17450079Y-8003613D01*
X17460044Y-7982543D01*
X17472026Y-7962552D01*
X17485910Y-7943832D01*
X17501562Y-7926562D01*
X17518832Y-7910910D01*
X17537552Y-7897026D01*
X17557543Y-7885044D01*
X17578613Y-7875079D01*
X17600557Y-7867227D01*
X17623166Y-7861563D01*
X17646221Y-7858144D01*
X17669500Y-7857000D01*
X18144500Y-7857000D01*
X18167779Y-7858144D01*
G37*
G04 #@! TD.AperFunction*
G04 #@! TA.AperFunction,SMDPad,CuDef*
G36*
X18167779Y-6108144D02*
G01*
X18190834Y-6111563D01*
X18213443Y-6117227D01*
X18235387Y-6125079D01*
X18256457Y-6135044D01*
X18276448Y-6147026D01*
X18295168Y-6160910D01*
X18312438Y-6176562D01*
X18328090Y-6193832D01*
X18341974Y-6212552D01*
X18353956Y-6232543D01*
X18363921Y-6253613D01*
X18371773Y-6275557D01*
X18377437Y-6298166D01*
X18380856Y-6321221D01*
X18382000Y-6344500D01*
X18382000Y-6919500D01*
X18380856Y-6942779D01*
X18377437Y-6965834D01*
X18371773Y-6988443D01*
X18363921Y-7010387D01*
X18353956Y-7031457D01*
X18341974Y-7051448D01*
X18328090Y-7070168D01*
X18312438Y-7087438D01*
X18295168Y-7103090D01*
X18276448Y-7116974D01*
X18256457Y-7128956D01*
X18235387Y-7138921D01*
X18213443Y-7146773D01*
X18190834Y-7152437D01*
X18167779Y-7155856D01*
X18144500Y-7157000D01*
X17669500Y-7157000D01*
X17646221Y-7155856D01*
X17623166Y-7152437D01*
X17600557Y-7146773D01*
X17578613Y-7138921D01*
X17557543Y-7128956D01*
X17537552Y-7116974D01*
X17518832Y-7103090D01*
X17501562Y-7087438D01*
X17485910Y-7070168D01*
X17472026Y-7051448D01*
X17460044Y-7031457D01*
X17450079Y-7010387D01*
X17442227Y-6988443D01*
X17436563Y-6965834D01*
X17433144Y-6942779D01*
X17432000Y-6919500D01*
X17432000Y-6344500D01*
X17433144Y-6321221D01*
X17436563Y-6298166D01*
X17442227Y-6275557D01*
X17450079Y-6253613D01*
X17460044Y-6232543D01*
X17472026Y-6212552D01*
X17485910Y-6193832D01*
X17501562Y-6176562D01*
X17518832Y-6160910D01*
X17537552Y-6147026D01*
X17557543Y-6135044D01*
X17578613Y-6125079D01*
X17600557Y-6117227D01*
X17623166Y-6111563D01*
X17646221Y-6108144D01*
X17669500Y-6107000D01*
X18144500Y-6107000D01*
X18167779Y-6108144D01*
G37*
G04 #@! TD.AperFunction*
G04 #@! TA.AperFunction,SMDPad,CuDef*
G36*
X4832779Y-6108144D02*
G01*
X4855834Y-6111563D01*
X4878443Y-6117227D01*
X4900387Y-6125079D01*
X4921457Y-6135044D01*
X4941448Y-6147026D01*
X4960168Y-6160910D01*
X4977438Y-6176562D01*
X4993090Y-6193832D01*
X5006974Y-6212552D01*
X5018956Y-6232543D01*
X5028921Y-6253613D01*
X5036773Y-6275557D01*
X5042437Y-6298166D01*
X5045856Y-6321221D01*
X5047000Y-6344500D01*
X5047000Y-6919500D01*
X5045856Y-6942779D01*
X5042437Y-6965834D01*
X5036773Y-6988443D01*
X5028921Y-7010387D01*
X5018956Y-7031457D01*
X5006974Y-7051448D01*
X4993090Y-7070168D01*
X4977438Y-7087438D01*
X4960168Y-7103090D01*
X4941448Y-7116974D01*
X4921457Y-7128956D01*
X4900387Y-7138921D01*
X4878443Y-7146773D01*
X4855834Y-7152437D01*
X4832779Y-7155856D01*
X4809500Y-7157000D01*
X4334500Y-7157000D01*
X4311221Y-7155856D01*
X4288166Y-7152437D01*
X4265557Y-7146773D01*
X4243613Y-7138921D01*
X4222543Y-7128956D01*
X4202552Y-7116974D01*
X4183832Y-7103090D01*
X4166562Y-7087438D01*
X4150910Y-7070168D01*
X4137026Y-7051448D01*
X4125044Y-7031457D01*
X4115079Y-7010387D01*
X4107227Y-6988443D01*
X4101563Y-6965834D01*
X4098144Y-6942779D01*
X4097000Y-6919500D01*
X4097000Y-6344500D01*
X4098144Y-6321221D01*
X4101563Y-6298166D01*
X4107227Y-6275557D01*
X4115079Y-6253613D01*
X4125044Y-6232543D01*
X4137026Y-6212552D01*
X4150910Y-6193832D01*
X4166562Y-6176562D01*
X4183832Y-6160910D01*
X4202552Y-6147026D01*
X4222543Y-6135044D01*
X4243613Y-6125079D01*
X4265557Y-6117227D01*
X4288166Y-6111563D01*
X4311221Y-6108144D01*
X4334500Y-6107000D01*
X4809500Y-6107000D01*
X4832779Y-6108144D01*
G37*
G04 #@! TD.AperFunction*
G04 #@! TA.AperFunction,SMDPad,CuDef*
G36*
X4832779Y-7858144D02*
G01*
X4855834Y-7861563D01*
X4878443Y-7867227D01*
X4900387Y-7875079D01*
X4921457Y-7885044D01*
X4941448Y-7897026D01*
X4960168Y-7910910D01*
X4977438Y-7926562D01*
X4993090Y-7943832D01*
X5006974Y-7962552D01*
X5018956Y-7982543D01*
X5028921Y-8003613D01*
X5036773Y-8025557D01*
X5042437Y-8048166D01*
X5045856Y-8071221D01*
X5047000Y-8094500D01*
X5047000Y-8669500D01*
X5045856Y-8692779D01*
X5042437Y-8715834D01*
X5036773Y-8738443D01*
X5028921Y-8760387D01*
X5018956Y-8781457D01*
X5006974Y-8801448D01*
X4993090Y-8820168D01*
X4977438Y-8837438D01*
X4960168Y-8853090D01*
X4941448Y-8866974D01*
X4921457Y-8878956D01*
X4900387Y-8888921D01*
X4878443Y-8896773D01*
X4855834Y-8902437D01*
X4832779Y-8905856D01*
X4809500Y-8907000D01*
X4334500Y-8907000D01*
X4311221Y-8905856D01*
X4288166Y-8902437D01*
X4265557Y-8896773D01*
X4243613Y-8888921D01*
X4222543Y-8878956D01*
X4202552Y-8866974D01*
X4183832Y-8853090D01*
X4166562Y-8837438D01*
X4150910Y-8820168D01*
X4137026Y-8801448D01*
X4125044Y-8781457D01*
X4115079Y-8760387D01*
X4107227Y-8738443D01*
X4101563Y-8715834D01*
X4098144Y-8692779D01*
X4097000Y-8669500D01*
X4097000Y-8094500D01*
X4098144Y-8071221D01*
X4101563Y-8048166D01*
X4107227Y-8025557D01*
X4115079Y-8003613D01*
X4125044Y-7982543D01*
X4137026Y-7962552D01*
X4150910Y-7943832D01*
X4166562Y-7926562D01*
X4183832Y-7910910D01*
X4202552Y-7897026D01*
X4222543Y-7885044D01*
X4243613Y-7875079D01*
X4265557Y-7867227D01*
X4288166Y-7861563D01*
X4311221Y-7858144D01*
X4334500Y-7857000D01*
X4809500Y-7857000D01*
X4832779Y-7858144D01*
G37*
G04 #@! TD.AperFunction*
G04 #@! TA.AperFunction,SMDPad,CuDef*
G36*
X12452779Y-7858144D02*
G01*
X12475834Y-7861563D01*
X12498443Y-7867227D01*
X12520387Y-7875079D01*
X12541457Y-7885044D01*
X12561448Y-7897026D01*
X12580168Y-7910910D01*
X12597438Y-7926562D01*
X12613090Y-7943832D01*
X12626974Y-7962552D01*
X12638956Y-7982543D01*
X12648921Y-8003613D01*
X12656773Y-8025557D01*
X12662437Y-8048166D01*
X12665856Y-8071221D01*
X12667000Y-8094500D01*
X12667000Y-8669500D01*
X12665856Y-8692779D01*
X12662437Y-8715834D01*
X12656773Y-8738443D01*
X12648921Y-8760387D01*
X12638956Y-8781457D01*
X12626974Y-8801448D01*
X12613090Y-8820168D01*
X12597438Y-8837438D01*
X12580168Y-8853090D01*
X12561448Y-8866974D01*
X12541457Y-8878956D01*
X12520387Y-8888921D01*
X12498443Y-8896773D01*
X12475834Y-8902437D01*
X12452779Y-8905856D01*
X12429500Y-8907000D01*
X11954500Y-8907000D01*
X11931221Y-8905856D01*
X11908166Y-8902437D01*
X11885557Y-8896773D01*
X11863613Y-8888921D01*
X11842543Y-8878956D01*
X11822552Y-8866974D01*
X11803832Y-8853090D01*
X11786562Y-8837438D01*
X11770910Y-8820168D01*
X11757026Y-8801448D01*
X11745044Y-8781457D01*
X11735079Y-8760387D01*
X11727227Y-8738443D01*
X11721563Y-8715834D01*
X11718144Y-8692779D01*
X11717000Y-8669500D01*
X11717000Y-8094500D01*
X11718144Y-8071221D01*
X11721563Y-8048166D01*
X11727227Y-8025557D01*
X11735079Y-8003613D01*
X11745044Y-7982543D01*
X11757026Y-7962552D01*
X11770910Y-7943832D01*
X11786562Y-7926562D01*
X11803832Y-7910910D01*
X11822552Y-7897026D01*
X11842543Y-7885044D01*
X11863613Y-7875079D01*
X11885557Y-7867227D01*
X11908166Y-7861563D01*
X11931221Y-7858144D01*
X11954500Y-7857000D01*
X12429500Y-7857000D01*
X12452779Y-7858144D01*
G37*
G04 #@! TD.AperFunction*
G04 #@! TA.AperFunction,SMDPad,CuDef*
G36*
X12452779Y-6108144D02*
G01*
X12475834Y-6111563D01*
X12498443Y-6117227D01*
X12520387Y-6125079D01*
X12541457Y-6135044D01*
X12561448Y-6147026D01*
X12580168Y-6160910D01*
X12597438Y-6176562D01*
X12613090Y-6193832D01*
X12626974Y-6212552D01*
X12638956Y-6232543D01*
X12648921Y-6253613D01*
X12656773Y-6275557D01*
X12662437Y-6298166D01*
X12665856Y-6321221D01*
X12667000Y-6344500D01*
X12667000Y-6919500D01*
X12665856Y-6942779D01*
X12662437Y-6965834D01*
X12656773Y-6988443D01*
X12648921Y-7010387D01*
X12638956Y-7031457D01*
X12626974Y-7051448D01*
X12613090Y-7070168D01*
X12597438Y-7087438D01*
X12580168Y-7103090D01*
X12561448Y-7116974D01*
X12541457Y-7128956D01*
X12520387Y-7138921D01*
X12498443Y-7146773D01*
X12475834Y-7152437D01*
X12452779Y-7155856D01*
X12429500Y-7157000D01*
X11954500Y-7157000D01*
X11931221Y-7155856D01*
X11908166Y-7152437D01*
X11885557Y-7146773D01*
X11863613Y-7138921D01*
X11842543Y-7128956D01*
X11822552Y-7116974D01*
X11803832Y-7103090D01*
X11786562Y-7087438D01*
X11770910Y-7070168D01*
X11757026Y-7051448D01*
X11745044Y-7031457D01*
X11735079Y-7010387D01*
X11727227Y-6988443D01*
X11721563Y-6965834D01*
X11718144Y-6942779D01*
X11717000Y-6919500D01*
X11717000Y-6344500D01*
X11718144Y-6321221D01*
X11721563Y-6298166D01*
X11727227Y-6275557D01*
X11735079Y-6253613D01*
X11745044Y-6232543D01*
X11757026Y-6212552D01*
X11770910Y-6193832D01*
X11786562Y-6176562D01*
X11803832Y-6160910D01*
X11822552Y-6147026D01*
X11842543Y-6135044D01*
X11863613Y-6125079D01*
X11885557Y-6117227D01*
X11908166Y-6111563D01*
X11931221Y-6108144D01*
X11954500Y-6107000D01*
X12429500Y-6107000D01*
X12452779Y-6108144D01*
G37*
G04 #@! TD.AperFunction*
G04 #@! TA.AperFunction,SMDPad,CuDef*
G36*
X20072779Y-6108144D02*
G01*
X20095834Y-6111563D01*
X20118443Y-6117227D01*
X20140387Y-6125079D01*
X20161457Y-6135044D01*
X20181448Y-6147026D01*
X20200168Y-6160910D01*
X20217438Y-6176562D01*
X20233090Y-6193832D01*
X20246974Y-6212552D01*
X20258956Y-6232543D01*
X20268921Y-6253613D01*
X20276773Y-6275557D01*
X20282437Y-6298166D01*
X20285856Y-6321221D01*
X20287000Y-6344500D01*
X20287000Y-6919500D01*
X20285856Y-6942779D01*
X20282437Y-6965834D01*
X20276773Y-6988443D01*
X20268921Y-7010387D01*
X20258956Y-7031457D01*
X20246974Y-7051448D01*
X20233090Y-7070168D01*
X20217438Y-7087438D01*
X20200168Y-7103090D01*
X20181448Y-7116974D01*
X20161457Y-7128956D01*
X20140387Y-7138921D01*
X20118443Y-7146773D01*
X20095834Y-7152437D01*
X20072779Y-7155856D01*
X20049500Y-7157000D01*
X19574500Y-7157000D01*
X19551221Y-7155856D01*
X19528166Y-7152437D01*
X19505557Y-7146773D01*
X19483613Y-7138921D01*
X19462543Y-7128956D01*
X19442552Y-7116974D01*
X19423832Y-7103090D01*
X19406562Y-7087438D01*
X19390910Y-7070168D01*
X19377026Y-7051448D01*
X19365044Y-7031457D01*
X19355079Y-7010387D01*
X19347227Y-6988443D01*
X19341563Y-6965834D01*
X19338144Y-6942779D01*
X19337000Y-6919500D01*
X19337000Y-6344500D01*
X19338144Y-6321221D01*
X19341563Y-6298166D01*
X19347227Y-6275557D01*
X19355079Y-6253613D01*
X19365044Y-6232543D01*
X19377026Y-6212552D01*
X19390910Y-6193832D01*
X19406562Y-6176562D01*
X19423832Y-6160910D01*
X19442552Y-6147026D01*
X19462543Y-6135044D01*
X19483613Y-6125079D01*
X19505557Y-6117227D01*
X19528166Y-6111563D01*
X19551221Y-6108144D01*
X19574500Y-6107000D01*
X20049500Y-6107000D01*
X20072779Y-6108144D01*
G37*
G04 #@! TD.AperFunction*
G04 #@! TA.AperFunction,SMDPad,CuDef*
G36*
X20072779Y-7858144D02*
G01*
X20095834Y-7861563D01*
X20118443Y-7867227D01*
X20140387Y-7875079D01*
X20161457Y-7885044D01*
X20181448Y-7897026D01*
X20200168Y-7910910D01*
X20217438Y-7926562D01*
X20233090Y-7943832D01*
X20246974Y-7962552D01*
X20258956Y-7982543D01*
X20268921Y-8003613D01*
X20276773Y-8025557D01*
X20282437Y-8048166D01*
X20285856Y-8071221D01*
X20287000Y-8094500D01*
X20287000Y-8669500D01*
X20285856Y-8692779D01*
X20282437Y-8715834D01*
X20276773Y-8738443D01*
X20268921Y-8760387D01*
X20258956Y-8781457D01*
X20246974Y-8801448D01*
X20233090Y-8820168D01*
X20217438Y-8837438D01*
X20200168Y-8853090D01*
X20181448Y-8866974D01*
X20161457Y-8878956D01*
X20140387Y-8888921D01*
X20118443Y-8896773D01*
X20095834Y-8902437D01*
X20072779Y-8905856D01*
X20049500Y-8907000D01*
X19574500Y-8907000D01*
X19551221Y-8905856D01*
X19528166Y-8902437D01*
X19505557Y-8896773D01*
X19483613Y-8888921D01*
X19462543Y-8878956D01*
X19442552Y-8866974D01*
X19423832Y-8853090D01*
X19406562Y-8837438D01*
X19390910Y-8820168D01*
X19377026Y-8801448D01*
X19365044Y-8781457D01*
X19355079Y-8760387D01*
X19347227Y-8738443D01*
X19341563Y-8715834D01*
X19338144Y-8692779D01*
X19337000Y-8669500D01*
X19337000Y-8094500D01*
X19338144Y-8071221D01*
X19341563Y-8048166D01*
X19347227Y-8025557D01*
X19355079Y-8003613D01*
X19365044Y-7982543D01*
X19377026Y-7962552D01*
X19390910Y-7943832D01*
X19406562Y-7926562D01*
X19423832Y-7910910D01*
X19442552Y-7897026D01*
X19462543Y-7885044D01*
X19483613Y-7875079D01*
X19505557Y-7867227D01*
X19528166Y-7861563D01*
X19551221Y-7858144D01*
X19574500Y-7857000D01*
X20049500Y-7857000D01*
X20072779Y-7858144D01*
G37*
G04 #@! TD.AperFunction*
G04 #@! TA.AperFunction,SMDPad,CuDef*
G36*
X3132779Y-4098144D02*
G01*
X3155834Y-4101563D01*
X3178443Y-4107227D01*
X3200387Y-4115079D01*
X3221457Y-4125044D01*
X3241448Y-4137026D01*
X3260168Y-4150910D01*
X3277438Y-4166562D01*
X3293090Y-4183832D01*
X3306974Y-4202552D01*
X3318956Y-4222543D01*
X3328921Y-4243613D01*
X3336773Y-4265557D01*
X3342437Y-4288166D01*
X3345856Y-4311221D01*
X3347000Y-4334500D01*
X3347000Y-4809500D01*
X3345856Y-4832779D01*
X3342437Y-4855834D01*
X3336773Y-4878443D01*
X3328921Y-4900387D01*
X3318956Y-4921457D01*
X3306974Y-4941448D01*
X3293090Y-4960168D01*
X3277438Y-4977438D01*
X3260168Y-4993090D01*
X3241448Y-5006974D01*
X3221457Y-5018956D01*
X3200387Y-5028921D01*
X3178443Y-5036773D01*
X3155834Y-5042437D01*
X3132779Y-5045856D01*
X3109500Y-5047000D01*
X2534500Y-5047000D01*
X2511221Y-5045856D01*
X2488166Y-5042437D01*
X2465557Y-5036773D01*
X2443613Y-5028921D01*
X2422543Y-5018956D01*
X2402552Y-5006974D01*
X2383832Y-4993090D01*
X2366562Y-4977438D01*
X2350910Y-4960168D01*
X2337026Y-4941448D01*
X2325044Y-4921457D01*
X2315079Y-4900387D01*
X2307227Y-4878443D01*
X2301563Y-4855834D01*
X2298144Y-4832779D01*
X2297000Y-4809500D01*
X2297000Y-4334500D01*
X2298144Y-4311221D01*
X2301563Y-4288166D01*
X2307227Y-4265557D01*
X2315079Y-4243613D01*
X2325044Y-4222543D01*
X2337026Y-4202552D01*
X2350910Y-4183832D01*
X2366562Y-4166562D01*
X2383832Y-4150910D01*
X2402552Y-4137026D01*
X2422543Y-4125044D01*
X2443613Y-4115079D01*
X2465557Y-4107227D01*
X2488166Y-4101563D01*
X2511221Y-4098144D01*
X2534500Y-4097000D01*
X3109500Y-4097000D01*
X3132779Y-4098144D01*
G37*
G04 #@! TD.AperFunction*
G04 #@! TA.AperFunction,SMDPad,CuDef*
G36*
X4882779Y-4098144D02*
G01*
X4905834Y-4101563D01*
X4928443Y-4107227D01*
X4950387Y-4115079D01*
X4971457Y-4125044D01*
X4991448Y-4137026D01*
X5010168Y-4150910D01*
X5027438Y-4166562D01*
X5043090Y-4183832D01*
X5056974Y-4202552D01*
X5068956Y-4222543D01*
X5078921Y-4243613D01*
X5086773Y-4265557D01*
X5092437Y-4288166D01*
X5095856Y-4311221D01*
X5097000Y-4334500D01*
X5097000Y-4809500D01*
X5095856Y-4832779D01*
X5092437Y-4855834D01*
X5086773Y-4878443D01*
X5078921Y-4900387D01*
X5068956Y-4921457D01*
X5056974Y-4941448D01*
X5043090Y-4960168D01*
X5027438Y-4977438D01*
X5010168Y-4993090D01*
X4991448Y-5006974D01*
X4971457Y-5018956D01*
X4950387Y-5028921D01*
X4928443Y-5036773D01*
X4905834Y-5042437D01*
X4882779Y-5045856D01*
X4859500Y-5047000D01*
X4284500Y-5047000D01*
X4261221Y-5045856D01*
X4238166Y-5042437D01*
X4215557Y-5036773D01*
X4193613Y-5028921D01*
X4172543Y-5018956D01*
X4152552Y-5006974D01*
X4133832Y-4993090D01*
X4116562Y-4977438D01*
X4100910Y-4960168D01*
X4087026Y-4941448D01*
X4075044Y-4921457D01*
X4065079Y-4900387D01*
X4057227Y-4878443D01*
X4051563Y-4855834D01*
X4048144Y-4832779D01*
X4047000Y-4809500D01*
X4047000Y-4334500D01*
X4048144Y-4311221D01*
X4051563Y-4288166D01*
X4057227Y-4265557D01*
X4065079Y-4243613D01*
X4075044Y-4222543D01*
X4087026Y-4202552D01*
X4100910Y-4183832D01*
X4116562Y-4166562D01*
X4133832Y-4150910D01*
X4152552Y-4137026D01*
X4172543Y-4125044D01*
X4193613Y-4115079D01*
X4215557Y-4107227D01*
X4238166Y-4101563D01*
X4261221Y-4098144D01*
X4284500Y-4097000D01*
X4859500Y-4097000D01*
X4882779Y-4098144D01*
G37*
G04 #@! TD.AperFunction*
G04 #@! TA.AperFunction,SMDPad,CuDef*
G36*
X20122779Y-21243144D02*
G01*
X20145834Y-21246563D01*
X20168443Y-21252227D01*
X20190387Y-21260079D01*
X20211457Y-21270044D01*
X20231448Y-21282026D01*
X20250168Y-21295910D01*
X20267438Y-21311562D01*
X20283090Y-21328832D01*
X20296974Y-21347552D01*
X20308956Y-21367543D01*
X20318921Y-21388613D01*
X20326773Y-21410557D01*
X20332437Y-21433166D01*
X20335856Y-21456221D01*
X20337000Y-21479500D01*
X20337000Y-21954500D01*
X20335856Y-21977779D01*
X20332437Y-22000834D01*
X20326773Y-22023443D01*
X20318921Y-22045387D01*
X20308956Y-22066457D01*
X20296974Y-22086448D01*
X20283090Y-22105168D01*
X20267438Y-22122438D01*
X20250168Y-22138090D01*
X20231448Y-22151974D01*
X20211457Y-22163956D01*
X20190387Y-22173921D01*
X20168443Y-22181773D01*
X20145834Y-22187437D01*
X20122779Y-22190856D01*
X20099500Y-22192000D01*
X19524500Y-22192000D01*
X19501221Y-22190856D01*
X19478166Y-22187437D01*
X19455557Y-22181773D01*
X19433613Y-22173921D01*
X19412543Y-22163956D01*
X19392552Y-22151974D01*
X19373832Y-22138090D01*
X19356562Y-22122438D01*
X19340910Y-22105168D01*
X19327026Y-22086448D01*
X19315044Y-22066457D01*
X19305079Y-22045387D01*
X19297227Y-22023443D01*
X19291563Y-22000834D01*
X19288144Y-21977779D01*
X19287000Y-21954500D01*
X19287000Y-21479500D01*
X19288144Y-21456221D01*
X19291563Y-21433166D01*
X19297227Y-21410557D01*
X19305079Y-21388613D01*
X19315044Y-21367543D01*
X19327026Y-21347552D01*
X19340910Y-21328832D01*
X19356562Y-21311562D01*
X19373832Y-21295910D01*
X19392552Y-21282026D01*
X19412543Y-21270044D01*
X19433613Y-21260079D01*
X19455557Y-21252227D01*
X19478166Y-21246563D01*
X19501221Y-21243144D01*
X19524500Y-21242000D01*
X20099500Y-21242000D01*
X20122779Y-21243144D01*
G37*
G04 #@! TD.AperFunction*
G04 #@! TA.AperFunction,SMDPad,CuDef*
G36*
X18372779Y-21243144D02*
G01*
X18395834Y-21246563D01*
X18418443Y-21252227D01*
X18440387Y-21260079D01*
X18461457Y-21270044D01*
X18481448Y-21282026D01*
X18500168Y-21295910D01*
X18517438Y-21311562D01*
X18533090Y-21328832D01*
X18546974Y-21347552D01*
X18558956Y-21367543D01*
X18568921Y-21388613D01*
X18576773Y-21410557D01*
X18582437Y-21433166D01*
X18585856Y-21456221D01*
X18587000Y-21479500D01*
X18587000Y-21954500D01*
X18585856Y-21977779D01*
X18582437Y-22000834D01*
X18576773Y-22023443D01*
X18568921Y-22045387D01*
X18558956Y-22066457D01*
X18546974Y-22086448D01*
X18533090Y-22105168D01*
X18517438Y-22122438D01*
X18500168Y-22138090D01*
X18481448Y-22151974D01*
X18461457Y-22163956D01*
X18440387Y-22173921D01*
X18418443Y-22181773D01*
X18395834Y-22187437D01*
X18372779Y-22190856D01*
X18349500Y-22192000D01*
X17774500Y-22192000D01*
X17751221Y-22190856D01*
X17728166Y-22187437D01*
X17705557Y-22181773D01*
X17683613Y-22173921D01*
X17662543Y-22163956D01*
X17642552Y-22151974D01*
X17623832Y-22138090D01*
X17606562Y-22122438D01*
X17590910Y-22105168D01*
X17577026Y-22086448D01*
X17565044Y-22066457D01*
X17555079Y-22045387D01*
X17547227Y-22023443D01*
X17541563Y-22000834D01*
X17538144Y-21977779D01*
X17537000Y-21954500D01*
X17537000Y-21479500D01*
X17538144Y-21456221D01*
X17541563Y-21433166D01*
X17547227Y-21410557D01*
X17555079Y-21388613D01*
X17565044Y-21367543D01*
X17577026Y-21347552D01*
X17590910Y-21328832D01*
X17606562Y-21311562D01*
X17623832Y-21295910D01*
X17642552Y-21282026D01*
X17662543Y-21270044D01*
X17683613Y-21260079D01*
X17705557Y-21252227D01*
X17728166Y-21246563D01*
X17751221Y-21243144D01*
X17774500Y-21242000D01*
X18349500Y-21242000D01*
X18372779Y-21243144D01*
G37*
G04 #@! TD.AperFunction*
G04 #@! TA.AperFunction,SMDPad,CuDef*
G36*
X3132779Y-21370144D02*
G01*
X3155834Y-21373563D01*
X3178443Y-21379227D01*
X3200387Y-21387079D01*
X3221457Y-21397044D01*
X3241448Y-21409026D01*
X3260168Y-21422910D01*
X3277438Y-21438562D01*
X3293090Y-21455832D01*
X3306974Y-21474552D01*
X3318956Y-21494543D01*
X3328921Y-21515613D01*
X3336773Y-21537557D01*
X3342437Y-21560166D01*
X3345856Y-21583221D01*
X3347000Y-21606500D01*
X3347000Y-22081500D01*
X3345856Y-22104779D01*
X3342437Y-22127834D01*
X3336773Y-22150443D01*
X3328921Y-22172387D01*
X3318956Y-22193457D01*
X3306974Y-22213448D01*
X3293090Y-22232168D01*
X3277438Y-22249438D01*
X3260168Y-22265090D01*
X3241448Y-22278974D01*
X3221457Y-22290956D01*
X3200387Y-22300921D01*
X3178443Y-22308773D01*
X3155834Y-22314437D01*
X3132779Y-22317856D01*
X3109500Y-22319000D01*
X2534500Y-22319000D01*
X2511221Y-22317856D01*
X2488166Y-22314437D01*
X2465557Y-22308773D01*
X2443613Y-22300921D01*
X2422543Y-22290956D01*
X2402552Y-22278974D01*
X2383832Y-22265090D01*
X2366562Y-22249438D01*
X2350910Y-22232168D01*
X2337026Y-22213448D01*
X2325044Y-22193457D01*
X2315079Y-22172387D01*
X2307227Y-22150443D01*
X2301563Y-22127834D01*
X2298144Y-22104779D01*
X2297000Y-22081500D01*
X2297000Y-21606500D01*
X2298144Y-21583221D01*
X2301563Y-21560166D01*
X2307227Y-21537557D01*
X2315079Y-21515613D01*
X2325044Y-21494543D01*
X2337026Y-21474552D01*
X2350910Y-21455832D01*
X2366562Y-21438562D01*
X2383832Y-21422910D01*
X2402552Y-21409026D01*
X2422543Y-21397044D01*
X2443613Y-21387079D01*
X2465557Y-21379227D01*
X2488166Y-21373563D01*
X2511221Y-21370144D01*
X2534500Y-21369000D01*
X3109500Y-21369000D01*
X3132779Y-21370144D01*
G37*
G04 #@! TD.AperFunction*
G04 #@! TA.AperFunction,SMDPad,CuDef*
G36*
X4882779Y-21370144D02*
G01*
X4905834Y-21373563D01*
X4928443Y-21379227D01*
X4950387Y-21387079D01*
X4971457Y-21397044D01*
X4991448Y-21409026D01*
X5010168Y-21422910D01*
X5027438Y-21438562D01*
X5043090Y-21455832D01*
X5056974Y-21474552D01*
X5068956Y-21494543D01*
X5078921Y-21515613D01*
X5086773Y-21537557D01*
X5092437Y-21560166D01*
X5095856Y-21583221D01*
X5097000Y-21606500D01*
X5097000Y-22081500D01*
X5095856Y-22104779D01*
X5092437Y-22127834D01*
X5086773Y-22150443D01*
X5078921Y-22172387D01*
X5068956Y-22193457D01*
X5056974Y-22213448D01*
X5043090Y-22232168D01*
X5027438Y-22249438D01*
X5010168Y-22265090D01*
X4991448Y-22278974D01*
X4971457Y-22290956D01*
X4950387Y-22300921D01*
X4928443Y-22308773D01*
X4905834Y-22314437D01*
X4882779Y-22317856D01*
X4859500Y-22319000D01*
X4284500Y-22319000D01*
X4261221Y-22317856D01*
X4238166Y-22314437D01*
X4215557Y-22308773D01*
X4193613Y-22300921D01*
X4172543Y-22290956D01*
X4152552Y-22278974D01*
X4133832Y-22265090D01*
X4116562Y-22249438D01*
X4100910Y-22232168D01*
X4087026Y-22213448D01*
X4075044Y-22193457D01*
X4065079Y-22172387D01*
X4057227Y-22150443D01*
X4051563Y-22127834D01*
X4048144Y-22104779D01*
X4047000Y-22081500D01*
X4047000Y-21606500D01*
X4048144Y-21583221D01*
X4051563Y-21560166D01*
X4057227Y-21537557D01*
X4065079Y-21515613D01*
X4075044Y-21494543D01*
X4087026Y-21474552D01*
X4100910Y-21455832D01*
X4116562Y-21438562D01*
X4133832Y-21422910D01*
X4152552Y-21409026D01*
X4172543Y-21397044D01*
X4193613Y-21387079D01*
X4215557Y-21379227D01*
X4238166Y-21373563D01*
X4261221Y-21370144D01*
X4284500Y-21369000D01*
X4859500Y-21369000D01*
X4882779Y-21370144D01*
G37*
G04 #@! TD.AperFunction*
G04 #@! TA.AperFunction,SMDPad,CuDef*
G36*
X10752779Y-4098144D02*
G01*
X10775834Y-4101563D01*
X10798443Y-4107227D01*
X10820387Y-4115079D01*
X10841457Y-4125044D01*
X10861448Y-4137026D01*
X10880168Y-4150910D01*
X10897438Y-4166562D01*
X10913090Y-4183832D01*
X10926974Y-4202552D01*
X10938956Y-4222543D01*
X10948921Y-4243613D01*
X10956773Y-4265557D01*
X10962437Y-4288166D01*
X10965856Y-4311221D01*
X10967000Y-4334500D01*
X10967000Y-4809500D01*
X10965856Y-4832779D01*
X10962437Y-4855834D01*
X10956773Y-4878443D01*
X10948921Y-4900387D01*
X10938956Y-4921457D01*
X10926974Y-4941448D01*
X10913090Y-4960168D01*
X10897438Y-4977438D01*
X10880168Y-4993090D01*
X10861448Y-5006974D01*
X10841457Y-5018956D01*
X10820387Y-5028921D01*
X10798443Y-5036773D01*
X10775834Y-5042437D01*
X10752779Y-5045856D01*
X10729500Y-5047000D01*
X10154500Y-5047000D01*
X10131221Y-5045856D01*
X10108166Y-5042437D01*
X10085557Y-5036773D01*
X10063613Y-5028921D01*
X10042543Y-5018956D01*
X10022552Y-5006974D01*
X10003832Y-4993090D01*
X9986562Y-4977438D01*
X9970910Y-4960168D01*
X9957026Y-4941448D01*
X9945044Y-4921457D01*
X9935079Y-4900387D01*
X9927227Y-4878443D01*
X9921563Y-4855834D01*
X9918144Y-4832779D01*
X9917000Y-4809500D01*
X9917000Y-4334500D01*
X9918144Y-4311221D01*
X9921563Y-4288166D01*
X9927227Y-4265557D01*
X9935079Y-4243613D01*
X9945044Y-4222543D01*
X9957026Y-4202552D01*
X9970910Y-4183832D01*
X9986562Y-4166562D01*
X10003832Y-4150910D01*
X10022552Y-4137026D01*
X10042543Y-4125044D01*
X10063613Y-4115079D01*
X10085557Y-4107227D01*
X10108166Y-4101563D01*
X10131221Y-4098144D01*
X10154500Y-4097000D01*
X10729500Y-4097000D01*
X10752779Y-4098144D01*
G37*
G04 #@! TD.AperFunction*
G04 #@! TA.AperFunction,SMDPad,CuDef*
G36*
X12502779Y-4098144D02*
G01*
X12525834Y-4101563D01*
X12548443Y-4107227D01*
X12570387Y-4115079D01*
X12591457Y-4125044D01*
X12611448Y-4137026D01*
X12630168Y-4150910D01*
X12647438Y-4166562D01*
X12663090Y-4183832D01*
X12676974Y-4202552D01*
X12688956Y-4222543D01*
X12698921Y-4243613D01*
X12706773Y-4265557D01*
X12712437Y-4288166D01*
X12715856Y-4311221D01*
X12717000Y-4334500D01*
X12717000Y-4809500D01*
X12715856Y-4832779D01*
X12712437Y-4855834D01*
X12706773Y-4878443D01*
X12698921Y-4900387D01*
X12688956Y-4921457D01*
X12676974Y-4941448D01*
X12663090Y-4960168D01*
X12647438Y-4977438D01*
X12630168Y-4993090D01*
X12611448Y-5006974D01*
X12591457Y-5018956D01*
X12570387Y-5028921D01*
X12548443Y-5036773D01*
X12525834Y-5042437D01*
X12502779Y-5045856D01*
X12479500Y-5047000D01*
X11904500Y-5047000D01*
X11881221Y-5045856D01*
X11858166Y-5042437D01*
X11835557Y-5036773D01*
X11813613Y-5028921D01*
X11792543Y-5018956D01*
X11772552Y-5006974D01*
X11753832Y-4993090D01*
X11736562Y-4977438D01*
X11720910Y-4960168D01*
X11707026Y-4941448D01*
X11695044Y-4921457D01*
X11685079Y-4900387D01*
X11677227Y-4878443D01*
X11671563Y-4855834D01*
X11668144Y-4832779D01*
X11667000Y-4809500D01*
X11667000Y-4334500D01*
X11668144Y-4311221D01*
X11671563Y-4288166D01*
X11677227Y-4265557D01*
X11685079Y-4243613D01*
X11695044Y-4222543D01*
X11707026Y-4202552D01*
X11720910Y-4183832D01*
X11736562Y-4166562D01*
X11753832Y-4150910D01*
X11772552Y-4137026D01*
X11792543Y-4125044D01*
X11813613Y-4115079D01*
X11835557Y-4107227D01*
X11858166Y-4101563D01*
X11881221Y-4098144D01*
X11904500Y-4097000D01*
X12479500Y-4097000D01*
X12502779Y-4098144D01*
G37*
G04 #@! TD.AperFunction*
D12*
X10414000Y-3302000D03*
X2540000Y-3302000D03*
X18034000Y-3302000D03*
X18034000Y-11430000D03*
X10414000Y-11430000D03*
X2540000Y-11430000D03*
X2540000Y-23114000D03*
X10414000Y-23114000D03*
X18034000Y-22606000D03*
D13*
X19812000Y-13302000D02*
X19812000Y-10287000D01*
X19812000Y-10287000D02*
X19812000Y-8382000D01*
X19812000Y-8382000D02*
X17907000Y-8382000D01*
X2667000Y-8382000D02*
X4572000Y-8382000D01*
X4572000Y-8382000D02*
X4572000Y-10287000D01*
X4572000Y-10287000D02*
X4572000Y-13302000D01*
X10287000Y-8382000D02*
X12192000Y-8382000D01*
X12192000Y-8382000D02*
X12192000Y-10287000D01*
X12192000Y-10287000D02*
X12192000Y-13302000D01*
X4572000Y-24892000D02*
X4572000Y-21844000D01*
X4572000Y-21844000D02*
X4572000Y-18702000D01*
X12192000Y-18702000D02*
X12192000Y-21717000D01*
X12192000Y-21717000D02*
X12192000Y-24384000D01*
X19812000Y-21717000D02*
X19812000Y-24384000D01*
X19812000Y-18702000D02*
X19812000Y-21717000D01*
X17907000Y-6632000D02*
X19812000Y-6632000D01*
X19812000Y-4572000D02*
X19812000Y-6632000D01*
X19812000Y-4572000D02*
X19812000Y-2032000D01*
X12192000Y-2032000D02*
X12192000Y-4572000D01*
X12192000Y-4572000D02*
X12192000Y-6632000D01*
X12192000Y-6632000D02*
X10287000Y-6632000D01*
X4572000Y-2032000D02*
X4572000Y-4572000D01*
X4572000Y-4572000D02*
X4572000Y-6632000D01*
X4572000Y-6632000D02*
X2667000Y-6632000D01*
D14*
G36*
X3529748Y-762013D02*
G01*
X3302013Y-989748D01*
X3123082Y-1257537D01*
X2999832Y-1555088D01*
X2937000Y-1870967D01*
X2937000Y-2193033D01*
X2999832Y-2508912D01*
X3123082Y-2806463D01*
X3302013Y-3074252D01*
X3529748Y-3301987D01*
X3687001Y-3407060D01*
X3687001Y-3697631D01*
X3665377Y-3715377D01*
X3556488Y-3848058D01*
X3475577Y-3999433D01*
X3425752Y-4163684D01*
X3408928Y-4334500D01*
X3408928Y-4809500D01*
X3425752Y-4980316D01*
X3475577Y-5144567D01*
X3556488Y-5295942D01*
X3665377Y-5428623D01*
X3687000Y-5446369D01*
X3687001Y-5747000D01*
X3541369Y-5747000D01*
X3523623Y-5725377D01*
X3390942Y-5616488D01*
X3239567Y-5535577D01*
X3075316Y-5485752D01*
X2904500Y-5468928D01*
X2429500Y-5468928D01*
X2258684Y-5485752D01*
X2094433Y-5535577D01*
X1943058Y-5616488D01*
X1810377Y-5725377D01*
X1701488Y-5858058D01*
X1620577Y-6009433D01*
X1570752Y-6173684D01*
X1553928Y-6344500D01*
X1553928Y-6919500D01*
X1570752Y-7090316D01*
X1620577Y-7254567D01*
X1701488Y-7405942D01*
X1784425Y-7507000D01*
X1701488Y-7608058D01*
X1620577Y-7759433D01*
X1570752Y-7923684D01*
X1553928Y-8094500D01*
X1553928Y-8669500D01*
X1570752Y-8840316D01*
X1620577Y-9004567D01*
X1701488Y-9155942D01*
X1810377Y-9288623D01*
X1943058Y-9397512D01*
X2094433Y-9478423D01*
X2258684Y-9528248D01*
X2429500Y-9545072D01*
X2904500Y-9545072D01*
X3075316Y-9528248D01*
X3239567Y-9478423D01*
X3390942Y-9397512D01*
X3523623Y-9288623D01*
X3541369Y-9267000D01*
X3687000Y-9267000D01*
X3687001Y-9412631D01*
X3665377Y-9430377D01*
X3556488Y-9563058D01*
X3475577Y-9714433D01*
X3425752Y-9878684D01*
X3408928Y-10049500D01*
X3408928Y-10524500D01*
X3425752Y-10695316D01*
X3475577Y-10859567D01*
X3556488Y-11010942D01*
X3578025Y-11037184D01*
X3528614Y-11063595D01*
X3394038Y-11174038D01*
X3283595Y-11308614D01*
X3201528Y-11462150D01*
X3150992Y-11628746D01*
X3133928Y-11802000D01*
X3133928Y-14802000D01*
X3150992Y-14975254D01*
X3201528Y-15141850D01*
X3283595Y-15295386D01*
X3394038Y-15429962D01*
X3528614Y-15540405D01*
X3682150Y-15622472D01*
X3848746Y-15673008D01*
X4022000Y-15690072D01*
X5122000Y-15690072D01*
X5295254Y-15673008D01*
X5461850Y-15622472D01*
X5615386Y-15540405D01*
X5749962Y-15429962D01*
X5860405Y-15295386D01*
X5942472Y-15141850D01*
X5993008Y-14975254D01*
X6010072Y-14802000D01*
X6010072Y-11802000D01*
X5993008Y-11628746D01*
X5942472Y-11462150D01*
X5860405Y-11308614D01*
X5749962Y-11174038D01*
X5615386Y-11063595D01*
X5565975Y-11037184D01*
X5587512Y-11010942D01*
X5668423Y-10859567D01*
X5718248Y-10695316D01*
X5735072Y-10524500D01*
X5735072Y-10049500D01*
X5718248Y-9878684D01*
X5668423Y-9714433D01*
X5587512Y-9563058D01*
X5478623Y-9430377D01*
X5457000Y-9412631D01*
X5457000Y-9254046D01*
X5537512Y-9155942D01*
X5618423Y-9004567D01*
X5668248Y-8840316D01*
X5685072Y-8669500D01*
X5685072Y-8094500D01*
X5668248Y-7923684D01*
X5618423Y-7759433D01*
X5537512Y-7608058D01*
X5454575Y-7507000D01*
X5537512Y-7405942D01*
X5618423Y-7254567D01*
X5668248Y-7090316D01*
X5685072Y-6919500D01*
X5685072Y-6344500D01*
X5668248Y-6173684D01*
X5618423Y-6009433D01*
X5537512Y-5858058D01*
X5457000Y-5759954D01*
X5457000Y-5446369D01*
X5478623Y-5428623D01*
X5587512Y-5295942D01*
X5668423Y-5144567D01*
X5718248Y-4980316D01*
X5735072Y-4809500D01*
X5735072Y-4334500D01*
X5718248Y-4163684D01*
X5668423Y-3999433D01*
X5587512Y-3848058D01*
X5478623Y-3715377D01*
X5457000Y-3697631D01*
X5457000Y-3407059D01*
X5614252Y-3301987D01*
X5841987Y-3074252D01*
X6020918Y-2806463D01*
X6144168Y-2508912D01*
X6207000Y-2193033D01*
X6207000Y-1870967D01*
X6144168Y-1555088D01*
X6020918Y-1257537D01*
X5841987Y-989748D01*
X5614252Y-762013D01*
X5536409Y-710000D01*
X11227591Y-710000D01*
X11149748Y-762013D01*
X10922013Y-989748D01*
X10743082Y-1257537D01*
X10619832Y-1555088D01*
X10557000Y-1870967D01*
X10557000Y-2193033D01*
X10619832Y-2508912D01*
X10743082Y-2806463D01*
X10922013Y-3074252D01*
X11149748Y-3301987D01*
X11307001Y-3407060D01*
X11307001Y-3697631D01*
X11285377Y-3715377D01*
X11176488Y-3848058D01*
X11095577Y-3999433D01*
X11045752Y-4163684D01*
X11028928Y-4334500D01*
X11028928Y-4809500D01*
X11045752Y-4980316D01*
X11095577Y-5144567D01*
X11176488Y-5295942D01*
X11285377Y-5428623D01*
X11307000Y-5446369D01*
X11307001Y-5747000D01*
X11161369Y-5747000D01*
X11143623Y-5725377D01*
X11010942Y-5616488D01*
X10859567Y-5535577D01*
X10695316Y-5485752D01*
X10524500Y-5468928D01*
X10049500Y-5468928D01*
X9878684Y-5485752D01*
X9714433Y-5535577D01*
X9563058Y-5616488D01*
X9430377Y-5725377D01*
X9321488Y-5858058D01*
X9240577Y-6009433D01*
X9190752Y-6173684D01*
X9173928Y-6344500D01*
X9173928Y-6919500D01*
X9190752Y-7090316D01*
X9240577Y-7254567D01*
X9321488Y-7405942D01*
X9404425Y-7507000D01*
X9321488Y-7608058D01*
X9240577Y-7759433D01*
X9190752Y-7923684D01*
X9173928Y-8094500D01*
X9173928Y-8669500D01*
X9190752Y-8840316D01*
X9240577Y-9004567D01*
X9321488Y-9155942D01*
X9430377Y-9288623D01*
X9563058Y-9397512D01*
X9714433Y-9478423D01*
X9878684Y-9528248D01*
X10049500Y-9545072D01*
X10524500Y-9545072D01*
X10695316Y-9528248D01*
X10859567Y-9478423D01*
X11010942Y-9397512D01*
X11143623Y-9288623D01*
X11161369Y-9267000D01*
X11307000Y-9267000D01*
X11307001Y-9412631D01*
X11285377Y-9430377D01*
X11176488Y-9563058D01*
X11095577Y-9714433D01*
X11045752Y-9878684D01*
X11028928Y-10049500D01*
X11028928Y-10524500D01*
X11045752Y-10695316D01*
X11095577Y-10859567D01*
X11176488Y-11010942D01*
X11198025Y-11037184D01*
X11148614Y-11063595D01*
X11014038Y-11174038D01*
X10903595Y-11308614D01*
X10821528Y-11462150D01*
X10770992Y-11628746D01*
X10753928Y-11802000D01*
X10753928Y-14802000D01*
X10770992Y-14975254D01*
X10821528Y-15141850D01*
X10903595Y-15295386D01*
X11014038Y-15429962D01*
X11148614Y-15540405D01*
X11302150Y-15622472D01*
X11468746Y-15673008D01*
X11642000Y-15690072D01*
X12742000Y-15690072D01*
X12915254Y-15673008D01*
X13081850Y-15622472D01*
X13235386Y-15540405D01*
X13369962Y-15429962D01*
X13480405Y-15295386D01*
X13562472Y-15141850D01*
X13613008Y-14975254D01*
X13630072Y-14802000D01*
X13630072Y-11802000D01*
X13613008Y-11628746D01*
X13562472Y-11462150D01*
X13480405Y-11308614D01*
X13369962Y-11174038D01*
X13235386Y-11063595D01*
X13185975Y-11037184D01*
X13207512Y-11010942D01*
X13288423Y-10859567D01*
X13338248Y-10695316D01*
X13355072Y-10524500D01*
X13355072Y-10049500D01*
X13338248Y-9878684D01*
X13288423Y-9714433D01*
X13207512Y-9563058D01*
X13098623Y-9430377D01*
X13077000Y-9412631D01*
X13077000Y-9254046D01*
X13157512Y-9155942D01*
X13238423Y-9004567D01*
X13288248Y-8840316D01*
X13305072Y-8669500D01*
X13305072Y-8094500D01*
X13288248Y-7923684D01*
X13238423Y-7759433D01*
X13157512Y-7608058D01*
X13074575Y-7507000D01*
X13157512Y-7405942D01*
X13238423Y-7254567D01*
X13288248Y-7090316D01*
X13305072Y-6919500D01*
X13305072Y-6344500D01*
X13288248Y-6173684D01*
X13238423Y-6009433D01*
X13157512Y-5858058D01*
X13077000Y-5759954D01*
X13077000Y-5446369D01*
X13098623Y-5428623D01*
X13207512Y-5295942D01*
X13288423Y-5144567D01*
X13338248Y-4980316D01*
X13355072Y-4809500D01*
X13355072Y-4334500D01*
X13338248Y-4163684D01*
X13288423Y-3999433D01*
X13207512Y-3848058D01*
X13098623Y-3715377D01*
X13077000Y-3697631D01*
X13077000Y-3407059D01*
X13234252Y-3301987D01*
X13461987Y-3074252D01*
X13640918Y-2806463D01*
X13764168Y-2508912D01*
X13827000Y-2193033D01*
X13827000Y-1870967D01*
X13764168Y-1555088D01*
X13640918Y-1257537D01*
X13461987Y-989748D01*
X13234252Y-762013D01*
X13156409Y-710000D01*
X18847591Y-710000D01*
X18769748Y-762013D01*
X18542013Y-989748D01*
X18363082Y-1257537D01*
X18239832Y-1555088D01*
X18177000Y-1870967D01*
X18177000Y-2193033D01*
X18239832Y-2508912D01*
X18363082Y-2806463D01*
X18542013Y-3074252D01*
X18769748Y-3301987D01*
X18927000Y-3407060D01*
X18927000Y-3697631D01*
X18905377Y-3715377D01*
X18796488Y-3848058D01*
X18715577Y-3999433D01*
X18665752Y-4163684D01*
X18648928Y-4334500D01*
X18648928Y-4809500D01*
X18665752Y-4980316D01*
X18715577Y-5144567D01*
X18796488Y-5295942D01*
X18905377Y-5428623D01*
X18927000Y-5446369D01*
X18927001Y-5747000D01*
X18781369Y-5747000D01*
X18763623Y-5725377D01*
X18630942Y-5616488D01*
X18479567Y-5535577D01*
X18315316Y-5485752D01*
X18144500Y-5468928D01*
X17669500Y-5468928D01*
X17498684Y-5485752D01*
X17334433Y-5535577D01*
X17183058Y-5616488D01*
X17050377Y-5725377D01*
X16941488Y-5858058D01*
X16860577Y-6009433D01*
X16810752Y-6173684D01*
X16793928Y-6344500D01*
X16793928Y-6919500D01*
X16810752Y-7090316D01*
X16860577Y-7254567D01*
X16941488Y-7405942D01*
X17024425Y-7507000D01*
X16941488Y-7608058D01*
X16860577Y-7759433D01*
X16810752Y-7923684D01*
X16793928Y-8094500D01*
X16793928Y-8669500D01*
X16810752Y-8840316D01*
X16860577Y-9004567D01*
X16941488Y-9155942D01*
X17050377Y-9288623D01*
X17183058Y-9397512D01*
X17334433Y-9478423D01*
X17498684Y-9528248D01*
X17669500Y-9545072D01*
X18144500Y-9545072D01*
X18315316Y-9528248D01*
X18479567Y-9478423D01*
X18630942Y-9397512D01*
X18763623Y-9288623D01*
X18781369Y-9267000D01*
X18927001Y-9267000D01*
X18927000Y-9412631D01*
X18905377Y-9430377D01*
X18796488Y-9563058D01*
X18715577Y-9714433D01*
X18665752Y-9878684D01*
X18648928Y-10049500D01*
X18648928Y-10524500D01*
X18665752Y-10695316D01*
X18715577Y-10859567D01*
X18796488Y-11010942D01*
X18818025Y-11037184D01*
X18768614Y-11063595D01*
X18634038Y-11174038D01*
X18523595Y-11308614D01*
X18441528Y-11462150D01*
X18390992Y-11628746D01*
X18373928Y-11802000D01*
X18373928Y-14802000D01*
X18390992Y-14975254D01*
X18441528Y-15141850D01*
X18523595Y-15295386D01*
X18634038Y-15429962D01*
X18768614Y-15540405D01*
X18922150Y-15622472D01*
X19088746Y-15673008D01*
X19262000Y-15690072D01*
X20362000Y-15690072D01*
X20535254Y-15673008D01*
X20701850Y-15622472D01*
X20855386Y-15540405D01*
X20989962Y-15429962D01*
X21100405Y-15295386D01*
X21182472Y-15141850D01*
X21233008Y-14975254D01*
X21250072Y-14802000D01*
X21250072Y-11802000D01*
X21233008Y-11628746D01*
X21182472Y-11462150D01*
X21100405Y-11308614D01*
X20989962Y-11174038D01*
X20855386Y-11063595D01*
X20805975Y-11037184D01*
X20827512Y-11010942D01*
X20908423Y-10859567D01*
X20958248Y-10695316D01*
X20975072Y-10524500D01*
X20975072Y-10049500D01*
X20958248Y-9878684D01*
X20908423Y-9714433D01*
X20827512Y-9563058D01*
X20718623Y-9430377D01*
X20697000Y-9412631D01*
X20697000Y-9254046D01*
X20777512Y-9155942D01*
X20858423Y-9004567D01*
X20908248Y-8840316D01*
X20925072Y-8669500D01*
X20925072Y-8094500D01*
X20908248Y-7923684D01*
X20858423Y-7759433D01*
X20777512Y-7608058D01*
X20694575Y-7507000D01*
X20777512Y-7405942D01*
X20858423Y-7254567D01*
X20908248Y-7090316D01*
X20925072Y-6919500D01*
X20925072Y-6344500D01*
X20908248Y-6173684D01*
X20858423Y-6009433D01*
X20777512Y-5858058D01*
X20697000Y-5759954D01*
X20697000Y-5446369D01*
X20718623Y-5428623D01*
X20827512Y-5295942D01*
X20908423Y-5144567D01*
X20958248Y-4980316D01*
X20975072Y-4809500D01*
X20975072Y-4334500D01*
X20958248Y-4163684D01*
X20908423Y-3999433D01*
X20827512Y-3848058D01*
X20718623Y-3715377D01*
X20697000Y-3697631D01*
X20697000Y-3407059D01*
X20854252Y-3301987D01*
X21081987Y-3074252D01*
X21260918Y-2806463D01*
X21384168Y-2508912D01*
X21447000Y-2193033D01*
X21447000Y-1870967D01*
X21384168Y-1555088D01*
X21260918Y-1257537D01*
X21081987Y-989748D01*
X20854252Y-762013D01*
X20776409Y-710000D01*
X23420001Y-710000D01*
X23420000Y-26976000D01*
X710000Y-26976000D01*
X710000Y-24222967D01*
X2937000Y-24222967D01*
X2937000Y-24545033D01*
X2999832Y-24860912D01*
X3123082Y-25158463D01*
X3302013Y-25426252D01*
X3529748Y-25653987D01*
X3797537Y-25832918D01*
X4095088Y-25956168D01*
X4410967Y-26019000D01*
X4733033Y-26019000D01*
X5048912Y-25956168D01*
X5346463Y-25832918D01*
X5614252Y-25653987D01*
X5841987Y-25426252D01*
X6020918Y-25158463D01*
X6144168Y-24860912D01*
X6207000Y-24545033D01*
X6207000Y-24222967D01*
X10557000Y-24222967D01*
X10557000Y-24545033D01*
X10619832Y-24860912D01*
X10743082Y-25158463D01*
X10922013Y-25426252D01*
X11149748Y-25653987D01*
X11417537Y-25832918D01*
X11715088Y-25956168D01*
X12030967Y-26019000D01*
X12353033Y-26019000D01*
X12668912Y-25956168D01*
X12966463Y-25832918D01*
X13234252Y-25653987D01*
X13461987Y-25426252D01*
X13640918Y-25158463D01*
X13764168Y-24860912D01*
X13827000Y-24545033D01*
X13827000Y-24222967D01*
X18177000Y-24222967D01*
X18177000Y-24545033D01*
X18239832Y-24860912D01*
X18363082Y-25158463D01*
X18542013Y-25426252D01*
X18769748Y-25653987D01*
X19037537Y-25832918D01*
X19335088Y-25956168D01*
X19650967Y-26019000D01*
X19973033Y-26019000D01*
X20288912Y-25956168D01*
X20586463Y-25832918D01*
X20854252Y-25653987D01*
X21081987Y-25426252D01*
X21260918Y-25158463D01*
X21384168Y-24860912D01*
X21447000Y-24545033D01*
X21447000Y-24222967D01*
X21384168Y-23907088D01*
X21260918Y-23609537D01*
X21081987Y-23341748D01*
X20854252Y-23114013D01*
X20697000Y-23008941D01*
X20697000Y-22591369D01*
X20718623Y-22573623D01*
X20827512Y-22440942D01*
X20908423Y-22289567D01*
X20958248Y-22125316D01*
X20975072Y-21954500D01*
X20975072Y-21479500D01*
X20958248Y-21308684D01*
X20908423Y-21144433D01*
X20827512Y-20993058D01*
X20805975Y-20966816D01*
X20855386Y-20940405D01*
X20989962Y-20829962D01*
X21100405Y-20695386D01*
X21182472Y-20541850D01*
X21233008Y-20375254D01*
X21250072Y-20202000D01*
X21250072Y-17202000D01*
X21233008Y-17028746D01*
X21182472Y-16862150D01*
X21100405Y-16708614D01*
X20989962Y-16574038D01*
X20855386Y-16463595D01*
X20701850Y-16381528D01*
X20535254Y-16330992D01*
X20362000Y-16313928D01*
X19262000Y-16313928D01*
X19088746Y-16330992D01*
X18922150Y-16381528D01*
X18768614Y-16463595D01*
X18634038Y-16574038D01*
X18523595Y-16708614D01*
X18441528Y-16862150D01*
X18390992Y-17028746D01*
X18373928Y-17202000D01*
X18373928Y-20202000D01*
X18390992Y-20375254D01*
X18441528Y-20541850D01*
X18523595Y-20695386D01*
X18634038Y-20829962D01*
X18768614Y-20940405D01*
X18818025Y-20966816D01*
X18796488Y-20993058D01*
X18715577Y-21144433D01*
X18665752Y-21308684D01*
X18648928Y-21479500D01*
X18648928Y-21954500D01*
X18665752Y-22125316D01*
X18715577Y-22289567D01*
X18796488Y-22440942D01*
X18905377Y-22573623D01*
X18927000Y-22591369D01*
X18927000Y-23008940D01*
X18769748Y-23114013D01*
X18542013Y-23341748D01*
X18363082Y-23609537D01*
X18239832Y-23907088D01*
X18177000Y-24222967D01*
X13827000Y-24222967D01*
X13764168Y-23907088D01*
X13640918Y-23609537D01*
X13461987Y-23341748D01*
X13234252Y-23114013D01*
X13077000Y-23008941D01*
X13077000Y-22591369D01*
X13098623Y-22573623D01*
X13207512Y-22440942D01*
X13288423Y-22289567D01*
X13338248Y-22125316D01*
X13355072Y-21954500D01*
X13355072Y-21479500D01*
X13338248Y-21308684D01*
X13288423Y-21144433D01*
X13207512Y-20993058D01*
X13185975Y-20966816D01*
X13235386Y-20940405D01*
X13369962Y-20829962D01*
X13480405Y-20695386D01*
X13562472Y-20541850D01*
X13613008Y-20375254D01*
X13630072Y-20202000D01*
X13630072Y-17202000D01*
X13613008Y-17028746D01*
X13562472Y-16862150D01*
X13480405Y-16708614D01*
X13369962Y-16574038D01*
X13235386Y-16463595D01*
X13081850Y-16381528D01*
X12915254Y-16330992D01*
X12742000Y-16313928D01*
X11642000Y-16313928D01*
X11468746Y-16330992D01*
X11302150Y-16381528D01*
X11148614Y-16463595D01*
X11014038Y-16574038D01*
X10903595Y-16708614D01*
X10821528Y-16862150D01*
X10770992Y-17028746D01*
X10753928Y-17202000D01*
X10753928Y-20202000D01*
X10770992Y-20375254D01*
X10821528Y-20541850D01*
X10903595Y-20695386D01*
X11014038Y-20829962D01*
X11148614Y-20940405D01*
X11198025Y-20966816D01*
X11176488Y-20993058D01*
X11095577Y-21144433D01*
X11045752Y-21308684D01*
X11028928Y-21479500D01*
X11028928Y-21954500D01*
X11045752Y-22125316D01*
X11095577Y-22289567D01*
X11176488Y-22440942D01*
X11285377Y-22573623D01*
X11307000Y-22591369D01*
X11307000Y-23008940D01*
X11149748Y-23114013D01*
X10922013Y-23341748D01*
X10743082Y-23609537D01*
X10619832Y-23907088D01*
X10557000Y-24222967D01*
X6207000Y-24222967D01*
X6144168Y-23907088D01*
X6020918Y-23609537D01*
X5841987Y-23341748D01*
X5614252Y-23114013D01*
X5457000Y-23008941D01*
X5457000Y-22718369D01*
X5478623Y-22700623D01*
X5587512Y-22567942D01*
X5668423Y-22416567D01*
X5718248Y-22252316D01*
X5735072Y-22081500D01*
X5735072Y-21606500D01*
X5718248Y-21435684D01*
X5668423Y-21271433D01*
X5587512Y-21120058D01*
X5493529Y-21005539D01*
X5615386Y-20940405D01*
X5749962Y-20829962D01*
X5860405Y-20695386D01*
X5942472Y-20541850D01*
X5993008Y-20375254D01*
X6010072Y-20202000D01*
X6010072Y-17202000D01*
X5993008Y-17028746D01*
X5942472Y-16862150D01*
X5860405Y-16708614D01*
X5749962Y-16574038D01*
X5615386Y-16463595D01*
X5461850Y-16381528D01*
X5295254Y-16330992D01*
X5122000Y-16313928D01*
X4022000Y-16313928D01*
X3848746Y-16330992D01*
X3682150Y-16381528D01*
X3528614Y-16463595D01*
X3394038Y-16574038D01*
X3283595Y-16708614D01*
X3201528Y-16862150D01*
X3150992Y-17028746D01*
X3133928Y-17202000D01*
X3133928Y-20202000D01*
X3150992Y-20375254D01*
X3201528Y-20541850D01*
X3283595Y-20695386D01*
X3394038Y-20829962D01*
X3528614Y-20940405D01*
X3650471Y-21005539D01*
X3556488Y-21120058D01*
X3475577Y-21271433D01*
X3425752Y-21435684D01*
X3408928Y-21606500D01*
X3408928Y-22081500D01*
X3425752Y-22252316D01*
X3475577Y-22416567D01*
X3556488Y-22567942D01*
X3665377Y-22700623D01*
X3687001Y-22718369D01*
X3687001Y-23008940D01*
X3529748Y-23114013D01*
X3302013Y-23341748D01*
X3123082Y-23609537D01*
X2999832Y-23907088D01*
X2937000Y-24222967D01*
X710000Y-24222967D01*
X710000Y-710000D01*
X3607591Y-710000D01*
X3529748Y-762013D01*
G37*
X3529748Y-762013D02*
X3302013Y-989748D01*
X3123082Y-1257537D01*
X2999832Y-1555088D01*
X2937000Y-1870967D01*
X2937000Y-2193033D01*
X2999832Y-2508912D01*
X3123082Y-2806463D01*
X3302013Y-3074252D01*
X3529748Y-3301987D01*
X3687001Y-3407060D01*
X3687001Y-3697631D01*
X3665377Y-3715377D01*
X3556488Y-3848058D01*
X3475577Y-3999433D01*
X3425752Y-4163684D01*
X3408928Y-4334500D01*
X3408928Y-4809500D01*
X3425752Y-4980316D01*
X3475577Y-5144567D01*
X3556488Y-5295942D01*
X3665377Y-5428623D01*
X3687000Y-5446369D01*
X3687001Y-5747000D01*
X3541369Y-5747000D01*
X3523623Y-5725377D01*
X3390942Y-5616488D01*
X3239567Y-5535577D01*
X3075316Y-5485752D01*
X2904500Y-5468928D01*
X2429500Y-5468928D01*
X2258684Y-5485752D01*
X2094433Y-5535577D01*
X1943058Y-5616488D01*
X1810377Y-5725377D01*
X1701488Y-5858058D01*
X1620577Y-6009433D01*
X1570752Y-6173684D01*
X1553928Y-6344500D01*
X1553928Y-6919500D01*
X1570752Y-7090316D01*
X1620577Y-7254567D01*
X1701488Y-7405942D01*
X1784425Y-7507000D01*
X1701488Y-7608058D01*
X1620577Y-7759433D01*
X1570752Y-7923684D01*
X1553928Y-8094500D01*
X1553928Y-8669500D01*
X1570752Y-8840316D01*
X1620577Y-9004567D01*
X1701488Y-9155942D01*
X1810377Y-9288623D01*
X1943058Y-9397512D01*
X2094433Y-9478423D01*
X2258684Y-9528248D01*
X2429500Y-9545072D01*
X2904500Y-9545072D01*
X3075316Y-9528248D01*
X3239567Y-9478423D01*
X3390942Y-9397512D01*
X3523623Y-9288623D01*
X3541369Y-9267000D01*
X3687000Y-9267000D01*
X3687001Y-9412631D01*
X3665377Y-9430377D01*
X3556488Y-9563058D01*
X3475577Y-9714433D01*
X3425752Y-9878684D01*
X3408928Y-10049500D01*
X3408928Y-10524500D01*
X3425752Y-10695316D01*
X3475577Y-10859567D01*
X3556488Y-11010942D01*
X3578025Y-11037184D01*
X3528614Y-11063595D01*
X3394038Y-11174038D01*
X3283595Y-11308614D01*
X3201528Y-11462150D01*
X3150992Y-11628746D01*
X3133928Y-11802000D01*
X3133928Y-14802000D01*
X3150992Y-14975254D01*
X3201528Y-15141850D01*
X3283595Y-15295386D01*
X3394038Y-15429962D01*
X3528614Y-15540405D01*
X3682150Y-15622472D01*
X3848746Y-15673008D01*
X4022000Y-15690072D01*
X5122000Y-15690072D01*
X5295254Y-15673008D01*
X5461850Y-15622472D01*
X5615386Y-15540405D01*
X5749962Y-15429962D01*
X5860405Y-15295386D01*
X5942472Y-15141850D01*
X5993008Y-14975254D01*
X6010072Y-14802000D01*
X6010072Y-11802000D01*
X5993008Y-11628746D01*
X5942472Y-11462150D01*
X5860405Y-11308614D01*
X5749962Y-11174038D01*
X5615386Y-11063595D01*
X5565975Y-11037184D01*
X5587512Y-11010942D01*
X5668423Y-10859567D01*
X5718248Y-10695316D01*
X5735072Y-10524500D01*
X5735072Y-10049500D01*
X5718248Y-9878684D01*
X5668423Y-9714433D01*
X5587512Y-9563058D01*
X5478623Y-9430377D01*
X5457000Y-9412631D01*
X5457000Y-9254046D01*
X5537512Y-9155942D01*
X5618423Y-9004567D01*
X5668248Y-8840316D01*
X5685072Y-8669500D01*
X5685072Y-8094500D01*
X5668248Y-7923684D01*
X5618423Y-7759433D01*
X5537512Y-7608058D01*
X5454575Y-7507000D01*
X5537512Y-7405942D01*
X5618423Y-7254567D01*
X5668248Y-7090316D01*
X5685072Y-6919500D01*
X5685072Y-6344500D01*
X5668248Y-6173684D01*
X5618423Y-6009433D01*
X5537512Y-5858058D01*
X5457000Y-5759954D01*
X5457000Y-5446369D01*
X5478623Y-5428623D01*
X5587512Y-5295942D01*
X5668423Y-5144567D01*
X5718248Y-4980316D01*
X5735072Y-4809500D01*
X5735072Y-4334500D01*
X5718248Y-4163684D01*
X5668423Y-3999433D01*
X5587512Y-3848058D01*
X5478623Y-3715377D01*
X5457000Y-3697631D01*
X5457000Y-3407059D01*
X5614252Y-3301987D01*
X5841987Y-3074252D01*
X6020918Y-2806463D01*
X6144168Y-2508912D01*
X6207000Y-2193033D01*
X6207000Y-1870967D01*
X6144168Y-1555088D01*
X6020918Y-1257537D01*
X5841987Y-989748D01*
X5614252Y-762013D01*
X5536409Y-710000D01*
X11227591Y-710000D01*
X11149748Y-762013D01*
X10922013Y-989748D01*
X10743082Y-1257537D01*
X10619832Y-1555088D01*
X10557000Y-1870967D01*
X10557000Y-2193033D01*
X10619832Y-2508912D01*
X10743082Y-2806463D01*
X10922013Y-3074252D01*
X11149748Y-3301987D01*
X11307001Y-3407060D01*
X11307001Y-3697631D01*
X11285377Y-3715377D01*
X11176488Y-3848058D01*
X11095577Y-3999433D01*
X11045752Y-4163684D01*
X11028928Y-4334500D01*
X11028928Y-4809500D01*
X11045752Y-4980316D01*
X11095577Y-5144567D01*
X11176488Y-5295942D01*
X11285377Y-5428623D01*
X11307000Y-5446369D01*
X11307001Y-5747000D01*
X11161369Y-5747000D01*
X11143623Y-5725377D01*
X11010942Y-5616488D01*
X10859567Y-5535577D01*
X10695316Y-5485752D01*
X10524500Y-5468928D01*
X10049500Y-5468928D01*
X9878684Y-5485752D01*
X9714433Y-5535577D01*
X9563058Y-5616488D01*
X9430377Y-5725377D01*
X9321488Y-5858058D01*
X9240577Y-6009433D01*
X9190752Y-6173684D01*
X9173928Y-6344500D01*
X9173928Y-6919500D01*
X9190752Y-7090316D01*
X9240577Y-7254567D01*
X9321488Y-7405942D01*
X9404425Y-7507000D01*
X9321488Y-7608058D01*
X9240577Y-7759433D01*
X9190752Y-7923684D01*
X9173928Y-8094500D01*
X9173928Y-8669500D01*
X9190752Y-8840316D01*
X9240577Y-9004567D01*
X9321488Y-9155942D01*
X9430377Y-9288623D01*
X9563058Y-9397512D01*
X9714433Y-9478423D01*
X9878684Y-9528248D01*
X10049500Y-9545072D01*
X10524500Y-9545072D01*
X10695316Y-9528248D01*
X10859567Y-9478423D01*
X11010942Y-9397512D01*
X11143623Y-9288623D01*
X11161369Y-9267000D01*
X11307000Y-9267000D01*
X11307001Y-9412631D01*
X11285377Y-9430377D01*
X11176488Y-9563058D01*
X11095577Y-9714433D01*
X11045752Y-9878684D01*
X11028928Y-10049500D01*
X11028928Y-10524500D01*
X11045752Y-10695316D01*
X11095577Y-10859567D01*
X11176488Y-11010942D01*
X11198025Y-11037184D01*
X11148614Y-11063595D01*
X11014038Y-11174038D01*
X10903595Y-11308614D01*
X10821528Y-11462150D01*
X10770992Y-11628746D01*
X10753928Y-11802000D01*
X10753928Y-14802000D01*
X10770992Y-14975254D01*
X10821528Y-15141850D01*
X10903595Y-15295386D01*
X11014038Y-15429962D01*
X11148614Y-15540405D01*
X11302150Y-15622472D01*
X11468746Y-15673008D01*
X11642000Y-15690072D01*
X12742000Y-15690072D01*
X12915254Y-15673008D01*
X13081850Y-15622472D01*
X13235386Y-15540405D01*
X13369962Y-15429962D01*
X13480405Y-15295386D01*
X13562472Y-15141850D01*
X13613008Y-14975254D01*
X13630072Y-14802000D01*
X13630072Y-11802000D01*
X13613008Y-11628746D01*
X13562472Y-11462150D01*
X13480405Y-11308614D01*
X13369962Y-11174038D01*
X13235386Y-11063595D01*
X13185975Y-11037184D01*
X13207512Y-11010942D01*
X13288423Y-10859567D01*
X13338248Y-10695316D01*
X13355072Y-10524500D01*
X13355072Y-10049500D01*
X13338248Y-9878684D01*
X13288423Y-9714433D01*
X13207512Y-9563058D01*
X13098623Y-9430377D01*
X13077000Y-9412631D01*
X13077000Y-9254046D01*
X13157512Y-9155942D01*
X13238423Y-9004567D01*
X13288248Y-8840316D01*
X13305072Y-8669500D01*
X13305072Y-8094500D01*
X13288248Y-7923684D01*
X13238423Y-7759433D01*
X13157512Y-7608058D01*
X13074575Y-7507000D01*
X13157512Y-7405942D01*
X13238423Y-7254567D01*
X13288248Y-7090316D01*
X13305072Y-6919500D01*
X13305072Y-6344500D01*
X13288248Y-6173684D01*
X13238423Y-6009433D01*
X13157512Y-5858058D01*
X13077000Y-5759954D01*
X13077000Y-5446369D01*
X13098623Y-5428623D01*
X13207512Y-5295942D01*
X13288423Y-5144567D01*
X13338248Y-4980316D01*
X13355072Y-4809500D01*
X13355072Y-4334500D01*
X13338248Y-4163684D01*
X13288423Y-3999433D01*
X13207512Y-3848058D01*
X13098623Y-3715377D01*
X13077000Y-3697631D01*
X13077000Y-3407059D01*
X13234252Y-3301987D01*
X13461987Y-3074252D01*
X13640918Y-2806463D01*
X13764168Y-2508912D01*
X13827000Y-2193033D01*
X13827000Y-1870967D01*
X13764168Y-1555088D01*
X13640918Y-1257537D01*
X13461987Y-989748D01*
X13234252Y-762013D01*
X13156409Y-710000D01*
X18847591Y-710000D01*
X18769748Y-762013D01*
X18542013Y-989748D01*
X18363082Y-1257537D01*
X18239832Y-1555088D01*
X18177000Y-1870967D01*
X18177000Y-2193033D01*
X18239832Y-2508912D01*
X18363082Y-2806463D01*
X18542013Y-3074252D01*
X18769748Y-3301987D01*
X18927000Y-3407060D01*
X18927000Y-3697631D01*
X18905377Y-3715377D01*
X18796488Y-3848058D01*
X18715577Y-3999433D01*
X18665752Y-4163684D01*
X18648928Y-4334500D01*
X18648928Y-4809500D01*
X18665752Y-4980316D01*
X18715577Y-5144567D01*
X18796488Y-5295942D01*
X18905377Y-5428623D01*
X18927000Y-5446369D01*
X18927001Y-5747000D01*
X18781369Y-5747000D01*
X18763623Y-5725377D01*
X18630942Y-5616488D01*
X18479567Y-5535577D01*
X18315316Y-5485752D01*
X18144500Y-5468928D01*
X17669500Y-5468928D01*
X17498684Y-5485752D01*
X17334433Y-5535577D01*
X17183058Y-5616488D01*
X17050377Y-5725377D01*
X16941488Y-5858058D01*
X16860577Y-6009433D01*
X16810752Y-6173684D01*
X16793928Y-6344500D01*
X16793928Y-6919500D01*
X16810752Y-7090316D01*
X16860577Y-7254567D01*
X16941488Y-7405942D01*
X17024425Y-7507000D01*
X16941488Y-7608058D01*
X16860577Y-7759433D01*
X16810752Y-7923684D01*
X16793928Y-8094500D01*
X16793928Y-8669500D01*
X16810752Y-8840316D01*
X16860577Y-9004567D01*
X16941488Y-9155942D01*
X17050377Y-9288623D01*
X17183058Y-9397512D01*
X17334433Y-9478423D01*
X17498684Y-9528248D01*
X17669500Y-9545072D01*
X18144500Y-9545072D01*
X18315316Y-9528248D01*
X18479567Y-9478423D01*
X18630942Y-9397512D01*
X18763623Y-9288623D01*
X18781369Y-9267000D01*
X18927001Y-9267000D01*
X18927000Y-9412631D01*
X18905377Y-9430377D01*
X18796488Y-9563058D01*
X18715577Y-9714433D01*
X18665752Y-9878684D01*
X18648928Y-10049500D01*
X18648928Y-10524500D01*
X18665752Y-10695316D01*
X18715577Y-10859567D01*
X18796488Y-11010942D01*
X18818025Y-11037184D01*
X18768614Y-11063595D01*
X18634038Y-11174038D01*
X18523595Y-11308614D01*
X18441528Y-11462150D01*
X18390992Y-11628746D01*
X18373928Y-11802000D01*
X18373928Y-14802000D01*
X18390992Y-14975254D01*
X18441528Y-15141850D01*
X18523595Y-15295386D01*
X18634038Y-15429962D01*
X18768614Y-15540405D01*
X18922150Y-15622472D01*
X19088746Y-15673008D01*
X19262000Y-15690072D01*
X20362000Y-15690072D01*
X20535254Y-15673008D01*
X20701850Y-15622472D01*
X20855386Y-15540405D01*
X20989962Y-15429962D01*
X21100405Y-15295386D01*
X21182472Y-15141850D01*
X21233008Y-14975254D01*
X21250072Y-14802000D01*
X21250072Y-11802000D01*
X21233008Y-11628746D01*
X21182472Y-11462150D01*
X21100405Y-11308614D01*
X20989962Y-11174038D01*
X20855386Y-11063595D01*
X20805975Y-11037184D01*
X20827512Y-11010942D01*
X20908423Y-10859567D01*
X20958248Y-10695316D01*
X20975072Y-10524500D01*
X20975072Y-10049500D01*
X20958248Y-9878684D01*
X20908423Y-9714433D01*
X20827512Y-9563058D01*
X20718623Y-9430377D01*
X20697000Y-9412631D01*
X20697000Y-9254046D01*
X20777512Y-9155942D01*
X20858423Y-9004567D01*
X20908248Y-8840316D01*
X20925072Y-8669500D01*
X20925072Y-8094500D01*
X20908248Y-7923684D01*
X20858423Y-7759433D01*
X20777512Y-7608058D01*
X20694575Y-7507000D01*
X20777512Y-7405942D01*
X20858423Y-7254567D01*
X20908248Y-7090316D01*
X20925072Y-6919500D01*
X20925072Y-6344500D01*
X20908248Y-6173684D01*
X20858423Y-6009433D01*
X20777512Y-5858058D01*
X20697000Y-5759954D01*
X20697000Y-5446369D01*
X20718623Y-5428623D01*
X20827512Y-5295942D01*
X20908423Y-5144567D01*
X20958248Y-4980316D01*
X20975072Y-4809500D01*
X20975072Y-4334500D01*
X20958248Y-4163684D01*
X20908423Y-3999433D01*
X20827512Y-3848058D01*
X20718623Y-3715377D01*
X20697000Y-3697631D01*
X20697000Y-3407059D01*
X20854252Y-3301987D01*
X21081987Y-3074252D01*
X21260918Y-2806463D01*
X21384168Y-2508912D01*
X21447000Y-2193033D01*
X21447000Y-1870967D01*
X21384168Y-1555088D01*
X21260918Y-1257537D01*
X21081987Y-989748D01*
X20854252Y-762013D01*
X20776409Y-710000D01*
X23420001Y-710000D01*
X23420000Y-26976000D01*
X710000Y-26976000D01*
X710000Y-24222967D01*
X2937000Y-24222967D01*
X2937000Y-24545033D01*
X2999832Y-24860912D01*
X3123082Y-25158463D01*
X3302013Y-25426252D01*
X3529748Y-25653987D01*
X3797537Y-25832918D01*
X4095088Y-25956168D01*
X4410967Y-26019000D01*
X4733033Y-26019000D01*
X5048912Y-25956168D01*
X5346463Y-25832918D01*
X5614252Y-25653987D01*
X5841987Y-25426252D01*
X6020918Y-25158463D01*
X6144168Y-24860912D01*
X6207000Y-24545033D01*
X6207000Y-24222967D01*
X10557000Y-24222967D01*
X10557000Y-24545033D01*
X10619832Y-24860912D01*
X10743082Y-25158463D01*
X10922013Y-25426252D01*
X11149748Y-25653987D01*
X11417537Y-25832918D01*
X11715088Y-25956168D01*
X12030967Y-26019000D01*
X12353033Y-26019000D01*
X12668912Y-25956168D01*
X12966463Y-25832918D01*
X13234252Y-25653987D01*
X13461987Y-25426252D01*
X13640918Y-25158463D01*
X13764168Y-24860912D01*
X13827000Y-24545033D01*
X13827000Y-24222967D01*
X18177000Y-24222967D01*
X18177000Y-24545033D01*
X18239832Y-24860912D01*
X18363082Y-25158463D01*
X18542013Y-25426252D01*
X18769748Y-25653987D01*
X19037537Y-25832918D01*
X19335088Y-25956168D01*
X19650967Y-26019000D01*
X19973033Y-26019000D01*
X20288912Y-25956168D01*
X20586463Y-25832918D01*
X20854252Y-25653987D01*
X21081987Y-25426252D01*
X21260918Y-25158463D01*
X21384168Y-24860912D01*
X21447000Y-24545033D01*
X21447000Y-24222967D01*
X21384168Y-23907088D01*
X21260918Y-23609537D01*
X21081987Y-23341748D01*
X20854252Y-23114013D01*
X20697000Y-23008941D01*
X20697000Y-22591369D01*
X20718623Y-22573623D01*
X20827512Y-22440942D01*
X20908423Y-22289567D01*
X20958248Y-22125316D01*
X20975072Y-21954500D01*
X20975072Y-21479500D01*
X20958248Y-21308684D01*
X20908423Y-21144433D01*
X20827512Y-20993058D01*
X20805975Y-20966816D01*
X20855386Y-20940405D01*
X20989962Y-20829962D01*
X21100405Y-20695386D01*
X21182472Y-20541850D01*
X21233008Y-20375254D01*
X21250072Y-20202000D01*
X21250072Y-17202000D01*
X21233008Y-17028746D01*
X21182472Y-16862150D01*
X21100405Y-16708614D01*
X20989962Y-16574038D01*
X20855386Y-16463595D01*
X20701850Y-16381528D01*
X20535254Y-16330992D01*
X20362000Y-16313928D01*
X19262000Y-16313928D01*
X19088746Y-16330992D01*
X18922150Y-16381528D01*
X18768614Y-16463595D01*
X18634038Y-16574038D01*
X18523595Y-16708614D01*
X18441528Y-16862150D01*
X18390992Y-17028746D01*
X18373928Y-17202000D01*
X18373928Y-20202000D01*
X18390992Y-20375254D01*
X18441528Y-20541850D01*
X18523595Y-20695386D01*
X18634038Y-20829962D01*
X18768614Y-20940405D01*
X18818025Y-20966816D01*
X18796488Y-20993058D01*
X18715577Y-21144433D01*
X18665752Y-21308684D01*
X18648928Y-21479500D01*
X18648928Y-21954500D01*
X18665752Y-22125316D01*
X18715577Y-22289567D01*
X18796488Y-22440942D01*
X18905377Y-22573623D01*
X18927000Y-22591369D01*
X18927000Y-23008940D01*
X18769748Y-23114013D01*
X18542013Y-23341748D01*
X18363082Y-23609537D01*
X18239832Y-23907088D01*
X18177000Y-24222967D01*
X13827000Y-24222967D01*
X13764168Y-23907088D01*
X13640918Y-23609537D01*
X13461987Y-23341748D01*
X13234252Y-23114013D01*
X13077000Y-23008941D01*
X13077000Y-22591369D01*
X13098623Y-22573623D01*
X13207512Y-22440942D01*
X13288423Y-22289567D01*
X13338248Y-22125316D01*
X13355072Y-21954500D01*
X13355072Y-21479500D01*
X13338248Y-21308684D01*
X13288423Y-21144433D01*
X13207512Y-20993058D01*
X13185975Y-20966816D01*
X13235386Y-20940405D01*
X13369962Y-20829962D01*
X13480405Y-20695386D01*
X13562472Y-20541850D01*
X13613008Y-20375254D01*
X13630072Y-20202000D01*
X13630072Y-17202000D01*
X13613008Y-17028746D01*
X13562472Y-16862150D01*
X13480405Y-16708614D01*
X13369962Y-16574038D01*
X13235386Y-16463595D01*
X13081850Y-16381528D01*
X12915254Y-16330992D01*
X12742000Y-16313928D01*
X11642000Y-16313928D01*
X11468746Y-16330992D01*
X11302150Y-16381528D01*
X11148614Y-16463595D01*
X11014038Y-16574038D01*
X10903595Y-16708614D01*
X10821528Y-16862150D01*
X10770992Y-17028746D01*
X10753928Y-17202000D01*
X10753928Y-20202000D01*
X10770992Y-20375254D01*
X10821528Y-20541850D01*
X10903595Y-20695386D01*
X11014038Y-20829962D01*
X11148614Y-20940405D01*
X11198025Y-20966816D01*
X11176488Y-20993058D01*
X11095577Y-21144433D01*
X11045752Y-21308684D01*
X11028928Y-21479500D01*
X11028928Y-21954500D01*
X11045752Y-22125316D01*
X11095577Y-22289567D01*
X11176488Y-22440942D01*
X11285377Y-22573623D01*
X11307000Y-22591369D01*
X11307000Y-23008940D01*
X11149748Y-23114013D01*
X10922013Y-23341748D01*
X10743082Y-23609537D01*
X10619832Y-23907088D01*
X10557000Y-24222967D01*
X6207000Y-24222967D01*
X6144168Y-23907088D01*
X6020918Y-23609537D01*
X5841987Y-23341748D01*
X5614252Y-23114013D01*
X5457000Y-23008941D01*
X5457000Y-22718369D01*
X5478623Y-22700623D01*
X5587512Y-22567942D01*
X5668423Y-22416567D01*
X5718248Y-22252316D01*
X5735072Y-22081500D01*
X5735072Y-21606500D01*
X5718248Y-21435684D01*
X5668423Y-21271433D01*
X5587512Y-21120058D01*
X5493529Y-21005539D01*
X5615386Y-20940405D01*
X5749962Y-20829962D01*
X5860405Y-20695386D01*
X5942472Y-20541850D01*
X5993008Y-20375254D01*
X6010072Y-20202000D01*
X6010072Y-17202000D01*
X5993008Y-17028746D01*
X5942472Y-16862150D01*
X5860405Y-16708614D01*
X5749962Y-16574038D01*
X5615386Y-16463595D01*
X5461850Y-16381528D01*
X5295254Y-16330992D01*
X5122000Y-16313928D01*
X4022000Y-16313928D01*
X3848746Y-16330992D01*
X3682150Y-16381528D01*
X3528614Y-16463595D01*
X3394038Y-16574038D01*
X3283595Y-16708614D01*
X3201528Y-16862150D01*
X3150992Y-17028746D01*
X3133928Y-17202000D01*
X3133928Y-20202000D01*
X3150992Y-20375254D01*
X3201528Y-20541850D01*
X3283595Y-20695386D01*
X3394038Y-20829962D01*
X3528614Y-20940405D01*
X3650471Y-21005539D01*
X3556488Y-21120058D01*
X3475577Y-21271433D01*
X3425752Y-21435684D01*
X3408928Y-21606500D01*
X3408928Y-22081500D01*
X3425752Y-22252316D01*
X3475577Y-22416567D01*
X3556488Y-22567942D01*
X3665377Y-22700623D01*
X3687001Y-22718369D01*
X3687001Y-23008940D01*
X3529748Y-23114013D01*
X3302013Y-23341748D01*
X3123082Y-23609537D01*
X2999832Y-23907088D01*
X2937000Y-24222967D01*
X710000Y-24222967D01*
X710000Y-710000D01*
X3607591Y-710000D01*
X3529748Y-762013D01*
M02*
