G04 #@! TF.GenerationSoftware,KiCad,Pcbnew,(5.1.5-0-10_14)*
G04 #@! TF.CreationDate,2020-07-09T21:36:47+03:00*
G04 #@! TF.ProjectId,miniRGBii,6d696e69-5247-4426-9969-2e6b69636164,rev?*
G04 #@! TF.SameCoordinates,Original*
G04 #@! TF.FileFunction,Legend,Top*
G04 #@! TF.FilePolarity,Positive*
%FSLAX46Y46*%
G04 Gerber Fmt 4.6, Leading zero omitted, Abs format (unit mm)*
G04 Created by KiCad (PCBNEW (5.1.5-0-10_14)) date 2020-07-09 21:36:47*
%MOMM*%
%LPD*%
G04 APERTURE LIST*
%ADD10C,0.120000*%
%ADD11C,0.150000*%
G04 APERTURE END LIST*
D10*
X18015000Y-24384000D02*
G75*
G03X18015000Y-24384000I-1251000J0D01*
G01*
X11488267Y-22227000D02*
X11145733Y-22227000D01*
X11488267Y-21207000D02*
X11145733Y-21207000D01*
X5823000Y-2032000D02*
G75*
G03X5823000Y-2032000I-1251000J0D01*
G01*
X21063000Y-2032000D02*
G75*
G03X21063000Y-2032000I-1251000J0D01*
G01*
X13443000Y-2032000D02*
G75*
G03X13443000Y-2032000I-1251000J0D01*
G01*
X21063000Y-24384000D02*
G75*
G03X21063000Y-24384000I-1251000J0D01*
G01*
X13443000Y-24384000D02*
G75*
G03X13443000Y-24384000I-1251000J0D01*
G01*
X5823000Y-24384000D02*
G75*
G03X5823000Y-24384000I-1251000J0D01*
G01*
X18765733Y-4062000D02*
X19108267Y-4062000D01*
X18765733Y-5082000D02*
X19108267Y-5082000D01*
X15602000Y-12592000D02*
X13252000Y-12592000D01*
X8782000Y-12592000D02*
X11132000Y-12592000D01*
X8782000Y-18347563D02*
X8782000Y-12592000D01*
X15602000Y-18347563D02*
X15602000Y-12592000D01*
X14537563Y-19412000D02*
X13252000Y-19412000D01*
X9846437Y-19412000D02*
X11132000Y-19412000D01*
X9846437Y-19412000D02*
X8782000Y-18347563D01*
X14537563Y-19412000D02*
X15602000Y-18347563D01*
X10344500Y-20439500D02*
X10344500Y-19652000D01*
X9950750Y-20045750D02*
X10738250Y-20045750D01*
X17570750Y-20045750D02*
X18358250Y-20045750D01*
X17964500Y-20439500D02*
X17964500Y-19652000D01*
X22157563Y-19412000D02*
X23222000Y-18347563D01*
X17466437Y-19412000D02*
X16402000Y-18347563D01*
X17466437Y-19412000D02*
X18752000Y-19412000D01*
X22157563Y-19412000D02*
X20872000Y-19412000D01*
X23222000Y-18347563D02*
X23222000Y-12592000D01*
X16402000Y-18347563D02*
X16402000Y-12592000D01*
X16402000Y-12592000D02*
X18752000Y-12592000D01*
X23222000Y-12592000D02*
X20872000Y-12592000D01*
X7982000Y-12592000D02*
X5632000Y-12592000D01*
X1162000Y-12592000D02*
X3512000Y-12592000D01*
X1162000Y-18347563D02*
X1162000Y-12592000D01*
X7982000Y-18347563D02*
X7982000Y-12592000D01*
X6917563Y-19412000D02*
X5632000Y-19412000D01*
X2226437Y-19412000D02*
X3512000Y-19412000D01*
X2226437Y-19412000D02*
X1162000Y-18347563D01*
X6917563Y-19412000D02*
X7982000Y-18347563D01*
X2724500Y-20439500D02*
X2724500Y-19652000D01*
X2330750Y-20045750D02*
X3118250Y-20045750D01*
X3525733Y-10797000D02*
X3868267Y-10797000D01*
X3525733Y-9777000D02*
X3868267Y-9777000D01*
X2157000Y-7678267D02*
X2157000Y-7335733D01*
X3177000Y-7678267D02*
X3177000Y-7335733D01*
X11145733Y-10797000D02*
X11488267Y-10797000D01*
X11145733Y-9777000D02*
X11488267Y-9777000D01*
X9777000Y-7678267D02*
X9777000Y-7335733D01*
X10797000Y-7678267D02*
X10797000Y-7335733D01*
X18765733Y-10797000D02*
X19108267Y-10797000D01*
X18765733Y-9777000D02*
X19108267Y-9777000D01*
X17397000Y-7678267D02*
X17397000Y-7335733D01*
X18417000Y-7678267D02*
X18417000Y-7335733D01*
X5082000Y-7335733D02*
X5082000Y-7678267D01*
X4062000Y-7335733D02*
X4062000Y-7678267D01*
X11682000Y-7335733D02*
X11682000Y-7678267D01*
X12702000Y-7335733D02*
X12702000Y-7678267D01*
X20322000Y-7335733D02*
X20322000Y-7678267D01*
X19302000Y-7335733D02*
X19302000Y-7678267D01*
X3525733Y-4062000D02*
X3868267Y-4062000D01*
X3525733Y-5082000D02*
X3868267Y-5082000D01*
X18765733Y-22227000D02*
X19108267Y-22227000D01*
X18765733Y-21207000D02*
X19108267Y-21207000D01*
X3868267Y-21334000D02*
X3525733Y-21334000D01*
X3868267Y-22354000D02*
X3525733Y-22354000D01*
X11145733Y-4062000D02*
X11488267Y-4062000D01*
X11145733Y-5082000D02*
X11488267Y-5082000D01*
D11*
X16002095Y-25916000D02*
X15906857Y-25868380D01*
X15764000Y-25868380D01*
X15621142Y-25916000D01*
X15525904Y-26011238D01*
X15478285Y-26106476D01*
X15430666Y-26296952D01*
X15430666Y-26439809D01*
X15478285Y-26630285D01*
X15525904Y-26725523D01*
X15621142Y-26820761D01*
X15764000Y-26868380D01*
X15859238Y-26868380D01*
X16002095Y-26820761D01*
X16049714Y-26773142D01*
X16049714Y-26439809D01*
X15859238Y-26439809D01*
X16478285Y-26868380D02*
X16478285Y-25868380D01*
X17049714Y-26868380D01*
X17049714Y-25868380D01*
X17525904Y-26868380D02*
X17525904Y-25868380D01*
X17764000Y-25868380D01*
X17906857Y-25916000D01*
X18002095Y-26011238D01*
X18049714Y-26106476D01*
X18097333Y-26296952D01*
X18097333Y-26439809D01*
X18049714Y-26630285D01*
X18002095Y-26725523D01*
X17906857Y-26820761D01*
X17764000Y-26868380D01*
X17525904Y-26868380D01*
X9596380Y-21724857D02*
X9120190Y-22058190D01*
X9596380Y-22296285D02*
X8596380Y-22296285D01*
X8596380Y-21915333D01*
X8644000Y-21820095D01*
X8691619Y-21772476D01*
X8786857Y-21724857D01*
X8929714Y-21724857D01*
X9024952Y-21772476D01*
X9072571Y-21820095D01*
X9120190Y-21915333D01*
X9120190Y-22296285D01*
X8596380Y-21391523D02*
X8596380Y-20772476D01*
X8977333Y-21105809D01*
X8977333Y-20962952D01*
X9024952Y-20867714D01*
X9072571Y-20820095D01*
X9167809Y-20772476D01*
X9405904Y-20772476D01*
X9501142Y-20820095D01*
X9548761Y-20867714D01*
X9596380Y-20962952D01*
X9596380Y-21248666D01*
X9548761Y-21343904D01*
X9501142Y-21391523D01*
X9596380Y-20296285D02*
X9596380Y-20105809D01*
X9548761Y-20010571D01*
X9501142Y-19962952D01*
X9358285Y-19867714D01*
X9167809Y-19820095D01*
X8786857Y-19820095D01*
X8691619Y-19867714D01*
X8644000Y-19915333D01*
X8596380Y-20010571D01*
X8596380Y-20201047D01*
X8644000Y-20296285D01*
X8691619Y-20343904D01*
X8786857Y-20391523D01*
X9024952Y-20391523D01*
X9120190Y-20343904D01*
X9167809Y-20296285D01*
X9215428Y-20201047D01*
X9215428Y-20010571D01*
X9167809Y-19915333D01*
X9120190Y-19867714D01*
X9024952Y-19820095D01*
X7088190Y-3801904D02*
X7564380Y-3801904D01*
X6564380Y-4135238D02*
X7088190Y-3801904D01*
X6564380Y-3468571D01*
X6564380Y-2944761D02*
X6564380Y-2754285D01*
X6612000Y-2659047D01*
X6707238Y-2563809D01*
X6897714Y-2516190D01*
X7231047Y-2516190D01*
X7421523Y-2563809D01*
X7516761Y-2659047D01*
X7564380Y-2754285D01*
X7564380Y-2944761D01*
X7516761Y-3040000D01*
X7421523Y-3135238D01*
X7231047Y-3182857D01*
X6897714Y-3182857D01*
X6707238Y-3135238D01*
X6612000Y-3040000D01*
X6564380Y-2944761D01*
X6897714Y-1659047D02*
X7564380Y-1659047D01*
X6897714Y-2087619D02*
X7421523Y-2087619D01*
X7516761Y-2040000D01*
X7564380Y-1944761D01*
X7564380Y-1801904D01*
X7516761Y-1706666D01*
X7469142Y-1659047D01*
X6897714Y-1325714D02*
X6897714Y-944761D01*
X6564380Y-1182857D02*
X7421523Y-1182857D01*
X7516761Y-1135238D01*
X7564380Y-1040000D01*
X7564380Y-944761D01*
X22804380Y-4881333D02*
X21804380Y-4881333D01*
X21804380Y-4500380D01*
X21852000Y-4405142D01*
X21899619Y-4357523D01*
X21994857Y-4309904D01*
X22137714Y-4309904D01*
X22232952Y-4357523D01*
X22280571Y-4405142D01*
X22328190Y-4500380D01*
X22328190Y-4881333D01*
X22804380Y-3881333D02*
X22137714Y-3881333D01*
X22328190Y-3881333D02*
X22232952Y-3833714D01*
X22185333Y-3786095D01*
X22137714Y-3690857D01*
X22137714Y-3595619D01*
X21804380Y-3071809D02*
X21804380Y-2881333D01*
X21852000Y-2786095D01*
X21947238Y-2690857D01*
X22137714Y-2643238D01*
X22471047Y-2643238D01*
X22661523Y-2690857D01*
X22756761Y-2786095D01*
X22804380Y-2881333D01*
X22804380Y-3071809D01*
X22756761Y-3167047D01*
X22661523Y-3262285D01*
X22471047Y-3309904D01*
X22137714Y-3309904D01*
X21947238Y-3262285D01*
X21852000Y-3167047D01*
X21804380Y-3071809D01*
X22137714Y-1786095D02*
X22804380Y-1786095D01*
X22137714Y-2214666D02*
X22661523Y-2214666D01*
X22756761Y-2167047D01*
X22804380Y-2071809D01*
X22804380Y-1928952D01*
X22756761Y-1833714D01*
X22709142Y-1786095D01*
X22137714Y-1452761D02*
X22137714Y-1071809D01*
X21804380Y-1309904D02*
X22661523Y-1309904D01*
X22756761Y-1262285D01*
X22804380Y-1167047D01*
X22804380Y-1071809D01*
X15184380Y-5024190D02*
X14184380Y-5024190D01*
X14184380Y-4643238D01*
X14232000Y-4548000D01*
X14279619Y-4500380D01*
X14374857Y-4452761D01*
X14517714Y-4452761D01*
X14612952Y-4500380D01*
X14660571Y-4548000D01*
X14708190Y-4643238D01*
X14708190Y-5024190D01*
X15184380Y-4024190D02*
X14184380Y-4024190D01*
X14565333Y-4024190D02*
X14517714Y-3928952D01*
X14517714Y-3738476D01*
X14565333Y-3643238D01*
X14612952Y-3595619D01*
X14708190Y-3548000D01*
X14993904Y-3548000D01*
X15089142Y-3595619D01*
X15136761Y-3643238D01*
X15184380Y-3738476D01*
X15184380Y-3928952D01*
X15136761Y-4024190D01*
X14184380Y-2928952D02*
X14184380Y-2738476D01*
X14232000Y-2643238D01*
X14327238Y-2548000D01*
X14517714Y-2500380D01*
X14851047Y-2500380D01*
X15041523Y-2548000D01*
X15136761Y-2643238D01*
X15184380Y-2738476D01*
X15184380Y-2928952D01*
X15136761Y-3024190D01*
X15041523Y-3119428D01*
X14851047Y-3167047D01*
X14517714Y-3167047D01*
X14327238Y-3119428D01*
X14232000Y-3024190D01*
X14184380Y-2928952D01*
X14517714Y-1643238D02*
X15184380Y-1643238D01*
X14517714Y-2071809D02*
X15041523Y-2071809D01*
X15136761Y-2024190D01*
X15184380Y-1928952D01*
X15184380Y-1786095D01*
X15136761Y-1690857D01*
X15089142Y-1643238D01*
X14517714Y-1309904D02*
X14517714Y-928952D01*
X14184380Y-1167047D02*
X15041523Y-1167047D01*
X15136761Y-1119428D01*
X15184380Y-1024190D01*
X15184380Y-928952D01*
X22010666Y-25947428D02*
X22010666Y-25471238D01*
X22296380Y-26042666D02*
X21296380Y-25709333D01*
X22296380Y-25376000D01*
X21296380Y-25185523D02*
X22296380Y-24852190D01*
X21296380Y-24518857D01*
X21772571Y-24185523D02*
X21772571Y-23852190D01*
X22296380Y-23709333D02*
X22296380Y-24185523D01*
X21296380Y-24185523D01*
X21296380Y-23709333D01*
X21296380Y-22804571D02*
X21296380Y-23280761D01*
X21772571Y-23328380D01*
X21724952Y-23280761D01*
X21677333Y-23185523D01*
X21677333Y-22947428D01*
X21724952Y-22852190D01*
X21772571Y-22804571D01*
X21867809Y-22756952D01*
X22105904Y-22756952D01*
X22201142Y-22804571D01*
X22248761Y-22852190D01*
X22296380Y-22947428D01*
X22296380Y-23185523D01*
X22248761Y-23280761D01*
X22201142Y-23328380D01*
X22296380Y-22280761D02*
X22296380Y-22090285D01*
X22248761Y-21995047D01*
X22201142Y-21947428D01*
X22058285Y-21852190D01*
X21867809Y-21804571D01*
X21486857Y-21804571D01*
X21391619Y-21852190D01*
X21344000Y-21899809D01*
X21296380Y-21995047D01*
X21296380Y-22185523D01*
X21344000Y-22280761D01*
X21391619Y-22328380D01*
X21486857Y-22376000D01*
X21724952Y-22376000D01*
X21820190Y-22328380D01*
X21867809Y-22280761D01*
X21915428Y-22185523D01*
X21915428Y-21995047D01*
X21867809Y-21899809D01*
X21820190Y-21852190D01*
X21724952Y-21804571D01*
X14390666Y-25947428D02*
X14390666Y-25471238D01*
X14676380Y-26042666D02*
X13676380Y-25709333D01*
X14676380Y-25376000D01*
X13676380Y-25185523D02*
X14676380Y-24852190D01*
X13676380Y-24518857D01*
X14152571Y-24185523D02*
X14152571Y-23852190D01*
X14676380Y-23709333D02*
X14676380Y-24185523D01*
X13676380Y-24185523D01*
X13676380Y-23709333D01*
X13676380Y-22804571D02*
X13676380Y-23280761D01*
X14152571Y-23328380D01*
X14104952Y-23280761D01*
X14057333Y-23185523D01*
X14057333Y-22947428D01*
X14104952Y-22852190D01*
X14152571Y-22804571D01*
X14247809Y-22756952D01*
X14485904Y-22756952D01*
X14581142Y-22804571D01*
X14628761Y-22852190D01*
X14676380Y-22947428D01*
X14676380Y-23185523D01*
X14628761Y-23280761D01*
X14581142Y-23328380D01*
X13676380Y-22423619D02*
X13676380Y-21756952D01*
X14676380Y-22185523D01*
X6770666Y-25947428D02*
X6770666Y-25471238D01*
X7056380Y-26042666D02*
X6056380Y-25709333D01*
X7056380Y-25376000D01*
X6056380Y-25185523D02*
X7056380Y-24852190D01*
X6056380Y-24518857D01*
X6532571Y-24185523D02*
X6532571Y-23852190D01*
X7056380Y-23709333D02*
X7056380Y-24185523D01*
X6056380Y-24185523D01*
X6056380Y-23709333D01*
X6056380Y-22804571D02*
X6056380Y-23280761D01*
X6532571Y-23328380D01*
X6484952Y-23280761D01*
X6437333Y-23185523D01*
X6437333Y-22947428D01*
X6484952Y-22852190D01*
X6532571Y-22804571D01*
X6627809Y-22756952D01*
X6865904Y-22756952D01*
X6961142Y-22804571D01*
X7008761Y-22852190D01*
X7056380Y-22947428D01*
X7056380Y-23185523D01*
X7008761Y-23280761D01*
X6961142Y-23328380D01*
X6389714Y-21899809D02*
X7056380Y-21899809D01*
X6008761Y-22137904D02*
X6723047Y-22376000D01*
X6723047Y-21756952D01*
X16216380Y-5381523D02*
X17216380Y-5048190D01*
X16216380Y-4714857D01*
X17216380Y-3857714D02*
X17216380Y-4429142D01*
X17216380Y-4143428D02*
X16216380Y-4143428D01*
X16359238Y-4238666D01*
X16454476Y-4333904D01*
X16502095Y-4429142D01*
X10009142Y-16644857D02*
X10056761Y-16692476D01*
X10104380Y-16835333D01*
X10104380Y-16930571D01*
X10056761Y-17073428D01*
X9961523Y-17168666D01*
X9866285Y-17216285D01*
X9675809Y-17263904D01*
X9532952Y-17263904D01*
X9342476Y-17216285D01*
X9247238Y-17168666D01*
X9152000Y-17073428D01*
X9104380Y-16930571D01*
X9104380Y-16835333D01*
X9152000Y-16692476D01*
X9199619Y-16644857D01*
X9104380Y-15787714D02*
X9104380Y-15978190D01*
X9152000Y-16073428D01*
X9199619Y-16121047D01*
X9342476Y-16216285D01*
X9532952Y-16263904D01*
X9913904Y-16263904D01*
X10009142Y-16216285D01*
X10056761Y-16168666D01*
X10104380Y-16073428D01*
X10104380Y-15882952D01*
X10056761Y-15787714D01*
X10009142Y-15740095D01*
X9913904Y-15692476D01*
X9675809Y-15692476D01*
X9580571Y-15740095D01*
X9532952Y-15787714D01*
X9485333Y-15882952D01*
X9485333Y-16073428D01*
X9532952Y-16168666D01*
X9580571Y-16216285D01*
X9675809Y-16263904D01*
X9437714Y-14835333D02*
X10104380Y-14835333D01*
X9056761Y-15073428D02*
X9771047Y-15311523D01*
X9771047Y-14692476D01*
X17629142Y-16644857D02*
X17676761Y-16692476D01*
X17724380Y-16835333D01*
X17724380Y-16930571D01*
X17676761Y-17073428D01*
X17581523Y-17168666D01*
X17486285Y-17216285D01*
X17295809Y-17263904D01*
X17152952Y-17263904D01*
X16962476Y-17216285D01*
X16867238Y-17168666D01*
X16772000Y-17073428D01*
X16724380Y-16930571D01*
X16724380Y-16835333D01*
X16772000Y-16692476D01*
X16819619Y-16644857D01*
X16724380Y-15787714D02*
X16724380Y-15978190D01*
X16772000Y-16073428D01*
X16819619Y-16121047D01*
X16962476Y-16216285D01*
X17152952Y-16263904D01*
X17533904Y-16263904D01*
X17629142Y-16216285D01*
X17676761Y-16168666D01*
X17724380Y-16073428D01*
X17724380Y-15882952D01*
X17676761Y-15787714D01*
X17629142Y-15740095D01*
X17533904Y-15692476D01*
X17295809Y-15692476D01*
X17200571Y-15740095D01*
X17152952Y-15787714D01*
X17105333Y-15882952D01*
X17105333Y-16073428D01*
X17152952Y-16168666D01*
X17200571Y-16216285D01*
X17295809Y-16263904D01*
X17724380Y-15216285D02*
X17724380Y-15025809D01*
X17676761Y-14930571D01*
X17629142Y-14882952D01*
X17486285Y-14787714D01*
X17295809Y-14740095D01*
X16914857Y-14740095D01*
X16819619Y-14787714D01*
X16772000Y-14835333D01*
X16724380Y-14930571D01*
X16724380Y-15121047D01*
X16772000Y-15216285D01*
X16819619Y-15263904D01*
X16914857Y-15311523D01*
X17152952Y-15311523D01*
X17248190Y-15263904D01*
X17295809Y-15216285D01*
X17343428Y-15121047D01*
X17343428Y-14930571D01*
X17295809Y-14835333D01*
X17248190Y-14787714D01*
X17152952Y-14740095D01*
X2389142Y-16644857D02*
X2436761Y-16692476D01*
X2484380Y-16835333D01*
X2484380Y-16930571D01*
X2436761Y-17073428D01*
X2341523Y-17168666D01*
X2246285Y-17216285D01*
X2055809Y-17263904D01*
X1912952Y-17263904D01*
X1722476Y-17216285D01*
X1627238Y-17168666D01*
X1532000Y-17073428D01*
X1484380Y-16930571D01*
X1484380Y-16835333D01*
X1532000Y-16692476D01*
X1579619Y-16644857D01*
X1912952Y-16073428D02*
X1865333Y-16168666D01*
X1817714Y-16216285D01*
X1722476Y-16263904D01*
X1674857Y-16263904D01*
X1579619Y-16216285D01*
X1532000Y-16168666D01*
X1484380Y-16073428D01*
X1484380Y-15882952D01*
X1532000Y-15787714D01*
X1579619Y-15740095D01*
X1674857Y-15692476D01*
X1722476Y-15692476D01*
X1817714Y-15740095D01*
X1865333Y-15787714D01*
X1912952Y-15882952D01*
X1912952Y-16073428D01*
X1960571Y-16168666D01*
X2008190Y-16216285D01*
X2103428Y-16263904D01*
X2293904Y-16263904D01*
X2389142Y-16216285D01*
X2436761Y-16168666D01*
X2484380Y-16073428D01*
X2484380Y-15882952D01*
X2436761Y-15787714D01*
X2389142Y-15740095D01*
X2293904Y-15692476D01*
X2103428Y-15692476D01*
X2008190Y-15740095D01*
X1960571Y-15787714D01*
X1912952Y-15882952D01*
X1817714Y-14835333D02*
X2484380Y-14835333D01*
X1436761Y-15073428D02*
X2151047Y-15311523D01*
X2151047Y-14692476D01*
X1754142Y-11564857D02*
X1801761Y-11612476D01*
X1849380Y-11755333D01*
X1849380Y-11850571D01*
X1801761Y-11993428D01*
X1706523Y-12088666D01*
X1611285Y-12136285D01*
X1420809Y-12183904D01*
X1277952Y-12183904D01*
X1087476Y-12136285D01*
X992238Y-12088666D01*
X897000Y-11993428D01*
X849380Y-11850571D01*
X849380Y-11755333D01*
X897000Y-11612476D01*
X944619Y-11564857D01*
X1277952Y-10993428D02*
X1230333Y-11088666D01*
X1182714Y-11136285D01*
X1087476Y-11183904D01*
X1039857Y-11183904D01*
X944619Y-11136285D01*
X897000Y-11088666D01*
X849380Y-10993428D01*
X849380Y-10802952D01*
X897000Y-10707714D01*
X944619Y-10660095D01*
X1039857Y-10612476D01*
X1087476Y-10612476D01*
X1182714Y-10660095D01*
X1230333Y-10707714D01*
X1277952Y-10802952D01*
X1277952Y-10993428D01*
X1325571Y-11088666D01*
X1373190Y-11136285D01*
X1468428Y-11183904D01*
X1658904Y-11183904D01*
X1754142Y-11136285D01*
X1801761Y-11088666D01*
X1849380Y-10993428D01*
X1849380Y-10802952D01*
X1801761Y-10707714D01*
X1754142Y-10660095D01*
X1658904Y-10612476D01*
X1468428Y-10612476D01*
X1373190Y-10660095D01*
X1325571Y-10707714D01*
X1277952Y-10802952D01*
X849380Y-9707714D02*
X849380Y-10183904D01*
X1325571Y-10231523D01*
X1277952Y-10183904D01*
X1230333Y-10088666D01*
X1230333Y-9850571D01*
X1277952Y-9755333D01*
X1325571Y-9707714D01*
X1420809Y-9660095D01*
X1658904Y-9660095D01*
X1754142Y-9707714D01*
X1801761Y-9755333D01*
X1849380Y-9850571D01*
X1849380Y-10088666D01*
X1801761Y-10183904D01*
X1754142Y-10231523D01*
X1754142Y-7754857D02*
X1801761Y-7802476D01*
X1849380Y-7945333D01*
X1849380Y-8040571D01*
X1801761Y-8183428D01*
X1706523Y-8278666D01*
X1611285Y-8326285D01*
X1420809Y-8373904D01*
X1277952Y-8373904D01*
X1087476Y-8326285D01*
X992238Y-8278666D01*
X897000Y-8183428D01*
X849380Y-8040571D01*
X849380Y-7945333D01*
X897000Y-7802476D01*
X944619Y-7754857D01*
X1277952Y-7183428D02*
X1230333Y-7278666D01*
X1182714Y-7326285D01*
X1087476Y-7373904D01*
X1039857Y-7373904D01*
X944619Y-7326285D01*
X897000Y-7278666D01*
X849380Y-7183428D01*
X849380Y-6992952D01*
X897000Y-6897714D01*
X944619Y-6850095D01*
X1039857Y-6802476D01*
X1087476Y-6802476D01*
X1182714Y-6850095D01*
X1230333Y-6897714D01*
X1277952Y-6992952D01*
X1277952Y-7183428D01*
X1325571Y-7278666D01*
X1373190Y-7326285D01*
X1468428Y-7373904D01*
X1658904Y-7373904D01*
X1754142Y-7326285D01*
X1801761Y-7278666D01*
X1849380Y-7183428D01*
X1849380Y-6992952D01*
X1801761Y-6897714D01*
X1754142Y-6850095D01*
X1658904Y-6802476D01*
X1468428Y-6802476D01*
X1373190Y-6850095D01*
X1325571Y-6897714D01*
X1277952Y-6992952D01*
X849380Y-6469142D02*
X849380Y-5850095D01*
X1230333Y-6183428D01*
X1230333Y-6040571D01*
X1277952Y-5945333D01*
X1325571Y-5897714D01*
X1420809Y-5850095D01*
X1658904Y-5850095D01*
X1754142Y-5897714D01*
X1801761Y-5945333D01*
X1849380Y-6040571D01*
X1849380Y-6326285D01*
X1801761Y-6421523D01*
X1754142Y-6469142D01*
X9374142Y-11564857D02*
X9421761Y-11612476D01*
X9469380Y-11755333D01*
X9469380Y-11850571D01*
X9421761Y-11993428D01*
X9326523Y-12088666D01*
X9231285Y-12136285D01*
X9040809Y-12183904D01*
X8897952Y-12183904D01*
X8707476Y-12136285D01*
X8612238Y-12088666D01*
X8517000Y-11993428D01*
X8469380Y-11850571D01*
X8469380Y-11755333D01*
X8517000Y-11612476D01*
X8564619Y-11564857D01*
X8469380Y-11231523D02*
X8469380Y-10564857D01*
X9469380Y-10993428D01*
X8897952Y-10041047D02*
X8850333Y-10136285D01*
X8802714Y-10183904D01*
X8707476Y-10231523D01*
X8659857Y-10231523D01*
X8564619Y-10183904D01*
X8517000Y-10136285D01*
X8469380Y-10041047D01*
X8469380Y-9850571D01*
X8517000Y-9755333D01*
X8564619Y-9707714D01*
X8659857Y-9660095D01*
X8707476Y-9660095D01*
X8802714Y-9707714D01*
X8850333Y-9755333D01*
X8897952Y-9850571D01*
X8897952Y-10041047D01*
X8945571Y-10136285D01*
X8993190Y-10183904D01*
X9088428Y-10231523D01*
X9278904Y-10231523D01*
X9374142Y-10183904D01*
X9421761Y-10136285D01*
X9469380Y-10041047D01*
X9469380Y-9850571D01*
X9421761Y-9755333D01*
X9374142Y-9707714D01*
X9278904Y-9660095D01*
X9088428Y-9660095D01*
X8993190Y-9707714D01*
X8945571Y-9755333D01*
X8897952Y-9850571D01*
X9374142Y-7754857D02*
X9421761Y-7802476D01*
X9469380Y-7945333D01*
X9469380Y-8040571D01*
X9421761Y-8183428D01*
X9326523Y-8278666D01*
X9231285Y-8326285D01*
X9040809Y-8373904D01*
X8897952Y-8373904D01*
X8707476Y-8326285D01*
X8612238Y-8278666D01*
X8517000Y-8183428D01*
X8469380Y-8040571D01*
X8469380Y-7945333D01*
X8517000Y-7802476D01*
X8564619Y-7754857D01*
X8469380Y-7421523D02*
X8469380Y-6754857D01*
X9469380Y-7183428D01*
X8802714Y-5945333D02*
X9469380Y-5945333D01*
X8421761Y-6183428D02*
X9136047Y-6421523D01*
X9136047Y-5802476D01*
X16994142Y-11564857D02*
X17041761Y-11612476D01*
X17089380Y-11755333D01*
X17089380Y-11850571D01*
X17041761Y-11993428D01*
X16946523Y-12088666D01*
X16851285Y-12136285D01*
X16660809Y-12183904D01*
X16517952Y-12183904D01*
X16327476Y-12136285D01*
X16232238Y-12088666D01*
X16137000Y-11993428D01*
X16089380Y-11850571D01*
X16089380Y-11755333D01*
X16137000Y-11612476D01*
X16184619Y-11564857D01*
X16089380Y-11231523D02*
X16089380Y-10564857D01*
X17089380Y-10993428D01*
X16184619Y-10231523D02*
X16137000Y-10183904D01*
X16089380Y-10088666D01*
X16089380Y-9850571D01*
X16137000Y-9755333D01*
X16184619Y-9707714D01*
X16279857Y-9660095D01*
X16375095Y-9660095D01*
X16517952Y-9707714D01*
X17089380Y-10279142D01*
X17089380Y-9660095D01*
X16994142Y-7754857D02*
X17041761Y-7802476D01*
X17089380Y-7945333D01*
X17089380Y-8040571D01*
X17041761Y-8183428D01*
X16946523Y-8278666D01*
X16851285Y-8326285D01*
X16660809Y-8373904D01*
X16517952Y-8373904D01*
X16327476Y-8326285D01*
X16232238Y-8278666D01*
X16137000Y-8183428D01*
X16089380Y-8040571D01*
X16089380Y-7945333D01*
X16137000Y-7802476D01*
X16184619Y-7754857D01*
X16089380Y-6897714D02*
X16089380Y-7088190D01*
X16137000Y-7183428D01*
X16184619Y-7231047D01*
X16327476Y-7326285D01*
X16517952Y-7373904D01*
X16898904Y-7373904D01*
X16994142Y-7326285D01*
X17041761Y-7278666D01*
X17089380Y-7183428D01*
X17089380Y-6992952D01*
X17041761Y-6897714D01*
X16994142Y-6850095D01*
X16898904Y-6802476D01*
X16660809Y-6802476D01*
X16565571Y-6850095D01*
X16517952Y-6897714D01*
X16470333Y-6992952D01*
X16470333Y-7183428D01*
X16517952Y-7278666D01*
X16565571Y-7326285D01*
X16660809Y-7373904D01*
X16089380Y-5945333D02*
X16089380Y-6135809D01*
X16137000Y-6231047D01*
X16184619Y-6278666D01*
X16327476Y-6373904D01*
X16517952Y-6421523D01*
X16898904Y-6421523D01*
X16994142Y-6373904D01*
X17041761Y-6326285D01*
X17089380Y-6231047D01*
X17089380Y-6040571D01*
X17041761Y-5945333D01*
X16994142Y-5897714D01*
X16898904Y-5850095D01*
X16660809Y-5850095D01*
X16565571Y-5897714D01*
X16517952Y-5945333D01*
X16470333Y-6040571D01*
X16470333Y-6231047D01*
X16517952Y-6326285D01*
X16565571Y-6373904D01*
X16660809Y-6421523D01*
X5770571Y-9199380D02*
X5770571Y-9532714D01*
X6294380Y-9532714D02*
X5294380Y-9532714D01*
X5294380Y-9056523D01*
X6294380Y-8675571D02*
X5294380Y-8675571D01*
X6294380Y-7723190D02*
X6294380Y-8199380D01*
X5294380Y-8199380D01*
X6294380Y-6866047D02*
X6294380Y-7437476D01*
X6294380Y-7151761D02*
X5294380Y-7151761D01*
X5437238Y-7247000D01*
X5532476Y-7342238D01*
X5580095Y-7437476D01*
X5294380Y-6532714D02*
X5294380Y-5866047D01*
X6294380Y-6294619D01*
X13390571Y-9199380D02*
X13390571Y-9532714D01*
X13914380Y-9532714D02*
X12914380Y-9532714D01*
X12914380Y-9056523D01*
X13914380Y-8675571D02*
X12914380Y-8675571D01*
X13914380Y-7723190D02*
X13914380Y-8199380D01*
X12914380Y-8199380D01*
X13914380Y-6866047D02*
X13914380Y-7437476D01*
X13914380Y-7151761D02*
X12914380Y-7151761D01*
X13057238Y-7247000D01*
X13152476Y-7342238D01*
X13200095Y-7437476D01*
X12914380Y-6008904D02*
X12914380Y-6199380D01*
X12962000Y-6294619D01*
X13009619Y-6342238D01*
X13152476Y-6437476D01*
X13342952Y-6485095D01*
X13723904Y-6485095D01*
X13819142Y-6437476D01*
X13866761Y-6389857D01*
X13914380Y-6294619D01*
X13914380Y-6104142D01*
X13866761Y-6008904D01*
X13819142Y-5961285D01*
X13723904Y-5913666D01*
X13485809Y-5913666D01*
X13390571Y-5961285D01*
X13342952Y-6008904D01*
X13295333Y-6104142D01*
X13295333Y-6294619D01*
X13342952Y-6389857D01*
X13390571Y-6437476D01*
X13485809Y-6485095D01*
X21010571Y-9199380D02*
X21010571Y-9532714D01*
X21534380Y-9532714D02*
X20534380Y-9532714D01*
X20534380Y-9056523D01*
X21534380Y-8675571D02*
X20534380Y-8675571D01*
X21534380Y-7723190D02*
X21534380Y-8199380D01*
X20534380Y-8199380D01*
X21534380Y-6866047D02*
X21534380Y-7437476D01*
X21534380Y-7151761D02*
X20534380Y-7151761D01*
X20677238Y-7247000D01*
X20772476Y-7342238D01*
X20820095Y-7437476D01*
X20534380Y-5961285D02*
X20534380Y-6437476D01*
X21010571Y-6485095D01*
X20962952Y-6437476D01*
X20915333Y-6342238D01*
X20915333Y-6104142D01*
X20962952Y-6008904D01*
X21010571Y-5961285D01*
X21105809Y-5913666D01*
X21343904Y-5913666D01*
X21439142Y-5961285D01*
X21486761Y-6008904D01*
X21534380Y-6104142D01*
X21534380Y-6342238D01*
X21486761Y-6437476D01*
X21439142Y-6485095D01*
X976380Y-5381523D02*
X1976380Y-5048190D01*
X976380Y-4714857D01*
X976380Y-4476761D02*
X976380Y-3857714D01*
X1357333Y-4191047D01*
X1357333Y-4048190D01*
X1404952Y-3952952D01*
X1452571Y-3905333D01*
X1547809Y-3857714D01*
X1785904Y-3857714D01*
X1881142Y-3905333D01*
X1928761Y-3952952D01*
X1976380Y-4048190D01*
X1976380Y-4333904D01*
X1928761Y-4429142D01*
X1881142Y-4476761D01*
X17216380Y-21724857D02*
X16740190Y-22058190D01*
X17216380Y-22296285D02*
X16216380Y-22296285D01*
X16216380Y-21915333D01*
X16264000Y-21820095D01*
X16311619Y-21772476D01*
X16406857Y-21724857D01*
X16549714Y-21724857D01*
X16644952Y-21772476D01*
X16692571Y-21820095D01*
X16740190Y-21915333D01*
X16740190Y-22296285D01*
X16216380Y-21391523D02*
X16216380Y-20772476D01*
X16597333Y-21105809D01*
X16597333Y-20962952D01*
X16644952Y-20867714D01*
X16692571Y-20820095D01*
X16787809Y-20772476D01*
X17025904Y-20772476D01*
X17121142Y-20820095D01*
X17168761Y-20867714D01*
X17216380Y-20962952D01*
X17216380Y-21248666D01*
X17168761Y-21343904D01*
X17121142Y-21391523D01*
X16216380Y-20439142D02*
X16216380Y-19772476D01*
X17216380Y-20201047D01*
X1976380Y-21978857D02*
X1500190Y-22312190D01*
X1976380Y-22550285D02*
X976380Y-22550285D01*
X976380Y-22169333D01*
X1024000Y-22074095D01*
X1071619Y-22026476D01*
X1166857Y-21978857D01*
X1309714Y-21978857D01*
X1404952Y-22026476D01*
X1452571Y-22074095D01*
X1500190Y-22169333D01*
X1500190Y-22550285D01*
X1309714Y-21121714D02*
X1976380Y-21121714D01*
X928761Y-21359809D02*
X1643047Y-21597904D01*
X1643047Y-20978857D01*
X976380Y-20407428D02*
X976380Y-20312190D01*
X1024000Y-20216952D01*
X1071619Y-20169333D01*
X1166857Y-20121714D01*
X1357333Y-20074095D01*
X1595428Y-20074095D01*
X1785904Y-20121714D01*
X1881142Y-20169333D01*
X1928761Y-20216952D01*
X1976380Y-20312190D01*
X1976380Y-20407428D01*
X1928761Y-20502666D01*
X1881142Y-20550285D01*
X1785904Y-20597904D01*
X1595428Y-20645523D01*
X1357333Y-20645523D01*
X1166857Y-20597904D01*
X1071619Y-20550285D01*
X1024000Y-20502666D01*
X976380Y-20407428D01*
X8596380Y-5381523D02*
X9596380Y-5048190D01*
X8596380Y-4714857D01*
X8691619Y-4429142D02*
X8644000Y-4381523D01*
X8596380Y-4286285D01*
X8596380Y-4048190D01*
X8644000Y-3952952D01*
X8691619Y-3905333D01*
X8786857Y-3857714D01*
X8882095Y-3857714D01*
X9024952Y-3905333D01*
X9596380Y-4476761D01*
X9596380Y-3857714D01*
M02*
