G04 #@! TF.GenerationSoftware,KiCad,Pcbnew,(5.1.5-0-10_14)*
G04 #@! TF.CreationDate,2020-08-30T00:05:12+03:00*
G04 #@! TF.ProjectId,miniRGBii,6d696e69-5247-4426-9969-2e6b69636164,rev?*
G04 #@! TF.SameCoordinates,Original*
G04 #@! TF.FileFunction,Copper,L2,Bot*
G04 #@! TF.FilePolarity,Positive*
%FSLAX46Y46*%
G04 Gerber Fmt 4.6, Leading zero omitted, Abs format (unit mm)*
G04 Created by KiCad (PCBNEW (5.1.5-0-10_14)) date 2020-08-30 00:05:12*
%MOMM*%
%LPD*%
G04 APERTURE LIST*
%ADD10C,0.800000*%
%ADD11C,0.300000*%
G04 APERTURE END LIST*
D10*
X200100000Y-62700000D03*
X207400000Y-61000000D03*
X205100000Y-67900000D03*
X207619600Y-66700400D03*
X202600000Y-57700000D03*
X204200000Y-63900000D03*
X184400000Y-54800000D03*
X189000000Y-55800000D03*
X194500000Y-55800000D03*
X204190953Y-65790953D03*
X204200000Y-67900000D03*
X232100000Y-62700000D03*
X264100000Y-62700000D03*
X296100000Y-62700000D03*
X200100000Y-79700000D03*
X232100000Y-79700000D03*
X264100000Y-79700000D03*
X296100000Y-79700000D03*
X200100000Y-96700000D03*
X232100000Y-96700000D03*
X264100000Y-96700000D03*
X296100000Y-96700000D03*
X200100000Y-113700000D03*
X232100000Y-113700000D03*
X264100000Y-113700000D03*
X296100000Y-113700000D03*
X200100000Y-130700000D03*
X232100000Y-130700000D03*
X264100000Y-130700000D03*
X296100000Y-130700000D03*
X239400000Y-61000000D03*
X271400000Y-61000000D03*
X303400000Y-61000000D03*
X207400000Y-78000000D03*
X239400000Y-78000000D03*
X271400000Y-78000000D03*
X303400000Y-78000000D03*
X207400000Y-95000000D03*
X239400000Y-95000000D03*
X271400000Y-95000000D03*
X303400000Y-95000000D03*
X207400000Y-112000000D03*
X239400000Y-112000000D03*
X271400000Y-112000000D03*
X303400000Y-112000000D03*
X207400000Y-129000000D03*
X239400000Y-129000000D03*
X271400000Y-129000000D03*
X303400000Y-129000000D03*
X237100000Y-67900000D03*
X269100000Y-67900000D03*
X301100000Y-67900000D03*
X205100000Y-84900000D03*
X237100000Y-84900000D03*
X269100000Y-84900000D03*
X301100000Y-84900000D03*
X205100000Y-101900000D03*
X237100000Y-101900000D03*
X269100000Y-101900000D03*
X301100000Y-101900000D03*
X205100000Y-118900000D03*
X237100000Y-118900000D03*
X269100000Y-118900000D03*
X301100000Y-118900000D03*
X205100000Y-135900000D03*
X237100000Y-135900000D03*
X269100000Y-135900000D03*
X301100000Y-135900000D03*
X239619600Y-66700400D03*
X271619600Y-66700400D03*
X303619600Y-66700400D03*
X207619600Y-83700400D03*
X239619600Y-83700400D03*
X271619600Y-83700400D03*
X303619600Y-83700400D03*
X207619600Y-100700400D03*
X239619600Y-100700400D03*
X271619600Y-100700400D03*
X303619600Y-100700400D03*
X207619600Y-117700400D03*
X239619600Y-117700400D03*
X271619600Y-117700400D03*
X303619600Y-117700400D03*
X207619600Y-134700400D03*
X239619600Y-134700400D03*
X271619600Y-134700400D03*
X303619600Y-134700400D03*
X234600000Y-57700000D03*
X266600000Y-57700000D03*
X298600000Y-57700000D03*
X202600000Y-74700000D03*
X234600000Y-74700000D03*
X266600000Y-74700000D03*
X298600000Y-74700000D03*
X202600000Y-91700000D03*
X234600000Y-91700000D03*
X266600000Y-91700000D03*
X298600000Y-91700000D03*
X202600000Y-108700000D03*
X234600000Y-108700000D03*
X266600000Y-108700000D03*
X298600000Y-108700000D03*
X202600000Y-125700000D03*
X234600000Y-125700000D03*
X266600000Y-125700000D03*
X298600000Y-125700000D03*
X236200000Y-63900000D03*
X268200000Y-63900000D03*
X300200000Y-63900000D03*
X204200000Y-80900000D03*
X236200000Y-80900000D03*
X268200000Y-80900000D03*
X300200000Y-80900000D03*
X204200000Y-97900000D03*
X236200000Y-97900000D03*
X268200000Y-97900000D03*
X300200000Y-97900000D03*
X204200000Y-114900000D03*
X236200000Y-114900000D03*
X268200000Y-114900000D03*
X300200000Y-114900000D03*
X204200000Y-131900000D03*
X236200000Y-131900000D03*
X268200000Y-131900000D03*
X300200000Y-131900000D03*
X216400000Y-54800000D03*
X248400000Y-54800000D03*
X280400000Y-54800000D03*
X184400000Y-71800000D03*
X216400000Y-71800000D03*
X248400000Y-71800000D03*
X280400000Y-71800000D03*
X184400000Y-88800000D03*
X216400000Y-88800000D03*
X248400000Y-88800000D03*
X280400000Y-88800000D03*
X184400000Y-105800000D03*
X216400000Y-105800000D03*
X248400000Y-105800000D03*
X280400000Y-105800000D03*
X184400000Y-122800000D03*
X216400000Y-122800000D03*
X248400000Y-122800000D03*
X280400000Y-122800000D03*
X221000000Y-55800000D03*
X253000000Y-55800000D03*
X285000000Y-55800000D03*
X189000000Y-72800000D03*
X221000000Y-72800000D03*
X253000000Y-72800000D03*
X285000000Y-72800000D03*
X189000000Y-89800000D03*
X221000000Y-89800000D03*
X253000000Y-89800000D03*
X285000000Y-89800000D03*
X189000000Y-106800000D03*
X221000000Y-106800000D03*
X253000000Y-106800000D03*
X285000000Y-106800000D03*
X189000000Y-123800000D03*
X221000000Y-123800000D03*
X253000000Y-123800000D03*
X285000000Y-123800000D03*
X226500000Y-55800000D03*
X258500000Y-55800000D03*
X290500000Y-55800000D03*
X194500000Y-72800000D03*
X226500000Y-72800000D03*
X258500000Y-72800000D03*
X290500000Y-72800000D03*
X194500000Y-89800000D03*
X226500000Y-89800000D03*
X258500000Y-89800000D03*
X290500000Y-89800000D03*
X194500000Y-106800000D03*
X226500000Y-106800000D03*
X258500000Y-106800000D03*
X290500000Y-106800000D03*
X194500000Y-123800000D03*
X226500000Y-123800000D03*
X258500000Y-123800000D03*
X290500000Y-123800000D03*
X236190953Y-65790953D03*
X268190953Y-65790953D03*
X300190953Y-65790953D03*
X204190953Y-82790953D03*
X236190953Y-82790953D03*
X268190953Y-82790953D03*
X300190953Y-82790953D03*
X204190953Y-99790953D03*
X236190953Y-99790953D03*
X268190953Y-99790953D03*
X300190953Y-99790953D03*
X204190953Y-116790953D03*
X236190953Y-116790953D03*
X268190953Y-116790953D03*
X300190953Y-116790953D03*
X204190953Y-133790953D03*
X236190953Y-133790953D03*
X268190953Y-133790953D03*
X300190953Y-133790953D03*
X236200000Y-67900000D03*
X268200000Y-67900000D03*
X300200000Y-67900000D03*
X204200000Y-84900000D03*
X236200000Y-84900000D03*
X268200000Y-84900000D03*
X300200000Y-84900000D03*
X204200000Y-101900000D03*
X236200000Y-101900000D03*
X268200000Y-101900000D03*
X300200000Y-101900000D03*
X204200000Y-118900000D03*
X236200000Y-118900000D03*
X268200000Y-118900000D03*
X300200000Y-118900000D03*
X204200000Y-135900000D03*
X236200000Y-135900000D03*
X268200000Y-135900000D03*
X300200000Y-135900000D03*
D11*
G36*
X212475000Y-68475000D02*
G01*
X183525000Y-68475000D01*
X183525000Y-54525000D01*
X212475001Y-54525000D01*
X212475000Y-68475000D01*
G37*
X212475000Y-68475000D02*
X183525000Y-68475000D01*
X183525000Y-54525000D01*
X212475001Y-54525000D01*
X212475000Y-68475000D01*
G36*
X244475000Y-68475000D02*
G01*
X215525000Y-68475000D01*
X215525000Y-54525000D01*
X244475001Y-54525000D01*
X244475000Y-68475000D01*
G37*
X244475000Y-68475000D02*
X215525000Y-68475000D01*
X215525000Y-54525000D01*
X244475001Y-54525000D01*
X244475000Y-68475000D01*
G36*
X276475000Y-68475000D02*
G01*
X247525000Y-68475000D01*
X247525000Y-54525000D01*
X276475001Y-54525000D01*
X276475000Y-68475000D01*
G37*
X276475000Y-68475000D02*
X247525000Y-68475000D01*
X247525000Y-54525000D01*
X276475001Y-54525000D01*
X276475000Y-68475000D01*
G36*
X308475000Y-68475000D02*
G01*
X279525000Y-68475000D01*
X279525000Y-54525000D01*
X308475001Y-54525000D01*
X308475000Y-68475000D01*
G37*
X308475000Y-68475000D02*
X279525000Y-68475000D01*
X279525000Y-54525000D01*
X308475001Y-54525000D01*
X308475000Y-68475000D01*
G36*
X212475000Y-85475000D02*
G01*
X183525000Y-85475000D01*
X183525000Y-71525000D01*
X212475001Y-71525000D01*
X212475000Y-85475000D01*
G37*
X212475000Y-85475000D02*
X183525000Y-85475000D01*
X183525000Y-71525000D01*
X212475001Y-71525000D01*
X212475000Y-85475000D01*
G36*
X244475000Y-85475000D02*
G01*
X215525000Y-85475000D01*
X215525000Y-71525000D01*
X244475001Y-71525000D01*
X244475000Y-85475000D01*
G37*
X244475000Y-85475000D02*
X215525000Y-85475000D01*
X215525000Y-71525000D01*
X244475001Y-71525000D01*
X244475000Y-85475000D01*
G36*
X276475000Y-85475000D02*
G01*
X247525000Y-85475000D01*
X247525000Y-71525000D01*
X276475001Y-71525000D01*
X276475000Y-85475000D01*
G37*
X276475000Y-85475000D02*
X247525000Y-85475000D01*
X247525000Y-71525000D01*
X276475001Y-71525000D01*
X276475000Y-85475000D01*
G36*
X308475000Y-85475000D02*
G01*
X279525000Y-85475000D01*
X279525000Y-71525000D01*
X308475001Y-71525000D01*
X308475000Y-85475000D01*
G37*
X308475000Y-85475000D02*
X279525000Y-85475000D01*
X279525000Y-71525000D01*
X308475001Y-71525000D01*
X308475000Y-85475000D01*
G36*
X212475000Y-102475000D02*
G01*
X183525000Y-102475000D01*
X183525000Y-88525000D01*
X212475001Y-88525000D01*
X212475000Y-102475000D01*
G37*
X212475000Y-102475000D02*
X183525000Y-102475000D01*
X183525000Y-88525000D01*
X212475001Y-88525000D01*
X212475000Y-102475000D01*
G36*
X244475000Y-102475000D02*
G01*
X215525000Y-102475000D01*
X215525000Y-88525000D01*
X244475001Y-88525000D01*
X244475000Y-102475000D01*
G37*
X244475000Y-102475000D02*
X215525000Y-102475000D01*
X215525000Y-88525000D01*
X244475001Y-88525000D01*
X244475000Y-102475000D01*
G36*
X276475000Y-102475000D02*
G01*
X247525000Y-102475000D01*
X247525000Y-88525000D01*
X276475001Y-88525000D01*
X276475000Y-102475000D01*
G37*
X276475000Y-102475000D02*
X247525000Y-102475000D01*
X247525000Y-88525000D01*
X276475001Y-88525000D01*
X276475000Y-102475000D01*
G36*
X308475000Y-102475000D02*
G01*
X279525000Y-102475000D01*
X279525000Y-88525000D01*
X308475001Y-88525000D01*
X308475000Y-102475000D01*
G37*
X308475000Y-102475000D02*
X279525000Y-102475000D01*
X279525000Y-88525000D01*
X308475001Y-88525000D01*
X308475000Y-102475000D01*
G36*
X212475000Y-119475000D02*
G01*
X183525000Y-119475000D01*
X183525000Y-105525000D01*
X212475001Y-105525000D01*
X212475000Y-119475000D01*
G37*
X212475000Y-119475000D02*
X183525000Y-119475000D01*
X183525000Y-105525000D01*
X212475001Y-105525000D01*
X212475000Y-119475000D01*
G36*
X244475000Y-119475000D02*
G01*
X215525000Y-119475000D01*
X215525000Y-105525000D01*
X244475001Y-105525000D01*
X244475000Y-119475000D01*
G37*
X244475000Y-119475000D02*
X215525000Y-119475000D01*
X215525000Y-105525000D01*
X244475001Y-105525000D01*
X244475000Y-119475000D01*
G36*
X276475000Y-119475000D02*
G01*
X247525000Y-119475000D01*
X247525000Y-105525000D01*
X276475001Y-105525000D01*
X276475000Y-119475000D01*
G37*
X276475000Y-119475000D02*
X247525000Y-119475000D01*
X247525000Y-105525000D01*
X276475001Y-105525000D01*
X276475000Y-119475000D01*
G36*
X308475000Y-119475000D02*
G01*
X279525000Y-119475000D01*
X279525000Y-105525000D01*
X308475001Y-105525000D01*
X308475000Y-119475000D01*
G37*
X308475000Y-119475000D02*
X279525000Y-119475000D01*
X279525000Y-105525000D01*
X308475001Y-105525000D01*
X308475000Y-119475000D01*
G36*
X212475000Y-136475000D02*
G01*
X183525000Y-136475000D01*
X183525000Y-122525000D01*
X212475001Y-122525000D01*
X212475000Y-136475000D01*
G37*
X212475000Y-136475000D02*
X183525000Y-136475000D01*
X183525000Y-122525000D01*
X212475001Y-122525000D01*
X212475000Y-136475000D01*
G36*
X244475000Y-136475000D02*
G01*
X215525000Y-136475000D01*
X215525000Y-122525000D01*
X244475001Y-122525000D01*
X244475000Y-136475000D01*
G37*
X244475000Y-136475000D02*
X215525000Y-136475000D01*
X215525000Y-122525000D01*
X244475001Y-122525000D01*
X244475000Y-136475000D01*
G36*
X276475000Y-136475000D02*
G01*
X247525000Y-136475000D01*
X247525000Y-122525000D01*
X276475001Y-122525000D01*
X276475000Y-136475000D01*
G37*
X276475000Y-136475000D02*
X247525000Y-136475000D01*
X247525000Y-122525000D01*
X276475001Y-122525000D01*
X276475000Y-136475000D01*
G36*
X308475000Y-136475000D02*
G01*
X279525000Y-136475000D01*
X279525000Y-122525000D01*
X308475001Y-122525000D01*
X308475000Y-136475000D01*
G37*
X308475000Y-136475000D02*
X279525000Y-136475000D01*
X279525000Y-122525000D01*
X308475001Y-122525000D01*
X308475000Y-136475000D01*
M02*
