<?xml version="1.0" standalone="no"?>
 <!DOCTYPE svg PUBLIC "-//W3C//DTD SVG 1.1//EN" 
 "http://www.w3.org/Graphics/SVG/1.1/DTD/svg11.dtd"> 
<svg xmlns="http://www.w3.org/2000/svg" version="1.1" 
    width="29.7002cm" height="21.0007cm" viewBox="0 0 116930 82680 ">
<title>SVG Picture created as miniRGBii-Edge_Cuts.svg date 2020/08/30 19:38:10 </title>
  <desc>Picture generated by PCBNEW </desc>
<g style="fill:#000000; fill-opacity:1;stroke:#000000; stroke-opacity:1;
stroke-linecap:round; stroke-linejoin:round; "
 transform="translate(0 0) scale(1 1)">
</g>
<g style="fill:#000000; fill-opacity:0.0; 
stroke:#000000; stroke-width:-0.000393701; stroke-opacity:1; 
stroke-linecap:round; stroke-linejoin:round;">
</g>
<g style="fill:#000000; fill-opacity:0.0; 
stroke:#000000; stroke-width:59.0551; stroke-opacity:1; 
stroke-linecap:round; stroke-linejoin:round;">
<path d="M11023 46850
L59842 46850
" />
<path d="M10629.9 46456.7 A393.701 393.701 0.0 0 0 11023.6 46850.4 " />
<path d="M59842.5 46850.4 A393.701 393.701 0.0 0 0 60236.2 46456.7 " />
<path d="M60236 45669
L60236 46456
" />
<path d="M10629 45669
L10629 46456
" />
<path d="M59842 9448
L11023 9448
" />
<path d="M60236.2 9842.52 A393.701 393.701 0.0 0 0 59842.5 9448.82 " />
<path d="M60236 10236
L60236 9842
" />
<path d="M60236 10629
L60236 10236
" />
<path d="M11023.6 9448.82 A393.701 393.701 0.0 0 0 10629.9 9842.52 " />
<path d="M10629 10629
L10629 9842
" />
<path d="M59842 11023
L55118 11023
" />
<path d="M15748 45275
L11023 45275
" />
<path d="M10629 20669
L10629 22244
" />
<path d="M10629 34055
L10629 35629
" />
<path d="M10629 27362
L10629 28937
" />
<path d="M40944.9 11811 A393.701 393.701 0.0 0 0 40944.9 11023.6 " />
<path d="M11023.6 45275.6 A393.701 393.701 0.0 0 0 10629.9 45669.3 " />
<path d="M28346.5 11811 A393.701 393.701 0.0 0 0 28346.5 11023.6 " />
<path d="M55118.1 11023.6 A393.701 393.701 0.0 0 0 55118.1 11811 " />
<path d="M59842 17716
L55118 17716
" />
<path d="M22047 24409
L17322 24409
" />
<path d="M34645 24409
L29921 24409
" />
<path d="M47244 24409
L42519 24409
" />
<path d="M59842 24409
L55118 24409
" />
<path d="M22047 31102
L17322 31102
" />
<path d="M34645 31102
L29921 31102
" />
<path d="M47244 31102
L42519 31102
" />
<path d="M59842 31102
L55118 31102
" />
<path d="M22047 37795
L17322 37795
" />
<path d="M34645 37795
L29921 37795
" />
<path d="M47244 37795
L42519 37795
" />
<path d="M59842 37795
L55118 37795
" />
<path d="M22047 44488
L17322 44488
" />
<path d="M34645 44488
L29921 44488
" />
<path d="M47244 44488
L42519 44488
" />
<path d="M59842 44488
L55118 44488
" />
<path d="M35039 12204
L35039 13976
" />
<path d="M47637 12204
L47637 13976
" />
<path d="M60236 12204
L60236 13976
" />
<path d="M22440 18897
L22440 20669
" />
<path d="M35039 18897
L35039 20669
" />
<path d="M47637 18897
L47637 20669
" />
<path d="M60236 18897
L60236 20669
" />
<path d="M22440 25590
L22440 27362
" />
<path d="M35039 25590
L35039 27362
" />
<path d="M47637 25590
L47637 27362
" />
<path d="M60236 25590
L60236 27362
" />
<path d="M22440 32283
L22440 34055
" />
<path d="M35039 32283
L35039 34055
" />
<path d="M47637 32283
L47637 34055
" />
<path d="M60236 32283
L60236 34055
" />
<path d="M22440 38976
L22440 40748
" />
<path d="M35039 38976
L35039 40748
" />
<path d="M47637 38976
L47637 40748
" />
<path d="M60236 38976
L60236 40748
" />
<path d="M34645.7 17716.5 A393.701 393.701 0.0 0 0 35039.4 17322.8 " />
<path d="M47244.1 17716.5 A393.701 393.701 0.0 0 0 47637.8 17322.8 " />
<path d="M59842.5 17716.5 A393.701 393.701 0.0 0 0 60236.2 17322.8 " />
<path d="M22047.2 24409.4 A393.701 393.701 0.0 0 0 22440.9 24015.7 " />
<path d="M34645.7 24409.4 A393.701 393.701 0.0 0 0 35039.4 24015.7 " />
<path d="M47244.1 24409.4 A393.701 393.701 0.0 0 0 47637.8 24015.7 " />
<path d="M59842.5 24409.4 A393.701 393.701 0.0 0 0 60236.2 24015.7 " />
<path d="M22047.2 31102.4 A393.701 393.701 0.0 0 0 22440.9 30708.7 " />
<path d="M34645.7 31102.4 A393.701 393.701 0.0 0 0 35039.4 30708.7 " />
<path d="M47244.1 31102.4 A393.701 393.701 0.0 0 0 47637.8 30708.7 " />
<path d="M59842.5 31102.4 A393.701 393.701 0.0 0 0 60236.2 30708.7 " />
<path d="M22047.2 37795.3 A393.701 393.701 0.0 0 0 22440.9 37401.6 " />
<path d="M34645.7 37795.3 A393.701 393.701 0.0 0 0 35039.4 37401.6 " />
<path d="M47244.1 37795.3 A393.701 393.701 0.0 0 0 47637.8 37401.6 " />
<path d="M59842.5 37795.3 A393.701 393.701 0.0 0 0 60236.2 37401.6 " />
<path d="M22047.2 44488.2 A393.701 393.701 0.0 0 0 22440.9 44094.5 " />
<path d="M34645.7 44488.2 A393.701 393.701 0.0 0 0 35039.4 44094.5 " />
<path d="M47244.1 44488.2 A393.701 393.701 0.0 0 0 47637.8 44094.5 " />
<path d="M59842.5 44488.2 A393.701 393.701 0.0 0 0 60236.2 44094.5 " />
<path d="M35039.4 12204.7 A393.701 393.701 0.0 0 0 34645.7 11811 " />
<path d="M47637.8 12204.7 A393.701 393.701 0.0 0 0 47244.1 11811 " />
<path d="M60236.2 12204.7 A393.701 393.701 0.0 0 0 59842.5 11811 " />
<path d="M22440.9 18897.6 A393.701 393.701 0.0 0 0 22047.2 18503.9 " />
<path d="M35039.4 18897.6 A393.701 393.701 0.0 0 0 34645.7 18503.9 " />
<path d="M47637.8 18897.6 A393.701 393.701 0.0 0 0 47244.1 18503.9 " />
<path d="M60236.2 18897.6 A393.701 393.701 0.0 0 0 59842.5 18503.9 " />
<path d="M22440.9 25590.6 A393.701 393.701 0.0 0 0 22047.2 25196.9 " />
<path d="M35039.4 25590.6 A393.701 393.701 0.0 0 0 34645.7 25196.9 " />
<path d="M47637.8 25590.6 A393.701 393.701 0.0 0 0 47244.1 25196.9 " />
<path d="M60236.2 25590.6 A393.701 393.701 0.0 0 0 59842.5 25196.9 " />
<path d="M22440.9 32283.5 A393.701 393.701 0.0 0 0 22047.2 31889.8 " />
<path d="M35039.4 32283.5 A393.701 393.701 0.0 0 0 34645.7 31889.8 " />
<path d="M47637.8 32283.5 A393.701 393.701 0.0 0 0 47244.1 31889.8 " />
<path d="M60236.2 32283.5 A393.701 393.701 0.0 0 0 59842.5 31889.8 " />
<path d="M22440.9 38976.4 A393.701 393.701 0.0 0 0 22047.2 38582.7 " />
<path d="M35039.4 38976.4 A393.701 393.701 0.0 0 0 34645.7 38582.7 " />
<path d="M47637.8 38976.4 A393.701 393.701 0.0 0 0 47244.1 38582.7 " />
<path d="M60236.2 38976.4 A393.701 393.701 0.0 0 0 59842.5 38582.7 " />
<path d="M23228.3 17322.8 A393.701 393.701 0.0 0 0 23622 17716.5 " />
<path d="M35826.8 17322.8 A393.701 393.701 0.0 0 0 36220.5 17716.5 " />
<path d="M48425.2 17322.8 A393.701 393.701 0.0 0 0 48818.9 17716.5 " />
<path d="M10629.9 24015.7 A393.701 393.701 0.0 0 0 11023.6 24409.4 " />
<path d="M23228.3 24015.7 A393.701 393.701 0.0 0 0 23622 24409.4 " />
<path d="M35826.8 24015.7 A393.701 393.701 0.0 0 0 36220.5 24409.4 " />
<path d="M48425.2 24015.7 A393.701 393.701 0.0 0 0 48818.9 24409.4 " />
<path d="M10629.9 30708.7 A393.701 393.701 0.0 0 0 11023.6 31102.4 " />
<path d="M23228.3 30708.7 A393.701 393.701 0.0 0 0 23622 31102.4 " />
<path d="M35826.8 30708.7 A393.701 393.701 0.0 0 0 36220.5 31102.4 " />
<path d="M48425.2 30708.7 A393.701 393.701 0.0 0 0 48818.9 31102.4 " />
<path d="M10629.9 37401.6 A393.701 393.701 0.0 0 0 11023.6 37795.3 " />
<path d="M23228.3 37401.6 A393.701 393.701 0.0 0 0 23622 37795.3 " />
<path d="M35826.8 37401.6 A393.701 393.701 0.0 0 0 36220.5 37795.3 " />
<path d="M48425.2 37401.6 A393.701 393.701 0.0 0 0 48818.9 37795.3 " />
<path d="M10629.9 44094.5 A393.701 393.701 0.0 0 0 11023.6 44488.2 " />
<path d="M23228.3 44094.5 A393.701 393.701 0.0 0 0 23622 44488.2 " />
<path d="M35826.8 44094.5 A393.701 393.701 0.0 0 0 36220.5 44488.2 " />
<path d="M48425.2 44094.5 A393.701 393.701 0.0 0 0 48818.9 44488.2 " />
<path d="M23622 11811 A393.701 393.701 0.0 0 0 23228.3 12204.7 " />
<path d="M36220.5 11811 A393.701 393.701 0.0 0 0 35826.8 12204.7 " />
<path d="M48818.9 11811 A393.701 393.701 0.0 0 0 48425.2 12204.7 " />
<path d="M11023.6 18503.9 A393.701 393.701 0.0 0 0 10629.9 18897.6 " />
<path d="M23622 18503.9 A393.701 393.701 0.0 0 0 23228.3 18897.6 " />
<path d="M36220.5 18503.9 A393.701 393.701 0.0 0 0 35826.8 18897.6 " />
<path d="M48818.9 18503.9 A393.701 393.701 0.0 0 0 48425.2 18897.6 " />
<path d="M11023.6 25196.9 A393.701 393.701 0.0 0 0 10629.9 25590.6 " />
<path d="M23622 25196.9 A393.701 393.701 0.0 0 0 23228.3 25590.6 " />
<path d="M36220.5 25196.9 A393.701 393.701 0.0 0 0 35826.8 25590.6 " />
<path d="M48818.9 25196.9 A393.701 393.701 0.0 0 0 48425.2 25590.6 " />
<path d="M11023.6 31889.8 A393.701 393.701 0.0 0 0 10629.9 32283.5 " />
<path d="M23622 31889.8 A393.701 393.701 0.0 0 0 23228.3 32283.5 " />
<path d="M36220.5 31889.8 A393.701 393.701 0.0 0 0 35826.8 32283.5 " />
<path d="M48818.9 31889.8 A393.701 393.701 0.0 0 0 48425.2 32283.5 " />
<path d="M11023.6 38582.7 A393.701 393.701 0.0 0 0 10629.9 38976.4 " />
<path d="M23622 38582.7 A393.701 393.701 0.0 0 0 23228.3 38976.4 " />
<path d="M36220.5 38582.7 A393.701 393.701 0.0 0 0 35826.8 38976.4 " />
<path d="M48818.9 38582.7 A393.701 393.701 0.0 0 0 48425.2 38976.4 " />
<path d="M10629.9 10629.9 A393.701 393.701 0.0 0 0 11023.6 11023.6 " />
<path d="M59842.5 11023.6 A393.701 393.701 0.0 0 0 60236.2 10629.9 " />
<path d="M29921.3 11023.6 A393.701 393.701 0.0 0 0 29921.3 11811 " />
<path d="M42519.7 11023.6 A393.701 393.701 0.0 0 0 42519.7 11811 " />
<path d="M17322 11023
L28346 11023
" />
<path d="M47244 17716
L42519 17716
" />
<path d="M15748 11811 A393.701 393.701 0.0 0 0 15748 11023.6 " />
<path d="M60236 20669
L60236 22244
" />
<path d="M60236 13976
L60236 15551
" />
<path d="M17322 45275
L28346 45275
" />
<path d="M29921 45275
L40944 45275
" />
<path d="M42519 45275
L53543 45275
" />
<path d="M23228.3 15551.2 A393.701 393.701 0.0 0 0 22440.9 15551.2 " />
<path d="M22440.9 13976.4 A393.701 393.701 0.0 0 0 23228.3 13976.4 " />
<path d="M15748 11811
L11023 11811
" />
<path d="M10629 15551
L10629 17322
" />
<path d="M60236 34055
L60236 35629
" />
<path d="M60236 40748
L60236 42322
" />
<path d="M10629 13976
L10629 15551
" />
<path d="M15748 18503.9 A393.701 393.701 0.0 0 0 15748 17716.5 " />
<path d="M23228 35629
L23228 37401
" />
<path d="M35826 35629
L35826 37401
" />
<path d="M48425 35629
L48425 37401
" />
<path d="M10629 42322
L10629 44094
" />
<path d="M23228 42322
L23228 44094
" />
<path d="M35826 42322
L35826 44094
" />
<path d="M48425 42322
L48425 44094
" />
<path d="M28346.5 18503.9 A393.701 393.701 0.0 0 0 28346.5 17716.5 " />
<path d="M40944.9 18503.9 A393.701 393.701 0.0 0 0 40944.9 17716.5 " />
<path d="M53543.3 18503.9 A393.701 393.701 0.0 0 0 53543.3 17716.5 " />
<path d="M15748 25196.9 A393.701 393.701 0.0 0 0 15748 24409.4 " />
<path d="M28346.5 25196.9 A393.701 393.701 0.0 0 0 28346.5 24409.4 " />
<path d="M40944.9 25196.9 A393.701 393.701 0.0 0 0 40944.9 24409.4 " />
<path d="M53543.3 25196.9 A393.701 393.701 0.0 0 0 53543.3 24409.4 " />
<path d="M15748 31889.8 A393.701 393.701 0.0 0 0 15748 31102.4 " />
<path d="M28346.5 31889.8 A393.701 393.701 0.0 0 0 28346.5 31102.4 " />
<path d="M40944.9 31889.8 A393.701 393.701 0.0 0 0 40944.9 31102.4 " />
<path d="M53543.3 31889.8 A393.701 393.701 0.0 0 0 53543.3 31102.4 " />
<path d="M15748 38582.7 A393.701 393.701 0.0 0 0 15748 37795.3 " />
<path d="M28346.5 38582.7 A393.701 393.701 0.0 0 0 28346.5 37795.3 " />
<path d="M40944.9 38582.7 A393.701 393.701 0.0 0 0 40944.9 37795.3 " />
<path d="M53543.3 38582.7 A393.701 393.701 0.0 0 0 53543.3 37795.3 " />
<path d="M15748 45275.6 A393.701 393.701 0.0 0 0 15748 44488.2 " />
<path d="M28346.5 45275.6 A393.701 393.701 0.0 0 0 28346.5 44488.2 " />
<path d="M40944.9 45275.6 A393.701 393.701 0.0 0 0 40944.9 44488.2 " />
<path d="M53543.3 45275.6 A393.701 393.701 0.0 0 0 53543.3 44488.2 " />
<path d="M29921 11811
L34645 11811
" />
<path d="M42519 11811
L47244 11811
" />
<path d="M55118 11811
L59842 11811
" />
<path d="M17322 18503
L22047 18503
" />
<path d="M29921 18503
L34645 18503
" />
<path d="M42519 18503
L47244 18503
" />
<path d="M55118 18503
L59842 18503
" />
<path d="M17322 25196
L22047 25196
" />
<path d="M29921 25196
L34645 25196
" />
<path d="M42519 25196
L47244 25196
" />
<path d="M55118 25196
L59842 25196
" />
<path d="M17322 31889
L22047 31889
" />
<path d="M29921 31889
L34645 31889
" />
<path d="M42519 31889
L47244 31889
" />
<path d="M55118 31889
L59842 31889
" />
<path d="M17322 38582
L22047 38582
" />
<path d="M29921 38582
L34645 38582
" />
<path d="M42519 38582
L47244 38582
" />
<path d="M55118 38582
L59842 38582
" />
<path d="M48425.2 22244.1 A393.701 393.701 0.0 0 0 47637.8 22244.1 " />
<path d="M23228.3 28937 A393.701 393.701 0.0 0 0 22440.9 28937 " />
<path d="M35826.8 28937 A393.701 393.701 0.0 0 0 35039.4 28937 " />
<path d="M48425.2 28937 A393.701 393.701 0.0 0 0 47637.8 28937 " />
<path d="M23228.3 35629.9 A393.701 393.701 0.0 0 0 22440.9 35629.9 " />
<path d="M35826.8 35629.9 A393.701 393.701 0.0 0 0 35039.4 35629.9 " />
<path d="M48425.2 35629.9 A393.701 393.701 0.0 0 0 47637.8 35629.9 " />
<path d="M23228.3 42322.8 A393.701 393.701 0.0 0 0 22440.9 42322.8 " />
<path d="M35826.8 42322.8 A393.701 393.701 0.0 0 0 35039.4 42322.8 " />
<path d="M48425.2 42322.8 A393.701 393.701 0.0 0 0 47637.8 42322.8 " />
<path d="M35039.4 13976.4 A393.701 393.701 0.0 0 0 35826.8 13976.4 " />
<path d="M47637.8 13976.4 A393.701 393.701 0.0 0 0 48425.2 13976.4 " />
<path d="M22440.9 20669.3 A393.701 393.701 0.0 0 0 23228.3 20669.3 " />
<path d="M35039.4 20669.3 A393.701 393.701 0.0 0 0 35826.8 20669.3 " />
<path d="M47637.8 20669.3 A393.701 393.701 0.0 0 0 48425.2 20669.3 " />
<path d="M22440.9 27362.2 A393.701 393.701 0.0 0 0 23228.3 27362.2 " />
<path d="M35039.4 27362.2 A393.701 393.701 0.0 0 0 35826.8 27362.2 " />
<path d="M47637.8 27362.2 A393.701 393.701 0.0 0 0 48425.2 27362.2 " />
<path d="M22440.9 34055.1 A393.701 393.701 0.0 0 0 23228.3 34055.1 " />
<path d="M35039.4 34055.1 A393.701 393.701 0.0 0 0 35826.8 34055.1 " />
<path d="M47637.8 34055.1 A393.701 393.701 0.0 0 0 48425.2 34055.1 " />
<path d="M22440.9 40748 A393.701 393.701 0.0 0 0 23228.3 40748 " />
<path d="M35039.4 40748 A393.701 393.701 0.0 0 0 35826.8 40748 " />
<path d="M47637.8 40748 A393.701 393.701 0.0 0 0 48425.2 40748 " />
<path d="M28346 11811
L23622 11811
" />
<path d="M40944 11811
L36220 11811
" />
<path d="M53543 11811
L48818 11811
" />
<path d="M15748 18503
L11023 18503
" />
<path d="M28346 18503
L23622 18503
" />
<path d="M40944 18503
L36220 18503
" />
<path d="M53543 18503
L48818 18503
" />
<path d="M15748 25196
L11023 25196
" />
<path d="M28346 25196
L23622 25196
" />
<path d="M40944 25196
L36220 25196
" />
<path d="M53543 25196
L48818 25196
" />
<path d="M15748 31889
L11023 31889
" />
<path d="M28346 31889
L23622 31889
" />
<path d="M40944 31889
L36220 31889
" />
<path d="M53543 31889
L48818 31889
" />
<path d="M15748 38582
L11023 38582
" />
<path d="M28346 38582
L23622 38582
" />
<path d="M40944 38582
L36220 38582
" />
<path d="M53543 38582
L48818 38582
" />
<path d="M23228 15551
L23228 17322
" />
<path d="M35826 15551
L35826 17322
" />
<path d="M48425 15551
L48425 17322
" />
<path d="M10629 22244
L10629 24015
" />
<path d="M23228 22244
L23228 24015
" />
<path d="M35826 22244
L35826 24015
" />
<path d="M48425 22244
L48425 24015
" />
<path d="M10629 28937
L10629 30708
" />
<path d="M23228 28937
L23228 30708
" />
<path d="M35826 28937
L35826 30708
" />
<path d="M48425 28937
L48425 30708
" />
<path d="M10629 35629
L10629 37401
" />
<path d="M29921 11023
L40944 11023
" />
<path d="M60236.2 45669.3 A393.701 393.701 0.0 0 0 59842.5 45275.6 " />
<path d="M35826.8 15551.2 A393.701 393.701 0.0 0 0 35039.4 15551.2 " />
<path d="M17322 11811
L22047 11811
" />
<path d="M59842 45275
L55118 45275
" />
<path d="M10629 40748
L10629 42322
" />
<path d="M53543.3 11811 A393.701 393.701 0.0 0 0 53543.3 11023.6 " />
<path d="M15748 11023
L11023 11023
" />
<path d="M35826.8 22244.1 A393.701 393.701 0.0 0 0 35039.4 22244.1 " />
<path d="M48425.2 15551.2 A393.701 393.701 0.0 0 0 47637.8 15551.2 " />
<path d="M42519 11023
L53543 11023
" />
<path d="M23228.3 22244.1 A393.701 393.701 0.0 0 0 22440.9 22244.1 " />
<path d="M60236 27362
L60236 28937
" />
<path d="M10629 13976
L10629 12204
" />
<path d="M17322.8 17716.5 A393.701 393.701 0.0 0 0 17322.8 18503.9 " />
<path d="M15748 17716
L11023 17716
" />
<path d="M17322.8 11023.6 A393.701 393.701 0.0 0 0 17322.8 11811 " />
<path d="M22440 15551
L22440 17322
" />
<path d="M22047 17716
L17322 17716
" />
<path d="M22440 12204
L22440 13976
" />
<path d="M22047.2 17716.5 A393.701 393.701 0.0 0 0 22440.9 17322.8 " />
<path d="M22440.9 12204.7 A393.701 393.701 0.0 0 0 22047.2 11811 " />
<path d="M10629.9 17322.8 A393.701 393.701 0.0 0 0 11023.6 17716.5 " />
<path d="M11023.6 11811 A393.701 393.701 0.0 0 0 10629.9 12204.7 " />
<path d="M34645 17716
L29921 17716
" />
<path d="M23228 13976
L23228 12204
" />
<path d="M35826 13976
L35826 12204
" />
<path d="M48425 13976
L48425 12204
" />
<path d="M10629 20669
L10629 18897
" />
<path d="M23228 20669
L23228 18897
" />
<path d="M35826 20669
L35826 18897
" />
<path d="M48425 20669
L48425 18897
" />
<path d="M10629 27362
L10629 25590
" />
<path d="M23228 27362
L23228 25590
" />
<path d="M35826 27362
L35826 25590
" />
<path d="M48425 27362
L48425 25590
" />
<path d="M10629 34055
L10629 32283
" />
<path d="M23228 34055
L23228 32283
" />
<path d="M35826 34055
L35826 32283
" />
<path d="M48425 34055
L48425 32283
" />
<path d="M10629 40748
L10629 38976
" />
<path d="M23228 40748
L23228 38976
" />
<path d="M35826 40748
L35826 38976
" />
<path d="M48425 40748
L48425 38976
" />
<path d="M29921.3 17716.5 A393.701 393.701 0.0 0 0 29921.3 18503.9 " />
<path d="M42519.7 17716.5 A393.701 393.701 0.0 0 0 42519.7 18503.9 " />
<path d="M55118.1 17716.5 A393.701 393.701 0.0 0 0 55118.1 18503.9 " />
<path d="M17322.8 24409.4 A393.701 393.701 0.0 0 0 17322.8 25196.9 " />
<path d="M29921.3 24409.4 A393.701 393.701 0.0 0 0 29921.3 25196.9 " />
<path d="M42519.7 24409.4 A393.701 393.701 0.0 0 0 42519.7 25196.9 " />
<path d="M55118.1 24409.4 A393.701 393.701 0.0 0 0 55118.1 25196.9 " />
<path d="M17322.8 31102.4 A393.701 393.701 0.0 0 0 17322.8 31889.8 " />
<path d="M29921.3 31102.4 A393.701 393.701 0.0 0 0 29921.3 31889.8 " />
<path d="M42519.7 31102.4 A393.701 393.701 0.0 0 0 42519.7 31889.8 " />
<path d="M55118.1 31102.4 A393.701 393.701 0.0 0 0 55118.1 31889.8 " />
<path d="M17322.8 37795.3 A393.701 393.701 0.0 0 0 17322.8 38582.7 " />
<path d="M29921.3 37795.3 A393.701 393.701 0.0 0 0 29921.3 38582.7 " />
<path d="M42519.7 37795.3 A393.701 393.701 0.0 0 0 42519.7 38582.7 " />
<path d="M55118.1 37795.3 A393.701 393.701 0.0 0 0 55118.1 38582.7 " />
<path d="M17322.8 44488.2 A393.701 393.701 0.0 0 0 17322.8 45275.6 " />
<path d="M29921.3 44488.2 A393.701 393.701 0.0 0 0 29921.3 45275.6 " />
<path d="M42519.7 44488.2 A393.701 393.701 0.0 0 0 42519.7 45275.6 " />
<path d="M55118.1 44488.2 A393.701 393.701 0.0 0 0 55118.1 45275.6 " />
<path d="M28346 17716
L23622 17716
" />
<path d="M40944 17716
L36220 17716
" />
<path d="M53543 17716
L48818 17716
" />
<path d="M15748 24409
L11023 24409
" />
<path d="M28346 24409
L23622 24409
" />
<path d="M40944 24409
L36220 24409
" />
<path d="M53543 24409
L48818 24409
" />
<path d="M15748 31102
L11023 31102
" />
<path d="M28346 31102
L23622 31102
" />
<path d="M40944 31102
L36220 31102
" />
<path d="M53543 31102
L48818 31102
" />
<path d="M15748 37795
L11023 37795
" />
<path d="M28346 37795
L23622 37795
" />
<path d="M40944 37795
L36220 37795
" />
<path d="M53543 37795
L48818 37795
" />
<path d="M15748 44488
L11023 44488
" />
<path d="M28346 44488
L23622 44488
" />
<path d="M40944 44488
L36220 44488
" />
<path d="M53543 44488
L48818 44488
" />
<path d="M35039 15551
L35039 17322
" />
<path d="M47637 15551
L47637 17322
" />
<path d="M60236 15551
L60236 17322
" />
<path d="M22440 22244
L22440 24015
" />
<path d="M35039 22244
L35039 24015
" />
<path d="M47637 22244
L47637 24015
" />
<path d="M60236 22244
L60236 24015
" />
<path d="M22440 28937
L22440 30708
" />
<path d="M35039 28937
L35039 30708
" />
<path d="M47637 28937
L47637 30708
" />
<path d="M60236 28937
L60236 30708
" />
<path d="M22440 35629
L22440 37401
" />
<path d="M35039 35629
L35039 37401
" />
<path d="M47637 35629
L47637 37401
" />
<path d="M60236 35629
L60236 37401
" />
<path d="M22440 42322
L22440 44094
" />
<path d="M35039 42322
L35039 44094
" />
<path d="M47637 42322
L47637 44094
" />
<path d="M60236 42322
L60236 44094
" />
<g >
</g>
<g >
</g>
<g >
</g>
<g >
</g>
<g >
</g>
<g >
</g>
<g >
</g>
<g >
</g>
<g >
</g>
<g >
</g>
<g >
</g>
<g >
</g>
<g >
</g>
<g >
</g>
<g >
</g>
<g >
</g>
<g >
</g>
<g >
</g>
<g >
</g>
<g >
</g>
<g >
</g>
<g >
</g>
<g >
</g>
<g >
</g>
<g >
</g>
<g >
</g>
<g >
</g>
<g >
</g>
<g >
</g>
<g >
</g>
<g >
</g>
<g >
</g>
<g >
</g>
<g >
</g>
<g >
</g>
<g >
</g>
<g >
</g>
<g >
</g>
<g >
</g>
<g >
</g>
<g >
</g>
<g >
</g>
<g >
</g>
<g >
</g>
<g >
</g>
<g >
</g>
<g >
</g>
<g >
</g>
<g >
</g>
<g >
</g>
<g >
</g>
<g >
</g>
<g >
</g>
<g >
</g>
<g >
</g>
<g >
</g>
<g >
</g>
<g >
</g>
<g >
</g>
<g >
</g>
<g >
</g>
<g >
</g>
<g >
</g>
<g >
</g>
<g >
</g>
<g >
</g>
<g >
</g>
<g >
</g>
<g >
</g>
<g >
</g>
<g >
</g>
<g >
</g>
<g >
</g>
<g >
</g>
<g >
</g>
<g >
</g>
<g >
</g>
<g >
</g>
<g >
</g>
<g >
</g>
<g >
</g>
<g >
</g>
<g >
</g>
<g >
</g>
<g >
</g>
<g >
</g>
<g >
</g>
<g >
</g>
<g >
</g>
<g >
</g>
<g >
</g>
<g >
</g>
<g >
</g>
<g >
</g>
<g >
</g>
<g >
</g>
<g >
</g>
<g >
</g>
<g >
</g>
<g >
</g>
<g >
</g>
<g >
</g>
<g >
</g>
<g >
</g>
<g >
</g>
<g >
</g>
<g >
</g>
<g >
</g>
<g >
</g>
<g >
</g>
<g >
</g>
<g >
</g>
<g >
</g>
<g >
</g>
<g >
</g>
<g >
</g>
<g >
</g>
<g >
</g>
<g >
</g>
<g >
</g>
<g >
</g>
<g >
</g>
<g >
</g>
<g >
</g>
<g >
</g>
<g >
</g>
<g >
</g>
<g >
</g>
<g >
</g>
<g >
</g>
<g >
</g>
<g >
</g>
<g >
</g>
<g >
</g>
<g >
</g>
<g >
</g>
<g >
</g>
<g >
</g>
<g >
</g>
<g >
</g>
<g >
</g>
<g >
</g>
<g >
</g>
<g >
</g>
<g >
</g>
<g >
</g>
<g >
</g>
<g >
</g>
<g >
</g>
<g >
</g>
<g >
</g>
<g >
</g>
<g >
</g>
<g >
</g>
<g >
</g>
<g >
</g>
<g >
</g>
<g >
</g>
<g >
</g>
<g >
</g>
<g >
</g>
<g >
</g>
<g >
</g>
<g >
</g>
<g >
</g>
<g >
</g>
<g >
</g>
<g >
</g>
<g >
</g>
<g >
</g>
<g >
</g>
<g >
</g>
<g >
</g>
<g >
</g>
<g >
</g>
<g >
</g>
<g >
</g>
<g >
</g>
<g >
</g>
<g >
</g>
<g >
</g>
<g >
</g>
<g >
</g>
<g >
</g>
<g >
</g>
<g >
</g>
<g >
</g>
<g >
</g>
<g >
</g>
<g >
</g>
<g >
</g>
<g >
</g>
<g >
</g>
<g >
</g>
<g >
</g>
<g >
</g>
<g >
</g>
<g >
</g>
<g >
</g>
<g >
</g>
<g >
</g>
<g >
</g>
<g >
</g>
<g >
</g>
<g >
</g>
<g >
</g>
<g >
</g>
<g >
</g>
<g >
</g>
<g >
</g>
<g >
</g>
<g >
</g>
<g >
</g>
<g >
</g>
<g >
</g>
<g >
</g>
<g >
</g>
<g >
</g>
<g >
</g>
<g >
</g>
<g >
</g>
<g >
</g>
<g >
</g>
<g >
</g>
<g >
</g>
<g >
</g>
<g >
</g>
<g >
</g>
<g >
</g>
<g >
</g>
<g >
</g>
<g >
</g>
<g >
</g>
<g >
</g>
<g >
</g>
<g >
</g>
<g >
</g>
<g >
</g>
<g >
</g>
<g >
</g>
<g >
</g>
<g >
</g>
<g >
</g>
<g >
</g>
<g >
</g>
<g >
</g>
<g >
</g>
<g >
</g>
<g >
</g>
<g >
</g>
<g >
</g>
<g >
</g>
<g >
</g>
<g >
</g>
<g >
</g>
<g >
</g>
<g >
</g>
<g >
</g>
<g >
</g>
<g >
</g>
<g >
</g>
<g >
</g>
<g >
</g>
<g >
</g>
<g >
</g>
<g >
</g>
<g >
</g>
<g >
</g>
<g >
</g>
<g >
</g>
<g >
</g>
<g >
</g>
<g >
</g>
<g >
</g>
<g >
</g>
<g >
</g>
<g >
</g>
<g >
</g>
<g >
</g>
<g >
</g>
<g >
</g>
<g >
</g>
<g >
</g>
<g >
</g>
<g >
</g>
<g >
</g>
<g >
</g>
<g >
</g>
<g >
</g>
<g >
</g>
<g >
</g>
<g >
</g>
<g >
</g>
<g >
</g>
<g >
</g>
<g >
</g>
<g >
</g>
<g >
</g>
<g >
</g>
<g >
</g>
<g >
</g>
<g >
</g>
<g >
</g>
<g >
</g>
<g >
</g>
<g >
</g>
<g >
</g>
<g >
</g>
<g >
</g>
<g >
</g>
<g >
</g>
<g >
</g>
<g >
</g>
<g >
</g>
<g >
</g>
<g >
</g>
<g >
</g>
<g >
</g>
<g >
</g>
<g >
</g>
<g >
</g>
<g >
</g>
<g >
</g>
<g >
</g>
<g >
</g>
<g >
</g>
<g >
</g>
<g >
</g>
<g >
</g>
<g >
</g>
<g >
</g>
<g >
</g>
<g >
</g>
<g >
</g>
<g >
</g>
<g >
</g>
<g >
</g>
<g >
</g>
<g >
</g>
<g >
</g>
<g >
</g>
<g >
</g>
<g >
</g>
<g >
</g>
<g >
</g>
<g >
</g>
<g >
</g>
<g >
</g>
<g >
</g>
<g >
</g>
<g >
</g>
<g >
</g>
<g >
</g>
<g >
</g>
<g >
</g>
<g >
</g>
<g >
</g>
<g >
</g>
<g >
</g>
<g >
</g>
<g >
</g>
<g >
</g>
<g >
</g>
<g >
</g>
<g >
</g>
<g >
</g>
<g >
</g>
<g >
</g>
<g >
</g>
<g >
</g>
<g >
</g>
<g >
</g>
<g >
</g>
<g >
</g>
<g >
</g>
<g >
</g>
<g >
</g>
<g >
</g>
<g >
</g>
<g >
</g>
<g >
</g>
<g >
</g>
<g >
</g>
<g >
</g>
<g >
</g>
<g >
</g>
<g >
</g>
<g >
</g>
<g >
</g>
<g >
</g>
<g >
</g>
<g >
</g>
<g >
</g>
<g >
</g>
<g >
</g>
<g >
</g>
<g >
</g>
<g >
</g>
<g >
</g>
<g >
</g>
<g >
</g>
<g >
</g>
<g >
</g>
<g >
</g>
<g >
</g>
<g >
</g>
<g >
</g>
<g >
</g>
<g >
</g>
<g >
</g>
<g >
</g>
<g >
</g>
<g >
</g>
<g >
</g>
<g >
</g>
<g >
</g>
<g >
</g>
<g >
</g>
<g >
</g>
<g >
</g>
<g >
</g>
<g >
</g>
<g >
</g>
<g >
</g>
<g >
</g>
<g >
</g>
<g >
</g>
<g >
</g>
<g >
</g>
<g >
</g>
<g >
</g>
<g >
</g>
<g >
</g>
<g >
</g>
<g >
</g>
<g >
</g>
<g >
</g>
<g >
</g>
<g >
</g>
<g >
</g>
<g >
</g>
<g >
</g>
<g >
</g>
<g >
</g>
<g >
</g>
<g >
</g>
<g >
</g>
<g >
</g>
<g >
</g>
<g >
</g>
<g >
</g>
<g >
</g>
<g >
</g>
<g >
</g>
<g >
</g>
<g >
</g>
<g >
</g>
<g >
</g>
<g >
</g>
<g >
</g>
<g >
</g>
<g >
</g>
<g >
</g>
<g >
</g>
<g >
</g>
<g >
</g>
<g >
</g>
<g >
</g>
<g >
</g>
<g >
</g>
<g >
</g>
<g >
</g>
<g >
</g>
<g >
</g>
<g >
</g>
<g >
</g>
<g >
</g>
<g >
</g>
<g >
</g>
<g >
</g>
<g >
</g>
<g >
</g>
<g >
</g>
<g >
</g>
<g >
</g>
<g >
</g>
<g >
</g>
<g >
</g>
<g >
</g>
<g >
</g>
<g >
</g>
<g >
</g>
<g >
</g>
<g >
</g>
<g >
</g>
<g >
</g>
<g >
</g>
<g >
</g>
<g >
</g>
<g >
</g>
<g >
</g>
<g >
</g>
<g >
</g>
<g >
</g>
<g >
</g>
<g >
</g>
<g >
</g>
<g >
</g>
<g >
</g>
<g >
</g>
<g >
</g>
<g >
</g>
<g >
</g>
<g >
</g>
<g >
</g>
<g >
</g>
<g >
</g>
<g >
</g>
<g >
</g>
<g >
</g>
<g >
</g>
<g >
</g>
<g >
</g>
<g >
</g>
<g >
</g>
<g >
</g>
<g >
</g>
<g >
</g>
<g >
</g>
<g >
</g>
<g >
</g>
<g >
</g>
<g >
</g>
<g >
</g>
<g >
</g>
<g >
</g>
<g >
</g>
<g >
</g>
<g >
</g>
<g >
</g>
<g >
</g>
<g >
</g>
<g >
</g>
<g >
</g>
<g >
</g>
<g >
</g>
<g >
</g>
<g >
</g>
<g >
</g>
<g >
</g>
<g >
</g>
<g >
</g>
<g >
</g>
<g >
</g>
<g >
</g>
<g >
</g>
<g >
</g>
<g >
</g>
<g >
</g>
<g >
</g>
<g >
</g>
<g >
</g>
<g >
</g>
<g >
</g>
<g >
</g>
<g >
</g>
<g >
</g>
<g >
</g>
<g >
</g>
<g >
</g>
<g >
</g>
<g >
</g>
<g >
</g>
<g >
</g>
<g >
</g>
<g >
</g>
<g >
</g>
<g >
</g>
<g >
</g>
<g >
</g>
<g >
</g>
<g >
</g>
<g >
</g>
<g >
</g>
<g >
</g>
<g >
</g>
<g >
</g>
<g >
</g>
<g >
</g>
<g >
</g>
<g >
</g>
<g >
</g>
<g >
</g>
<g >
</g>
<g >
</g>
<g >
</g>
<g >
</g>
<g >
</g>
<g >
</g>
<g >
</g>
</g> 
</svg>
