<?xml version="1.0" standalone="no"?>
 <!DOCTYPE svg PUBLIC "-//W3C//DTD SVG 1.1//EN" 
 "http://www.w3.org/Graphics/SVG/1.1/DTD/svg11.dtd"> 
<svg xmlns="http://www.w3.org/2000/svg" version="1.1" 
    width="29.7002cm" height="21.0007cm" viewBox="0 0 116930 82680 ">
<title>SVG Picture created as miniRGBii-F_Mask.svg date 2020/08/30 18:00:24 </title>
  <desc>Picture generated by PCBNEW </desc>
<g style="fill:#000000; fill-opacity:1;stroke:#000000; stroke-opacity:1;
stroke-linecap:round; stroke-linejoin:round; "
 transform="translate(0 0) scale(1 1)">
</g>
<g style="fill:#000000; fill-opacity:0.0; 
stroke:#000000; stroke-width:-0.000393701; stroke-opacity:1; 
stroke-linecap:round; stroke-linejoin:round;">
</g>
<g style="fill:#000000; fill-opacity:1.0; 
stroke:#000000; stroke-width:0; stroke-opacity:1; 
stroke-linecap:round; stroke-linejoin:round;">
<path style="fill:#000000; fill-opacity:1.0; 
stroke:#000000; stroke-width:0; stroke-opacity:1; 
stroke-linecap:round; stroke-linejoin:round;fill-rule:evenodd;"
d="M 81468,26026
81493,26033.6
81515.9,26045.9
81536.1,26062.4
81552.6,26082.5
81564.8,26105.5
81572.4,26130.4
81575.2,26158.7
81575.2,26912.2
81572.4,26940.5
81564.8,26965.4
81552.6,26988.4
81536.1,27008.5
81515.9,27025
81493,27037.3
81468,27044.8
81439.7,27047.6
81080,27047.6
81051.6,27044.8
81026.7,27037.3
81003.8,27025
80983.6,27008.5
80967.1,26988.4
80954.8,26965.4
80947.3,26940.5
80944.5,26912.2
80944.5,26158.7
80947.3,26130.4
80954.8,26105.5
80967.1,26082.5
80983.6,26062.4
81003.8,26045.9
81026.7,26033.6
81051.6,26026
81080,26023.2
81439.7,26023.2
Z" /> 
<path style="fill:#000000; fill-opacity:1.0; 
stroke:#000000; stroke-width:0; stroke-opacity:1; 
stroke-linecap:round; stroke-linejoin:round;fill-rule:evenodd;"
d="M 83594,26380.3
83618.9,26387.9
83641.9,26400.2
83662,26416.7
83678.6,26436.8
83690.8,26459.8
83698.4,26484.7
83701.2,26513
83701.2,26872.8
83698.4,26901.1
83690.8,26926
83678.6,26949
83662,26969.1
83641.9,26985.6
83618.9,26997.9
83594,27005.5
83565.7,27008.3
82812.3,27008.3
82783.9,27005.5
82759,26997.9
82736,26985.6
82715.9,26969.1
82699.4,26949
82687.1,26926
82679.6,26901.1
82676.8,26872.8
82676.8,26513
82679.6,26484.7
82687.1,26459.8
82699.4,26436.8
82715.9,26416.7
82736,26400.2
82759,26387.9
82783.9,26380.3
82812.3,26377.6
83565.7,26377.6
Z" /> 
<path style="fill:#000000; fill-opacity:1.0; 
stroke:#000000; stroke-width:0; stroke-opacity:1; 
stroke-linecap:round; stroke-linejoin:round;fill-rule:evenodd;"
d="M 80074.6,26448.2
80089.4,26452.7
80103,26460
80114.9,26469.7
80124.7,26481.7
80132,26495.3
80136.4,26510
80138.2,26527.8
80138.2,26779.3
80136.4,26797
80132,26811.8
80124.7,26825.4
80114.9,26837.3
80103,26847.1
80089.4,26854.4
80074.6,26858.9
80056.8,26860.6
79766,26860.6
79748.2,26858.9
79733.5,26854.4
79719.9,26847.1
79707.9,26837.3
79698.1,26825.4
79690.9,26811.8
79686.4,26797
79684.6,26779.3
79684.6,26527.8
79686.4,26510
79690.9,26495.3
79698.1,26481.7
79707.9,26469.7
79719.9,26460
79733.5,26452.7
79748.2,26448.2
79766,26446.5
80056.8,26446.5
Z" /> 
<path style="fill:#000000; fill-opacity:1.0; 
stroke:#000000; stroke-width:0; stroke-opacity:1; 
stroke-linecap:round; stroke-linejoin:round;fill-rule:evenodd;"
d="M 79385.6,26448.2
79400.4,26452.7
79414,26460
79425.9,26469.7
79435.7,26481.7
79443,26495.3
79447.5,26510
79449.2,26527.8
79449.2,26779.3
79447.5,26797
79443,26811.8
79435.7,26825.4
79425.9,26837.3
79414,26847.1
79400.4,26854.4
79385.6,26858.9
79367.9,26860.6
79077,26860.6
79059.3,26858.9
79044.5,26854.4
79030.9,26847.1
79019,26837.3
79009.2,26825.4
79001.9,26811.8
78997.4,26797
78995.7,26779.3
78995.7,26527.8
78997.4,26510
79001.9,26495.3
79009.2,26481.7
79019,26469.7
79030.9,26460
79044.5,26452.7
79059.3,26448.2
79077,26446.5
79367.9,26446.5
Z" /> 
<path style="fill:#000000; fill-opacity:1.0; 
stroke:#000000; stroke-width:0; stroke-opacity:1; 
stroke-linecap:round; stroke-linejoin:round;fill-rule:evenodd;"
d="M 78068.4,25916.4
78080.5,25920.1
78091.6,25926
78101.4,25934.1
78109.4,25943.8
78115.3,25954.9
78119,25967
78120.5,25982
78120.5,26773.9
78119,26788.9
78115.3,26801
78109.4,26812.1
78101.4,26821.9
78091.6,26829.9
78080.5,26835.8
78068.4,26839.5
78053.4,26840.9
77143.4,26840.9
77128.4,26839.5
77116.4,26835.8
77105.2,26829.9
77095.5,26821.9
77087.5,26812.1
77081.5,26801
77077.9,26788.9
77076.4,26773.9
77076.4,25982
77077.9,25967
77081.5,25954.9
77087.5,25943.8
77095.5,25934.1
77105.2,25926
77116.4,25920.1
77128.4,25916.4
77143.4,25915
78053.4,25915
Z" /> 
<path style="fill:#000000; fill-opacity:1.0; 
stroke:#000000; stroke-width:0; stroke-opacity:1; 
stroke-linecap:round; stroke-linejoin:round;fill-rule:evenodd;"
d="M 75903.1,25916.4
75915.1,25920.1
75926.3,25926
75936,25934.1
75944,25943.8
75950,25954.9
75953.6,25967
75955.1,25982
75955.1,26773.9
75953.6,26788.9
75950,26801
75944,26812.1
75936,26821.9
75926.3,26829.9
75915.1,26835.8
75903.1,26839.5
75888.1,26840.9
74978.1,26840.9
74963.1,26839.5
74951,26835.8
74939.9,26829.9
74930.1,26821.9
74922.1,26812.1
74916.2,26801
74912.5,26788.9
74911,26773.9
74911,25982
74912.5,25967
74916.2,25954.9
74922.1,25943.8
74930.1,25934.1
74939.9,25926
74951,25920.1
74963.1,25916.4
74978.1,25915
75888.1,25915
Z" /> 
<path style="fill:#000000; fill-opacity:1.0; 
stroke:#000000; stroke-width:0; stroke-opacity:1; 
stroke-linecap:round; stroke-linejoin:round;fill-rule:evenodd;"
d="M 73737.7,25916.4
73749.8,25920.1
73760.9,25926
73770.7,25934.1
73778.7,25943.8
73784.6,25954.9
73788.3,25967
73789.8,25982
73789.8,26773.9
73788.3,26788.9
73784.6,26801
73778.7,26812.1
73770.7,26821.9
73760.9,26829.9
73749.8,26835.8
73737.7,26839.5
73722.7,26840.9
72812.7,26840.9
72797.7,26839.5
72785.6,26835.8
72774.5,26829.9
72764.8,26821.9
72756.8,26812.1
72750.8,26801
72747.1,26788.9
72745.7,26773.9
72745.7,25982
72747.1,25967
72750.8,25954.9
72756.8,25943.8
72764.8,25934.1
72774.5,25926
72785.6,25920.1
72797.7,25916.4
72812.7,25915
73722.7,25915
Z" /> 
<path style="fill:#000000; fill-opacity:1.0; 
stroke:#000000; stroke-width:0; stroke-opacity:1; 
stroke-linecap:round; stroke-linejoin:round;fill-rule:evenodd;"
d="M 80074.6,25700.2
80089.4,25704.7
80103,25711.9
80114.9,25721.7
80124.7,25733.6
80132,25747.2
80136.4,25762
80138.2,25779.8
80138.2,26031.2
80136.4,26049
80132,26063.8
80124.7,26077.4
80114.9,26089.3
80103,26099.1
80089.4,26106.4
80074.6,26110.8
80056.8,26112.6
79766,26112.6
79748.2,26110.8
79733.5,26106.4
79719.9,26099.1
79707.9,26089.3
79698.1,26077.4
79690.9,26063.8
79686.4,26049
79684.6,26031.2
79684.6,25779.8
79686.4,25762
79690.9,25747.2
79698.1,25733.6
79707.9,25721.7
79719.9,25711.9
79733.5,25704.7
79748.2,25700.2
79766,25698.4
80056.8,25698.4
Z" /> 
<path style="fill:#000000; fill-opacity:1.0; 
stroke:#000000; stroke-width:0; stroke-opacity:1; 
stroke-linecap:round; stroke-linejoin:round;fill-rule:evenodd;"
d="M 79385.6,25700.2
79400.4,25704.7
79414,25711.9
79425.9,25721.7
79435.7,25733.6
79443,25747.2
79447.5,25762
79449.2,25779.8
79449.2,26031.2
79447.5,26049
79443,26063.8
79435.7,26077.4
79425.9,26089.3
79414,26099.1
79400.4,26106.4
79385.6,26110.8
79367.9,26112.6
79077,26112.6
79059.3,26110.8
79044.5,26106.4
79030.9,26099.1
79019,26089.3
79009.2,26077.4
79001.9,26063.8
78997.4,26049
78995.7,26031.2
78995.7,25779.8
78997.4,25762
79001.9,25747.2
79009.2,25733.6
79019,25721.7
79030.9,25711.9
79044.5,25704.7
79059.3,25700.2
79077,25698.4
79367.9,25698.4
Z" /> 
<path style="fill:#000000; fill-opacity:1.0; 
stroke:#000000; stroke-width:0; stroke-opacity:1; 
stroke-linecap:round; stroke-linejoin:round;fill-rule:evenodd;"
d="M 83594,25317.4
83618.9,25324.9
83641.9,25337.2
83662,25353.7
83678.6,25373.8
83690.8,25396.8
83698.4,25421.7
83701.2,25450.1
83701.2,25809.8
83698.4,25838.1
83690.8,25863
83678.6,25886
83662,25906.1
83641.9,25922.7
83618.9,25934.9
83594,25942.5
83565.7,25945.3
82812.3,25945.3
82783.9,25942.5
82759,25934.9
82736,25922.7
82715.9,25906.1
82699.4,25886
82687.1,25863
82679.6,25838.1
82676.8,25809.8
82676.8,25450.1
82679.6,25421.7
82687.1,25396.8
82699.4,25373.8
82715.9,25353.7
82736,25337.2
82759,25324.9
82783.9,25317.4
82812.3,25314.6
83565.7,25314.6
Z" /> 
<path style="fill:#000000; fill-opacity:1.0; 
stroke:#000000; stroke-width:0; stroke-opacity:1; 
stroke-linecap:round; stroke-linejoin:round;fill-rule:evenodd;"
d="M 79385.6,24952.1
79400.4,24956.6
79414,24963.9
79425.9,24973.7
79435.7,24985.6
79443,24999.2
79447.5,25014
79449.2,25031.7
79449.2,25283.2
79447.5,25301
79443,25315.7
79435.7,25329.4
79425.9,25341.3
79414,25351.1
79400.4,25358.3
79385.6,25362.8
79367.9,25364.6
79077,25364.6
79059.3,25362.8
79044.5,25358.3
79030.9,25351.1
79019,25341.3
79009.2,25329.4
79001.9,25315.7
78997.4,25301
78995.7,25283.2
78995.7,25031.7
78997.4,25014
79001.9,24999.2
79009.2,24985.6
79019,24973.7
79030.9,24963.9
79044.5,24956.6
79059.3,24952.1
79077,24950.4
79367.9,24950.4
Z" /> 
<path style="fill:#000000; fill-opacity:1.0; 
stroke:#000000; stroke-width:0; stroke-opacity:1; 
stroke-linecap:round; stroke-linejoin:round;fill-rule:evenodd;"
d="M 80074.6,24952.1
80089.4,24956.6
80103,24963.9
80114.9,24973.7
80124.7,24985.6
80132,24999.2
80136.4,25014
80138.2,25031.7
80138.2,25283.2
80136.4,25301
80132,25315.7
80124.7,25329.4
80114.9,25341.3
80103,25351.1
80089.4,25358.3
80074.6,25362.8
80056.8,25364.6
79766,25364.6
79748.2,25362.8
79733.5,25358.3
79719.9,25351.1
79707.9,25341.3
79698.1,25329.4
79690.9,25315.7
79686.4,25301
79684.6,25283.2
79684.6,25031.7
79686.4,25014
79690.9,24999.2
79698.1,24985.6
79707.9,24973.7
79719.9,24963.9
79733.5,24956.6
79748.2,24952.1
79766,24950.4
80056.8,24950.4
Z" /> 
<path style="fill:#000000; fill-opacity:1.0; 
stroke:#000000; stroke-width:0; stroke-opacity:1; 
stroke-linecap:round; stroke-linejoin:round;fill-rule:evenodd;"
d="M 83594,24254.4
83618.9,24261.9
83641.9,24274.2
83662,24290.7
83678.6,24310.8
83690.8,24333.8
83698.4,24358.7
83701.2,24387.1
83701.2,24746.8
83698.4,24775.1
83690.8,24800
83678.6,24823
83662,24843.1
83641.9,24859.7
83618.9,24871.9
83594,24879.5
83565.7,24882.3
82812.3,24882.3
82783.9,24879.5
82759,24871.9
82736,24859.7
82715.9,24843.1
82699.4,24823
82687.1,24800
82679.6,24775.1
82676.8,24746.8
82676.8,24387.1
82679.6,24358.7
82687.1,24333.8
82699.4,24310.8
82715.9,24290.7
82736,24274.2
82759,24261.9
82783.9,24254.4
82812.3,24251.6
83565.7,24251.6
Z" /> 
<path style="fill:#000000; fill-opacity:1.0; 
stroke:#000000; stroke-width:0; stroke-opacity:1; 
stroke-linecap:round; stroke-linejoin:round;fill-rule:evenodd;"
d="M 79440.7,24174.7
79456.4,24179.4
79470.9,24187.2
79483.5,24197.6
79493.9,24210.2
79501.7,24224.7
79506.4,24240.4
79508.3,24259.1
79508.3,24520.4
79506.4,24539.1
79501.7,24554.8
79493.9,24569.3
79483.5,24582
79470.9,24592.4
79456.4,24600.1
79440.7,24604.8
79422,24606.7
79160.7,24606.7
79142,24604.8
79126.3,24600.1
79111.8,24592.4
79099.1,24582
79088.7,24569.3
79081,24554.8
79076.3,24539.1
79074.4,24520.4
79074.4,24259.1
79076.3,24240.4
79081,24224.7
79088.7,24210.2
79099.1,24197.6
79111.8,24187.2
79126.3,24179.4
79142,24174.7
79160.7,24172.8
79422,24172.8
Z" /> 
<path style="fill:#000000; fill-opacity:1.0; 
stroke:#000000; stroke-width:0; stroke-opacity:1; 
stroke-linecap:round; stroke-linejoin:round;fill-rule:evenodd;"
d="M 80346.2,24174.7
80361.9,24179.4
80376.4,24187.2
80389,24197.6
80399.4,24210.2
80407.2,24224.7
80411.9,24240.4
80413.8,24259.1
80413.8,24520.4
80411.9,24539.1
80407.2,24554.8
80399.4,24569.3
80389,24582
80376.4,24592.4
80361.9,24600.1
80346.2,24604.8
80327.5,24606.7
80066.2,24606.7
80047.5,24604.8
80031.8,24600.1
80017.3,24592.4
80004.7,24582
79994.3,24569.3
79986.5,24554.8
79981.8,24539.1
79979.9,24520.4
79979.9,24259.1
79981.8,24240.4
79986.5,24224.7
79994.3,24210.2
80004.7,24197.6
80017.3,24187.2
80031.8,24179.4
80047.5,24174.7
80066.2,24172.8
80327.5,24172.8
Z" /> 
<path style="fill:#000000; fill-opacity:1.0; 
stroke:#000000; stroke-width:0; stroke-opacity:1; 
stroke-linecap:round; stroke-linejoin:round;fill-rule:evenodd;"
d="M 81251.7,24174.7
81267.4,24179.4
81281.9,24187.2
81294.6,24197.6
81305,24210.2
81312.7,24224.7
81317.4,24240.4
81319.3,24259.1
81319.3,24520.4
81317.4,24539.1
81312.7,24554.8
81305,24569.3
81294.6,24582
81281.9,24592.4
81267.4,24600.1
81251.7,24604.8
81233,24606.7
80971.7,24606.7
80953,24604.8
80937.3,24600.1
80922.8,24592.4
80910.2,24582
80899.8,24569.3
80892,24554.8
80887.3,24539.1
80885.4,24520.4
80885.4,24259.1
80887.3,24240.4
80892,24224.7
80899.8,24210.2
80910.2,24197.6
80922.8,24187.2
80937.3,24179.4
80953,24174.7
80971.7,24172.8
81233,24172.8
Z" /> 
<path style="fill:#000000; fill-opacity:1.0; 
stroke:#000000; stroke-width:0; stroke-opacity:1; 
stroke-linecap:round; stroke-linejoin:round;fill-rule:evenodd;"
d="M 75903.1,23396.8
75915.1,23400.4
75926.3,23406.4
75936,23414.4
75944,23424.1
75950,23435.3
75953.6,23447.3
75955.1,23462.3
75955.1,24254.2
75953.6,24269.2
75950,24281.3
75944,24292.4
75936,24302.2
75926.3,24310.2
75915.1,24316.1
75903.1,24319.8
75888.1,24321.3
74978.1,24321.3
74963.1,24319.8
74951,24316.1
74939.9,24310.2
74930.1,24302.2
74922.1,24292.4
74916.2,24281.3
74912.5,24269.2
74911,24254.2
74911,23462.3
74912.5,23447.3
74916.2,23435.3
74922.1,23424.1
74930.1,23414.4
74939.9,23406.4
74951,23400.4
74963.1,23396.8
74978.1,23395.3
75888.1,23395.3
Z" /> 
<path style="fill:#000000; fill-opacity:1.0; 
stroke:#000000; stroke-width:0; stroke-opacity:1; 
stroke-linecap:round; stroke-linejoin:round;fill-rule:evenodd;"
d="M 78068.4,23396.8
78080.5,23400.4
78091.6,23406.4
78101.4,23414.4
78109.4,23424.1
78115.3,23435.3
78119,23447.3
78120.5,23462.3
78120.5,24254.2
78119,24269.2
78115.3,24281.3
78109.4,24292.4
78101.4,24302.2
78091.6,24310.2
78080.5,24316.1
78068.4,24319.8
78053.4,24321.3
77143.4,24321.3
77128.4,24319.8
77116.4,24316.1
77105.2,24310.2
77095.5,24302.2
77087.5,24292.4
77081.5,24281.3
77077.9,24269.2
77076.4,24254.2
77076.4,23462.3
77077.9,23447.3
77081.5,23435.3
77087.5,23424.1
77095.5,23414.4
77105.2,23406.4
77116.4,23400.4
77128.4,23396.8
77143.4,23395.3
78053.4,23395.3
Z" /> 
<path style="fill:#000000; fill-opacity:1.0; 
stroke:#000000; stroke-width:0; stroke-opacity:1; 
stroke-linecap:round; stroke-linejoin:round;fill-rule:evenodd;"
d="M 73737.7,23396.8
73749.8,23400.4
73760.9,23406.4
73770.7,23414.4
73778.7,23424.1
73784.6,23435.3
73788.3,23447.3
73789.8,23462.3
73789.8,24254.2
73788.3,24269.2
73784.6,24281.3
73778.7,24292.4
73770.7,24302.2
73760.9,24310.2
73749.8,24316.1
73737.7,24319.8
73722.7,24321.3
72812.7,24321.3
72797.7,24319.8
72785.6,24316.1
72774.5,24310.2
72764.8,24302.2
72756.8,24292.4
72750.8,24281.3
72747.1,24269.2
72745.7,24254.2
72745.7,23462.3
72747.1,23447.3
72750.8,23435.3
72756.8,23424.1
72764.8,23414.4
72774.5,23406.4
72785.6,23400.4
72797.7,23396.8
72812.7,23395.3
73722.7,23395.3
Z" /> 
<path style="fill:#000000; fill-opacity:1.0; 
stroke:#000000; stroke-width:0; stroke-opacity:1; 
stroke-linecap:round; stroke-linejoin:round;fill-rule:evenodd;"
d="M 83594,23191.4
83618.9,23198.9
83641.9,23211.2
83662,23227.7
83678.6,23247.9
83690.8,23270.8
83698.4,23295.7
83701.2,23324.1
83701.2,23683.8
83698.4,23712.1
83690.8,23737.1
83678.6,23760
83662,23780.1
83641.9,23796.7
83618.9,23808.9
83594,23816.5
83565.7,23819.3
82812.3,23819.3
82783.9,23816.5
82759,23808.9
82736,23796.7
82715.9,23780.1
82699.4,23760
82687.1,23737.1
82679.6,23712.1
82676.8,23683.8
82676.8,23324.1
82679.6,23295.7
82687.1,23270.8
82699.4,23247.9
82715.9,23227.7
82736,23211.2
82759,23198.9
82783.9,23191.4
82812.3,23188.6
83565.7,23188.6
Z" /> 
<path style="fill:#000000; fill-opacity:1.0; 
stroke:#000000; stroke-width:0; stroke-opacity:1; 
stroke-linecap:round; stroke-linejoin:round;fill-rule:evenodd;"
d="M 81251.7,23190.4
81267.4,23195.2
81281.9,23202.9
81294.6,23213.3
81305,23226
81312.7,23240.4
81317.4,23256.1
81319.3,23274.9
81319.3,23536.2
81317.4,23554.9
81312.7,23570.6
81305,23585
81294.6,23597.7
81281.9,23608.1
81267.4,23615.8
81251.7,23620.6
81233,23622.4
80971.7,23622.4
80953,23620.6
80937.3,23615.8
80922.8,23608.1
80910.2,23597.7
80899.8,23585
80892,23570.6
80887.3,23554.9
80885.4,23536.2
80885.4,23274.9
80887.3,23256.1
80892,23240.4
80899.8,23226
80910.2,23213.3
80922.8,23202.9
80937.3,23195.2
80953,23190.4
80971.7,23188.6
81233,23188.6
Z" /> 
<path style="fill:#000000; fill-opacity:1.0; 
stroke:#000000; stroke-width:0; stroke-opacity:1; 
stroke-linecap:round; stroke-linejoin:round;fill-rule:evenodd;"
d="M 80346.2,23190.4
80361.9,23195.2
80376.4,23202.9
80389,23213.3
80399.4,23226
80407.2,23240.4
80411.9,23256.1
80413.8,23274.9
80413.8,23536.2
80411.9,23554.9
80407.2,23570.6
80399.4,23585
80389,23597.7
80376.4,23608.1
80361.9,23615.8
80346.2,23620.6
80327.5,23622.4
80066.2,23622.4
80047.5,23620.6
80031.8,23615.8
80017.3,23608.1
80004.7,23597.7
79994.3,23585
79986.5,23570.6
79981.8,23554.9
79979.9,23536.2
79979.9,23274.9
79981.8,23256.1
79986.5,23240.4
79994.3,23226
80004.7,23213.3
80017.3,23202.9
80031.8,23195.2
80047.5,23190.4
80066.2,23188.6
80327.5,23188.6
Z" /> 
<path style="fill:#000000; fill-opacity:1.0; 
stroke:#000000; stroke-width:0; stroke-opacity:1; 
stroke-linecap:round; stroke-linejoin:round;fill-rule:evenodd;"
d="M 79440.7,23190.4
79456.4,23195.2
79470.9,23202.9
79483.5,23213.3
79493.9,23226
79501.7,23240.4
79506.4,23256.1
79508.3,23274.9
79508.3,23536.2
79506.4,23554.9
79501.7,23570.6
79493.9,23585
79483.5,23597.7
79470.9,23608.1
79456.4,23615.8
79440.7,23620.6
79422,23622.4
79160.7,23622.4
79142,23620.6
79126.3,23615.8
79111.8,23608.1
79099.1,23597.7
79088.7,23585
79081,23570.6
79076.3,23554.9
79074.4,23536.2
79074.4,23274.9
79076.3,23256.1
79081,23240.4
79088.7,23226
79099.1,23213.3
79111.8,23202.9
79126.3,23195.2
79142,23190.4
79160.7,23188.6
79422,23188.6
Z" /> 
<path style="fill:#000000; fill-opacity:1.0; 
stroke:#000000; stroke-width:0; stroke-opacity:1; 
stroke-linecap:round; stroke-linejoin:round;fill-rule:evenodd;"
d="M 79440.7,22481.8
79456.4,22486.5
79470.9,22494.3
79483.5,22504.7
79493.9,22517.3
79501.7,22531.8
79506.4,22547.5
79508.3,22566.2
79508.3,22827.5
79506.4,22846.2
79501.7,22861.9
79493.9,22876.4
79483.5,22889
79470.9,22899.4
79456.4,22907.2
79440.7,22911.9
79422,22913.8
79160.7,22913.8
79142,22911.9
79126.3,22907.2
79111.8,22899.4
79099.1,22889
79088.7,22876.4
79081,22861.9
79076.3,22846.2
79074.4,22827.5
79074.4,22566.2
79076.3,22547.5
79081,22531.8
79088.7,22517.3
79099.1,22504.7
79111.8,22494.3
79126.3,22486.5
79142,22481.8
79160.7,22479.9
79422,22479.9
Z" /> 
<path style="fill:#000000; fill-opacity:1.0; 
stroke:#000000; stroke-width:0; stroke-opacity:1; 
stroke-linecap:round; stroke-linejoin:round;fill-rule:evenodd;"
d="M 74907.3,22442.3
74922,22446.8
74935.7,22454.1
74947.6,22463.8
74957.4,22475.8
74964.6,22489.4
74969.1,22504.1
74970.9,22521.9
74970.9,22812.7
74969.1,22830.5
74964.6,22845.3
74957.4,22858.9
74947.6,22870.8
74935.7,22880.6
74922,22887.9
74907.3,22892.3
74889.5,22894.1
74638,22894.1
74620.3,22892.3
74605.5,22887.9
74591.9,22880.6
74580,22870.8
74570.2,22858.9
74562.9,22845.3
74558.4,22830.5
74556.7,22812.7
74556.7,22521.9
74558.4,22504.1
74562.9,22489.4
74570.2,22475.8
74580,22463.8
74591.9,22454.1
74605.5,22446.8
74620.3,22442.3
74638,22440.6
74889.5,22440.6
Z" /> 
<path style="fill:#000000; fill-opacity:1.0; 
stroke:#000000; stroke-width:0; stroke-opacity:1; 
stroke-linecap:round; stroke-linejoin:round;fill-rule:evenodd;"
d="M 77072.6,22442.3
77087.4,22446.8
77101,22454.1
77112.9,22463.8
77122.7,22475.8
77130,22489.4
77134.5,22504.1
77136.2,22521.9
77136.2,22812.7
77134.5,22830.5
77130,22845.3
77122.7,22858.9
77112.9,22870.8
77101,22880.6
77087.4,22887.9
77072.6,22892.3
77054.9,22894.1
76803.4,22894.1
76785.6,22892.3
76770.9,22887.9
76757.3,22880.6
76745.3,22870.8
76735.5,22858.9
76728.3,22845.3
76723.8,22830.5
76722,22812.7
76722,22521.9
76723.8,22504.1
76728.3,22489.4
76735.5,22475.8
76745.3,22463.8
76757.3,22454.1
76770.9,22446.8
76785.6,22442.3
76803.4,22440.6
77054.9,22440.6
Z" /> 
<path style="fill:#000000; fill-opacity:1.0; 
stroke:#000000; stroke-width:0; stroke-opacity:1; 
stroke-linecap:round; stroke-linejoin:round;fill-rule:evenodd;"
d="M 72741.9,22442.3
72756.7,22446.8
72770.3,22454.1
72782.2,22463.8
72792,22475.8
72799.3,22489.4
72803.8,22504.1
72805.5,22521.9
72805.5,22812.7
72803.8,22830.5
72799.3,22845.3
72792,22858.9
72782.2,22870.8
72770.3,22880.6
72756.7,22887.9
72741.9,22892.3
72724.2,22894.1
72472.7,22894.1
72454.9,22892.3
72440.2,22887.9
72426.6,22880.6
72414.6,22870.8
72404.8,22858.9
72397.6,22845.3
72393.1,22830.5
72391.3,22812.7
72391.3,22521.9
72393.1,22504.1
72397.6,22489.4
72404.8,22475.8
72414.6,22463.8
72426.6,22454.1
72440.2,22446.8
72454.9,22442.3
72472.7,22440.6
72724.2,22440.6
Z" /> 
<path style="fill:#000000; fill-opacity:1.0; 
stroke:#000000; stroke-width:0; stroke-opacity:1; 
stroke-linecap:round; stroke-linejoin:round;fill-rule:evenodd;"
d="M 78460.4,22471.8
78475.2,22476.3
78488.8,22483.6
78500.7,22493.4
78510.5,22505.3
78517.8,22518.9
78522.3,22533.7
78524,22551.4
78524,22802.9
78522.3,22820.7
78517.8,22835.4
78510.5,22849
78500.7,22861
78488.8,22870.8
78475.2,22878
78460.4,22882.5
78442.7,22884.3
78151.8,22884.3
78134.1,22882.5
78119.3,22878
78105.7,22870.8
78093.8,22861
78084,22849
78076.7,22835.4
78072.2,22820.7
78070.5,22802.9
78070.5,22551.4
78072.2,22533.7
78076.7,22518.9
78084,22505.3
78093.8,22493.4
78105.7,22483.6
78119.3,22476.3
78134.1,22471.8
78151.8,22470.1
78442.7,22470.1
Z" /> 
<path style="fill:#000000; fill-opacity:1.0; 
stroke:#000000; stroke-width:0; stroke-opacity:1; 
stroke-linecap:round; stroke-linejoin:round;fill-rule:evenodd;"
d="M 77771.5,22471.8
77786.2,22476.3
77799.8,22483.6
77811.8,22493.4
77821.5,22505.3
77828.8,22518.9
77833.3,22533.7
77835,22551.4
77835,22802.9
77833.3,22820.7
77828.8,22835.4
77821.5,22849
77811.8,22861
77799.8,22870.8
77786.2,22878
77771.5,22882.5
77753.7,22884.3
77462.8,22884.3
77445.1,22882.5
77430.3,22878
77416.7,22870.8
77404.8,22861
77395,22849
77387.7,22835.4
77383.2,22820.7
77381.5,22802.9
77381.5,22551.4
77383.2,22533.7
77387.7,22518.9
77395,22505.3
77404.8,22493.4
77416.7,22483.6
77430.3,22476.3
77445.1,22471.8
77462.8,22470.1
77753.7,22470.1
Z" /> 
<path style="fill:#000000; fill-opacity:1.0; 
stroke:#000000; stroke-width:0; stroke-opacity:1; 
stroke-linecap:round; stroke-linejoin:round;fill-rule:evenodd;"
d="M 76295.1,22471.8
76309.8,22476.3
76323.4,22483.6
76335.4,22493.4
76345.2,22505.3
76352.4,22518.9
76356.9,22533.7
76358.7,22551.4
76358.7,22802.9
76356.9,22820.7
76352.4,22835.4
76345.2,22849
76335.4,22861
76323.4,22870.8
76309.8,22878
76295.1,22882.5
76277.3,22884.3
75986.5,22884.3
75968.7,22882.5
75953.9,22878
75940.3,22870.8
75928.4,22861
75918.6,22849
75911.3,22835.4
75906.9,22820.7
75905.1,22802.9
75905.1,22551.4
75906.9,22533.7
75911.3,22518.9
75918.6,22505.3
75928.4,22493.4
75940.3,22483.6
75953.9,22476.3
75968.7,22471.8
75986.5,22470.1
76277.3,22470.1
Z" /> 
<path style="fill:#000000; fill-opacity:1.0; 
stroke:#000000; stroke-width:0; stroke-opacity:1; 
stroke-linecap:round; stroke-linejoin:round;fill-rule:evenodd;"
d="M 75606.1,22471.8
75620.9,22476.3
75634.5,22483.6
75646.4,22493.4
75656.2,22505.3
75663.5,22518.9
75667.9,22533.7
75669.7,22551.4
75669.7,22802.9
75667.9,22820.7
75663.5,22835.4
75656.2,22849
75646.4,22861
75634.5,22870.8
75620.9,22878
75606.1,22882.5
75588.3,22884.3
75297.5,22884.3
75279.7,22882.5
75265,22878
75251.4,22870.8
75239.4,22861
75229.6,22849
75222.4,22835.4
75217.9,22820.7
75216.1,22802.9
75216.1,22551.4
75217.9,22533.7
75222.4,22518.9
75229.6,22505.3
75239.4,22493.4
75251.4,22483.6
75265,22476.3
75279.7,22471.8
75297.5,22470.1
75588.3,22470.1
Z" /> 
<path style="fill:#000000; fill-opacity:1.0; 
stroke:#000000; stroke-width:0; stroke-opacity:1; 
stroke-linecap:round; stroke-linejoin:round;fill-rule:evenodd;"
d="M 74129.7,22471.8
74144.5,22476.3
74158.1,22483.6
74170,22493.4
74179.8,22505.3
74187.1,22518.9
74191.6,22533.7
74193.3,22551.4
74193.3,22802.9
74191.6,22820.7
74187.1,22835.4
74179.8,22849
74170,22861
74158.1,22870.8
74144.5,22878
74129.7,22882.5
74112,22884.3
73821.1,22884.3
73803.3,22882.5
73788.6,22878
73775,22870.8
73763.1,22861
73753.3,22849
73746,22835.4
73741.5,22820.7
73739.8,22802.9
73739.8,22551.4
73741.5,22533.7
73746,22518.9
73753.3,22505.3
73763.1,22493.4
73775,22483.6
73788.6,22476.3
73803.3,22471.8
73821.1,22470.1
74112,22470.1
Z" /> 
<path style="fill:#000000; fill-opacity:1.0; 
stroke:#000000; stroke-width:0; stroke-opacity:1; 
stroke-linecap:round; stroke-linejoin:round;fill-rule:evenodd;"
d="M 73440.7,22471.8
73455.5,22476.3
73469.1,22483.6
73481,22493.4
73490.8,22505.3
73498.1,22518.9
73502.6,22533.7
73504.3,22551.4
73504.3,22802.9
73502.6,22820.7
73498.1,22835.4
73490.8,22849
73481,22861
73469.1,22870.8
73455.5,22878
73440.7,22882.5
73423,22884.3
73132.1,22884.3
73114.4,22882.5
73099.6,22878
73086,22870.8
73074.1,22861
73064.3,22849
73057,22835.4
73052.5,22820.7
73050.8,22802.9
73050.8,22551.4
73052.5,22533.7
73057,22518.9
73064.3,22505.3
73074.1,22493.4
73086,22483.6
73099.6,22476.3
73114.4,22471.8
73132.1,22470.1
73423,22470.1
Z" /> 
<path style="fill:#000000; fill-opacity:1.0; 
stroke:#000000; stroke-width:0; stroke-opacity:1; 
stroke-linecap:round; stroke-linejoin:round;fill-rule:evenodd;"
d="M 82531,21419.7
82555.9,21427.3
82578.9,21439.6
82599,21456.1
82615.6,21476.2
82627.8,21499.2
82635.4,21524.1
82638.2,21552.4
82638.2,22305.9
82635.4,22334.2
82627.8,22359.1
82615.6,22382.1
82599,22402.2
82578.9,22418.7
82555.9,22431
82531,22438.5
82502.7,22441.3
82143,22441.3
82114.6,22438.5
82089.7,22431
82066.8,22418.7
82046.6,22402.2
82030.1,22382.1
82017.8,22359.1
82010.3,22334.2
82007.5,22305.9
82007.5,21552.4
82010.3,21524.1
82017.8,21499.2
82030.1,21476.2
82046.6,21456.1
82066.8,21439.6
82089.7,21427.3
82114.6,21419.7
82143,21416.9
82502.7,21416.9
Z" /> 
<path style="fill:#000000; fill-opacity:1.0; 
stroke:#000000; stroke-width:0; stroke-opacity:1; 
stroke-linecap:round; stroke-linejoin:round;fill-rule:evenodd;"
d="M 80405,21419.7
80430,21427.3
80452.9,21439.6
80473.1,21456.1
80489.6,21476.2
80501.9,21499.2
80509.4,21524.1
80512.2,21552.4
80512.2,22305.9
80509.4,22334.2
80501.9,22359.1
80489.6,22382.1
80473.1,22402.2
80452.9,22418.7
80430,22431
80405,22438.5
80376.7,22441.3
80017,22441.3
79988.7,22438.5
79963.7,22431
79940.8,22418.7
79920.6,22402.2
79904.1,22382.1
79891.8,22359.1
79884.3,22334.2
79881.5,22305.9
79881.5,21552.4
79884.3,21524.1
79891.8,21499.2
79904.1,21476.2
79920.6,21456.1
79940.8,21439.6
79963.7,21427.3
79988.7,21419.7
80017,21416.9
80376.7,21416.9
Z" /> 
<path style="fill:#000000; fill-opacity:1.0; 
stroke:#000000; stroke-width:0; stroke-opacity:1; 
stroke-linecap:round; stroke-linejoin:round;fill-rule:evenodd;"
d="M 81468,21419.7
81493,21427.3
81515.9,21439.6
81536.1,21456.1
81552.6,21476.2
81564.8,21499.2
81572.4,21524.1
81575.2,21552.4
81575.2,22305.9
81572.4,22334.2
81564.8,22359.1
81552.6,22382.1
81536.1,22402.2
81515.9,22418.7
81493,22431
81468,22438.5
81439.7,22441.3
81080,22441.3
81051.6,22438.5
81026.7,22431
81003.8,22418.7
80983.6,22402.2
80967.1,22382.1
80954.8,22359.1
80947.3,22334.2
80944.5,22305.9
80944.5,21552.4
80947.3,21524.1
80954.8,21499.2
80967.1,21476.2
80983.6,21456.1
81003.8,21439.6
81026.7,21427.3
81051.6,21419.7
81080,21416.9
81439.7,21416.9
Z" /> 
<path style="fill:#000000; fill-opacity:1.0; 
stroke:#000000; stroke-width:0; stroke-opacity:1; 
stroke-linecap:round; stroke-linejoin:round;fill-rule:evenodd;"
d="M 83594,21419.7
83618.9,21427.3
83641.9,21439.6
83662,21456.1
83678.6,21476.2
83690.8,21499.2
83698.4,21524.1
83701.2,21552.4
83701.2,22305.9
83698.4,22334.2
83690.8,22359.1
83678.6,22382.1
83662,22402.2
83641.9,22418.7
83618.9,22431
83594,22438.5
83565.7,22441.3
83206,22441.3
83177.6,22438.5
83152.7,22431
83129.7,22418.7
83109.6,22402.2
83093.1,22382.1
83080.8,22359.1
83073.3,22334.2
83070.5,22305.9
83070.5,21552.4
83073.3,21524.1
83080.8,21499.2
83093.1,21476.2
83109.6,21456.1
83129.7,21439.6
83152.7,21427.3
83177.6,21419.7
83206,21416.9
83565.7,21416.9
Z" /> 
<path style="fill:#000000; fill-opacity:1.0; 
stroke:#000000; stroke-width:0; stroke-opacity:1; 
stroke-linecap:round; stroke-linejoin:round;fill-rule:evenodd;"
d="M 74907.3,21753.3
74922,21757.8
74935.7,21765.1
74947.6,21774.9
74957.4,21786.8
74964.6,21800.4
74969.1,21815.2
74970.9,21832.9
74970.9,22123.8
74969.1,22141.5
74964.6,22156.3
74957.4,22169.9
74947.6,22181.8
74935.7,22191.6
74922,22198.9
74907.3,22203.4
74889.5,22205.1
74638,22205.1
74620.3,22203.4
74605.5,22198.9
74591.9,22191.6
74580,22181.8
74570.2,22169.9
74562.9,22156.3
74558.4,22141.5
74556.7,22123.8
74556.7,21832.9
74558.4,21815.2
74562.9,21800.4
74570.2,21786.8
74580,21774.9
74591.9,21765.1
74605.5,21757.8
74620.3,21753.3
74638,21751.6
74889.5,21751.6
Z" /> 
<path style="fill:#000000; fill-opacity:1.0; 
stroke:#000000; stroke-width:0; stroke-opacity:1; 
stroke-linecap:round; stroke-linejoin:round;fill-rule:evenodd;"
d="M 77072.6,21753.3
77087.4,21757.8
77101,21765.1
77112.9,21774.9
77122.7,21786.8
77130,21800.4
77134.5,21815.2
77136.2,21832.9
77136.2,22123.8
77134.5,22141.5
77130,22156.3
77122.7,22169.9
77112.9,22181.8
77101,22191.6
77087.4,22198.9
77072.6,22203.4
77054.9,22205.1
76803.4,22205.1
76785.6,22203.4
76770.9,22198.9
76757.3,22191.6
76745.3,22181.8
76735.5,22169.9
76728.3,22156.3
76723.8,22141.5
76722,22123.8
76722,21832.9
76723.8,21815.2
76728.3,21800.4
76735.5,21786.8
76745.3,21774.9
76757.3,21765.1
76770.9,21757.8
76785.6,21753.3
76803.4,21751.6
77054.9,21751.6
Z" /> 
<path style="fill:#000000; fill-opacity:1.0; 
stroke:#000000; stroke-width:0; stroke-opacity:1; 
stroke-linecap:round; stroke-linejoin:round;fill-rule:evenodd;"
d="M 72741.9,21753.3
72756.7,21757.8
72770.3,21765.1
72782.2,21774.9
72792,21786.8
72799.3,21800.4
72803.8,21815.2
72805.5,21832.9
72805.5,22123.8
72803.8,22141.5
72799.3,22156.3
72792,22169.9
72782.2,22181.8
72770.3,22191.6
72756.7,22198.9
72741.9,22203.4
72724.2,22205.1
72472.7,22205.1
72454.9,22203.4
72440.2,22198.9
72426.6,22191.6
72414.6,22181.8
72404.8,22169.9
72397.6,22156.3
72393.1,22141.5
72391.3,22123.8
72391.3,21832.9
72393.1,21815.2
72397.6,21800.4
72404.8,21786.8
72414.6,21774.9
72426.6,21765.1
72440.2,21757.8
72454.9,21753.3
72472.7,21751.6
72724.2,21751.6
Z" /> 
<path style="fill:#000000; fill-opacity:1.0; 
stroke:#000000; stroke-width:0; stroke-opacity:1; 
stroke-linecap:round; stroke-linejoin:round;fill-rule:evenodd;"
d="M 73440.7,21763.2
73455.5,21767.6
73469.1,21774.9
73481,21784.7
73490.8,21796.6
73498.1,21810.2
73502.6,21825
73504.3,21842.8
73504.3,22094.2
73502.6,22112
73498.1,22126.8
73490.8,22140.4
73481,22152.3
73469.1,22162.1
73455.5,22169.4
73440.7,22173.8
73423,22175.6
73132.1,22175.6
73114.4,22173.8
73099.6,22169.4
73086,22162.1
73074.1,22152.3
73064.3,22140.4
73057,22126.8
73052.5,22112
73050.8,22094.2
73050.8,21842.8
73052.5,21825
73057,21810.2
73064.3,21796.6
73074.1,21784.7
73086,21774.9
73099.6,21767.6
73114.4,21763.2
73132.1,21761.4
73423,21761.4
Z" /> 
<path style="fill:#000000; fill-opacity:1.0; 
stroke:#000000; stroke-width:0; stroke-opacity:1; 
stroke-linecap:round; stroke-linejoin:round;fill-rule:evenodd;"
d="M 74129.7,21763.2
74144.5,21767.6
74158.1,21774.9
74170,21784.7
74179.8,21796.6
74187.1,21810.2
74191.6,21825
74193.3,21842.8
74193.3,22094.2
74191.6,22112
74187.1,22126.8
74179.8,22140.4
74170,22152.3
74158.1,22162.1
74144.5,22169.4
74129.7,22173.8
74112,22175.6
73821.1,22175.6
73803.3,22173.8
73788.6,22169.4
73775,22162.1
73763.1,22152.3
73753.3,22140.4
73746,22126.8
73741.5,22112
73739.8,22094.2
73739.8,21842.8
73741.5,21825
73746,21810.2
73753.3,21796.6
73763.1,21784.7
73775,21774.9
73788.6,21767.6
73803.3,21763.2
73821.1,21761.4
74112,21761.4
Z" /> 
<path style="fill:#000000; fill-opacity:1.0; 
stroke:#000000; stroke-width:0; stroke-opacity:1; 
stroke-linecap:round; stroke-linejoin:round;fill-rule:evenodd;"
d="M 77771.5,21763.2
77786.2,21767.6
77799.8,21774.9
77811.8,21784.7
77821.5,21796.6
77828.8,21810.2
77833.3,21825
77835,21842.8
77835,22094.2
77833.3,22112
77828.8,22126.8
77821.5,22140.4
77811.8,22152.3
77799.8,22162.1
77786.2,22169.4
77771.5,22173.8
77753.7,22175.6
77462.8,22175.6
77445.1,22173.8
77430.3,22169.4
77416.7,22162.1
77404.8,22152.3
77395,22140.4
77387.7,22126.8
77383.2,22112
77381.5,22094.2
77381.5,21842.8
77383.2,21825
77387.7,21810.2
77395,21796.6
77404.8,21784.7
77416.7,21774.9
77430.3,21767.6
77445.1,21763.2
77462.8,21761.4
77753.7,21761.4
Z" /> 
<path style="fill:#000000; fill-opacity:1.0; 
stroke:#000000; stroke-width:0; stroke-opacity:1; 
stroke-linecap:round; stroke-linejoin:round;fill-rule:evenodd;"
d="M 78460.4,21763.2
78475.2,21767.6
78488.8,21774.9
78500.7,21784.7
78510.5,21796.6
78517.8,21810.2
78522.3,21825
78524,21842.8
78524,22094.2
78522.3,22112
78517.8,22126.8
78510.5,22140.4
78500.7,22152.3
78488.8,22162.1
78475.2,22169.4
78460.4,22173.8
78442.7,22175.6
78151.8,22175.6
78134.1,22173.8
78119.3,22169.4
78105.7,22162.1
78093.8,22152.3
78084,22140.4
78076.7,22126.8
78072.2,22112
78070.5,22094.2
78070.5,21842.8
78072.2,21825
78076.7,21810.2
78084,21796.6
78093.8,21784.7
78105.7,21774.9
78119.3,21767.6
78134.1,21763.2
78151.8,21761.4
78442.7,21761.4
Z" /> 
<path style="fill:#000000; fill-opacity:1.0; 
stroke:#000000; stroke-width:0; stroke-opacity:1; 
stroke-linecap:round; stroke-linejoin:round;fill-rule:evenodd;"
d="M 75606.1,21763.2
75620.9,21767.6
75634.5,21774.9
75646.4,21784.7
75656.2,21796.6
75663.5,21810.2
75667.9,21825
75669.7,21842.8
75669.7,22094.2
75667.9,22112
75663.5,22126.8
75656.2,22140.4
75646.4,22152.3
75634.5,22162.1
75620.9,22169.4
75606.1,22173.8
75588.3,22175.6
75297.5,22175.6
75279.7,22173.8
75265,22169.4
75251.4,22162.1
75239.4,22152.3
75229.6,22140.4
75222.4,22126.8
75217.9,22112
75216.1,22094.2
75216.1,21842.8
75217.9,21825
75222.4,21810.2
75229.6,21796.6
75239.4,21784.7
75251.4,21774.9
75265,21767.6
75279.7,21763.2
75297.5,21761.4
75588.3,21761.4
Z" /> 
<path style="fill:#000000; fill-opacity:1.0; 
stroke:#000000; stroke-width:0; stroke-opacity:1; 
stroke-linecap:round; stroke-linejoin:round;fill-rule:evenodd;"
d="M 76295.1,21763.2
76309.8,21767.6
76323.4,21774.9
76335.4,21784.7
76345.2,21796.6
76352.4,21810.2
76356.9,21825
76358.7,21842.8
76358.7,22094.2
76356.9,22112
76352.4,22126.8
76345.2,22140.4
76335.4,22152.3
76323.4,22162.1
76309.8,22169.4
76295.1,22173.8
76277.3,22175.6
75986.5,22175.6
75968.7,22173.8
75953.9,22169.4
75940.3,22162.1
75928.4,22152.3
75918.6,22140.4
75911.3,22126.8
75906.9,22112
75905.1,22094.2
75905.1,21842.8
75906.9,21825
75911.3,21810.2
75918.6,21796.6
75928.4,21784.7
75940.3,21774.9
75953.9,21767.6
75968.7,21763.2
75986.5,21761.4
76277.3,21761.4
Z" /> 
<path style="fill:#000000; fill-opacity:1.0; 
stroke:#000000; stroke-width:0; stroke-opacity:1; 
stroke-linecap:round; stroke-linejoin:round;fill-rule:evenodd;"
d="M 79440.7,21497.5
79456.4,21502.3
79470.9,21510
79483.5,21520.4
79493.9,21533.1
79501.7,21547.5
79506.4,21563.2
79508.3,21581.9
79508.3,21843.3
79506.4,21862
79501.7,21877.7
79493.9,21892.1
79483.5,21904.8
79470.9,21915.2
79456.4,21922.9
79440.7,21927.7
79422,21929.5
79160.7,21929.5
79142,21927.7
79126.3,21922.9
79111.8,21915.2
79099.1,21904.8
79088.7,21892.1
79081,21877.7
79076.3,21862
79074.4,21843.3
79074.4,21581.9
79076.3,21563.2
79081,21547.5
79088.7,21533.1
79099.1,21520.4
79111.8,21510
79126.3,21502.3
79142,21497.5
79160.7,21495.7
79422,21495.7
Z" /> 
</g> 
</svg>
