<?xml version="1.0" standalone="no"?>
 <!DOCTYPE svg PUBLIC "-//W3C//DTD SVG 1.1//EN" 
 "http://www.w3.org/Graphics/SVG/1.1/DTD/svg11.dtd"> 
<svg xmlns="http://www.w3.org/2000/svg" version="1.1" 
    width="29.7002cm" height="21.0007cm" viewBox="0 0 116930 82680 ">
<title>SVG Picture created as miniRGBii-B_SilkS.svg date 2020/08/30 13:38:43 </title>
  <desc>Picture generated by PCBNEW </desc>
<g style="fill:#000000; fill-opacity:1;stroke:#000000; stroke-opacity:1;
stroke-linecap:round; stroke-linejoin:round; "
 transform="translate(0 0) scale(1 1)">
</g>
<g style="fill:#000000; fill-opacity:0.0; 
stroke:#000000; stroke-width:-0.000393701; stroke-opacity:1; 
stroke-linecap:round; stroke-linejoin:round;">
</g>
<g style="fill:#000000; fill-opacity:0.0; 
stroke:#000000; stroke-width:59.0551; stroke-opacity:1; 
stroke-linecap:round; stroke-linejoin:round;">
<text x="83622" y="26417.3"
textLength="-8359.67" font-size="-524.934" lengthAdjust="spacingAndGlyphs"
text-anchor="start" opacity="0">consolebytes.com/miniRGBii</text>
<path d="M83321 26379
L83358 26398
L83433 26398
L83471 26379
L83489 26361
L83508 26323
L83508 26211
L83489 26173
L83471 26154
L83433 26136
L83358 26136
L83321 26154
" />
<path d="M83096 26398
L83133 26379
L83152 26361
L83171 26323
L83171 26211
L83152 26173
L83133 26154
L83096 26136
L83039 26136
L83002 26154
L82983 26173
L82964 26211
L82964 26323
L82983 26361
L83002 26379
L83039 26398
L83096 26398
" />
<path d="M82796 26136
L82796 26398
" />
<path d="M82796 26173
L82777 26154
L82740 26136
L82683 26136
L82646 26154
L82627 26192
L82627 26398
" />
<path d="M82458 26379
L82421 26398
L82346 26398
L82308 26379
L82290 26342
L82290 26323
L82308 26286
L82346 26267
L82402 26267
L82440 26248
L82458 26211
L82458 26192
L82440 26154
L82402 26136
L82346 26136
L82308 26154
" />
<path d="M82065 26398
L82102 26379
L82121 26361
L82140 26323
L82140 26211
L82121 26173
L82102 26154
L82065 26136
L82008 26136
L81971 26154
L81952 26173
L81933 26211
L81933 26323
L81952 26361
L81971 26379
L82008 26398
L82065 26398
" />
<path d="M81708 26398
L81746 26379
L81765 26342
L81765 26004
" />
<path d="M81408 26379
L81446 26398
L81521 26398
L81558 26379
L81577 26342
L81577 26192
L81558 26154
L81521 26136
L81446 26136
L81408 26154
L81390 26192
L81390 26229
L81577 26267
" />
<path d="M81221 26398
L81221 26004
" />
<path d="M81221 26154
L81183 26136
L81108 26136
L81071 26154
L81052 26173
L81033 26211
L81033 26323
L81052 26361
L81071 26379
L81108 26398
L81183 26398
L81221 26379
" />
<path d="M80902 26136
L80809 26398
" />
<path d="M80715 26136
L80809 26398
L80846 26492
L80865 26511
L80902 26529
" />
<path d="M80621 26136
L80471 26136
" />
<path d="M80565 26004
L80565 26342
L80546 26379
L80509 26398
L80471 26398
" />
<path d="M80190 26379
L80227 26398
L80302 26398
L80340 26379
L80359 26342
L80359 26192
L80340 26154
L80302 26136
L80227 26136
L80190 26154
L80171 26192
L80171 26229
L80359 26267
" />
<path d="M80021 26379
L79984 26398
L79909 26398
L79871 26379
L79852 26342
L79852 26323
L79871 26286
L79909 26267
L79965 26267
L80002 26248
L80021 26211
L80021 26192
L80002 26154
L79965 26136
L79909 26136
L79871 26154
" />
<path d="M79684 26361
L79665 26379
L79684 26398
L79702 26379
L79684 26361
L79684 26398
" />
<path d="M79327 26379
L79365 26398
L79440 26398
L79477 26379
L79496 26361
L79515 26323
L79515 26211
L79496 26173
L79477 26154
L79440 26136
L79365 26136
L79327 26154
" />
<path d="M79102 26398
L79140 26379
L79159 26361
L79177 26323
L79177 26211
L79159 26173
L79140 26154
L79102 26136
L79046 26136
L79009 26154
L78990 26173
L78971 26211
L78971 26323
L78990 26361
L79009 26379
L79046 26398
L79102 26398
" />
<path d="M78803 26398
L78803 26136
" />
<path d="M78803 26173
L78784 26154
L78746 26136
L78690 26136
L78653 26154
L78634 26192
L78634 26398
" />
<path d="M78634 26192
L78615 26154
L78578 26136
L78521 26136
L78484 26154
L78465 26192
L78465 26398
" />
<path d="M77996 25986
L78334 26492
" />
<path d="M77865 26398
L77865 26136
" />
<path d="M77865 26173
L77846 26154
L77809 26136
L77753 26136
L77715 26154
L77696 26192
L77696 26398
" />
<path d="M77696 26192
L77678 26154
L77640 26136
L77584 26136
L77546 26154
L77528 26192
L77528 26398
" />
<path d="M77340 26398
L77340 26136
" />
<path d="M77340 26004
L77359 26023
L77340 26042
L77321 26023
L77340 26004
L77340 26042
" />
<path d="M77153 26136
L77153 26398
" />
<path d="M77153 26173
L77134 26154
L77096 26136
L77040 26136
L77003 26154
L76984 26192
L76984 26398
" />
<path d="M76797 26398
L76797 26136
" />
<path d="M76797 26004
L76815 26023
L76797 26042
L76778 26023
L76797 26004
L76797 26042
" />
<path d="M76384 26398
L76515 26211
" />
<path d="M76609 26398
L76609 26004
L76459 26004
L76422 26023
L76403 26042
L76384 26079
L76384 26136
L76403 26173
L76422 26192
L76459 26211
L76609 26211
" />
<path d="M76009 26023
L76047 26004
L76103 26004
L76159 26023
L76197 26061
L76215 26098
L76234 26173
L76234 26229
L76215 26304
L76197 26342
L76159 26379
L76103 26398
L76065 26398
L76009 26379
L75990 26361
L75990 26229
L76065 26229
" />
<path d="M75690 26192
L75634 26211
L75615 26229
L75597 26267
L75597 26323
L75615 26361
L75634 26379
L75672 26398
L75822 26398
L75822 26004
L75690 26004
L75653 26023
L75634 26042
L75615 26079
L75615 26117
L75634 26154
L75653 26173
L75690 26192
L75822 26192
" />
<path d="M75428 26398
L75428 26136
" />
<path d="M75428 26004
L75447 26023
L75428 26042
L75409 26023
L75428 26004
L75428 26042
" />
<path d="M75240 26398
L75240 26136
" />
<path d="M75240 26004
L75259 26023
L75240 26042
L75222 26023
L75240 26004
L75240 26042
" />
</g>
<g style="fill:#000000; fill-opacity:0.0; 
stroke:#000000; stroke-width:118.11; stroke-opacity:1; 
stroke-linecap:round; stroke-linejoin:round;">
<text x="81500" y="22295.3"
textLength="-4141.45" font-size="-787.402" lengthAdjust="spacingAndGlyphs"
text-anchor="middle" opacity="0">miniRGBii</text>
<path d="M83468 22267
L83468 21873
" />
<path d="M83468 21929
L83440 21901
L83384 21873
L83299 21873
L83243 21901
L83215 21957
L83215 22267
" />
<path d="M83215 21957
L83187 21901
L83131 21873
L83046 21873
L82990 21901
L82962 21957
L82962 22267
" />
<path d="M82681 22267
L82681 21873
" />
<path d="M82681 21676
L82709 21704
L82681 21732
L82652 21704
L82681 21676
L82681 21732
" />
<path d="M82399 21873
L82399 22267
" />
<path d="M82399 21929
L82371 21901
L82315 21873
L82231 21873
L82174 21901
L82146 21957
L82146 22267
" />
<path d="M81865 22267
L81865 21873
" />
<path d="M81865 21676
L81893 21704
L81865 21732
L81837 21704
L81865 21676
L81865 21732
" />
<path d="M81246 22267
L81443 21985
" />
<path d="M81584 22267
L81584 21676
L81359 21676
L81303 21704
L81275 21732
L81246 21789
L81246 21873
L81275 21929
L81303 21957
L81359 21985
L81584 21985
" />
<path d="M80684 21704
L80740 21676
L80825 21676
L80909 21704
L80965 21760
L80993 21817
L81021 21929
L81021 22014
L80993 22126
L80965 22182
L80909 22239
L80825 22267
L80768 22267
L80684 22239
L80656 22210
L80656 22014
L80768 22014
" />
<path d="M80206 21957
L80122 21985
L80093 22014
L80065 22070
L80065 22154
L80093 22210
L80122 22239
L80178 22267
L80403 22267
L80403 21676
L80206 21676
L80150 21704
L80122 21732
L80093 21789
L80093 21845
L80122 21901
L80150 21929
L80206 21957
L80403 21957
" />
<path d="M79812 22267
L79812 21873
" />
<path d="M79812 21676
L79840 21704
L79812 21732
L79784 21704
L79812 21676
L79812 21732
" />
<path d="M79531 22267
L79531 21873
" />
<path d="M79531 21676
L79559 21704
L79531 21732
L79503 21704
L79531 21676
L79531 21732
" />
<text x="83622" y="23572.8"
textLength="-6820.59" font-size="-787.402" lengthAdjust="spacingAndGlyphs"
text-anchor="start" opacity="0">by Job#3556 &amp;</text>
<path d="M83404 23544
L83404 22954
" />
<path d="M83404 23179
L83348 23151
L83235 23151
L83179 23179
L83151 23207
L83123 23263
L83123 23432
L83151 23488
L83179 23516
L83235 23544
L83348 23544
L83404 23516
" />
<path d="M82926 23151
L82785 23544
" />
<path d="M82645 23151
L82785 23544
L82842 23685
L82870 23713
L82926 23741
" />
<path d="M81801 22954
L81801 23375
L81829 23460
L81886 23516
L81970 23544
L82026 23544
" />
<path d="M81436 23544
L81492 23516
L81520 23488
L81548 23432
L81548 23263
L81520 23207
L81492 23179
L81436 23151
L81351 23151
L81295 23179
L81267 23207
L81239 23263
L81239 23432
L81267 23488
L81295 23516
L81351 23544
L81436 23544
" />
<path d="M80986 23544
L80986 22954
" />
<path d="M80986 23179
L80929 23151
L80817 23151
L80761 23179
L80733 23207
L80705 23263
L80705 23432
L80733 23488
L80761 23516
L80817 23544
L80929 23544
L80986 23516
" />
<path d="M80480 23151
L80058 23151
" />
<path d="M80311 22897
L80480 23657
" />
<path d="M80114 23404
L80536 23404
" />
<path d="M80283 23657
L80114 22897
" />
<path d="M79917 22954
L79552 22954
L79748 23179
L79664 23179
L79608 23207
L79580 23235
L79552 23291
L79552 23432
L79580 23488
L79608 23516
L79664 23544
L79833 23544
L79889 23516
L79917 23488
" />
<path d="M79017 22954
L79298 22954
L79327 23235
L79298 23207
L79242 23179
L79102 23179
L79045 23207
L79017 23235
L78989 23291
L78989 23432
L79017 23488
L79045 23516
L79102 23544
L79242 23544
L79298 23516
L79327 23488
" />
<path d="M78455 22954
L78736 22954
L78764 23235
L78736 23207
L78680 23179
L78539 23179
L78483 23207
L78455 23235
L78427 23291
L78427 23432
L78455 23488
L78483 23516
L78539 23544
L78680 23544
L78736 23516
L78764 23488
" />
<path d="M77920 22954
L78033 22954
L78089 22982
L78117 23010
L78174 23094
L78202 23207
L78202 23432
L78174 23488
L78145 23516
L78089 23544
L77977 23544
L77920 23516
L77892 23488
L77864 23432
L77864 23291
L77892 23235
L77920 23207
L77977 23179
L78089 23179
L78145 23207
L78174 23235
L78202 23291
" />
<path d="M76683 23544
L76711 23544
L76767 23516
L76852 23432
L76992 23263
L77049 23179
L77077 23094
L77077 23038
L77049 22982
L76992 22954
L76964 22954
L76908 22982
L76880 23038
L76880 23066
L76908 23122
L76936 23151
L77105 23263
L77133 23291
L77161 23347
L77161 23432
L77133 23488
L77105 23516
L77049 23544
L76964 23544
L76908 23516
L76880 23488
L76796 23375
L76767 23291
L76767 23235
" />
<text x="83622" y="24576.8"
textLength="-8760.97" font-size="-787.402" lengthAdjust="spacingAndGlyphs"
text-anchor="start" opacity="0">Commandblock6417</text>
<path d="M83067 24492
L83095 24520
L83179 24548
L83235 24548
L83320 24520
L83376 24464
L83404 24408
L83432 24295
L83432 24211
L83404 24098
L83376 24042
L83320 23986
L83235 23958
L83179 23958
L83095 23986
L83067 24014
" />
<path d="M82729 24548
L82785 24520
L82814 24492
L82842 24436
L82842 24267
L82814 24211
L82785 24183
L82729 24154
L82645 24154
L82589 24183
L82561 24211
L82532 24267
L82532 24436
L82561 24492
L82589 24520
L82645 24548
L82729 24548
" />
<path d="M82279 24548
L82279 24154
" />
<path d="M82279 24211
L82251 24183
L82195 24154
L82111 24154
L82054 24183
L82026 24239
L82026 24548
" />
<path d="M82026 24239
L81998 24183
L81942 24154
L81857 24154
L81801 24183
L81773 24239
L81773 24548
" />
<path d="M81492 24548
L81492 24154
" />
<path d="M81492 24211
L81464 24183
L81408 24154
L81323 24154
L81267 24183
L81239 24239
L81239 24548
" />
<path d="M81239 24239
L81211 24183
L81154 24154
L81070 24154
L81014 24183
L80986 24239
L80986 24548
" />
<path d="M80451 24548
L80451 24239
L80480 24183
L80536 24154
L80648 24154
L80705 24183
" />
<path d="M80451 24520
L80508 24548
L80648 24548
L80705 24520
L80733 24464
L80733 24408
L80705 24351
L80648 24323
L80508 24323
L80451 24295
" />
<path d="M80170 24154
L80170 24548
" />
<path d="M80170 24211
L80142 24183
L80086 24154
L80001 24154
L79945 24183
L79917 24239
L79917 24548
" />
<path d="M79383 24548
L79383 23958
" />
<path d="M79383 24520
L79439 24548
L79552 24548
L79608 24520
L79636 24492
L79664 24436
L79664 24267
L79636 24211
L79608 24183
L79552 24154
L79439 24154
L79383 24183
" />
<path d="M79102 24548
L79102 23958
" />
<path d="M79102 24183
L79045 24154
L78933 24154
L78877 24183
L78848 24211
L78820 24267
L78820 24436
L78848 24492
L78877 24520
L78933 24548
L79045 24548
L79102 24520
" />
<path d="M78483 24548
L78539 24520
L78567 24464
L78567 23958
" />
<path d="M78174 24548
L78230 24520
L78258 24492
L78286 24436
L78286 24267
L78258 24211
L78230 24183
L78174 24154
L78089 24154
L78033 24183
L78005 24211
L77977 24267
L77977 24436
L78005 24492
L78033 24520
L78089 24548
L78174 24548
" />
<path d="M77471 24520
L77527 24548
L77639 24548
L77696 24520
L77724 24492
L77752 24436
L77752 24267
L77724 24211
L77696 24183
L77639 24154
L77527 24154
L77471 24183
" />
<path d="M77217 24548
L77217 23958
" />
<path d="M77161 24323
L76992 24548
" />
<path d="M76992 24154
L77217 24379
" />
<path d="M76486 23958
L76599 23958
L76655 23986
L76683 24014
L76739 24098
L76767 24211
L76767 24436
L76739 24492
L76711 24520
L76655 24548
L76543 24548
L76486 24520
L76458 24492
L76430 24436
L76430 24295
L76458 24239
L76486 24211
L76543 24183
L76655 24183
L76711 24211
L76739 24239
L76767 24295
" />
<path d="M75924 24154
L75924 24548
" />
<path d="M76064 23929
L76205 24351
L75839 24351
" />
<path d="M75305 24548
L75643 24548
" />
<path d="M75474 24548
L75474 23958
L75530 24042
L75586 24098
L75643 24126
" />
<path d="M75108 23958
L74715 23958
L74968 24548
" />
<g >
</g>
</g> 
</svg>
