<?xml version="1.0" standalone="no"?>
 <!DOCTYPE svg PUBLIC "-//W3C//DTD SVG 1.1//EN" 
 "http://www.w3.org/Graphics/SVG/1.1/DTD/svg11.dtd"> 
<svg xmlns="http://www.w3.org/2000/svg" version="1.1" 
    width="29.7002cm" height="21.0007cm" viewBox="0 0 116930 82680 ">
<title>SVG Picture created as miniRGBii-F_SilkS.svg date 2020/08/30 13:38:43 </title>
  <desc>Picture generated by PCBNEW </desc>
<g style="fill:#000000; fill-opacity:1;stroke:#000000; stroke-opacity:1;
stroke-linecap:round; stroke-linejoin:round; "
 transform="translate(0 0) scale(1 1)">
</g>
<g style="fill:#000000; fill-opacity:0.0; 
stroke:#000000; stroke-width:-0.000393701; stroke-opacity:1; 
stroke-linecap:round; stroke-linejoin:round;">
</g>
<g style="fill:#000000; fill-opacity:0.0; 
stroke:#000000; stroke-width:59.0551; stroke-opacity:1; 
stroke-linecap:round; stroke-linejoin:round;">
<path d="M78149 25314
L78149 25787
" />
<path d="M77913 25551
L78385 25551
" />
<path d="M73818 25314
L73818 25787
" />
<path d="M73582 25551
L74055 25551
" />
<path d="M75748 25551
L76220 25551
" />
<path d="M75984 25314
L75984 25787
" />
<path d="M81023 25629
L81496 25629
" />
<path d="M81259 25433
L81259 25551
" />
<path d="M81181 25866
L81338 25866
" />
<path d="M81102 25748
L81417 25748
" />
<path d="M80787 24685
L81417 24685
" />
<path d="M79881 24685
L80511 24685
" />
<path d="M78976 24685
L79606 24685
" />
<path d="M78976 22992
L79606 22992
" />
</g>
<g style="fill:#000000; fill-opacity:0.0; 
stroke:#000000; stroke-width:98.4252; stroke-opacity:1; 
stroke-linecap:round; stroke-linejoin:round;">
<text x="82086.6" y="23740.2"
textLength="1278.4" font-size="524.934" lengthAdjust="spacingAndGlyphs"
text-anchor="middle" opacity="0">238</text>
<path d="M81599 23365
L81617 23346
L81655 23327
L81749 23327
L81786 23346
L81805 23365
L81824 23402
L81824 23440
L81805 23496
L81580 23721
L81824 23721
" />
<path d="M81955 23327
L82199 23327
L82067 23477
L82124 23477
L82161 23496
L82180 23515
L82199 23552
L82199 23646
L82180 23683
L82161 23702
L82124 23721
L82011 23721
L81974 23702
L81955 23683
" />
<path d="M82424 23496
L82386 23477
L82367 23458
L82349 23421
L82349 23402
L82367 23365
L82386 23346
L82424 23327
L82499 23327
L82536 23346
L82555 23365
L82574 23402
L82574 23421
L82555 23458
L82536 23477
L82499 23496
L82424 23496
L82386 23515
L82367 23533
L82349 23571
L82349 23646
L82367 23683
L82386 23702
L82424 23721
L82499 23721
L82536 23702
L82555 23683
L82574 23646
L82574 23571
L82555 23533
L82536 23515
L82499 23496
" />
<text x="82165.4" y="24803.1"
textLength="877.859" font-size="524.934" lengthAdjust="spacingAndGlyphs"
text-anchor="middle" opacity="0">54</text>
<path d="M82071 24390
L81884 24390
L81865 24578
L81884 24559
L81921 24540
L82015 24540
L82052 24559
L82071 24578
L82090 24615
L82090 24709
L82071 24746
L82052 24765
L82015 24784
L81921 24784
L81884 24765
L81865 24746
" />
<path d="M82427 24521
L82427 24784
" />
<path d="M82334 24371
L82240 24653
L82484 24653
" />
<text x="82165.4" y="25866.1"
textLength="877.859" font-size="524.934" lengthAdjust="spacingAndGlyphs"
text-anchor="middle" opacity="0">59</text>
<path d="M82071 25453
L81884 25453
L81865 25641
L81884 25622
L81921 25603
L82015 25603
L82052 25622
L82071 25641
L82090 25678
L82090 25772
L82071 25809
L82052 25828
L82015 25847
L81921 25847
L81884 25828
L81865 25809
" />
<path d="M82277 25847
L82352 25847
L82390 25828
L82409 25809
L82446 25753
L82465 25678
L82465 25528
L82446 25491
L82427 25472
L82390 25453
L82315 25453
L82277 25472
L82259 25491
L82240 25528
L82240 25622
L82259 25659
L82277 25678
L82315 25697
L82390 25697
L82427 25678
L82446 25659
L82465 25622
" />
<text x="82204.7" y="26889.8"
textLength="877.859" font-size="524.934" lengthAdjust="spacingAndGlyphs"
text-anchor="middle" opacity="0">57</text>
<path d="M82110 26477
L81923 26477
L81904 26664
L81923 26646
L81961 26627
L82054 26627
L82092 26646
L82110 26664
L82129 26702
L82129 26796
L82110 26833
L82092 26852
L82054 26871
L81961 26871
L81923 26852
L81904 26833
" />
<path d="M82260 26477
L82523 26477
L82354 26871
" />
<text x="83385.8" y="22992.1"
textLength="577.896" font-size="524.934" lengthAdjust="spacingAndGlyphs"
text-anchor="middle" opacity="0">M</text>
<path d="M83254 22973
L83254 22579
L83385 22860
L83517 22579
L83517 22973
" />
<text x="82322.8" y="22992.1"
textLength="765.373" font-size="524.934" lengthAdjust="spacingAndGlyphs"
text-anchor="middle" opacity="0">Pr</text>
<path d="M82097 22973
L82097 22579
L82247 22579
L82285 22598
L82304 22617
L82322 22654
L82322 22710
L82304 22748
L82285 22767
L82247 22785
L82097 22785
" />
<path d="M82491 22973
L82491 22710
" />
<path d="M82491 22785
L82510 22748
L82529 22729
L82566 22710
L82604 22710
" />
<text x="81299.2" y="22992.1"
textLength="877.859" font-size="524.934" lengthAdjust="spacingAndGlyphs"
text-anchor="middle" opacity="0">Pb</text>
<path d="M81017 22973
L81017 22579
L81167 22579
L81205 22598
L81224 22617
L81242 22654
L81242 22710
L81224 22748
L81205 22767
L81167 22785
L81017 22785
" />
<path d="M81411 22973
L81411 22579
" />
<path d="M81411 22729
L81449 22710
L81524 22710
L81561 22729
L81580 22748
L81599 22785
L81599 22898
L81580 22935
L81561 22954
L81524 22973
L81449 22973
L81411 22954
" />
<text x="80196.9" y="22992.1"
textLength="465.411" font-size="524.934" lengthAdjust="spacingAndGlyphs"
text-anchor="middle" opacity="0">Y</text>
<path d="M80196 22785
L80196 22973
" />
<path d="M80065 22579
L80196 22785
L80328 22579
" />
</g>
<g style="fill:#000000; fill-opacity:0.0; 
stroke:#000000; stroke-width:47.2441; stroke-opacity:1; 
stroke-linecap:round; stroke-linejoin:round;">
<path d="M81437 23149
L80767 23149
" />
<path d="M80767 23149
L80767 24389
" />
<path d="M81437 23149
L81437 24389
" />
<path d="M76708 23681
L76708 26923
" />
<path d="M76708 26923
L78488 26923
" />
<path d="M78488 26923
L78488 23681
" />
<path d="M76322 26923
L76322 23681
" />
<path d="M74543 26923
L76322 26923
" />
<path d="M74543 23681
L74543 26923
" />
<path d="M72377 23681
L72377 26923
" />
<path d="M72377 26923
L74157 26923
" />
<path d="M74157 26923
L74157 23681
" />
<path d="M79625 21456
L78956 21456
" />
<path d="M78956 21456
L78956 22696
" />
<path d="M79625 21456
L79625 22696
" />
<path d="M79625 23149
L79625 24389
" />
<path d="M78956 23149
L78956 24389
" />
<path d="M79625 23149
L78956 23149
" />
<path d="M80531 23149
L79862 23149
" />
<path d="M79862 23149
L79862 24389
" />
<path d="M80531 23149
L80531 24389
" />
<path d="M72397 22255
L72397 22390
" />
<path d="M72799 22255
L72799 22390
" />
<path d="M73554 21767
L73689 21767
" />
<path d="M73554 22169
L73689 22169
" />
<path d="M76728 22255
L76728 22390
" />
<path d="M77129 22255
L77129 22390
" />
<path d="M77885 21767
L78020 21767
" />
<path d="M77885 22169
L78020 22169
" />
<path d="M74562 22255
L74562 22390
" />
<path d="M74964 22255
L74964 22390
" />
<path d="M75719 21767
L75854 21767
" />
<path d="M75719 22169
L75854 22169
" />
<path d="M73689 22877
L73554 22877
" />
<path d="M73689 22476
L73554 22476
" />
<path d="M78020 22476
L77885 22476
" />
<path d="M78020 22877
L77885 22877
" />
<path d="M75854 22877
L75719 22877
" />
<path d="M75854 22476
L75719 22476
" />
<path d="M79499 25358
L79634 25358
" />
<path d="M79499 24956
L79634 24956
" />
<path d="M79634 26854
L79499 26854
" />
<path d="M79634 26452
L79499 26452
" />
<path d="M79634 25704
L79499 25704
" />
<path d="M79634 26106
L79499 26106
" />
</g>
<g style="fill:#000000; fill-opacity:0.0; 
stroke:#000000; stroke-width:59.0551; stroke-opacity:1; 
stroke-linecap:round; stroke-linejoin:round;">
<g transform="rotate(-90 77598.4 25118.1)">
<text x="77598.4" y="25315"
textLength="1271.56" font-size="524.934" lengthAdjust="spacingAndGlyphs"
text-anchor="middle" opacity="0">C64</text>
</g>
<path d="M77739 25371
L77757 25389
L77776 25446
L77776 25483
L77757 25539
L77720 25577
L77682 25596
L77607 25614
L77551 25614
L77476 25596
L77439 25577
L77401 25539
L77382 25483
L77382 25446
L77401 25389
L77420 25371
" />
<path d="M77382 25033
L77382 25108
L77401 25146
L77420 25164
L77476 25202
L77551 25221
L77701 25221
L77739 25202
L77757 25183
L77776 25146
L77776 25071
L77757 25033
L77739 25014
L77701 24996
L77607 24996
L77570 25014
L77551 25033
L77532 25071
L77532 25146
L77551 25183
L77570 25202
L77607 25221
" />
<path d="M77514 24658
L77776 24658
" />
<path d="M77364 24752
L77645 24846
L77645 24602
" />
<g transform="rotate(-90 75433.1 25118.1)">
<text x="75433.1" y="25315"
textLength="1220.38" font-size="524.934" lengthAdjust="spacingAndGlyphs"
text-anchor="middle" opacity="0">C69</text>
</g>
<path d="M75573 25371
L75592 25389
L75611 25446
L75611 25483
L75592 25539
L75554 25577
L75517 25596
L75442 25614
L75386 25614
L75311 25596
L75273 25577
L75236 25539
L75217 25483
L75217 25446
L75236 25389
L75254 25371
" />
<path d="M75217 25033
L75217 25108
L75236 25146
L75254 25164
L75311 25202
L75386 25221
L75536 25221
L75573 25202
L75592 25183
L75611 25146
L75611 25071
L75592 25033
L75573 25014
L75536 24996
L75442 24996
L75404 25014
L75386 25033
L75367 25071
L75367 25146
L75386 25183
L75404 25202
L75442 25221
" />
<path d="M75611 24808
L75611 24733
L75592 24696
L75573 24677
L75517 24640
L75442 24621
L75292 24621
L75254 24640
L75236 24658
L75217 24696
L75217 24771
L75236 24808
L75254 24827
L75292 24846
L75386 24846
L75423 24827
L75442 24808
L75461 24771
L75461 24696
L75442 24658
L75423 24640
L75386 24621
" />
<g transform="rotate(-90 73267.7 25118.1)">
<text x="73267.7" y="25315"
textLength="1220.38" font-size="524.934" lengthAdjust="spacingAndGlyphs"
text-anchor="middle" opacity="0">C84</text>
</g>
<path d="M73408 25371
L73427 25389
L73445 25446
L73445 25483
L73427 25539
L73389 25577
L73352 25596
L73277 25614
L73220 25614
L73145 25596
L73108 25577
L73070 25539
L73052 25483
L73052 25446
L73070 25389
L73089 25371
" />
<path d="M73220 25146
L73202 25183
L73183 25202
L73145 25221
L73127 25221
L73089 25202
L73070 25183
L73052 25146
L73052 25071
L73070 25033
L73089 25014
L73127 24996
L73145 24996
L73183 25014
L73202 25033
L73220 25071
L73220 25146
L73239 25183
L73258 25202
L73295 25221
L73370 25221
L73408 25202
L73427 25183
L73445 25146
L73445 25071
L73427 25033
L73408 25014
L73370 24996
L73295 24996
L73258 25014
L73239 25033
L73220 25071
" />
<path d="M73183 24658
L73445 24658
" />
<path d="M73033 24752
L73314 24846
L73314 24602
" />
<g >
</g>
</g> 
</svg>
