<?xml version="1.0" standalone="no"?>
 <!DOCTYPE svg PUBLIC "-//W3C//DTD SVG 1.1//EN" 
 "http://www.w3.org/Graphics/SVG/1.1/DTD/svg11.dtd"> 
<svg xmlns="http://www.w3.org/2000/svg" version="1.1" 
    width="29.7002cm" height="21.0007cm" viewBox="0 0 116930 82680 ">
<title>SVG Picture created as miniRGBii-F_Cu.svg date 2020/08/30 13:38:43 </title>
  <desc>Picture generated by PCBNEW </desc>
<g style="fill:#000000; fill-opacity:1;stroke:#000000; stroke-opacity:1;
stroke-linecap:round; stroke-linejoin:round; "
 transform="translate(0 0) scale(1 1)">
</g>
<g style="fill:#000000; fill-opacity:0.0; 
stroke:#000000; stroke-width:-0.000393701; stroke-opacity:1; 
stroke-linecap:round; stroke-linejoin:round;">
<g >
</g>
<g style="fill:#000000; fill-opacity:0.0; 
stroke:#000000; stroke-width:0; stroke-opacity:1; 
stroke-linecap:round; stroke-linejoin:round;">
</g>
<g style="fill:#000000; fill-opacity:1.0; 
stroke:#000000; stroke-width:0; stroke-opacity:1; 
stroke-linecap:round; stroke-linejoin:round;">
<path style="fill:#000000; fill-opacity:1.0; 
stroke:#000000; stroke-width:0; stroke-opacity:1; 
stroke-linecap:round; stroke-linejoin:round;fill-rule:evenodd;"
d="M 81422,26044
81436.3,26046.1
81450.3,26049.7
81464,26054.5
81477.1,26060.7
81489.5,26068.2
81501.1,26076.8
81511.9,26086.5
81521.6,26097.3
81530.2,26108.9
81537.7,26121.3
81543.9,26134.4
81548.8,26148.1
81552.3,26162.1
81554.4,26176.5
81555.1,26190.9
81555.1,26879.9
81554.4,26894.4
81552.3,26908.7
81548.8,26922.8
81543.9,26936.4
81537.7,26949.5
81530.2,26961.9
81521.6,26973.6
81511.9,26984.3
81501.1,26994
81489.5,27002.7
81477.1,27010.1
81464,27016.3
81450.3,27021.2
81436.3,27024.7
81422,27026.8
81407.5,27027.6
81112.2,27027.6
81097.7,27026.8
81083.4,27024.7
81069.3,27021.2
81055.7,27016.3
81042.6,27010.1
81030.2,27002.7
81018.5,26994
81007.8,26984.3
80998.1,26973.6
80989.4,26961.9
80982,26949.5
80975.8,26936.4
80970.9,26922.8
80967.4,26908.7
80965.3,26894.4
80964.6,26879.9
80964.6,26190.9
80965.3,26176.5
80967.4,26162.1
80970.9,26148.1
80975.8,26134.4
80982,26121.3
80989.4,26108.9
80998.1,26097.3
81007.8,26086.5
81018.5,26076.8
81030.2,26068.2
81042.6,26060.7
81055.7,26054.5
81069.3,26049.7
81083.4,26046.1
81097.7,26044
81112.2,26043.3
81407.5,26043.3
Z" /> 
</g>
<g >
</g>
<g style="fill:#000000; fill-opacity:1.0; 
stroke:#000000; stroke-width:0; stroke-opacity:1; 
stroke-linecap:round; stroke-linejoin:round;">
<path style="fill:#000000; fill-opacity:1.0; 
stroke:#000000; stroke-width:0; stroke-opacity:1; 
stroke-linecap:round; stroke-linejoin:round;fill-rule:evenodd;"
d="M 80359,21437.7
80373.3,21439.8
80387.3,21443.4
80401,21448.2
80414.1,21454.4
80426.5,21461.9
80438.1,21470.5
80448.9,21480.2
80458.6,21491
80467.2,21502.6
80474.7,21515
80480.9,21528.1
80485.8,21541.8
80489.3,21555.8
80491.4,21570.2
80492.1,21584.6
80492.1,22273.6
80491.4,22288.1
80489.3,22302.4
80485.8,22316.5
80480.9,22330.1
80474.7,22343.2
80467.2,22355.6
80458.6,22367.3
80448.9,22378
80438.1,22387.7
80426.5,22396.4
80414.1,22403.8
80401,22410
80387.3,22414.9
80373.3,22418.4
80359,22420.5
80344.5,22421.3
80049.2,22421.3
80034.7,22420.5
80020.4,22418.4
80006.4,22414.9
79992.7,22410
79979.6,22403.8
79967.2,22396.4
79955.6,22387.7
79944.8,22378
79935.1,22367.3
79926.5,22355.6
79919,22343.2
79912.8,22330.1
79907.9,22316.5
79904.4,22302.4
79902.3,22288.1
79901.6,22273.6
79901.6,21584.6
79902.3,21570.2
79904.4,21555.8
79907.9,21541.8
79912.8,21528.1
79919,21515
79926.5,21502.6
79935.1,21491
79944.8,21480.2
79955.6,21470.5
79967.2,21461.9
79979.6,21454.4
79992.7,21448.2
80006.4,21443.4
80020.4,21439.8
80034.7,21437.7
80049.2,21437
80344.5,21437
Z" /> 
</g>
<g >
</g>
<g style="fill:#000000; fill-opacity:1.0; 
stroke:#000000; stroke-width:0; stroke-opacity:1; 
stroke-linecap:round; stroke-linejoin:round;">
<path style="fill:#000000; fill-opacity:1.0; 
stroke:#000000; stroke-width:0; stroke-opacity:1; 
stroke-linecap:round; stroke-linejoin:round;fill-rule:evenodd;"
d="M 81422,21437.7
81436.3,21439.8
81450.3,21443.4
81464,21448.2
81477.1,21454.4
81489.5,21461.9
81501.1,21470.5
81511.9,21480.2
81521.6,21491
81530.2,21502.6
81537.7,21515
81543.9,21528.1
81548.8,21541.8
81552.3,21555.8
81554.4,21570.2
81555.1,21584.6
81555.1,22273.6
81554.4,22288.1
81552.3,22302.4
81548.8,22316.5
81543.9,22330.1
81537.7,22343.2
81530.2,22355.6
81521.6,22367.3
81511.9,22378
81501.1,22387.7
81489.5,22396.4
81477.1,22403.8
81464,22410
81450.3,22414.9
81436.3,22418.4
81422,22420.5
81407.5,22421.3
81112.2,22421.3
81097.7,22420.5
81083.4,22418.4
81069.3,22414.9
81055.7,22410
81042.6,22403.8
81030.2,22396.4
81018.5,22387.7
81007.8,22378
80998.1,22367.3
80989.4,22355.6
80982,22343.2
80975.8,22330.1
80970.9,22316.5
80967.4,22302.4
80965.3,22288.1
80964.6,22273.6
80964.6,21584.6
80965.3,21570.2
80967.4,21555.8
80970.9,21541.8
80975.8,21528.1
80982,21515
80989.4,21502.6
80998.1,21491
81007.8,21480.2
81018.5,21470.5
81030.2,21461.9
81042.6,21454.4
81055.7,21448.2
81069.3,21443.4
81083.4,21439.8
81097.7,21437.7
81112.2,21437
81407.5,21437
Z" /> 
</g>
<g >
</g>
<g style="fill:#000000; fill-opacity:1.0; 
stroke:#000000; stroke-width:0; stroke-opacity:1; 
stroke-linecap:round; stroke-linejoin:round;">
<path style="fill:#000000; fill-opacity:1.0; 
stroke:#000000; stroke-width:0; stroke-opacity:1; 
stroke-linecap:round; stroke-linejoin:round;fill-rule:evenodd;"
d="M 82484.9,21437.7
82499.3,21439.8
82513.3,21443.4
82527,21448.2
82540.1,21454.4
82552.5,21461.9
82564.1,21470.5
82574.9,21480.2
82584.6,21491
82593.2,21502.6
82600.7,21515
82606.9,21528.1
82611.8,21541.8
82615.3,21555.8
82617.4,21570.2
82618.1,21584.6
82618.1,22273.6
82617.4,22288.1
82615.3,22302.4
82611.8,22316.5
82606.9,22330.1
82600.7,22343.2
82593.2,22355.6
82584.6,22367.3
82574.9,22378
82564.1,22387.7
82552.5,22396.4
82540.1,22403.8
82527,22410
82513.3,22414.9
82499.3,22418.4
82484.9,22420.5
82470.5,22421.3
82175.2,22421.3
82160.7,22420.5
82146.4,22418.4
82132.3,22414.9
82118.7,22410
82105.6,22403.8
82093.2,22396.4
82081.5,22387.7
82070.8,22378
82061.1,22367.3
82052.4,22355.6
82045,22343.2
82038.8,22330.1
82033.9,22316.5
82030.4,22302.4
82028.3,22288.1
82027.6,22273.6
82027.6,21584.6
82028.3,21570.2
82030.4,21555.8
82033.9,21541.8
82038.8,21528.1
82045,21515
82052.4,21502.6
82061.1,21491
82070.8,21480.2
82081.5,21470.5
82093.2,21461.9
82105.6,21454.4
82118.7,21448.2
82132.3,21443.4
82146.4,21439.8
82160.7,21437.7
82175.2,21437
82470.5,21437
Z" /> 
</g>
<g >
</g>
<g style="fill:#000000; fill-opacity:1.0; 
stroke:#000000; stroke-width:0; stroke-opacity:1; 
stroke-linecap:round; stroke-linejoin:round;">
<path style="fill:#000000; fill-opacity:1.0; 
stroke:#000000; stroke-width:0; stroke-opacity:1; 
stroke-linecap:round; stroke-linejoin:round;fill-rule:evenodd;"
d="M 83547.9,23209.4
83562.3,23211.5
83576.3,23215
83590,23219.9
83603.1,23226.1
83615.5,23233.5
83627.1,23242.2
83637.9,23251.9
83647.6,23262.6
83656.2,23274.3
83663.7,23286.7
83669.9,23299.8
83674.7,23313.4
83678.3,23327.5
83680.4,23341.8
83681.1,23356.3
83681.1,23651.6
83680.4,23666
83678.3,23680.4
83674.7,23694.4
83669.9,23708.1
83663.7,23721.2
83656.2,23733.6
83647.6,23745.2
83637.9,23756
83627.1,23765.7
83615.5,23774.3
83603.1,23781.8
83590,23788
83576.3,23792.9
83562.3,23796.4
83547.9,23798.5
83533.5,23799.2
82844.5,23799.2
82830,23798.5
82815.7,23796.4
82801.6,23792.9
82788,23788
82774.9,23781.8
82762.5,23774.3
82750.8,23765.7
82740.1,23756
82730.4,23745.2
82721.7,23733.6
82714.3,23721.2
82708.1,23708.1
82703.2,23694.4
82699.7,23680.4
82697.6,23666
82696.9,23651.6
82696.9,23356.3
82697.6,23341.8
82699.7,23327.5
82703.2,23313.4
82708.1,23299.8
82714.3,23286.7
82721.7,23274.3
82730.4,23262.6
82740.1,23251.9
82750.8,23242.2
82762.5,23233.5
82774.9,23226.1
82788,23219.9
82801.6,23215
82815.7,23211.5
82830,23209.4
82844.5,23208.7
83533.5,23208.7
Z" /> 
</g>
<g >
</g>
<g style="fill:#000000; fill-opacity:1.0; 
stroke:#000000; stroke-width:0; stroke-opacity:1; 
stroke-linecap:round; stroke-linejoin:round;">
<path style="fill:#000000; fill-opacity:1.0; 
stroke:#000000; stroke-width:0; stroke-opacity:1; 
stroke-linecap:round; stroke-linejoin:round;fill-rule:evenodd;"
d="M 83547.9,25335.4
83562.3,25337.5
83576.3,25341
83590,25345.9
83603.1,25352.1
83615.5,25359.5
83627.1,25368.2
83637.9,25377.9
83647.6,25388.6
83656.2,25400.3
83663.7,25412.7
83669.9,25425.8
83674.7,25439.4
83678.3,25453.5
83680.4,25467.8
83681.1,25482.3
83681.1,25777.6
83680.4,25792
83678.3,25806.4
83674.7,25820.4
83669.9,25834.1
83663.7,25847.2
83656.2,25859.6
83647.6,25871.2
83637.9,25882
83627.1,25891.7
83615.5,25900.3
83603.1,25907.8
83590,25914
83576.3,25918.8
83562.3,25922.4
83547.9,25924.5
83533.5,25925.2
82844.5,25925.2
82830,25924.5
82815.7,25922.4
82801.6,25918.8
82788,25914
82774.9,25907.8
82762.5,25900.3
82750.8,25891.7
82740.1,25882
82730.4,25871.2
82721.7,25859.6
82714.3,25847.2
82708.1,25834.1
82703.2,25820.4
82699.7,25806.4
82697.6,25792
82696.9,25777.6
82696.9,25482.3
82697.6,25467.8
82699.7,25453.5
82703.2,25439.4
82708.1,25425.8
82714.3,25412.7
82721.7,25400.3
82730.4,25388.6
82740.1,25377.9
82750.8,25368.2
82762.5,25359.5
82774.9,25352.1
82788,25345.9
82801.6,25341
82815.7,25337.5
82830,25335.4
82844.5,25334.6
83533.5,25334.6
Z" /> 
</g>
<g >
</g>
<g style="fill:#000000; fill-opacity:1.0; 
stroke:#000000; stroke-width:0; stroke-opacity:1; 
stroke-linecap:round; stroke-linejoin:round;">
<path style="fill:#000000; fill-opacity:1.0; 
stroke:#000000; stroke-width:0; stroke-opacity:1; 
stroke-linecap:round; stroke-linejoin:round;fill-rule:evenodd;"
d="M 83547.9,26398.3
83562.3,26400.5
83576.3,26404
83590,26408.9
83603.1,26415.1
83615.5,26422.5
83627.1,26431.1
83637.9,26440.9
83647.6,26451.6
83656.2,26463.3
83663.7,26475.7
83669.9,26488.8
83674.7,26502.4
83678.3,26516.5
83680.4,26530.8
83681.1,26545.3
83681.1,26840.6
83680.4,26855
83678.3,26869.4
83674.7,26883.4
83669.9,26897
83663.7,26910.1
83656.2,26922.6
83647.6,26934.2
83637.9,26944.9
83627.1,26954.7
83615.5,26963.3
83603.1,26970.8
83590,26977
83576.3,26981.8
83562.3,26985.4
83547.9,26987.5
83533.5,26988.2
82844.5,26988.2
82830,26987.5
82815.7,26985.4
82801.6,26981.8
82788,26977
82774.9,26970.8
82762.5,26963.3
82750.8,26954.7
82740.1,26944.9
82730.4,26934.2
82721.7,26922.6
82714.3,26910.1
82708.1,26897
82703.2,26883.4
82699.7,26869.4
82697.6,26855
82696.9,26840.6
82696.9,26545.3
82697.6,26530.8
82699.7,26516.5
82703.2,26502.4
82708.1,26488.8
82714.3,26475.7
82721.7,26463.3
82730.4,26451.6
82740.1,26440.9
82750.8,26431.1
82762.5,26422.5
82774.9,26415.1
82788,26408.9
82801.6,26404
82815.7,26400.5
82830,26398.3
82844.5,26397.6
83533.5,26397.6
Z" /> 
</g>
<g >
</g>
<g style="fill:#000000; fill-opacity:1.0; 
stroke:#000000; stroke-width:0; stroke-opacity:1; 
stroke-linecap:round; stroke-linejoin:round;">
<path style="fill:#000000; fill-opacity:1.0; 
stroke:#000000; stroke-width:0; stroke-opacity:1; 
stroke-linecap:round; stroke-linejoin:round;fill-rule:evenodd;"
d="M 83547.9,24272.4
83562.3,24274.5
83576.3,24278
83590,24282.9
83603.1,24289.1
83615.5,24296.5
83627.1,24305.2
83637.9,24314.9
83647.6,24325.6
83656.2,24337.3
83663.7,24349.7
83669.9,24362.8
83674.7,24376.4
83678.3,24390.5
83680.4,24404.8
83681.1,24419.3
83681.1,24714.6
83680.4,24729
83678.3,24743.4
83674.7,24757.4
83669.9,24771.1
83663.7,24784.2
83656.2,24796.6
83647.6,24808.2
83637.9,24819
83627.1,24828.7
83615.5,24837.3
83603.1,24844.8
83590,24851
83576.3,24855.8
83562.3,24859.4
83547.9,24861.5
83533.5,24862.2
82844.5,24862.2
82830,24861.5
82815.7,24859.4
82801.6,24855.8
82788,24851
82774.9,24844.8
82762.5,24837.3
82750.8,24828.7
82740.1,24819
82730.4,24808.2
82721.7,24796.6
82714.3,24784.2
82708.1,24771.1
82703.2,24757.4
82699.7,24743.4
82697.6,24729
82696.9,24714.6
82696.9,24419.3
82697.6,24404.8
82699.7,24390.5
82703.2,24376.4
82708.1,24362.8
82714.3,24349.7
82721.7,24337.3
82730.4,24325.6
82740.1,24314.9
82750.8,24305.2
82762.5,24296.5
82774.9,24289.1
82788,24282.9
82801.6,24278
82815.7,24274.5
82830,24272.4
82844.5,24271.7
83533.5,24271.7
Z" /> 
</g>
<g >
</g>
<g style="fill:#000000; fill-opacity:1.0; 
stroke:#000000; stroke-width:0; stroke-opacity:1; 
stroke-linecap:round; stroke-linejoin:round;">
<path style="fill:#000000; fill-opacity:1.0; 
stroke:#000000; stroke-width:0; stroke-opacity:1; 
stroke-linecap:round; stroke-linejoin:round;fill-rule:evenodd;"
d="M 83547.9,21437.7
83562.3,21439.8
83576.3,21443.4
83590,21448.2
83603.1,21454.4
83615.5,21461.9
83627.1,21470.5
83637.9,21480.2
83647.6,21491
83656.2,21502.6
83663.7,21515
83669.9,21528.1
83674.7,21541.8
83678.3,21555.8
83680.4,21570.2
83681.1,21584.6
83681.1,22273.6
83680.4,22288.1
83678.3,22302.4
83674.7,22316.5
83669.9,22330.1
83663.7,22343.2
83656.2,22355.6
83647.6,22367.3
83637.9,22378
83627.1,22387.7
83615.5,22396.4
83603.1,22403.8
83590,22410
83576.3,22414.9
83562.3,22418.4
83547.9,22420.5
83533.5,22421.3
83238.2,22421.3
83223.7,22420.5
83209.4,22418.4
83195.3,22414.9
83181.7,22410
83168.6,22403.8
83156.2,22396.4
83144.5,22387.7
83133.8,22378
83124.1,22367.3
83115.4,22355.6
83108,22343.2
83101.8,22330.1
83096.9,22316.5
83093.4,22302.4
83091.3,22288.1
83090.6,22273.6
83090.6,21584.6
83091.3,21570.2
83093.4,21555.8
83096.9,21541.8
83101.8,21528.1
83108,21515
83115.4,21502.6
83124.1,21491
83133.8,21480.2
83144.5,21470.5
83156.2,21461.9
83168.6,21454.4
83181.7,21448.2
83195.3,21443.4
83209.4,21439.8
83223.7,21437.7
83238.2,21437
83533.5,21437
Z" /> 
</g>
<g >
</g>
<g style="fill:#000000; fill-opacity:1.0; 
stroke:#000000; stroke-width:0; stroke-opacity:1; 
stroke-linecap:round; stroke-linejoin:round;">
<path style="fill:#000000; fill-opacity:1.0; 
stroke:#000000; stroke-width:0; stroke-opacity:1; 
stroke-linecap:round; stroke-linejoin:round;fill-rule:evenodd;"
d="M 81210.4,23209.1
81220,23210.6
81229.4,23212.9
81238.5,23216.2
81247.2,23220.3
81255.5,23225.2
81263.2,23231
81270.4,23237.5
81276.9,23244.6
81282.6,23252.4
81287.6,23260.7
81291.7,23269.4
81295,23278.5
81297.3,23287.9
81298.7,23297.4
81299.2,23307.1
81299.2,23503.9
81298.7,23513.6
81297.3,23523.1
81295,23532.5
81291.7,23541.6
81287.6,23550.3
81282.6,23558.6
81276.9,23566.4
81270.4,23573.5
81263.2,23580
81255.5,23585.8
81247.2,23590.7
81238.5,23594.9
81229.4,23598.1
81220,23600.5
81210.4,23601.9
81200.8,23602.4
81003.9,23602.4
80994.3,23601.9
80984.7,23600.5
80975.4,23598.1
80966.3,23594.9
80957.5,23590.7
80949.3,23585.8
80941.5,23580
80934.3,23573.5
80927.9,23566.4
80922.1,23558.6
80917.1,23550.3
80913,23541.6
80909.8,23532.5
80907.4,23523.1
80906,23513.6
80905.5,23503.9
80905.5,23307.1
80906,23297.4
80907.4,23287.9
80909.8,23278.5
80913,23269.4
80917.1,23260.7
80922.1,23252.4
80927.9,23244.6
80934.3,23237.5
80941.5,23231
80949.3,23225.2
80957.5,23220.3
80966.3,23216.2
80975.4,23212.9
80984.7,23210.6
80994.3,23209.1
81003.9,23208.7
81200.8,23208.7
Z" /> 
<path style="fill:#000000; fill-opacity:1.0; 
stroke:#000000; stroke-width:0; stroke-opacity:1; 
stroke-linecap:round; stroke-linejoin:round;fill-rule:evenodd;"
d="M 81210.4,24193.4
81220,24194.8
81229.4,24197.2
81238.5,24200.4
81247.2,24204.5
81255.5,24209.5
81263.2,24215.3
81270.4,24221.7
81276.9,24228.9
81282.6,24236.7
81287.6,24244.9
81291.7,24253.7
81295,24262.8
81297.3,24272.1
81298.7,24281.7
81299.2,24291.3
81299.2,24488.2
81298.7,24497.8
81297.3,24507.4
81295,24516.8
81291.7,24525.9
81287.6,24534.6
81282.6,24542.9
81276.9,24550.6
81270.4,24557.8
81263.2,24564.3
81255.5,24570
81247.2,24575
81238.5,24579.1
81229.4,24582.4
81220,24584.7
81210.4,24586.1
81200.8,24586.6
81003.9,24586.6
80994.3,24586.1
80984.7,24584.7
80975.4,24582.4
80966.3,24579.1
80957.5,24575
80949.3,24570
80941.5,24564.3
80934.3,24557.8
80927.9,24550.6
80922.1,24542.9
80917.1,24534.6
80913,24525.9
80909.8,24516.8
80907.4,24507.4
80906,24497.8
80905.5,24488.2
80905.5,24291.3
80906,24281.7
80907.4,24272.1
80909.8,24262.8
80913,24253.7
80917.1,24244.9
80922.1,24236.7
80927.9,24228.9
80934.3,24221.7
80941.5,24215.3
80949.3,24209.5
80957.5,24204.5
80966.3,24200.4
80975.4,24197.2
80984.7,24194.8
80994.3,24193.4
81003.9,24192.9
81200.8,24192.9
Z" /> 
</g>
<g >
</g>
<g style="fill:#000000; fill-opacity:1.0; 
stroke:#000000; stroke-width:0; stroke-opacity:1; 
stroke-linecap:round; stroke-linejoin:round;">
<path style="fill:#000000; fill-opacity:1.0; 
stroke:#000000; stroke-width:0; stroke-opacity:1; 
stroke-linecap:round; stroke-linejoin:round;fill-rule:evenodd;"
d="M 78011.6,25935.5
78021.2,25936.9
78030.5,25939.3
78039.6,25942.5
78048.4,25946.7
78056.7,25951.6
78064.4,25957.4
78071.6,25963.9
78078.1,25971
78083.8,25978.8
78088.8,25987.1
78092.9,25995.8
78096.2,26004.9
78098.5,26014.3
78099.9,26023.8
78100.4,26033.5
78100.4,26722.4
78099.9,26732.1
78098.5,26741.6
78096.2,26751
78092.9,26760.1
78088.8,26768.8
78083.8,26777.1
78078.1,26784.9
78071.6,26792
78064.4,26798.5
78056.7,26804.3
78048.4,26809.2
78039.6,26813.4
78030.5,26816.6
78021.2,26819
78011.6,26820.4
78002,26820.9
77194.9,26820.9
77185.2,26820.4
77175.7,26819
77166.3,26816.6
77157.2,26813.4
77148.5,26809.2
77140.2,26804.3
77132.4,26798.5
77125.3,26792
77118.8,26784.9
77113,26777.1
77108.1,26768.8
77103.9,26760.1
77100.7,26751
77098.3,26741.6
77096.9,26732.1
77096.5,26722.4
77096.5,26033.5
77096.9,26023.8
77098.3,26014.3
77100.7,26004.9
77103.9,25995.8
77108.1,25987.1
77113,25978.8
77118.8,25971
77125.3,25963.9
77132.4,25957.4
77140.2,25951.6
77148.5,25946.7
77157.2,25942.5
77166.3,25939.3
77175.7,25936.9
77185.2,25935.5
77194.9,25935
78002,25935
Z" /> 
<path style="fill:#000000; fill-opacity:1.0; 
stroke:#000000; stroke-width:0; stroke-opacity:1; 
stroke-linecap:round; stroke-linejoin:round;fill-rule:evenodd;"
d="M 78011.6,23415.8
78021.2,23417.2
78030.5,23419.6
78039.6,23422.8
78048.4,23427
78056.7,23431.9
78064.4,23437.7
78071.6,23444.2
78078.1,23451.3
78083.8,23459.1
78088.8,23467.4
78092.9,23476.1
78096.2,23485.2
78098.5,23494.6
78099.9,23504.1
78100.4,23513.8
78100.4,24202.8
78099.9,24212.4
78098.5,24222
78096.2,24231.3
78092.9,24240.4
78088.8,24249.2
78083.8,24257.4
78078.1,24265.2
78071.6,24272.4
78064.4,24278.8
78056.7,24284.6
78048.4,24289.6
78039.6,24293.7
78030.5,24296.9
78021.2,24299.3
78011.6,24300.7
78002,24301.2
77194.9,24301.2
77185.2,24300.7
77175.7,24299.3
77166.3,24296.9
77157.2,24293.7
77148.5,24289.6
77140.2,24284.6
77132.4,24278.8
77125.3,24272.4
77118.8,24265.2
77113,24257.4
77108.1,24249.2
77103.9,24240.4
77100.7,24231.3
77098.3,24222
77096.9,24212.4
77096.5,24202.8
77096.5,23513.8
77096.9,23504.1
77098.3,23494.6
77100.7,23485.2
77103.9,23476.1
77108.1,23467.4
77113,23459.1
77118.8,23451.3
77125.3,23444.2
77132.4,23437.7
77140.2,23431.9
77148.5,23427
77157.2,23422.8
77166.3,23419.6
77175.7,23417.2
77185.2,23415.8
77194.9,23415.4
78002,23415.4
Z" /> 
</g>
<g >
</g>
<g style="fill:#000000; fill-opacity:1.0; 
stroke:#000000; stroke-width:0; stroke-opacity:1; 
stroke-linecap:round; stroke-linejoin:round;">
<path style="fill:#000000; fill-opacity:1.0; 
stroke:#000000; stroke-width:0; stroke-opacity:1; 
stroke-linecap:round; stroke-linejoin:round;fill-rule:evenodd;"
d="M 75846.3,23415.8
75855.8,23417.2
75865.2,23419.6
75874.3,23422.8
75883,23427
75891.3,23431.9
75899.1,23437.7
75906.2,23444.2
75912.7,23451.3
75918.5,23459.1
75923.4,23467.4
75927.5,23476.1
75930.8,23485.2
75933.1,23494.6
75934.6,23504.1
75935,23513.8
75935,24202.8
75934.6,24212.4
75933.1,24222
75930.8,24231.3
75927.5,24240.4
75923.4,24249.2
75918.5,24257.4
75912.7,24265.2
75906.2,24272.4
75899.1,24278.8
75891.3,24284.6
75883,24289.6
75874.3,24293.7
75865.2,24296.9
75855.8,24299.3
75846.3,24300.7
75836.6,24301.2
75029.5,24301.2
75019.9,24300.7
75010.3,24299.3
75001,24296.9
74991.9,24293.7
74983.1,24289.6
74974.8,24284.6
74967.1,24278.8
74959.9,24272.4
74953.4,24265.2
74947.7,24257.4
74942.7,24249.2
74938.6,24240.4
74935.3,24231.3
74933,24222
74931.6,24212.4
74931.1,24202.8
74931.1,23513.8
74931.6,23504.1
74933,23494.6
74935.3,23485.2
74938.6,23476.1
74942.7,23467.4
74947.7,23459.1
74953.4,23451.3
74959.9,23444.2
74967.1,23437.7
74974.8,23431.9
74983.1,23427
74991.9,23422.8
75001,23419.6
75010.3,23417.2
75019.9,23415.8
75029.5,23415.4
75836.6,23415.4
Z" /> 
<path style="fill:#000000; fill-opacity:1.0; 
stroke:#000000; stroke-width:0; stroke-opacity:1; 
stroke-linecap:round; stroke-linejoin:round;fill-rule:evenodd;"
d="M 75846.3,25935.5
75855.8,25936.9
75865.2,25939.3
75874.3,25942.5
75883,25946.7
75891.3,25951.6
75899.1,25957.4
75906.2,25963.9
75912.7,25971
75918.5,25978.8
75923.4,25987.1
75927.5,25995.8
75930.8,26004.9
75933.1,26014.3
75934.6,26023.8
75935,26033.5
75935,26722.4
75934.6,26732.1
75933.1,26741.6
75930.8,26751
75927.5,26760.1
75923.4,26768.8
75918.5,26777.1
75912.7,26784.9
75906.2,26792
75899.1,26798.5
75891.3,26804.3
75883,26809.2
75874.3,26813.4
75865.2,26816.6
75855.8,26819
75846.3,26820.4
75836.6,26820.9
75029.5,26820.9
75019.9,26820.4
75010.3,26819
75001,26816.6
74991.9,26813.4
74983.1,26809.2
74974.8,26804.3
74967.1,26798.5
74959.9,26792
74953.4,26784.9
74947.7,26777.1
74942.7,26768.8
74938.6,26760.1
74935.3,26751
74933,26741.6
74931.6,26732.1
74931.1,26722.4
74931.1,26033.5
74931.6,26023.8
74933,26014.3
74935.3,26004.9
74938.6,25995.8
74942.7,25987.1
74947.7,25978.8
74953.4,25971
74959.9,25963.9
74967.1,25957.4
74974.8,25951.6
74983.1,25946.7
74991.9,25942.5
75001,25939.3
75010.3,25936.9
75019.9,25935.5
75029.5,25935
75836.6,25935
Z" /> 
</g>
<g >
</g>
<g style="fill:#000000; fill-opacity:1.0; 
stroke:#000000; stroke-width:0; stroke-opacity:1; 
stroke-linecap:round; stroke-linejoin:round;">
<path style="fill:#000000; fill-opacity:1.0; 
stroke:#000000; stroke-width:0; stroke-opacity:1; 
stroke-linecap:round; stroke-linejoin:round;fill-rule:evenodd;"
d="M 73680.9,25935.5
73690.5,25936.9
73699.8,25939.3
73708.9,25942.5
73717.7,25946.7
73725.9,25951.6
73733.7,25957.4
73740.9,25963.9
73747.3,25971
73753.1,25978.8
73758.1,25987.1
73762.2,25995.8
73765.4,26004.9
73767.8,26014.3
73769.2,26023.8
73769.7,26033.5
73769.7,26722.4
73769.2,26732.1
73767.8,26741.6
73765.4,26751
73762.2,26760.1
73758.1,26768.8
73753.1,26777.1
73747.3,26784.9
73740.9,26792
73733.7,26798.5
73725.9,26804.3
73717.7,26809.2
73708.9,26813.4
73699.8,26816.6
73690.5,26819
73680.9,26820.4
73671.3,26820.9
72864.2,26820.9
72854.5,26820.4
72845,26819
72835.6,26816.6
72826.5,26813.4
72817.8,26809.2
72809.5,26804.3
72801.7,26798.5
72794.6,26792
72788.1,26784.9
72782.3,26777.1
72777.4,26768.8
72773.2,26760.1
72770,26751
72767.6,26741.6
72766.2,26732.1
72765.7,26722.4
72765.7,26033.5
72766.2,26023.8
72767.6,26014.3
72770,26004.9
72773.2,25995.8
72777.4,25987.1
72782.3,25978.8
72788.1,25971
72794.6,25963.9
72801.7,25957.4
72809.5,25951.6
72817.8,25946.7
72826.5,25942.5
72835.6,25939.3
72845,25936.9
72854.5,25935.5
72864.2,25935
73671.3,25935
Z" /> 
<path style="fill:#000000; fill-opacity:1.0; 
stroke:#000000; stroke-width:0; stroke-opacity:1; 
stroke-linecap:round; stroke-linejoin:round;fill-rule:evenodd;"
d="M 73680.9,23415.8
73690.5,23417.2
73699.8,23419.6
73708.9,23422.8
73717.7,23427
73725.9,23431.9
73733.7,23437.7
73740.9,23444.2
73747.3,23451.3
73753.1,23459.1
73758.1,23467.4
73762.2,23476.1
73765.4,23485.2
73767.8,23494.6
73769.2,23504.1
73769.7,23513.8
73769.7,24202.8
73769.2,24212.4
73767.8,24222
73765.4,24231.3
73762.2,24240.4
73758.1,24249.2
73753.1,24257.4
73747.3,24265.2
73740.9,24272.4
73733.7,24278.8
73725.9,24284.6
73717.7,24289.6
73708.9,24293.7
73699.8,24296.9
73690.5,24299.3
73680.9,24300.7
73671.3,24301.2
72864.2,24301.2
72854.5,24300.7
72845,24299.3
72835.6,24296.9
72826.5,24293.7
72817.8,24289.6
72809.5,24284.6
72801.7,24278.8
72794.6,24272.4
72788.1,24265.2
72782.3,24257.4
72777.4,24249.2
72773.2,24240.4
72770,24231.3
72767.6,24222
72766.2,24212.4
72765.7,24202.8
72765.7,23513.8
72766.2,23504.1
72767.6,23494.6
72770,23485.2
72773.2,23476.1
72777.4,23467.4
72782.3,23459.1
72788.1,23451.3
72794.6,23444.2
72801.7,23437.7
72809.5,23431.9
72817.8,23427
72826.5,23422.8
72835.6,23419.6
72845,23417.2
72854.5,23415.8
72864.2,23415.4
73671.3,23415.4
Z" /> 
</g>
<g >
</g>
<g style="fill:#000000; fill-opacity:1.0; 
stroke:#000000; stroke-width:0; stroke-opacity:1; 
stroke-linecap:round; stroke-linejoin:round;">
<path style="fill:#000000; fill-opacity:1.0; 
stroke:#000000; stroke-width:0; stroke-opacity:1; 
stroke-linecap:round; stroke-linejoin:round;fill-rule:evenodd;"
d="M 79399.4,21516.2
79409,21517.6
79418.3,21520
79427.4,21523.2
79436.2,21527.4
79444.4,21532.3
79452.2,21538.1
79459.4,21544.6
79465.8,21551.7
79471.6,21559.5
79476.6,21567.8
79480.7,21576.5
79484,21585.6
79486.3,21595
79487.7,21604.5
79488.2,21614.2
79488.2,21811
79487.7,21820.7
79486.3,21830.2
79484,21839.6
79480.7,21848.7
79476.6,21857.4
79471.6,21865.7
79465.8,21873.5
79459.4,21880.6
79452.2,21887.1
79444.4,21892.9
79436.2,21897.8
79427.4,21902
79418.3,21905.2
79409,21907.6
79399.4,21909
79389.8,21909.4
79192.9,21909.4
79183.3,21909
79173.7,21907.6
79164.3,21905.2
79155.2,21902
79146.5,21897.8
79138.2,21892.9
79130.5,21887.1
79123.3,21880.6
79116.8,21873.5
79111.1,21865.7
79106.1,21857.4
79102,21848.7
79098.7,21839.6
79096.4,21830.2
79095,21820.7
79094.5,21811
79094.5,21614.2
79095,21604.5
79096.4,21595
79098.7,21585.6
79102,21576.5
79106.1,21567.8
79111.1,21559.5
79116.8,21551.7
79123.3,21544.6
79130.5,21538.1
79138.2,21532.3
79146.5,21527.4
79155.2,21523.2
79164.3,21520
79173.7,21517.6
79183.3,21516.2
79192.9,21515.7
79389.8,21515.7
Z" /> 
<path style="fill:#000000; fill-opacity:1.0; 
stroke:#000000; stroke-width:0; stroke-opacity:1; 
stroke-linecap:round; stroke-linejoin:round;fill-rule:evenodd;"
d="M 79399.4,22500.5
79409,22501.9
79418.3,22504.2
79427.4,22507.5
79436.2,22511.6
79444.4,22516.6
79452.2,22522.3
79459.4,22528.8
79465.8,22536
79471.6,22543.7
79476.6,22552
79480.7,22560.8
79484,22569.9
79486.3,22579.2
79487.7,22588.8
79488.2,22598.4
79488.2,22795.3
79487.7,22804.9
79486.3,22814.5
79484,22823.8
79480.7,22832.9
79476.6,22841.7
79471.6,22850
79465.8,22857.7
79459.4,22864.9
79452.2,22871.4
79444.4,22877.1
79436.2,22882.1
79427.4,22886.2
79418.3,22889.5
79409,22891.8
79399.4,22893.2
79389.8,22893.7
79192.9,22893.7
79183.3,22893.2
79173.7,22891.8
79164.3,22889.5
79155.2,22886.2
79146.5,22882.1
79138.2,22877.1
79130.5,22871.4
79123.3,22864.9
79116.8,22857.7
79111.1,22850
79106.1,22841.7
79102,22832.9
79098.7,22823.8
79096.4,22814.5
79095,22804.9
79094.5,22795.3
79094.5,22598.4
79095,22588.8
79096.4,22579.2
79098.7,22569.9
79102,22560.8
79106.1,22552
79111.1,22543.7
79116.8,22536
79123.3,22528.8
79130.5,22522.3
79138.2,22516.6
79146.5,22511.6
79155.2,22507.5
79164.3,22504.2
79173.7,22501.9
79183.3,22500.5
79192.9,22500
79389.8,22500
Z" /> 
</g>
<g >
</g>
<g style="fill:#000000; fill-opacity:1.0; 
stroke:#000000; stroke-width:0; stroke-opacity:1; 
stroke-linecap:round; stroke-linejoin:round;">
<path style="fill:#000000; fill-opacity:1.0; 
stroke:#000000; stroke-width:0; stroke-opacity:1; 
stroke-linecap:round; stroke-linejoin:round;fill-rule:evenodd;"
d="M 79399.4,24193.4
79409,24194.8
79418.3,24197.2
79427.4,24200.4
79436.2,24204.5
79444.4,24209.5
79452.2,24215.3
79459.4,24221.7
79465.8,24228.9
79471.6,24236.7
79476.6,24244.9
79480.7,24253.7
79484,24262.8
79486.3,24272.1
79487.7,24281.7
79488.2,24291.3
79488.2,24488.2
79487.7,24497.8
79486.3,24507.4
79484,24516.8
79480.7,24525.9
79476.6,24534.6
79471.6,24542.9
79465.8,24550.6
79459.4,24557.8
79452.2,24564.3
79444.4,24570
79436.2,24575
79427.4,24579.1
79418.3,24582.4
79409,24584.7
79399.4,24586.1
79389.8,24586.6
79192.9,24586.6
79183.3,24586.1
79173.7,24584.7
79164.3,24582.4
79155.2,24579.1
79146.5,24575
79138.2,24570
79130.5,24564.3
79123.3,24557.8
79116.8,24550.6
79111.1,24542.9
79106.1,24534.6
79102,24525.9
79098.7,24516.8
79096.4,24507.4
79095,24497.8
79094.5,24488.2
79094.5,24291.3
79095,24281.7
79096.4,24272.1
79098.7,24262.8
79102,24253.7
79106.1,24244.9
79111.1,24236.7
79116.8,24228.9
79123.3,24221.7
79130.5,24215.3
79138.2,24209.5
79146.5,24204.5
79155.2,24200.4
79164.3,24197.2
79173.7,24194.8
79183.3,24193.4
79192.9,24192.9
79389.8,24192.9
Z" /> 
<path style="fill:#000000; fill-opacity:1.0; 
stroke:#000000; stroke-width:0; stroke-opacity:1; 
stroke-linecap:round; stroke-linejoin:round;fill-rule:evenodd;"
d="M 79399.4,23209.1
79409,23210.6
79418.3,23212.9
79427.4,23216.2
79436.2,23220.3
79444.4,23225.2
79452.2,23231
79459.4,23237.5
79465.8,23244.6
79471.6,23252.4
79476.6,23260.7
79480.7,23269.4
79484,23278.5
79486.3,23287.9
79487.7,23297.4
79488.2,23307.1
79488.2,23503.9
79487.7,23513.6
79486.3,23523.1
79484,23532.5
79480.7,23541.6
79476.6,23550.3
79471.6,23558.6
79465.8,23566.4
79459.4,23573.5
79452.2,23580
79444.4,23585.8
79436.2,23590.7
79427.4,23594.9
79418.3,23598.1
79409,23600.5
79399.4,23601.9
79389.8,23602.4
79192.9,23602.4
79183.3,23601.9
79173.7,23600.5
79164.3,23598.1
79155.2,23594.9
79146.5,23590.7
79138.2,23585.8
79130.5,23580
79123.3,23573.5
79116.8,23566.4
79111.1,23558.6
79106.1,23550.3
79102,23541.6
79098.7,23532.5
79096.4,23523.1
79095,23513.6
79094.5,23503.9
79094.5,23307.1
79095,23297.4
79096.4,23287.9
79098.7,23278.5
79102,23269.4
79106.1,23260.7
79111.1,23252.4
79116.8,23244.6
79123.3,23237.5
79130.5,23231
79138.2,23225.2
79146.5,23220.3
79155.2,23216.2
79164.3,23212.9
79173.7,23210.6
79183.3,23209.1
79192.9,23208.7
79389.8,23208.7
Z" /> 
</g>
<g >
</g>
<g style="fill:#000000; fill-opacity:1.0; 
stroke:#000000; stroke-width:0; stroke-opacity:1; 
stroke-linecap:round; stroke-linejoin:round;">
<path style="fill:#000000; fill-opacity:1.0; 
stroke:#000000; stroke-width:0; stroke-opacity:1; 
stroke-linecap:round; stroke-linejoin:round;fill-rule:evenodd;"
d="M 80304.9,23209.1
80314.5,23210.6
80323.8,23212.9
80332.9,23216.2
80341.7,23220.3
80350,23225.2
80357.7,23231
80364.9,23237.5
80371.4,23244.6
80377.1,23252.4
80382.1,23260.7
80386.2,23269.4
80389.5,23278.5
80391.8,23287.9
80393.2,23297.4
80393.7,23307.1
80393.7,23503.9
80393.2,23513.6
80391.8,23523.1
80389.5,23532.5
80386.2,23541.6
80382.1,23550.3
80377.1,23558.6
80371.4,23566.4
80364.9,23573.5
80357.7,23580
80350,23585.8
80341.7,23590.7
80332.9,23594.9
80323.8,23598.1
80314.5,23600.5
80304.9,23601.9
80295.3,23602.4
80098.4,23602.4
80088.8,23601.9
80079.2,23600.5
80069.9,23598.1
80060.8,23594.9
80052,23590.7
80043.7,23585.8
80036,23580
80028.8,23573.5
80022.3,23566.4
80016.6,23558.6
80011.6,23550.3
80007.5,23541.6
80004.2,23532.5
80001.9,23523.1
80000.5,23513.6
80000,23503.9
80000,23307.1
80000.5,23297.4
80001.9,23287.9
80004.2,23278.5
80007.5,23269.4
80011.6,23260.7
80016.6,23252.4
80022.3,23244.6
80028.8,23237.5
80036,23231
80043.7,23225.2
80052,23220.3
80060.8,23216.2
80069.9,23212.9
80079.2,23210.6
80088.8,23209.1
80098.4,23208.7
80295.3,23208.7
Z" /> 
<path style="fill:#000000; fill-opacity:1.0; 
stroke:#000000; stroke-width:0; stroke-opacity:1; 
stroke-linecap:round; stroke-linejoin:round;fill-rule:evenodd;"
d="M 80304.9,24193.4
80314.5,24194.8
80323.8,24197.2
80332.9,24200.4
80341.7,24204.5
80350,24209.5
80357.7,24215.3
80364.9,24221.7
80371.4,24228.9
80377.1,24236.7
80382.1,24244.9
80386.2,24253.7
80389.5,24262.8
80391.8,24272.1
80393.2,24281.7
80393.7,24291.3
80393.7,24488.2
80393.2,24497.8
80391.8,24507.4
80389.5,24516.8
80386.2,24525.9
80382.1,24534.6
80377.1,24542.9
80371.4,24550.6
80364.9,24557.8
80357.7,24564.3
80350,24570
80341.7,24575
80332.9,24579.1
80323.8,24582.4
80314.5,24584.7
80304.9,24586.1
80295.3,24586.6
80098.4,24586.6
80088.8,24586.1
80079.2,24584.7
80069.9,24582.4
80060.8,24579.1
80052,24575
80043.7,24570
80036,24564.3
80028.8,24557.8
80022.3,24550.6
80016.6,24542.9
80011.6,24534.6
80007.5,24525.9
80004.2,24516.8
80001.9,24507.4
80000.5,24497.8
80000,24488.2
80000,24291.3
80000.5,24281.7
80001.9,24272.1
80004.2,24262.8
80007.5,24253.7
80011.6,24244.9
80016.6,24236.7
80022.3,24228.9
80028.8,24221.7
80036,24215.3
80043.7,24209.5
80052,24204.5
80060.8,24200.4
80069.9,24197.2
80079.2,24194.8
80088.8,24193.4
80098.4,24192.9
80295.3,24192.9
Z" /> 
</g>
<g >
</g>
<g style="fill:#000000; fill-opacity:1.0; 
stroke:#000000; stroke-width:0; stroke-opacity:1; 
stroke-linecap:round; stroke-linejoin:round;">
<path style="fill:#000000; fill-opacity:1.0; 
stroke:#000000; stroke-width:0; stroke-opacity:1; 
stroke-linecap:round; stroke-linejoin:round;fill-rule:evenodd;"
d="M 72701.1,22461.1
72710.2,22462.4
72719.1,22464.7
72727.7,22467.7
72736,22471.7
72743.9,22476.4
72751.2,22481.9
72758,22488
72764.2,22494.8
72769.7,22502.2
72774.4,22510.1
72778.3,22518.4
72781.4,22527
72783.6,22535.9
72785,22545
72785.4,22554.1
72785.4,22780.5
72785,22789.7
72783.6,22798.8
72781.4,22807.7
72778.3,22816.3
72774.4,22824.6
72769.7,22832.5
72764.2,22839.8
72758,22846.6
72751.2,22852.8
72743.9,22858.3
72736,22863
72727.7,22866.9
72719.1,22870
72710.2,22872.2
72701.1,22873.6
72691.9,22874
72504.9,22874
72495.8,22873.6
72486.7,22872.2
72477.8,22870
72469.1,22866.9
72460.8,22863
72453,22858.3
72445.6,22852.8
72438.8,22846.6
72432.6,22839.8
72427.2,22832.5
72422.5,22824.6
72418.5,22816.3
72415.4,22807.7
72413.2,22798.8
72411.9,22789.7
72411.4,22780.5
72411.4,22554.1
72411.9,22545
72413.2,22535.9
72415.4,22527
72418.5,22518.4
72422.5,22510.1
72427.2,22502.2
72432.6,22494.8
72438.8,22488
72445.6,22481.9
72453,22476.4
72460.8,22471.7
72469.1,22467.7
72477.8,22464.7
72486.7,22462.4
72495.8,22461.1
72504.9,22460.6
72691.9,22460.6
Z" /> 
<path style="fill:#000000; fill-opacity:1.0; 
stroke:#000000; stroke-width:0; stroke-opacity:1; 
stroke-linecap:round; stroke-linejoin:round;fill-rule:evenodd;"
d="M 72701.1,21772.1
72710.2,21773.5
72719.1,21775.7
72727.7,21778.8
72736,21782.7
72743.9,21787.4
72751.2,21792.9
72758,21799
72764.2,21805.8
72769.7,21813.2
72774.4,21821.1
72778.3,21829.4
72781.4,21838
72783.6,21846.9
72785,21856
72785.4,21865.2
72785.4,22091.5
72785,22100.7
72783.6,22109.8
72781.4,22118.7
72778.3,22127.3
72774.4,22135.6
72769.7,22143.5
72764.2,22150.9
72758,22157.7
72751.2,22163.8
72743.9,22169.3
72736,22174
72727.7,22177.9
72719.1,22181
72710.2,22183.2
72701.1,22184.6
72691.9,22185
72504.9,22185
72495.8,22184.6
72486.7,22183.2
72477.8,22181
72469.1,22177.9
72460.8,22174
72453,22169.3
72445.6,22163.8
72438.8,22157.7
72432.6,22150.9
72427.2,22143.5
72422.5,22135.6
72418.5,22127.3
72415.4,22118.7
72413.2,22109.8
72411.9,22100.7
72411.4,22091.5
72411.4,21865.2
72411.9,21856
72413.2,21846.9
72415.4,21838
72418.5,21829.4
72422.5,21821.1
72427.2,21813.2
72432.6,21805.8
72438.8,21799
72445.6,21792.9
72453,21787.4
72460.8,21782.7
72469.1,21778.8
72477.8,21775.7
72486.7,21773.5
72495.8,21772.1
72504.9,21771.7
72691.9,21771.7
Z" /> 
</g>
<g >
</g>
<g style="fill:#000000; fill-opacity:1.0; 
stroke:#000000; stroke-width:0; stroke-opacity:1; 
stroke-linecap:round; stroke-linejoin:round;">
<path style="fill:#000000; fill-opacity:1.0; 
stroke:#000000; stroke-width:0; stroke-opacity:1; 
stroke-linecap:round; stroke-linejoin:round;fill-rule:evenodd;"
d="M 73399.9,21781.9
73409,21783.3
73417.9,21785.5
73426.5,21788.6
73434.8,21792.5
73442.7,21797.3
73450.1,21802.7
73456.9,21808.9
73463,21815.7
73468.5,21823.1
73473.2,21830.9
73477.1,21839.2
73480.2,21847.9
73482.5,21856.8
73483.8,21865.8
73484.3,21875
73484.3,22062
73483.8,22071.2
73482.5,22080.2
73480.2,22089.2
73477.1,22097.8
73473.2,22106.1
73468.5,22114
73463,22121.3
73456.9,22128.1
73450.1,22134.3
73442.7,22139.8
73434.8,22144.5
73426.5,22148.4
73417.9,22151.5
73409,22153.7
73399.9,22155.1
73390.7,22155.5
73164.4,22155.5
73155.2,22155.1
73146.1,22153.7
73137.2,22151.5
73128.6,22148.4
73120.3,22144.5
73112.4,22139.8
73105.1,22134.3
73098.3,22128.1
73092.1,22121.3
73086.6,22114
73081.9,22106.1
73078,22097.8
73074.9,22089.2
73072.7,22080.2
73071.3,22071.2
73070.9,22062
73070.9,21875
73071.3,21865.8
73072.7,21856.8
73074.9,21847.9
73078,21839.2
73081.9,21830.9
73086.6,21823.1
73092.1,21815.7
73098.3,21808.9
73105.1,21802.7
73112.4,21797.3
73120.3,21792.5
73128.6,21788.6
73137.2,21785.5
73146.1,21783.3
73155.2,21781.9
73164.4,21781.5
73390.7,21781.5
Z" /> 
<path style="fill:#000000; fill-opacity:1.0; 
stroke:#000000; stroke-width:0; stroke-opacity:1; 
stroke-linecap:round; stroke-linejoin:round;fill-rule:evenodd;"
d="M 74088.9,21781.9
74098,21783.3
74106.9,21785.5
74115.5,21788.6
74123.8,21792.5
74131.7,21797.3
74139,21802.7
74145.8,21808.9
74152,21815.7
74157.5,21823.1
74162.2,21830.9
74166.1,21839.2
74169.2,21847.9
74171.4,21856.8
74172.8,21865.8
74173.2,21875
74173.2,22062
74172.8,22071.2
74171.4,22080.2
74169.2,22089.2
74166.1,22097.8
74162.2,22106.1
74157.5,22114
74152,22121.3
74145.8,22128.1
74139,22134.3
74131.7,22139.8
74123.8,22144.5
74115.5,22148.4
74106.9,22151.5
74098,22153.7
74088.9,22155.1
74079.7,22155.5
73853.3,22155.5
73844.2,22155.1
73835.1,22153.7
73826.2,22151.5
73817.6,22148.4
73809.3,22144.5
73801.4,22139.8
73794,22134.3
73787.2,22128.1
73781.1,22121.3
73775.6,22114
73770.9,22106.1
73767,22097.8
73763.9,22089.2
73761.6,22080.2
73760.3,22071.2
73759.8,22062
73759.8,21875
73760.3,21865.8
73761.6,21856.8
73763.9,21847.9
73767,21839.2
73770.9,21830.9
73775.6,21823.1
73781.1,21815.7
73787.2,21808.9
73794,21802.7
73801.4,21797.3
73809.3,21792.5
73817.6,21788.6
73826.2,21785.5
73835.1,21783.3
73844.2,21781.9
73853.3,21781.5
74079.7,21781.5
Z" /> 
</g>
<g >
</g>
<g style="fill:#000000; fill-opacity:1.0; 
stroke:#000000; stroke-width:0; stroke-opacity:1; 
stroke-linecap:round; stroke-linejoin:round;">
<path style="fill:#000000; fill-opacity:1.0; 
stroke:#000000; stroke-width:0; stroke-opacity:1; 
stroke-linecap:round; stroke-linejoin:round;fill-rule:evenodd;"
d="M 77031.8,22461.1
77040.9,22462.4
77049.8,22464.7
77058.4,22467.7
77066.7,22471.7
77074.6,22476.4
77082,22481.9
77088.8,22488
77094.9,22494.8
77100.4,22502.2
77105.1,22510.1
77109,22518.4
77112.1,22527
77114.3,22535.9
77115.7,22545
77116.1,22554.1
77116.1,22780.5
77115.7,22789.7
77114.3,22798.8
77112.1,22807.7
77109,22816.3
77105.1,22824.6
77100.4,22832.5
77094.9,22839.8
77088.8,22846.6
77082,22852.8
77074.6,22858.3
77066.7,22863
77058.4,22866.9
77049.8,22870
77040.9,22872.2
77031.8,22873.6
77022.6,22874
76835.6,22874
76826.5,22873.6
76817.4,22872.2
76808.5,22870
76799.8,22866.9
76791.6,22863
76783.7,22858.3
76776.3,22852.8
76769.5,22846.6
76763.4,22839.8
76757.9,22832.5
76753.2,22824.6
76749.2,22816.3
76746.2,22807.7
76743.9,22798.8
76742.6,22789.7
76742.1,22780.5
76742.1,22554.1
76742.6,22545
76743.9,22535.9
76746.2,22527
76749.2,22518.4
76753.2,22510.1
76757.9,22502.2
76763.4,22494.8
76769.5,22488
76776.3,22481.9
76783.7,22476.4
76791.6,22471.7
76799.8,22467.7
76808.5,22464.7
76817.4,22462.4
76826.5,22461.1
76835.6,22460.6
77022.6,22460.6
Z" /> 
<path style="fill:#000000; fill-opacity:1.0; 
stroke:#000000; stroke-width:0; stroke-opacity:1; 
stroke-linecap:round; stroke-linejoin:round;fill-rule:evenodd;"
d="M 77031.8,21772.1
77040.9,21773.5
77049.8,21775.7
77058.4,21778.8
77066.7,21782.7
77074.6,21787.4
77082,21792.9
77088.8,21799
77094.9,21805.8
77100.4,21813.2
77105.1,21821.1
77109,21829.4
77112.1,21838
77114.3,21846.9
77115.7,21856
77116.1,21865.2
77116.1,22091.5
77115.7,22100.7
77114.3,22109.8
77112.1,22118.7
77109,22127.3
77105.1,22135.6
77100.4,22143.5
77094.9,22150.9
77088.8,22157.7
77082,22163.8
77074.6,22169.3
77066.7,22174
77058.4,22177.9
77049.8,22181
77040.9,22183.2
77031.8,22184.6
77022.6,22185
76835.6,22185
76826.5,22184.6
76817.4,22183.2
76808.5,22181
76799.8,22177.9
76791.6,22174
76783.7,22169.3
76776.3,22163.8
76769.5,22157.7
76763.4,22150.9
76757.9,22143.5
76753.2,22135.6
76749.2,22127.3
76746.2,22118.7
76743.9,22109.8
76742.6,22100.7
76742.1,22091.5
76742.1,21865.2
76742.6,21856
76743.9,21846.9
76746.2,21838
76749.2,21829.4
76753.2,21821.1
76757.9,21813.2
76763.4,21805.8
76769.5,21799
76776.3,21792.9
76783.7,21787.4
76791.6,21782.7
76799.8,21778.8
76808.5,21775.7
76817.4,21773.5
76826.5,21772.1
76835.6,21771.7
77022.6,21771.7
Z" /> 
</g>
<g >
</g>
<g style="fill:#000000; fill-opacity:1.0; 
stroke:#000000; stroke-width:0; stroke-opacity:1; 
stroke-linecap:round; stroke-linejoin:round;">
<path style="fill:#000000; fill-opacity:1.0; 
stroke:#000000; stroke-width:0; stroke-opacity:1; 
stroke-linecap:round; stroke-linejoin:round;fill-rule:evenodd;"
d="M 77730.6,21781.9
77739.7,21783.3
77748.6,21785.5
77757.2,21788.6
77765.5,21792.5
77773.4,21797.3
77780.8,21802.7
77787.6,21808.9
77793.7,21815.7
77799.2,21823.1
77803.9,21830.9
77807.8,21839.2
77810.9,21847.9
77813.2,21856.8
77814.5,21865.8
77815,21875
77815,22062
77814.5,22071.2
77813.2,22080.2
77810.9,22089.2
77807.8,22097.8
77803.9,22106.1
77799.2,22114
77793.7,22121.3
77787.6,22128.1
77780.8,22134.3
77773.4,22139.8
77765.5,22144.5
77757.2,22148.4
77748.6,22151.5
77739.7,22153.7
77730.6,22155.1
77721.5,22155.5
77495.1,22155.5
77485.9,22155.1
77476.8,22153.7
77467.9,22151.5
77459.3,22148.4
77451,22144.5
77443.1,22139.8
77435.8,22134.3
77429,22128.1
77422.8,22121.3
77417.3,22114
77412.6,22106.1
77408.7,22097.8
77405.6,22089.2
77403.4,22080.2
77402,22071.2
77401.6,22062
77401.6,21875
77402,21865.8
77403.4,21856.8
77405.6,21847.9
77408.7,21839.2
77412.6,21830.9
77417.3,21823.1
77422.8,21815.7
77429,21808.9
77435.8,21802.7
77443.1,21797.3
77451,21792.5
77459.3,21788.6
77467.9,21785.5
77476.8,21783.3
77485.9,21781.9
77495.1,21781.5
77721.5,21781.5
Z" /> 
<path style="fill:#000000; fill-opacity:1.0; 
stroke:#000000; stroke-width:0; stroke-opacity:1; 
stroke-linecap:round; stroke-linejoin:round;fill-rule:evenodd;"
d="M 78419.6,21781.9
78428.7,21783.3
78437.6,21785.5
78446.2,21788.6
78454.5,21792.5
78462.4,21797.3
78469.8,21802.7
78476.6,21808.9
78482.7,21815.7
78488.2,21823.1
78492.9,21830.9
78496.8,21839.2
78499.9,21847.9
78502.1,21856.8
78503.5,21865.8
78503.9,21875
78503.9,22062
78503.5,22071.2
78502.1,22080.2
78499.9,22089.2
78496.8,22097.8
78492.9,22106.1
78488.2,22114
78482.7,22121.3
78476.6,22128.1
78469.8,22134.3
78462.4,22139.8
78454.5,22144.5
78446.2,22148.4
78437.6,22151.5
78428.7,22153.7
78419.6,22155.1
78410.4,22155.5
78184.1,22155.5
78174.9,22155.1
78165.8,22153.7
78156.9,22151.5
78148.3,22148.4
78140,22144.5
78132.1,22139.8
78124.7,22134.3
78117.9,22128.1
78111.8,22121.3
78106.3,22114
78101.6,22106.1
78097.7,22097.8
78094.6,22089.2
78092.3,22080.2
78091,22071.2
78090.6,22062
78090.6,21875
78091,21865.8
78092.3,21856.8
78094.6,21847.9
78097.7,21839.2
78101.6,21830.9
78106.3,21823.1
78111.8,21815.7
78117.9,21808.9
78124.7,21802.7
78132.1,21797.3
78140,21792.5
78148.3,21788.6
78156.9,21785.5
78165.8,21783.3
78174.9,21781.9
78184.1,21781.5
78410.4,21781.5
Z" /> 
</g>
<g >
</g>
<g style="fill:#000000; fill-opacity:1.0; 
stroke:#000000; stroke-width:0; stroke-opacity:1; 
stroke-linecap:round; stroke-linejoin:round;">
<path style="fill:#000000; fill-opacity:1.0; 
stroke:#000000; stroke-width:0; stroke-opacity:1; 
stroke-linecap:round; stroke-linejoin:round;fill-rule:evenodd;"
d="M 74866.4,22461.1
74875.5,22462.4
74884.4,22464.7
74893.1,22467.7
74901.4,22471.7
74909.2,22476.4
74916.6,22481.9
74923.4,22488
74929.6,22494.8
74935,22502.2
74939.7,22510.1
74943.7,22518.4
74946.8,22527
74949,22535.9
74950.3,22545
74950.8,22554.1
74950.8,22780.5
74950.3,22789.7
74949,22798.8
74946.8,22807.7
74943.7,22816.3
74939.7,22824.6
74935,22832.5
74929.6,22839.8
74923.4,22846.6
74916.6,22852.8
74909.2,22858.3
74901.4,22863
74893.1,22866.9
74884.4,22870
74875.5,22872.2
74866.4,22873.6
74857.3,22874
74670.3,22874
74661.1,22873.6
74652,22872.2
74643.1,22870
74634.5,22866.9
74626.2,22863
74618.3,22858.3
74611,22852.8
74604.2,22846.6
74598,22839.8
74592.5,22832.5
74587.8,22824.6
74583.9,22816.3
74580.8,22807.7
74578.6,22798.8
74577.2,22789.7
74576.8,22780.5
74576.8,22554.1
74577.2,22545
74578.6,22535.9
74580.8,22527
74583.9,22518.4
74587.8,22510.1
74592.5,22502.2
74598,22494.8
74604.2,22488
74611,22481.9
74618.3,22476.4
74626.2,22471.7
74634.5,22467.7
74643.1,22464.7
74652,22462.4
74661.1,22461.1
74670.3,22460.6
74857.3,22460.6
Z" /> 
<path style="fill:#000000; fill-opacity:1.0; 
stroke:#000000; stroke-width:0; stroke-opacity:1; 
stroke-linecap:round; stroke-linejoin:round;fill-rule:evenodd;"
d="M 74866.4,21772.1
74875.5,21773.5
74884.4,21775.7
74893.1,21778.8
74901.4,21782.7
74909.2,21787.4
74916.6,21792.9
74923.4,21799
74929.6,21805.8
74935,21813.2
74939.7,21821.1
74943.7,21829.4
74946.8,21838
74949,21846.9
74950.3,21856
74950.8,21865.2
74950.8,22091.5
74950.3,22100.7
74949,22109.8
74946.8,22118.7
74943.7,22127.3
74939.7,22135.6
74935,22143.5
74929.6,22150.9
74923.4,22157.7
74916.6,22163.8
74909.2,22169.3
74901.4,22174
74893.1,22177.9
74884.4,22181
74875.5,22183.2
74866.4,22184.6
74857.3,22185
74670.3,22185
74661.1,22184.6
74652,22183.2
74643.1,22181
74634.5,22177.9
74626.2,22174
74618.3,22169.3
74611,22163.8
74604.2,22157.7
74598,22150.9
74592.5,22143.5
74587.8,22135.6
74583.9,22127.3
74580.8,22118.7
74578.6,22109.8
74577.2,22100.7
74576.8,22091.5
74576.8,21865.2
74577.2,21856
74578.6,21846.9
74580.8,21838
74583.9,21829.4
74587.8,21821.1
74592.5,21813.2
74598,21805.8
74604.2,21799
74611,21792.9
74618.3,21787.4
74626.2,21782.7
74634.5,21778.8
74643.1,21775.7
74652,21773.5
74661.1,21772.1
74670.3,21771.7
74857.3,21771.7
Z" /> 
</g>
<g >
</g>
<g style="fill:#000000; fill-opacity:1.0; 
stroke:#000000; stroke-width:0; stroke-opacity:1; 
stroke-linecap:round; stroke-linejoin:round;">
<path style="fill:#000000; fill-opacity:1.0; 
stroke:#000000; stroke-width:0; stroke-opacity:1; 
stroke-linecap:round; stroke-linejoin:round;fill-rule:evenodd;"
d="M 75565.3,21781.9
75574.3,21783.3
75583.2,21785.5
75591.9,21788.6
75600.2,21792.5
75608.1,21797.3
75615.4,21802.7
75622.2,21808.9
75628.4,21815.7
75633.8,21823.1
75638.6,21830.9
75642.5,21839.2
75645.6,21847.9
75647.8,21856.8
75649.2,21865.8
75649.6,21875
75649.6,22062
75649.2,22071.2
75647.8,22080.2
75645.6,22089.2
75642.5,22097.8
75638.6,22106.1
75633.8,22114
75628.4,22121.3
75622.2,22128.1
75615.4,22134.3
75608.1,22139.8
75600.2,22144.5
75591.9,22148.4
75583.2,22151.5
75574.3,22153.7
75565.3,22155.1
75556.1,22155.5
75329.7,22155.5
75320.6,22155.1
75311.5,22153.7
75302.6,22151.5
75293.9,22148.4
75285.6,22144.5
75277.8,22139.8
75270.4,22134.3
75263.6,22128.1
75257.4,22121.3
75252,22114
75247.3,22106.1
75243.3,22097.8
75240.2,22089.2
75238,22080.2
75236.7,22071.2
75236.2,22062
75236.2,21875
75236.7,21865.8
75238,21856.8
75240.2,21847.9
75243.3,21839.2
75247.3,21830.9
75252,21823.1
75257.4,21815.7
75263.6,21808.9
75270.4,21802.7
75277.8,21797.3
75285.6,21792.5
75293.9,21788.6
75302.6,21785.5
75311.5,21783.3
75320.6,21781.9
75329.7,21781.5
75556.1,21781.5
Z" /> 
<path style="fill:#000000; fill-opacity:1.0; 
stroke:#000000; stroke-width:0; stroke-opacity:1; 
stroke-linecap:round; stroke-linejoin:round;fill-rule:evenodd;"
d="M 76254.2,21781.9
76263.3,21783.3
76272.2,21785.5
76280.9,21788.6
76289.2,21792.5
76297,21797.3
76304.4,21802.7
76311.2,21808.9
76317.4,21815.7
76322.8,21823.1
76327.5,21830.9
76331.5,21839.2
76334.6,21847.9
76336.8,21856.8
76338.1,21865.8
76338.6,21875
76338.6,22062
76338.1,22071.2
76336.8,22080.2
76334.6,22089.2
76331.5,22097.8
76327.5,22106.1
76322.8,22114
76317.4,22121.3
76311.2,22128.1
76304.4,22134.3
76297,22139.8
76289.2,22144.5
76280.9,22148.4
76272.2,22151.5
76263.3,22153.7
76254.2,22155.1
76245.1,22155.5
76018.7,22155.5
76009.5,22155.1
76000.5,22153.7
75991.6,22151.5
75982.9,22148.4
75974.6,22144.5
75966.8,22139.8
75959.4,22134.3
75952.6,22128.1
75946.4,22121.3
75941,22114
75936.2,22106.1
75932.3,22097.8
75929.2,22089.2
75927,22080.2
75925.6,22071.2
75925.2,22062
75925.2,21875
75925.6,21865.8
75927,21856.8
75929.2,21847.9
75932.3,21839.2
75936.2,21830.9
75941,21823.1
75946.4,21815.7
75952.6,21808.9
75959.4,21802.7
75966.8,21797.3
75974.6,21792.5
75982.9,21788.6
75991.6,21785.5
76000.5,21783.3
76009.5,21781.9
76018.7,21781.5
76245.1,21781.5
Z" /> 
</g>
<g >
</g>
<g style="fill:#000000; fill-opacity:1.0; 
stroke:#000000; stroke-width:0; stroke-opacity:1; 
stroke-linecap:round; stroke-linejoin:round;">
<path style="fill:#000000; fill-opacity:1.0; 
stroke:#000000; stroke-width:0; stroke-opacity:1; 
stroke-linecap:round; stroke-linejoin:round;fill-rule:evenodd;"
d="M 74088.9,22490.6
74098,22492
74106.9,22494.2
74115.5,22497.3
74123.8,22501.2
74131.7,22505.9
74139,22511.4
74145.8,22517.5
74152,22524.3
74157.5,22531.7
74162.2,22539.6
74166.1,22547.9
74169.2,22556.5
74171.4,22565.4
74172.8,22574.5
74173.2,22583.7
74173.2,22770.7
74172.8,22779.8
74171.4,22788.9
74169.2,22797.8
74166.1,22806.5
74162.2,22814.7
74157.5,22822.6
74152,22830
74145.8,22836.8
74139,22842.9
74131.7,22848.4
74123.8,22853.1
74115.5,22857.1
74106.9,22860.1
74098,22862.4
74088.9,22863.7
74079.7,22864.2
73853.3,22864.2
73844.2,22863.7
73835.1,22862.4
73826.2,22860.1
73817.6,22857.1
73809.3,22853.1
73801.4,22848.4
73794,22842.9
73787.2,22836.8
73781.1,22830
73775.6,22822.6
73770.9,22814.7
73767,22806.5
73763.9,22797.8
73761.6,22788.9
73760.3,22779.8
73759.8,22770.7
73759.8,22583.7
73760.3,22574.5
73761.6,22565.4
73763.9,22556.5
73767,22547.9
73770.9,22539.6
73775.6,22531.7
73781.1,22524.3
73787.2,22517.5
73794,22511.4
73801.4,22505.9
73809.3,22501.2
73817.6,22497.3
73826.2,22494.2
73835.1,22492
73844.2,22490.6
73853.3,22490.2
74079.7,22490.2
Z" /> 
<path style="fill:#000000; fill-opacity:1.0; 
stroke:#000000; stroke-width:0; stroke-opacity:1; 
stroke-linecap:round; stroke-linejoin:round;fill-rule:evenodd;"
d="M 73399.9,22490.6
73409,22492
73417.9,22494.2
73426.5,22497.3
73434.8,22501.2
73442.7,22505.9
73450.1,22511.4
73456.9,22517.5
73463,22524.3
73468.5,22531.7
73473.2,22539.6
73477.1,22547.9
73480.2,22556.5
73482.5,22565.4
73483.8,22574.5
73484.3,22583.7
73484.3,22770.7
73483.8,22779.8
73482.5,22788.9
73480.2,22797.8
73477.1,22806.5
73473.2,22814.7
73468.5,22822.6
73463,22830
73456.9,22836.8
73450.1,22842.9
73442.7,22848.4
73434.8,22853.1
73426.5,22857.1
73417.9,22860.1
73409,22862.4
73399.9,22863.7
73390.7,22864.2
73164.4,22864.2
73155.2,22863.7
73146.1,22862.4
73137.2,22860.1
73128.6,22857.1
73120.3,22853.1
73112.4,22848.4
73105.1,22842.9
73098.3,22836.8
73092.1,22830
73086.6,22822.6
73081.9,22814.7
73078,22806.5
73074.9,22797.8
73072.7,22788.9
73071.3,22779.8
73070.9,22770.7
73070.9,22583.7
73071.3,22574.5
73072.7,22565.4
73074.9,22556.5
73078,22547.9
73081.9,22539.6
73086.6,22531.7
73092.1,22524.3
73098.3,22517.5
73105.1,22511.4
73112.4,22505.9
73120.3,22501.2
73128.6,22497.3
73137.2,22494.2
73146.1,22492
73155.2,22490.6
73164.4,22490.2
73390.7,22490.2
Z" /> 
</g>
<g >
</g>
<g style="fill:#000000; fill-opacity:1.0; 
stroke:#000000; stroke-width:0; stroke-opacity:1; 
stroke-linecap:round; stroke-linejoin:round;">
<path style="fill:#000000; fill-opacity:1.0; 
stroke:#000000; stroke-width:0; stroke-opacity:1; 
stroke-linecap:round; stroke-linejoin:round;fill-rule:evenodd;"
d="M 77730.6,22490.6
77739.7,22492
77748.6,22494.2
77757.2,22497.3
77765.5,22501.2
77773.4,22505.9
77780.8,22511.4
77787.6,22517.5
77793.7,22524.3
77799.2,22531.7
77803.9,22539.6
77807.8,22547.9
77810.9,22556.5
77813.2,22565.4
77814.5,22574.5
77815,22583.7
77815,22770.7
77814.5,22779.8
77813.2,22788.9
77810.9,22797.8
77807.8,22806.5
77803.9,22814.7
77799.2,22822.6
77793.7,22830
77787.6,22836.8
77780.8,22842.9
77773.4,22848.4
77765.5,22853.1
77757.2,22857.1
77748.6,22860.1
77739.7,22862.4
77730.6,22863.7
77721.5,22864.2
77495.1,22864.2
77485.9,22863.7
77476.8,22862.4
77467.9,22860.1
77459.3,22857.1
77451,22853.1
77443.1,22848.4
77435.8,22842.9
77429,22836.8
77422.8,22830
77417.3,22822.6
77412.6,22814.7
77408.7,22806.5
77405.6,22797.8
77403.4,22788.9
77402,22779.8
77401.6,22770.7
77401.6,22583.7
77402,22574.5
77403.4,22565.4
77405.6,22556.5
77408.7,22547.9
77412.6,22539.6
77417.3,22531.7
77422.8,22524.3
77429,22517.5
77435.8,22511.4
77443.1,22505.9
77451,22501.2
77459.3,22497.3
77467.9,22494.2
77476.8,22492
77485.9,22490.6
77495.1,22490.2
77721.5,22490.2
Z" /> 
<path style="fill:#000000; fill-opacity:1.0; 
stroke:#000000; stroke-width:0; stroke-opacity:1; 
stroke-linecap:round; stroke-linejoin:round;fill-rule:evenodd;"
d="M 78419.6,22490.6
78428.7,22492
78437.6,22494.2
78446.2,22497.3
78454.5,22501.2
78462.4,22505.9
78469.8,22511.4
78476.6,22517.5
78482.7,22524.3
78488.2,22531.7
78492.9,22539.6
78496.8,22547.9
78499.9,22556.5
78502.1,22565.4
78503.5,22574.5
78503.9,22583.7
78503.9,22770.7
78503.5,22779.8
78502.1,22788.9
78499.9,22797.8
78496.8,22806.5
78492.9,22814.7
78488.2,22822.6
78482.7,22830
78476.6,22836.8
78469.8,22842.9
78462.4,22848.4
78454.5,22853.1
78446.2,22857.1
78437.6,22860.1
78428.7,22862.4
78419.6,22863.7
78410.4,22864.2
78184.1,22864.2
78174.9,22863.7
78165.8,22862.4
78156.9,22860.1
78148.3,22857.1
78140,22853.1
78132.1,22848.4
78124.7,22842.9
78117.9,22836.8
78111.8,22830
78106.3,22822.6
78101.6,22814.7
78097.7,22806.5
78094.6,22797.8
78092.3,22788.9
78091,22779.8
78090.6,22770.7
78090.6,22583.7
78091,22574.5
78092.3,22565.4
78094.6,22556.5
78097.7,22547.9
78101.6,22539.6
78106.3,22531.7
78111.8,22524.3
78117.9,22517.5
78124.7,22511.4
78132.1,22505.9
78140,22501.2
78148.3,22497.3
78156.9,22494.2
78165.8,22492
78174.9,22490.6
78184.1,22490.2
78410.4,22490.2
Z" /> 
</g>
<g >
</g>
<g style="fill:#000000; fill-opacity:1.0; 
stroke:#000000; stroke-width:0; stroke-opacity:1; 
stroke-linecap:round; stroke-linejoin:round;">
<path style="fill:#000000; fill-opacity:1.0; 
stroke:#000000; stroke-width:0; stroke-opacity:1; 
stroke-linecap:round; stroke-linejoin:round;fill-rule:evenodd;"
d="M 76254.2,22490.6
76263.3,22492
76272.2,22494.2
76280.9,22497.3
76289.2,22501.2
76297,22505.9
76304.4,22511.4
76311.2,22517.5
76317.4,22524.3
76322.8,22531.7
76327.5,22539.6
76331.5,22547.9
76334.6,22556.5
76336.8,22565.4
76338.1,22574.5
76338.6,22583.7
76338.6,22770.7
76338.1,22779.8
76336.8,22788.9
76334.6,22797.8
76331.5,22806.5
76327.5,22814.7
76322.8,22822.6
76317.4,22830
76311.2,22836.8
76304.4,22842.9
76297,22848.4
76289.2,22853.1
76280.9,22857.1
76272.2,22860.1
76263.3,22862.4
76254.2,22863.7
76245.1,22864.2
76018.7,22864.2
76009.5,22863.7
76000.5,22862.4
75991.6,22860.1
75982.9,22857.1
75974.6,22853.1
75966.8,22848.4
75959.4,22842.9
75952.6,22836.8
75946.4,22830
75941,22822.6
75936.2,22814.7
75932.3,22806.5
75929.2,22797.8
75927,22788.9
75925.6,22779.8
75925.2,22770.7
75925.2,22583.7
75925.6,22574.5
75927,22565.4
75929.2,22556.5
75932.3,22547.9
75936.2,22539.6
75941,22531.7
75946.4,22524.3
75952.6,22517.5
75959.4,22511.4
75966.8,22505.9
75974.6,22501.2
75982.9,22497.3
75991.6,22494.2
76000.5,22492
76009.5,22490.6
76018.7,22490.2
76245.1,22490.2
Z" /> 
<path style="fill:#000000; fill-opacity:1.0; 
stroke:#000000; stroke-width:0; stroke-opacity:1; 
stroke-linecap:round; stroke-linejoin:round;fill-rule:evenodd;"
d="M 75565.3,22490.6
75574.3,22492
75583.2,22494.2
75591.9,22497.3
75600.2,22501.2
75608.1,22505.9
75615.4,22511.4
75622.2,22517.5
75628.4,22524.3
75633.8,22531.7
75638.6,22539.6
75642.5,22547.9
75645.6,22556.5
75647.8,22565.4
75649.2,22574.5
75649.6,22583.7
75649.6,22770.7
75649.2,22779.8
75647.8,22788.9
75645.6,22797.8
75642.5,22806.5
75638.6,22814.7
75633.8,22822.6
75628.4,22830
75622.2,22836.8
75615.4,22842.9
75608.1,22848.4
75600.2,22853.1
75591.9,22857.1
75583.2,22860.1
75574.3,22862.4
75565.3,22863.7
75556.1,22864.2
75329.7,22864.2
75320.6,22863.7
75311.5,22862.4
75302.6,22860.1
75293.9,22857.1
75285.6,22853.1
75277.8,22848.4
75270.4,22842.9
75263.6,22836.8
75257.4,22830
75252,22822.6
75247.3,22814.7
75243.3,22806.5
75240.2,22797.8
75238,22788.9
75236.7,22779.8
75236.2,22770.7
75236.2,22583.7
75236.7,22574.5
75238,22565.4
75240.2,22556.5
75243.3,22547.9
75247.3,22539.6
75252,22531.7
75257.4,22524.3
75263.6,22517.5
75270.4,22511.4
75277.8,22505.9
75285.6,22501.2
75293.9,22497.3
75302.6,22494.2
75311.5,22492
75320.6,22490.6
75329.7,22490.2
75556.1,22490.2
Z" /> 
</g>
<g >
</g>
<g style="fill:#000000; fill-opacity:1.0; 
stroke:#000000; stroke-width:0; stroke-opacity:1; 
stroke-linecap:round; stroke-linejoin:round;">
<path style="fill:#000000; fill-opacity:1.0; 
stroke:#000000; stroke-width:0; stroke-opacity:1; 
stroke-linecap:round; stroke-linejoin:round;fill-rule:evenodd;"
d="M 80033.8,24970.9
80042.8,24972.3
80051.7,24974.5
80060.4,24977.6
80068.7,24981.5
80076.6,24986.2
80083.9,24991.7
80090.7,24997.9
80096.9,25004.7
80102.4,25012
80107.1,25019.9
80111,25028.2
80114.1,25036.8
80116.3,25045.7
80117.7,25054.8
80118.1,25064
80118.1,25251
80117.7,25260.1
80116.3,25269.2
80114.1,25278.1
80111,25286.8
80107.1,25295.1
80102.4,25302.9
80096.9,25310.3
80090.7,25317.1
80083.9,25323.3
80076.6,25328.7
80068.7,25333.4
80060.4,25337.4
80051.7,25340.5
80042.8,25342.7
80033.8,25344
80024.6,25344.5
79798.2,25344.5
79789.1,25344
79780,25342.7
79771.1,25340.5
79762.4,25337.4
79754.2,25333.4
79746.3,25328.7
79738.9,25323.3
79732.1,25317.1
79725.9,25310.3
79720.5,25302.9
79715.8,25295.1
79711.8,25286.8
79708.8,25278.1
79706.5,25269.2
79705.2,25260.1
79704.7,25251
79704.7,25064
79705.2,25054.8
79706.5,25045.7
79708.8,25036.8
79711.8,25028.2
79715.8,25019.9
79720.5,25012
79725.9,25004.7
79732.1,24997.9
79738.9,24991.7
79746.3,24986.2
79754.2,24981.5
79762.4,24977.6
79771.1,24974.5
79780,24972.3
79789.1,24970.9
79798.2,24970.5
80024.6,24970.5
Z" /> 
<path style="fill:#000000; fill-opacity:1.0; 
stroke:#000000; stroke-width:0; stroke-opacity:1; 
stroke-linecap:round; stroke-linejoin:round;fill-rule:evenodd;"
d="M 79344.8,24970.9
79353.9,24972.3
79362.8,24974.5
79371.4,24977.6
79379.7,24981.5
79387.6,24986.2
79394.9,24991.7
79401.7,24997.9
79407.9,25004.7
79413.4,25012
79418.1,25019.9
79422,25028.2
79425.1,25036.8
79427.3,25045.7
79428.7,25054.8
79429.1,25064
79429.1,25251
79428.7,25260.1
79427.3,25269.2
79425.1,25278.1
79422,25286.8
79418.1,25295.1
79413.4,25302.9
79407.9,25310.3
79401.7,25317.1
79394.9,25323.3
79387.6,25328.7
79379.7,25333.4
79371.4,25337.4
79362.8,25340.5
79353.9,25342.7
79344.8,25344
79335.6,25344.5
79109.3,25344.5
79100.1,25344
79091,25342.7
79082.1,25340.5
79073.5,25337.4
79065.2,25333.4
79057.3,25328.7
79049.9,25323.3
79043.1,25317.1
79037,25310.3
79031.5,25302.9
79026.8,25295.1
79022.9,25286.8
79019.8,25278.1
79017.5,25269.2
79016.2,25260.1
79015.7,25251
79015.7,25064
79016.2,25054.8
79017.5,25045.7
79019.8,25036.8
79022.9,25028.2
79026.8,25019.9
79031.5,25012
79037,25004.7
79043.1,24997.9
79049.9,24991.7
79057.3,24986.2
79065.2,24981.5
79073.5,24977.6
79082.1,24974.5
79091,24972.3
79100.1,24970.9
79109.3,24970.5
79335.6,24970.5
Z" /> 
</g>
<g >
</g>
<g style="fill:#000000; fill-opacity:1.0; 
stroke:#000000; stroke-width:0; stroke-opacity:1; 
stroke-linecap:round; stroke-linejoin:round;">
<path style="fill:#000000; fill-opacity:1.0; 
stroke:#000000; stroke-width:0; stroke-opacity:1; 
stroke-linecap:round; stroke-linejoin:round;fill-rule:evenodd;"
d="M 80033.8,26467
80042.8,26468.3
80051.7,26470.6
80060.4,26473.7
80068.7,26477.6
80076.6,26482.3
80083.9,26487.8
80090.7,26493.9
80096.9,26500.7
80102.4,26508.1
80107.1,26516
80111,26524.3
80114.1,26532.9
80116.3,26541.8
80117.7,26550.9
80118.1,26560
80118.1,26747
80117.7,26756.2
80116.3,26765.3
80114.1,26774.2
80111,26782.8
80107.1,26791.1
80102.4,26799
80096.9,26806.4
80090.7,26813.2
80083.9,26819.3
80076.6,26824.8
80068.7,26829.5
80060.4,26833.4
80051.7,26836.5
80042.8,26838.8
80033.8,26840.1
80024.6,26840.6
79798.2,26840.6
79789.1,26840.1
79780,26838.8
79771.1,26836.5
79762.4,26833.4
79754.2,26829.5
79746.3,26824.8
79738.9,26819.3
79732.1,26813.2
79725.9,26806.4
79720.5,26799
79715.8,26791.1
79711.8,26782.8
79708.8,26774.2
79706.5,26765.3
79705.2,26756.2
79704.7,26747
79704.7,26560
79705.2,26550.9
79706.5,26541.8
79708.8,26532.9
79711.8,26524.3
79715.8,26516
79720.5,26508.1
79725.9,26500.7
79732.1,26493.9
79738.9,26487.8
79746.3,26482.3
79754.2,26477.6
79762.4,26473.7
79771.1,26470.6
79780,26468.3
79789.1,26467
79798.2,26466.5
80024.6,26466.5
Z" /> 
<path style="fill:#000000; fill-opacity:1.0; 
stroke:#000000; stroke-width:0; stroke-opacity:1; 
stroke-linecap:round; stroke-linejoin:round;fill-rule:evenodd;"
d="M 79344.8,26467
79353.9,26468.3
79362.8,26470.6
79371.4,26473.7
79379.7,26477.6
79387.6,26482.3
79394.9,26487.8
79401.7,26493.9
79407.9,26500.7
79413.4,26508.1
79418.1,26516
79422,26524.3
79425.1,26532.9
79427.3,26541.8
79428.7,26550.9
79429.1,26560
79429.1,26747
79428.7,26756.2
79427.3,26765.3
79425.1,26774.2
79422,26782.8
79418.1,26791.1
79413.4,26799
79407.9,26806.4
79401.7,26813.2
79394.9,26819.3
79387.6,26824.8
79379.7,26829.5
79371.4,26833.4
79362.8,26836.5
79353.9,26838.8
79344.8,26840.1
79335.6,26840.6
79109.3,26840.6
79100.1,26840.1
79091,26838.8
79082.1,26836.5
79073.5,26833.4
79065.2,26829.5
79057.3,26824.8
79049.9,26819.3
79043.1,26813.2
79037,26806.4
79031.5,26799
79026.8,26791.1
79022.9,26782.8
79019.8,26774.2
79017.5,26765.3
79016.2,26756.2
79015.7,26747
79015.7,26560
79016.2,26550.9
79017.5,26541.8
79019.8,26532.9
79022.9,26524.3
79026.8,26516
79031.5,26508.1
79037,26500.7
79043.1,26493.9
79049.9,26487.8
79057.3,26482.3
79065.2,26477.6
79073.5,26473.7
79082.1,26470.6
79091,26468.3
79100.1,26467
79109.3,26466.5
79335.6,26466.5
Z" /> 
</g>
<g >
</g>
<g style="fill:#000000; fill-opacity:1.0; 
stroke:#000000; stroke-width:0; stroke-opacity:1; 
stroke-linecap:round; stroke-linejoin:round;">
<path style="fill:#000000; fill-opacity:1.0; 
stroke:#000000; stroke-width:0; stroke-opacity:1; 
stroke-linecap:round; stroke-linejoin:round;fill-rule:evenodd;"
d="M 79344.8,25719
79353.9,25720.3
79362.8,25722.5
79371.4,25725.6
79379.7,25729.5
79387.6,25734.3
79394.9,25739.7
79401.7,25745.9
79407.9,25752.7
79413.4,25760.1
79418.1,25767.9
79422,25776.2
79425.1,25784.9
79427.3,25793.8
79428.7,25802.8
79429.1,25812
79429.1,25999
79428.7,26008.2
79427.3,26017.3
79425.1,26026.2
79422,26034.8
79418.1,26043.1
79413.4,26051
79407.9,26058.3
79401.7,26065.1
79394.9,26071.3
79387.6,26076.8
79379.7,26081.5
79371.4,26085.4
79362.8,26088.5
79353.9,26090.7
79344.8,26092.1
79335.6,26092.5
79109.3,26092.5
79100.1,26092.1
79091,26090.7
79082.1,26088.5
79073.5,26085.4
79065.2,26081.5
79057.3,26076.8
79049.9,26071.3
79043.1,26065.1
79037,26058.3
79031.5,26051
79026.8,26043.1
79022.9,26034.8
79019.8,26026.2
79017.5,26017.3
79016.2,26008.2
79015.7,25999
79015.7,25812
79016.2,25802.8
79017.5,25793.8
79019.8,25784.9
79022.9,25776.2
79026.8,25767.9
79031.5,25760.1
79037,25752.7
79043.1,25745.9
79049.9,25739.7
79057.3,25734.3
79065.2,25729.5
79073.5,25725.6
79082.1,25722.5
79091,25720.3
79100.1,25719
79109.3,25718.5
79335.6,25718.5
Z" /> 
<path style="fill:#000000; fill-opacity:1.0; 
stroke:#000000; stroke-width:0; stroke-opacity:1; 
stroke-linecap:round; stroke-linejoin:round;fill-rule:evenodd;"
d="M 80033.8,25719
80042.8,25720.3
80051.7,25722.5
80060.4,25725.6
80068.7,25729.5
80076.6,25734.3
80083.9,25739.7
80090.7,25745.9
80096.9,25752.7
80102.4,25760.1
80107.1,25767.9
80111,25776.2
80114.1,25784.9
80116.3,25793.8
80117.7,25802.8
80118.1,25812
80118.1,25999
80117.7,26008.2
80116.3,26017.3
80114.1,26026.2
80111,26034.8
80107.1,26043.1
80102.4,26051
80096.9,26058.3
80090.7,26065.1
80083.9,26071.3
80076.6,26076.8
80068.7,26081.5
80060.4,26085.4
80051.7,26088.5
80042.8,26090.7
80033.8,26092.1
80024.6,26092.5
79798.2,26092.5
79789.1,26092.1
79780,26090.7
79771.1,26088.5
79762.4,26085.4
79754.2,26081.5
79746.3,26076.8
79738.9,26071.3
79732.1,26065.1
79725.9,26058.3
79720.5,26051
79715.8,26043.1
79711.8,26034.8
79708.8,26026.2
79706.5,26017.3
79705.2,26008.2
79704.7,25999
79704.7,25812
79705.2,25802.8
79706.5,25793.8
79708.8,25784.9
79711.8,25776.2
79715.8,25767.9
79720.5,25760.1
79725.9,25752.7
79732.1,25745.9
79738.9,25739.7
79746.3,25734.3
79754.2,25729.5
79762.4,25725.6
79771.1,25722.5
79780,25720.3
79789.1,25719
79798.2,25718.5
80024.6,25718.5
Z" /> 
</g>
<g >
</g>
<g style="fill:#000000; fill-opacity:1.0; 
stroke:#000000; stroke-width:0; stroke-opacity:1; 
stroke-linecap:round; stroke-linejoin:round;">
<circle cx="78661.4" cy="24724.4" r="157.48" /> 
</g>
<g style="fill:#000000; fill-opacity:1.0; 
stroke:#000000; stroke-width:39.3701; stroke-opacity:1; 
stroke-linecap:round; stroke-linejoin:round;">
</g>
<g style="fill:#000000; fill-opacity:1.0; 
stroke:#000000; stroke-width:0; stroke-opacity:1; 
stroke-linecap:round; stroke-linejoin:round;">
<circle cx="81653.5" cy="24015.7" r="157.48" /> 
</g>
<g style="fill:#000000; fill-opacity:1.0; 
stroke:#000000; stroke-width:39.3701; stroke-opacity:1; 
stroke-linecap:round; stroke-linejoin:round;">
</g>
<g style="fill:#000000; fill-opacity:1.0; 
stroke:#000000; stroke-width:0; stroke-opacity:1; 
stroke-linecap:round; stroke-linejoin:round;">
<circle cx="80748" cy="26732.3" r="157.48" /> 
</g>
<g style="fill:#000000; fill-opacity:1.0; 
stroke:#000000; stroke-width:39.3701; stroke-opacity:1; 
stroke-linecap:round; stroke-linejoin:round;">
</g>
<g style="fill:#000000; fill-opacity:1.0; 
stroke:#000000; stroke-width:0; stroke-opacity:1; 
stroke-linecap:round; stroke-linejoin:round;">
<circle cx="79763.8" cy="22716.5" r="157.48" /> 
</g>
<g style="fill:#000000; fill-opacity:1.0; 
stroke:#000000; stroke-width:39.3701; stroke-opacity:1; 
stroke-linecap:round; stroke-linejoin:round;">
</g>
<g style="fill:#000000; fill-opacity:1.0; 
stroke:#000000; stroke-width:0; stroke-opacity:1; 
stroke-linecap:round; stroke-linejoin:round;">
<circle cx="80393.7" cy="25157.5" r="157.48" /> 
</g>
<g style="fill:#000000; fill-opacity:1.0; 
stroke:#000000; stroke-width:39.3701; stroke-opacity:1; 
stroke-linecap:round; stroke-linejoin:round;">
</g>
<g style="fill:#000000; fill-opacity:1.0; 
stroke:#000000; stroke-width:0; stroke-opacity:1; 
stroke-linecap:round; stroke-linejoin:round;">
<circle cx="73622" cy="21574.8" r="157.48" /> 
</g>
<g style="fill:#000000; fill-opacity:1.0; 
stroke:#000000; stroke-width:39.3701; stroke-opacity:1; 
stroke-linecap:round; stroke-linejoin:round;">
</g>
<g style="fill:#000000; fill-opacity:1.0; 
stroke:#000000; stroke-width:0; stroke-opacity:1; 
stroke-linecap:round; stroke-linejoin:round;">
<circle cx="74370.1" cy="22322.8" r="157.48" /> 
</g>
<g style="fill:#000000; fill-opacity:1.0; 
stroke:#000000; stroke-width:39.3701; stroke-opacity:1; 
stroke-linecap:round; stroke-linejoin:round;">
</g>
<g style="fill:#000000; fill-opacity:1.0; 
stroke:#000000; stroke-width:0; stroke-opacity:1; 
stroke-linecap:round; stroke-linejoin:round;">
<circle cx="76535.4" cy="22322.8" r="157.48" /> 
</g>
<g style="fill:#000000; fill-opacity:1.0; 
stroke:#000000; stroke-width:39.3701; stroke-opacity:1; 
stroke-linecap:round; stroke-linejoin:round;">
</g>
<g style="fill:#000000; fill-opacity:1.0; 
stroke:#000000; stroke-width:0; stroke-opacity:1; 
stroke-linecap:round; stroke-linejoin:round;">
<circle cx="80390.1" cy="25902" r="157.48" /> 
</g>
<g style="fill:#000000; fill-opacity:1.0; 
stroke:#000000; stroke-width:39.3701; stroke-opacity:1; 
stroke-linecap:round; stroke-linejoin:round;">
</g>
<g style="fill:#000000; fill-opacity:1.0; 
stroke:#000000; stroke-width:0; stroke-opacity:1; 
stroke-linecap:round; stroke-linejoin:round;">
<circle cx="80393.7" cy="26732.3" r="157.48" /> 
</g>
<g style="fill:#000000; fill-opacity:1.0; 
stroke:#000000; stroke-width:39.3701; stroke-opacity:1; 
stroke-linecap:round; stroke-linejoin:round;">
</g>
<g >
</g>
<g style="fill:#000000; fill-opacity:1.0; 
stroke:#000000; stroke-width:39.3701; stroke-opacity:1; 
stroke-linecap:round; stroke-linejoin:round;">
</g>
<g style="fill:#000000; fill-opacity:1.0; 
stroke:#000000; stroke-width:118.11; stroke-opacity:1; 
stroke-linecap:round; stroke-linejoin:round;">
</g>
<g style="fill:#000000; fill-opacity:0.0; 
stroke:#000000; stroke-width:118.11; stroke-opacity:1; 
stroke-linecap:round; stroke-linejoin:round;">
<path d="M78297 21968
L78297 22677
" />
<path d="M79291 23395
L79291 23405
" />
<path d="M78562 22677
L79291 23405
" />
<path d="M78297 22677
L78562 22677
" />
<path d="M79606 23405
L79291 23405
" />
<path d="M80354 23031
L79980 23031
" />
<path d="M79980 23031
L79606 23405
" />
<path d="M81259 21929
L81259 22125
" />
<path d="M81259 22125
L80354 23031
" />
<path d="M74488 25157
L73267 26377
" />
<path d="M79222 25157
L74488 25157
" />
<path d="M81692 24566
L83188 24566
" />
<path d="M79222 25157
L79616 24763
" />
<path d="M81496 24763
L81692 24566
" />
<path d="M79616 24763
L81496 24763
" />
<path d="M77637 26377
L77598 26377
" />
<path d="M77874 26653
L77598 26377
" />
<path d="M79222 26653
L77874 26653
" />
<path d="M79418 26457
L79222 26653
" />
<path d="M80495 26269
L79606 26269
" />
<path d="M79606 26269
L79418 26457
" />
<path d="M83188 26692
L82992 26692
" />
<path d="M82992 26692
L82086 25787
" />
<path d="M82086 25787
L80977 25787
" />
<path d="M80977 25787
L80495 26269
" />
<path d="M75897 25913
L75433 26377
" />
<path d="M76101 25709
L75897 25913
" />
<path d="M78622 25709
L76101 25709
" />
<path d="M79222 25905
L78818 25905
" />
<path d="M78818 25905
L78622 25709
" />
<path d="M79418 25709
L79222 25905
" />
<path d="M79586 25541
L79418 25709
" />
<path d="M83188 25629
L83100 25541
" />
<path d="M83100 25541
L79586 25541
" />
<path d="M73966 21968
L73966 22677
" />
<path d="M73966 21968
L74340 21594
" />
<path d="M78976 21712
L79291 21712
" />
<path d="M78858 21594
L78976 21712
" />
<path d="M74340 21594
L78858 21594
" />
<path d="M79980 21712
L80196 21929
" />
<path d="M79291 21712
L79980 21712
" />
<path d="M76131 21968
L76131 22677
" />
<path d="M76131 23021
L76131 22677
" />
<path d="M76535 23425
L76131 23021
" />
<path d="M76535 24173
L76535 23425
" />
<path d="M80196 23405
L80196 23425
" />
<path d="M80196 23425
L79763 23858
" />
<path d="M79763 23858
L78937 23858
" />
<path d="M78937 23858
L78228 24566
" />
<path d="M78228 24566
L76929 24566
" />
<path d="M76929 24566
L76535 24173
" />
<path d="M80492 23405
L80196 23405
" />
<path d="M81220 22677
L80492 23405
" />
<path d="M81771 22677
L81220 22677
" />
<path d="M82322 21929
L82322 22125
" />
<path d="M82322 22125
L81771 22677
" />
</g>
<g style="fill:#000000; fill-opacity:0.0; 
stroke:#000000; stroke-width:157.48; stroke-opacity:1; 
stroke-linecap:round; stroke-linejoin:round;">
<path d="M75433 23858
L75393 23858
" />
</g>
<g style="fill:#000000; fill-opacity:0.0; 
stroke:#000000; stroke-width:118.11; stroke-opacity:1; 
stroke-linecap:round; stroke-linejoin:round;">
<path d="M74763 23267
L74763 22667
" />
<path d="M75433 23858
L75354 23858
" />
<path d="M75354 23858
L74763 23267
" />
<path d="M75433 22667
L75442 22677
" />
<path d="M74763 22667
L75433 22667
" />
<path d="M75442 22677
L75442 21968
" />
</g>
<g style="fill:#000000; fill-opacity:0.0; 
stroke:#000000; stroke-width:157.48; stroke-opacity:1; 
stroke-linecap:round; stroke-linejoin:round;">
<path d="M73267 23858
L73188 23858
" />
</g>
<g style="fill:#000000; fill-opacity:0.0; 
stroke:#000000; stroke-width:118.11; stroke-opacity:1; 
stroke-linecap:round; stroke-linejoin:round;">
<path d="M72598 22913
L72598 22667
" />
<path d="M73188 23858
L72598 23267
" />
<path d="M72598 23267
L72598 22913
" />
<path d="M73267 22667
L73277 22677
" />
<path d="M72598 22667
L73267 22667
" />
<path d="M73277 22677
L73277 21968
" />
</g>
<g style="fill:#000000; fill-opacity:0.0; 
stroke:#000000; stroke-width:157.48; stroke-opacity:1; 
stroke-linecap:round; stroke-linejoin:round;">
<path d="M77598 23858
L77559 23858
" />
<path d="M77598 22667
L77608 22677
" />
<path d="M76929 22667
L77598 22667
" />
</g>
<g style="fill:#000000; fill-opacity:0.0; 
stroke:#000000; stroke-width:118.11; stroke-opacity:1; 
stroke-linecap:round; stroke-linejoin:round;">
<path d="M76929 22913
L76929 22667
" />
<path d="M77559 23858
L76929 23228
" />
<path d="M76929 23228
L76929 22913
" />
<path d="M77608 22677
L77608 21968
" />
<path d="M81200 23503
L81102 23405
" />
<path d="M83188 23503
L81200 23503
" />
<path d="M83385 22125
L83385 21929
" />
<path d="M81496 22992
L82519 22992
" />
<path d="M82519 22992
L83385 22125
" />
<path d="M81102 23405
L81102 23385
" />
<path d="M81102 23385
L81496 22992
" />
</g>
<g >
</g>
<g style="fill:#000000; fill-opacity:0.0; 
stroke:#000000; stroke-width:118.11; stroke-opacity:1; 
stroke-linecap:round; stroke-linejoin:round;">
</g>
<g style="fill:#000000; fill-opacity:1.0; 
stroke:#000000; stroke-width:118.11; stroke-opacity:1; 
stroke-linecap:round; stroke-linejoin:round;">
<path style="fill:#000000; fill-opacity:1.0; 
stroke:#000000; stroke-width:118.11; stroke-opacity:1; 
stroke-linecap:round; stroke-linejoin:round;fill-rule:evenodd;"
d="M 75058.2,21875
75058.2,22062
75063.4,22115
75078.9,22165.9
75104,22212.9
75137.7,22254
75178.9,22287.8
75206.7,22302.6
75206.7,22343
75178.9,22357.9
75137.7,22391.7
75105.4,22431.1
75097.9,22431.1
75083,22403.3
75049.3,22362.1
75008.1,22328.4
74961.2,22303.3
74910.3,22287.8
74857.3,22282.6
74670.3,22282.6
74617.3,22287.8
74566.4,22303.3
74519.4,22328.4
74478.3,22362.1
74444.5,22403.3
74419.4,22450.2
74404,22501.2
74398.7,22554.1
74398.7,22780.5
74404,22833.5
74419.4,22884.4
74444.5,22931.4
74478.3,22972.5
74519.4,23006.3
74527.6,23010.6
74527.6,23256.1
74526.4,23267.7
74527.6,23279.3
74531,23314
74544.5,23358.6
74566.4,23399.6
74595.9,23435.6
74605,23443
74753.1,23591.1
74753.1,24202.8
74758.4,24256.7
74774.1,24308.5
74799.7,24356.3
74834,24398.2
74875.9,24432.6
74923.7,24458.2
74975.6,24473.9
75029.5,24479.2
75836.6,24479.2
75890.5,24473.9
75942.4,24458.2
75990.2,24432.6
76032.1,24398.2
76066.5,24356.3
76092,24308.5
76107.8,24256.7
76113.1,24202.8
76113.1,23513.8
76107.8,23459.8
76092,23408
76066.5,23360.2
76032.1,23318.3
75990.2,23283.9
75942.4,23258.4
75890.5,23242.6
75836.6,23237.3
75067.5,23237.3
75000,23169.9
75000,23010.6
75008.1,23006.3
75049.3,22972.5
75083,22931.4
75096.1,22906.9
75104,22921.5
75137.7,22962.7
75178.9,22996.4
75225.8,23021.5
75276.8,23037
75329.7,23042.2
75556.1,23042.2
75609.1,23037
75660,23021.5
75707,22996.4
75748.1,22962.7
75781.9,22921.5
75787.4,22911.2
75792.9,22921.5
75826.7,22962.7
75867.8,22996.4
75895.6,23011.2
75894.5,23021.7
75895.7,23033.3
75899.1,23068
75912.6,23112.5
75934.5,23153.5
75964,23189.5
75973.1,23196.9
76299.2,23523
76299.2,24161.6
76298.1,24173.2
76301,24202.8
76302.6,24219.5
76316.1,24264.1
76338.1,24305.1
76367.6,24341.1
76376.6,24348.5
76753.9,24725.8
76761.3,24734.8
76797.3,24764.3
76823.1,24778.1
76838.3,24786.2
76882.8,24799.7
76929.1,24804.3
76940.7,24803.1
78216.7,24803.1
78228.3,24804.3
78240,24803.1
78274.7,24799.7
78319.2,24786.2
78360.2,24764.3
78396.2,24734.8
78403.6,24725.8
79034.9,24094.5
79752.2,24094.5
79763.8,24095.6
79775.4,24094.5
79810.1,24091.1
79854.6,24077.6
79895.7,24055.6
79931.6,24026.1
79939,24017.1
80175.7,23780.4
80295.3,23780.4
80349.2,23775.1
80401.1,23759.3
80448.9,23733.8
80490.8,23699.4
80525.1,23657.5
80535.2,23638.6
80538.4,23638.3
80583,23624.8
80624,23602.9
80660,23573.4
80667.4,23564.3
80727.5,23504.2
80732.8,23557.9
80748.5,23609.7
80774.1,23657.5
80808.5,23699.4
80850.4,23733.8
80898.1,23759.3
80950,23775.1
81003.9,23780.4
81200.8,23780.4
81254.7,23775.1
81306.6,23759.3
81342.5,23740.2
82532.7,23740.2
82543.6,23776.2
82573.7,23832.5
82614.2,23881.9
82663.6,23922.4
82719.9,23952.4
82781,23971
82844.5,23977.2
83533.5,23977.2
83597,23971
83651.6,23954.4
83651.6,24116.4
83597,24099.9
83533.5,24093.6
82844.5,24093.6
82781,24099.9
82719.9,24118.4
82663.6,24148.5
82614.2,24189
82573.7,24238.4
82543.6,24294.7
82532.7,24330.7
81704.5,24330.7
81692.9,24329.6
81667.6,24332.1
81646.6,24334.1
81602.1,24347.6
81561,24369.6
81525.1,24399.1
81517.7,24408.1
81398.2,24527.6
79627.7,24527.6
79616.1,24526.4
79569.8,24531
79525.3,24544.5
79484.3,24566.4
79448.3,24595.9
79440.9,24605
79253.4,24792.5
79109.3,24792.5
79056.3,24797.7
79005.3,24813.1
78958.4,24838.2
78917.3,24872
78883.5,24913.1
78879.1,24921.3
74499.8,24921.3
74488.2,24920.1
74441.9,24924.7
74397.4,24938.2
74356.3,24960.1
74320.3,24989.6
74313,24998.7
73554.6,25757
72864.2,25757
72810.2,25762.3
72758.4,25778.1
72710.6,25803.6
72668.7,25838
72634.3,25879.9
72608.8,25927.7
72593,25979.5
72587.7,26033.5
72587.7,26722.4
72593,26776.4
72608.8,26828.2
72634.3,26876
72668.7,26917.9
72710.6,26952.3
72722.5,26958.7
72451.1,26958.7
72404.8,26954.1
72370.1,26943.6
72338,26926.6
72309.9,26903.6
72286.7,26875.7
72269.5,26843.7
72258.7,26809.1
72253.9,26763.5
72253.9,22884
72254.1,22884.4
72279.2,22931.4
72312.9,22972.5
72354.1,23006.3
72362.2,23010.6
72362.2,23256.1
72361.1,23267.7
72362.2,23279.3
72365.6,23314
72379.1,23358.6
72401.1,23399.6
72430.6,23435.6
72439.6,23443
72587.7,23591.1
72587.7,24202.8
72593,24256.7
72608.8,24308.5
72634.3,24356.3
72668.7,24398.2
72710.6,24432.6
72758.4,24458.2
72810.2,24473.9
72864.2,24479.2
73671.3,24479.2
73725.2,24473.9
73777.1,24458.2
73824.8,24432.6
73866.7,24398.2
73901.1,24356.3
73926.7,24308.5
73942.4,24256.7
73947.7,24202.8
73947.7,23513.8
73942.4,23459.8
73926.7,23408
73901.1,23360.2
73866.7,23318.3
73824.8,23283.9
73777.1,23258.4
73725.2,23242.6
73671.3,23237.3
72902.1,23237.3
72834.6,23169.9
72834.6,23010.6
72842.8,23006.3
72883.9,22972.5
72917.7,22931.4
72930.8,22906.9
72938.6,22921.5
72972.4,22962.7
73013.5,22996.4
73060.5,23021.5
73111.4,23037
73164.4,23042.2
73390.7,23042.2
73443.7,23037
73494.7,23021.5
73541.6,22996.4
73582.7,22962.7
73616.5,22921.5
73622,22911.2
73627.6,22921.5
73661.3,22962.7
73702.5,22996.4
73749.4,23021.5
73800.4,23037
73853.3,23042.2
74079.7,23042.2
74132.7,23037
74183.6,23021.5
74230.6,22996.4
74271.7,22962.7
74305.5,22921.5
74330.6,22874.6
74346,22823.6
74351.3,22770.7
74351.3,22583.7
74346,22530.7
74330.6,22479.8
74305.5,22432.8
74271.7,22391.7
74230.6,22357.9
74202.8,22343
74202.8,22302.6
74230.6,22287.8
74271.7,22254
74305.5,22212.9
74330.6,22165.9
74346,22115
74351.3,22062
74351.3,21917.9
74438.4,21830.7
75062.6,21830.7
Z" /> 
<path style="fill:#000000; fill-opacity:1.0; 
stroke:#000000; stroke-width:118.11; stroke-opacity:1; 
stroke-linecap:round; stroke-linejoin:round;fill-rule:evenodd;"
d="M 82518.8,26553.7
82518.8,26840.6
82525.1,26904.1
82541.6,26958.7
79503.7,26958.7
79527.6,26939
79561.4,26897.9
79586.5,26851
79601.9,26800
79607.2,26747
79607.2,26602.9
79704.1,26505.9
80484.1,26505.9
80495.7,26507.1
80507.3,26505.9
80542,26502.5
80586.5,26489
80627.5,26467
80663.5,26437.5
80670.9,26428.5
81075.8,26023.6
81988.8,26023.6
Z" /> 
<path style="fill:#000000; fill-opacity:1.0; 
stroke:#000000; stroke-width:118.11; stroke-opacity:1; 
stroke-linecap:round; stroke-linejoin:round;fill-rule:evenodd;"
d="M 80397.8,26033.5
79617.9,26033.5
79606.3,26032.3
79603.9,26032.6
79607.2,25999
79607.2,25854.9
79684.5,25777.6
80653.7,25777.6
Z" /> 
<path style="fill:#000000; fill-opacity:1.0; 
stroke:#000000; stroke-width:118.11; stroke-opacity:1; 
stroke-linecap:round; stroke-linejoin:round;fill-rule:evenodd;"
d="M 82543.6,24839.2
82573.7,24895.5
82614.2,24944.8
82663.6,24985.3
82719.9,25015.4
82781,25034
82844.5,25040.2
83533.5,25040.2
83597,25034
83651.6,25017.4
83651.6,25179.4
83597,25162.9
83533.5,25156.6
82844.5,25156.6
82781,25162.9
82719.9,25181.4
82663.6,25211.5
82614.2,25252
82573.7,25301.4
82571.7,25305.1
79601.6,25305.1
79601.9,25304
79607.2,25251
79607.2,25106.8
79714,25000
81484.5,25000
81496.1,25001.1
81507.7,25000
81542.4,24996.6
81586.9,24983.1
81627.9,24961.1
81663.9,24931.6
81671.3,24922.6
81790.8,24803.1
82532.7,24803.1
Z" /> 
<path style="fill:#000000; fill-opacity:1.0; 
stroke:#000000; stroke-width:118.11; stroke-opacity:1; 
stroke-linecap:round; stroke-linejoin:round;fill-rule:evenodd;"
d="M 77223.6,21875
77223.6,22062
77228.8,22115
77244.2,22165.9
77269.3,22212.9
77303.1,22254
77344.2,22287.8
77372,22302.6
77372,22343
77344.2,22357.9
77303.1,22391.7
77286.9,22411.4
77252.8,22411.4
77248.4,22403.3
77214.6,22362.1
77173.5,22328.4
77126.5,22303.3
77075.6,22287.8
77022.6,22282.6
76835.6,22282.6
76782.7,22287.8
76731.7,22303.3
76684.8,22328.4
76643.6,22362.1
76609.9,22403.3
76584.8,22450.2
76569.3,22501.2
76564.1,22554.1
76564.1,22780.5
76569.3,22833.5
76584.8,22884.4
76609.9,22931.4
76643.6,22972.5
76684.8,23006.3
76692.9,23010.6
76692.9,23216.7
76691.8,23228.3
76692.9,23240
76693.9,23249.6
76420.5,22976.2
76437.1,22962.7
76470.8,22921.5
76495.9,22874.6
76511.4,22823.6
76516.6,22770.7
76516.6,22583.7
76511.4,22530.7
76495.9,22479.8
76470.8,22432.8
76437.1,22391.7
76395.9,22357.9
76368.1,22343
76368.1,22302.6
76395.9,22287.8
76437.1,22254
76470.8,22212.9
76495.9,22165.9
76511.4,22115
76516.6,22062
76516.6,21875
76512.2,21830.7
77227.9,21830.7
Z" /> 
<path style="fill:#000000; fill-opacity:1.0; 
stroke:#000000; stroke-width:118.11; stroke-opacity:1; 
stroke-linecap:round; stroke-linejoin:round;fill-rule:evenodd;"
d="M 78801.1,21871.4
78808.5,21880.4
78844.5,21910
78885.5,21931.9
78930.1,21945.4
78954.1,21947.8
78963.1,21964.6
78997.4,22006.5
79039.3,22040.9
79087.1,22066.4
79139,22082.2
79192.9,22087.5
79389.8,22087.5
79443.7,22082.2
79495.6,22066.4
79543.4,22040.9
79585.2,22006.5
79619.6,21964.6
79628.1,21948.8
79723.6,21948.8
79723.6,22273.6
79729.8,22337.2
79748.3,22398.2
79778.4,22454.5
79818.9,22503.9
79868.3,22544.4
79924.6,22574.5
79985.7,22593
80049.2,22599.3
80344.5,22599.3
80408,22593
80469.1,22574.5
80486.6,22565.1
80256.5,22795.3
79991.9,22795.3
79980.3,22794.1
79934,22798.7
79889.5,22812.2
79875.2,22819.8
79848.4,22834.1
79812.5,22863.7
79805.1,22872.7
79574.7,23103
79543.4,23077.2
79495.6,23051.7
79443.7,23036
79389.8,23030.6
79250.5,23030.6
78738.2,22518.3
78730.8,22509.3
78694.9,22479.8
78653.8,22457.9
78648.8,22456.3
78636.2,22432.8
78602.4,22391.7
78561.3,22357.9
78533.5,22343
78533.5,22302.6
78561.3,22287.8
78602.4,22254
78636.2,22212.9
78661.3,22165.9
78676.7,22115
78682,22062
78682,21875
78677.6,21830.7
78760.4,21830.7
Z" /> 
<path style="fill:#000000; fill-opacity:1.0; 
stroke:#000000; stroke-width:118.11; stroke-opacity:1; 
stroke-linecap:round; stroke-linejoin:round;fill-rule:evenodd;"
d="M 73997.5,21603.5
73853.3,21603.5
73800.4,21608.7
73749.4,21624.1
73702.5,21649.2
73661.3,21683
73627.6,21724.1
73622,21734.5
73616.5,21724.1
73582.7,21683
73541.6,21649.2
73494.7,21624.1
73443.7,21608.7
73390.7,21603.5
73164.4,21603.5
73111.4,21608.7
73060.5,21624.1
73013.5,21649.2
72972.4,21683
72938.6,21724.1
72913.5,21771.1
72898.1,21822
72892.8,21875
72892.8,22062
72898.1,22115
72913.5,22165.9
72938.6,22212.9
72972.4,22254
73013.5,22287.8
73041.3,22302.6
73041.3,22343
73013.5,22357.9
72972.4,22391.7
72940,22431.1
72932.6,22431.1
72917.7,22403.3
72883.9,22362.1
72842.8,22328.4
72795.8,22303.3
72744.9,22287.8
72691.9,22282.6
72504.9,22282.6
72451.9,22287.8
72401,22303.3
72354.1,22328.4
72312.9,22362.1
72279.2,22403.3
72254.1,22450.2
72253.9,22450.6
72253.9,21663.7
72258.5,21617.4
72269,21582.7
72286,21550.6
72309,21522.5
72336.9,21499.3
72368.9,21482.1
72403.5,21471.3
72449.1,21466.5
74134.4,21466.5
Z" /> 
</g>
</g> 
</svg>
