M48
; DRILL file {KiCad (5.1.5-0-10_14)} date 2020 August 30, Sunday 19:39:27
; FORMAT={-:-/ absolute / metric / decimal}
; #@! TF.CreationDate,2020-08-30T19:39:27+03:00
; #@! TF.GenerationSoftware,Kicad,Pcbnew,(5.1.5-0-10_14)
; #@! TF.FileFunction,NonPlated,1,2,NPTH
FMAT,2
METRIC
T1C0.500
%
G90
G05
T1
X105.25Y-113.25
X105.25Y-114.75
X106.0Y-113.25
X106.0Y-114.75
X106.75Y-113.25
X106.75Y-114.75
X73.25Y-113.25
X73.25Y-114.75
X74.0Y-113.25
X74.0Y-114.75
X74.75Y-113.25
X74.75Y-114.75
X73.25Y-62.25
X73.25Y-63.75
X74.0Y-62.25
X74.0Y-63.75
X74.75Y-62.25
X74.75Y-63.75
X41.25Y-96.25
X41.25Y-97.75
X42.0Y-96.25
X42.0Y-97.75
X42.75Y-96.25
X42.75Y-97.75
X121.25Y-87.75
X121.25Y-88.5
X121.25Y-89.25
X122.75Y-87.75
X122.75Y-88.5
X122.75Y-89.25
X41.25Y-28.25
X41.25Y-29.75
X42.0Y-28.25
X42.0Y-29.75
X42.75Y-28.25
X42.75Y-29.75
X137.25Y-28.25
X137.25Y-29.75
X138.0Y-28.25
X138.0Y-29.75
X138.75Y-28.25
X138.75Y-29.75
X121.25Y-70.75
X121.25Y-71.5
X121.25Y-72.25
X122.75Y-70.75
X122.75Y-71.5
X122.75Y-72.25
X57.25Y-104.75
X57.25Y-105.5
X57.25Y-106.25
X58.75Y-104.75
X58.75Y-105.5
X58.75Y-106.25
X121.25Y-36.75
X121.25Y-37.5
X121.25Y-38.25
X122.75Y-36.75
X122.75Y-37.5
X122.75Y-38.25
X137.25Y-62.25
X137.25Y-63.75
X138.0Y-62.25
X138.0Y-63.75
X138.75Y-62.25
X138.75Y-63.75
X73.25Y-28.25
X73.25Y-29.75
X74.0Y-28.25
X74.0Y-29.75
X74.75Y-28.25
X74.75Y-29.75
X89.25Y-104.75
X89.25Y-105.5
X89.25Y-106.25
X90.75Y-104.75
X90.75Y-105.5
X90.75Y-106.25
X137.25Y-45.25
X137.25Y-46.75
X138.0Y-45.25
X138.0Y-46.75
X138.75Y-45.25
X138.75Y-46.75
X57.25Y-70.75
X57.25Y-71.5
X57.25Y-72.25
X58.75Y-70.75
X58.75Y-71.5
X58.75Y-72.25
X105.25Y-96.25
X105.25Y-97.75
X106.0Y-96.25
X106.0Y-97.75
X106.75Y-96.25
X106.75Y-97.75
X57.25Y-36.75
X57.25Y-37.5
X57.25Y-38.25
X58.75Y-36.75
X58.75Y-37.5
X58.75Y-38.25
X89.25Y-36.75
X89.25Y-37.5
X89.25Y-38.25
X90.75Y-36.75
X90.75Y-37.5
X90.75Y-38.25
X105.25Y-79.25
X105.25Y-80.75
X106.0Y-79.25
X106.0Y-80.75
X106.75Y-79.25
X106.75Y-80.75
X41.25Y-79.25
X41.25Y-80.75
X42.0Y-79.25
X42.0Y-80.75
X42.75Y-79.25
X42.75Y-80.75
X73.25Y-45.25
X73.25Y-46.75
X74.0Y-45.25
X74.0Y-46.75
X74.75Y-45.25
X74.75Y-46.75
X73.25Y-96.25
X73.25Y-97.75
X74.0Y-96.25
X74.0Y-97.75
X74.75Y-96.25
X74.75Y-97.75
X89.25Y-87.75
X89.25Y-88.5
X89.25Y-89.25
X90.75Y-87.75
X90.75Y-88.5
X90.75Y-89.25
X137.25Y-79.25
X137.25Y-80.75
X138.0Y-79.25
X138.0Y-80.75
X138.75Y-79.25
X138.75Y-80.75
X105.25Y-62.25
X105.25Y-63.75
X106.0Y-62.25
X106.0Y-63.75
X106.75Y-62.25
X106.75Y-63.75
X89.25Y-53.75
X89.25Y-54.5
X89.25Y-55.25
X90.75Y-53.75
X90.75Y-54.5
X90.75Y-55.25
X105.25Y-45.25
X105.25Y-46.75
X106.0Y-45.25
X106.0Y-46.75
X106.75Y-45.25
X106.75Y-46.75
X137.25Y-96.25
X137.25Y-97.75
X138.0Y-96.25
X138.0Y-97.75
X138.75Y-96.25
X138.75Y-97.75
X121.25Y-104.75
X121.25Y-105.5
X121.25Y-106.25
X122.75Y-104.75
X122.75Y-105.5
X122.75Y-106.25
X41.25Y-45.25
X41.25Y-46.75
X42.0Y-45.25
X42.0Y-46.75
X42.75Y-45.25
X42.75Y-46.75
X121.25Y-53.75
X121.25Y-54.5
X121.25Y-55.25
X122.75Y-53.75
X122.75Y-54.5
X122.75Y-55.25
X41.25Y-113.25
X41.25Y-114.75
X42.0Y-113.25
X42.0Y-114.75
X42.75Y-113.25
X42.75Y-114.75
X73.25Y-79.25
X73.25Y-80.75
X74.0Y-79.25
X74.0Y-80.75
X74.75Y-79.25
X74.75Y-80.75
X105.25Y-28.25
X105.25Y-29.75
X106.0Y-28.25
X106.0Y-29.75
X106.75Y-28.25
X106.75Y-29.75
X137.25Y-113.25
X137.25Y-114.75
X138.0Y-113.25
X138.0Y-114.75
X138.75Y-113.25
X138.75Y-114.75
X89.25Y-70.75
X89.25Y-71.5
X89.25Y-72.25
X90.75Y-70.75
X90.75Y-71.5
X90.75Y-72.25
X57.25Y-53.75
X57.25Y-54.5
X57.25Y-55.25
X58.75Y-53.75
X58.75Y-54.5
X58.75Y-55.25
X41.25Y-62.25
X41.25Y-63.75
X42.0Y-62.25
X42.0Y-63.75
X42.75Y-62.25
X42.75Y-63.75
X57.25Y-87.75
X57.25Y-88.5
X57.25Y-89.25
X58.75Y-87.75
X58.75Y-88.5
X58.75Y-89.25
T0
M30
