M48
; DRILL file {KiCad (5.1.5-0-10_14)} date 2020 August 30, Sunday 19:39:27
; FORMAT={-:-/ absolute / metric / decimal}
; #@! TF.CreationDate,2020-08-30T19:39:27+03:00
; #@! TF.GenerationSoftware,Kicad,Pcbnew,(5.1.5-0-10_14)
; #@! TF.FileFunction,Plated,1,2,PTH
FMAT,2
METRIC
T1C0.400
%
G90
G05
T1
X29.0Y-30.8
X29.0Y-47.8
X29.0Y-64.8
X29.0Y-81.8
X29.0Y-98.8
X31.0Y-30.8
X31.0Y-47.8
X31.0Y-64.8
X31.0Y-81.8
X31.0Y-98.8
X32.9Y-32.7
X32.9Y-49.7
X32.9Y-66.7
X32.9Y-83.7
X32.9Y-100.7
X38.4Y-32.7
X38.4Y-49.7
X38.4Y-66.7
X38.4Y-83.7
X38.4Y-100.7
X43.8Y-38.8
X43.8Y-55.8
X43.8Y-72.8
X43.8Y-89.8
X43.8Y-106.8
X46.6Y-33.7
X46.6Y-50.7
X46.6Y-67.7
X46.6Y-84.7
X46.6Y-101.7
X48.191Y-41.791
X48.191Y-58.791
X48.191Y-75.791
X48.191Y-92.791
X48.191Y-109.791
X48.2Y-39.9
X48.2Y-43.9
X48.2Y-56.9
X48.2Y-60.9
X48.2Y-73.9
X48.2Y-77.9
X48.2Y-90.9
X48.2Y-94.9
X48.2Y-107.9
X48.2Y-111.9
X49.0Y-36.5
X49.0Y-53.5
X49.0Y-70.5
X49.0Y-87.5
X49.0Y-104.5
X49.1Y-43.9
X49.1Y-60.9
X49.1Y-77.9
X49.1Y-94.9
X49.1Y-111.9
X61.0Y-30.8
X61.0Y-47.8
X61.0Y-64.8
X61.0Y-81.8
X61.0Y-98.8
X63.0Y-30.8
X63.0Y-47.8
X63.0Y-64.8
X63.0Y-81.8
X63.0Y-98.8
X64.9Y-32.7
X64.9Y-49.7
X64.9Y-66.7
X64.9Y-83.7
X64.9Y-100.7
X70.4Y-32.7
X70.4Y-49.7
X70.4Y-66.7
X70.4Y-83.7
X70.4Y-100.7
X75.8Y-38.8
X75.8Y-55.8
X75.8Y-72.8
X75.8Y-89.8
X75.8Y-106.8
X78.6Y-33.7
X78.6Y-50.7
X78.6Y-67.7
X78.6Y-84.7
X78.6Y-101.7
X80.191Y-41.791
X80.191Y-58.791
X80.191Y-75.791
X80.191Y-92.791
X80.191Y-109.791
X80.2Y-39.9
X80.2Y-43.9
X80.2Y-56.9
X80.2Y-60.9
X80.2Y-73.9
X80.2Y-77.9
X80.2Y-90.9
X80.2Y-94.9
X80.2Y-107.9
X80.2Y-111.9
X81.0Y-36.5
X81.0Y-53.5
X81.0Y-70.5
X81.0Y-87.5
X81.0Y-104.5
X81.1Y-43.9
X81.1Y-60.9
X81.1Y-77.9
X81.1Y-94.9
X81.1Y-111.9
X93.0Y-30.8
X93.0Y-47.8
X93.0Y-64.8
X93.0Y-81.8
X93.0Y-98.8
X95.0Y-30.8
X95.0Y-47.8
X95.0Y-64.8
X95.0Y-81.8
X95.0Y-98.8
X96.9Y-32.7
X96.9Y-49.7
X96.9Y-66.7
X96.9Y-83.7
X96.9Y-100.7
X102.4Y-32.7
X102.4Y-49.7
X102.4Y-66.7
X102.4Y-83.7
X102.4Y-100.7
X107.8Y-38.8
X107.8Y-55.8
X107.8Y-72.8
X107.8Y-89.8
X107.8Y-106.8
X110.6Y-33.7
X110.6Y-50.7
X110.6Y-67.7
X110.6Y-84.7
X110.6Y-101.7
X112.191Y-41.791
X112.191Y-58.791
X112.191Y-75.791
X112.191Y-92.791
X112.191Y-109.791
X112.2Y-39.9
X112.2Y-43.9
X112.2Y-56.9
X112.2Y-60.9
X112.2Y-73.9
X112.2Y-77.9
X112.2Y-90.9
X112.2Y-94.9
X112.2Y-107.9
X112.2Y-111.9
X113.0Y-36.5
X113.0Y-53.5
X113.0Y-70.5
X113.0Y-87.5
X113.0Y-104.5
X113.1Y-43.9
X113.1Y-60.9
X113.1Y-77.9
X113.1Y-94.9
X113.1Y-111.9
X125.0Y-30.8
X125.0Y-47.8
X125.0Y-64.8
X125.0Y-81.8
X125.0Y-98.8
X127.0Y-30.8
X127.0Y-47.8
X127.0Y-64.8
X127.0Y-81.8
X127.0Y-98.8
X128.9Y-32.7
X128.9Y-49.7
X128.9Y-66.7
X128.9Y-83.7
X128.9Y-100.7
X134.4Y-32.7
X134.4Y-49.7
X134.4Y-66.7
X134.4Y-83.7
X134.4Y-100.7
X139.8Y-38.8
X139.8Y-55.8
X139.8Y-72.8
X139.8Y-89.8
X139.8Y-106.8
X142.6Y-33.7
X142.6Y-50.7
X142.6Y-67.7
X142.6Y-84.7
X142.6Y-101.7
X144.191Y-41.791
X144.191Y-58.791
X144.191Y-75.791
X144.191Y-92.791
X144.191Y-109.791
X144.2Y-39.9
X144.2Y-43.9
X144.2Y-56.9
X144.2Y-60.9
X144.2Y-73.9
X144.2Y-77.9
X144.2Y-90.9
X144.2Y-94.9
X144.2Y-107.9
X144.2Y-111.9
X145.0Y-36.5
X145.0Y-53.5
X145.0Y-70.5
X145.0Y-87.5
X145.0Y-104.5
X145.1Y-43.9
X145.1Y-60.9
X145.1Y-77.9
X145.1Y-94.9
X145.1Y-111.9
T0
M30
