M48
; DRILL file {KiCad (5.1.5-0-10_14)} date 2020 August 30, Sunday 00:10:56
; FORMAT={-:-/ absolute / metric / decimal}
; #@! TF.CreationDate,2020-08-30T00:10:56+03:00
; #@! TF.GenerationSoftware,Kicad,Pcbnew,(5.1.5-0-10_14)
; #@! TF.FileFunction,NonPlated,1,2,NPTH
FMAT,2
METRIC
T1C0.500
%
G90
G05
T1
X229.25Y-86.25
X229.25Y-87.75
X230.0Y-86.25
X230.0Y-87.75
X230.75Y-86.25
X230.75Y-87.75
X213.25Y-77.75
X213.25Y-78.5
X213.25Y-79.25
X214.75Y-77.75
X214.75Y-78.5
X214.75Y-79.25
X245.25Y-111.75
X245.25Y-112.5
X245.25Y-113.25
X246.75Y-111.75
X246.75Y-112.5
X246.75Y-113.25
X197.25Y-86.25
X197.25Y-87.75
X198.0Y-86.25
X198.0Y-87.75
X198.75Y-86.25
X198.75Y-87.75
X261.25Y-86.25
X261.25Y-87.75
X262.0Y-86.25
X262.0Y-87.75
X262.75Y-86.25
X262.75Y-87.75
X245.25Y-77.75
X245.25Y-78.5
X245.25Y-79.25
X246.75Y-77.75
X246.75Y-78.5
X246.75Y-79.25
X277.25Y-111.75
X277.25Y-112.5
X277.25Y-113.25
X278.75Y-111.75
X278.75Y-112.5
X278.75Y-113.25
X293.25Y-86.25
X293.25Y-87.75
X294.0Y-86.25
X294.0Y-87.75
X294.75Y-86.25
X294.75Y-87.75
X213.25Y-60.75
X213.25Y-61.5
X213.25Y-62.25
X214.75Y-60.75
X214.75Y-61.5
X214.75Y-62.25
X277.25Y-77.75
X277.25Y-78.5
X277.25Y-79.25
X278.75Y-77.75
X278.75Y-78.5
X278.75Y-79.25
X213.25Y-128.75
X213.25Y-129.5
X213.25Y-130.25
X214.75Y-128.75
X214.75Y-129.5
X214.75Y-130.25
X197.25Y-103.25
X197.25Y-104.75
X198.0Y-103.25
X198.0Y-104.75
X198.75Y-103.25
X198.75Y-104.75
X229.25Y-103.25
X229.25Y-104.75
X230.0Y-103.25
X230.0Y-104.75
X230.75Y-103.25
X230.75Y-104.75
X197.25Y-69.25
X197.25Y-70.75
X198.0Y-69.25
X198.0Y-70.75
X198.75Y-69.25
X198.75Y-70.75
X245.25Y-60.75
X245.25Y-61.5
X245.25Y-62.25
X246.75Y-60.75
X246.75Y-61.5
X246.75Y-62.25
X213.25Y-94.75
X213.25Y-95.5
X213.25Y-96.25
X214.75Y-94.75
X214.75Y-95.5
X214.75Y-96.25
X293.25Y-120.25
X293.25Y-121.75
X294.0Y-120.25
X294.0Y-121.75
X294.75Y-120.25
X294.75Y-121.75
X261.25Y-103.25
X261.25Y-104.75
X262.0Y-103.25
X262.0Y-104.75
X262.75Y-103.25
X262.75Y-104.75
X245.25Y-94.75
X245.25Y-95.5
X245.25Y-96.25
X246.75Y-94.75
X246.75Y-95.5
X246.75Y-96.25
X277.25Y-128.75
X277.25Y-129.5
X277.25Y-130.25
X278.75Y-128.75
X278.75Y-129.5
X278.75Y-130.25
X293.25Y-103.25
X293.25Y-104.75
X294.0Y-103.25
X294.0Y-104.75
X294.75Y-103.25
X294.75Y-104.75
X277.25Y-94.75
X277.25Y-95.5
X277.25Y-96.25
X278.75Y-94.75
X278.75Y-95.5
X278.75Y-96.25
X197.25Y-120.25
X197.25Y-121.75
X198.0Y-120.25
X198.0Y-121.75
X198.75Y-120.25
X198.75Y-121.75
X229.25Y-69.25
X229.25Y-70.75
X230.0Y-69.25
X230.0Y-70.75
X230.75Y-69.25
X230.75Y-70.75
X277.25Y-60.75
X277.25Y-61.5
X277.25Y-62.25
X278.75Y-60.75
X278.75Y-61.5
X278.75Y-62.25
X245.25Y-128.75
X245.25Y-129.5
X245.25Y-130.25
X246.75Y-128.75
X246.75Y-129.5
X246.75Y-130.25
X229.25Y-120.25
X229.25Y-121.75
X230.0Y-120.25
X230.0Y-121.75
X230.75Y-120.25
X230.75Y-121.75
X261.25Y-69.25
X261.25Y-70.75
X262.0Y-69.25
X262.0Y-70.75
X262.75Y-69.25
X262.75Y-70.75
X261.25Y-120.25
X261.25Y-121.75
X262.0Y-120.25
X262.0Y-121.75
X262.75Y-120.25
X262.75Y-121.75
X213.25Y-111.75
X213.25Y-112.5
X213.25Y-113.25
X214.75Y-111.75
X214.75Y-112.5
X214.75Y-113.25
X293.25Y-69.25
X293.25Y-70.75
X294.0Y-69.25
X294.0Y-70.75
X294.75Y-69.25
X294.75Y-70.75
T0
M30
