G04 #@! TF.GenerationSoftware,KiCad,Pcbnew,(5.1.5-0-10_14)*
G04 #@! TF.CreationDate,2020-08-30T19:39:22+03:00*
G04 #@! TF.ProjectId,miniRGBii,6d696e69-5247-4426-9969-2e6b69636164,rev?*
G04 #@! TF.SameCoordinates,Original*
G04 #@! TF.FileFunction,Profile,NP*
%FSLAX46Y46*%
G04 Gerber Fmt 4.6, Leading zero omitted, Abs format (unit mm)*
G04 Created by KiCad (PCBNEW (5.1.5-0-10_14)) date 2020-08-30 19:39:22*
%MOMM*%
%LPD*%
G04 APERTURE LIST*
%ADD10C,0.150000*%
G04 APERTURE END LIST*
D10*
X28000000Y-119000000D02*
X152000000Y-119000000D01*
X28000000Y-119000000D02*
G75*
G02X27000000Y-118000000I0J1000000D01*
G01*
X153000000Y-118000000D02*
G75*
G02X152000000Y-119000000I-1000000J0D01*
G01*
X153000000Y-116000000D02*
X153000000Y-118000000D01*
X27000000Y-116000000D02*
X27000000Y-118000000D01*
X152000000Y-24000000D02*
X28000000Y-24000000D01*
X152000000Y-24000000D02*
G75*
G02X153000000Y-25000000I0J-1000000D01*
G01*
X153000000Y-26000000D02*
X153000000Y-25000000D01*
X153000000Y-27000000D02*
X153000000Y-26000000D01*
X27000000Y-25000000D02*
G75*
G02X28000000Y-24000000I1000000J0D01*
G01*
X27000000Y-27000000D02*
X27000000Y-25000000D01*
X152000000Y-28000000D02*
X140000000Y-28000000D01*
X40000000Y-115000000D02*
X28000000Y-115000000D01*
X27000000Y-52500000D02*
X27000000Y-56500000D01*
X27000000Y-86500000D02*
X27000000Y-90500000D01*
X27000000Y-69500000D02*
X27000000Y-73500000D01*
X104000000Y-28000000D02*
G75*
G02X104000000Y-30000000I0J-1000000D01*
G01*
X28000000Y-115000000D02*
G75*
G03X27000000Y-116000000I0J-1000000D01*
G01*
X72000000Y-28000000D02*
G75*
G02X72000000Y-30000000I0J-1000000D01*
G01*
X140000000Y-30000000D02*
G75*
G02X140000000Y-28000000I0J1000000D01*
G01*
X152000000Y-45000000D02*
X140000000Y-45000000D01*
X56000000Y-62000000D02*
X44000000Y-62000000D01*
X88000000Y-62000000D02*
X76000000Y-62000000D01*
X120000000Y-62000000D02*
X108000000Y-62000000D01*
X152000000Y-62000000D02*
X140000000Y-62000000D01*
X56000000Y-79000000D02*
X44000000Y-79000000D01*
X88000000Y-79000000D02*
X76000000Y-79000000D01*
X120000000Y-79000000D02*
X108000000Y-79000000D01*
X152000000Y-79000000D02*
X140000000Y-79000000D01*
X56000000Y-96000000D02*
X44000000Y-96000000D01*
X88000000Y-96000000D02*
X76000000Y-96000000D01*
X120000000Y-96000000D02*
X108000000Y-96000000D01*
X152000000Y-96000000D02*
X140000000Y-96000000D01*
X56000000Y-113000000D02*
X44000000Y-113000000D01*
X88000000Y-113000000D02*
X76000000Y-113000000D01*
X120000000Y-113000000D02*
X108000000Y-113000000D01*
X152000000Y-113000000D02*
X140000000Y-113000000D01*
X89000000Y-31000000D02*
X89000000Y-35500000D01*
X121000000Y-31000000D02*
X121000000Y-35500000D01*
X153000000Y-31000000D02*
X153000000Y-35500000D01*
X57000000Y-48000000D02*
X57000000Y-52500000D01*
X89000000Y-48000000D02*
X89000000Y-52500000D01*
X121000000Y-48000000D02*
X121000000Y-52500000D01*
X153000000Y-48000000D02*
X153000000Y-52500000D01*
X57000000Y-65000000D02*
X57000000Y-69500000D01*
X89000000Y-65000000D02*
X89000000Y-69500000D01*
X121000000Y-65000000D02*
X121000000Y-69500000D01*
X153000000Y-65000000D02*
X153000000Y-69500000D01*
X57000000Y-82000000D02*
X57000000Y-86500000D01*
X89000000Y-82000000D02*
X89000000Y-86500000D01*
X121000000Y-82000000D02*
X121000000Y-86500000D01*
X153000000Y-82000000D02*
X153000000Y-86500000D01*
X57000000Y-99000000D02*
X57000000Y-103500000D01*
X89000000Y-99000000D02*
X89000000Y-103500000D01*
X121000000Y-99000000D02*
X121000000Y-103500000D01*
X153000000Y-99000000D02*
X153000000Y-103500000D01*
X89000000Y-44000000D02*
G75*
G02X88000000Y-45000000I-1000000J0D01*
G01*
X121000000Y-44000000D02*
G75*
G02X120000000Y-45000000I-1000000J0D01*
G01*
X153000000Y-44000000D02*
G75*
G02X152000000Y-45000000I-1000000J0D01*
G01*
X57000000Y-61000000D02*
G75*
G02X56000000Y-62000000I-1000000J0D01*
G01*
X89000000Y-61000000D02*
G75*
G02X88000000Y-62000000I-1000000J0D01*
G01*
X121000000Y-61000000D02*
G75*
G02X120000000Y-62000000I-1000000J0D01*
G01*
X153000000Y-61000000D02*
G75*
G02X152000000Y-62000000I-1000000J0D01*
G01*
X57000000Y-78000000D02*
G75*
G02X56000000Y-79000000I-1000000J0D01*
G01*
X89000000Y-78000000D02*
G75*
G02X88000000Y-79000000I-1000000J0D01*
G01*
X121000000Y-78000000D02*
G75*
G02X120000000Y-79000000I-1000000J0D01*
G01*
X153000000Y-78000000D02*
G75*
G02X152000000Y-79000000I-1000000J0D01*
G01*
X57000000Y-95000000D02*
G75*
G02X56000000Y-96000000I-1000000J0D01*
G01*
X89000000Y-95000000D02*
G75*
G02X88000000Y-96000000I-1000000J0D01*
G01*
X121000000Y-95000000D02*
G75*
G02X120000000Y-96000000I-1000000J0D01*
G01*
X153000000Y-95000000D02*
G75*
G02X152000000Y-96000000I-1000000J0D01*
G01*
X57000000Y-112000000D02*
G75*
G02X56000000Y-113000000I-1000000J0D01*
G01*
X89000000Y-112000000D02*
G75*
G02X88000000Y-113000000I-1000000J0D01*
G01*
X121000000Y-112000000D02*
G75*
G02X120000000Y-113000000I-1000000J0D01*
G01*
X153000000Y-112000000D02*
G75*
G02X152000000Y-113000000I-1000000J0D01*
G01*
X88000000Y-30000000D02*
G75*
G02X89000000Y-31000000I0J-1000000D01*
G01*
X120000000Y-30000000D02*
G75*
G02X121000000Y-31000000I0J-1000000D01*
G01*
X152000000Y-30000000D02*
G75*
G02X153000000Y-31000000I0J-1000000D01*
G01*
X56000000Y-47000000D02*
G75*
G02X57000000Y-48000000I0J-1000000D01*
G01*
X88000000Y-47000000D02*
G75*
G02X89000000Y-48000000I0J-1000000D01*
G01*
X120000000Y-47000000D02*
G75*
G02X121000000Y-48000000I0J-1000000D01*
G01*
X152000000Y-47000000D02*
G75*
G02X153000000Y-48000000I0J-1000000D01*
G01*
X56000000Y-64000000D02*
G75*
G02X57000000Y-65000000I0J-1000000D01*
G01*
X88000000Y-64000000D02*
G75*
G02X89000000Y-65000000I0J-1000000D01*
G01*
X120000000Y-64000000D02*
G75*
G02X121000000Y-65000000I0J-1000000D01*
G01*
X152000000Y-64000000D02*
G75*
G02X153000000Y-65000000I0J-1000000D01*
G01*
X56000000Y-81000000D02*
G75*
G02X57000000Y-82000000I0J-1000000D01*
G01*
X88000000Y-81000000D02*
G75*
G02X89000000Y-82000000I0J-1000000D01*
G01*
X120000000Y-81000000D02*
G75*
G02X121000000Y-82000000I0J-1000000D01*
G01*
X152000000Y-81000000D02*
G75*
G02X153000000Y-82000000I0J-1000000D01*
G01*
X56000000Y-98000000D02*
G75*
G02X57000000Y-99000000I0J-1000000D01*
G01*
X88000000Y-98000000D02*
G75*
G02X89000000Y-99000000I0J-1000000D01*
G01*
X120000000Y-98000000D02*
G75*
G02X121000000Y-99000000I0J-1000000D01*
G01*
X152000000Y-98000000D02*
G75*
G02X153000000Y-99000000I0J-1000000D01*
G01*
X60000000Y-45000000D02*
G75*
G02X59000000Y-44000000I0J1000000D01*
G01*
X92000000Y-45000000D02*
G75*
G02X91000000Y-44000000I0J1000000D01*
G01*
X124000000Y-45000000D02*
G75*
G02X123000000Y-44000000I0J1000000D01*
G01*
X28000000Y-62000000D02*
G75*
G02X27000000Y-61000000I0J1000000D01*
G01*
X60000000Y-62000000D02*
G75*
G02X59000000Y-61000000I0J1000000D01*
G01*
X92000000Y-62000000D02*
G75*
G02X91000000Y-61000000I0J1000000D01*
G01*
X124000000Y-62000000D02*
G75*
G02X123000000Y-61000000I0J1000000D01*
G01*
X28000000Y-79000000D02*
G75*
G02X27000000Y-78000000I0J1000000D01*
G01*
X60000000Y-79000000D02*
G75*
G02X59000000Y-78000000I0J1000000D01*
G01*
X92000000Y-79000000D02*
G75*
G02X91000000Y-78000000I0J1000000D01*
G01*
X124000000Y-79000000D02*
G75*
G02X123000000Y-78000000I0J1000000D01*
G01*
X28000000Y-96000000D02*
G75*
G02X27000000Y-95000000I0J1000000D01*
G01*
X60000000Y-96000000D02*
G75*
G02X59000000Y-95000000I0J1000000D01*
G01*
X92000000Y-96000000D02*
G75*
G02X91000000Y-95000000I0J1000000D01*
G01*
X124000000Y-96000000D02*
G75*
G02X123000000Y-95000000I0J1000000D01*
G01*
X28000000Y-113000000D02*
G75*
G02X27000000Y-112000000I0J1000000D01*
G01*
X60000000Y-113000000D02*
G75*
G02X59000000Y-112000000I0J1000000D01*
G01*
X92000000Y-113000000D02*
G75*
G02X91000000Y-112000000I0J1000000D01*
G01*
X124000000Y-113000000D02*
G75*
G02X123000000Y-112000000I0J1000000D01*
G01*
X59000000Y-31000000D02*
G75*
G02X60000000Y-30000000I1000000J0D01*
G01*
X91000000Y-31000000D02*
G75*
G02X92000000Y-30000000I1000000J0D01*
G01*
X123000000Y-31000000D02*
G75*
G02X124000000Y-30000000I1000000J0D01*
G01*
X27000000Y-48000000D02*
G75*
G02X28000000Y-47000000I1000000J0D01*
G01*
X59000000Y-48000000D02*
G75*
G02X60000000Y-47000000I1000000J0D01*
G01*
X91000000Y-48000000D02*
G75*
G02X92000000Y-47000000I1000000J0D01*
G01*
X123000000Y-48000000D02*
G75*
G02X124000000Y-47000000I1000000J0D01*
G01*
X27000000Y-65000000D02*
G75*
G02X28000000Y-64000000I1000000J0D01*
G01*
X59000000Y-65000000D02*
G75*
G02X60000000Y-64000000I1000000J0D01*
G01*
X91000000Y-65000000D02*
G75*
G02X92000000Y-64000000I1000000J0D01*
G01*
X123000000Y-65000000D02*
G75*
G02X124000000Y-64000000I1000000J0D01*
G01*
X27000000Y-82000000D02*
G75*
G02X28000000Y-81000000I1000000J0D01*
G01*
X59000000Y-82000000D02*
G75*
G02X60000000Y-81000000I1000000J0D01*
G01*
X91000000Y-82000000D02*
G75*
G02X92000000Y-81000000I1000000J0D01*
G01*
X123000000Y-82000000D02*
G75*
G02X124000000Y-81000000I1000000J0D01*
G01*
X27000000Y-99000000D02*
G75*
G02X28000000Y-98000000I1000000J0D01*
G01*
X59000000Y-99000000D02*
G75*
G02X60000000Y-98000000I1000000J0D01*
G01*
X91000000Y-99000000D02*
G75*
G02X92000000Y-98000000I1000000J0D01*
G01*
X123000000Y-99000000D02*
G75*
G02X124000000Y-98000000I1000000J0D01*
G01*
X28000000Y-28000000D02*
G75*
G02X27000000Y-27000000I0J1000000D01*
G01*
X153000000Y-27000000D02*
G75*
G02X152000000Y-28000000I-1000000J0D01*
G01*
X76000000Y-30000000D02*
G75*
G02X76000000Y-28000000I0J1000000D01*
G01*
X108000000Y-30000000D02*
G75*
G02X108000000Y-28000000I0J1000000D01*
G01*
X44000000Y-28000000D02*
X72000000Y-28000000D01*
X120000000Y-45000000D02*
X108000000Y-45000000D01*
X40000000Y-28000000D02*
G75*
G02X40000000Y-30000000I0J-1000000D01*
G01*
X153000000Y-52500000D02*
X153000000Y-56500000D01*
X153000000Y-35500000D02*
X153000000Y-39500000D01*
X44000000Y-115000000D02*
X72000000Y-115000000D01*
X76000000Y-115000000D02*
X104000000Y-115000000D01*
X108000000Y-115000000D02*
X136000000Y-115000000D01*
X57000000Y-39500000D02*
G75*
G02X59000000Y-39500000I1000000J0D01*
G01*
X59000000Y-35500000D02*
G75*
G02X57000000Y-35500000I-1000000J0D01*
G01*
X40000000Y-30000000D02*
X28000000Y-30000000D01*
X27000000Y-39500000D02*
X27000000Y-44000000D01*
X153000000Y-86500000D02*
X153000000Y-90500000D01*
X153000000Y-103500000D02*
X153000000Y-107500000D01*
X27000000Y-35500000D02*
X27000000Y-39500000D01*
X40000000Y-45000000D02*
G75*
G02X40000000Y-47000000I0J-1000000D01*
G01*
X59000000Y-90500000D02*
X59000000Y-95000000D01*
X91000000Y-90500000D02*
X91000000Y-95000000D01*
X123000000Y-90500000D02*
X123000000Y-95000000D01*
X27000000Y-107500000D02*
X27000000Y-112000000D01*
X59000000Y-107500000D02*
X59000000Y-112000000D01*
X91000000Y-107500000D02*
X91000000Y-112000000D01*
X123000000Y-107500000D02*
X123000000Y-112000000D01*
X72000000Y-45000000D02*
G75*
G02X72000000Y-47000000I0J-1000000D01*
G01*
X104000000Y-45000000D02*
G75*
G02X104000000Y-47000000I0J-1000000D01*
G01*
X136000000Y-45000000D02*
G75*
G02X136000000Y-47000000I0J-1000000D01*
G01*
X40000000Y-62000000D02*
G75*
G02X40000000Y-64000000I0J-1000000D01*
G01*
X72000000Y-62000000D02*
G75*
G02X72000000Y-64000000I0J-1000000D01*
G01*
X104000000Y-62000000D02*
G75*
G02X104000000Y-64000000I0J-1000000D01*
G01*
X136000000Y-62000000D02*
G75*
G02X136000000Y-64000000I0J-1000000D01*
G01*
X40000000Y-79000000D02*
G75*
G02X40000000Y-81000000I0J-1000000D01*
G01*
X72000000Y-79000000D02*
G75*
G02X72000000Y-81000000I0J-1000000D01*
G01*
X104000000Y-79000000D02*
G75*
G02X104000000Y-81000000I0J-1000000D01*
G01*
X136000000Y-79000000D02*
G75*
G02X136000000Y-81000000I0J-1000000D01*
G01*
X40000000Y-96000000D02*
G75*
G02X40000000Y-98000000I0J-1000000D01*
G01*
X72000000Y-96000000D02*
G75*
G02X72000000Y-98000000I0J-1000000D01*
G01*
X104000000Y-96000000D02*
G75*
G02X104000000Y-98000000I0J-1000000D01*
G01*
X136000000Y-96000000D02*
G75*
G02X136000000Y-98000000I0J-1000000D01*
G01*
X40000000Y-113000000D02*
G75*
G02X40000000Y-115000000I0J-1000000D01*
G01*
X72000000Y-113000000D02*
G75*
G02X72000000Y-115000000I0J-1000000D01*
G01*
X104000000Y-113000000D02*
G75*
G02X104000000Y-115000000I0J-1000000D01*
G01*
X136000000Y-113000000D02*
G75*
G02X136000000Y-115000000I0J-1000000D01*
G01*
X76000000Y-30000000D02*
X88000000Y-30000000D01*
X108000000Y-30000000D02*
X120000000Y-30000000D01*
X140000000Y-30000000D02*
X152000000Y-30000000D01*
X44000000Y-47000000D02*
X56000000Y-47000000D01*
X76000000Y-47000000D02*
X88000000Y-47000000D01*
X108000000Y-47000000D02*
X120000000Y-47000000D01*
X140000000Y-47000000D02*
X152000000Y-47000000D01*
X44000000Y-64000000D02*
X56000000Y-64000000D01*
X76000000Y-64000000D02*
X88000000Y-64000000D01*
X108000000Y-64000000D02*
X120000000Y-64000000D01*
X140000000Y-64000000D02*
X152000000Y-64000000D01*
X44000000Y-81000000D02*
X56000000Y-81000000D01*
X76000000Y-81000000D02*
X88000000Y-81000000D01*
X108000000Y-81000000D02*
X120000000Y-81000000D01*
X140000000Y-81000000D02*
X152000000Y-81000000D01*
X44000000Y-98000000D02*
X56000000Y-98000000D01*
X76000000Y-98000000D02*
X88000000Y-98000000D01*
X108000000Y-98000000D02*
X120000000Y-98000000D01*
X140000000Y-98000000D02*
X152000000Y-98000000D01*
X121000000Y-56500000D02*
G75*
G02X123000000Y-56500000I1000000J0D01*
G01*
X57000000Y-73500000D02*
G75*
G02X59000000Y-73500000I1000000J0D01*
G01*
X89000000Y-73500000D02*
G75*
G02X91000000Y-73500000I1000000J0D01*
G01*
X121000000Y-73500000D02*
G75*
G02X123000000Y-73500000I1000000J0D01*
G01*
X57000000Y-90500000D02*
G75*
G02X59000000Y-90500000I1000000J0D01*
G01*
X89000000Y-90500000D02*
G75*
G02X91000000Y-90500000I1000000J0D01*
G01*
X121000000Y-90500000D02*
G75*
G02X123000000Y-90500000I1000000J0D01*
G01*
X57000000Y-107500000D02*
G75*
G02X59000000Y-107500000I1000000J0D01*
G01*
X89000000Y-107500000D02*
G75*
G02X91000000Y-107500000I1000000J0D01*
G01*
X121000000Y-107500000D02*
G75*
G02X123000000Y-107500000I1000000J0D01*
G01*
X91000000Y-35500000D02*
G75*
G02X89000000Y-35500000I-1000000J0D01*
G01*
X123000000Y-35500000D02*
G75*
G02X121000000Y-35500000I-1000000J0D01*
G01*
X59000000Y-52500000D02*
G75*
G02X57000000Y-52500000I-1000000J0D01*
G01*
X91000000Y-52500000D02*
G75*
G02X89000000Y-52500000I-1000000J0D01*
G01*
X123000000Y-52500000D02*
G75*
G02X121000000Y-52500000I-1000000J0D01*
G01*
X59000000Y-69500000D02*
G75*
G02X57000000Y-69500000I-1000000J0D01*
G01*
X91000000Y-69500000D02*
G75*
G02X89000000Y-69500000I-1000000J0D01*
G01*
X123000000Y-69500000D02*
G75*
G02X121000000Y-69500000I-1000000J0D01*
G01*
X59000000Y-86500000D02*
G75*
G02X57000000Y-86500000I-1000000J0D01*
G01*
X91000000Y-86500000D02*
G75*
G02X89000000Y-86500000I-1000000J0D01*
G01*
X123000000Y-86500000D02*
G75*
G02X121000000Y-86500000I-1000000J0D01*
G01*
X59000000Y-103500000D02*
G75*
G02X57000000Y-103500000I-1000000J0D01*
G01*
X91000000Y-103500000D02*
G75*
G02X89000000Y-103500000I-1000000J0D01*
G01*
X123000000Y-103500000D02*
G75*
G02X121000000Y-103500000I-1000000J0D01*
G01*
X72000000Y-30000000D02*
X60000000Y-30000000D01*
X104000000Y-30000000D02*
X92000000Y-30000000D01*
X136000000Y-30000000D02*
X124000000Y-30000000D01*
X40000000Y-47000000D02*
X28000000Y-47000000D01*
X72000000Y-47000000D02*
X60000000Y-47000000D01*
X104000000Y-47000000D02*
X92000000Y-47000000D01*
X136000000Y-47000000D02*
X124000000Y-47000000D01*
X40000000Y-64000000D02*
X28000000Y-64000000D01*
X72000000Y-64000000D02*
X60000000Y-64000000D01*
X104000000Y-64000000D02*
X92000000Y-64000000D01*
X136000000Y-64000000D02*
X124000000Y-64000000D01*
X40000000Y-81000000D02*
X28000000Y-81000000D01*
X72000000Y-81000000D02*
X60000000Y-81000000D01*
X104000000Y-81000000D02*
X92000000Y-81000000D01*
X136000000Y-81000000D02*
X124000000Y-81000000D01*
X40000000Y-98000000D02*
X28000000Y-98000000D01*
X72000000Y-98000000D02*
X60000000Y-98000000D01*
X104000000Y-98000000D02*
X92000000Y-98000000D01*
X136000000Y-98000000D02*
X124000000Y-98000000D01*
X59000000Y-39500000D02*
X59000000Y-44000000D01*
X91000000Y-39500000D02*
X91000000Y-44000000D01*
X123000000Y-39500000D02*
X123000000Y-44000000D01*
X27000000Y-56500000D02*
X27000000Y-61000000D01*
X59000000Y-56500000D02*
X59000000Y-61000000D01*
X91000000Y-56500000D02*
X91000000Y-61000000D01*
X123000000Y-56500000D02*
X123000000Y-61000000D01*
X27000000Y-73500000D02*
X27000000Y-78000000D01*
X59000000Y-73500000D02*
X59000000Y-78000000D01*
X91000000Y-73500000D02*
X91000000Y-78000000D01*
X123000000Y-73500000D02*
X123000000Y-78000000D01*
X27000000Y-90500000D02*
X27000000Y-95000000D01*
X76000000Y-28000000D02*
X104000000Y-28000000D01*
X153000000Y-116000000D02*
G75*
G03X152000000Y-115000000I-1000000J0D01*
G01*
X89000000Y-39500000D02*
G75*
G02X91000000Y-39500000I1000000J0D01*
G01*
X44000000Y-30000000D02*
X56000000Y-30000000D01*
X152000000Y-115000000D02*
X140000000Y-115000000D01*
X27000000Y-103500000D02*
X27000000Y-107500000D01*
X136000000Y-28000000D02*
G75*
G02X136000000Y-30000000I0J-1000000D01*
G01*
X40000000Y-28000000D02*
X28000000Y-28000000D01*
X89000000Y-56500000D02*
G75*
G02X91000000Y-56500000I1000000J0D01*
G01*
X121000000Y-39500000D02*
G75*
G02X123000000Y-39500000I1000000J0D01*
G01*
X108000000Y-28000000D02*
X136000000Y-28000000D01*
X57000000Y-56500000D02*
G75*
G02X59000000Y-56500000I1000000J0D01*
G01*
X153000000Y-69500000D02*
X153000000Y-73500000D01*
X27000000Y-35500000D02*
X27000000Y-31000000D01*
X44000000Y-47000000D02*
G75*
G02X44000000Y-45000000I0J1000000D01*
G01*
X40000000Y-45000000D02*
X28000000Y-45000000D01*
X44000000Y-30000000D02*
G75*
G02X44000000Y-28000000I0J1000000D01*
G01*
X57000000Y-39500000D02*
X57000000Y-44000000D01*
X56000000Y-45000000D02*
X44000000Y-45000000D01*
X57000000Y-31000000D02*
X57000000Y-35500000D01*
X57000000Y-44000000D02*
G75*
G02X56000000Y-45000000I-1000000J0D01*
G01*
X56000000Y-30000000D02*
G75*
G02X57000000Y-31000000I0J-1000000D01*
G01*
X28000000Y-45000000D02*
G75*
G02X27000000Y-44000000I0J1000000D01*
G01*
X27000000Y-31000000D02*
G75*
G02X28000000Y-30000000I1000000J0D01*
G01*
X88000000Y-45000000D02*
X76000000Y-45000000D01*
X59000000Y-35500000D02*
X59000000Y-31000000D01*
X91000000Y-35500000D02*
X91000000Y-31000000D01*
X123000000Y-35500000D02*
X123000000Y-31000000D01*
X27000000Y-52500000D02*
X27000000Y-48000000D01*
X59000000Y-52500000D02*
X59000000Y-48000000D01*
X91000000Y-52500000D02*
X91000000Y-48000000D01*
X123000000Y-52500000D02*
X123000000Y-48000000D01*
X27000000Y-69500000D02*
X27000000Y-65000000D01*
X59000000Y-69500000D02*
X59000000Y-65000000D01*
X91000000Y-69500000D02*
X91000000Y-65000000D01*
X123000000Y-69500000D02*
X123000000Y-65000000D01*
X27000000Y-86500000D02*
X27000000Y-82000000D01*
X59000000Y-86500000D02*
X59000000Y-82000000D01*
X91000000Y-86500000D02*
X91000000Y-82000000D01*
X123000000Y-86500000D02*
X123000000Y-82000000D01*
X27000000Y-103500000D02*
X27000000Y-99000000D01*
X59000000Y-103500000D02*
X59000000Y-99000000D01*
X91000000Y-103500000D02*
X91000000Y-99000000D01*
X123000000Y-103500000D02*
X123000000Y-99000000D01*
X76000000Y-47000000D02*
G75*
G02X76000000Y-45000000I0J1000000D01*
G01*
X108000000Y-47000000D02*
G75*
G02X108000000Y-45000000I0J1000000D01*
G01*
X140000000Y-47000000D02*
G75*
G02X140000000Y-45000000I0J1000000D01*
G01*
X44000000Y-64000000D02*
G75*
G02X44000000Y-62000000I0J1000000D01*
G01*
X76000000Y-64000000D02*
G75*
G02X76000000Y-62000000I0J1000000D01*
G01*
X108000000Y-64000000D02*
G75*
G02X108000000Y-62000000I0J1000000D01*
G01*
X140000000Y-64000000D02*
G75*
G02X140000000Y-62000000I0J1000000D01*
G01*
X44000000Y-81000000D02*
G75*
G02X44000000Y-79000000I0J1000000D01*
G01*
X76000000Y-81000000D02*
G75*
G02X76000000Y-79000000I0J1000000D01*
G01*
X108000000Y-81000000D02*
G75*
G02X108000000Y-79000000I0J1000000D01*
G01*
X140000000Y-81000000D02*
G75*
G02X140000000Y-79000000I0J1000000D01*
G01*
X44000000Y-98000000D02*
G75*
G02X44000000Y-96000000I0J1000000D01*
G01*
X76000000Y-98000000D02*
G75*
G02X76000000Y-96000000I0J1000000D01*
G01*
X108000000Y-98000000D02*
G75*
G02X108000000Y-96000000I0J1000000D01*
G01*
X140000000Y-98000000D02*
G75*
G02X140000000Y-96000000I0J1000000D01*
G01*
X44000000Y-115000000D02*
G75*
G02X44000000Y-113000000I0J1000000D01*
G01*
X76000000Y-115000000D02*
G75*
G02X76000000Y-113000000I0J1000000D01*
G01*
X108000000Y-115000000D02*
G75*
G02X108000000Y-113000000I0J1000000D01*
G01*
X140000000Y-115000000D02*
G75*
G02X140000000Y-113000000I0J1000000D01*
G01*
X72000000Y-45000000D02*
X60000000Y-45000000D01*
X104000000Y-45000000D02*
X92000000Y-45000000D01*
X136000000Y-45000000D02*
X124000000Y-45000000D01*
X40000000Y-62000000D02*
X28000000Y-62000000D01*
X72000000Y-62000000D02*
X60000000Y-62000000D01*
X104000000Y-62000000D02*
X92000000Y-62000000D01*
X136000000Y-62000000D02*
X124000000Y-62000000D01*
X40000000Y-79000000D02*
X28000000Y-79000000D01*
X72000000Y-79000000D02*
X60000000Y-79000000D01*
X104000000Y-79000000D02*
X92000000Y-79000000D01*
X136000000Y-79000000D02*
X124000000Y-79000000D01*
X40000000Y-96000000D02*
X28000000Y-96000000D01*
X72000000Y-96000000D02*
X60000000Y-96000000D01*
X104000000Y-96000000D02*
X92000000Y-96000000D01*
X136000000Y-96000000D02*
X124000000Y-96000000D01*
X40000000Y-113000000D02*
X28000000Y-113000000D01*
X72000000Y-113000000D02*
X60000000Y-113000000D01*
X104000000Y-113000000D02*
X92000000Y-113000000D01*
X136000000Y-113000000D02*
X124000000Y-113000000D01*
X89000000Y-39500000D02*
X89000000Y-44000000D01*
X121000000Y-39500000D02*
X121000000Y-44000000D01*
X153000000Y-39500000D02*
X153000000Y-44000000D01*
X57000000Y-56500000D02*
X57000000Y-61000000D01*
X89000000Y-56500000D02*
X89000000Y-61000000D01*
X121000000Y-56500000D02*
X121000000Y-61000000D01*
X153000000Y-56500000D02*
X153000000Y-61000000D01*
X57000000Y-73500000D02*
X57000000Y-78000000D01*
X89000000Y-73500000D02*
X89000000Y-78000000D01*
X121000000Y-73500000D02*
X121000000Y-78000000D01*
X153000000Y-73500000D02*
X153000000Y-78000000D01*
X57000000Y-90500000D02*
X57000000Y-95000000D01*
X89000000Y-90500000D02*
X89000000Y-95000000D01*
X121000000Y-90500000D02*
X121000000Y-95000000D01*
X153000000Y-90500000D02*
X153000000Y-95000000D01*
X57000000Y-107500000D02*
X57000000Y-112000000D01*
X89000000Y-107500000D02*
X89000000Y-112000000D01*
X121000000Y-107500000D02*
X121000000Y-112000000D01*
X153000000Y-107500000D02*
X153000000Y-112000000D01*
M02*
