<?xml version="1.0" standalone="no"?>
 <!DOCTYPE svg PUBLIC "-//W3C//DTD SVG 1.1//EN" 
 "http://www.w3.org/Graphics/SVG/1.1/DTD/svg11.dtd"> 
<svg xmlns="http://www.w3.org/2000/svg" version="1.1" 
    width="29.7002cm" height="21.0007cm" viewBox="0 0 116930 82680 ">
<title>SVG Picture created as miniRGBii-Edge_Cuts.svg date 2020/08/30 00:04:55 </title>
  <desc>Picture generated by PCBNEW </desc>
<g style="fill:#000000; fill-opacity:1;stroke:#000000; stroke-opacity:1;
stroke-linecap:round; stroke-linejoin:round; "
 transform="translate(0 0) scale(1 1)">
</g>
<g style="fill:#000000; fill-opacity:0.0; 
stroke:#000000; stroke-width:-0.000393701; stroke-opacity:1; 
stroke-linecap:round; stroke-linejoin:round;">
</g>
<g style="fill:#000000; fill-opacity:0.0; 
stroke:#000000; stroke-width:59.0551; stroke-opacity:1; 
stroke-linecap:round; stroke-linejoin:round;">
<path d="M121653 50196
L121653 51771
" />
<path d="M121653 43503
L121653 45078
" />
<path d="M121653 36811
L121653 38385
" />
<path d="M121653 30118
L121653 31692
" />
<path d="M121653 23425
L121653 25000
" />
<path d="M114960 21259
L116535 21259
" />
<path d="M102362 21259
L103937 21259
" />
<path d="M89763 21259
L91338 21259
" />
<path d="M77165 21259
L78740 21259
" />
<path d="M72047 50196
L72047 51771
" />
<path d="M72047 43503
L72047 45078
" />
<path d="M72047 36811
L72047 38385
" />
<path d="M72047 30118
L72047 31692
" />
<path d="M72047 23425
L72047 25000
" />
<path d="M114960 53937
L116535 53937
" />
<path d="M102362 53937
L103937 53937
" />
<path d="M89763 53937
L91338 53937
" />
<path d="M77165 53937
L78740 53937
" />
<path d="M109842 48031
L109842 50196
" />
<path d="M97244 48031
L97244 50196
" />
<path d="M84645 48031
L84645 50196
" />
<path d="M72047 48031
L72047 50196
" />
<path d="M109842 41338
L109842 43503
" />
<path d="M97244 41338
L97244 43503
" />
<path d="M84645 41338
L84645 43503
" />
<path d="M72047 41338
L72047 43503
" />
<path d="M109842 34645
L109842 36811
" />
<path d="M97244 34645
L97244 36811
" />
<path d="M84645 34645
L84645 36811
" />
<path d="M72047 34645
L72047 36811
" />
<path d="M109842 27952
L109842 30118
" />
<path d="M97244 27952
L97244 30118
" />
<path d="M84645 27952
L84645 30118
" />
<path d="M72047 27952
L72047 30118
" />
<path d="M109842 21259
L109842 23425
" />
<path d="M97244 21259
L97244 23425
" />
<path d="M84645 21259
L84645 23425
" />
<path d="M116535 47244.1 A393.701 393.701 0.0 0 0 116535 48031.5 " />
<path d="M103937 47244.1 A393.701 393.701 0.0 0 0 103937 48031.5 " />
<path d="M91338.6 47244.1 A393.701 393.701 0.0 0 0 91338.6 48031.5 " />
<path d="M78740.2 47244.1 A393.701 393.701 0.0 0 0 78740.2 48031.5 " />
<path d="M116535 40551.2 A393.701 393.701 0.0 0 0 116535 41338.6 " />
<path d="M103937 40551.2 A393.701 393.701 0.0 0 0 103937 41338.6 " />
<path d="M91338.6 40551.2 A393.701 393.701 0.0 0 0 91338.6 41338.6 " />
<path d="M78740.2 40551.2 A393.701 393.701 0.0 0 0 78740.2 41338.6 " />
<path d="M116535 33858.3 A393.701 393.701 0.0 0 0 116535 34645.7 " />
<path d="M103937 33858.3 A393.701 393.701 0.0 0 0 103937 34645.7 " />
<path d="M91338.6 33858.3 A393.701 393.701 0.0 0 0 91338.6 34645.7 " />
<path d="M78740.2 33858.3 A393.701 393.701 0.0 0 0 78740.2 34645.7 " />
<path d="M116535 27165.4 A393.701 393.701 0.0 0 0 116535 27952.8 " />
<path d="M103937 27165.4 A393.701 393.701 0.0 0 0 103937 27952.8 " />
<path d="M91338.6 27165.4 A393.701 393.701 0.0 0 0 91338.6 27952.8 " />
<path d="M121653 50196
L121653 48031
" />
<path d="M109055 50196
L109055 48031
" />
<path d="M96456 50196
L96456 48031
" />
<path d="M83858 50196
L83858 48031
" />
<path d="M121653 43503
L121653 41338
" />
<path d="M109055 43503
L109055 41338
" />
<path d="M96456 43503
L96456 41338
" />
<path d="M83858 43503
L83858 41338
" />
<path d="M121653 36811
L121653 34645
" />
<path d="M109055 36811
L109055 34645
" />
<path d="M96456 36811
L96456 34645
" />
<path d="M83858 36811
L83858 34645
" />
<path d="M121653 30118
L121653 27952
" />
<path d="M109055 30118
L109055 27952
" />
<path d="M96456 30118
L96456 27952
" />
<path d="M83858 30118
L83858 27952
" />
<path d="M121653 23425
L121653 21259
" />
<path d="M109055 23425
L109055 21259
" />
<path d="M96456 23425
L96456 21259
" />
<path d="M121653 53937
L121653 51771
" />
<path d="M109055 53937
L109055 51771
" />
<path d="M96456 53937
L96456 51771
" />
<path d="M83858 53937
L83858 51771
" />
<path d="M121653 47244
L121653 45078
" />
<path d="M109055 47244
L109055 45078
" />
<path d="M96456 47244
L96456 45078
" />
<path d="M83858 47244
L83858 45078
" />
<path d="M121653 40551
L121653 38385
" />
<path d="M109055 40551
L109055 38385
" />
<path d="M96456 40551
L96456 38385
" />
<path d="M83858 40551
L83858 38385
" />
<path d="M121653 33858
L121653 31692
" />
<path d="M109055 33858
L109055 31692
" />
<path d="M96456 33858
L96456 31692
" />
<path d="M83858 33858
L83858 31692
" />
<path d="M121653 27165
L121653 25000
" />
<path d="M109055 27165
L109055 25000
" />
<path d="M96456 27165
L96456 25000
" />
<path d="M109842 53937
L114960 53937
" />
<path d="M97244 53937
L102362 53937
" />
<path d="M84645 53937
L89763 53937
" />
<path d="M72047 53937
L77165 53937
" />
<path d="M109842 47244
L114960 47244
" />
<path d="M97244 47244
L102362 47244
" />
<path d="M84645 47244
L89763 47244
" />
<path d="M72047 47244
L77165 47244
" />
<path d="M109842 40551
L114960 40551
" />
<path d="M97244 40551
L102362 40551
" />
<path d="M84645 40551
L89763 40551
" />
<path d="M72047 40551
L77165 40551
" />
<path d="M109842 33858
L114960 33858
" />
<path d="M97244 33858
L102362 33858
" />
<path d="M84645 33858
L89763 33858
" />
<path d="M72047 33858
L77165 33858
" />
<path d="M109842 27165
L114960 27165
" />
<path d="M97244 27165
L102362 27165
" />
<path d="M84645 27165
L89763 27165
" />
<path d="M109055 50196.9 A393.701 393.701 0.0 0 0 109843 50196.9 " />
<path d="M96456.7 50196.9 A393.701 393.701 0.0 0 0 97244.1 50196.9 " />
<path d="M83858.3 50196.9 A393.701 393.701 0.0 0 0 84645.7 50196.9 " />
<path d="M109055 43503.9 A393.701 393.701 0.0 0 0 109843 43503.9 " />
<path d="M96456.7 43503.9 A393.701 393.701 0.0 0 0 97244.1 43503.9 " />
<path d="M83858.3 43503.9 A393.701 393.701 0.0 0 0 84645.7 43503.9 " />
<path d="M109055 36811 A393.701 393.701 0.0 0 0 109843 36811 " />
<path d="M96456.7 36811 A393.701 393.701 0.0 0 0 97244.1 36811 " />
<path d="M83858.3 36811 A393.701 393.701 0.0 0 0 84645.7 36811 " />
<path d="M109055 30118.1 A393.701 393.701 0.0 0 0 109843 30118.1 " />
<path d="M96456.7 30118.1 A393.701 393.701 0.0 0 0 97244.1 30118.1 " />
<path d="M83858.3 30118.1 A393.701 393.701 0.0 0 0 84645.7 30118.1 " />
<path d="M109055 23425.2 A393.701 393.701 0.0 0 0 109843 23425.2 " />
<path d="M96456.7 23425.2 A393.701 393.701 0.0 0 0 97244.1 23425.2 " />
<path d="M83858.3 23425.2 A393.701 393.701 0.0 0 0 84645.7 23425.2 " />
<path d="M121653 48031
L116535 48031
" />
<path d="M109055 48031
L103937 48031
" />
<path d="M96456 48031
L91338 48031
" />
<path d="M83858 48031
L78740 48031
" />
<path d="M121653 41338
L116535 41338
" />
<path d="M109055 41338
L103937 41338
" />
<path d="M96456 41338
L91338 41338
" />
<path d="M83858 41338
L78740 41338
" />
<path d="M121653 34645
L116535 34645
" />
<path d="M109055 34645
L103937 34645
" />
<path d="M96456 34645
L91338 34645
" />
<path d="M83858 34645
L78740 34645
" />
<path d="M121653 27952
L116535 27952
" />
<path d="M109055 27952
L103937 27952
" />
<path d="M96456 27952
L91338 27952
" />
<path d="M83858 27952
L78740 27952
" />
<path d="M121653 21259
L116535 21259
" />
<path d="M109055 21259
L103937 21259
" />
<path d="M96456 21259
L91338 21259
" />
<path d="M121653 53937
L116535 53937
" />
<path d="M109055 53937
L103937 53937
" />
<path d="M96456 53937
L91338 53937
" />
<path d="M83858 53937
L78740 53937
" />
<path d="M121653 47244
L116535 47244
" />
<path d="M109055 47244
L103937 47244
" />
<path d="M96456 47244
L91338 47244
" />
<path d="M83858 47244
L78740 47244
" />
<path d="M121653 40551
L116535 40551
" />
<path d="M109055 40551
L103937 40551
" />
<path d="M96456 40551
L91338 40551
" />
<path d="M83858 40551
L78740 40551
" />
<path d="M121653 33858
L116535 33858
" />
<path d="M109055 33858
L103937 33858
" />
<path d="M96456 33858
L91338 33858
" />
<path d="M83858 33858
L78740 33858
" />
<path d="M121653 27165
L116535 27165
" />
<path d="M109055 27165
L103937 27165
" />
<path d="M96456 27165
L91338 27165
" />
<path d="M114960 48031
L109842 48031
" />
<path d="M102362 48031
L97244 48031
" />
<path d="M89763 48031
L84645 48031
" />
<path d="M77165 48031
L72047 48031
" />
<path d="M114960 41338
L109842 41338
" />
<path d="M102362 41338
L97244 41338
" />
<path d="M89763 41338
L84645 41338
" />
<path d="M77165 41338
L72047 41338
" />
<path d="M114960 34645
L109842 34645
" />
<path d="M102362 34645
L97244 34645
" />
<path d="M89763 34645
L84645 34645
" />
<path d="M77165 34645
L72047 34645
" />
<path d="M114960 27952
L109842 27952
" />
<path d="M102362 27952
L97244 27952
" />
<path d="M89763 27952
L84645 27952
" />
<path d="M77165 27952
L72047 27952
" />
<path d="M114960 21259
L109842 21259
" />
<path d="M102362 21259
L97244 21259
" />
<path d="M89763 21259
L84645 21259
" />
<path d="M114961 48031.5 A393.701 393.701 0.0 0 0 114961 47244.1 " />
<path d="M102362 48031.5 A393.701 393.701 0.0 0 0 102362 47244.1 " />
<path d="M89763.8 48031.5 A393.701 393.701 0.0 0 0 89763.8 47244.1 " />
<path d="M77165.4 48031.5 A393.701 393.701 0.0 0 0 77165.4 47244.1 " />
<path d="M114961 41338.6 A393.701 393.701 0.0 0 0 114961 40551.2 " />
<path d="M102362 41338.6 A393.701 393.701 0.0 0 0 102362 40551.2 " />
<path d="M89763.8 41338.6 A393.701 393.701 0.0 0 0 89763.8 40551.2 " />
<path d="M77165.4 41338.6 A393.701 393.701 0.0 0 0 77165.4 40551.2 " />
<path d="M114961 34645.7 A393.701 393.701 0.0 0 0 114961 33858.3 " />
<path d="M102362 34645.7 A393.701 393.701 0.0 0 0 102362 33858.3 " />
<path d="M89763.8 34645.7 A393.701 393.701 0.0 0 0 89763.8 33858.3 " />
<path d="M77165.4 34645.7 A393.701 393.701 0.0 0 0 77165.4 33858.3 " />
<path d="M114961 27952.8 A393.701 393.701 0.0 0 0 114961 27165.4 " />
<path d="M102362 27952.8 A393.701 393.701 0.0 0 0 102362 27165.4 " />
<path d="M89763.8 27952.8 A393.701 393.701 0.0 0 0 89763.8 27165.4 " />
<path d="M109842 53937
L109842 51771
" />
<path d="M97244 53937
L97244 51771
" />
<path d="M84645 53937
L84645 51771
" />
<path d="M72047 53937
L72047 51771
" />
<path d="M109842 47244
L109842 45078
" />
<path d="M97244 47244
L97244 45078
" />
<path d="M84645 47244
L84645 45078
" />
<path d="M72047 47244
L72047 45078
" />
<path d="M109842 40551
L109842 38385
" />
<path d="M97244 40551
L97244 38385
" />
<path d="M84645 40551
L84645 38385
" />
<path d="M72047 40551
L72047 38385
" />
<path d="M109842 33858
L109842 31692
" />
<path d="M97244 33858
L97244 31692
" />
<path d="M84645 33858
L84645 31692
" />
<path d="M72047 33858
L72047 31692
" />
<path d="M109842 27165
L109842 25000
" />
<path d="M97244 27165
L97244 25000
" />
<path d="M84645 27165
L84645 25000
" />
<path d="M109843 51771.7 A393.701 393.701 0.0 0 0 109055 51771.7 " />
<path d="M97244.1 51771.7 A393.701 393.701 0.0 0 0 96456.7 51771.7 " />
<path d="M84645.7 51771.7 A393.701 393.701 0.0 0 0 83858.3 51771.7 " />
<path d="M109843 45078.7 A393.701 393.701 0.0 0 0 109055 45078.7 " />
<path d="M97244.1 45078.7 A393.701 393.701 0.0 0 0 96456.7 45078.7 " />
<path d="M84645.7 45078.7 A393.701 393.701 0.0 0 0 83858.3 45078.7 " />
<path d="M109843 38385.8 A393.701 393.701 0.0 0 0 109055 38385.8 " />
<path d="M97244.1 38385.8 A393.701 393.701 0.0 0 0 96456.7 38385.8 " />
<path d="M84645.7 38385.8 A393.701 393.701 0.0 0 0 83858.3 38385.8 " />
<path d="M109843 31692.9 A393.701 393.701 0.0 0 0 109055 31692.9 " />
<path d="M97244.1 31692.9 A393.701 393.701 0.0 0 0 96456.7 31692.9 " />
<path d="M84645.7 31692.9 A393.701 393.701 0.0 0 0 83858.3 31692.9 " />
<path d="M109843 25000 A393.701 393.701 0.0 0 0 109055 25000 " />
<path d="M97244.1 25000 A393.701 393.701 0.0 0 0 96456.7 25000 " />
<path d="M84645.7 25000 A393.701 393.701 0.0 0 0 83858.3 25000 " />
<path d="M83858 23425
L83858 21259
" />
<path d="M83858 21259
L78740 21259
" />
<path d="M83858 27165
L78740 27165
" />
<path d="M77165.4 27952.8 A393.701 393.701 0.0 0 0 77165.4 27165.4 " />
<path d="M78740.2 27165.4 A393.701 393.701 0.0 0 0 78740.2 27952.8 " />
<path d="M72047 27165
L72047 25000
" />
<path d="M72047 21259
L72047 23425
" />
<path d="M77165 21259
L72047 21259
" />
<path d="M72047 27165
L77165 27165
" />
<path d="M83858 27165
L83858 25000
" />
<g >
</g>
<g >
</g>
<g >
</g>
<g >
</g>
<g >
</g>
<g >
</g>
<g >
</g>
<g >
</g>
<g >
</g>
<g >
</g>
<g >
</g>
<g >
</g>
<g >
</g>
<g >
</g>
<g >
</g>
<g >
</g>
<g >
</g>
<g >
</g>
<g >
</g>
<g >
</g>
<g >
</g>
<g >
</g>
<g >
</g>
<g >
</g>
<g >
</g>
<g >
</g>
<g >
</g>
<g >
</g>
<g >
</g>
<g >
</g>
<g >
</g>
<g >
</g>
<g >
</g>
<g >
</g>
<g >
</g>
<g >
</g>
<g >
</g>
<g >
</g>
<g >
</g>
<g >
</g>
<g >
</g>
<g >
</g>
<g >
</g>
<g >
</g>
<g >
</g>
<g >
</g>
<g >
</g>
<g >
</g>
<g >
</g>
<g >
</g>
<g >
</g>
<g >
</g>
<g >
</g>
<g >
</g>
<g >
</g>
<g >
</g>
<g >
</g>
<g >
</g>
<g >
</g>
<g >
</g>
<g >
</g>
<g >
</g>
<g >
</g>
<g >
</g>
<g >
</g>
<g >
</g>
<g >
</g>
<g >
</g>
<g >
</g>
<g >
</g>
<g >
</g>
<g >
</g>
<g >
</g>
<g >
</g>
<g >
</g>
<g >
</g>
<g >
</g>
<g >
</g>
<g >
</g>
<g >
</g>
<g >
</g>
<g >
</g>
<g >
</g>
<g >
</g>
<g >
</g>
<g >
</g>
<g >
</g>
<g >
</g>
<g >
</g>
<g >
</g>
<g >
</g>
<g >
</g>
<g >
</g>
<g >
</g>
<g >
</g>
<g >
</g>
<g >
</g>
<g >
</g>
<g >
</g>
<g >
</g>
<g >
</g>
<g >
</g>
<g >
</g>
<g >
</g>
<g >
</g>
<g >
</g>
<g >
</g>
<g >
</g>
<g >
</g>
<g >
</g>
<g >
</g>
<g >
</g>
<g >
</g>
<g >
</g>
<g >
</g>
<g >
</g>
<g >
</g>
<g >
</g>
<g >
</g>
<g >
</g>
<g >
</g>
<g >
</g>
<g >
</g>
<g >
</g>
<g >
</g>
<g >
</g>
<g >
</g>
<g >
</g>
<g >
</g>
<g >
</g>
<g >
</g>
<g >
</g>
<g >
</g>
<g >
</g>
<g >
</g>
<g >
</g>
<g >
</g>
<g >
</g>
<g >
</g>
<g >
</g>
<g >
</g>
<g >
</g>
<g >
</g>
<g >
</g>
<g >
</g>
<g >
</g>
<g >
</g>
<g >
</g>
<g >
</g>
<g >
</g>
<g >
</g>
<g >
</g>
<g >
</g>
<g >
</g>
<g >
</g>
<g >
</g>
<g >
</g>
<g >
</g>
<g >
</g>
<g >
</g>
<g >
</g>
<g >
</g>
<g >
</g>
<g >
</g>
<g >
</g>
<g >
</g>
<g >
</g>
<g >
</g>
<g >
</g>
<g >
</g>
<g >
</g>
<g >
</g>
<g >
</g>
<g >
</g>
<g >
</g>
<g >
</g>
<g >
</g>
<g >
</g>
<g >
</g>
<g >
</g>
<g >
</g>
<g >
</g>
<g >
</g>
<g >
</g>
<g >
</g>
<g >
</g>
<g >
</g>
<g >
</g>
<g >
</g>
<g >
</g>
<g >
</g>
<g >
</g>
<g >
</g>
<g >
</g>
<g >
</g>
<g >
</g>
<g >
</g>
<g >
</g>
<g >
</g>
<g >
</g>
<g >
</g>
<g >
</g>
<g >
</g>
<g >
</g>
<g >
</g>
<g >
</g>
<g >
</g>
<g >
</g>
<g >
</g>
<g >
</g>
<g >
</g>
<g >
</g>
<g >
</g>
<g >
</g>
<g >
</g>
<g >
</g>
<g >
</g>
<g >
</g>
<g >
</g>
<g >
</g>
<g >
</g>
<g >
</g>
<g >
</g>
<g >
</g>
<g >
</g>
<g >
</g>
<g >
</g>
<g >
</g>
<g >
</g>
<g >
</g>
<g >
</g>
<g >
</g>
<g >
</g>
<g >
</g>
<g >
</g>
<g >
</g>
<g >
</g>
<g >
</g>
<g >
</g>
<g >
</g>
<g >
</g>
<g >
</g>
<g >
</g>
<g >
</g>
<g >
</g>
<g >
</g>
<g >
</g>
<g >
</g>
<g >
</g>
<g >
</g>
<g >
</g>
<g >
</g>
<g >
</g>
<g >
</g>
<g >
</g>
<g >
</g>
<g >
</g>
<g >
</g>
<g >
</g>
<g >
</g>
<g >
</g>
<g >
</g>
<g >
</g>
<g >
</g>
<g >
</g>
<g >
</g>
<g >
</g>
<g >
</g>
<g >
</g>
<g >
</g>
<g >
</g>
<g >
</g>
<g >
</g>
<g >
</g>
<g >
</g>
<g >
</g>
<g >
</g>
<g >
</g>
<g >
</g>
<g >
</g>
<g >
</g>
<g >
</g>
<g >
</g>
<g >
</g>
<g >
</g>
<g >
</g>
<g >
</g>
<g >
</g>
<g >
</g>
<g >
</g>
<g >
</g>
<g >
</g>
<g >
</g>
<g >
</g>
<g >
</g>
<g >
</g>
<g >
</g>
<g >
</g>
<g >
</g>
<g >
</g>
<g >
</g>
<g >
</g>
<g >
</g>
<g >
</g>
<g >
</g>
<g >
</g>
<g >
</g>
<g >
</g>
<g >
</g>
<g >
</g>
<g >
</g>
<g >
</g>
<g >
</g>
<g >
</g>
<g >
</g>
<g >
</g>
<g >
</g>
<g >
</g>
<g >
</g>
<g >
</g>
<g >
</g>
<g >
</g>
<g >
</g>
<g >
</g>
<g >
</g>
<g >
</g>
<g >
</g>
<g >
</g>
<g >
</g>
<g >
</g>
<g >
</g>
<g >
</g>
<g >
</g>
<g >
</g>
<g >
</g>
<g >
</g>
<g >
</g>
<g >
</g>
<g >
</g>
<g >
</g>
<g >
</g>
<g >
</g>
<g >
</g>
<g >
</g>
<g >
</g>
<g >
</g>
<g >
</g>
<g >
</g>
<g >
</g>
<g >
</g>
<g >
</g>
<g >
</g>
<g >
</g>
<g >
</g>
<g >
</g>
<g >
</g>
<g >
</g>
<g >
</g>
<g >
</g>
<g >
</g>
<g >
</g>
<g >
</g>
<g >
</g>
<g >
</g>
<g >
</g>
<g >
</g>
<g >
</g>
<g >
</g>
<g >
</g>
<g >
</g>
<g >
</g>
<g >
</g>
<g >
</g>
<g >
</g>
<g >
</g>
<g >
</g>
<g >
</g>
<g >
</g>
<g >
</g>
<g >
</g>
<g >
</g>
<g >
</g>
<g >
</g>
<g >
</g>
<g >
</g>
<g >
</g>
<g >
</g>
<g >
</g>
<g >
</g>
<g >
</g>
<g >
</g>
<g >
</g>
<g >
</g>
<g >
</g>
<g >
</g>
<g >
</g>
<g >
</g>
<g >
</g>
<g >
</g>
<g >
</g>
<g >
</g>
<g >
</g>
<g >
</g>
<g >
</g>
<g >
</g>
<g >
</g>
<g >
</g>
<g >
</g>
<g >
</g>
<g >
</g>
<g >
</g>
<g >
</g>
<g >
</g>
<g >
</g>
<g >
</g>
<g >
</g>
<g >
</g>
<g >
</g>
<g >
</g>
<g >
</g>
<g >
</g>
<g >
</g>
<g >
</g>
<g >
</g>
<g >
</g>
<g >
</g>
<g >
</g>
<g >
</g>
<g >
</g>
<g >
</g>
<g >
</g>
<g >
</g>
<g >
</g>
<g >
</g>
<g >
</g>
<g >
</g>
<g >
</g>
<g >
</g>
<g >
</g>
<g >
</g>
<g >
</g>
<g >
</g>
<g >
</g>
<g >
</g>
<g >
</g>
<g >
</g>
<g >
</g>
<g >
</g>
<g >
</g>
<g >
</g>
<g >
</g>
<g >
</g>
<g >
</g>
<g >
</g>
<g >
</g>
<g >
</g>
<g >
</g>
<g >
</g>
<g >
</g>
<g >
</g>
<g >
</g>
<g >
</g>
<g >
</g>
<g >
</g>
<g >
</g>
<g >
</g>
<g >
</g>
<g >
</g>
<g >
</g>
<g >
</g>
<g >
</g>
<g >
</g>
<g >
</g>
<g >
</g>
<g >
</g>
<g >
</g>
<g >
</g>
<g >
</g>
<g >
</g>
<g >
</g>
<g >
</g>
<g >
</g>
<g >
</g>
<g >
</g>
<g >
</g>
<g >
</g>
<g >
</g>
<g >
</g>
<g >
</g>
<g >
</g>
<g >
</g>
<g >
</g>
<g >
</g>
<g >
</g>
<g >
</g>
<g >
</g>
<g >
</g>
<g >
</g>
<g >
</g>
<g >
</g>
<g >
</g>
<g >
</g>
<g >
</g>
<g >
</g>
<g >
</g>
<g >
</g>
<g >
</g>
<g >
</g>
<g >
</g>
<g >
</g>
<g >
</g>
<g >
</g>
<g >
</g>
<g >
</g>
<g >
</g>
<g >
</g>
<g >
</g>
<g >
</g>
<g >
</g>
<g >
</g>
<g >
</g>
<g >
</g>
<g >
</g>
<g >
</g>
<g >
</g>
<g >
</g>
<g >
</g>
<g >
</g>
<g >
</g>
<g >
</g>
<g >
</g>
<g >
</g>
<g >
</g>
<g >
</g>
<g >
</g>
<g >
</g>
<g >
</g>
<g >
</g>
<g >
</g>
<g >
</g>
<g >
</g>
<g >
</g>
<g >
</g>
<g >
</g>
<g >
</g>
<g >
</g>
<g >
</g>
<g >
</g>
<g >
</g>
<g >
</g>
<g >
</g>
<g >
</g>
<g >
</g>
<g >
</g>
<g >
</g>
<g >
</g>
<g >
</g>
<g >
</g>
<g >
</g>
<g >
</g>
<g >
</g>
<g >
</g>
<g >
</g>
<g >
</g>
<g >
</g>
<g >
</g>
<g >
</g>
<g >
</g>
<g >
</g>
<g >
</g>
<g >
</g>
<g >
</g>
<g >
</g>
<g >
</g>
<g >
</g>
<g >
</g>
<g >
</g>
<g >
</g>
<g >
</g>
<g >
</g>
<g >
</g>
<g >
</g>
<g >
</g>
<g >
</g>
<g >
</g>
<g >
</g>
<g >
</g>
<g >
</g>
<g >
</g>
<g >
</g>
<g >
</g>
<g >
</g>
</g> 
</svg>
