G04 #@! TF.GenerationSoftware,KiCad,Pcbnew,(5.1.5-0-10_14)*
G04 #@! TF.CreationDate,2020-08-30T00:05:12+03:00*
G04 #@! TF.ProjectId,miniRGBii,6d696e69-5247-4426-9969-2e6b69636164,rev?*
G04 #@! TF.SameCoordinates,Original*
G04 #@! TF.FileFunction,Profile,NP*
%FSLAX46Y46*%
G04 Gerber Fmt 4.6, Leading zero omitted, Abs format (unit mm)*
G04 Created by KiCad (PCBNEW (5.1.5-0-10_14)) date 2020-08-30 00:05:12*
%MOMM*%
%LPD*%
G04 APERTURE LIST*
%ADD10C,0.150000*%
G04 APERTURE END LIST*
D10*
X309000000Y-127500000D02*
X309000000Y-131500000D01*
X309000000Y-110500000D02*
X309000000Y-114500000D01*
X309000000Y-93500000D02*
X309000000Y-97500000D01*
X309000000Y-76500000D02*
X309000000Y-80500000D01*
X309000000Y-59500000D02*
X309000000Y-63500000D01*
X292000000Y-54000000D02*
X296000000Y-54000000D01*
X260000000Y-54000000D02*
X264000000Y-54000000D01*
X228000000Y-54000000D02*
X232000000Y-54000000D01*
X196000000Y-54000000D02*
X200000000Y-54000000D01*
X183000000Y-127500000D02*
X183000000Y-131500000D01*
X183000000Y-110500000D02*
X183000000Y-114500000D01*
X183000000Y-93500000D02*
X183000000Y-97500000D01*
X183000000Y-76500000D02*
X183000000Y-80500000D01*
X183000000Y-59500000D02*
X183000000Y-63500000D01*
X292000000Y-137000000D02*
X296000000Y-137000000D01*
X260000000Y-137000000D02*
X264000000Y-137000000D01*
X228000000Y-137000000D02*
X232000000Y-137000000D01*
X196000000Y-137000000D02*
X200000000Y-137000000D01*
X279000000Y-122000000D02*
X279000000Y-127500000D01*
X247000000Y-122000000D02*
X247000000Y-127500000D01*
X215000000Y-122000000D02*
X215000000Y-127500000D01*
X183000000Y-122000000D02*
X183000000Y-127500000D01*
X279000000Y-105000000D02*
X279000000Y-110500000D01*
X247000000Y-105000000D02*
X247000000Y-110500000D01*
X215000000Y-105000000D02*
X215000000Y-110500000D01*
X183000000Y-105000000D02*
X183000000Y-110500000D01*
X279000000Y-88000000D02*
X279000000Y-93500000D01*
X247000000Y-88000000D02*
X247000000Y-93500000D01*
X215000000Y-88000000D02*
X215000000Y-93500000D01*
X183000000Y-88000000D02*
X183000000Y-93500000D01*
X279000000Y-71000000D02*
X279000000Y-76500000D01*
X247000000Y-71000000D02*
X247000000Y-76500000D01*
X215000000Y-71000000D02*
X215000000Y-76500000D01*
X183000000Y-71000000D02*
X183000000Y-76500000D01*
X279000000Y-54000000D02*
X279000000Y-59500000D01*
X247000000Y-54000000D02*
X247000000Y-59500000D01*
X215000000Y-54000000D02*
X215000000Y-59500000D01*
X296000000Y-122000000D02*
G75*
G02X296000000Y-120000000I0J1000000D01*
G01*
X264000000Y-122000000D02*
G75*
G02X264000000Y-120000000I0J1000000D01*
G01*
X232000000Y-122000000D02*
G75*
G02X232000000Y-120000000I0J1000000D01*
G01*
X200000000Y-122000000D02*
G75*
G02X200000000Y-120000000I0J1000000D01*
G01*
X296000000Y-105000000D02*
G75*
G02X296000000Y-103000000I0J1000000D01*
G01*
X264000000Y-105000000D02*
G75*
G02X264000000Y-103000000I0J1000000D01*
G01*
X232000000Y-105000000D02*
G75*
G02X232000000Y-103000000I0J1000000D01*
G01*
X200000000Y-105000000D02*
G75*
G02X200000000Y-103000000I0J1000000D01*
G01*
X296000000Y-88000000D02*
G75*
G02X296000000Y-86000000I0J1000000D01*
G01*
X264000000Y-88000000D02*
G75*
G02X264000000Y-86000000I0J1000000D01*
G01*
X232000000Y-88000000D02*
G75*
G02X232000000Y-86000000I0J1000000D01*
G01*
X200000000Y-88000000D02*
G75*
G02X200000000Y-86000000I0J1000000D01*
G01*
X296000000Y-71000000D02*
G75*
G02X296000000Y-69000000I0J1000000D01*
G01*
X264000000Y-71000000D02*
G75*
G02X264000000Y-69000000I0J1000000D01*
G01*
X232000000Y-71000000D02*
G75*
G02X232000000Y-69000000I0J1000000D01*
G01*
X309000000Y-127500000D02*
X309000000Y-122000000D01*
X277000000Y-127500000D02*
X277000000Y-122000000D01*
X245000000Y-127500000D02*
X245000000Y-122000000D01*
X213000000Y-127500000D02*
X213000000Y-122000000D01*
X309000000Y-110500000D02*
X309000000Y-105000000D01*
X277000000Y-110500000D02*
X277000000Y-105000000D01*
X245000000Y-110500000D02*
X245000000Y-105000000D01*
X213000000Y-110500000D02*
X213000000Y-105000000D01*
X309000000Y-93500000D02*
X309000000Y-88000000D01*
X277000000Y-93500000D02*
X277000000Y-88000000D01*
X245000000Y-93500000D02*
X245000000Y-88000000D01*
X213000000Y-93500000D02*
X213000000Y-88000000D01*
X309000000Y-76500000D02*
X309000000Y-71000000D01*
X277000000Y-76500000D02*
X277000000Y-71000000D01*
X245000000Y-76500000D02*
X245000000Y-71000000D01*
X213000000Y-76500000D02*
X213000000Y-71000000D01*
X309000000Y-59500000D02*
X309000000Y-54000000D01*
X277000000Y-59500000D02*
X277000000Y-54000000D01*
X245000000Y-59500000D02*
X245000000Y-54000000D01*
X309000000Y-137000000D02*
X309000000Y-131500000D01*
X277000000Y-137000000D02*
X277000000Y-131500000D01*
X245000000Y-137000000D02*
X245000000Y-131500000D01*
X213000000Y-137000000D02*
X213000000Y-131500000D01*
X309000000Y-120000000D02*
X309000000Y-114500000D01*
X277000000Y-120000000D02*
X277000000Y-114500000D01*
X245000000Y-120000000D02*
X245000000Y-114500000D01*
X213000000Y-120000000D02*
X213000000Y-114500000D01*
X309000000Y-103000000D02*
X309000000Y-97500000D01*
X277000000Y-103000000D02*
X277000000Y-97500000D01*
X245000000Y-103000000D02*
X245000000Y-97500000D01*
X213000000Y-103000000D02*
X213000000Y-97500000D01*
X309000000Y-86000000D02*
X309000000Y-80500000D01*
X277000000Y-86000000D02*
X277000000Y-80500000D01*
X245000000Y-86000000D02*
X245000000Y-80500000D01*
X213000000Y-86000000D02*
X213000000Y-80500000D01*
X309000000Y-69000000D02*
X309000000Y-63500000D01*
X277000000Y-69000000D02*
X277000000Y-63500000D01*
X245000000Y-69000000D02*
X245000000Y-63500000D01*
X279000000Y-137000000D02*
X292000000Y-137000000D01*
X247000000Y-137000000D02*
X260000000Y-137000000D01*
X215000000Y-137000000D02*
X228000000Y-137000000D01*
X183000000Y-137000000D02*
X196000000Y-137000000D01*
X279000000Y-120000000D02*
X292000000Y-120000000D01*
X247000000Y-120000000D02*
X260000000Y-120000000D01*
X215000000Y-120000000D02*
X228000000Y-120000000D01*
X183000000Y-120000000D02*
X196000000Y-120000000D01*
X279000000Y-103000000D02*
X292000000Y-103000000D01*
X247000000Y-103000000D02*
X260000000Y-103000000D01*
X215000000Y-103000000D02*
X228000000Y-103000000D01*
X183000000Y-103000000D02*
X196000000Y-103000000D01*
X279000000Y-86000000D02*
X292000000Y-86000000D01*
X247000000Y-86000000D02*
X260000000Y-86000000D01*
X215000000Y-86000000D02*
X228000000Y-86000000D01*
X183000000Y-86000000D02*
X196000000Y-86000000D01*
X279000000Y-69000000D02*
X292000000Y-69000000D01*
X247000000Y-69000000D02*
X260000000Y-69000000D01*
X215000000Y-69000000D02*
X228000000Y-69000000D01*
X277000000Y-127500000D02*
G75*
G03X279000000Y-127500000I1000000J0D01*
G01*
X245000000Y-127500000D02*
G75*
G03X247000000Y-127500000I1000000J0D01*
G01*
X213000000Y-127500000D02*
G75*
G03X215000000Y-127500000I1000000J0D01*
G01*
X277000000Y-110500000D02*
G75*
G03X279000000Y-110500000I1000000J0D01*
G01*
X245000000Y-110500000D02*
G75*
G03X247000000Y-110500000I1000000J0D01*
G01*
X213000000Y-110500000D02*
G75*
G03X215000000Y-110500000I1000000J0D01*
G01*
X277000000Y-93500000D02*
G75*
G03X279000000Y-93500000I1000000J0D01*
G01*
X245000000Y-93500000D02*
G75*
G03X247000000Y-93500000I1000000J0D01*
G01*
X213000000Y-93500000D02*
G75*
G03X215000000Y-93500000I1000000J0D01*
G01*
X277000000Y-76500000D02*
G75*
G03X279000000Y-76500000I1000000J0D01*
G01*
X245000000Y-76500000D02*
G75*
G03X247000000Y-76500000I1000000J0D01*
G01*
X213000000Y-76500000D02*
G75*
G03X215000000Y-76500000I1000000J0D01*
G01*
X277000000Y-59500000D02*
G75*
G03X279000000Y-59500000I1000000J0D01*
G01*
X245000000Y-59500000D02*
G75*
G03X247000000Y-59500000I1000000J0D01*
G01*
X213000000Y-59500000D02*
G75*
G03X215000000Y-59500000I1000000J0D01*
G01*
X309000000Y-122000000D02*
X296000000Y-122000000D01*
X277000000Y-122000000D02*
X264000000Y-122000000D01*
X245000000Y-122000000D02*
X232000000Y-122000000D01*
X213000000Y-122000000D02*
X200000000Y-122000000D01*
X309000000Y-105000000D02*
X296000000Y-105000000D01*
X277000000Y-105000000D02*
X264000000Y-105000000D01*
X245000000Y-105000000D02*
X232000000Y-105000000D01*
X213000000Y-105000000D02*
X200000000Y-105000000D01*
X309000000Y-88000000D02*
X296000000Y-88000000D01*
X277000000Y-88000000D02*
X264000000Y-88000000D01*
X245000000Y-88000000D02*
X232000000Y-88000000D01*
X213000000Y-88000000D02*
X200000000Y-88000000D01*
X309000000Y-71000000D02*
X296000000Y-71000000D01*
X277000000Y-71000000D02*
X264000000Y-71000000D01*
X245000000Y-71000000D02*
X232000000Y-71000000D01*
X213000000Y-71000000D02*
X200000000Y-71000000D01*
X309000000Y-54000000D02*
X296000000Y-54000000D01*
X277000000Y-54000000D02*
X264000000Y-54000000D01*
X245000000Y-54000000D02*
X232000000Y-54000000D01*
X309000000Y-137000000D02*
X296000000Y-137000000D01*
X277000000Y-137000000D02*
X264000000Y-137000000D01*
X245000000Y-137000000D02*
X232000000Y-137000000D01*
X213000000Y-137000000D02*
X200000000Y-137000000D01*
X309000000Y-120000000D02*
X296000000Y-120000000D01*
X277000000Y-120000000D02*
X264000000Y-120000000D01*
X245000000Y-120000000D02*
X232000000Y-120000000D01*
X213000000Y-120000000D02*
X200000000Y-120000000D01*
X309000000Y-103000000D02*
X296000000Y-103000000D01*
X277000000Y-103000000D02*
X264000000Y-103000000D01*
X245000000Y-103000000D02*
X232000000Y-103000000D01*
X213000000Y-103000000D02*
X200000000Y-103000000D01*
X309000000Y-86000000D02*
X296000000Y-86000000D01*
X277000000Y-86000000D02*
X264000000Y-86000000D01*
X245000000Y-86000000D02*
X232000000Y-86000000D01*
X213000000Y-86000000D02*
X200000000Y-86000000D01*
X309000000Y-69000000D02*
X296000000Y-69000000D01*
X277000000Y-69000000D02*
X264000000Y-69000000D01*
X245000000Y-69000000D02*
X232000000Y-69000000D01*
X292000000Y-122000000D02*
X279000000Y-122000000D01*
X260000000Y-122000000D02*
X247000000Y-122000000D01*
X228000000Y-122000000D02*
X215000000Y-122000000D01*
X196000000Y-122000000D02*
X183000000Y-122000000D01*
X292000000Y-105000000D02*
X279000000Y-105000000D01*
X260000000Y-105000000D02*
X247000000Y-105000000D01*
X228000000Y-105000000D02*
X215000000Y-105000000D01*
X196000000Y-105000000D02*
X183000000Y-105000000D01*
X292000000Y-88000000D02*
X279000000Y-88000000D01*
X260000000Y-88000000D02*
X247000000Y-88000000D01*
X228000000Y-88000000D02*
X215000000Y-88000000D01*
X196000000Y-88000000D02*
X183000000Y-88000000D01*
X292000000Y-71000000D02*
X279000000Y-71000000D01*
X260000000Y-71000000D02*
X247000000Y-71000000D01*
X228000000Y-71000000D02*
X215000000Y-71000000D01*
X196000000Y-71000000D02*
X183000000Y-71000000D01*
X292000000Y-54000000D02*
X279000000Y-54000000D01*
X260000000Y-54000000D02*
X247000000Y-54000000D01*
X228000000Y-54000000D02*
X215000000Y-54000000D01*
X292000000Y-120000000D02*
G75*
G02X292000000Y-122000000I0J-1000000D01*
G01*
X260000000Y-120000000D02*
G75*
G02X260000000Y-122000000I0J-1000000D01*
G01*
X228000000Y-120000000D02*
G75*
G02X228000000Y-122000000I0J-1000000D01*
G01*
X196000000Y-120000000D02*
G75*
G02X196000000Y-122000000I0J-1000000D01*
G01*
X292000000Y-103000000D02*
G75*
G02X292000000Y-105000000I0J-1000000D01*
G01*
X260000000Y-103000000D02*
G75*
G02X260000000Y-105000000I0J-1000000D01*
G01*
X228000000Y-103000000D02*
G75*
G02X228000000Y-105000000I0J-1000000D01*
G01*
X196000000Y-103000000D02*
G75*
G02X196000000Y-105000000I0J-1000000D01*
G01*
X292000000Y-86000000D02*
G75*
G02X292000000Y-88000000I0J-1000000D01*
G01*
X260000000Y-86000000D02*
G75*
G02X260000000Y-88000000I0J-1000000D01*
G01*
X228000000Y-86000000D02*
G75*
G02X228000000Y-88000000I0J-1000000D01*
G01*
X196000000Y-86000000D02*
G75*
G02X196000000Y-88000000I0J-1000000D01*
G01*
X292000000Y-69000000D02*
G75*
G02X292000000Y-71000000I0J-1000000D01*
G01*
X260000000Y-69000000D02*
G75*
G02X260000000Y-71000000I0J-1000000D01*
G01*
X228000000Y-69000000D02*
G75*
G02X228000000Y-71000000I0J-1000000D01*
G01*
X279000000Y-137000000D02*
X279000000Y-131500000D01*
X247000000Y-137000000D02*
X247000000Y-131500000D01*
X215000000Y-137000000D02*
X215000000Y-131500000D01*
X183000000Y-137000000D02*
X183000000Y-131500000D01*
X279000000Y-120000000D02*
X279000000Y-114500000D01*
X247000000Y-120000000D02*
X247000000Y-114500000D01*
X215000000Y-120000000D02*
X215000000Y-114500000D01*
X183000000Y-120000000D02*
X183000000Y-114500000D01*
X279000000Y-103000000D02*
X279000000Y-97500000D01*
X247000000Y-103000000D02*
X247000000Y-97500000D01*
X215000000Y-103000000D02*
X215000000Y-97500000D01*
X183000000Y-103000000D02*
X183000000Y-97500000D01*
X279000000Y-86000000D02*
X279000000Y-80500000D01*
X247000000Y-86000000D02*
X247000000Y-80500000D01*
X215000000Y-86000000D02*
X215000000Y-80500000D01*
X183000000Y-86000000D02*
X183000000Y-80500000D01*
X279000000Y-69000000D02*
X279000000Y-63500000D01*
X247000000Y-69000000D02*
X247000000Y-63500000D01*
X215000000Y-69000000D02*
X215000000Y-63500000D01*
X277000000Y-131500000D02*
G75*
G02X279000000Y-131500000I1000000J0D01*
G01*
X245000000Y-131500000D02*
G75*
G02X247000000Y-131500000I1000000J0D01*
G01*
X213000000Y-131500000D02*
G75*
G02X215000000Y-131500000I1000000J0D01*
G01*
X277000000Y-114500000D02*
G75*
G02X279000000Y-114500000I1000000J0D01*
G01*
X245000000Y-114500000D02*
G75*
G02X247000000Y-114500000I1000000J0D01*
G01*
X213000000Y-114500000D02*
G75*
G02X215000000Y-114500000I1000000J0D01*
G01*
X277000000Y-97500000D02*
G75*
G02X279000000Y-97500000I1000000J0D01*
G01*
X245000000Y-97500000D02*
G75*
G02X247000000Y-97500000I1000000J0D01*
G01*
X213000000Y-97500000D02*
G75*
G02X215000000Y-97500000I1000000J0D01*
G01*
X277000000Y-80500000D02*
G75*
G02X279000000Y-80500000I1000000J0D01*
G01*
X245000000Y-80500000D02*
G75*
G02X247000000Y-80500000I1000000J0D01*
G01*
X213000000Y-80500000D02*
G75*
G02X215000000Y-80500000I1000000J0D01*
G01*
X277000000Y-63500000D02*
G75*
G02X279000000Y-63500000I1000000J0D01*
G01*
X245000000Y-63500000D02*
G75*
G02X247000000Y-63500000I1000000J0D01*
G01*
X213000000Y-63500000D02*
G75*
G02X215000000Y-63500000I1000000J0D01*
G01*
X213000000Y-59500000D02*
X213000000Y-54000000D01*
X213000000Y-54000000D02*
X200000000Y-54000000D01*
X213000000Y-69000000D02*
X200000000Y-69000000D01*
X196000000Y-69000000D02*
G75*
G02X196000000Y-71000000I0J-1000000D01*
G01*
X200000000Y-71000000D02*
G75*
G02X200000000Y-69000000I0J1000000D01*
G01*
X183000000Y-69000000D02*
X183000000Y-63500000D01*
X183000000Y-54000000D02*
X183000000Y-59500000D01*
X196000000Y-54000000D02*
X183000000Y-54000000D01*
X183000000Y-69000000D02*
X196000000Y-69000000D01*
X213000000Y-69000000D02*
X213000000Y-63500000D01*
M02*
