M48
; DRILL file {KiCad (5.1.5-0-10_14)} date 2020 August 30, Sunday 00:10:56
; FORMAT={-:-/ absolute / metric / decimal}
; #@! TF.CreationDate,2020-08-30T00:10:56+03:00
; #@! TF.GenerationSoftware,Kicad,Pcbnew,(5.1.5-0-10_14)
; #@! TF.FileFunction,Plated,1,2,PTH
FMAT,2
METRIC
T1C0.400
%
G90
G05
T1
X184.4Y-54.8
X184.4Y-71.8
X184.4Y-88.8
X184.4Y-105.8
X184.4Y-122.8
X189.0Y-55.8
X189.0Y-72.8
X189.0Y-89.8
X189.0Y-106.8
X189.0Y-123.8
X194.5Y-55.8
X194.5Y-72.8
X194.5Y-89.8
X194.5Y-106.8
X194.5Y-123.8
X200.1Y-62.7
X200.1Y-79.7
X200.1Y-96.7
X200.1Y-113.7
X200.1Y-130.7
X202.6Y-57.7
X202.6Y-74.7
X202.6Y-91.7
X202.6Y-108.7
X202.6Y-125.7
X204.191Y-65.791
X204.191Y-82.791
X204.191Y-99.791
X204.191Y-116.791
X204.191Y-133.791
X204.2Y-63.9
X204.2Y-67.9
X204.2Y-80.9
X204.2Y-84.9
X204.2Y-97.9
X204.2Y-101.9
X204.2Y-114.9
X204.2Y-118.9
X204.2Y-131.9
X204.2Y-135.9
X205.1Y-67.9
X205.1Y-84.9
X205.1Y-101.9
X205.1Y-118.9
X205.1Y-135.9
X207.4Y-61.0
X207.4Y-78.0
X207.4Y-95.0
X207.4Y-112.0
X207.4Y-129.0
X207.62Y-66.7
X207.62Y-83.7
X207.62Y-100.7
X207.62Y-117.7
X207.62Y-134.7
X216.4Y-54.8
X216.4Y-71.8
X216.4Y-88.8
X216.4Y-105.8
X216.4Y-122.8
X221.0Y-55.8
X221.0Y-72.8
X221.0Y-89.8
X221.0Y-106.8
X221.0Y-123.8
X226.5Y-55.8
X226.5Y-72.8
X226.5Y-89.8
X226.5Y-106.8
X226.5Y-123.8
X232.1Y-62.7
X232.1Y-79.7
X232.1Y-96.7
X232.1Y-113.7
X232.1Y-130.7
X234.6Y-57.7
X234.6Y-74.7
X234.6Y-91.7
X234.6Y-108.7
X234.6Y-125.7
X236.191Y-65.791
X236.191Y-82.791
X236.191Y-99.791
X236.191Y-116.791
X236.191Y-133.791
X236.2Y-63.9
X236.2Y-67.9
X236.2Y-80.9
X236.2Y-84.9
X236.2Y-97.9
X236.2Y-101.9
X236.2Y-114.9
X236.2Y-118.9
X236.2Y-131.9
X236.2Y-135.9
X237.1Y-67.9
X237.1Y-84.9
X237.1Y-101.9
X237.1Y-118.9
X237.1Y-135.9
X239.4Y-61.0
X239.4Y-78.0
X239.4Y-95.0
X239.4Y-112.0
X239.4Y-129.0
X239.62Y-66.7
X239.62Y-83.7
X239.62Y-100.7
X239.62Y-117.7
X239.62Y-134.7
X248.4Y-54.8
X248.4Y-71.8
X248.4Y-88.8
X248.4Y-105.8
X248.4Y-122.8
X253.0Y-55.8
X253.0Y-72.8
X253.0Y-89.8
X253.0Y-106.8
X253.0Y-123.8
X258.5Y-55.8
X258.5Y-72.8
X258.5Y-89.8
X258.5Y-106.8
X258.5Y-123.8
X264.1Y-62.7
X264.1Y-79.7
X264.1Y-96.7
X264.1Y-113.7
X264.1Y-130.7
X266.6Y-57.7
X266.6Y-74.7
X266.6Y-91.7
X266.6Y-108.7
X266.6Y-125.7
X268.191Y-65.791
X268.191Y-82.791
X268.191Y-99.791
X268.191Y-116.791
X268.191Y-133.791
X268.2Y-63.9
X268.2Y-67.9
X268.2Y-80.9
X268.2Y-84.9
X268.2Y-97.9
X268.2Y-101.9
X268.2Y-114.9
X268.2Y-118.9
X268.2Y-131.9
X268.2Y-135.9
X269.1Y-67.9
X269.1Y-84.9
X269.1Y-101.9
X269.1Y-118.9
X269.1Y-135.9
X271.4Y-61.0
X271.4Y-78.0
X271.4Y-95.0
X271.4Y-112.0
X271.4Y-129.0
X271.62Y-66.7
X271.62Y-83.7
X271.62Y-100.7
X271.62Y-117.7
X271.62Y-134.7
X280.4Y-54.8
X280.4Y-71.8
X280.4Y-88.8
X280.4Y-105.8
X280.4Y-122.8
X285.0Y-55.8
X285.0Y-72.8
X285.0Y-89.8
X285.0Y-106.8
X285.0Y-123.8
X290.5Y-55.8
X290.5Y-72.8
X290.5Y-89.8
X290.5Y-106.8
X290.5Y-123.8
X296.1Y-62.7
X296.1Y-79.7
X296.1Y-96.7
X296.1Y-113.7
X296.1Y-130.7
X298.6Y-57.7
X298.6Y-74.7
X298.6Y-91.7
X298.6Y-108.7
X298.6Y-125.7
X300.191Y-65.791
X300.191Y-82.791
X300.191Y-99.791
X300.191Y-116.791
X300.191Y-133.791
X300.2Y-63.9
X300.2Y-67.9
X300.2Y-80.9
X300.2Y-84.9
X300.2Y-97.9
X300.2Y-101.9
X300.2Y-114.9
X300.2Y-118.9
X300.2Y-131.9
X300.2Y-135.9
X301.1Y-67.9
X301.1Y-84.9
X301.1Y-101.9
X301.1Y-118.9
X301.1Y-135.9
X303.4Y-61.0
X303.4Y-78.0
X303.4Y-95.0
X303.4Y-112.0
X303.4Y-129.0
X303.62Y-66.7
X303.62Y-83.7
X303.62Y-100.7
X303.62Y-117.7
X303.62Y-134.7
T0
M30
