G04 #@! TF.GenerationSoftware,KiCad,Pcbnew,(5.1.5-0-10_14)*
G04 #@! TF.CreationDate,2020-08-28T11:12:22+03:00*
G04 #@! TF.ProjectId,miniRGBii,6d696e69-5247-4426-9969-2e6b69636164,rev?*
G04 #@! TF.SameCoordinates,Original*
G04 #@! TF.FileFunction,Legend,Bot*
G04 #@! TF.FilePolarity,Positive*
%FSLAX46Y46*%
G04 Gerber Fmt 4.6, Leading zero omitted, Abs format (unit mm)*
G04 Created by KiCad (PCBNEW (5.1.5-0-10_14)) date 2020-08-28 11:12:22*
%MOMM*%
%LPD*%
G04 APERTURE LIST*
%ADD10C,0.150000*%
%ADD11C,0.300000*%
G04 APERTURE END LIST*
D10*
X211960833Y-65619761D02*
X212056071Y-65667380D01*
X212246547Y-65667380D01*
X212341785Y-65619761D01*
X212389404Y-65572142D01*
X212437023Y-65476904D01*
X212437023Y-65191190D01*
X212389404Y-65095952D01*
X212341785Y-65048333D01*
X212246547Y-65000714D01*
X212056071Y-65000714D01*
X211960833Y-65048333D01*
X211389404Y-65667380D02*
X211484642Y-65619761D01*
X211532261Y-65572142D01*
X211579880Y-65476904D01*
X211579880Y-65191190D01*
X211532261Y-65095952D01*
X211484642Y-65048333D01*
X211389404Y-65000714D01*
X211246547Y-65000714D01*
X211151309Y-65048333D01*
X211103690Y-65095952D01*
X211056071Y-65191190D01*
X211056071Y-65476904D01*
X211103690Y-65572142D01*
X211151309Y-65619761D01*
X211246547Y-65667380D01*
X211389404Y-65667380D01*
X210627500Y-65000714D02*
X210627500Y-65667380D01*
X210627500Y-65095952D02*
X210579880Y-65048333D01*
X210484642Y-65000714D01*
X210341785Y-65000714D01*
X210246547Y-65048333D01*
X210198928Y-65143571D01*
X210198928Y-65667380D01*
X209770357Y-65619761D02*
X209675119Y-65667380D01*
X209484642Y-65667380D01*
X209389404Y-65619761D01*
X209341785Y-65524523D01*
X209341785Y-65476904D01*
X209389404Y-65381666D01*
X209484642Y-65334047D01*
X209627500Y-65334047D01*
X209722738Y-65286428D01*
X209770357Y-65191190D01*
X209770357Y-65143571D01*
X209722738Y-65048333D01*
X209627500Y-65000714D01*
X209484642Y-65000714D01*
X209389404Y-65048333D01*
X208770357Y-65667380D02*
X208865595Y-65619761D01*
X208913214Y-65572142D01*
X208960833Y-65476904D01*
X208960833Y-65191190D01*
X208913214Y-65095952D01*
X208865595Y-65048333D01*
X208770357Y-65000714D01*
X208627500Y-65000714D01*
X208532261Y-65048333D01*
X208484642Y-65095952D01*
X208437023Y-65191190D01*
X208437023Y-65476904D01*
X208484642Y-65572142D01*
X208532261Y-65619761D01*
X208627500Y-65667380D01*
X208770357Y-65667380D01*
X207865595Y-65667380D02*
X207960833Y-65619761D01*
X208008452Y-65524523D01*
X208008452Y-64667380D01*
X207103690Y-65619761D02*
X207198928Y-65667380D01*
X207389404Y-65667380D01*
X207484642Y-65619761D01*
X207532261Y-65524523D01*
X207532261Y-65143571D01*
X207484642Y-65048333D01*
X207389404Y-65000714D01*
X207198928Y-65000714D01*
X207103690Y-65048333D01*
X207056071Y-65143571D01*
X207056071Y-65238809D01*
X207532261Y-65334047D01*
X206627500Y-65667380D02*
X206627500Y-64667380D01*
X206627500Y-65048333D02*
X206532261Y-65000714D01*
X206341785Y-65000714D01*
X206246547Y-65048333D01*
X206198928Y-65095952D01*
X206151309Y-65191190D01*
X206151309Y-65476904D01*
X206198928Y-65572142D01*
X206246547Y-65619761D01*
X206341785Y-65667380D01*
X206532261Y-65667380D01*
X206627500Y-65619761D01*
X205817976Y-65000714D02*
X205579880Y-65667380D01*
X205341785Y-65000714D02*
X205579880Y-65667380D01*
X205675119Y-65905476D01*
X205722738Y-65953095D01*
X205817976Y-66000714D01*
X205103690Y-65000714D02*
X204722738Y-65000714D01*
X204960833Y-64667380D02*
X204960833Y-65524523D01*
X204913214Y-65619761D01*
X204817976Y-65667380D01*
X204722738Y-65667380D01*
X204008452Y-65619761D02*
X204103690Y-65667380D01*
X204294166Y-65667380D01*
X204389404Y-65619761D01*
X204437023Y-65524523D01*
X204437023Y-65143571D01*
X204389404Y-65048333D01*
X204294166Y-65000714D01*
X204103690Y-65000714D01*
X204008452Y-65048333D01*
X203960833Y-65143571D01*
X203960833Y-65238809D01*
X204437023Y-65334047D01*
X203579880Y-65619761D02*
X203484642Y-65667380D01*
X203294166Y-65667380D01*
X203198928Y-65619761D01*
X203151309Y-65524523D01*
X203151309Y-65476904D01*
X203198928Y-65381666D01*
X203294166Y-65334047D01*
X203437023Y-65334047D01*
X203532261Y-65286428D01*
X203579880Y-65191190D01*
X203579880Y-65143571D01*
X203532261Y-65048333D01*
X203437023Y-65000714D01*
X203294166Y-65000714D01*
X203198928Y-65048333D01*
X202722738Y-65572142D02*
X202675119Y-65619761D01*
X202722738Y-65667380D01*
X202770357Y-65619761D01*
X202722738Y-65572142D01*
X202722738Y-65667380D01*
X201817976Y-65619761D02*
X201913214Y-65667380D01*
X202103690Y-65667380D01*
X202198928Y-65619761D01*
X202246547Y-65572142D01*
X202294166Y-65476904D01*
X202294166Y-65191190D01*
X202246547Y-65095952D01*
X202198928Y-65048333D01*
X202103690Y-65000714D01*
X201913214Y-65000714D01*
X201817976Y-65048333D01*
X201246547Y-65667380D02*
X201341785Y-65619761D01*
X201389404Y-65572142D01*
X201437023Y-65476904D01*
X201437023Y-65191190D01*
X201389404Y-65095952D01*
X201341785Y-65048333D01*
X201246547Y-65000714D01*
X201103690Y-65000714D01*
X201008452Y-65048333D01*
X200960833Y-65095952D01*
X200913214Y-65191190D01*
X200913214Y-65476904D01*
X200960833Y-65572142D01*
X201008452Y-65619761D01*
X201103690Y-65667380D01*
X201246547Y-65667380D01*
X200484642Y-65667380D02*
X200484642Y-65000714D01*
X200484642Y-65095952D02*
X200437023Y-65048333D01*
X200341785Y-65000714D01*
X200198928Y-65000714D01*
X200103690Y-65048333D01*
X200056071Y-65143571D01*
X200056071Y-65667380D01*
X200056071Y-65143571D02*
X200008452Y-65048333D01*
X199913214Y-65000714D01*
X199770357Y-65000714D01*
X199675119Y-65048333D01*
X199627500Y-65143571D01*
X199627500Y-65667380D01*
X198437023Y-64619761D02*
X199294166Y-65905476D01*
X198103690Y-65667380D02*
X198103690Y-65000714D01*
X198103690Y-64667380D02*
X198151309Y-64715000D01*
X198103690Y-64762619D01*
X198056071Y-64715000D01*
X198103690Y-64667380D01*
X198103690Y-64762619D01*
X197627500Y-65000714D02*
X197627500Y-65667380D01*
X197627500Y-65095952D02*
X197579880Y-65048333D01*
X197484642Y-65000714D01*
X197341785Y-65000714D01*
X197246547Y-65048333D01*
X197198928Y-65143571D01*
X197198928Y-65667380D01*
X196294166Y-65667380D02*
X196294166Y-64667380D01*
X196294166Y-65619761D02*
X196389404Y-65667380D01*
X196579880Y-65667380D01*
X196675119Y-65619761D01*
X196722738Y-65572142D01*
X196770357Y-65476904D01*
X196770357Y-65191190D01*
X196722738Y-65095952D01*
X196675119Y-65048333D01*
X196579880Y-65000714D01*
X196389404Y-65000714D01*
X196294166Y-65048333D01*
X195437023Y-65619761D02*
X195532261Y-65667380D01*
X195722738Y-65667380D01*
X195817976Y-65619761D01*
X195865595Y-65524523D01*
X195865595Y-65143571D01*
X195817976Y-65048333D01*
X195722738Y-65000714D01*
X195532261Y-65000714D01*
X195437023Y-65048333D01*
X195389404Y-65143571D01*
X195389404Y-65238809D01*
X195865595Y-65334047D01*
X195056071Y-65667380D02*
X194532261Y-65000714D01*
X195056071Y-65000714D02*
X194532261Y-65667380D01*
X194151309Y-65572142D02*
X194103690Y-65619761D01*
X194151309Y-65667380D01*
X194198928Y-65619761D01*
X194151309Y-65572142D01*
X194151309Y-65667380D01*
X193675119Y-65000714D02*
X193675119Y-66000714D01*
X193675119Y-65048333D02*
X193579880Y-65000714D01*
X193389404Y-65000714D01*
X193294166Y-65048333D01*
X193246547Y-65095952D01*
X193198928Y-65191190D01*
X193198928Y-65476904D01*
X193246547Y-65572142D01*
X193294166Y-65619761D01*
X193389404Y-65667380D01*
X193579880Y-65667380D01*
X193675119Y-65619761D01*
X192770357Y-65667380D02*
X192770357Y-64667380D01*
X192341785Y-65667380D02*
X192341785Y-65143571D01*
X192389404Y-65048333D01*
X192484642Y-65000714D01*
X192627500Y-65000714D01*
X192722738Y-65048333D01*
X192770357Y-65095952D01*
X191865595Y-65000714D02*
X191865595Y-66000714D01*
X191865595Y-65048333D02*
X191770357Y-65000714D01*
X191579880Y-65000714D01*
X191484642Y-65048333D01*
X191437023Y-65095952D01*
X191389404Y-65191190D01*
X191389404Y-65476904D01*
X191437023Y-65572142D01*
X191484642Y-65619761D01*
X191579880Y-65667380D01*
X191770357Y-65667380D01*
X191865595Y-65619761D01*
X190246547Y-64619761D02*
X191103690Y-65905476D01*
X211960833Y-67269761D02*
X212056071Y-67317380D01*
X212246547Y-67317380D01*
X212341785Y-67269761D01*
X212389404Y-67222142D01*
X212437023Y-67126904D01*
X212437023Y-66841190D01*
X212389404Y-66745952D01*
X212341785Y-66698333D01*
X212246547Y-66650714D01*
X212056071Y-66650714D01*
X211960833Y-66698333D01*
X211389404Y-67317380D02*
X211484642Y-67269761D01*
X211532261Y-67222142D01*
X211579880Y-67126904D01*
X211579880Y-66841190D01*
X211532261Y-66745952D01*
X211484642Y-66698333D01*
X211389404Y-66650714D01*
X211246547Y-66650714D01*
X211151309Y-66698333D01*
X211103690Y-66745952D01*
X211056071Y-66841190D01*
X211056071Y-67126904D01*
X211103690Y-67222142D01*
X211151309Y-67269761D01*
X211246547Y-67317380D01*
X211389404Y-67317380D01*
X210627500Y-67317380D02*
X210627500Y-66650714D01*
X210627500Y-66745952D02*
X210579880Y-66698333D01*
X210484642Y-66650714D01*
X210341785Y-66650714D01*
X210246547Y-66698333D01*
X210198928Y-66793571D01*
X210198928Y-67317380D01*
X210198928Y-66793571D02*
X210151309Y-66698333D01*
X210056071Y-66650714D01*
X209913214Y-66650714D01*
X209817976Y-66698333D01*
X209770357Y-66793571D01*
X209770357Y-67317380D01*
X209294166Y-67317380D02*
X209294166Y-66650714D01*
X209294166Y-66745952D02*
X209246547Y-66698333D01*
X209151309Y-66650714D01*
X209008452Y-66650714D01*
X208913214Y-66698333D01*
X208865595Y-66793571D01*
X208865595Y-67317380D01*
X208865595Y-66793571D02*
X208817976Y-66698333D01*
X208722738Y-66650714D01*
X208579880Y-66650714D01*
X208484642Y-66698333D01*
X208437023Y-66793571D01*
X208437023Y-67317380D01*
X207532261Y-66650714D02*
X207532261Y-67317380D01*
X207960833Y-66650714D02*
X207960833Y-67174523D01*
X207913214Y-67269761D01*
X207817976Y-67317380D01*
X207675119Y-67317380D01*
X207579880Y-67269761D01*
X207532261Y-67222142D01*
X207056071Y-66650714D02*
X207056071Y-67317380D01*
X207056071Y-66745952D02*
X207008452Y-66698333D01*
X206913214Y-66650714D01*
X206770357Y-66650714D01*
X206675119Y-66698333D01*
X206627500Y-66793571D01*
X206627500Y-67317380D01*
X206151309Y-67317380D02*
X206151309Y-66650714D01*
X206151309Y-66317380D02*
X206198928Y-66365000D01*
X206151309Y-66412619D01*
X206103690Y-66365000D01*
X206151309Y-66317380D01*
X206151309Y-66412619D01*
X205817976Y-66650714D02*
X205437023Y-66650714D01*
X205675119Y-66317380D02*
X205675119Y-67174523D01*
X205627500Y-67269761D01*
X205532261Y-67317380D01*
X205437023Y-67317380D01*
X205198928Y-66650714D02*
X204960833Y-67317380D01*
X204722738Y-66650714D02*
X204960833Y-67317380D01*
X205056071Y-67555476D01*
X205103690Y-67603095D01*
X205198928Y-67650714D01*
X203627500Y-66269761D02*
X204484642Y-67555476D01*
X203294166Y-66650714D02*
X203294166Y-67650714D01*
X203294166Y-66698333D02*
X203198928Y-66650714D01*
X203008452Y-66650714D01*
X202913214Y-66698333D01*
X202865595Y-66745952D01*
X202817976Y-66841190D01*
X202817976Y-67126904D01*
X202865595Y-67222142D01*
X202913214Y-67269761D01*
X203008452Y-67317380D01*
X203198928Y-67317380D01*
X203294166Y-67269761D01*
X202246547Y-67317380D02*
X202341785Y-67269761D01*
X202389404Y-67222142D01*
X202437023Y-67126904D01*
X202437023Y-66841190D01*
X202389404Y-66745952D01*
X202341785Y-66698333D01*
X202246547Y-66650714D01*
X202103690Y-66650714D01*
X202008452Y-66698333D01*
X201960833Y-66745952D01*
X201913214Y-66841190D01*
X201913214Y-67126904D01*
X201960833Y-67222142D01*
X202008452Y-67269761D01*
X202103690Y-67317380D01*
X202246547Y-67317380D01*
X201532261Y-67269761D02*
X201437023Y-67317380D01*
X201246547Y-67317380D01*
X201151309Y-67269761D01*
X201103690Y-67174523D01*
X201103690Y-67126904D01*
X201151309Y-67031666D01*
X201246547Y-66984047D01*
X201389404Y-66984047D01*
X201484642Y-66936428D01*
X201532261Y-66841190D01*
X201532261Y-66793571D01*
X201484642Y-66698333D01*
X201389404Y-66650714D01*
X201246547Y-66650714D01*
X201151309Y-66698333D01*
X200817976Y-66650714D02*
X200437023Y-66650714D01*
X200675119Y-66317380D02*
X200675119Y-67174523D01*
X200627500Y-67269761D01*
X200532261Y-67317380D01*
X200437023Y-67317380D01*
X200103690Y-67317380D02*
X200103690Y-66650714D01*
X200103690Y-66317380D02*
X200151309Y-66365000D01*
X200103690Y-66412619D01*
X200056071Y-66365000D01*
X200103690Y-66317380D01*
X200103690Y-66412619D01*
X199198928Y-67317380D02*
X199198928Y-66317380D01*
X199198928Y-67269761D02*
X199294166Y-67317380D01*
X199484642Y-67317380D01*
X199579880Y-67269761D01*
X199627500Y-67222142D01*
X199675119Y-67126904D01*
X199675119Y-66841190D01*
X199627500Y-66745952D01*
X199579880Y-66698333D01*
X199484642Y-66650714D01*
X199294166Y-66650714D01*
X199198928Y-66698333D01*
X198008452Y-66269761D02*
X198865595Y-67555476D01*
X197770357Y-66317380D02*
X197151309Y-66317380D01*
X197484642Y-66698333D01*
X197341785Y-66698333D01*
X197246547Y-66745952D01*
X197198928Y-66793571D01*
X197151309Y-66888809D01*
X197151309Y-67126904D01*
X197198928Y-67222142D01*
X197246547Y-67269761D01*
X197341785Y-67317380D01*
X197627500Y-67317380D01*
X197722738Y-67269761D01*
X197770357Y-67222142D01*
X196817976Y-66317380D02*
X196151309Y-66317380D01*
X196579880Y-67317380D01*
X195056071Y-66269761D02*
X195913214Y-67555476D01*
D11*
X212010000Y-56558571D02*
X212010000Y-55558571D01*
X212010000Y-55701428D02*
X211938571Y-55630000D01*
X211795714Y-55558571D01*
X211581428Y-55558571D01*
X211438571Y-55630000D01*
X211367142Y-55772857D01*
X211367142Y-56558571D01*
X211367142Y-55772857D02*
X211295714Y-55630000D01*
X211152857Y-55558571D01*
X210938571Y-55558571D01*
X210795714Y-55630000D01*
X210724285Y-55772857D01*
X210724285Y-56558571D01*
X210010000Y-56558571D02*
X210010000Y-55558571D01*
X210010000Y-55058571D02*
X210081428Y-55130000D01*
X210010000Y-55201428D01*
X209938571Y-55130000D01*
X210010000Y-55058571D01*
X210010000Y-55201428D01*
X209295714Y-55558571D02*
X209295714Y-56558571D01*
X209295714Y-55701428D02*
X209224285Y-55630000D01*
X209081428Y-55558571D01*
X208867142Y-55558571D01*
X208724285Y-55630000D01*
X208652857Y-55772857D01*
X208652857Y-56558571D01*
X207938571Y-56558571D02*
X207938571Y-55558571D01*
X207938571Y-55058571D02*
X208010000Y-55130000D01*
X207938571Y-55201428D01*
X207867142Y-55130000D01*
X207938571Y-55058571D01*
X207938571Y-55201428D01*
X206367142Y-56558571D02*
X206867142Y-55844285D01*
X207224285Y-56558571D02*
X207224285Y-55058571D01*
X206652857Y-55058571D01*
X206510000Y-55130000D01*
X206438571Y-55201428D01*
X206367142Y-55344285D01*
X206367142Y-55558571D01*
X206438571Y-55701428D01*
X206510000Y-55772857D01*
X206652857Y-55844285D01*
X207224285Y-55844285D01*
X204938571Y-55130000D02*
X205081428Y-55058571D01*
X205295714Y-55058571D01*
X205510000Y-55130000D01*
X205652857Y-55272857D01*
X205724285Y-55415714D01*
X205795714Y-55701428D01*
X205795714Y-55915714D01*
X205724285Y-56201428D01*
X205652857Y-56344285D01*
X205510000Y-56487142D01*
X205295714Y-56558571D01*
X205152857Y-56558571D01*
X204938571Y-56487142D01*
X204867142Y-56415714D01*
X204867142Y-55915714D01*
X205152857Y-55915714D01*
X203724285Y-55772857D02*
X203510000Y-55844285D01*
X203438571Y-55915714D01*
X203367142Y-56058571D01*
X203367142Y-56272857D01*
X203438571Y-56415714D01*
X203510000Y-56487142D01*
X203652857Y-56558571D01*
X204224285Y-56558571D01*
X204224285Y-55058571D01*
X203724285Y-55058571D01*
X203581428Y-55130000D01*
X203510000Y-55201428D01*
X203438571Y-55344285D01*
X203438571Y-55487142D01*
X203510000Y-55630000D01*
X203581428Y-55701428D01*
X203724285Y-55772857D01*
X204224285Y-55772857D01*
X202724285Y-56558571D02*
X202724285Y-55558571D01*
X202724285Y-55058571D02*
X202795714Y-55130000D01*
X202724285Y-55201428D01*
X202652857Y-55130000D01*
X202724285Y-55058571D01*
X202724285Y-55201428D01*
X202010000Y-56558571D02*
X202010000Y-55558571D01*
X202010000Y-55058571D02*
X202081428Y-55130000D01*
X202010000Y-55201428D01*
X201938571Y-55130000D01*
X202010000Y-55058571D01*
X202010000Y-55201428D01*
X212172857Y-60363571D02*
X212172857Y-58863571D01*
X212172857Y-59435000D02*
X212030000Y-59363571D01*
X211744285Y-59363571D01*
X211601428Y-59435000D01*
X211530000Y-59506428D01*
X211458571Y-59649285D01*
X211458571Y-60077857D01*
X211530000Y-60220714D01*
X211601428Y-60292142D01*
X211744285Y-60363571D01*
X212030000Y-60363571D01*
X212172857Y-60292142D01*
X210958571Y-59363571D02*
X210601428Y-60363571D01*
X210244285Y-59363571D02*
X210601428Y-60363571D01*
X210744285Y-60720714D01*
X210815714Y-60792142D01*
X210958571Y-60863571D01*
X208101428Y-58863571D02*
X208101428Y-59935000D01*
X208172857Y-60149285D01*
X208315714Y-60292142D01*
X208530000Y-60363571D01*
X208672857Y-60363571D01*
X207172857Y-60363571D02*
X207315714Y-60292142D01*
X207387142Y-60220714D01*
X207458571Y-60077857D01*
X207458571Y-59649285D01*
X207387142Y-59506428D01*
X207315714Y-59435000D01*
X207172857Y-59363571D01*
X206958571Y-59363571D01*
X206815714Y-59435000D01*
X206744285Y-59506428D01*
X206672857Y-59649285D01*
X206672857Y-60077857D01*
X206744285Y-60220714D01*
X206815714Y-60292142D01*
X206958571Y-60363571D01*
X207172857Y-60363571D01*
X206030000Y-60363571D02*
X206030000Y-58863571D01*
X206030000Y-59435000D02*
X205887142Y-59363571D01*
X205601428Y-59363571D01*
X205458571Y-59435000D01*
X205387142Y-59506428D01*
X205315714Y-59649285D01*
X205315714Y-60077857D01*
X205387142Y-60220714D01*
X205458571Y-60292142D01*
X205601428Y-60363571D01*
X205887142Y-60363571D01*
X206030000Y-60292142D01*
X204744285Y-59363571D02*
X203672857Y-59363571D01*
X204315714Y-58720714D02*
X204744285Y-60649285D01*
X203815714Y-60006428D02*
X204887142Y-60006428D01*
X204244285Y-60649285D02*
X203815714Y-58720714D01*
X203315714Y-58863571D02*
X202387142Y-58863571D01*
X202887142Y-59435000D01*
X202672857Y-59435000D01*
X202530000Y-59506428D01*
X202458571Y-59577857D01*
X202387142Y-59720714D01*
X202387142Y-60077857D01*
X202458571Y-60220714D01*
X202530000Y-60292142D01*
X202672857Y-60363571D01*
X203101428Y-60363571D01*
X203244285Y-60292142D01*
X203315714Y-60220714D01*
X201030000Y-58863571D02*
X201744285Y-58863571D01*
X201815714Y-59577857D01*
X201744285Y-59506428D01*
X201601428Y-59435000D01*
X201244285Y-59435000D01*
X201101428Y-59506428D01*
X201030000Y-59577857D01*
X200958571Y-59720714D01*
X200958571Y-60077857D01*
X201030000Y-60220714D01*
X201101428Y-60292142D01*
X201244285Y-60363571D01*
X201601428Y-60363571D01*
X201744285Y-60292142D01*
X201815714Y-60220714D01*
X199601428Y-58863571D02*
X200315714Y-58863571D01*
X200387142Y-59577857D01*
X200315714Y-59506428D01*
X200172857Y-59435000D01*
X199815714Y-59435000D01*
X199672857Y-59506428D01*
X199601428Y-59577857D01*
X199530000Y-59720714D01*
X199530000Y-60077857D01*
X199601428Y-60220714D01*
X199672857Y-60292142D01*
X199815714Y-60363571D01*
X200172857Y-60363571D01*
X200315714Y-60292142D01*
X200387142Y-60220714D01*
X198244285Y-58863571D02*
X198530000Y-58863571D01*
X198672857Y-58935000D01*
X198744285Y-59006428D01*
X198887142Y-59220714D01*
X198958571Y-59506428D01*
X198958571Y-60077857D01*
X198887142Y-60220714D01*
X198815714Y-60292142D01*
X198672857Y-60363571D01*
X198387142Y-60363571D01*
X198244285Y-60292142D01*
X198172857Y-60220714D01*
X198101428Y-60077857D01*
X198101428Y-59720714D01*
X198172857Y-59577857D01*
X198244285Y-59506428D01*
X198387142Y-59435000D01*
X198672857Y-59435000D01*
X198815714Y-59506428D01*
X198887142Y-59577857D01*
X198958571Y-59720714D01*
X195101428Y-60363571D02*
X195172857Y-60363571D01*
X195315714Y-60292142D01*
X195530000Y-60077857D01*
X195887142Y-59649285D01*
X196030000Y-59435000D01*
X196101428Y-59220714D01*
X196101428Y-59077857D01*
X196030000Y-58935000D01*
X195887142Y-58863571D01*
X195815714Y-58863571D01*
X195672857Y-58935000D01*
X195601428Y-59077857D01*
X195601428Y-59149285D01*
X195672857Y-59292142D01*
X195744285Y-59363571D01*
X196172857Y-59649285D01*
X196244285Y-59720714D01*
X196315714Y-59863571D01*
X196315714Y-60077857D01*
X196244285Y-60220714D01*
X196172857Y-60292142D01*
X196030000Y-60363571D01*
X195815714Y-60363571D01*
X195672857Y-60292142D01*
X195601428Y-60220714D01*
X195387142Y-59935000D01*
X195315714Y-59720714D01*
X195315714Y-59577857D01*
X211315714Y-62770714D02*
X211387142Y-62842142D01*
X211601428Y-62913571D01*
X211744285Y-62913571D01*
X211958571Y-62842142D01*
X212101428Y-62699285D01*
X212172857Y-62556428D01*
X212244285Y-62270714D01*
X212244285Y-62056428D01*
X212172857Y-61770714D01*
X212101428Y-61627857D01*
X211958571Y-61485000D01*
X211744285Y-61413571D01*
X211601428Y-61413571D01*
X211387142Y-61485000D01*
X211315714Y-61556428D01*
X210458571Y-62913571D02*
X210601428Y-62842142D01*
X210672857Y-62770714D01*
X210744285Y-62627857D01*
X210744285Y-62199285D01*
X210672857Y-62056428D01*
X210601428Y-61985000D01*
X210458571Y-61913571D01*
X210244285Y-61913571D01*
X210101428Y-61985000D01*
X210030000Y-62056428D01*
X209958571Y-62199285D01*
X209958571Y-62627857D01*
X210030000Y-62770714D01*
X210101428Y-62842142D01*
X210244285Y-62913571D01*
X210458571Y-62913571D01*
X209315714Y-62913571D02*
X209315714Y-61913571D01*
X209315714Y-62056428D02*
X209244285Y-61985000D01*
X209101428Y-61913571D01*
X208887142Y-61913571D01*
X208744285Y-61985000D01*
X208672857Y-62127857D01*
X208672857Y-62913571D01*
X208672857Y-62127857D02*
X208601428Y-61985000D01*
X208458571Y-61913571D01*
X208244285Y-61913571D01*
X208101428Y-61985000D01*
X208030000Y-62127857D01*
X208030000Y-62913571D01*
X207315714Y-62913571D02*
X207315714Y-61913571D01*
X207315714Y-62056428D02*
X207244285Y-61985000D01*
X207101428Y-61913571D01*
X206887142Y-61913571D01*
X206744285Y-61985000D01*
X206672857Y-62127857D01*
X206672857Y-62913571D01*
X206672857Y-62127857D02*
X206601428Y-61985000D01*
X206458571Y-61913571D01*
X206244285Y-61913571D01*
X206101428Y-61985000D01*
X206030000Y-62127857D01*
X206030000Y-62913571D01*
X204672857Y-62913571D02*
X204672857Y-62127857D01*
X204744285Y-61985000D01*
X204887142Y-61913571D01*
X205172857Y-61913571D01*
X205315714Y-61985000D01*
X204672857Y-62842142D02*
X204815714Y-62913571D01*
X205172857Y-62913571D01*
X205315714Y-62842142D01*
X205387142Y-62699285D01*
X205387142Y-62556428D01*
X205315714Y-62413571D01*
X205172857Y-62342142D01*
X204815714Y-62342142D01*
X204672857Y-62270714D01*
X203958571Y-61913571D02*
X203958571Y-62913571D01*
X203958571Y-62056428D02*
X203887142Y-61985000D01*
X203744285Y-61913571D01*
X203530000Y-61913571D01*
X203387142Y-61985000D01*
X203315714Y-62127857D01*
X203315714Y-62913571D01*
X201958571Y-62913571D02*
X201958571Y-61413571D01*
X201958571Y-62842142D02*
X202101428Y-62913571D01*
X202387142Y-62913571D01*
X202530000Y-62842142D01*
X202601428Y-62770714D01*
X202672857Y-62627857D01*
X202672857Y-62199285D01*
X202601428Y-62056428D01*
X202530000Y-61985000D01*
X202387142Y-61913571D01*
X202101428Y-61913571D01*
X201958571Y-61985000D01*
X201244285Y-62913571D02*
X201244285Y-61413571D01*
X201244285Y-61985000D02*
X201101428Y-61913571D01*
X200815714Y-61913571D01*
X200672857Y-61985000D01*
X200601428Y-62056428D01*
X200530000Y-62199285D01*
X200530000Y-62627857D01*
X200601428Y-62770714D01*
X200672857Y-62842142D01*
X200815714Y-62913571D01*
X201101428Y-62913571D01*
X201244285Y-62842142D01*
X199672857Y-62913571D02*
X199815714Y-62842142D01*
X199887142Y-62699285D01*
X199887142Y-61413571D01*
X198887142Y-62913571D02*
X199030000Y-62842142D01*
X199101428Y-62770714D01*
X199172857Y-62627857D01*
X199172857Y-62199285D01*
X199101428Y-62056428D01*
X199030000Y-61985000D01*
X198887142Y-61913571D01*
X198672857Y-61913571D01*
X198530000Y-61985000D01*
X198458571Y-62056428D01*
X198387142Y-62199285D01*
X198387142Y-62627857D01*
X198458571Y-62770714D01*
X198530000Y-62842142D01*
X198672857Y-62913571D01*
X198887142Y-62913571D01*
X197101428Y-62842142D02*
X197244285Y-62913571D01*
X197530000Y-62913571D01*
X197672857Y-62842142D01*
X197744285Y-62770714D01*
X197815714Y-62627857D01*
X197815714Y-62199285D01*
X197744285Y-62056428D01*
X197672857Y-61985000D01*
X197530000Y-61913571D01*
X197244285Y-61913571D01*
X197101428Y-61985000D01*
X196458571Y-62913571D02*
X196458571Y-61413571D01*
X196315714Y-62342142D02*
X195887142Y-62913571D01*
X195887142Y-61913571D02*
X196458571Y-62485000D01*
X194601428Y-61413571D02*
X194887142Y-61413571D01*
X195030000Y-61485000D01*
X195101428Y-61556428D01*
X195244285Y-61770714D01*
X195315714Y-62056428D01*
X195315714Y-62627857D01*
X195244285Y-62770714D01*
X195172857Y-62842142D01*
X195030000Y-62913571D01*
X194744285Y-62913571D01*
X194601428Y-62842142D01*
X194530000Y-62770714D01*
X194458571Y-62627857D01*
X194458571Y-62270714D01*
X194530000Y-62127857D01*
X194601428Y-62056428D01*
X194744285Y-61985000D01*
X195030000Y-61985000D01*
X195172857Y-62056428D01*
X195244285Y-62127857D01*
X195315714Y-62270714D01*
X193172857Y-61913571D02*
X193172857Y-62913571D01*
X193530000Y-61342142D02*
X193887142Y-62413571D01*
X192958571Y-62413571D01*
X191601428Y-62913571D02*
X192458571Y-62913571D01*
X192030000Y-62913571D02*
X192030000Y-61413571D01*
X192172857Y-61627857D01*
X192315714Y-61770714D01*
X192458571Y-61842142D01*
X191101428Y-61413571D02*
X190101428Y-61413571D01*
X190744285Y-62913571D01*
M02*
