<?xml version="1.0" standalone="no"?>
 <!DOCTYPE svg PUBLIC "-//W3C//DTD SVG 1.1//EN" 
 "http://www.w3.org/Graphics/SVG/1.1/DTD/svg11.dtd"> 
<svg xmlns="http://www.w3.org/2000/svg" version="1.1" 
    width="29.7002cm" height="21.0007cm" viewBox="0 0 116930 82680 ">
<title>SVG Picture created as HDTVii-F.Mask.svg date 2020/07/23 21:45:17 </title>
  <desc>Picture generated by PCBNEW </desc>
<g style="fill:#000000; fill-opacity:1;stroke:#000000; stroke-opacity:1;
stroke-linecap:round; stroke-linejoin:round; "
 transform="translate(0 0) scale(1 1)">
</g>
<g style="fill:#000000; fill-opacity:0.0; 
stroke:#000000; stroke-width:-0.000393701; stroke-opacity:1; 
stroke-linecap:round; stroke-linejoin:round;">
</g>
<g style="fill:#000000; fill-opacity:1.0; 
stroke:#000000; stroke-width:0; stroke-opacity:1; 
stroke-linecap:round; stroke-linejoin:round;">
<polyline style="fill-rule:evenodd;"
points="81468,26026
81492,26033
81515,26045
81536,26062
81552,26082
81564,26105
81572,26130
81575,26158
81575,26912
81572,26940
81564,26965
81552,26988
81536,27008
81515,27025
81492,27037
81468,27044
81439,27047
81079,27047
81051,27044
81026,27037
81003,27025
80983,27008
80967,26988
80954,26965
80947,26940
80944,26912
80944,26158
80947,26130
80954,26105
80967,26082
80983,26062
81003,26045
81026,26033
81051,26026
81079,26023
81439,26023
81468,26026
" /> 
<polyline style="fill-rule:evenodd;"
points="83594,26380
83618,26387
83641,26400
83662,26416
83678,26436
83690,26459
83698,26484
83701,26513
83701,26872
83698,26901
83690,26926
83678,26948
83662,26969
83641,26985
83618,26997
83594,27005
83565,27008
82812,27008
82783,27005
82759,26997
82736,26985
82715,26969
82699,26948
82687,26926
82679,26901
82676,26872
82676,26513
82679,26484
82687,26459
82699,26436
82715,26416
82736,26400
82759,26387
82783,26380
82812,26377
83565,26377
83594,26380
" /> 
<polyline style="fill-rule:evenodd;"
points="80074,26448
80089,26452
80102,26459
80114,26469
80124,26481
80131,26495
80136,26510
80138,26527
80138,26779
80136,26797
80131,26811
80124,26825
80114,26837
80102,26847
80089,26854
80074,26858
80056,26860
79765,26860
79748,26858
79733,26854
79719,26847
79707,26837
79698,26825
79690,26811
79686,26797
79684,26779
79684,26527
79686,26510
79690,26495
79698,26481
79707,26469
79719,26459
79733,26452
79748,26448
79765,26446
80056,26446
80074,26448
" /> 
<polyline style="fill-rule:evenodd;"
points="79385,26448
79400,26452
79413,26459
79425,26469
79435,26481
79442,26495
79447,26510
79449,26527
79449,26779
79447,26797
79442,26811
79435,26825
79425,26837
79413,26847
79400,26854
79385,26858
79367,26860
79077,26860
79059,26858
79044,26854
79030,26847
79018,26837
79009,26825
79001,26811
78997,26797
78995,26779
78995,26527
78997,26510
79001,26495
79009,26481
79018,26469
79030,26459
79044,26452
79059,26448
79077,26446
79367,26446
79385,26448
" /> 
<polyline style="fill-rule:evenodd;"
points="75903,25916
75915,25920
75926,25926
75936,25934
75944,25943
75949,25954
75953,25967
75955,25981
75955,26773
75953,26788
75949,26800
75944,26812
75936,26821
75926,26829
75915,26835
75903,26839
75888,26840
74978,26840
74963,26839
74950,26835
74939,26829
74930,26821
74922,26812
74916,26800
74912,26788
74911,26773
74911,25981
74912,25967
74916,25954
74922,25943
74930,25934
74939,25926
74950,25920
74963,25916
74978,25914
75888,25914
75903,25916
" /> 
<polyline style="fill-rule:evenodd;"
points="73737,25916
73749,25920
73760,25926
73770,25934
73778,25943
73784,25954
73788,25967
73789,25981
73789,26773
73788,26788
73784,26800
73778,26812
73770,26821
73760,26829
73749,26835
73737,26839
73722,26840
72812,26840
72797,26839
72785,26835
72774,26829
72764,26821
72756,26812
72750,26800
72747,26788
72745,26773
72745,25981
72747,25967
72750,25954
72756,25943
72764,25934
72774,25926
72785,25920
72797,25916
72812,25914
73722,25914
73737,25916
" /> 
<polyline style="fill-rule:evenodd;"
points="78068,25916
78080,25920
78091,25926
78101,25934
78109,25943
78115,25954
78118,25967
78120,25981
78120,26773
78118,26788
78115,26800
78109,26812
78101,26821
78091,26829
78080,26835
78068,26839
78053,26840
77143,26840
77128,26839
77116,26835
77105,26829
77095,26821
77087,26812
77081,26800
77077,26788
77076,26773
77076,25981
77077,25967
77081,25954
77087,25943
77095,25934
77105,25926
77116,25920
77128,25916
77143,25914
78053,25914
78068,25916
" /> 
<polyline style="fill-rule:evenodd;"
points="80074,25700
80089,25704
80102,25711
80114,25721
80124,25733
80131,25747
80136,25762
80138,25779
80138,26031
80136,26049
80131,26063
80124,26077
80114,26089
80102,26099
80089,26106
80074,26110
80056,26112
79765,26112
79748,26110
79733,26106
79719,26099
79707,26089
79698,26077
79690,26063
79686,26049
79684,26031
79684,25779
79686,25762
79690,25747
79698,25733
79707,25721
79719,25711
79733,25704
79748,25700
79765,25698
80056,25698
80074,25700
" /> 
<polyline style="fill-rule:evenodd;"
points="79385,25700
79400,25704
79413,25711
79425,25721
79435,25733
79442,25747
79447,25762
79449,25779
79449,26031
79447,26049
79442,26063
79435,26077
79425,26089
79413,26099
79400,26106
79385,26110
79367,26112
79077,26112
79059,26110
79044,26106
79030,26099
79018,26089
79009,26077
79001,26063
78997,26049
78995,26031
78995,25779
78997,25762
79001,25747
79009,25733
79018,25721
79030,25711
79044,25704
79059,25700
79077,25698
79367,25698
79385,25700
" /> 
<polyline style="fill-rule:evenodd;"
points="83594,25317
83618,25324
83641,25337
83662,25353
83678,25373
83690,25396
83698,25421
83701,25450
83701,25809
83698,25838
83690,25863
83678,25886
83662,25906
83641,25922
83618,25934
83594,25942
83565,25945
82812,25945
82783,25942
82759,25934
82736,25922
82715,25906
82699,25886
82687,25863
82679,25838
82676,25809
82676,25450
82679,25421
82687,25396
82699,25373
82715,25353
82736,25337
82759,25324
82783,25317
82812,25314
83565,25314
83594,25317
" /> 
<polyline style="fill-rule:evenodd;"
points="79385,24952
79400,24956
79413,24963
79425,24973
79435,24985
79442,24999
79447,25013
79449,25031
79449,25283
79447,25300
79442,25315
79435,25329
79425,25341
79413,25351
79400,25358
79385,25362
79367,25364
79077,25364
79059,25362
79044,25358
79030,25351
79018,25341
79009,25329
79001,25315
78997,25300
78995,25283
78995,25031
78997,25013
79001,24999
79009,24985
79018,24973
79030,24963
79044,24956
79059,24952
79077,24950
79367,24950
79385,24952
" /> 
<polyline style="fill-rule:evenodd;"
points="80074,24952
80089,24956
80102,24963
80114,24973
80124,24985
80131,24999
80136,25013
80138,25031
80138,25283
80136,25300
80131,25315
80124,25329
80114,25341
80102,25351
80089,25358
80074,25362
80056,25364
79765,25364
79748,25362
79733,25358
79719,25351
79707,25341
79698,25329
79690,25315
79686,25300
79684,25283
79684,25031
79686,25013
79690,24999
79698,24985
79707,24973
79719,24963
79733,24956
79748,24952
79765,24950
80056,24950
80074,24952
" /> 
<polyline style="fill-rule:evenodd;"
points="83594,24254
83618,24261
83641,24274
83662,24290
83678,24310
83690,24333
83698,24358
83701,24387
83701,24746
83698,24775
83690,24800
83678,24823
83662,24843
83641,24859
83618,24871
83594,24879
83565,24882
82812,24882
82783,24879
82759,24871
82736,24859
82715,24843
82699,24823
82687,24800
82679,24775
82676,24746
82676,24387
82679,24358
82687,24333
82699,24310
82715,24290
82736,24274
82759,24261
82783,24254
82812,24251
83565,24251
83594,24254
" /> 
<polyline style="fill-rule:evenodd;"
points="80346,24174
80361,24179
80376,24187
80389,24197
80399,24210
80407,24224
80411,24240
80413,24259
80413,24520
80411,24539
80407,24554
80399,24569
80389,24581
80376,24592
80361,24600
80346,24604
80327,24606
80066,24606
80047,24604
80031,24600
80017,24592
80004,24581
79994,24569
79986,24554
79981,24539
79979,24520
79979,24259
79981,24240
79986,24224
79994,24210
80004,24197
80017,24187
80031,24179
80047,24174
80066,24172
80327,24172
80346,24174
" /> 
<polyline style="fill-rule:evenodd;"
points="81251,24174
81267,24179
81281,24187
81294,24197
81304,24210
81312,24224
81317,24240
81319,24259
81319,24520
81317,24539
81312,24554
81304,24569
81294,24581
81281,24592
81267,24600
81251,24604
81233,24606
80971,24606
80952,24604
80937,24600
80922,24592
80910,24581
80899,24569
80892,24554
80887,24539
80885,24520
80885,24259
80887,24240
80892,24224
80899,24210
80910,24197
80922,24187
80937,24179
80952,24174
80971,24172
81233,24172
81251,24174
" /> 
<polyline style="fill-rule:evenodd;"
points="79440,24174
79456,24179
79470,24187
79483,24197
79493,24210
79501,24224
79506,24240
79508,24259
79508,24520
79506,24539
79501,24554
79493,24569
79483,24581
79470,24592
79456,24600
79440,24604
79421,24606
79160,24606
79141,24604
79126,24600
79111,24592
79099,24581
79088,24569
79081,24554
79076,24539
79074,24520
79074,24259
79076,24240
79081,24224
79088,24210
79099,24197
79111,24187
79126,24179
79141,24174
79160,24172
79421,24172
79440,24174
" /> 
<polyline style="fill-rule:evenodd;"
points="73737,23396
73749,23400
73760,23406
73770,23414
73778,23424
73784,23435
73788,23447
73789,23462
73789,24254
73788,24269
73784,24281
73778,24292
73770,24302
73760,24310
73749,24316
73737,24319
73722,24321
72812,24321
72797,24319
72785,24316
72774,24310
72764,24302
72756,24292
72750,24281
72747,24269
72745,24254
72745,23462
72747,23447
72750,23435
72756,23424
72764,23414
72774,23406
72785,23400
72797,23396
72812,23395
73722,23395
73737,23396
" /> 
<polyline style="fill-rule:evenodd;"
points="75903,23396
75915,23400
75926,23406
75936,23414
75944,23424
75949,23435
75953,23447
75955,23462
75955,24254
75953,24269
75949,24281
75944,24292
75936,24302
75926,24310
75915,24316
75903,24319
75888,24321
74978,24321
74963,24319
74950,24316
74939,24310
74930,24302
74922,24292
74916,24281
74912,24269
74911,24254
74911,23462
74912,23447
74916,23435
74922,23424
74930,23414
74939,23406
74950,23400
74963,23396
74978,23395
75888,23395
75903,23396
" /> 
<polyline style="fill-rule:evenodd;"
points="78068,23396
78080,23400
78091,23406
78101,23414
78109,23424
78115,23435
78118,23447
78120,23462
78120,24254
78118,24269
78115,24281
78109,24292
78101,24302
78091,24310
78080,24316
78068,24319
78053,24321
77143,24321
77128,24319
77116,24316
77105,24310
77095,24302
77087,24292
77081,24281
77077,24269
77076,24254
77076,23462
77077,23447
77081,23435
77087,23424
77095,23414
77105,23406
77116,23400
77128,23396
77143,23395
78053,23395
78068,23396
" /> 
<polyline style="fill-rule:evenodd;"
points="83594,23191
83618,23198
83641,23211
83662,23227
83678,23247
83690,23270
83698,23295
83701,23324
83701,23683
83698,23712
83690,23737
83678,23760
83662,23780
83641,23796
83618,23808
83594,23816
83565,23819
82812,23819
82783,23816
82759,23808
82736,23796
82715,23780
82699,23760
82687,23737
82679,23712
82676,23683
82676,23324
82679,23295
82687,23270
82699,23247
82715,23227
82736,23211
82759,23198
82783,23191
82812,23188
83565,23188
83594,23191
" /> 
<polyline style="fill-rule:evenodd;"
points="81251,23190
81267,23195
81281,23202
81294,23213
81304,23225
81312,23240
81317,23256
81319,23274
81319,23536
81317,23554
81312,23570
81304,23585
81294,23597
81281,23608
81267,23615
81251,23620
81233,23622
80971,23622
80952,23620
80937,23615
80922,23608
80910,23597
80899,23585
80892,23570
80887,23554
80885,23536
80885,23274
80887,23256
80892,23240
80899,23225
80910,23213
80922,23202
80937,23195
80952,23190
80971,23188
81233,23188
81251,23190
" /> 
<polyline style="fill-rule:evenodd;"
points="80346,23190
80361,23195
80376,23202
80389,23213
80399,23225
80407,23240
80411,23256
80413,23274
80413,23536
80411,23554
80407,23570
80399,23585
80389,23597
80376,23608
80361,23615
80346,23620
80327,23622
80066,23622
80047,23620
80031,23615
80017,23608
80004,23597
79994,23585
79986,23570
79981,23554
79979,23536
79979,23274
79981,23256
79986,23240
79994,23225
80004,23213
80017,23202
80031,23195
80047,23190
80066,23188
80327,23188
80346,23190
" /> 
<polyline style="fill-rule:evenodd;"
points="79440,23190
79456,23195
79470,23202
79483,23213
79493,23225
79501,23240
79506,23256
79508,23274
79508,23536
79506,23554
79501,23570
79493,23585
79483,23597
79470,23608
79456,23615
79440,23620
79421,23622
79160,23622
79141,23620
79126,23615
79111,23608
79099,23597
79088,23585
79081,23570
79076,23554
79074,23536
79074,23274
79076,23256
79081,23240
79088,23225
79099,23213
79111,23202
79126,23195
79141,23190
79160,23188
79421,23188
79440,23190
" /> 
<polyline style="fill-rule:evenodd;"
points="79440,22481
79456,22486
79470,22494
79483,22504
79493,22517
79501,22531
79506,22547
79508,22566
79508,22827
79506,22846
79501,22861
79493,22876
79483,22889
79470,22899
79456,22907
79440,22911
79421,22913
79160,22913
79141,22911
79126,22907
79111,22899
79099,22889
79088,22876
79081,22861
79076,22846
79074,22827
79074,22566
79076,22547
79081,22531
79088,22517
79099,22504
79111,22494
79126,22486
79141,22481
79160,22479
79421,22479
79440,22481
" /> 
<polyline style="fill-rule:evenodd;"
points="77072,22442
77087,22446
77101,22454
77112,22463
77122,22475
77129,22489
77134,22504
77136,22521
77136,22812
77134,22830
77129,22845
77122,22858
77112,22870
77101,22880
77087,22887
77072,22892
77054,22894
76803,22894
76785,22892
76770,22887
76757,22880
76745,22870
76735,22858
76728,22845
76723,22830
76722,22812
76722,22521
76723,22504
76728,22489
76735,22475
76745,22463
76757,22454
76770,22446
76785,22442
76803,22440
77054,22440
77072,22442
" /> 
<polyline style="fill-rule:evenodd;"
points="72741,22442
72756,22446
72770,22454
72782,22463
72792,22475
72799,22489
72803,22504
72805,22521
72805,22812
72803,22830
72799,22845
72792,22858
72782,22870
72770,22880
72756,22887
72741,22892
72724,22894
72472,22894
72454,22892
72440,22887
72426,22880
72414,22870
72404,22858
72397,22845
72393,22830
72391,22812
72391,22521
72393,22504
72397,22489
72404,22475
72414,22463
72426,22454
72440,22446
72454,22442
72472,22440
72724,22440
72741,22442
" /> 
<polyline style="fill-rule:evenodd;"
points="74907,22442
74922,22446
74935,22454
74947,22463
74957,22475
74964,22489
74969,22504
74970,22521
74970,22812
74969,22830
74964,22845
74957,22858
74947,22870
74935,22880
74922,22887
74907,22892
74889,22894
74638,22894
74620,22892
74605,22887
74591,22880
74579,22870
74570,22858
74562,22845
74558,22830
74556,22812
74556,22521
74558,22504
74562,22489
74570,22475
74579,22463
74591,22454
74605,22446
74620,22442
74638,22440
74889,22440
74907,22442
" /> 
<polyline style="fill-rule:evenodd;"
points="74129,22471
74144,22476
74158,22483
74170,22493
74179,22505
74187,22518
74191,22533
74193,22551
74193,22802
74191,22820
74187,22835
74179,22849
74170,22860
74158,22870
74144,22878
74129,22882
74111,22884
73821,22884
73803,22882
73788,22878
73774,22870
73763,22860
73753,22849
73745,22835
73741,22820
73739,22802
73739,22551
73741,22533
73745,22518
73753,22505
73763,22493
73774,22483
73788,22476
73803,22471
73821,22470
74111,22470
74129,22471
" /> 
<polyline style="fill-rule:evenodd;"
points="75606,22471
75620,22476
75634,22483
75646,22493
75656,22505
75663,22518
75667,22533
75669,22551
75669,22802
75667,22820
75663,22835
75656,22849
75646,22860
75634,22870
75620,22878
75606,22882
75588,22884
75297,22884
75279,22882
75264,22878
75251,22870
75239,22860
75229,22849
75222,22835
75217,22820
75216,22802
75216,22551
75217,22533
75222,22518
75229,22505
75239,22493
75251,22483
75264,22476
75279,22471
75297,22470
75588,22470
75606,22471
" /> 
<polyline style="fill-rule:evenodd;"
points="76295,22471
76309,22476
76323,22483
76335,22493
76345,22505
76352,22518
76356,22533
76358,22551
76358,22802
76356,22820
76352,22835
76345,22849
76335,22860
76323,22870
76309,22878
76295,22882
76277,22884
75986,22884
75968,22882
75953,22878
75940,22870
75928,22860
75918,22849
75911,22835
75906,22820
75905,22802
75905,22551
75906,22533
75911,22518
75918,22505
75928,22493
75940,22483
75953,22476
75968,22471
75986,22470
76277,22470
76295,22471
" /> 
<polyline style="fill-rule:evenodd;"
points="77771,22471
77786,22476
77799,22483
77811,22493
77821,22505
77828,22518
77833,22533
77835,22551
77835,22802
77833,22820
77828,22835
77821,22849
77811,22860
77799,22870
77786,22878
77771,22882
77753,22884
77462,22884
77445,22882
77430,22878
77416,22870
77404,22860
77394,22849
77387,22835
77383,22820
77381,22802
77381,22551
77383,22533
77387,22518
77394,22505
77404,22493
77416,22483
77430,22476
77445,22471
77462,22470
77753,22470
77771,22471
" /> 
<polyline style="fill-rule:evenodd;"
points="78460,22471
78475,22476
78488,22483
78500,22493
78510,22505
78517,22518
78522,22533
78524,22551
78524,22802
78522,22820
78517,22835
78510,22849
78500,22860
78488,22870
78475,22878
78460,22882
78442,22884
78151,22884
78134,22882
78119,22878
78105,22870
78093,22860
78083,22849
78076,22835
78072,22820
78070,22802
78070,22551
78072,22533
78076,22518
78083,22505
78093,22493
78105,22483
78119,22476
78134,22471
78151,22470
78442,22470
78460,22471
" /> 
<polyline style="fill-rule:evenodd;"
points="73440,22471
73455,22476
73469,22483
73481,22493
73490,22505
73498,22518
73502,22533
73504,22551
73504,22802
73502,22820
73498,22835
73490,22849
73481,22860
73469,22870
73455,22878
73440,22882
73422,22884
73132,22884
73114,22882
73099,22878
73086,22870
73074,22860
73064,22849
73057,22835
73052,22820
73050,22802
73050,22551
73052,22533
73057,22518
73064,22505
73074,22493
73086,22483
73099,22476
73114,22471
73132,22470
73422,22470
73440,22471
" /> 
<polyline style="fill-rule:evenodd;"
points="80405,21419
80429,21427
80452,21439
80473,21456
80489,21476
80501,21499
80509,21524
80512,21552
80512,22305
80509,22334
80501,22359
80489,22382
80473,22402
80452,22418
80429,22430
80405,22438
80376,22441
80016,22441
79988,22438
79963,22430
79940,22418
79920,22402
79904,22382
79891,22359
79884,22334
79881,22305
79881,21552
79884,21524
79891,21499
79904,21476
79920,21456
79940,21439
79963,21427
79988,21419
80016,21416
80376,21416
80405,21419
" /> 
<polyline style="fill-rule:evenodd;"
points="83594,21419
83618,21427
83641,21439
83662,21456
83678,21476
83690,21499
83698,21524
83701,21552
83701,22305
83698,22334
83690,22359
83678,22382
83662,22402
83641,22418
83618,22430
83594,22438
83565,22441
83205,22441
83177,22438
83152,22430
83129,22418
83109,22402
83093,22382
83080,22359
83073,22334
83070,22305
83070,21552
83073,21524
83080,21499
83093,21476
83109,21456
83129,21439
83152,21427
83177,21419
83205,21416
83565,21416
83594,21419
" /> 
<polyline style="fill-rule:evenodd;"
points="81468,21419
81492,21427
81515,21439
81536,21456
81552,21476
81564,21499
81572,21524
81575,21552
81575,22305
81572,22334
81564,22359
81552,22382
81536,22402
81515,22418
81492,22430
81468,22438
81439,22441
81079,22441
81051,22438
81026,22430
81003,22418
80983,22402
80967,22382
80954,22359
80947,22334
80944,22305
80944,21552
80947,21524
80954,21499
80967,21476
80983,21456
81003,21439
81026,21427
81051,21419
81079,21416
81439,21416
81468,21419
" /> 
<polyline style="fill-rule:evenodd;"
points="82531,21419
82555,21427
82578,21439
82599,21456
82615,21476
82627,21499
82635,21524
82638,21552
82638,22305
82635,22334
82627,22359
82615,22382
82599,22402
82578,22418
82555,22430
82531,22438
82502,22441
82142,22441
82114,22438
82089,22430
82066,22418
82046,22402
82030,22382
82017,22359
82010,22334
82007,22305
82007,21552
82010,21524
82017,21499
82030,21476
82046,21456
82066,21439
82089,21427
82114,21419
82142,21416
82502,21416
82531,21419
" /> 
<polyline style="fill-rule:evenodd;"
points="72741,21753
72756,21757
72770,21765
72782,21774
72792,21786
72799,21800
72803,21815
72805,21832
72805,22123
72803,22141
72799,22156
72792,22169
72782,22181
72770,22191
72756,22198
72741,22203
72724,22205
72472,22205
72454,22203
72440,22198
72426,22191
72414,22181
72404,22169
72397,22156
72393,22141
72391,22123
72391,21832
72393,21815
72397,21800
72404,21786
72414,21774
72426,21765
72440,21757
72454,21753
72472,21751
72724,21751
72741,21753
" /> 
<polyline style="fill-rule:evenodd;"
points="74907,21753
74922,21757
74935,21765
74947,21774
74957,21786
74964,21800
74969,21815
74970,21832
74970,22123
74969,22141
74964,22156
74957,22169
74947,22181
74935,22191
74922,22198
74907,22203
74889,22205
74638,22205
74620,22203
74605,22198
74591,22191
74579,22181
74570,22169
74562,22156
74558,22141
74556,22123
74556,21832
74558,21815
74562,21800
74570,21786
74579,21774
74591,21765
74605,21757
74620,21753
74638,21751
74889,21751
74907,21753
" /> 
<polyline style="fill-rule:evenodd;"
points="77072,21753
77087,21757
77101,21765
77112,21774
77122,21786
77129,21800
77134,21815
77136,21832
77136,22123
77134,22141
77129,22156
77122,22169
77112,22181
77101,22191
77087,22198
77072,22203
77054,22205
76803,22205
76785,22203
76770,22198
76757,22191
76745,22181
76735,22169
76728,22156
76723,22141
76722,22123
76722,21832
76723,21815
76728,21800
76735,21786
76745,21774
76757,21765
76770,21757
76785,21753
76803,21751
77054,21751
77072,21753
" /> 
<polyline style="fill-rule:evenodd;"
points="78460,21763
78475,21767
78488,21774
78500,21784
78510,21796
78517,21810
78522,21825
78524,21842
78524,22094
78522,22112
78517,22126
78510,22140
78500,22152
78488,22162
78475,22169
78460,22173
78442,22175
78151,22175
78134,22173
78119,22169
78105,22162
78093,22152
78083,22140
78076,22126
78072,22112
78070,22094
78070,21842
78072,21825
78076,21810
78083,21796
78093,21784
78105,21774
78119,21767
78134,21763
78151,21761
78442,21761
78460,21763
" /> 
<polyline style="fill-rule:evenodd;"
points="77771,21763
77786,21767
77799,21774
77811,21784
77821,21796
77828,21810
77833,21825
77835,21842
77835,22094
77833,22112
77828,22126
77821,22140
77811,22152
77799,22162
77786,22169
77771,22173
77753,22175
77462,22175
77445,22173
77430,22169
77416,22162
77404,22152
77394,22140
77387,22126
77383,22112
77381,22094
77381,21842
77383,21825
77387,21810
77394,21796
77404,21784
77416,21774
77430,21767
77445,21763
77462,21761
77753,21761
77771,21763
" /> 
<polyline style="fill-rule:evenodd;"
points="75606,21763
75620,21767
75634,21774
75646,21784
75656,21796
75663,21810
75667,21825
75669,21842
75669,22094
75667,22112
75663,22126
75656,22140
75646,22152
75634,22162
75620,22169
75606,22173
75588,22175
75297,22175
75279,22173
75264,22169
75251,22162
75239,22152
75229,22140
75222,22126
75217,22112
75216,22094
75216,21842
75217,21825
75222,21810
75229,21796
75239,21784
75251,21774
75264,21767
75279,21763
75297,21761
75588,21761
75606,21763
" /> 
<polyline style="fill-rule:evenodd;"
points="76295,21763
76309,21767
76323,21774
76335,21784
76345,21796
76352,21810
76356,21825
76358,21842
76358,22094
76356,22112
76352,22126
76345,22140
76335,22152
76323,22162
76309,22169
76295,22173
76277,22175
75986,22175
75968,22173
75953,22169
75940,22162
75928,22152
75918,22140
75911,22126
75906,22112
75905,22094
75905,21842
75906,21825
75911,21810
75918,21796
75928,21784
75940,21774
75953,21767
75968,21763
75986,21761
76277,21761
76295,21763
" /> 
<polyline style="fill-rule:evenodd;"
points="74129,21763
74144,21767
74158,21774
74170,21784
74179,21796
74187,21810
74191,21825
74193,21842
74193,22094
74191,22112
74187,22126
74179,22140
74170,22152
74158,22162
74144,22169
74129,22173
74111,22175
73821,22175
73803,22173
73788,22169
73774,22162
73763,22152
73753,22140
73745,22126
73741,22112
73739,22094
73739,21842
73741,21825
73745,21810
73753,21796
73763,21784
73774,21774
73788,21767
73803,21763
73821,21761
74111,21761
74129,21763
" /> 
<polyline style="fill-rule:evenodd;"
points="73440,21763
73455,21767
73469,21774
73481,21784
73490,21796
73498,21810
73502,21825
73504,21842
73504,22094
73502,22112
73498,22126
73490,22140
73481,22152
73469,22162
73455,22169
73440,22173
73422,22175
73132,22175
73114,22173
73099,22169
73086,22162
73074,22152
73064,22140
73057,22126
73052,22112
73050,22094
73050,21842
73052,21825
73057,21810
73064,21796
73074,21784
73086,21774
73099,21767
73114,21763
73132,21761
73422,21761
73440,21763
" /> 
<polyline style="fill-rule:evenodd;"
points="79440,21497
79456,21502
79470,21510
79483,21520
79493,21533
79501,21547
79506,21563
79508,21581
79508,21843
79506,21861
79501,21877
79493,21892
79483,21904
79470,21915
79456,21922
79440,21927
79421,21929
79160,21929
79141,21927
79126,21922
79111,21915
79099,21904
79088,21892
79081,21877
79076,21861
79074,21843
79074,21581
79076,21563
79081,21547
79088,21533
79099,21520
79111,21510
79126,21502
79141,21497
79160,21495
79421,21495
79440,21497
" /> 
</g> 
</svg>
