G04 #@! TF.GenerationSoftware,KiCad,Pcbnew,(5.1.5-0-10_14)*
G04 #@! TF.CreationDate,2020-08-30T17:59:42+03:00*
G04 #@! TF.ProjectId,miniRGBii,6d696e69-5247-4426-9969-2e6b69636164,rev?*
G04 #@! TF.SameCoordinates,Original*
G04 #@! TF.FileFunction,Soldermask,Top*
G04 #@! TF.FilePolarity,Negative*
%FSLAX46Y46*%
G04 Gerber Fmt 4.6, Leading zero omitted, Abs format (unit mm)*
G04 Created by KiCad (PCBNEW (5.1.5-0-10_14)) date 2020-08-30 17:59:42*
%MOMM*%
%LPD*%
G04 APERTURE LIST*
%ADD10C,0.100000*%
G04 APERTURE END LIST*
D10*
G36*
X206928823Y-66106087D02*
G01*
X206992111Y-66125286D01*
X207050449Y-66156468D01*
X207101575Y-66198425D01*
X207143532Y-66249551D01*
X207174714Y-66307889D01*
X207193913Y-66371177D01*
X207201000Y-66443138D01*
X207201000Y-68356862D01*
X207193913Y-68428823D01*
X207174714Y-68492111D01*
X207143532Y-68550449D01*
X207101575Y-68601575D01*
X207050449Y-68643532D01*
X206992111Y-68674714D01*
X206928823Y-68693913D01*
X206856862Y-68701000D01*
X205943138Y-68701000D01*
X205871177Y-68693913D01*
X205807889Y-68674714D01*
X205749551Y-68643532D01*
X205698425Y-68601575D01*
X205656468Y-68550449D01*
X205625286Y-68492111D01*
X205606087Y-68428823D01*
X205599000Y-68356862D01*
X205599000Y-66443138D01*
X205606087Y-66371177D01*
X205625286Y-66307889D01*
X205656468Y-66249551D01*
X205698425Y-66198425D01*
X205749551Y-66156468D01*
X205807889Y-66125286D01*
X205871177Y-66106087D01*
X205943138Y-66099000D01*
X206856862Y-66099000D01*
X206928823Y-66106087D01*
G37*
G36*
X212328823Y-67006087D02*
G01*
X212392111Y-67025286D01*
X212450449Y-67056468D01*
X212501575Y-67098425D01*
X212543532Y-67149551D01*
X212574714Y-67207889D01*
X212593913Y-67271177D01*
X212601000Y-67343138D01*
X212601000Y-68256862D01*
X212593913Y-68328823D01*
X212574714Y-68392111D01*
X212543532Y-68450449D01*
X212501575Y-68501575D01*
X212450449Y-68543532D01*
X212392111Y-68574714D01*
X212328823Y-68593913D01*
X212256862Y-68601000D01*
X210343138Y-68601000D01*
X210271177Y-68593913D01*
X210207889Y-68574714D01*
X210149551Y-68543532D01*
X210098425Y-68501575D01*
X210056468Y-68450449D01*
X210025286Y-68392111D01*
X210006087Y-68328823D01*
X209999000Y-68256862D01*
X209999000Y-67343138D01*
X210006087Y-67271177D01*
X210025286Y-67207889D01*
X210056468Y-67149551D01*
X210098425Y-67098425D01*
X210149551Y-67056468D01*
X210207889Y-67025286D01*
X210271177Y-67006087D01*
X210343138Y-66999000D01*
X212256862Y-66999000D01*
X212328823Y-67006087D01*
G37*
G36*
X203389499Y-67178445D02*
G01*
X203426995Y-67189820D01*
X203461554Y-67208292D01*
X203491847Y-67233153D01*
X203516708Y-67263446D01*
X203535180Y-67298005D01*
X203546555Y-67335501D01*
X203551000Y-67380638D01*
X203551000Y-68019362D01*
X203546555Y-68064499D01*
X203535180Y-68101995D01*
X203516708Y-68136554D01*
X203491847Y-68166847D01*
X203461554Y-68191708D01*
X203426995Y-68210180D01*
X203389499Y-68221555D01*
X203344362Y-68226000D01*
X202605638Y-68226000D01*
X202560501Y-68221555D01*
X202523005Y-68210180D01*
X202488446Y-68191708D01*
X202458153Y-68166847D01*
X202433292Y-68136554D01*
X202414820Y-68101995D01*
X202403445Y-68064499D01*
X202399000Y-68019362D01*
X202399000Y-67380638D01*
X202403445Y-67335501D01*
X202414820Y-67298005D01*
X202433292Y-67263446D01*
X202458153Y-67233153D01*
X202488446Y-67208292D01*
X202523005Y-67189820D01*
X202560501Y-67178445D01*
X202605638Y-67174000D01*
X203344362Y-67174000D01*
X203389499Y-67178445D01*
G37*
G36*
X201639499Y-67178445D02*
G01*
X201676995Y-67189820D01*
X201711554Y-67208292D01*
X201741847Y-67233153D01*
X201766708Y-67263446D01*
X201785180Y-67298005D01*
X201796555Y-67335501D01*
X201801000Y-67380638D01*
X201801000Y-68019362D01*
X201796555Y-68064499D01*
X201785180Y-68101995D01*
X201766708Y-68136554D01*
X201741847Y-68166847D01*
X201711554Y-68191708D01*
X201676995Y-68210180D01*
X201639499Y-68221555D01*
X201594362Y-68226000D01*
X200855638Y-68226000D01*
X200810501Y-68221555D01*
X200773005Y-68210180D01*
X200738446Y-68191708D01*
X200708153Y-68166847D01*
X200683292Y-68136554D01*
X200664820Y-68101995D01*
X200653445Y-68064499D01*
X200649000Y-68019362D01*
X200649000Y-67380638D01*
X200653445Y-67335501D01*
X200664820Y-67298005D01*
X200683292Y-67263446D01*
X200708153Y-67233153D01*
X200738446Y-67208292D01*
X200773005Y-67189820D01*
X200810501Y-67178445D01*
X200855638Y-67174000D01*
X201594362Y-67174000D01*
X201639499Y-67178445D01*
G37*
G36*
X198293786Y-65827746D02*
G01*
X198324461Y-65837051D01*
X198352729Y-65852161D01*
X198377506Y-65872494D01*
X198397839Y-65897271D01*
X198412949Y-65925539D01*
X198422254Y-65956214D01*
X198426000Y-65994251D01*
X198426000Y-68005749D01*
X198422254Y-68043786D01*
X198412949Y-68074461D01*
X198397839Y-68102729D01*
X198377506Y-68127506D01*
X198352729Y-68147839D01*
X198324461Y-68162949D01*
X198293786Y-68172254D01*
X198255749Y-68176000D01*
X195944251Y-68176000D01*
X195906214Y-68172254D01*
X195875539Y-68162949D01*
X195847271Y-68147839D01*
X195822494Y-68127506D01*
X195802161Y-68102729D01*
X195787051Y-68074461D01*
X195777746Y-68043786D01*
X195774000Y-68005749D01*
X195774000Y-65994251D01*
X195777746Y-65956214D01*
X195787051Y-65925539D01*
X195802161Y-65897271D01*
X195822494Y-65872494D01*
X195847271Y-65852161D01*
X195875539Y-65837051D01*
X195906214Y-65827746D01*
X195944251Y-65824000D01*
X198255749Y-65824000D01*
X198293786Y-65827746D01*
G37*
G36*
X192793786Y-65827746D02*
G01*
X192824461Y-65837051D01*
X192852729Y-65852161D01*
X192877506Y-65872494D01*
X192897839Y-65897271D01*
X192912949Y-65925539D01*
X192922254Y-65956214D01*
X192926000Y-65994251D01*
X192926000Y-68005749D01*
X192922254Y-68043786D01*
X192912949Y-68074461D01*
X192897839Y-68102729D01*
X192877506Y-68127506D01*
X192852729Y-68147839D01*
X192824461Y-68162949D01*
X192793786Y-68172254D01*
X192755749Y-68176000D01*
X190444251Y-68176000D01*
X190406214Y-68172254D01*
X190375539Y-68162949D01*
X190347271Y-68147839D01*
X190322494Y-68127506D01*
X190302161Y-68102729D01*
X190287051Y-68074461D01*
X190277746Y-68043786D01*
X190274000Y-68005749D01*
X190274000Y-65994251D01*
X190277746Y-65956214D01*
X190287051Y-65925539D01*
X190302161Y-65897271D01*
X190322494Y-65872494D01*
X190347271Y-65852161D01*
X190375539Y-65837051D01*
X190406214Y-65827746D01*
X190444251Y-65824000D01*
X192755749Y-65824000D01*
X192793786Y-65827746D01*
G37*
G36*
X187293786Y-65827746D02*
G01*
X187324461Y-65837051D01*
X187352729Y-65852161D01*
X187377506Y-65872494D01*
X187397839Y-65897271D01*
X187412949Y-65925539D01*
X187422254Y-65956214D01*
X187426000Y-65994251D01*
X187426000Y-68005749D01*
X187422254Y-68043786D01*
X187412949Y-68074461D01*
X187397839Y-68102729D01*
X187377506Y-68127506D01*
X187352729Y-68147839D01*
X187324461Y-68162949D01*
X187293786Y-68172254D01*
X187255749Y-68176000D01*
X184944251Y-68176000D01*
X184906214Y-68172254D01*
X184875539Y-68162949D01*
X184847271Y-68147839D01*
X184822494Y-68127506D01*
X184802161Y-68102729D01*
X184787051Y-68074461D01*
X184777746Y-68043786D01*
X184774000Y-68005749D01*
X184774000Y-65994251D01*
X184777746Y-65956214D01*
X184787051Y-65925539D01*
X184802161Y-65897271D01*
X184822494Y-65872494D01*
X184847271Y-65852161D01*
X184875539Y-65837051D01*
X184906214Y-65827746D01*
X184944251Y-65824000D01*
X187255749Y-65824000D01*
X187293786Y-65827746D01*
G37*
G36*
X203389499Y-65278445D02*
G01*
X203426995Y-65289820D01*
X203461554Y-65308292D01*
X203491847Y-65333153D01*
X203516708Y-65363446D01*
X203535180Y-65398005D01*
X203546555Y-65435501D01*
X203551000Y-65480638D01*
X203551000Y-66119362D01*
X203546555Y-66164499D01*
X203535180Y-66201995D01*
X203516708Y-66236554D01*
X203491847Y-66266847D01*
X203461554Y-66291708D01*
X203426995Y-66310180D01*
X203389499Y-66321555D01*
X203344362Y-66326000D01*
X202605638Y-66326000D01*
X202560501Y-66321555D01*
X202523005Y-66310180D01*
X202488446Y-66291708D01*
X202458153Y-66266847D01*
X202433292Y-66236554D01*
X202414820Y-66201995D01*
X202403445Y-66164499D01*
X202399000Y-66119362D01*
X202399000Y-65480638D01*
X202403445Y-65435501D01*
X202414820Y-65398005D01*
X202433292Y-65363446D01*
X202458153Y-65333153D01*
X202488446Y-65308292D01*
X202523005Y-65289820D01*
X202560501Y-65278445D01*
X202605638Y-65274000D01*
X203344362Y-65274000D01*
X203389499Y-65278445D01*
G37*
G36*
X201639499Y-65278445D02*
G01*
X201676995Y-65289820D01*
X201711554Y-65308292D01*
X201741847Y-65333153D01*
X201766708Y-65363446D01*
X201785180Y-65398005D01*
X201796555Y-65435501D01*
X201801000Y-65480638D01*
X201801000Y-66119362D01*
X201796555Y-66164499D01*
X201785180Y-66201995D01*
X201766708Y-66236554D01*
X201741847Y-66266847D01*
X201711554Y-66291708D01*
X201676995Y-66310180D01*
X201639499Y-66321555D01*
X201594362Y-66326000D01*
X200855638Y-66326000D01*
X200810501Y-66321555D01*
X200773005Y-66310180D01*
X200738446Y-66291708D01*
X200708153Y-66266847D01*
X200683292Y-66236554D01*
X200664820Y-66201995D01*
X200653445Y-66164499D01*
X200649000Y-66119362D01*
X200649000Y-65480638D01*
X200653445Y-65435501D01*
X200664820Y-65398005D01*
X200683292Y-65363446D01*
X200708153Y-65333153D01*
X200738446Y-65308292D01*
X200773005Y-65289820D01*
X200810501Y-65278445D01*
X200855638Y-65274000D01*
X201594362Y-65274000D01*
X201639499Y-65278445D01*
G37*
G36*
X212328823Y-64306087D02*
G01*
X212392111Y-64325286D01*
X212450449Y-64356468D01*
X212501575Y-64398425D01*
X212543532Y-64449551D01*
X212574714Y-64507889D01*
X212593913Y-64571177D01*
X212601000Y-64643138D01*
X212601000Y-65556862D01*
X212593913Y-65628823D01*
X212574714Y-65692111D01*
X212543532Y-65750449D01*
X212501575Y-65801575D01*
X212450449Y-65843532D01*
X212392111Y-65874714D01*
X212328823Y-65893913D01*
X212256862Y-65901000D01*
X210343138Y-65901000D01*
X210271177Y-65893913D01*
X210207889Y-65874714D01*
X210149551Y-65843532D01*
X210098425Y-65801575D01*
X210056468Y-65750449D01*
X210025286Y-65692111D01*
X210006087Y-65628823D01*
X209999000Y-65556862D01*
X209999000Y-64643138D01*
X210006087Y-64571177D01*
X210025286Y-64507889D01*
X210056468Y-64449551D01*
X210098425Y-64398425D01*
X210149551Y-64356468D01*
X210207889Y-64325286D01*
X210271177Y-64306087D01*
X210343138Y-64299000D01*
X212256862Y-64299000D01*
X212328823Y-64306087D01*
G37*
G36*
X201639499Y-63378445D02*
G01*
X201676995Y-63389820D01*
X201711554Y-63408292D01*
X201741847Y-63433153D01*
X201766708Y-63463446D01*
X201785180Y-63498005D01*
X201796555Y-63535501D01*
X201801000Y-63580638D01*
X201801000Y-64219362D01*
X201796555Y-64264499D01*
X201785180Y-64301995D01*
X201766708Y-64336554D01*
X201741847Y-64366847D01*
X201711554Y-64391708D01*
X201676995Y-64410180D01*
X201639499Y-64421555D01*
X201594362Y-64426000D01*
X200855638Y-64426000D01*
X200810501Y-64421555D01*
X200773005Y-64410180D01*
X200738446Y-64391708D01*
X200708153Y-64366847D01*
X200683292Y-64336554D01*
X200664820Y-64301995D01*
X200653445Y-64264499D01*
X200649000Y-64219362D01*
X200649000Y-63580638D01*
X200653445Y-63535501D01*
X200664820Y-63498005D01*
X200683292Y-63463446D01*
X200708153Y-63433153D01*
X200738446Y-63408292D01*
X200773005Y-63389820D01*
X200810501Y-63378445D01*
X200855638Y-63374000D01*
X201594362Y-63374000D01*
X201639499Y-63378445D01*
G37*
G36*
X203389499Y-63378445D02*
G01*
X203426995Y-63389820D01*
X203461554Y-63408292D01*
X203491847Y-63433153D01*
X203516708Y-63463446D01*
X203535180Y-63498005D01*
X203546555Y-63535501D01*
X203551000Y-63580638D01*
X203551000Y-64219362D01*
X203546555Y-64264499D01*
X203535180Y-64301995D01*
X203516708Y-64336554D01*
X203491847Y-64366847D01*
X203461554Y-64391708D01*
X203426995Y-64410180D01*
X203389499Y-64421555D01*
X203344362Y-64426000D01*
X202605638Y-64426000D01*
X202560501Y-64421555D01*
X202523005Y-64410180D01*
X202488446Y-64391708D01*
X202458153Y-64366847D01*
X202433292Y-64336554D01*
X202414820Y-64301995D01*
X202403445Y-64264499D01*
X202399000Y-64219362D01*
X202399000Y-63580638D01*
X202403445Y-63535501D01*
X202414820Y-63498005D01*
X202433292Y-63463446D01*
X202458153Y-63433153D01*
X202488446Y-63408292D01*
X202523005Y-63389820D01*
X202560501Y-63378445D01*
X202605638Y-63374000D01*
X203344362Y-63374000D01*
X203389499Y-63378445D01*
G37*
G36*
X212328823Y-61606087D02*
G01*
X212392111Y-61625286D01*
X212450449Y-61656468D01*
X212501575Y-61698425D01*
X212543532Y-61749551D01*
X212574714Y-61807889D01*
X212593913Y-61871177D01*
X212601000Y-61943138D01*
X212601000Y-62856862D01*
X212593913Y-62928823D01*
X212574714Y-62992111D01*
X212543532Y-63050449D01*
X212501575Y-63101575D01*
X212450449Y-63143532D01*
X212392111Y-63174714D01*
X212328823Y-63193913D01*
X212256862Y-63201000D01*
X210343138Y-63201000D01*
X210271177Y-63193913D01*
X210207889Y-63174714D01*
X210149551Y-63143532D01*
X210098425Y-63101575D01*
X210056468Y-63050449D01*
X210025286Y-62992111D01*
X210006087Y-62928823D01*
X209999000Y-62856862D01*
X209999000Y-61943138D01*
X210006087Y-61871177D01*
X210025286Y-61807889D01*
X210056468Y-61749551D01*
X210098425Y-61698425D01*
X210149551Y-61656468D01*
X210207889Y-61625286D01*
X210271177Y-61606087D01*
X210343138Y-61599000D01*
X212256862Y-61599000D01*
X212328823Y-61606087D01*
G37*
G36*
X201779434Y-61403686D02*
G01*
X201819284Y-61415774D01*
X201855999Y-61435399D01*
X201888186Y-61461814D01*
X201914601Y-61494001D01*
X201934226Y-61530716D01*
X201946314Y-61570566D01*
X201951000Y-61618141D01*
X201951000Y-62281859D01*
X201946314Y-62329434D01*
X201934226Y-62369284D01*
X201914601Y-62405999D01*
X201888186Y-62438186D01*
X201855999Y-62464601D01*
X201819284Y-62484226D01*
X201779434Y-62496314D01*
X201731859Y-62501000D01*
X201068141Y-62501000D01*
X201020566Y-62496314D01*
X200980716Y-62484226D01*
X200944001Y-62464601D01*
X200911814Y-62438186D01*
X200885399Y-62405999D01*
X200865774Y-62369284D01*
X200853686Y-62329434D01*
X200849000Y-62281859D01*
X200849000Y-61618141D01*
X200853686Y-61570566D01*
X200865774Y-61530716D01*
X200885399Y-61494001D01*
X200911814Y-61461814D01*
X200944001Y-61435399D01*
X200980716Y-61415774D01*
X201020566Y-61403686D01*
X201068141Y-61399000D01*
X201731859Y-61399000D01*
X201779434Y-61403686D01*
G37*
G36*
X204079434Y-61403686D02*
G01*
X204119284Y-61415774D01*
X204155999Y-61435399D01*
X204188186Y-61461814D01*
X204214601Y-61494001D01*
X204234226Y-61530716D01*
X204246314Y-61570566D01*
X204251000Y-61618141D01*
X204251000Y-62281859D01*
X204246314Y-62329434D01*
X204234226Y-62369284D01*
X204214601Y-62405999D01*
X204188186Y-62438186D01*
X204155999Y-62464601D01*
X204119284Y-62484226D01*
X204079434Y-62496314D01*
X204031859Y-62501000D01*
X203368141Y-62501000D01*
X203320566Y-62496314D01*
X203280716Y-62484226D01*
X203244001Y-62464601D01*
X203211814Y-62438186D01*
X203185399Y-62405999D01*
X203165774Y-62369284D01*
X203153686Y-62329434D01*
X203149000Y-62281859D01*
X203149000Y-61618141D01*
X203153686Y-61570566D01*
X203165774Y-61530716D01*
X203185399Y-61494001D01*
X203211814Y-61461814D01*
X203244001Y-61435399D01*
X203280716Y-61415774D01*
X203320566Y-61403686D01*
X203368141Y-61399000D01*
X204031859Y-61399000D01*
X204079434Y-61403686D01*
G37*
G36*
X206379434Y-61403686D02*
G01*
X206419284Y-61415774D01*
X206455999Y-61435399D01*
X206488186Y-61461814D01*
X206514601Y-61494001D01*
X206534226Y-61530716D01*
X206546314Y-61570566D01*
X206551000Y-61618141D01*
X206551000Y-62281859D01*
X206546314Y-62329434D01*
X206534226Y-62369284D01*
X206514601Y-62405999D01*
X206488186Y-62438186D01*
X206455999Y-62464601D01*
X206419284Y-62484226D01*
X206379434Y-62496314D01*
X206331859Y-62501000D01*
X205668141Y-62501000D01*
X205620566Y-62496314D01*
X205580716Y-62484226D01*
X205544001Y-62464601D01*
X205511814Y-62438186D01*
X205485399Y-62405999D01*
X205465774Y-62369284D01*
X205453686Y-62329434D01*
X205449000Y-62281859D01*
X205449000Y-61618141D01*
X205453686Y-61570566D01*
X205465774Y-61530716D01*
X205485399Y-61494001D01*
X205511814Y-61461814D01*
X205544001Y-61435399D01*
X205580716Y-61415774D01*
X205620566Y-61403686D01*
X205668141Y-61399000D01*
X206331859Y-61399000D01*
X206379434Y-61403686D01*
G37*
G36*
X192793786Y-59427746D02*
G01*
X192824461Y-59437051D01*
X192852729Y-59452161D01*
X192877506Y-59472494D01*
X192897839Y-59497271D01*
X192912949Y-59525539D01*
X192922254Y-59556214D01*
X192926000Y-59594251D01*
X192926000Y-61605749D01*
X192922254Y-61643786D01*
X192912949Y-61674461D01*
X192897839Y-61702729D01*
X192877506Y-61727506D01*
X192852729Y-61747839D01*
X192824461Y-61762949D01*
X192793786Y-61772254D01*
X192755749Y-61776000D01*
X190444251Y-61776000D01*
X190406214Y-61772254D01*
X190375539Y-61762949D01*
X190347271Y-61747839D01*
X190322494Y-61727506D01*
X190302161Y-61702729D01*
X190287051Y-61674461D01*
X190277746Y-61643786D01*
X190274000Y-61605749D01*
X190274000Y-59594251D01*
X190277746Y-59556214D01*
X190287051Y-59525539D01*
X190302161Y-59497271D01*
X190322494Y-59472494D01*
X190347271Y-59452161D01*
X190375539Y-59437051D01*
X190406214Y-59427746D01*
X190444251Y-59424000D01*
X192755749Y-59424000D01*
X192793786Y-59427746D01*
G37*
G36*
X198293786Y-59427746D02*
G01*
X198324461Y-59437051D01*
X198352729Y-59452161D01*
X198377506Y-59472494D01*
X198397839Y-59497271D01*
X198412949Y-59525539D01*
X198422254Y-59556214D01*
X198426000Y-59594251D01*
X198426000Y-61605749D01*
X198422254Y-61643786D01*
X198412949Y-61674461D01*
X198397839Y-61702729D01*
X198377506Y-61727506D01*
X198352729Y-61747839D01*
X198324461Y-61762949D01*
X198293786Y-61772254D01*
X198255749Y-61776000D01*
X195944251Y-61776000D01*
X195906214Y-61772254D01*
X195875539Y-61762949D01*
X195847271Y-61747839D01*
X195822494Y-61727506D01*
X195802161Y-61702729D01*
X195787051Y-61674461D01*
X195777746Y-61643786D01*
X195774000Y-61605749D01*
X195774000Y-59594251D01*
X195777746Y-59556214D01*
X195787051Y-59525539D01*
X195802161Y-59497271D01*
X195822494Y-59472494D01*
X195847271Y-59452161D01*
X195875539Y-59437051D01*
X195906214Y-59427746D01*
X195944251Y-59424000D01*
X198255749Y-59424000D01*
X198293786Y-59427746D01*
G37*
G36*
X187293786Y-59427746D02*
G01*
X187324461Y-59437051D01*
X187352729Y-59452161D01*
X187377506Y-59472494D01*
X187397839Y-59497271D01*
X187412949Y-59525539D01*
X187422254Y-59556214D01*
X187426000Y-59594251D01*
X187426000Y-61605749D01*
X187422254Y-61643786D01*
X187412949Y-61674461D01*
X187397839Y-61702729D01*
X187377506Y-61727506D01*
X187352729Y-61747839D01*
X187324461Y-61762949D01*
X187293786Y-61772254D01*
X187255749Y-61776000D01*
X184944251Y-61776000D01*
X184906214Y-61772254D01*
X184875539Y-61762949D01*
X184847271Y-61747839D01*
X184822494Y-61727506D01*
X184802161Y-61702729D01*
X184787051Y-61674461D01*
X184777746Y-61643786D01*
X184774000Y-61605749D01*
X184774000Y-59594251D01*
X184777746Y-59556214D01*
X184787051Y-59525539D01*
X184802161Y-59497271D01*
X184822494Y-59472494D01*
X184847271Y-59452161D01*
X184875539Y-59437051D01*
X184906214Y-59427746D01*
X184944251Y-59424000D01*
X187255749Y-59424000D01*
X187293786Y-59427746D01*
G37*
G36*
X212328823Y-58906087D02*
G01*
X212392111Y-58925286D01*
X212450449Y-58956468D01*
X212501575Y-58998425D01*
X212543532Y-59049551D01*
X212574714Y-59107889D01*
X212593913Y-59171177D01*
X212601000Y-59243138D01*
X212601000Y-60156862D01*
X212593913Y-60228823D01*
X212574714Y-60292111D01*
X212543532Y-60350449D01*
X212501575Y-60401575D01*
X212450449Y-60443532D01*
X212392111Y-60474714D01*
X212328823Y-60493913D01*
X212256862Y-60501000D01*
X210343138Y-60501000D01*
X210271177Y-60493913D01*
X210207889Y-60474714D01*
X210149551Y-60443532D01*
X210098425Y-60401575D01*
X210056468Y-60350449D01*
X210025286Y-60292111D01*
X210006087Y-60228823D01*
X209999000Y-60156862D01*
X209999000Y-59243138D01*
X210006087Y-59171177D01*
X210025286Y-59107889D01*
X210056468Y-59049551D01*
X210098425Y-58998425D01*
X210149551Y-58956468D01*
X210207889Y-58925286D01*
X210271177Y-58906087D01*
X210343138Y-58899000D01*
X212256862Y-58899000D01*
X212328823Y-58906087D01*
G37*
G36*
X206379434Y-58903686D02*
G01*
X206419284Y-58915774D01*
X206455999Y-58935399D01*
X206488186Y-58961814D01*
X206514601Y-58994001D01*
X206534226Y-59030716D01*
X206546314Y-59070566D01*
X206551000Y-59118141D01*
X206551000Y-59781859D01*
X206546314Y-59829434D01*
X206534226Y-59869284D01*
X206514601Y-59905999D01*
X206488186Y-59938186D01*
X206455999Y-59964601D01*
X206419284Y-59984226D01*
X206379434Y-59996314D01*
X206331859Y-60001000D01*
X205668141Y-60001000D01*
X205620566Y-59996314D01*
X205580716Y-59984226D01*
X205544001Y-59964601D01*
X205511814Y-59938186D01*
X205485399Y-59905999D01*
X205465774Y-59869284D01*
X205453686Y-59829434D01*
X205449000Y-59781859D01*
X205449000Y-59118141D01*
X205453686Y-59070566D01*
X205465774Y-59030716D01*
X205485399Y-58994001D01*
X205511814Y-58961814D01*
X205544001Y-58935399D01*
X205580716Y-58915774D01*
X205620566Y-58903686D01*
X205668141Y-58899000D01*
X206331859Y-58899000D01*
X206379434Y-58903686D01*
G37*
G36*
X204079434Y-58903686D02*
G01*
X204119284Y-58915774D01*
X204155999Y-58935399D01*
X204188186Y-58961814D01*
X204214601Y-58994001D01*
X204234226Y-59030716D01*
X204246314Y-59070566D01*
X204251000Y-59118141D01*
X204251000Y-59781859D01*
X204246314Y-59829434D01*
X204234226Y-59869284D01*
X204214601Y-59905999D01*
X204188186Y-59938186D01*
X204155999Y-59964601D01*
X204119284Y-59984226D01*
X204079434Y-59996314D01*
X204031859Y-60001000D01*
X203368141Y-60001000D01*
X203320566Y-59996314D01*
X203280716Y-59984226D01*
X203244001Y-59964601D01*
X203211814Y-59938186D01*
X203185399Y-59905999D01*
X203165774Y-59869284D01*
X203153686Y-59829434D01*
X203149000Y-59781859D01*
X203149000Y-59118141D01*
X203153686Y-59070566D01*
X203165774Y-59030716D01*
X203185399Y-58994001D01*
X203211814Y-58961814D01*
X203244001Y-58935399D01*
X203280716Y-58915774D01*
X203320566Y-58903686D01*
X203368141Y-58899000D01*
X204031859Y-58899000D01*
X204079434Y-58903686D01*
G37*
G36*
X201779434Y-58903686D02*
G01*
X201819284Y-58915774D01*
X201855999Y-58935399D01*
X201888186Y-58961814D01*
X201914601Y-58994001D01*
X201934226Y-59030716D01*
X201946314Y-59070566D01*
X201951000Y-59118141D01*
X201951000Y-59781859D01*
X201946314Y-59829434D01*
X201934226Y-59869284D01*
X201914601Y-59905999D01*
X201888186Y-59938186D01*
X201855999Y-59964601D01*
X201819284Y-59984226D01*
X201779434Y-59996314D01*
X201731859Y-60001000D01*
X201068141Y-60001000D01*
X201020566Y-59996314D01*
X200980716Y-59984226D01*
X200944001Y-59964601D01*
X200911814Y-59938186D01*
X200885399Y-59905999D01*
X200865774Y-59869284D01*
X200853686Y-59829434D01*
X200849000Y-59781859D01*
X200849000Y-59118141D01*
X200853686Y-59070566D01*
X200865774Y-59030716D01*
X200885399Y-58994001D01*
X200911814Y-58961814D01*
X200944001Y-58935399D01*
X200980716Y-58915774D01*
X201020566Y-58903686D01*
X201068141Y-58899000D01*
X201731859Y-58899000D01*
X201779434Y-58903686D01*
G37*
G36*
X201779434Y-57103686D02*
G01*
X201819284Y-57115774D01*
X201855999Y-57135399D01*
X201888186Y-57161814D01*
X201914601Y-57194001D01*
X201934226Y-57230716D01*
X201946314Y-57270566D01*
X201951000Y-57318141D01*
X201951000Y-57981859D01*
X201946314Y-58029434D01*
X201934226Y-58069284D01*
X201914601Y-58105999D01*
X201888186Y-58138186D01*
X201855999Y-58164601D01*
X201819284Y-58184226D01*
X201779434Y-58196314D01*
X201731859Y-58201000D01*
X201068141Y-58201000D01*
X201020566Y-58196314D01*
X200980716Y-58184226D01*
X200944001Y-58164601D01*
X200911814Y-58138186D01*
X200885399Y-58105999D01*
X200865774Y-58069284D01*
X200853686Y-58029434D01*
X200849000Y-57981859D01*
X200849000Y-57318141D01*
X200853686Y-57270566D01*
X200865774Y-57230716D01*
X200885399Y-57194001D01*
X200911814Y-57161814D01*
X200944001Y-57135399D01*
X200980716Y-57115774D01*
X201020566Y-57103686D01*
X201068141Y-57099000D01*
X201731859Y-57099000D01*
X201779434Y-57103686D01*
G37*
G36*
X190264499Y-57003445D02*
G01*
X190301995Y-57014820D01*
X190336554Y-57033292D01*
X190366847Y-57058153D01*
X190391708Y-57088446D01*
X190410180Y-57123005D01*
X190421555Y-57160501D01*
X190426000Y-57205638D01*
X190426000Y-57944362D01*
X190421555Y-57989499D01*
X190410180Y-58026995D01*
X190391708Y-58061554D01*
X190366847Y-58091847D01*
X190336554Y-58116708D01*
X190301995Y-58135180D01*
X190264499Y-58146555D01*
X190219362Y-58151000D01*
X189580638Y-58151000D01*
X189535501Y-58146555D01*
X189498005Y-58135180D01*
X189463446Y-58116708D01*
X189433153Y-58091847D01*
X189408292Y-58061554D01*
X189389820Y-58026995D01*
X189378445Y-57989499D01*
X189374000Y-57944362D01*
X189374000Y-57205638D01*
X189378445Y-57160501D01*
X189389820Y-57123005D01*
X189408292Y-57088446D01*
X189433153Y-57058153D01*
X189463446Y-57033292D01*
X189498005Y-57014820D01*
X189535501Y-57003445D01*
X189580638Y-56999000D01*
X190219362Y-56999000D01*
X190264499Y-57003445D01*
G37*
G36*
X195764499Y-57003445D02*
G01*
X195801995Y-57014820D01*
X195836554Y-57033292D01*
X195866847Y-57058153D01*
X195891708Y-57088446D01*
X195910180Y-57123005D01*
X195921555Y-57160501D01*
X195926000Y-57205638D01*
X195926000Y-57944362D01*
X195921555Y-57989499D01*
X195910180Y-58026995D01*
X195891708Y-58061554D01*
X195866847Y-58091847D01*
X195836554Y-58116708D01*
X195801995Y-58135180D01*
X195764499Y-58146555D01*
X195719362Y-58151000D01*
X195080638Y-58151000D01*
X195035501Y-58146555D01*
X194998005Y-58135180D01*
X194963446Y-58116708D01*
X194933153Y-58091847D01*
X194908292Y-58061554D01*
X194889820Y-58026995D01*
X194878445Y-57989499D01*
X194874000Y-57944362D01*
X194874000Y-57205638D01*
X194878445Y-57160501D01*
X194889820Y-57123005D01*
X194908292Y-57088446D01*
X194933153Y-57058153D01*
X194963446Y-57033292D01*
X194998005Y-57014820D01*
X195035501Y-57003445D01*
X195080638Y-56999000D01*
X195719362Y-56999000D01*
X195764499Y-57003445D01*
G37*
G36*
X184764499Y-57003445D02*
G01*
X184801995Y-57014820D01*
X184836554Y-57033292D01*
X184866847Y-57058153D01*
X184891708Y-57088446D01*
X184910180Y-57123005D01*
X184921555Y-57160501D01*
X184926000Y-57205638D01*
X184926000Y-57944362D01*
X184921555Y-57989499D01*
X184910180Y-58026995D01*
X184891708Y-58061554D01*
X184866847Y-58091847D01*
X184836554Y-58116708D01*
X184801995Y-58135180D01*
X184764499Y-58146555D01*
X184719362Y-58151000D01*
X184080638Y-58151000D01*
X184035501Y-58146555D01*
X183998005Y-58135180D01*
X183963446Y-58116708D01*
X183933153Y-58091847D01*
X183908292Y-58061554D01*
X183889820Y-58026995D01*
X183878445Y-57989499D01*
X183874000Y-57944362D01*
X183874000Y-57205638D01*
X183878445Y-57160501D01*
X183889820Y-57123005D01*
X183908292Y-57088446D01*
X183933153Y-57058153D01*
X183963446Y-57033292D01*
X183998005Y-57014820D01*
X184035501Y-57003445D01*
X184080638Y-56999000D01*
X184719362Y-56999000D01*
X184764499Y-57003445D01*
G37*
G36*
X199289499Y-57078445D02*
G01*
X199326995Y-57089820D01*
X199361554Y-57108292D01*
X199391847Y-57133153D01*
X199416708Y-57163446D01*
X199435180Y-57198005D01*
X199446555Y-57235501D01*
X199451000Y-57280638D01*
X199451000Y-57919362D01*
X199446555Y-57964499D01*
X199435180Y-58001995D01*
X199416708Y-58036554D01*
X199391847Y-58066847D01*
X199361554Y-58091708D01*
X199326995Y-58110180D01*
X199289499Y-58121555D01*
X199244362Y-58126000D01*
X198505638Y-58126000D01*
X198460501Y-58121555D01*
X198423005Y-58110180D01*
X198388446Y-58091708D01*
X198358153Y-58066847D01*
X198333292Y-58036554D01*
X198314820Y-58001995D01*
X198303445Y-57964499D01*
X198299000Y-57919362D01*
X198299000Y-57280638D01*
X198303445Y-57235501D01*
X198314820Y-57198005D01*
X198333292Y-57163446D01*
X198358153Y-57133153D01*
X198388446Y-57108292D01*
X198423005Y-57089820D01*
X198460501Y-57078445D01*
X198505638Y-57074000D01*
X199244362Y-57074000D01*
X199289499Y-57078445D01*
G37*
G36*
X197539499Y-57078445D02*
G01*
X197576995Y-57089820D01*
X197611554Y-57108292D01*
X197641847Y-57133153D01*
X197666708Y-57163446D01*
X197685180Y-57198005D01*
X197696555Y-57235501D01*
X197701000Y-57280638D01*
X197701000Y-57919362D01*
X197696555Y-57964499D01*
X197685180Y-58001995D01*
X197666708Y-58036554D01*
X197641847Y-58066847D01*
X197611554Y-58091708D01*
X197576995Y-58110180D01*
X197539499Y-58121555D01*
X197494362Y-58126000D01*
X196755638Y-58126000D01*
X196710501Y-58121555D01*
X196673005Y-58110180D01*
X196638446Y-58091708D01*
X196608153Y-58066847D01*
X196583292Y-58036554D01*
X196564820Y-58001995D01*
X196553445Y-57964499D01*
X196549000Y-57919362D01*
X196549000Y-57280638D01*
X196553445Y-57235501D01*
X196564820Y-57198005D01*
X196583292Y-57163446D01*
X196608153Y-57133153D01*
X196638446Y-57108292D01*
X196673005Y-57089820D01*
X196710501Y-57078445D01*
X196755638Y-57074000D01*
X197494362Y-57074000D01*
X197539499Y-57078445D01*
G37*
G36*
X193789499Y-57078445D02*
G01*
X193826995Y-57089820D01*
X193861554Y-57108292D01*
X193891847Y-57133153D01*
X193916708Y-57163446D01*
X193935180Y-57198005D01*
X193946555Y-57235501D01*
X193951000Y-57280638D01*
X193951000Y-57919362D01*
X193946555Y-57964499D01*
X193935180Y-58001995D01*
X193916708Y-58036554D01*
X193891847Y-58066847D01*
X193861554Y-58091708D01*
X193826995Y-58110180D01*
X193789499Y-58121555D01*
X193744362Y-58126000D01*
X193005638Y-58126000D01*
X192960501Y-58121555D01*
X192923005Y-58110180D01*
X192888446Y-58091708D01*
X192858153Y-58066847D01*
X192833292Y-58036554D01*
X192814820Y-58001995D01*
X192803445Y-57964499D01*
X192799000Y-57919362D01*
X192799000Y-57280638D01*
X192803445Y-57235501D01*
X192814820Y-57198005D01*
X192833292Y-57163446D01*
X192858153Y-57133153D01*
X192888446Y-57108292D01*
X192923005Y-57089820D01*
X192960501Y-57078445D01*
X193005638Y-57074000D01*
X193744362Y-57074000D01*
X193789499Y-57078445D01*
G37*
G36*
X192039499Y-57078445D02*
G01*
X192076995Y-57089820D01*
X192111554Y-57108292D01*
X192141847Y-57133153D01*
X192166708Y-57163446D01*
X192185180Y-57198005D01*
X192196555Y-57235501D01*
X192201000Y-57280638D01*
X192201000Y-57919362D01*
X192196555Y-57964499D01*
X192185180Y-58001995D01*
X192166708Y-58036554D01*
X192141847Y-58066847D01*
X192111554Y-58091708D01*
X192076995Y-58110180D01*
X192039499Y-58121555D01*
X191994362Y-58126000D01*
X191255638Y-58126000D01*
X191210501Y-58121555D01*
X191173005Y-58110180D01*
X191138446Y-58091708D01*
X191108153Y-58066847D01*
X191083292Y-58036554D01*
X191064820Y-58001995D01*
X191053445Y-57964499D01*
X191049000Y-57919362D01*
X191049000Y-57280638D01*
X191053445Y-57235501D01*
X191064820Y-57198005D01*
X191083292Y-57163446D01*
X191108153Y-57133153D01*
X191138446Y-57108292D01*
X191173005Y-57089820D01*
X191210501Y-57078445D01*
X191255638Y-57074000D01*
X191994362Y-57074000D01*
X192039499Y-57078445D01*
G37*
G36*
X188289499Y-57078445D02*
G01*
X188326995Y-57089820D01*
X188361554Y-57108292D01*
X188391847Y-57133153D01*
X188416708Y-57163446D01*
X188435180Y-57198005D01*
X188446555Y-57235501D01*
X188451000Y-57280638D01*
X188451000Y-57919362D01*
X188446555Y-57964499D01*
X188435180Y-58001995D01*
X188416708Y-58036554D01*
X188391847Y-58066847D01*
X188361554Y-58091708D01*
X188326995Y-58110180D01*
X188289499Y-58121555D01*
X188244362Y-58126000D01*
X187505638Y-58126000D01*
X187460501Y-58121555D01*
X187423005Y-58110180D01*
X187388446Y-58091708D01*
X187358153Y-58066847D01*
X187333292Y-58036554D01*
X187314820Y-58001995D01*
X187303445Y-57964499D01*
X187299000Y-57919362D01*
X187299000Y-57280638D01*
X187303445Y-57235501D01*
X187314820Y-57198005D01*
X187333292Y-57163446D01*
X187358153Y-57133153D01*
X187388446Y-57108292D01*
X187423005Y-57089820D01*
X187460501Y-57078445D01*
X187505638Y-57074000D01*
X188244362Y-57074000D01*
X188289499Y-57078445D01*
G37*
G36*
X186539499Y-57078445D02*
G01*
X186576995Y-57089820D01*
X186611554Y-57108292D01*
X186641847Y-57133153D01*
X186666708Y-57163446D01*
X186685180Y-57198005D01*
X186696555Y-57235501D01*
X186701000Y-57280638D01*
X186701000Y-57919362D01*
X186696555Y-57964499D01*
X186685180Y-58001995D01*
X186666708Y-58036554D01*
X186641847Y-58066847D01*
X186611554Y-58091708D01*
X186576995Y-58110180D01*
X186539499Y-58121555D01*
X186494362Y-58126000D01*
X185755638Y-58126000D01*
X185710501Y-58121555D01*
X185673005Y-58110180D01*
X185638446Y-58091708D01*
X185608153Y-58066847D01*
X185583292Y-58036554D01*
X185564820Y-58001995D01*
X185553445Y-57964499D01*
X185549000Y-57919362D01*
X185549000Y-57280638D01*
X185553445Y-57235501D01*
X185564820Y-57198005D01*
X185583292Y-57163446D01*
X185608153Y-57133153D01*
X185638446Y-57108292D01*
X185673005Y-57089820D01*
X185710501Y-57078445D01*
X185755638Y-57074000D01*
X186494362Y-57074000D01*
X186539499Y-57078445D01*
G37*
G36*
X209628823Y-54406087D02*
G01*
X209692111Y-54425286D01*
X209750449Y-54456468D01*
X209801575Y-54498425D01*
X209843532Y-54549551D01*
X209874714Y-54607889D01*
X209893913Y-54671177D01*
X209901000Y-54743138D01*
X209901000Y-56656862D01*
X209893913Y-56728823D01*
X209874714Y-56792111D01*
X209843532Y-56850449D01*
X209801575Y-56901575D01*
X209750449Y-56943532D01*
X209692111Y-56974714D01*
X209628823Y-56993913D01*
X209556862Y-57001000D01*
X208643138Y-57001000D01*
X208571177Y-56993913D01*
X208507889Y-56974714D01*
X208449551Y-56943532D01*
X208398425Y-56901575D01*
X208356468Y-56850449D01*
X208325286Y-56792111D01*
X208306087Y-56728823D01*
X208299000Y-56656862D01*
X208299000Y-54743138D01*
X208306087Y-54671177D01*
X208325286Y-54607889D01*
X208356468Y-54549551D01*
X208398425Y-54498425D01*
X208449551Y-54456468D01*
X208507889Y-54425286D01*
X208571177Y-54406087D01*
X208643138Y-54399000D01*
X209556862Y-54399000D01*
X209628823Y-54406087D01*
G37*
G36*
X204228823Y-54406087D02*
G01*
X204292111Y-54425286D01*
X204350449Y-54456468D01*
X204401575Y-54498425D01*
X204443532Y-54549551D01*
X204474714Y-54607889D01*
X204493913Y-54671177D01*
X204501000Y-54743138D01*
X204501000Y-56656862D01*
X204493913Y-56728823D01*
X204474714Y-56792111D01*
X204443532Y-56850449D01*
X204401575Y-56901575D01*
X204350449Y-56943532D01*
X204292111Y-56974714D01*
X204228823Y-56993913D01*
X204156862Y-57001000D01*
X203243138Y-57001000D01*
X203171177Y-56993913D01*
X203107889Y-56974714D01*
X203049551Y-56943532D01*
X202998425Y-56901575D01*
X202956468Y-56850449D01*
X202925286Y-56792111D01*
X202906087Y-56728823D01*
X202899000Y-56656862D01*
X202899000Y-54743138D01*
X202906087Y-54671177D01*
X202925286Y-54607889D01*
X202956468Y-54549551D01*
X202998425Y-54498425D01*
X203049551Y-54456468D01*
X203107889Y-54425286D01*
X203171177Y-54406087D01*
X203243138Y-54399000D01*
X204156862Y-54399000D01*
X204228823Y-54406087D01*
G37*
G36*
X206928823Y-54406087D02*
G01*
X206992111Y-54425286D01*
X207050449Y-54456468D01*
X207101575Y-54498425D01*
X207143532Y-54549551D01*
X207174714Y-54607889D01*
X207193913Y-54671177D01*
X207201000Y-54743138D01*
X207201000Y-56656862D01*
X207193913Y-56728823D01*
X207174714Y-56792111D01*
X207143532Y-56850449D01*
X207101575Y-56901575D01*
X207050449Y-56943532D01*
X206992111Y-56974714D01*
X206928823Y-56993913D01*
X206856862Y-57001000D01*
X205943138Y-57001000D01*
X205871177Y-56993913D01*
X205807889Y-56974714D01*
X205749551Y-56943532D01*
X205698425Y-56901575D01*
X205656468Y-56850449D01*
X205625286Y-56792111D01*
X205606087Y-56728823D01*
X205599000Y-56656862D01*
X205599000Y-54743138D01*
X205606087Y-54671177D01*
X205625286Y-54607889D01*
X205656468Y-54549551D01*
X205698425Y-54498425D01*
X205749551Y-54456468D01*
X205807889Y-54425286D01*
X205871177Y-54406087D01*
X205943138Y-54399000D01*
X206856862Y-54399000D01*
X206928823Y-54406087D01*
G37*
G36*
X212328823Y-54406087D02*
G01*
X212392111Y-54425286D01*
X212450449Y-54456468D01*
X212501575Y-54498425D01*
X212543532Y-54549551D01*
X212574714Y-54607889D01*
X212593913Y-54671177D01*
X212601000Y-54743138D01*
X212601000Y-56656862D01*
X212593913Y-56728823D01*
X212574714Y-56792111D01*
X212543532Y-56850449D01*
X212501575Y-56901575D01*
X212450449Y-56943532D01*
X212392111Y-56974714D01*
X212328823Y-56993913D01*
X212256862Y-57001000D01*
X211343138Y-57001000D01*
X211271177Y-56993913D01*
X211207889Y-56974714D01*
X211149551Y-56943532D01*
X211098425Y-56901575D01*
X211056468Y-56850449D01*
X211025286Y-56792111D01*
X211006087Y-56728823D01*
X210999000Y-56656862D01*
X210999000Y-54743138D01*
X211006087Y-54671177D01*
X211025286Y-54607889D01*
X211056468Y-54549551D01*
X211098425Y-54498425D01*
X211149551Y-54456468D01*
X211207889Y-54425286D01*
X211271177Y-54406087D01*
X211343138Y-54399000D01*
X212256862Y-54399000D01*
X212328823Y-54406087D01*
G37*
G36*
X190264499Y-55253445D02*
G01*
X190301995Y-55264820D01*
X190336554Y-55283292D01*
X190366847Y-55308153D01*
X190391708Y-55338446D01*
X190410180Y-55373005D01*
X190421555Y-55410501D01*
X190426000Y-55455638D01*
X190426000Y-56194362D01*
X190421555Y-56239499D01*
X190410180Y-56276995D01*
X190391708Y-56311554D01*
X190366847Y-56341847D01*
X190336554Y-56366708D01*
X190301995Y-56385180D01*
X190264499Y-56396555D01*
X190219362Y-56401000D01*
X189580638Y-56401000D01*
X189535501Y-56396555D01*
X189498005Y-56385180D01*
X189463446Y-56366708D01*
X189433153Y-56341847D01*
X189408292Y-56311554D01*
X189389820Y-56276995D01*
X189378445Y-56239499D01*
X189374000Y-56194362D01*
X189374000Y-55455638D01*
X189378445Y-55410501D01*
X189389820Y-55373005D01*
X189408292Y-55338446D01*
X189433153Y-55308153D01*
X189463446Y-55283292D01*
X189498005Y-55264820D01*
X189535501Y-55253445D01*
X189580638Y-55249000D01*
X190219362Y-55249000D01*
X190264499Y-55253445D01*
G37*
G36*
X195764499Y-55253445D02*
G01*
X195801995Y-55264820D01*
X195836554Y-55283292D01*
X195866847Y-55308153D01*
X195891708Y-55338446D01*
X195910180Y-55373005D01*
X195921555Y-55410501D01*
X195926000Y-55455638D01*
X195926000Y-56194362D01*
X195921555Y-56239499D01*
X195910180Y-56276995D01*
X195891708Y-56311554D01*
X195866847Y-56341847D01*
X195836554Y-56366708D01*
X195801995Y-56385180D01*
X195764499Y-56396555D01*
X195719362Y-56401000D01*
X195080638Y-56401000D01*
X195035501Y-56396555D01*
X194998005Y-56385180D01*
X194963446Y-56366708D01*
X194933153Y-56341847D01*
X194908292Y-56311554D01*
X194889820Y-56276995D01*
X194878445Y-56239499D01*
X194874000Y-56194362D01*
X194874000Y-55455638D01*
X194878445Y-55410501D01*
X194889820Y-55373005D01*
X194908292Y-55338446D01*
X194933153Y-55308153D01*
X194963446Y-55283292D01*
X194998005Y-55264820D01*
X195035501Y-55253445D01*
X195080638Y-55249000D01*
X195719362Y-55249000D01*
X195764499Y-55253445D01*
G37*
G36*
X184764499Y-55253445D02*
G01*
X184801995Y-55264820D01*
X184836554Y-55283292D01*
X184866847Y-55308153D01*
X184891708Y-55338446D01*
X184910180Y-55373005D01*
X184921555Y-55410501D01*
X184926000Y-55455638D01*
X184926000Y-56194362D01*
X184921555Y-56239499D01*
X184910180Y-56276995D01*
X184891708Y-56311554D01*
X184866847Y-56341847D01*
X184836554Y-56366708D01*
X184801995Y-56385180D01*
X184764499Y-56396555D01*
X184719362Y-56401000D01*
X184080638Y-56401000D01*
X184035501Y-56396555D01*
X183998005Y-56385180D01*
X183963446Y-56366708D01*
X183933153Y-56341847D01*
X183908292Y-56311554D01*
X183889820Y-56276995D01*
X183878445Y-56239499D01*
X183874000Y-56194362D01*
X183874000Y-55455638D01*
X183878445Y-55410501D01*
X183889820Y-55373005D01*
X183908292Y-55338446D01*
X183933153Y-55308153D01*
X183963446Y-55283292D01*
X183998005Y-55264820D01*
X184035501Y-55253445D01*
X184080638Y-55249000D01*
X184719362Y-55249000D01*
X184764499Y-55253445D01*
G37*
G36*
X186539499Y-55278445D02*
G01*
X186576995Y-55289820D01*
X186611554Y-55308292D01*
X186641847Y-55333153D01*
X186666708Y-55363446D01*
X186685180Y-55398005D01*
X186696555Y-55435501D01*
X186701000Y-55480638D01*
X186701000Y-56119362D01*
X186696555Y-56164499D01*
X186685180Y-56201995D01*
X186666708Y-56236554D01*
X186641847Y-56266847D01*
X186611554Y-56291708D01*
X186576995Y-56310180D01*
X186539499Y-56321555D01*
X186494362Y-56326000D01*
X185755638Y-56326000D01*
X185710501Y-56321555D01*
X185673005Y-56310180D01*
X185638446Y-56291708D01*
X185608153Y-56266847D01*
X185583292Y-56236554D01*
X185564820Y-56201995D01*
X185553445Y-56164499D01*
X185549000Y-56119362D01*
X185549000Y-55480638D01*
X185553445Y-55435501D01*
X185564820Y-55398005D01*
X185583292Y-55363446D01*
X185608153Y-55333153D01*
X185638446Y-55308292D01*
X185673005Y-55289820D01*
X185710501Y-55278445D01*
X185755638Y-55274000D01*
X186494362Y-55274000D01*
X186539499Y-55278445D01*
G37*
G36*
X188289499Y-55278445D02*
G01*
X188326995Y-55289820D01*
X188361554Y-55308292D01*
X188391847Y-55333153D01*
X188416708Y-55363446D01*
X188435180Y-55398005D01*
X188446555Y-55435501D01*
X188451000Y-55480638D01*
X188451000Y-56119362D01*
X188446555Y-56164499D01*
X188435180Y-56201995D01*
X188416708Y-56236554D01*
X188391847Y-56266847D01*
X188361554Y-56291708D01*
X188326995Y-56310180D01*
X188289499Y-56321555D01*
X188244362Y-56326000D01*
X187505638Y-56326000D01*
X187460501Y-56321555D01*
X187423005Y-56310180D01*
X187388446Y-56291708D01*
X187358153Y-56266847D01*
X187333292Y-56236554D01*
X187314820Y-56201995D01*
X187303445Y-56164499D01*
X187299000Y-56119362D01*
X187299000Y-55480638D01*
X187303445Y-55435501D01*
X187314820Y-55398005D01*
X187333292Y-55363446D01*
X187358153Y-55333153D01*
X187388446Y-55308292D01*
X187423005Y-55289820D01*
X187460501Y-55278445D01*
X187505638Y-55274000D01*
X188244362Y-55274000D01*
X188289499Y-55278445D01*
G37*
G36*
X197539499Y-55278445D02*
G01*
X197576995Y-55289820D01*
X197611554Y-55308292D01*
X197641847Y-55333153D01*
X197666708Y-55363446D01*
X197685180Y-55398005D01*
X197696555Y-55435501D01*
X197701000Y-55480638D01*
X197701000Y-56119362D01*
X197696555Y-56164499D01*
X197685180Y-56201995D01*
X197666708Y-56236554D01*
X197641847Y-56266847D01*
X197611554Y-56291708D01*
X197576995Y-56310180D01*
X197539499Y-56321555D01*
X197494362Y-56326000D01*
X196755638Y-56326000D01*
X196710501Y-56321555D01*
X196673005Y-56310180D01*
X196638446Y-56291708D01*
X196608153Y-56266847D01*
X196583292Y-56236554D01*
X196564820Y-56201995D01*
X196553445Y-56164499D01*
X196549000Y-56119362D01*
X196549000Y-55480638D01*
X196553445Y-55435501D01*
X196564820Y-55398005D01*
X196583292Y-55363446D01*
X196608153Y-55333153D01*
X196638446Y-55308292D01*
X196673005Y-55289820D01*
X196710501Y-55278445D01*
X196755638Y-55274000D01*
X197494362Y-55274000D01*
X197539499Y-55278445D01*
G37*
G36*
X199289499Y-55278445D02*
G01*
X199326995Y-55289820D01*
X199361554Y-55308292D01*
X199391847Y-55333153D01*
X199416708Y-55363446D01*
X199435180Y-55398005D01*
X199446555Y-55435501D01*
X199451000Y-55480638D01*
X199451000Y-56119362D01*
X199446555Y-56164499D01*
X199435180Y-56201995D01*
X199416708Y-56236554D01*
X199391847Y-56266847D01*
X199361554Y-56291708D01*
X199326995Y-56310180D01*
X199289499Y-56321555D01*
X199244362Y-56326000D01*
X198505638Y-56326000D01*
X198460501Y-56321555D01*
X198423005Y-56310180D01*
X198388446Y-56291708D01*
X198358153Y-56266847D01*
X198333292Y-56236554D01*
X198314820Y-56201995D01*
X198303445Y-56164499D01*
X198299000Y-56119362D01*
X198299000Y-55480638D01*
X198303445Y-55435501D01*
X198314820Y-55398005D01*
X198333292Y-55363446D01*
X198358153Y-55333153D01*
X198388446Y-55308292D01*
X198423005Y-55289820D01*
X198460501Y-55278445D01*
X198505638Y-55274000D01*
X199244362Y-55274000D01*
X199289499Y-55278445D01*
G37*
G36*
X192039499Y-55278445D02*
G01*
X192076995Y-55289820D01*
X192111554Y-55308292D01*
X192141847Y-55333153D01*
X192166708Y-55363446D01*
X192185180Y-55398005D01*
X192196555Y-55435501D01*
X192201000Y-55480638D01*
X192201000Y-56119362D01*
X192196555Y-56164499D01*
X192185180Y-56201995D01*
X192166708Y-56236554D01*
X192141847Y-56266847D01*
X192111554Y-56291708D01*
X192076995Y-56310180D01*
X192039499Y-56321555D01*
X191994362Y-56326000D01*
X191255638Y-56326000D01*
X191210501Y-56321555D01*
X191173005Y-56310180D01*
X191138446Y-56291708D01*
X191108153Y-56266847D01*
X191083292Y-56236554D01*
X191064820Y-56201995D01*
X191053445Y-56164499D01*
X191049000Y-56119362D01*
X191049000Y-55480638D01*
X191053445Y-55435501D01*
X191064820Y-55398005D01*
X191083292Y-55363446D01*
X191108153Y-55333153D01*
X191138446Y-55308292D01*
X191173005Y-55289820D01*
X191210501Y-55278445D01*
X191255638Y-55274000D01*
X191994362Y-55274000D01*
X192039499Y-55278445D01*
G37*
G36*
X193789499Y-55278445D02*
G01*
X193826995Y-55289820D01*
X193861554Y-55308292D01*
X193891847Y-55333153D01*
X193916708Y-55363446D01*
X193935180Y-55398005D01*
X193946555Y-55435501D01*
X193951000Y-55480638D01*
X193951000Y-56119362D01*
X193946555Y-56164499D01*
X193935180Y-56201995D01*
X193916708Y-56236554D01*
X193891847Y-56266847D01*
X193861554Y-56291708D01*
X193826995Y-56310180D01*
X193789499Y-56321555D01*
X193744362Y-56326000D01*
X193005638Y-56326000D01*
X192960501Y-56321555D01*
X192923005Y-56310180D01*
X192888446Y-56291708D01*
X192858153Y-56266847D01*
X192833292Y-56236554D01*
X192814820Y-56201995D01*
X192803445Y-56164499D01*
X192799000Y-56119362D01*
X192799000Y-55480638D01*
X192803445Y-55435501D01*
X192814820Y-55398005D01*
X192833292Y-55363446D01*
X192858153Y-55333153D01*
X192888446Y-55308292D01*
X192923005Y-55289820D01*
X192960501Y-55278445D01*
X193005638Y-55274000D01*
X193744362Y-55274000D01*
X193789499Y-55278445D01*
G37*
G36*
X201779434Y-54603686D02*
G01*
X201819284Y-54615774D01*
X201855999Y-54635399D01*
X201888186Y-54661814D01*
X201914601Y-54694001D01*
X201934226Y-54730716D01*
X201946314Y-54770566D01*
X201951000Y-54818141D01*
X201951000Y-55481859D01*
X201946314Y-55529434D01*
X201934226Y-55569284D01*
X201914601Y-55605999D01*
X201888186Y-55638186D01*
X201855999Y-55664601D01*
X201819284Y-55684226D01*
X201779434Y-55696314D01*
X201731859Y-55701000D01*
X201068141Y-55701000D01*
X201020566Y-55696314D01*
X200980716Y-55684226D01*
X200944001Y-55664601D01*
X200911814Y-55638186D01*
X200885399Y-55605999D01*
X200865774Y-55569284D01*
X200853686Y-55529434D01*
X200849000Y-55481859D01*
X200849000Y-54818141D01*
X200853686Y-54770566D01*
X200865774Y-54730716D01*
X200885399Y-54694001D01*
X200911814Y-54661814D01*
X200944001Y-54635399D01*
X200980716Y-54615774D01*
X201020566Y-54603686D01*
X201068141Y-54599000D01*
X201731859Y-54599000D01*
X201779434Y-54603686D01*
G37*
M02*
