G04 #@! TF.GenerationSoftware,KiCad,Pcbnew,5.0.2+dfsg1-1*
G04 #@! TF.CreationDate,2020-07-23T21:44:52+02:00*
G04 #@! TF.ProjectId,HDTVii,48445456-6969-42e6-9b69-6361645f7063,rev?*
G04 #@! TF.SameCoordinates,Original*
G04 #@! TF.FileFunction,Legend,Bot*
G04 #@! TF.FilePolarity,Positive*
%FSLAX46Y46*%
G04 Gerber Fmt 4.6, Leading zero omitted, Abs format (unit mm)*
G04 Created by KiCad (PCBNEW 5.0.2+dfsg1-1) date Thu 23 Jul 2020 09:44:52 PM CEST*
%MOMM*%
%LPD*%
G01*
G04 APERTURE LIST*
%ADD10C,0.300000*%
G04 APERTURE END LIST*
D10*
X199392857Y-60678571D02*
X199392857Y-59178571D01*
X199392857Y-59750000D02*
X199250000Y-59678571D01*
X198964285Y-59678571D01*
X198821428Y-59750000D01*
X198750000Y-59821428D01*
X198678571Y-59964285D01*
X198678571Y-60392857D01*
X198750000Y-60535714D01*
X198821428Y-60607142D01*
X198964285Y-60678571D01*
X199250000Y-60678571D01*
X199392857Y-60607142D01*
X198178571Y-59678571D02*
X197821428Y-60678571D01*
X197464285Y-59678571D02*
X197821428Y-60678571D01*
X197964285Y-61035714D01*
X198035714Y-61107142D01*
X198178571Y-61178571D01*
X209714285Y-56378571D02*
X209357142Y-57878571D01*
X209071428Y-56807142D01*
X208785714Y-57878571D01*
X208428571Y-56378571D01*
X207857142Y-57878571D02*
X207857142Y-56878571D01*
X207857142Y-56378571D02*
X207928571Y-56450000D01*
X207857142Y-56521428D01*
X207785714Y-56450000D01*
X207857142Y-56378571D01*
X207857142Y-56521428D01*
X207142857Y-57878571D02*
X207142857Y-56878571D01*
X207142857Y-56378571D02*
X207214285Y-56450000D01*
X207142857Y-56521428D01*
X207071428Y-56450000D01*
X207142857Y-56378571D01*
X207142857Y-56521428D01*
X204428571Y-57735714D02*
X204500000Y-57807142D01*
X204714285Y-57878571D01*
X204857142Y-57878571D01*
X205071428Y-57807142D01*
X205214285Y-57664285D01*
X205285714Y-57521428D01*
X205357142Y-57235714D01*
X205357142Y-57021428D01*
X205285714Y-56735714D01*
X205214285Y-56592857D01*
X205071428Y-56450000D01*
X204857142Y-56378571D01*
X204714285Y-56378571D01*
X204500000Y-56450000D01*
X204428571Y-56521428D01*
X203571428Y-57878571D02*
X203714285Y-57807142D01*
X203785714Y-57735714D01*
X203857142Y-57592857D01*
X203857142Y-57164285D01*
X203785714Y-57021428D01*
X203714285Y-56950000D01*
X203571428Y-56878571D01*
X203357142Y-56878571D01*
X203214285Y-56950000D01*
X203142857Y-57021428D01*
X203071428Y-57164285D01*
X203071428Y-57592857D01*
X203142857Y-57735714D01*
X203214285Y-57807142D01*
X203357142Y-57878571D01*
X203571428Y-57878571D01*
X202428571Y-57878571D02*
X202428571Y-56878571D01*
X202428571Y-57021428D02*
X202357142Y-56950000D01*
X202214285Y-56878571D01*
X202000000Y-56878571D01*
X201857142Y-56950000D01*
X201785714Y-57092857D01*
X201785714Y-57878571D01*
X201785714Y-57092857D02*
X201714285Y-56950000D01*
X201571428Y-56878571D01*
X201357142Y-56878571D01*
X201214285Y-56950000D01*
X201142857Y-57092857D01*
X201142857Y-57878571D01*
X200428571Y-56878571D02*
X200428571Y-58378571D01*
X200428571Y-56950000D02*
X200285714Y-56878571D01*
X200000000Y-56878571D01*
X199857142Y-56950000D01*
X199785714Y-57021428D01*
X199714285Y-57164285D01*
X199714285Y-57592857D01*
X199785714Y-57735714D01*
X199857142Y-57807142D01*
X200000000Y-57878571D01*
X200285714Y-57878571D01*
X200428571Y-57807142D01*
X198857142Y-57878571D02*
X199000000Y-57807142D01*
X199071428Y-57735714D01*
X199142857Y-57592857D01*
X199142857Y-57164285D01*
X199071428Y-57021428D01*
X199000000Y-56950000D01*
X198857142Y-56878571D01*
X198642857Y-56878571D01*
X198500000Y-56950000D01*
X198428571Y-57021428D01*
X198357142Y-57164285D01*
X198357142Y-57592857D01*
X198428571Y-57735714D01*
X198500000Y-57807142D01*
X198642857Y-57878571D01*
X198857142Y-57878571D01*
X197714285Y-56878571D02*
X197714285Y-57878571D01*
X197714285Y-57021428D02*
X197642857Y-56950000D01*
X197500000Y-56878571D01*
X197285714Y-56878571D01*
X197142857Y-56950000D01*
X197071428Y-57092857D01*
X197071428Y-57878571D01*
X195785714Y-57807142D02*
X195928571Y-57878571D01*
X196214285Y-57878571D01*
X196357142Y-57807142D01*
X196428571Y-57664285D01*
X196428571Y-57092857D01*
X196357142Y-56950000D01*
X196214285Y-56878571D01*
X195928571Y-56878571D01*
X195785714Y-56950000D01*
X195714285Y-57092857D01*
X195714285Y-57235714D01*
X196428571Y-57378571D01*
X195071428Y-56878571D02*
X195071428Y-57878571D01*
X195071428Y-57021428D02*
X195000000Y-56950000D01*
X194857142Y-56878571D01*
X194642857Y-56878571D01*
X194500000Y-56950000D01*
X194428571Y-57092857D01*
X194428571Y-57878571D01*
X193928571Y-56878571D02*
X193357142Y-56878571D01*
X193714285Y-56378571D02*
X193714285Y-57664285D01*
X193642857Y-57807142D01*
X193500000Y-57878571D01*
X193357142Y-57878571D01*
X191928571Y-56378571D02*
X191428571Y-57878571D01*
X190928571Y-56378571D01*
X190428571Y-57878571D02*
X190428571Y-56878571D01*
X190428571Y-56378571D02*
X190500000Y-56450000D01*
X190428571Y-56521428D01*
X190357142Y-56450000D01*
X190428571Y-56378571D01*
X190428571Y-56521428D01*
X189071428Y-57878571D02*
X189071428Y-56378571D01*
X189071428Y-57807142D02*
X189214285Y-57878571D01*
X189500000Y-57878571D01*
X189642857Y-57807142D01*
X189714285Y-57735714D01*
X189785714Y-57592857D01*
X189785714Y-57164285D01*
X189714285Y-57021428D01*
X189642857Y-56950000D01*
X189500000Y-56878571D01*
X189214285Y-56878571D01*
X189071428Y-56950000D01*
X187785714Y-57807142D02*
X187928571Y-57878571D01*
X188214285Y-57878571D01*
X188357142Y-57807142D01*
X188428571Y-57664285D01*
X188428571Y-57092857D01*
X188357142Y-56950000D01*
X188214285Y-56878571D01*
X187928571Y-56878571D01*
X187785714Y-56950000D01*
X187714285Y-57092857D01*
X187714285Y-57235714D01*
X188428571Y-57378571D01*
X186857142Y-57878571D02*
X187000000Y-57807142D01*
X187071428Y-57735714D01*
X187142857Y-57592857D01*
X187142857Y-57164285D01*
X187071428Y-57021428D01*
X187000000Y-56950000D01*
X186857142Y-56878571D01*
X186642857Y-56878571D01*
X186500000Y-56950000D01*
X186428571Y-57021428D01*
X186357142Y-57164285D01*
X186357142Y-57592857D01*
X186428571Y-57735714D01*
X186500000Y-57807142D01*
X186642857Y-57878571D01*
X186857142Y-57878571D01*
X204350000Y-62303571D02*
X204350000Y-63375000D01*
X204421428Y-63589285D01*
X204564285Y-63732142D01*
X204778571Y-63803571D01*
X204921428Y-63803571D01*
X203421428Y-63803571D02*
X203564285Y-63732142D01*
X203635714Y-63660714D01*
X203707142Y-63517857D01*
X203707142Y-63089285D01*
X203635714Y-62946428D01*
X203564285Y-62875000D01*
X203421428Y-62803571D01*
X203207142Y-62803571D01*
X203064285Y-62875000D01*
X202992857Y-62946428D01*
X202921428Y-63089285D01*
X202921428Y-63517857D01*
X202992857Y-63660714D01*
X203064285Y-63732142D01*
X203207142Y-63803571D01*
X203421428Y-63803571D01*
X202278571Y-63803571D02*
X202278571Y-62303571D01*
X202278571Y-62875000D02*
X202135714Y-62803571D01*
X201850000Y-62803571D01*
X201707142Y-62875000D01*
X201635714Y-62946428D01*
X201564285Y-63089285D01*
X201564285Y-63517857D01*
X201635714Y-63660714D01*
X201707142Y-63732142D01*
X201850000Y-63803571D01*
X202135714Y-63803571D01*
X202278571Y-63732142D01*
X200992857Y-62803571D02*
X199921428Y-62803571D01*
X200564285Y-62160714D02*
X200992857Y-64089285D01*
X200064285Y-63446428D02*
X201135714Y-63446428D01*
X200492857Y-64089285D02*
X200064285Y-62160714D01*
X199564285Y-62303571D02*
X198635714Y-62303571D01*
X199135714Y-62875000D01*
X198921428Y-62875000D01*
X198778571Y-62946428D01*
X198707142Y-63017857D01*
X198635714Y-63160714D01*
X198635714Y-63517857D01*
X198707142Y-63660714D01*
X198778571Y-63732142D01*
X198921428Y-63803571D01*
X199350000Y-63803571D01*
X199492857Y-63732142D01*
X199564285Y-63660714D01*
X197278571Y-62303571D02*
X197992857Y-62303571D01*
X198064285Y-63017857D01*
X197992857Y-62946428D01*
X197850000Y-62875000D01*
X197492857Y-62875000D01*
X197350000Y-62946428D01*
X197278571Y-63017857D01*
X197207142Y-63160714D01*
X197207142Y-63517857D01*
X197278571Y-63660714D01*
X197350000Y-63732142D01*
X197492857Y-63803571D01*
X197850000Y-63803571D01*
X197992857Y-63732142D01*
X198064285Y-63660714D01*
X195850000Y-62303571D02*
X196564285Y-62303571D01*
X196635714Y-63017857D01*
X196564285Y-62946428D01*
X196421428Y-62875000D01*
X196064285Y-62875000D01*
X195921428Y-62946428D01*
X195850000Y-63017857D01*
X195778571Y-63160714D01*
X195778571Y-63517857D01*
X195850000Y-63660714D01*
X195921428Y-63732142D01*
X196064285Y-63803571D01*
X196421428Y-63803571D01*
X196564285Y-63732142D01*
X196635714Y-63660714D01*
X194492857Y-62303571D02*
X194778571Y-62303571D01*
X194921428Y-62375000D01*
X194992857Y-62446428D01*
X195135714Y-62660714D01*
X195207142Y-62946428D01*
X195207142Y-63517857D01*
X195135714Y-63660714D01*
X195064285Y-63732142D01*
X194921428Y-63803571D01*
X194635714Y-63803571D01*
X194492857Y-63732142D01*
X194421428Y-63660714D01*
X194350000Y-63517857D01*
X194350000Y-63160714D01*
X194421428Y-63017857D01*
X194492857Y-62946428D01*
X194635714Y-62875000D01*
X194921428Y-62875000D01*
X195064285Y-62946428D01*
X195135714Y-63017857D01*
X195207142Y-63160714D01*
X191350000Y-63803571D02*
X191421428Y-63803571D01*
X191564285Y-63732142D01*
X191778571Y-63517857D01*
X192135714Y-63089285D01*
X192278571Y-62875000D01*
X192350000Y-62660714D01*
X192350000Y-62517857D01*
X192278571Y-62375000D01*
X192135714Y-62303571D01*
X192064285Y-62303571D01*
X191921428Y-62375000D01*
X191850000Y-62517857D01*
X191850000Y-62589285D01*
X191921428Y-62732142D01*
X191992857Y-62803571D01*
X192421428Y-63089285D01*
X192492857Y-63160714D01*
X192564285Y-63303571D01*
X192564285Y-63517857D01*
X192492857Y-63660714D01*
X192421428Y-63732142D01*
X192278571Y-63803571D01*
X192064285Y-63803571D01*
X191921428Y-63732142D01*
X191850000Y-63660714D01*
X191635714Y-63375000D01*
X191564285Y-63160714D01*
X191564285Y-63017857D01*
X208207142Y-66210714D02*
X208278571Y-66282142D01*
X208492857Y-66353571D01*
X208635714Y-66353571D01*
X208850000Y-66282142D01*
X208992857Y-66139285D01*
X209064285Y-65996428D01*
X209135714Y-65710714D01*
X209135714Y-65496428D01*
X209064285Y-65210714D01*
X208992857Y-65067857D01*
X208850000Y-64925000D01*
X208635714Y-64853571D01*
X208492857Y-64853571D01*
X208278571Y-64925000D01*
X208207142Y-64996428D01*
X207350000Y-66353571D02*
X207492857Y-66282142D01*
X207564285Y-66210714D01*
X207635714Y-66067857D01*
X207635714Y-65639285D01*
X207564285Y-65496428D01*
X207492857Y-65425000D01*
X207350000Y-65353571D01*
X207135714Y-65353571D01*
X206992857Y-65425000D01*
X206921428Y-65496428D01*
X206850000Y-65639285D01*
X206850000Y-66067857D01*
X206921428Y-66210714D01*
X206992857Y-66282142D01*
X207135714Y-66353571D01*
X207350000Y-66353571D01*
X206207142Y-66353571D02*
X206207142Y-65353571D01*
X206207142Y-65496428D02*
X206135714Y-65425000D01*
X205992857Y-65353571D01*
X205778571Y-65353571D01*
X205635714Y-65425000D01*
X205564285Y-65567857D01*
X205564285Y-66353571D01*
X205564285Y-65567857D02*
X205492857Y-65425000D01*
X205350000Y-65353571D01*
X205135714Y-65353571D01*
X204992857Y-65425000D01*
X204921428Y-65567857D01*
X204921428Y-66353571D01*
X204207142Y-66353571D02*
X204207142Y-65353571D01*
X204207142Y-65496428D02*
X204135714Y-65425000D01*
X203992857Y-65353571D01*
X203778571Y-65353571D01*
X203635714Y-65425000D01*
X203564285Y-65567857D01*
X203564285Y-66353571D01*
X203564285Y-65567857D02*
X203492857Y-65425000D01*
X203350000Y-65353571D01*
X203135714Y-65353571D01*
X202992857Y-65425000D01*
X202921428Y-65567857D01*
X202921428Y-66353571D01*
X201564285Y-66353571D02*
X201564285Y-65567857D01*
X201635714Y-65425000D01*
X201778571Y-65353571D01*
X202064285Y-65353571D01*
X202207142Y-65425000D01*
X201564285Y-66282142D02*
X201707142Y-66353571D01*
X202064285Y-66353571D01*
X202207142Y-66282142D01*
X202278571Y-66139285D01*
X202278571Y-65996428D01*
X202207142Y-65853571D01*
X202064285Y-65782142D01*
X201707142Y-65782142D01*
X201564285Y-65710714D01*
X200850000Y-65353571D02*
X200850000Y-66353571D01*
X200850000Y-65496428D02*
X200778571Y-65425000D01*
X200635714Y-65353571D01*
X200421428Y-65353571D01*
X200278571Y-65425000D01*
X200207142Y-65567857D01*
X200207142Y-66353571D01*
X198850000Y-66353571D02*
X198850000Y-64853571D01*
X198850000Y-66282142D02*
X198992857Y-66353571D01*
X199278571Y-66353571D01*
X199421428Y-66282142D01*
X199492857Y-66210714D01*
X199564285Y-66067857D01*
X199564285Y-65639285D01*
X199492857Y-65496428D01*
X199421428Y-65425000D01*
X199278571Y-65353571D01*
X198992857Y-65353571D01*
X198850000Y-65425000D01*
X198135714Y-66353571D02*
X198135714Y-64853571D01*
X198135714Y-65425000D02*
X197992857Y-65353571D01*
X197707142Y-65353571D01*
X197564285Y-65425000D01*
X197492857Y-65496428D01*
X197421428Y-65639285D01*
X197421428Y-66067857D01*
X197492857Y-66210714D01*
X197564285Y-66282142D01*
X197707142Y-66353571D01*
X197992857Y-66353571D01*
X198135714Y-66282142D01*
X196564285Y-66353571D02*
X196707142Y-66282142D01*
X196778571Y-66139285D01*
X196778571Y-64853571D01*
X195778571Y-66353571D02*
X195921428Y-66282142D01*
X195992857Y-66210714D01*
X196064285Y-66067857D01*
X196064285Y-65639285D01*
X195992857Y-65496428D01*
X195921428Y-65425000D01*
X195778571Y-65353571D01*
X195564285Y-65353571D01*
X195421428Y-65425000D01*
X195350000Y-65496428D01*
X195278571Y-65639285D01*
X195278571Y-66067857D01*
X195350000Y-66210714D01*
X195421428Y-66282142D01*
X195564285Y-66353571D01*
X195778571Y-66353571D01*
X193992857Y-66282142D02*
X194135714Y-66353571D01*
X194421428Y-66353571D01*
X194564285Y-66282142D01*
X194635714Y-66210714D01*
X194707142Y-66067857D01*
X194707142Y-65639285D01*
X194635714Y-65496428D01*
X194564285Y-65425000D01*
X194421428Y-65353571D01*
X194135714Y-65353571D01*
X193992857Y-65425000D01*
X193350000Y-66353571D02*
X193350000Y-64853571D01*
X193207142Y-65782142D02*
X192778571Y-66353571D01*
X192778571Y-65353571D02*
X193350000Y-65925000D01*
X191492857Y-64853571D02*
X191778571Y-64853571D01*
X191921428Y-64925000D01*
X191992857Y-64996428D01*
X192135714Y-65210714D01*
X192207142Y-65496428D01*
X192207142Y-66067857D01*
X192135714Y-66210714D01*
X192064285Y-66282142D01*
X191921428Y-66353571D01*
X191635714Y-66353571D01*
X191492857Y-66282142D01*
X191421428Y-66210714D01*
X191350000Y-66067857D01*
X191350000Y-65710714D01*
X191421428Y-65567857D01*
X191492857Y-65496428D01*
X191635714Y-65425000D01*
X191921428Y-65425000D01*
X192064285Y-65496428D01*
X192135714Y-65567857D01*
X192207142Y-65710714D01*
X190064285Y-65353571D02*
X190064285Y-66353571D01*
X190421428Y-64782142D02*
X190778571Y-65853571D01*
X189850000Y-65853571D01*
X188492857Y-66353571D02*
X189350000Y-66353571D01*
X188921428Y-66353571D02*
X188921428Y-64853571D01*
X189064285Y-65067857D01*
X189207142Y-65210714D01*
X189350000Y-65282142D01*
X187992857Y-64853571D02*
X186992857Y-64853571D01*
X187635714Y-66353571D01*
M02*
