<?xml version="1.0" standalone="no"?>
 <!DOCTYPE svg PUBLIC "-//W3C//DTD SVG 1.1//EN" 
 "http://www.w3.org/Graphics/SVG/1.1/DTD/svg11.dtd"> 
<svg xmlns="http://www.w3.org/2000/svg" version="1.1" 
    width="29.7002cm" height="21.0007cm" viewBox="0 0 116930 82680 ">
<title>SVG Picture created as miniRGBii-B_SilkS.svg date 2020/08/28 11:12:33 </title>
  <desc>Picture generated by PCBNEW </desc>
<g style="fill:#000000; fill-opacity:1;stroke:#000000; stroke-opacity:1;
stroke-linecap:round; stroke-linejoin:round; "
 transform="translate(0 0) scale(1 1)">
</g>
<g style="fill:#000000; fill-opacity:0.0; 
stroke:#000000; stroke-width:-0.000393701; stroke-opacity:1; 
stroke-linecap:round; stroke-linejoin:round;">
</g>
<g style="fill:#000000; fill-opacity:0.0; 
stroke:#000000; stroke-width:59.0551; stroke-opacity:1; 
stroke-linecap:round; stroke-linejoin:round;">
<text x="83750" y="25872"
textLength="-8695.35" font-size="-524.934" lengthAdjust="spacingAndGlyphs"
text-anchor="start" opacity="0">consolebytes.com/index.php/</text>
<path d="M83449 25834
L83486 25853
L83561 25853
L83599 25834
L83617 25815
L83636 25778
L83636 25665
L83617 25628
L83599 25609
L83561 25590
L83486 25590
L83449 25609
" />
<path d="M83224 25853
L83261 25834
L83280 25815
L83299 25778
L83299 25665
L83280 25628
L83261 25609
L83224 25590
L83167 25590
L83130 25609
L83111 25628
L83092 25665
L83092 25778
L83111 25815
L83130 25834
L83167 25853
L83224 25853
" />
<path d="M82924 25590
L82924 25853
" />
<path d="M82924 25628
L82905 25609
L82867 25590
L82811 25590
L82774 25609
L82755 25647
L82755 25853
" />
<path d="M82586 25834
L82549 25853
L82474 25853
L82436 25834
L82418 25797
L82418 25778
L82436 25740
L82474 25722
L82530 25722
L82568 25703
L82586 25665
L82586 25647
L82568 25609
L82530 25590
L82474 25590
L82436 25609
" />
<path d="M82193 25853
L82230 25834
L82249 25815
L82268 25778
L82268 25665
L82249 25628
L82230 25609
L82193 25590
L82136 25590
L82099 25609
L82080 25628
L82061 25665
L82061 25778
L82080 25815
L82099 25834
L82136 25853
L82193 25853
" />
<path d="M81836 25853
L81874 25834
L81893 25797
L81893 25459
" />
<path d="M81536 25834
L81574 25853
L81649 25853
L81686 25834
L81705 25797
L81705 25647
L81686 25609
L81649 25590
L81574 25590
L81536 25609
L81518 25647
L81518 25684
L81705 25722
" />
<path d="M81349 25853
L81349 25459
" />
<path d="M81349 25609
L81311 25590
L81236 25590
L81199 25609
L81180 25628
L81161 25665
L81161 25778
L81180 25815
L81199 25834
L81236 25853
L81311 25853
L81349 25834
" />
<path d="M81030 25590
L80936 25853
" />
<path d="M80843 25590
L80936 25853
L80974 25947
L80993 25965
L81030 25984
" />
<path d="M80749 25590
L80599 25590
" />
<path d="M80693 25459
L80693 25797
L80674 25834
L80636 25853
L80599 25853
" />
<path d="M80318 25834
L80355 25853
L80430 25853
L80468 25834
L80487 25797
L80487 25647
L80468 25609
L80430 25590
L80355 25590
L80318 25609
L80299 25647
L80299 25684
L80487 25722
" />
<path d="M80149 25834
L80112 25853
L80037 25853
L79999 25834
L79980 25797
L79980 25778
L79999 25740
L80037 25722
L80093 25722
L80130 25703
L80149 25665
L80149 25647
L80130 25609
L80093 25590
L80037 25590
L79999 25609
" />
<path d="M79812 25815
L79793 25834
L79812 25853
L79830 25834
L79812 25815
L79812 25853
" />
<path d="M79455 25834
L79493 25853
L79568 25853
L79605 25834
L79624 25815
L79643 25778
L79643 25665
L79624 25628
L79605 25609
L79568 25590
L79493 25590
L79455 25609
" />
<path d="M79230 25853
L79268 25834
L79287 25815
L79305 25778
L79305 25665
L79287 25628
L79268 25609
L79230 25590
L79174 25590
L79137 25609
L79118 25628
L79099 25665
L79099 25778
L79118 25815
L79137 25834
L79174 25853
L79230 25853
" />
<path d="M78930 25853
L78930 25590
" />
<path d="M78930 25628
L78912 25609
L78874 25590
L78818 25590
L78780 25609
L78762 25647
L78762 25853
" />
<path d="M78762 25647
L78743 25609
L78705 25590
L78649 25590
L78612 25609
L78593 25647
L78593 25853
" />
<path d="M78124 25440
L78462 25947
" />
<path d="M77993 25853
L77993 25590
" />
<path d="M77993 25459
L78012 25478
L77993 25497
L77974 25478
L77993 25459
L77993 25497
" />
<path d="M77806 25590
L77806 25853
" />
<path d="M77806 25628
L77787 25609
L77749 25590
L77693 25590
L77656 25609
L77637 25647
L77637 25853
" />
<path d="M77281 25853
L77281 25459
" />
<path d="M77281 25834
L77318 25853
L77393 25853
L77431 25834
L77449 25815
L77468 25778
L77468 25665
L77449 25628
L77431 25609
L77393 25590
L77318 25590
L77281 25609
" />
<path d="M76943 25834
L76981 25853
L77056 25853
L77093 25834
L77112 25797
L77112 25647
L77093 25609
L77056 25590
L76981 25590
L76943 25609
L76924 25647
L76924 25684
L77112 25722
" />
<path d="M76793 25853
L76587 25590
" />
<path d="M76793 25590
L76587 25853
" />
<path d="M76437 25815
L76418 25834
L76437 25853
L76456 25834
L76437 25815
L76437 25853
" />
<path d="M76250 25590
L76250 25984
" />
<path d="M76250 25609
L76212 25590
L76137 25590
L76100 25609
L76081 25628
L76062 25665
L76062 25778
L76081 25815
L76100 25834
L76137 25853
L76212 25853
L76250 25834
" />
<path d="M75893 25853
L75893 25459
" />
<path d="M75725 25853
L75725 25647
L75743 25609
L75781 25590
L75837 25590
L75875 25609
L75893 25628
" />
<path d="M75537 25590
L75537 25984
" />
<path d="M75537 25609
L75500 25590
L75425 25590
L75387 25609
L75368 25628
L75350 25665
L75350 25778
L75368 25815
L75387 25834
L75425 25853
L75500 25853
L75537 25834
" />
<path d="M74900 25440
L75237 25947
" />
<text x="83750" y="26521.7"
textLength="-6878.61" font-size="-524.934" lengthAdjust="spacingAndGlyphs"
text-anchor="start" opacity="0">community/postid/37/</text>
<path d="M83449 26484
L83486 26502
L83561 26502
L83599 26484
L83617 26465
L83636 26427
L83636 26315
L83617 26277
L83599 26259
L83561 26240
L83486 26240
L83449 26259
" />
<path d="M83224 26502
L83261 26484
L83280 26465
L83299 26427
L83299 26315
L83280 26277
L83261 26259
L83224 26240
L83167 26240
L83130 26259
L83111 26277
L83092 26315
L83092 26427
L83111 26465
L83130 26484
L83167 26502
L83224 26502
" />
<path d="M82924 26502
L82924 26240
" />
<path d="M82924 26277
L82905 26259
L82867 26240
L82811 26240
L82774 26259
L82755 26296
L82755 26502
" />
<path d="M82755 26296
L82736 26259
L82699 26240
L82642 26240
L82605 26259
L82586 26296
L82586 26502
" />
<path d="M82399 26502
L82399 26240
" />
<path d="M82399 26277
L82380 26259
L82343 26240
L82286 26240
L82249 26259
L82230 26296
L82230 26502
" />
<path d="M82230 26296
L82211 26259
L82174 26240
L82118 26240
L82080 26259
L82061 26296
L82061 26502
" />
<path d="M81705 26240
L81705 26502
" />
<path d="M81874 26240
L81874 26446
L81855 26484
L81818 26502
L81761 26502
L81724 26484
L81705 26465
" />
<path d="M81518 26240
L81518 26502
" />
<path d="M81518 26277
L81499 26259
L81461 26240
L81405 26240
L81368 26259
L81349 26296
L81349 26502
" />
<path d="M81161 26502
L81161 26240
" />
<path d="M81161 26109
L81180 26127
L81161 26146
L81143 26127
L81161 26109
L81161 26146
" />
<path d="M81030 26240
L80880 26240
" />
<path d="M80974 26109
L80974 26446
L80955 26484
L80918 26502
L80880 26502
" />
<path d="M80786 26240
L80693 26502
" />
<path d="M80599 26240
L80693 26502
L80730 26596
L80749 26615
L80786 26634
" />
<path d="M80168 26090
L80505 26596
" />
<path d="M80037 26240
L80037 26634
" />
<path d="M80037 26259
L79999 26240
L79924 26240
L79887 26259
L79868 26277
L79849 26315
L79849 26427
L79868 26465
L79887 26484
L79924 26502
L79999 26502
L80037 26484
" />
<path d="M79624 26502
L79662 26484
L79680 26465
L79699 26427
L79699 26315
L79680 26277
L79662 26259
L79624 26240
L79568 26240
L79530 26259
L79512 26277
L79493 26315
L79493 26427
L79512 26465
L79530 26484
L79568 26502
L79624 26502
" />
<path d="M79343 26484
L79305 26502
L79230 26502
L79193 26484
L79174 26446
L79174 26427
L79193 26390
L79230 26371
L79287 26371
L79324 26352
L79343 26315
L79343 26296
L79324 26259
L79287 26240
L79230 26240
L79193 26259
" />
<path d="M79062 26240
L78912 26240
" />
<path d="M79005 26109
L79005 26446
L78987 26484
L78949 26502
L78912 26502
" />
<path d="M78780 26502
L78780 26240
" />
<path d="M78780 26109
L78799 26127
L78780 26146
L78762 26127
L78780 26109
L78780 26146
" />
<path d="M78424 26502
L78424 26109
" />
<path d="M78424 26484
L78462 26502
L78537 26502
L78574 26484
L78593 26465
L78612 26427
L78612 26315
L78593 26277
L78574 26259
L78537 26240
L78462 26240
L78424 26259
" />
<path d="M77956 26090
L78293 26596
" />
<path d="M77862 26109
L77618 26109
L77749 26259
L77693 26259
L77656 26277
L77637 26296
L77618 26334
L77618 26427
L77637 26465
L77656 26484
L77693 26502
L77806 26502
L77843 26484
L77862 26465
" />
<path d="M77487 26109
L77224 26109
L77393 26502
" />
<path d="M76793 26090
L77131 26596
" />
</g>
<g style="fill:#000000; fill-opacity:0.0; 
stroke:#000000; stroke-width:118.11; stroke-opacity:1; 
stroke-linecap:round; stroke-linejoin:round;">
<text x="81500" y="22295.3"
textLength="-4141.45" font-size="-787.402" lengthAdjust="spacingAndGlyphs"
text-anchor="middle" opacity="0">miniRGBii</text>
<path d="M83468 22267
L83468 21873
" />
<path d="M83468 21929
L83440 21901
L83384 21873
L83299 21873
L83243 21901
L83215 21957
L83215 22267
" />
<path d="M83215 21957
L83187 21901
L83131 21873
L83046 21873
L82990 21901
L82962 21957
L82962 22267
" />
<path d="M82681 22267
L82681 21873
" />
<path d="M82681 21676
L82709 21704
L82681 21732
L82652 21704
L82681 21676
L82681 21732
" />
<path d="M82399 21873
L82399 22267
" />
<path d="M82399 21929
L82371 21901
L82315 21873
L82231 21873
L82174 21901
L82146 21957
L82146 22267
" />
<path d="M81865 22267
L81865 21873
" />
<path d="M81865 21676
L81893 21704
L81865 21732
L81837 21704
L81865 21676
L81865 21732
" />
<path d="M81246 22267
L81443 21985
" />
<path d="M81584 22267
L81584 21676
L81359 21676
L81303 21704
L81275 21732
L81246 21789
L81246 21873
L81275 21929
L81303 21957
L81359 21985
L81584 21985
" />
<path d="M80684 21704
L80740 21676
L80825 21676
L80909 21704
L80965 21760
L80993 21817
L81021 21929
L81021 22014
L80993 22126
L80965 22182
L80909 22239
L80825 22267
L80768 22267
L80684 22239
L80656 22210
L80656 22014
L80768 22014
" />
<path d="M80206 21957
L80122 21985
L80093 22014
L80065 22070
L80065 22154
L80093 22210
L80122 22239
L80178 22267
L80403 22267
L80403 21676
L80206 21676
L80150 21704
L80122 21732
L80093 21789
L80093 21845
L80122 21901
L80150 21929
L80206 21957
L80403 21957
" />
<path d="M79812 22267
L79812 21873
" />
<path d="M79812 21676
L79840 21704
L79812 21732
L79784 21704
L79812 21676
L79812 21732
" />
<path d="M79531 22267
L79531 21873
" />
<path d="M79531 21676
L79559 21704
L79531 21732
L79503 21704
L79531 21676
L79531 21732
" />
<text x="83750" y="23793.3"
textLength="-6820.59" font-size="-787.402" lengthAdjust="spacingAndGlyphs"
text-anchor="start" opacity="0">by Job#3556 &amp;</text>
<path d="M83532 23765
L83532 23174
" />
<path d="M83532 23399
L83476 23371
L83363 23371
L83307 23399
L83279 23427
L83251 23483
L83251 23652
L83279 23708
L83307 23737
L83363 23765
L83476 23765
L83532 23737
" />
<path d="M83054 23371
L82913 23765
" />
<path d="M82773 23371
L82913 23765
L82970 23905
L82998 23933
L83054 23962
" />
<path d="M81929 23174
L81929 23596
L81957 23680
L82014 23737
L82098 23765
L82154 23765
" />
<path d="M81564 23765
L81620 23737
L81648 23708
L81676 23652
L81676 23483
L81648 23427
L81620 23399
L81564 23371
L81479 23371
L81423 23399
L81395 23427
L81367 23483
L81367 23652
L81395 23708
L81423 23737
L81479 23765
L81564 23765
" />
<path d="M81114 23765
L81114 23174
" />
<path d="M81114 23399
L81057 23371
L80945 23371
L80889 23399
L80861 23427
L80832 23483
L80832 23652
L80861 23708
L80889 23737
L80945 23765
L81057 23765
L81114 23737
" />
<path d="M80607 23371
L80186 23371
" />
<path d="M80439 23118
L80607 23877
" />
<path d="M80242 23624
L80664 23624
" />
<path d="M80411 23877
L80242 23118
" />
<path d="M80045 23174
L79679 23174
L79876 23399
L79792 23399
L79736 23427
L79708 23455
L79679 23512
L79679 23652
L79708 23708
L79736 23737
L79792 23765
L79961 23765
L80017 23737
L80045 23708
" />
<path d="M79145 23174
L79426 23174
L79455 23455
L79426 23427
L79370 23399
L79230 23399
L79173 23427
L79145 23455
L79117 23512
L79117 23652
L79145 23708
L79173 23737
L79230 23765
L79370 23765
L79426 23737
L79455 23708
" />
<path d="M78583 23174
L78864 23174
L78892 23455
L78864 23427
L78808 23399
L78667 23399
L78611 23427
L78583 23455
L78555 23512
L78555 23652
L78583 23708
L78611 23737
L78667 23765
L78808 23765
L78864 23737
L78892 23708
" />
<path d="M78048 23174
L78161 23174
L78217 23202
L78245 23230
L78302 23315
L78330 23427
L78330 23652
L78302 23708
L78273 23737
L78217 23765
L78105 23765
L78048 23737
L78020 23708
L77992 23652
L77992 23512
L78020 23455
L78048 23427
L78105 23399
L78217 23399
L78273 23427
L78302 23455
L78330 23512
" />
<path d="M76811 23765
L76839 23765
L76895 23737
L76980 23652
L77120 23483
L77177 23399
L77205 23315
L77205 23258
L77177 23202
L77120 23174
L77092 23174
L77036 23202
L77008 23258
L77008 23287
L77036 23343
L77064 23371
L77233 23483
L77261 23512
L77289 23568
L77289 23652
L77261 23708
L77233 23737
L77177 23765
L77092 23765
L77036 23737
L77008 23708
L76924 23596
L76895 23512
L76895 23455
" />
<text x="83750" y="24797.2"
textLength="-8760.97" font-size="-787.402" lengthAdjust="spacingAndGlyphs"
text-anchor="start" opacity="0">Commandblock6417</text>
<path d="M83195 24712
L83223 24741
L83307 24769
L83363 24769
L83448 24741
L83504 24684
L83532 24628
L83560 24516
L83560 24431
L83532 24319
L83504 24262
L83448 24206
L83363 24178
L83307 24178
L83223 24206
L83195 24234
" />
<path d="M82857 24769
L82913 24741
L82942 24712
L82970 24656
L82970 24487
L82942 24431
L82913 24403
L82857 24375
L82773 24375
L82717 24403
L82688 24431
L82660 24487
L82660 24656
L82688 24712
L82717 24741
L82773 24769
L82857 24769
" />
<path d="M82407 24769
L82407 24375
" />
<path d="M82407 24431
L82379 24403
L82323 24375
L82239 24375
L82182 24403
L82154 24459
L82154 24769
" />
<path d="M82154 24459
L82126 24403
L82070 24375
L81985 24375
L81929 24403
L81901 24459
L81901 24769
" />
<path d="M81620 24769
L81620 24375
" />
<path d="M81620 24431
L81592 24403
L81535 24375
L81451 24375
L81395 24403
L81367 24459
L81367 24769
" />
<path d="M81367 24459
L81339 24403
L81282 24375
L81198 24375
L81142 24403
L81114 24459
L81114 24769
" />
<path d="M80579 24769
L80579 24459
L80607 24403
L80664 24375
L80776 24375
L80832 24403
" />
<path d="M80579 24741
L80636 24769
L80776 24769
L80832 24741
L80861 24684
L80861 24628
L80832 24572
L80776 24544
L80636 24544
L80579 24516
" />
<path d="M80298 24375
L80298 24769
" />
<path d="M80298 24431
L80270 24403
L80214 24375
L80129 24375
L80073 24403
L80045 24459
L80045 24769
" />
<path d="M79511 24769
L79511 24178
" />
<path d="M79511 24741
L79567 24769
L79679 24769
L79736 24741
L79764 24712
L79792 24656
L79792 24487
L79764 24431
L79736 24403
L79679 24375
L79567 24375
L79511 24403
" />
<path d="M79230 24769
L79230 24178
" />
<path d="M79230 24403
L79173 24375
L79061 24375
L79005 24403
L78976 24431
L78948 24487
L78948 24656
L78976 24712
L79005 24741
L79061 24769
L79173 24769
L79230 24741
" />
<path d="M78611 24769
L78667 24741
L78695 24684
L78695 24178
" />
<path d="M78302 24769
L78358 24741
L78386 24712
L78414 24656
L78414 24487
L78386 24431
L78358 24403
L78302 24375
L78217 24375
L78161 24403
L78133 24431
L78105 24487
L78105 24656
L78133 24712
L78161 24741
L78217 24769
L78302 24769
" />
<path d="M77598 24741
L77655 24769
L77767 24769
L77823 24741
L77852 24712
L77880 24656
L77880 24487
L77852 24431
L77823 24403
L77767 24375
L77655 24375
L77598 24403
" />
<path d="M77345 24769
L77345 24178
" />
<path d="M77289 24544
L77120 24769
" />
<path d="M77120 24375
L77345 24600
" />
<path d="M76614 24178
L76727 24178
L76783 24206
L76811 24234
L76867 24319
L76895 24431
L76895 24656
L76867 24712
L76839 24741
L76783 24769
L76670 24769
L76614 24741
L76586 24712
L76558 24656
L76558 24516
L76586 24459
L76614 24431
L76670 24403
L76783 24403
L76839 24431
L76867 24459
L76895 24516
" />
<path d="M76052 24375
L76052 24769
" />
<path d="M76192 24150
L76333 24572
L75967 24572
" />
<path d="M75433 24769
L75771 24769
" />
<path d="M75602 24769
L75602 24178
L75658 24262
L75714 24319
L75771 24347
" />
<path d="M75236 24178
L74843 24178
L75096 24769
" />
<g >
</g>
</g> 
</svg>
