G04 #@! TF.GenerationSoftware,KiCad,Pcbnew,(5.1.5-0-10_14)*
G04 #@! TF.CreationDate,2020-08-30T17:59:42+03:00*
G04 #@! TF.ProjectId,miniRGBii,6d696e69-5247-4426-9969-2e6b69636164,rev?*
G04 #@! TF.SameCoordinates,Original*
G04 #@! TF.FileFunction,Legend,Bot*
G04 #@! TF.FilePolarity,Positive*
%FSLAX46Y46*%
G04 Gerber Fmt 4.6, Leading zero omitted, Abs format (unit mm)*
G04 Created by KiCad (PCBNEW (5.1.5-0-10_14)) date 2020-08-30 17:59:42*
%MOMM*%
%LPD*%
G04 APERTURE LIST*
%ADD10C,0.150000*%
%ADD11C,0.300000*%
G04 APERTURE END LIST*
D10*
X211635833Y-67004761D02*
X211731071Y-67052380D01*
X211921547Y-67052380D01*
X212016785Y-67004761D01*
X212064404Y-66957142D01*
X212112023Y-66861904D01*
X212112023Y-66576190D01*
X212064404Y-66480952D01*
X212016785Y-66433333D01*
X211921547Y-66385714D01*
X211731071Y-66385714D01*
X211635833Y-66433333D01*
X211064404Y-67052380D02*
X211159642Y-67004761D01*
X211207261Y-66957142D01*
X211254880Y-66861904D01*
X211254880Y-66576190D01*
X211207261Y-66480952D01*
X211159642Y-66433333D01*
X211064404Y-66385714D01*
X210921547Y-66385714D01*
X210826309Y-66433333D01*
X210778690Y-66480952D01*
X210731071Y-66576190D01*
X210731071Y-66861904D01*
X210778690Y-66957142D01*
X210826309Y-67004761D01*
X210921547Y-67052380D01*
X211064404Y-67052380D01*
X210302500Y-66385714D02*
X210302500Y-67052380D01*
X210302500Y-66480952D02*
X210254880Y-66433333D01*
X210159642Y-66385714D01*
X210016785Y-66385714D01*
X209921547Y-66433333D01*
X209873928Y-66528571D01*
X209873928Y-67052380D01*
X209445357Y-67004761D02*
X209350119Y-67052380D01*
X209159642Y-67052380D01*
X209064404Y-67004761D01*
X209016785Y-66909523D01*
X209016785Y-66861904D01*
X209064404Y-66766666D01*
X209159642Y-66719047D01*
X209302500Y-66719047D01*
X209397738Y-66671428D01*
X209445357Y-66576190D01*
X209445357Y-66528571D01*
X209397738Y-66433333D01*
X209302500Y-66385714D01*
X209159642Y-66385714D01*
X209064404Y-66433333D01*
X208445357Y-67052380D02*
X208540595Y-67004761D01*
X208588214Y-66957142D01*
X208635833Y-66861904D01*
X208635833Y-66576190D01*
X208588214Y-66480952D01*
X208540595Y-66433333D01*
X208445357Y-66385714D01*
X208302500Y-66385714D01*
X208207261Y-66433333D01*
X208159642Y-66480952D01*
X208112023Y-66576190D01*
X208112023Y-66861904D01*
X208159642Y-66957142D01*
X208207261Y-67004761D01*
X208302500Y-67052380D01*
X208445357Y-67052380D01*
X207540595Y-67052380D02*
X207635833Y-67004761D01*
X207683452Y-66909523D01*
X207683452Y-66052380D01*
X206778690Y-67004761D02*
X206873928Y-67052380D01*
X207064404Y-67052380D01*
X207159642Y-67004761D01*
X207207261Y-66909523D01*
X207207261Y-66528571D01*
X207159642Y-66433333D01*
X207064404Y-66385714D01*
X206873928Y-66385714D01*
X206778690Y-66433333D01*
X206731071Y-66528571D01*
X206731071Y-66623809D01*
X207207261Y-66719047D01*
X206302500Y-67052380D02*
X206302500Y-66052380D01*
X206302500Y-66433333D02*
X206207261Y-66385714D01*
X206016785Y-66385714D01*
X205921547Y-66433333D01*
X205873928Y-66480952D01*
X205826309Y-66576190D01*
X205826309Y-66861904D01*
X205873928Y-66957142D01*
X205921547Y-67004761D01*
X206016785Y-67052380D01*
X206207261Y-67052380D01*
X206302500Y-67004761D01*
X205492976Y-66385714D02*
X205254880Y-67052380D01*
X205016785Y-66385714D02*
X205254880Y-67052380D01*
X205350119Y-67290476D01*
X205397738Y-67338095D01*
X205492976Y-67385714D01*
X204778690Y-66385714D02*
X204397738Y-66385714D01*
X204635833Y-66052380D02*
X204635833Y-66909523D01*
X204588214Y-67004761D01*
X204492976Y-67052380D01*
X204397738Y-67052380D01*
X203683452Y-67004761D02*
X203778690Y-67052380D01*
X203969166Y-67052380D01*
X204064404Y-67004761D01*
X204112023Y-66909523D01*
X204112023Y-66528571D01*
X204064404Y-66433333D01*
X203969166Y-66385714D01*
X203778690Y-66385714D01*
X203683452Y-66433333D01*
X203635833Y-66528571D01*
X203635833Y-66623809D01*
X204112023Y-66719047D01*
X203254880Y-67004761D02*
X203159642Y-67052380D01*
X202969166Y-67052380D01*
X202873928Y-67004761D01*
X202826309Y-66909523D01*
X202826309Y-66861904D01*
X202873928Y-66766666D01*
X202969166Y-66719047D01*
X203112023Y-66719047D01*
X203207261Y-66671428D01*
X203254880Y-66576190D01*
X203254880Y-66528571D01*
X203207261Y-66433333D01*
X203112023Y-66385714D01*
X202969166Y-66385714D01*
X202873928Y-66433333D01*
X202397738Y-66957142D02*
X202350119Y-67004761D01*
X202397738Y-67052380D01*
X202445357Y-67004761D01*
X202397738Y-66957142D01*
X202397738Y-67052380D01*
X201492976Y-67004761D02*
X201588214Y-67052380D01*
X201778690Y-67052380D01*
X201873928Y-67004761D01*
X201921547Y-66957142D01*
X201969166Y-66861904D01*
X201969166Y-66576190D01*
X201921547Y-66480952D01*
X201873928Y-66433333D01*
X201778690Y-66385714D01*
X201588214Y-66385714D01*
X201492976Y-66433333D01*
X200921547Y-67052380D02*
X201016785Y-67004761D01*
X201064404Y-66957142D01*
X201112023Y-66861904D01*
X201112023Y-66576190D01*
X201064404Y-66480952D01*
X201016785Y-66433333D01*
X200921547Y-66385714D01*
X200778690Y-66385714D01*
X200683452Y-66433333D01*
X200635833Y-66480952D01*
X200588214Y-66576190D01*
X200588214Y-66861904D01*
X200635833Y-66957142D01*
X200683452Y-67004761D01*
X200778690Y-67052380D01*
X200921547Y-67052380D01*
X200159642Y-67052380D02*
X200159642Y-66385714D01*
X200159642Y-66480952D02*
X200112023Y-66433333D01*
X200016785Y-66385714D01*
X199873928Y-66385714D01*
X199778690Y-66433333D01*
X199731071Y-66528571D01*
X199731071Y-67052380D01*
X199731071Y-66528571D02*
X199683452Y-66433333D01*
X199588214Y-66385714D01*
X199445357Y-66385714D01*
X199350119Y-66433333D01*
X199302500Y-66528571D01*
X199302500Y-67052380D01*
X198112023Y-66004761D02*
X198969166Y-67290476D01*
X197778690Y-67052380D02*
X197778690Y-66385714D01*
X197778690Y-66480952D02*
X197731071Y-66433333D01*
X197635833Y-66385714D01*
X197492976Y-66385714D01*
X197397738Y-66433333D01*
X197350119Y-66528571D01*
X197350119Y-67052380D01*
X197350119Y-66528571D02*
X197302500Y-66433333D01*
X197207261Y-66385714D01*
X197064404Y-66385714D01*
X196969166Y-66433333D01*
X196921547Y-66528571D01*
X196921547Y-67052380D01*
X196445357Y-67052380D02*
X196445357Y-66385714D01*
X196445357Y-66052380D02*
X196492976Y-66100000D01*
X196445357Y-66147619D01*
X196397738Y-66100000D01*
X196445357Y-66052380D01*
X196445357Y-66147619D01*
X195969166Y-66385714D02*
X195969166Y-67052380D01*
X195969166Y-66480952D02*
X195921547Y-66433333D01*
X195826309Y-66385714D01*
X195683452Y-66385714D01*
X195588214Y-66433333D01*
X195540595Y-66528571D01*
X195540595Y-67052380D01*
X195064404Y-67052380D02*
X195064404Y-66385714D01*
X195064404Y-66052380D02*
X195112023Y-66100000D01*
X195064404Y-66147619D01*
X195016785Y-66100000D01*
X195064404Y-66052380D01*
X195064404Y-66147619D01*
X194588214Y-67052380D02*
X194588214Y-66385714D01*
X194588214Y-66576190D02*
X194540595Y-66480952D01*
X194492976Y-66433333D01*
X194397738Y-66385714D01*
X194302500Y-66385714D01*
X193540595Y-66385714D02*
X193540595Y-67195238D01*
X193588214Y-67290476D01*
X193635833Y-67338095D01*
X193731071Y-67385714D01*
X193873928Y-67385714D01*
X193969166Y-67338095D01*
X193540595Y-67004761D02*
X193635833Y-67052380D01*
X193826309Y-67052380D01*
X193921547Y-67004761D01*
X193969166Y-66957142D01*
X194016785Y-66861904D01*
X194016785Y-66576190D01*
X193969166Y-66480952D01*
X193921547Y-66433333D01*
X193826309Y-66385714D01*
X193635833Y-66385714D01*
X193540595Y-66433333D01*
X193064404Y-67052380D02*
X193064404Y-66052380D01*
X193064404Y-66433333D02*
X192969166Y-66385714D01*
X192778690Y-66385714D01*
X192683452Y-66433333D01*
X192635833Y-66480952D01*
X192588214Y-66576190D01*
X192588214Y-66861904D01*
X192635833Y-66957142D01*
X192683452Y-67004761D01*
X192778690Y-67052380D01*
X192969166Y-67052380D01*
X193064404Y-67004761D01*
X192159642Y-67052380D02*
X192159642Y-66385714D01*
X192159642Y-66052380D02*
X192207261Y-66100000D01*
X192159642Y-66147619D01*
X192112023Y-66100000D01*
X192159642Y-66052380D01*
X192159642Y-66147619D01*
X191683452Y-67052380D02*
X191683452Y-66385714D01*
X191683452Y-66052380D02*
X191731071Y-66100000D01*
X191683452Y-66147619D01*
X191635833Y-66100000D01*
X191683452Y-66052380D01*
X191683452Y-66147619D01*
D11*
X212010000Y-56558571D02*
X212010000Y-55558571D01*
X212010000Y-55701428D02*
X211938571Y-55630000D01*
X211795714Y-55558571D01*
X211581428Y-55558571D01*
X211438571Y-55630000D01*
X211367142Y-55772857D01*
X211367142Y-56558571D01*
X211367142Y-55772857D02*
X211295714Y-55630000D01*
X211152857Y-55558571D01*
X210938571Y-55558571D01*
X210795714Y-55630000D01*
X210724285Y-55772857D01*
X210724285Y-56558571D01*
X210010000Y-56558571D02*
X210010000Y-55558571D01*
X210010000Y-55058571D02*
X210081428Y-55130000D01*
X210010000Y-55201428D01*
X209938571Y-55130000D01*
X210010000Y-55058571D01*
X210010000Y-55201428D01*
X209295714Y-55558571D02*
X209295714Y-56558571D01*
X209295714Y-55701428D02*
X209224285Y-55630000D01*
X209081428Y-55558571D01*
X208867142Y-55558571D01*
X208724285Y-55630000D01*
X208652857Y-55772857D01*
X208652857Y-56558571D01*
X207938571Y-56558571D02*
X207938571Y-55558571D01*
X207938571Y-55058571D02*
X208010000Y-55130000D01*
X207938571Y-55201428D01*
X207867142Y-55130000D01*
X207938571Y-55058571D01*
X207938571Y-55201428D01*
X206367142Y-56558571D02*
X206867142Y-55844285D01*
X207224285Y-56558571D02*
X207224285Y-55058571D01*
X206652857Y-55058571D01*
X206510000Y-55130000D01*
X206438571Y-55201428D01*
X206367142Y-55344285D01*
X206367142Y-55558571D01*
X206438571Y-55701428D01*
X206510000Y-55772857D01*
X206652857Y-55844285D01*
X207224285Y-55844285D01*
X204938571Y-55130000D02*
X205081428Y-55058571D01*
X205295714Y-55058571D01*
X205510000Y-55130000D01*
X205652857Y-55272857D01*
X205724285Y-55415714D01*
X205795714Y-55701428D01*
X205795714Y-55915714D01*
X205724285Y-56201428D01*
X205652857Y-56344285D01*
X205510000Y-56487142D01*
X205295714Y-56558571D01*
X205152857Y-56558571D01*
X204938571Y-56487142D01*
X204867142Y-56415714D01*
X204867142Y-55915714D01*
X205152857Y-55915714D01*
X203724285Y-55772857D02*
X203510000Y-55844285D01*
X203438571Y-55915714D01*
X203367142Y-56058571D01*
X203367142Y-56272857D01*
X203438571Y-56415714D01*
X203510000Y-56487142D01*
X203652857Y-56558571D01*
X204224285Y-56558571D01*
X204224285Y-55058571D01*
X203724285Y-55058571D01*
X203581428Y-55130000D01*
X203510000Y-55201428D01*
X203438571Y-55344285D01*
X203438571Y-55487142D01*
X203510000Y-55630000D01*
X203581428Y-55701428D01*
X203724285Y-55772857D01*
X204224285Y-55772857D01*
X202724285Y-56558571D02*
X202724285Y-55558571D01*
X202724285Y-55058571D02*
X202795714Y-55130000D01*
X202724285Y-55201428D01*
X202652857Y-55130000D01*
X202724285Y-55058571D01*
X202724285Y-55201428D01*
X202010000Y-56558571D02*
X202010000Y-55558571D01*
X202010000Y-55058571D02*
X202081428Y-55130000D01*
X202010000Y-55201428D01*
X201938571Y-55130000D01*
X202010000Y-55058571D01*
X202010000Y-55201428D01*
X211847857Y-59803571D02*
X211847857Y-58303571D01*
X211847857Y-58875000D02*
X211705000Y-58803571D01*
X211419285Y-58803571D01*
X211276428Y-58875000D01*
X211205000Y-58946428D01*
X211133571Y-59089285D01*
X211133571Y-59517857D01*
X211205000Y-59660714D01*
X211276428Y-59732142D01*
X211419285Y-59803571D01*
X211705000Y-59803571D01*
X211847857Y-59732142D01*
X210633571Y-58803571D02*
X210276428Y-59803571D01*
X209919285Y-58803571D02*
X210276428Y-59803571D01*
X210419285Y-60160714D01*
X210490714Y-60232142D01*
X210633571Y-60303571D01*
X207776428Y-58303571D02*
X207776428Y-59375000D01*
X207847857Y-59589285D01*
X207990714Y-59732142D01*
X208205000Y-59803571D01*
X208347857Y-59803571D01*
X206847857Y-59803571D02*
X206990714Y-59732142D01*
X207062142Y-59660714D01*
X207133571Y-59517857D01*
X207133571Y-59089285D01*
X207062142Y-58946428D01*
X206990714Y-58875000D01*
X206847857Y-58803571D01*
X206633571Y-58803571D01*
X206490714Y-58875000D01*
X206419285Y-58946428D01*
X206347857Y-59089285D01*
X206347857Y-59517857D01*
X206419285Y-59660714D01*
X206490714Y-59732142D01*
X206633571Y-59803571D01*
X206847857Y-59803571D01*
X205705000Y-59803571D02*
X205705000Y-58303571D01*
X205705000Y-58875000D02*
X205562142Y-58803571D01*
X205276428Y-58803571D01*
X205133571Y-58875000D01*
X205062142Y-58946428D01*
X204990714Y-59089285D01*
X204990714Y-59517857D01*
X205062142Y-59660714D01*
X205133571Y-59732142D01*
X205276428Y-59803571D01*
X205562142Y-59803571D01*
X205705000Y-59732142D01*
X204419285Y-58803571D02*
X203347857Y-58803571D01*
X203990714Y-58160714D02*
X204419285Y-60089285D01*
X203490714Y-59446428D02*
X204562142Y-59446428D01*
X203919285Y-60089285D02*
X203490714Y-58160714D01*
X202990714Y-58303571D02*
X202062142Y-58303571D01*
X202562142Y-58875000D01*
X202347857Y-58875000D01*
X202205000Y-58946428D01*
X202133571Y-59017857D01*
X202062142Y-59160714D01*
X202062142Y-59517857D01*
X202133571Y-59660714D01*
X202205000Y-59732142D01*
X202347857Y-59803571D01*
X202776428Y-59803571D01*
X202919285Y-59732142D01*
X202990714Y-59660714D01*
X200705000Y-58303571D02*
X201419285Y-58303571D01*
X201490714Y-59017857D01*
X201419285Y-58946428D01*
X201276428Y-58875000D01*
X200919285Y-58875000D01*
X200776428Y-58946428D01*
X200705000Y-59017857D01*
X200633571Y-59160714D01*
X200633571Y-59517857D01*
X200705000Y-59660714D01*
X200776428Y-59732142D01*
X200919285Y-59803571D01*
X201276428Y-59803571D01*
X201419285Y-59732142D01*
X201490714Y-59660714D01*
X199276428Y-58303571D02*
X199990714Y-58303571D01*
X200062142Y-59017857D01*
X199990714Y-58946428D01*
X199847857Y-58875000D01*
X199490714Y-58875000D01*
X199347857Y-58946428D01*
X199276428Y-59017857D01*
X199205000Y-59160714D01*
X199205000Y-59517857D01*
X199276428Y-59660714D01*
X199347857Y-59732142D01*
X199490714Y-59803571D01*
X199847857Y-59803571D01*
X199990714Y-59732142D01*
X200062142Y-59660714D01*
X197919285Y-58303571D02*
X198205000Y-58303571D01*
X198347857Y-58375000D01*
X198419285Y-58446428D01*
X198562142Y-58660714D01*
X198633571Y-58946428D01*
X198633571Y-59517857D01*
X198562142Y-59660714D01*
X198490714Y-59732142D01*
X198347857Y-59803571D01*
X198062142Y-59803571D01*
X197919285Y-59732142D01*
X197847857Y-59660714D01*
X197776428Y-59517857D01*
X197776428Y-59160714D01*
X197847857Y-59017857D01*
X197919285Y-58946428D01*
X198062142Y-58875000D01*
X198347857Y-58875000D01*
X198490714Y-58946428D01*
X198562142Y-59017857D01*
X198633571Y-59160714D01*
X194776428Y-59803571D02*
X194847857Y-59803571D01*
X194990714Y-59732142D01*
X195205000Y-59517857D01*
X195562142Y-59089285D01*
X195705000Y-58875000D01*
X195776428Y-58660714D01*
X195776428Y-58517857D01*
X195705000Y-58375000D01*
X195562142Y-58303571D01*
X195490714Y-58303571D01*
X195347857Y-58375000D01*
X195276428Y-58517857D01*
X195276428Y-58589285D01*
X195347857Y-58732142D01*
X195419285Y-58803571D01*
X195847857Y-59089285D01*
X195919285Y-59160714D01*
X195990714Y-59303571D01*
X195990714Y-59517857D01*
X195919285Y-59660714D01*
X195847857Y-59732142D01*
X195705000Y-59803571D01*
X195490714Y-59803571D01*
X195347857Y-59732142D01*
X195276428Y-59660714D01*
X195062142Y-59375000D01*
X194990714Y-59160714D01*
X194990714Y-59017857D01*
X210990714Y-62210714D02*
X211062142Y-62282142D01*
X211276428Y-62353571D01*
X211419285Y-62353571D01*
X211633571Y-62282142D01*
X211776428Y-62139285D01*
X211847857Y-61996428D01*
X211919285Y-61710714D01*
X211919285Y-61496428D01*
X211847857Y-61210714D01*
X211776428Y-61067857D01*
X211633571Y-60925000D01*
X211419285Y-60853571D01*
X211276428Y-60853571D01*
X211062142Y-60925000D01*
X210990714Y-60996428D01*
X210133571Y-62353571D02*
X210276428Y-62282142D01*
X210347857Y-62210714D01*
X210419285Y-62067857D01*
X210419285Y-61639285D01*
X210347857Y-61496428D01*
X210276428Y-61425000D01*
X210133571Y-61353571D01*
X209919285Y-61353571D01*
X209776428Y-61425000D01*
X209705000Y-61496428D01*
X209633571Y-61639285D01*
X209633571Y-62067857D01*
X209705000Y-62210714D01*
X209776428Y-62282142D01*
X209919285Y-62353571D01*
X210133571Y-62353571D01*
X208990714Y-62353571D02*
X208990714Y-61353571D01*
X208990714Y-61496428D02*
X208919285Y-61425000D01*
X208776428Y-61353571D01*
X208562142Y-61353571D01*
X208419285Y-61425000D01*
X208347857Y-61567857D01*
X208347857Y-62353571D01*
X208347857Y-61567857D02*
X208276428Y-61425000D01*
X208133571Y-61353571D01*
X207919285Y-61353571D01*
X207776428Y-61425000D01*
X207705000Y-61567857D01*
X207705000Y-62353571D01*
X206990714Y-62353571D02*
X206990714Y-61353571D01*
X206990714Y-61496428D02*
X206919285Y-61425000D01*
X206776428Y-61353571D01*
X206562142Y-61353571D01*
X206419285Y-61425000D01*
X206347857Y-61567857D01*
X206347857Y-62353571D01*
X206347857Y-61567857D02*
X206276428Y-61425000D01*
X206133571Y-61353571D01*
X205919285Y-61353571D01*
X205776428Y-61425000D01*
X205705000Y-61567857D01*
X205705000Y-62353571D01*
X204347857Y-62353571D02*
X204347857Y-61567857D01*
X204419285Y-61425000D01*
X204562142Y-61353571D01*
X204847857Y-61353571D01*
X204990714Y-61425000D01*
X204347857Y-62282142D02*
X204490714Y-62353571D01*
X204847857Y-62353571D01*
X204990714Y-62282142D01*
X205062142Y-62139285D01*
X205062142Y-61996428D01*
X204990714Y-61853571D01*
X204847857Y-61782142D01*
X204490714Y-61782142D01*
X204347857Y-61710714D01*
X203633571Y-61353571D02*
X203633571Y-62353571D01*
X203633571Y-61496428D02*
X203562142Y-61425000D01*
X203419285Y-61353571D01*
X203205000Y-61353571D01*
X203062142Y-61425000D01*
X202990714Y-61567857D01*
X202990714Y-62353571D01*
X201633571Y-62353571D02*
X201633571Y-60853571D01*
X201633571Y-62282142D02*
X201776428Y-62353571D01*
X202062142Y-62353571D01*
X202205000Y-62282142D01*
X202276428Y-62210714D01*
X202347857Y-62067857D01*
X202347857Y-61639285D01*
X202276428Y-61496428D01*
X202205000Y-61425000D01*
X202062142Y-61353571D01*
X201776428Y-61353571D01*
X201633571Y-61425000D01*
X200919285Y-62353571D02*
X200919285Y-60853571D01*
X200919285Y-61425000D02*
X200776428Y-61353571D01*
X200490714Y-61353571D01*
X200347857Y-61425000D01*
X200276428Y-61496428D01*
X200205000Y-61639285D01*
X200205000Y-62067857D01*
X200276428Y-62210714D01*
X200347857Y-62282142D01*
X200490714Y-62353571D01*
X200776428Y-62353571D01*
X200919285Y-62282142D01*
X199347857Y-62353571D02*
X199490714Y-62282142D01*
X199562142Y-62139285D01*
X199562142Y-60853571D01*
X198562142Y-62353571D02*
X198705000Y-62282142D01*
X198776428Y-62210714D01*
X198847857Y-62067857D01*
X198847857Y-61639285D01*
X198776428Y-61496428D01*
X198705000Y-61425000D01*
X198562142Y-61353571D01*
X198347857Y-61353571D01*
X198205000Y-61425000D01*
X198133571Y-61496428D01*
X198062142Y-61639285D01*
X198062142Y-62067857D01*
X198133571Y-62210714D01*
X198205000Y-62282142D01*
X198347857Y-62353571D01*
X198562142Y-62353571D01*
X196776428Y-62282142D02*
X196919285Y-62353571D01*
X197205000Y-62353571D01*
X197347857Y-62282142D01*
X197419285Y-62210714D01*
X197490714Y-62067857D01*
X197490714Y-61639285D01*
X197419285Y-61496428D01*
X197347857Y-61425000D01*
X197205000Y-61353571D01*
X196919285Y-61353571D01*
X196776428Y-61425000D01*
X196133571Y-62353571D02*
X196133571Y-60853571D01*
X195990714Y-61782142D02*
X195562142Y-62353571D01*
X195562142Y-61353571D02*
X196133571Y-61925000D01*
X194276428Y-60853571D02*
X194562142Y-60853571D01*
X194705000Y-60925000D01*
X194776428Y-60996428D01*
X194919285Y-61210714D01*
X194990714Y-61496428D01*
X194990714Y-62067857D01*
X194919285Y-62210714D01*
X194847857Y-62282142D01*
X194705000Y-62353571D01*
X194419285Y-62353571D01*
X194276428Y-62282142D01*
X194205000Y-62210714D01*
X194133571Y-62067857D01*
X194133571Y-61710714D01*
X194205000Y-61567857D01*
X194276428Y-61496428D01*
X194419285Y-61425000D01*
X194705000Y-61425000D01*
X194847857Y-61496428D01*
X194919285Y-61567857D01*
X194990714Y-61710714D01*
X192847857Y-61353571D02*
X192847857Y-62353571D01*
X193205000Y-60782142D02*
X193562142Y-61853571D01*
X192633571Y-61853571D01*
X191276428Y-62353571D02*
X192133571Y-62353571D01*
X191705000Y-62353571D02*
X191705000Y-60853571D01*
X191847857Y-61067857D01*
X191990714Y-61210714D01*
X192133571Y-61282142D01*
X190776428Y-60853571D02*
X189776428Y-60853571D01*
X190419285Y-62353571D01*
M02*
