<?xml version="1.0" standalone="no"?>
 <!DOCTYPE svg PUBLIC "-//W3C//DTD SVG 1.1//EN" 
 "http://www.w3.org/Graphics/SVG/1.1/DTD/svg11.dtd"> 
<svg xmlns="http://www.w3.org/2000/svg" version="1.1" 
    width="29.7002cm" height="21.0007cm" viewBox="0 0 116930 82680 ">
<title>SVG Picture created as HDTVii-F.Cu.svg date 2020/07/23 21:45:17 </title>
  <desc>Picture generated by PCBNEW </desc>
<g style="fill:#000000; fill-opacity:1;stroke:#000000; stroke-opacity:1;
stroke-linecap:round; stroke-linejoin:round; "
 transform="translate(0 0) scale(1 1)">
</g>
<g style="fill:#000000; fill-opacity:0.0; 
stroke:#000000; stroke-width:-0.000393701; stroke-opacity:1; 
stroke-linecap:round; stroke-linejoin:round;">
</g>
<g style="fill:#000000; fill-opacity:0.0; 
stroke:#000000; stroke-width:0; stroke-opacity:1; 
stroke-linecap:round; stroke-linejoin:round;">
</g>
<g style="fill:#000000; fill-opacity:1.0; 
stroke:#000000; stroke-width:0; stroke-opacity:1; 
stroke-linecap:round; stroke-linejoin:round;">
<polyline style="fill-rule:evenodd;"
points="81421,26044
81436,26046
81450,26049
81463,26054
81477,26060
81489,26068
81501,26076
81511,26086
81521,26097
81530,26108
81537,26121
81543,26134
81548,26148
81552,26162
81554,26176
81555,26190
81555,26879
81554,26894
81552,26908
81548,26922
81543,26936
81537,26949
81530,26961
81521,26973
81511,26984
81501,26994
81489,27002
81477,27010
81463,27016
81450,27021
81436,27024
81421,27026
81407,27027
81112,27027
81097,27026
81083,27024
81069,27021
81055,27016
81042,27010
81030,27002
81018,26994
81007,26984
80998,26973
80989,26961
80982,26949
80975,26936
80970,26922
80967,26908
80965,26894
80964,26879
80964,26190
80965,26176
80967,26162
80970,26148
80975,26134
80982,26121
80989,26108
80998,26097
81007,26086
81018,26076
81030,26068
81042,26060
81055,26054
81069,26049
81083,26046
81097,26044
81112,26043
81407,26043
81421,26044
" /> 
<polyline style="fill-rule:evenodd;"
points="80358,21437
80373,21439
80387,21443
80400,21448
80414,21454
80426,21461
80438,21470
80448,21480
80458,21490
80467,21502
80474,21515
80480,21528
80485,21541
80489,21555
80491,21570
80492,21584
80492,22273
80491,22288
80489,22302
80485,22316
80480,22330
80474,22343
80467,22355
80458,22367
80448,22378
80438,22387
80426,22396
80414,22403
80400,22410
80387,22414
80373,22418
80358,22420
80344,22421
80049,22421
80034,22420
80020,22418
80006,22414
79992,22410
79979,22403
79967,22396
79955,22387
79944,22378
79935,22367
79926,22355
79919,22343
79912,22330
79907,22316
79904,22302
79902,22288
79901,22273
79901,21584
79902,21570
79904,21555
79907,21541
79912,21528
79919,21515
79926,21502
79935,21490
79944,21480
79955,21470
79967,21461
79979,21454
79992,21448
80006,21443
80020,21439
80034,21437
80049,21437
80344,21437
80358,21437
" /> 
<polyline style="fill-rule:evenodd;"
points="81421,21437
81436,21439
81450,21443
81463,21448
81477,21454
81489,21461
81501,21470
81511,21480
81521,21490
81530,21502
81537,21515
81543,21528
81548,21541
81552,21555
81554,21570
81555,21584
81555,22273
81554,22288
81552,22302
81548,22316
81543,22330
81537,22343
81530,22355
81521,22367
81511,22378
81501,22387
81489,22396
81477,22403
81463,22410
81450,22414
81436,22418
81421,22420
81407,22421
81112,22421
81097,22420
81083,22418
81069,22414
81055,22410
81042,22403
81030,22396
81018,22387
81007,22378
80998,22367
80989,22355
80982,22343
80975,22330
80970,22316
80967,22302
80965,22288
80964,22273
80964,21584
80965,21570
80967,21555
80970,21541
80975,21528
80982,21515
80989,21502
80998,21490
81007,21480
81018,21470
81030,21461
81042,21454
81055,21448
81069,21443
81083,21439
81097,21437
81112,21437
81407,21437
81421,21437
" /> 
<polyline style="fill-rule:evenodd;"
points="82484,21437
82499,21439
82513,21443
82526,21448
82540,21454
82552,21461
82564,21470
82574,21480
82584,21490
82593,21502
82600,21515
82606,21528
82611,21541
82615,21555
82617,21570
82618,21584
82618,22273
82617,22288
82615,22302
82611,22316
82606,22330
82600,22343
82593,22355
82584,22367
82574,22378
82564,22387
82552,22396
82540,22403
82526,22410
82513,22414
82499,22418
82484,22420
82470,22421
82175,22421
82160,22420
82146,22418
82132,22414
82118,22410
82105,22403
82093,22396
82081,22387
82070,22378
82061,22367
82052,22355
82044,22343
82038,22330
82033,22316
82030,22302
82028,22288
82027,22273
82027,21584
82028,21570
82030,21555
82033,21541
82038,21528
82044,21515
82052,21502
82061,21490
82070,21480
82081,21470
82093,21461
82105,21454
82118,21448
82132,21443
82146,21439
82160,21437
82175,21437
82470,21437
82484,21437
" /> 
<polyline style="fill-rule:evenodd;"
points="83547,23209
83562,23211
83576,23215
83589,23219
83603,23226
83615,23233
83627,23242
83637,23251
83647,23262
83656,23274
83663,23286
83669,23299
83674,23313
83678,23327
83680,23341
83681,23356
83681,23651
83680,23666
83678,23680
83674,23694
83669,23708
83663,23721
83656,23733
83647,23745
83637,23755
83627,23765
83615,23774
83603,23781
83589,23787
83576,23792
83562,23796
83547,23798
83533,23799
82844,23799
82830,23798
82815,23796
82801,23792
82787,23787
82774,23781
82762,23774
82750,23765
82740,23755
82730,23745
82721,23733
82714,23721
82708,23708
82703,23694
82699,23680
82697,23666
82696,23651
82696,23356
82697,23341
82699,23327
82703,23313
82708,23299
82714,23286
82721,23274
82730,23262
82740,23251
82750,23242
82762,23233
82774,23226
82787,23219
82801,23215
82815,23211
82830,23209
82844,23208
83533,23208
83547,23209
" /> 
<polyline style="fill-rule:evenodd;"
points="83547,25335
83562,25337
83576,25341
83589,25345
83603,25352
83615,25359
83627,25368
83637,25377
83647,25388
83656,25400
83663,25412
83669,25425
83674,25439
83678,25453
83680,25467
83681,25482
83681,25777
83680,25792
83678,25806
83674,25820
83669,25834
83663,25847
83656,25859
83647,25871
83637,25881
83627,25891
83615,25900
83603,25907
83589,25913
83576,25918
83562,25922
83547,25924
83533,25925
82844,25925
82830,25924
82815,25922
82801,25918
82787,25913
82774,25907
82762,25900
82750,25891
82740,25881
82730,25871
82721,25859
82714,25847
82708,25834
82703,25820
82699,25806
82697,25792
82696,25777
82696,25482
82697,25467
82699,25453
82703,25439
82708,25425
82714,25412
82721,25400
82730,25388
82740,25377
82750,25368
82762,25359
82774,25352
82787,25345
82801,25341
82815,25337
82830,25335
82844,25334
83533,25334
83547,25335
" /> 
<polyline style="fill-rule:evenodd;"
points="83547,26398
83562,26400
83576,26403
83589,26408
83603,26415
83615,26422
83627,26431
83637,26440
83647,26451
83656,26463
83663,26475
83669,26488
83674,26502
83678,26516
83680,26530
83681,26545
83681,26840
83680,26855
83678,26869
83674,26883
83669,26897
83663,26910
83656,26922
83647,26934
83637,26944
83627,26954
83615,26963
83603,26970
83589,26976
83576,26981
83562,26985
83547,26987
83533,26988
82844,26988
82830,26987
82815,26985
82801,26981
82787,26976
82774,26970
82762,26963
82750,26954
82740,26944
82730,26934
82721,26922
82714,26910
82708,26897
82703,26883
82699,26869
82697,26855
82696,26840
82696,26545
82697,26530
82699,26516
82703,26502
82708,26488
82714,26475
82721,26463
82730,26451
82740,26440
82750,26431
82762,26422
82774,26415
82787,26408
82801,26403
82815,26400
82830,26398
82844,26397
83533,26397
83547,26398
" /> 
<polyline style="fill-rule:evenodd;"
points="83547,24272
83562,24274
83576,24278
83589,24282
83603,24289
83615,24296
83627,24305
83637,24314
83647,24325
83656,24337
83663,24349
83669,24362
83674,24376
83678,24390
83680,24404
83681,24419
83681,24714
83680,24729
83678,24743
83674,24757
83669,24771
83663,24784
83656,24796
83647,24808
83637,24818
83627,24828
83615,24837
83603,24844
83589,24850
83576,24855
83562,24859
83547,24861
83533,24862
82844,24862
82830,24861
82815,24859
82801,24855
82787,24850
82774,24844
82762,24837
82750,24828
82740,24818
82730,24808
82721,24796
82714,24784
82708,24771
82703,24757
82699,24743
82697,24729
82696,24714
82696,24419
82697,24404
82699,24390
82703,24376
82708,24362
82714,24349
82721,24337
82730,24325
82740,24314
82750,24305
82762,24296
82774,24289
82787,24282
82801,24278
82815,24274
82830,24272
82844,24271
83533,24271
83547,24272
" /> 
<polyline style="fill-rule:evenodd;"
points="83547,21437
83562,21439
83576,21443
83589,21448
83603,21454
83615,21461
83627,21470
83637,21480
83647,21490
83656,21502
83663,21515
83669,21528
83674,21541
83678,21555
83680,21570
83681,21584
83681,22273
83680,22288
83678,22302
83674,22316
83669,22330
83663,22343
83656,22355
83647,22367
83637,22378
83627,22387
83615,22396
83603,22403
83589,22410
83576,22414
83562,22418
83547,22420
83533,22421
83238,22421
83223,22420
83209,22418
83195,22414
83181,22410
83168,22403
83156,22396
83144,22387
83133,22378
83124,22367
83115,22355
83107,22343
83101,22330
83096,22316
83093,22302
83091,22288
83090,22273
83090,21584
83091,21570
83093,21555
83096,21541
83101,21528
83107,21515
83115,21502
83124,21490
83133,21480
83144,21470
83156,21461
83168,21454
83181,21448
83195,21443
83209,21439
83223,21437
83238,21437
83533,21437
83547,21437
" /> 
<polyline style="fill-rule:evenodd;"
points="81210,23209
81219,23210
81229,23212
81238,23216
81247,23220
81255,23225
81263,23231
81270,23237
81276,23244
81282,23252
81287,23260
81291,23269
81294,23278
81297,23287
81298,23297
81299,23307
81299,23503
81298,23513
81297,23523
81294,23532
81291,23541
81287,23550
81282,23558
81276,23566
81270,23573
81263,23580
81255,23585
81247,23590
81238,23594
81229,23598
81219,23600
81210,23601
81200,23602
81003,23602
80994,23601
80984,23600
80975,23598
80966,23594
80957,23590
80949,23585
80941,23580
80934,23573
80927,23566
80922,23558
80917,23550
80913,23541
80909,23532
80907,23523
80905,23513
80905,23503
80905,23307
80905,23297
80907,23287
80909,23278
80913,23269
80917,23260
80922,23252
80927,23244
80934,23237
80941,23231
80949,23225
80957,23220
80966,23216
80975,23212
80984,23210
80994,23209
81003,23208
81200,23208
81210,23209
" /> 
<polyline style="fill-rule:evenodd;"
points="81210,24193
81219,24194
81229,24197
81238,24200
81247,24204
81255,24209
81263,24215
81270,24221
81276,24228
81282,24236
81287,24244
81291,24253
81294,24262
81297,24272
81298,24281
81299,24291
81299,24488
81298,24497
81297,24507
81294,24516
81291,24525
81287,24534
81282,24542
81276,24550
81270,24557
81263,24564
81255,24570
81247,24574
81238,24579
81229,24582
81219,24584
81210,24586
81200,24586
81003,24586
80994,24586
80984,24584
80975,24582
80966,24579
80957,24574
80949,24570
80941,24564
80934,24557
80927,24550
80922,24542
80917,24534
80913,24525
80909,24516
80907,24507
80905,24497
80905,24488
80905,24291
80905,24281
80907,24272
80909,24262
80913,24253
80917,24244
80922,24236
80927,24228
80934,24221
80941,24215
80949,24209
80957,24204
80966,24200
80975,24197
80984,24194
80994,24193
81003,24192
81200,24192
81210,24193
" /> 
<polyline style="fill-rule:evenodd;"
points="78011,25935
78021,25936
78030,25939
78039,25942
78048,25946
78056,25951
78064,25957
78071,25963
78078,25971
78083,25978
78088,25987
78092,25995
78096,26004
78098,26014
78099,26023
78100,26033
78100,26722
78099,26732
78098,26741
78096,26751
78092,26760
78088,26768
78083,26777
78078,26784
78071,26792
78064,26798
78056,26804
78048,26809
78039,26813
78030,26816
78021,26818
78011,26820
78001,26820
77194,26820
77185,26820
77175,26818
77166,26816
77157,26813
77148,26809
77140,26804
77132,26798
77125,26792
77118,26784
77113,26777
77108,26768
77103,26760
77100,26751
77098,26741
77096,26732
77096,26722
77096,26033
77096,26023
77098,26014
77100,26004
77103,25995
77108,25987
77113,25978
77118,25971
77125,25963
77132,25957
77140,25951
77148,25946
77157,25942
77166,25939
77175,25936
77185,25935
77194,25935
78001,25935
78011,25935
" /> 
<polyline style="fill-rule:evenodd;"
points="78011,23415
78021,23417
78030,23419
78039,23422
78048,23426
78056,23431
78064,23437
78071,23444
78078,23451
78083,23459
78088,23467
78092,23476
78096,23485
78098,23494
78099,23504
78100,23513
78100,24202
78099,24212
78098,24221
78096,24231
78092,24240
78088,24249
78083,24257
78078,24265
78071,24272
78064,24278
78056,24284
78048,24289
78039,24293
78030,24296
78021,24299
78011,24300
78001,24301
77194,24301
77185,24300
77175,24299
77166,24296
77157,24293
77148,24289
77140,24284
77132,24278
77125,24272
77118,24265
77113,24257
77108,24249
77103,24240
77100,24231
77098,24221
77096,24212
77096,24202
77096,23513
77096,23504
77098,23494
77100,23485
77103,23476
77108,23467
77113,23459
77118,23451
77125,23444
77132,23437
77140,23431
77148,23426
77157,23422
77166,23419
77175,23417
77185,23415
77194,23415
78001,23415
78011,23415
" /> 
<polyline style="fill-rule:evenodd;"
points="75846,23415
75855,23417
75865,23419
75874,23422
75883,23426
75891,23431
75899,23437
75906,23444
75912,23451
75918,23459
75923,23467
75927,23476
75930,23485
75933,23494
75934,23504
75935,23513
75935,24202
75934,24212
75933,24221
75930,24231
75927,24240
75923,24249
75918,24257
75912,24265
75906,24272
75899,24278
75891,24284
75883,24289
75874,24293
75865,24296
75855,24299
75846,24300
75836,24301
75029,24301
75019,24300
75010,24299
75000,24296
74991,24293
74983,24289
74974,24284
74967,24278
74959,24272
74953,24265
74947,24257
74942,24249
74938,24240
74935,24231
74932,24221
74931,24212
74931,24202
74931,23513
74931,23504
74932,23494
74935,23485
74938,23476
74942,23467
74947,23459
74953,23451
74959,23444
74967,23437
74974,23431
74983,23426
74991,23422
75000,23419
75010,23417
75019,23415
75029,23415
75836,23415
75846,23415
" /> 
<polyline style="fill-rule:evenodd;"
points="75846,25935
75855,25936
75865,25939
75874,25942
75883,25946
75891,25951
75899,25957
75906,25963
75912,25971
75918,25978
75923,25987
75927,25995
75930,26004
75933,26014
75934,26023
75935,26033
75935,26722
75934,26732
75933,26741
75930,26751
75927,26760
75923,26768
75918,26777
75912,26784
75906,26792
75899,26798
75891,26804
75883,26809
75874,26813
75865,26816
75855,26818
75846,26820
75836,26820
75029,26820
75019,26820
75010,26818
75000,26816
74991,26813
74983,26809
74974,26804
74967,26798
74959,26792
74953,26784
74947,26777
74942,26768
74938,26760
74935,26751
74932,26741
74931,26732
74931,26722
74931,26033
74931,26023
74932,26014
74935,26004
74938,25995
74942,25987
74947,25978
74953,25971
74959,25963
74967,25957
74974,25951
74983,25946
74991,25942
75000,25939
75010,25936
75019,25935
75029,25935
75836,25935
75846,25935
" /> 
<polyline style="fill-rule:evenodd;"
points="73680,25935
73690,25936
73699,25939
73708,25942
73717,25946
73725,25951
73733,25957
73740,25963
73747,25971
73753,25978
73758,25987
73762,25995
73765,26004
73767,26014
73769,26023
73769,26033
73769,26722
73769,26732
73767,26741
73765,26751
73762,26760
73758,26768
73753,26777
73747,26784
73740,26792
73733,26798
73725,26804
73717,26809
73708,26813
73699,26816
73690,26818
73680,26820
73671,26820
72864,26820
72854,26820
72844,26818
72835,26816
72826,26813
72817,26809
72809,26804
72801,26798
72794,26792
72788,26784
72782,26777
72777,26768
72773,26760
72769,26751
72767,26741
72766,26732
72765,26722
72765,26033
72766,26023
72767,26014
72769,26004
72773,25995
72777,25987
72782,25978
72788,25971
72794,25963
72801,25957
72809,25951
72817,25946
72826,25942
72835,25939
72844,25936
72854,25935
72864,25935
73671,25935
73680,25935
" /> 
<polyline style="fill-rule:evenodd;"
points="73680,23415
73690,23417
73699,23419
73708,23422
73717,23426
73725,23431
73733,23437
73740,23444
73747,23451
73753,23459
73758,23467
73762,23476
73765,23485
73767,23494
73769,23504
73769,23513
73769,24202
73769,24212
73767,24221
73765,24231
73762,24240
73758,24249
73753,24257
73747,24265
73740,24272
73733,24278
73725,24284
73717,24289
73708,24293
73699,24296
73690,24299
73680,24300
73671,24301
72864,24301
72854,24300
72844,24299
72835,24296
72826,24293
72817,24289
72809,24284
72801,24278
72794,24272
72788,24265
72782,24257
72777,24249
72773,24240
72769,24231
72767,24221
72766,24212
72765,24202
72765,23513
72766,23504
72767,23494
72769,23485
72773,23476
72777,23467
72782,23459
72788,23451
72794,23444
72801,23437
72809,23431
72817,23426
72826,23422
72835,23419
72844,23417
72854,23415
72864,23415
73671,23415
73680,23415
" /> 
<polyline style="fill-rule:evenodd;"
points="79399,21516
79408,21517
79418,21519
79427,21523
79436,21527
79444,21532
79452,21538
79459,21544
79465,21551
79471,21559
79476,21567
79480,21576
79483,21585
79486,21594
79487,21604
79488,21614
79488,21811
79487,21820
79486,21830
79483,21839
79480,21848
79476,21857
79471,21865
79465,21873
79459,21880
79452,21887
79444,21892
79436,21897
79427,21901
79418,21905
79408,21907
79399,21908
79389,21909
79192,21909
79183,21908
79173,21907
79164,21905
79155,21901
79146,21897
79138,21892
79130,21887
79123,21880
79116,21873
79111,21865
79106,21857
79101,21848
79098,21839
79096,21830
79094,21820
79094,21811
79094,21614
79094,21604
79096,21594
79098,21585
79101,21576
79106,21567
79111,21559
79116,21551
79123,21544
79130,21538
79138,21532
79146,21527
79155,21523
79164,21519
79173,21517
79183,21516
79192,21515
79389,21515
79399,21516
" /> 
<polyline style="fill-rule:evenodd;"
points="79399,22500
79408,22501
79418,22504
79427,22507
79436,22511
79444,22516
79452,22522
79459,22528
79465,22535
79471,22543
79476,22552
79480,22560
79483,22569
79486,22579
79487,22588
79488,22598
79488,22795
79487,22804
79486,22814
79483,22823
79480,22832
79476,22841
79471,22849
79465,22857
79459,22864
79452,22871
79444,22877
79436,22882
79427,22886
79418,22889
79408,22891
79399,22893
79389,22893
79192,22893
79183,22893
79173,22891
79164,22889
79155,22886
79146,22882
79138,22877
79130,22871
79123,22864
79116,22857
79111,22849
79106,22841
79101,22832
79098,22823
79096,22814
79094,22804
79094,22795
79094,22598
79094,22588
79096,22579
79098,22569
79101,22560
79106,22552
79111,22543
79116,22535
79123,22528
79130,22522
79138,22516
79146,22511
79155,22507
79164,22504
79173,22501
79183,22500
79192,22500
79389,22500
79399,22500
" /> 
<polyline style="fill-rule:evenodd;"
points="79399,24193
79408,24194
79418,24197
79427,24200
79436,24204
79444,24209
79452,24215
79459,24221
79465,24228
79471,24236
79476,24244
79480,24253
79483,24262
79486,24272
79487,24281
79488,24291
79488,24488
79487,24497
79486,24507
79483,24516
79480,24525
79476,24534
79471,24542
79465,24550
79459,24557
79452,24564
79444,24570
79436,24574
79427,24579
79418,24582
79408,24584
79399,24586
79389,24586
79192,24586
79183,24586
79173,24584
79164,24582
79155,24579
79146,24574
79138,24570
79130,24564
79123,24557
79116,24550
79111,24542
79106,24534
79101,24525
79098,24516
79096,24507
79094,24497
79094,24488
79094,24291
79094,24281
79096,24272
79098,24262
79101,24253
79106,24244
79111,24236
79116,24228
79123,24221
79130,24215
79138,24209
79146,24204
79155,24200
79164,24197
79173,24194
79183,24193
79192,24192
79389,24192
79399,24193
" /> 
<polyline style="fill-rule:evenodd;"
points="79399,23209
79408,23210
79418,23212
79427,23216
79436,23220
79444,23225
79452,23231
79459,23237
79465,23244
79471,23252
79476,23260
79480,23269
79483,23278
79486,23287
79487,23297
79488,23307
79488,23503
79487,23513
79486,23523
79483,23532
79480,23541
79476,23550
79471,23558
79465,23566
79459,23573
79452,23580
79444,23585
79436,23590
79427,23594
79418,23598
79408,23600
79399,23601
79389,23602
79192,23602
79183,23601
79173,23600
79164,23598
79155,23594
79146,23590
79138,23585
79130,23580
79123,23573
79116,23566
79111,23558
79106,23550
79101,23541
79098,23532
79096,23523
79094,23513
79094,23503
79094,23307
79094,23297
79096,23287
79098,23278
79101,23269
79106,23260
79111,23252
79116,23244
79123,23237
79130,23231
79138,23225
79146,23220
79155,23216
79164,23212
79173,23210
79183,23209
79192,23208
79389,23208
79399,23209
" /> 
<polyline style="fill-rule:evenodd;"
points="80304,23209
80314,23210
80323,23212
80332,23216
80341,23220
80349,23225
80357,23231
80364,23237
80371,23244
80377,23252
80382,23260
80386,23269
80389,23278
80391,23287
80393,23297
80393,23307
80393,23503
80393,23513
80391,23523
80389,23532
80386,23541
80382,23550
80377,23558
80371,23566
80364,23573
80357,23580
80349,23585
80341,23590
80332,23594
80323,23598
80314,23600
80304,23601
80295,23602
80098,23602
80088,23601
80079,23600
80069,23598
80060,23594
80052,23590
80043,23585
80035,23580
80028,23573
80022,23566
80016,23558
80011,23550
80007,23541
80004,23532
80001,23523
80000,23513
80000,23503
80000,23307
80000,23297
80001,23287
80004,23278
80007,23269
80011,23260
80016,23252
80022,23244
80028,23237
80035,23231
80043,23225
80052,23220
80060,23216
80069,23212
80079,23210
80088,23209
80098,23208
80295,23208
80304,23209
" /> 
<polyline style="fill-rule:evenodd;"
points="80304,24193
80314,24194
80323,24197
80332,24200
80341,24204
80349,24209
80357,24215
80364,24221
80371,24228
80377,24236
80382,24244
80386,24253
80389,24262
80391,24272
80393,24281
80393,24291
80393,24488
80393,24497
80391,24507
80389,24516
80386,24525
80382,24534
80377,24542
80371,24550
80364,24557
80357,24564
80349,24570
80341,24574
80332,24579
80323,24582
80314,24584
80304,24586
80295,24586
80098,24586
80088,24586
80079,24584
80069,24582
80060,24579
80052,24574
80043,24570
80035,24564
80028,24557
80022,24550
80016,24542
80011,24534
80007,24525
80004,24516
80001,24507
80000,24497
80000,24488
80000,24291
80000,24281
80001,24272
80004,24262
80007,24253
80011,24244
80016,24236
80022,24228
80028,24221
80035,24215
80043,24209
80052,24204
80060,24200
80069,24197
80079,24194
80088,24193
80098,24192
80295,24192
80304,24193
" /> 
<polyline style="fill-rule:evenodd;"
points="72701,22461
72710,22462
72719,22464
72727,22467
72736,22471
72743,22476
72751,22481
72758,22488
72764,22494
72769,22502
72774,22510
72778,22518
72781,22526
72783,22535
72784,22544
72785,22554
72785,22780
72784,22789
72783,22798
72781,22807
72778,22816
72774,22824
72769,22832
72764,22839
72758,22846
72751,22852
72743,22858
72736,22862
72727,22866
72719,22869
72710,22872
72701,22873
72691,22874
72504,22874
72495,22873
72486,22872
72477,22869
72469,22866
72460,22862
72452,22858
72445,22852
72438,22846
72432,22839
72427,22832
72422,22824
72418,22816
72415,22807
72413,22798
72411,22789
72411,22780
72411,22554
72411,22544
72413,22535
72415,22526
72418,22518
72422,22510
72427,22502
72432,22494
72438,22488
72445,22481
72452,22476
72460,22471
72469,22467
72477,22464
72486,22462
72495,22461
72504,22460
72691,22460
72701,22461
" /> 
<polyline style="fill-rule:evenodd;"
points="72701,21772
72710,21773
72719,21775
72727,21778
72736,21782
72743,21787
72751,21792
72758,21799
72764,21805
72769,21813
72774,21821
72778,21829
72781,21838
72783,21846
72784,21855
72785,21865
72785,22091
72784,22100
72783,22109
72781,22118
72778,22127
72774,22135
72769,22143
72764,22150
72758,22157
72751,22163
72743,22169
72736,22173
72727,22177
72719,22181
72710,22183
72701,22184
72691,22185
72504,22185
72495,22184
72486,22183
72477,22181
72469,22177
72460,22173
72452,22169
72445,22163
72438,22157
72432,22150
72427,22143
72422,22135
72418,22127
72415,22118
72413,22109
72411,22100
72411,22091
72411,21865
72411,21855
72413,21846
72415,21838
72418,21829
72422,21821
72427,21813
72432,21805
72438,21799
72445,21792
72452,21787
72460,21782
72469,21778
72477,21775
72486,21773
72495,21772
72504,21771
72691,21771
72701,21772
" /> 
<polyline style="fill-rule:evenodd;"
points="73399,21781
73408,21783
73417,21785
73426,21788
73434,21792
73442,21797
73450,21802
73456,21808
73463,21815
73468,21823
73473,21830
73477,21839
73480,21847
73482,21856
73483,21865
73484,21875
73484,22062
73483,22071
73482,22080
73480,22089
73477,22097
73473,22106
73468,22113
73463,22121
73456,22128
73450,22134
73442,22139
73434,22144
73426,22148
73417,22151
73408,22153
73399,22155
73390,22155
73164,22155
73155,22155
73146,22153
73137,22151
73128,22148
73120,22144
73112,22139
73105,22134
73098,22128
73092,22121
73086,22113
73081,22106
73077,22097
73074,22089
73072,22080
73071,22071
73070,22062
73070,21875
73071,21865
73072,21856
73074,21847
73077,21839
73081,21830
73086,21823
73092,21815
73098,21808
73105,21802
73112,21797
73120,21792
73128,21788
73137,21785
73146,21783
73155,21781
73164,21781
73390,21781
73399,21781
" /> 
<polyline style="fill-rule:evenodd;"
points="74088,21781
74097,21783
74106,21785
74115,21788
74123,21792
74131,21797
74139,21802
74145,21808
74152,21815
74157,21823
74162,21830
74166,21839
74169,21847
74171,21856
74172,21865
74173,21875
74173,22062
74172,22071
74171,22080
74169,22089
74166,22097
74162,22106
74157,22113
74152,22121
74145,22128
74139,22134
74131,22139
74123,22144
74115,22148
74106,22151
74097,22153
74088,22155
74079,22155
73853,22155
73844,22155
73835,22153
73826,22151
73817,22148
73809,22144
73801,22139
73794,22134
73787,22128
73781,22121
73775,22113
73770,22106
73766,22097
73763,22089
73761,22080
73760,22071
73759,22062
73759,21875
73760,21865
73761,21856
73763,21847
73766,21839
73770,21830
73775,21823
73781,21815
73787,21808
73794,21802
73801,21797
73809,21792
73817,21788
73826,21785
73835,21783
73844,21781
73853,21781
74079,21781
74088,21781
" /> 
<polyline style="fill-rule:evenodd;"
points="77031,22461
77040,22462
77049,22464
77058,22467
77066,22471
77074,22476
77081,22481
77088,22488
77094,22494
77100,22502
77105,22510
77109,22518
77112,22526
77114,22535
77115,22544
77116,22554
77116,22780
77115,22789
77114,22798
77112,22807
77109,22816
77105,22824
77100,22832
77094,22839
77088,22846
77081,22852
77074,22858
77066,22862
77058,22866
77049,22869
77040,22872
77031,22873
77022,22874
76835,22874
76826,22873
76817,22872
76808,22869
76799,22866
76791,22862
76783,22858
76776,22852
76769,22846
76763,22839
76757,22832
76753,22824
76749,22816
76746,22807
76743,22798
76742,22789
76742,22780
76742,22554
76742,22544
76743,22535
76746,22526
76749,22518
76753,22510
76757,22502
76763,22494
76769,22488
76776,22481
76783,22476
76791,22471
76799,22467
76808,22464
76817,22462
76826,22461
76835,22460
77022,22460
77031,22461
" /> 
<polyline style="fill-rule:evenodd;"
points="77031,21772
77040,21773
77049,21775
77058,21778
77066,21782
77074,21787
77081,21792
77088,21799
77094,21805
77100,21813
77105,21821
77109,21829
77112,21838
77114,21846
77115,21855
77116,21865
77116,22091
77115,22100
77114,22109
77112,22118
77109,22127
77105,22135
77100,22143
77094,22150
77088,22157
77081,22163
77074,22169
77066,22173
77058,22177
77049,22181
77040,22183
77031,22184
77022,22185
76835,22185
76826,22184
76817,22183
76808,22181
76799,22177
76791,22173
76783,22169
76776,22163
76769,22157
76763,22150
76757,22143
76753,22135
76749,22127
76746,22118
76743,22109
76742,22100
76742,22091
76742,21865
76742,21855
76743,21846
76746,21838
76749,21829
76753,21821
76757,21813
76763,21805
76769,21799
76776,21792
76783,21787
76791,21782
76799,21778
76808,21775
76817,21773
76826,21772
76835,21771
77022,21771
77031,21772
" /> 
<polyline style="fill-rule:evenodd;"
points="77730,21781
77739,21783
77748,21785
77757,21788
77765,21792
77773,21797
77780,21802
77787,21808
77793,21815
77799,21823
77803,21830
77807,21839
77810,21847
77813,21856
77814,21865
77814,21875
77814,22062
77814,22071
77813,22080
77810,22089
77807,22097
77803,22106
77799,22113
77793,22121
77787,22128
77780,22134
77773,22139
77765,22144
77757,22148
77748,22151
77739,22153
77730,22155
77721,22155
77495,22155
77485,22155
77476,22153
77467,22151
77459,22148
77451,22144
77443,22139
77435,22134
77428,22128
77422,22121
77417,22113
77412,22106
77408,22097
77405,22089
77403,22080
77402,22071
77401,22062
77401,21875
77402,21865
77403,21856
77405,21847
77408,21839
77412,21830
77417,21823
77422,21815
77428,21808
77435,21802
77443,21797
77451,21792
77459,21788
77467,21785
77476,21783
77485,21781
77495,21781
77721,21781
77730,21781
" /> 
<polyline style="fill-rule:evenodd;"
points="78419,21781
78428,21783
78437,21785
78446,21788
78454,21792
78462,21797
78469,21802
78476,21808
78482,21815
78488,21823
78492,21830
78496,21839
78499,21847
78502,21856
78503,21865
78503,21875
78503,22062
78503,22071
78502,22080
78499,22089
78496,22097
78492,22106
78488,22113
78482,22121
78476,22128
78469,22134
78462,22139
78454,22144
78446,22148
78437,22151
78428,22153
78419,22155
78410,22155
78184,22155
78174,22155
78165,22153
78156,22151
78148,22148
78139,22144
78132,22139
78124,22134
78117,22128
78111,22121
78106,22113
78101,22106
78097,22097
78094,22089
78092,22080
78091,22071
78090,22062
78090,21875
78091,21865
78092,21856
78094,21847
78097,21839
78101,21830
78106,21823
78111,21815
78117,21808
78124,21802
78132,21797
78139,21792
78148,21788
78156,21785
78165,21783
78174,21781
78184,21781
78410,21781
78419,21781
" /> 
<polyline style="fill-rule:evenodd;"
points="74866,22461
74875,22462
74884,22464
74893,22467
74901,22471
74909,22476
74916,22481
74923,22488
74929,22494
74935,22502
74939,22510
74943,22518
74946,22526
74948,22535
74950,22544
74950,22554
74950,22780
74950,22789
74948,22798
74946,22807
74943,22816
74939,22824
74935,22832
74929,22839
74923,22846
74916,22852
74909,22858
74901,22862
74893,22866
74884,22869
74875,22872
74866,22873
74857,22874
74670,22874
74661,22873
74652,22872
74643,22869
74634,22866
74626,22862
74618,22858
74610,22852
74604,22846
74597,22839
74592,22832
74587,22824
74583,22816
74580,22807
74578,22798
74577,22789
74576,22780
74576,22554
74577,22544
74578,22535
74580,22526
74583,22518
74587,22510
74592,22502
74597,22494
74604,22488
74610,22481
74618,22476
74626,22471
74634,22467
74643,22464
74652,22462
74661,22461
74670,22460
74857,22460
74866,22461
" /> 
<polyline style="fill-rule:evenodd;"
points="74866,21772
74875,21773
74884,21775
74893,21778
74901,21782
74909,21787
74916,21792
74923,21799
74929,21805
74935,21813
74939,21821
74943,21829
74946,21838
74948,21846
74950,21855
74950,21865
74950,22091
74950,22100
74948,22109
74946,22118
74943,22127
74939,22135
74935,22143
74929,22150
74923,22157
74916,22163
74909,22169
74901,22173
74893,22177
74884,22181
74875,22183
74866,22184
74857,22185
74670,22185
74661,22184
74652,22183
74643,22181
74634,22177
74626,22173
74618,22169
74610,22163
74604,22157
74597,22150
74592,22143
74587,22135
74583,22127
74580,22118
74578,22109
74577,22100
74576,22091
74576,21865
74577,21855
74578,21846
74580,21838
74583,21829
74587,21821
74592,21813
74597,21805
74604,21799
74610,21792
74618,21787
74626,21782
74634,21778
74643,21775
74652,21773
74661,21772
74670,21771
74857,21771
74866,21772
" /> 
<polyline style="fill-rule:evenodd;"
points="75565,21781
75574,21783
75583,21785
75591,21788
75600,21792
75608,21797
75615,21802
75622,21808
75628,21815
75633,21823
75638,21830
75642,21839
75645,21847
75647,21856
75649,21865
75649,21875
75649,22062
75649,22071
75647,22080
75645,22089
75642,22097
75638,22106
75633,22113
75628,22121
75622,22128
75615,22134
75608,22139
75600,22144
75591,22148
75583,22151
75574,22153
75565,22155
75556,22155
75329,22155
75320,22155
75311,22153
75302,22151
75293,22148
75285,22144
75277,22139
75270,22134
75263,22128
75257,22121
75251,22113
75247,22106
75243,22097
75240,22089
75238,22080
75236,22071
75236,22062
75236,21875
75236,21865
75238,21856
75240,21847
75243,21839
75247,21830
75251,21823
75257,21815
75263,21808
75270,21802
75277,21797
75285,21792
75293,21788
75302,21785
75311,21783
75320,21781
75329,21781
75556,21781
75565,21781
" /> 
<polyline style="fill-rule:evenodd;"
points="76254,21781
76263,21783
76272,21785
76280,21788
76289,21792
76297,21797
76304,21802
76311,21808
76317,21815
76322,21823
76327,21830
76331,21839
76334,21847
76336,21856
76338,21865
76338,21875
76338,22062
76338,22071
76336,22080
76334,22089
76331,22097
76327,22106
76322,22113
76317,22121
76311,22128
76304,22134
76297,22139
76289,22144
76280,22148
76272,22151
76263,22153
76254,22155
76245,22155
76018,22155
76009,22155
76000,22153
75991,22151
75982,22148
75974,22144
75966,22139
75959,22134
75952,22128
75946,22121
75940,22113
75936,22106
75932,22097
75929,22089
75926,22080
75925,22071
75925,22062
75925,21875
75925,21865
75926,21856
75929,21847
75932,21839
75936,21830
75940,21823
75946,21815
75952,21808
75959,21802
75966,21797
75974,21792
75982,21788
75991,21785
76000,21783
76009,21781
76018,21781
76245,21781
76254,21781
" /> 
<polyline style="fill-rule:evenodd;"
points="74088,22490
74097,22491
74106,22494
74115,22497
74123,22501
74131,22505
74139,22511
74145,22517
74152,22524
74157,22531
74162,22539
74166,22547
74169,22556
74171,22565
74172,22574
74173,22583
74173,22770
74172,22779
74171,22788
74169,22797
74166,22806
74162,22814
74157,22822
74152,22829
74145,22836
74139,22842
74131,22848
74123,22853
74115,22857
74106,22860
74097,22862
74088,22863
74079,22864
73853,22864
73844,22863
73835,22862
73826,22860
73817,22857
73809,22853
73801,22848
73794,22842
73787,22836
73781,22829
73775,22822
73770,22814
73766,22806
73763,22797
73761,22788
73760,22779
73759,22770
73759,22583
73760,22574
73761,22565
73763,22556
73766,22547
73770,22539
73775,22531
73781,22524
73787,22517
73794,22511
73801,22505
73809,22501
73817,22497
73826,22494
73835,22491
73844,22490
73853,22490
74079,22490
74088,22490
" /> 
<polyline style="fill-rule:evenodd;"
points="73399,22490
73408,22491
73417,22494
73426,22497
73434,22501
73442,22505
73450,22511
73456,22517
73463,22524
73468,22531
73473,22539
73477,22547
73480,22556
73482,22565
73483,22574
73484,22583
73484,22770
73483,22779
73482,22788
73480,22797
73477,22806
73473,22814
73468,22822
73463,22829
73456,22836
73450,22842
73442,22848
73434,22853
73426,22857
73417,22860
73408,22862
73399,22863
73390,22864
73164,22864
73155,22863
73146,22862
73137,22860
73128,22857
73120,22853
73112,22848
73105,22842
73098,22836
73092,22829
73086,22822
73081,22814
73077,22806
73074,22797
73072,22788
73071,22779
73070,22770
73070,22583
73071,22574
73072,22565
73074,22556
73077,22547
73081,22539
73086,22531
73092,22524
73098,22517
73105,22511
73112,22505
73120,22501
73128,22497
73137,22494
73146,22491
73155,22490
73164,22490
73390,22490
73399,22490
" /> 
<polyline style="fill-rule:evenodd;"
points="77730,22490
77739,22491
77748,22494
77757,22497
77765,22501
77773,22505
77780,22511
77787,22517
77793,22524
77799,22531
77803,22539
77807,22547
77810,22556
77813,22565
77814,22574
77814,22583
77814,22770
77814,22779
77813,22788
77810,22797
77807,22806
77803,22814
77799,22822
77793,22829
77787,22836
77780,22842
77773,22848
77765,22853
77757,22857
77748,22860
77739,22862
77730,22863
77721,22864
77495,22864
77485,22863
77476,22862
77467,22860
77459,22857
77451,22853
77443,22848
77435,22842
77428,22836
77422,22829
77417,22822
77412,22814
77408,22806
77405,22797
77403,22788
77402,22779
77401,22770
77401,22583
77402,22574
77403,22565
77405,22556
77408,22547
77412,22539
77417,22531
77422,22524
77428,22517
77435,22511
77443,22505
77451,22501
77459,22497
77467,22494
77476,22491
77485,22490
77495,22490
77721,22490
77730,22490
" /> 
<polyline style="fill-rule:evenodd;"
points="78419,22490
78428,22491
78437,22494
78446,22497
78454,22501
78462,22505
78469,22511
78476,22517
78482,22524
78488,22531
78492,22539
78496,22547
78499,22556
78502,22565
78503,22574
78503,22583
78503,22770
78503,22779
78502,22788
78499,22797
78496,22806
78492,22814
78488,22822
78482,22829
78476,22836
78469,22842
78462,22848
78454,22853
78446,22857
78437,22860
78428,22862
78419,22863
78410,22864
78184,22864
78174,22863
78165,22862
78156,22860
78148,22857
78139,22853
78132,22848
78124,22842
78117,22836
78111,22829
78106,22822
78101,22814
78097,22806
78094,22797
78092,22788
78091,22779
78090,22770
78090,22583
78091,22574
78092,22565
78094,22556
78097,22547
78101,22539
78106,22531
78111,22524
78117,22517
78124,22511
78132,22505
78139,22501
78148,22497
78156,22494
78165,22491
78174,22490
78184,22490
78410,22490
78419,22490
" /> 
<polyline style="fill-rule:evenodd;"
points="76254,22490
76263,22491
76272,22494
76280,22497
76289,22501
76297,22505
76304,22511
76311,22517
76317,22524
76322,22531
76327,22539
76331,22547
76334,22556
76336,22565
76338,22574
76338,22583
76338,22770
76338,22779
76336,22788
76334,22797
76331,22806
76327,22814
76322,22822
76317,22829
76311,22836
76304,22842
76297,22848
76289,22853
76280,22857
76272,22860
76263,22862
76254,22863
76245,22864
76018,22864
76009,22863
76000,22862
75991,22860
75982,22857
75974,22853
75966,22848
75959,22842
75952,22836
75946,22829
75940,22822
75936,22814
75932,22806
75929,22797
75926,22788
75925,22779
75925,22770
75925,22583
75925,22574
75926,22565
75929,22556
75932,22547
75936,22539
75940,22531
75946,22524
75952,22517
75959,22511
75966,22505
75974,22501
75982,22497
75991,22494
76000,22491
76009,22490
76018,22490
76245,22490
76254,22490
" /> 
<polyline style="fill-rule:evenodd;"
points="75565,22490
75574,22491
75583,22494
75591,22497
75600,22501
75608,22505
75615,22511
75622,22517
75628,22524
75633,22531
75638,22539
75642,22547
75645,22556
75647,22565
75649,22574
75649,22583
75649,22770
75649,22779
75647,22788
75645,22797
75642,22806
75638,22814
75633,22822
75628,22829
75622,22836
75615,22842
75608,22848
75600,22853
75591,22857
75583,22860
75574,22862
75565,22863
75556,22864
75329,22864
75320,22863
75311,22862
75302,22860
75293,22857
75285,22853
75277,22848
75270,22842
75263,22836
75257,22829
75251,22822
75247,22814
75243,22806
75240,22797
75238,22788
75236,22779
75236,22770
75236,22583
75236,22574
75238,22565
75240,22556
75243,22547
75247,22539
75251,22531
75257,22524
75263,22517
75270,22511
75277,22505
75285,22501
75293,22497
75302,22494
75311,22491
75320,22490
75329,22490
75556,22490
75565,22490
" /> 
<polyline style="fill-rule:evenodd;"
points="80033,24970
80042,24972
80051,24974
80060,24977
80068,24981
80076,24986
80083,24991
80090,24997
80096,25004
80102,25012
80107,25019
80110,25028
80114,25036
80116,25045
80117,25054
80118,25063
80118,25250
80117,25260
80116,25269
80114,25278
80110,25286
80107,25295
80102,25302
80096,25310
80090,25317
80083,25323
80076,25328
80068,25333
80060,25337
80051,25340
80042,25342
80033,25344
80024,25344
79798,25344
79789,25344
79779,25342
79771,25340
79762,25337
79754,25333
79746,25328
79738,25323
79732,25317
79725,25310
79720,25302
79715,25295
79711,25286
79708,25278
79706,25269
79705,25260
79704,25250
79704,25063
79705,25054
79706,25045
79708,25036
79711,25028
79715,25019
79720,25012
79725,25004
79732,24997
79738,24991
79746,24986
79754,24981
79762,24977
79771,24974
79779,24972
79789,24970
79798,24970
80024,24970
80033,24970
" /> 
<polyline style="fill-rule:evenodd;"
points="79344,24970
79353,24972
79362,24974
79371,24977
79379,24981
79387,24986
79394,24991
79401,24997
79407,25004
79413,25012
79418,25019
79422,25028
79425,25036
79427,25045
79428,25054
79429,25063
79429,25250
79428,25260
79427,25269
79425,25278
79422,25286
79418,25295
79413,25302
79407,25310
79401,25317
79394,25323
79387,25328
79379,25333
79371,25337
79362,25340
79353,25342
79344,25344
79335,25344
79109,25344
79100,25344
79091,25342
79082,25340
79073,25337
79065,25333
79057,25328
79049,25323
79043,25317
79036,25310
79031,25302
79026,25295
79022,25286
79019,25278
79017,25269
79016,25260
79015,25250
79015,25063
79016,25054
79017,25045
79019,25036
79022,25028
79026,25019
79031,25012
79036,25004
79043,24997
79049,24991
79057,24986
79065,24981
79073,24977
79082,24974
79091,24972
79100,24970
79109,24970
79335,24970
79344,24970
" /> 
<polyline style="fill-rule:evenodd;"
points="80033,26466
80042,26468
80051,26470
80060,26473
80068,26477
80076,26482
80083,26487
80090,26493
80096,26500
80102,26508
80107,26515
80110,26524
80114,26532
80116,26541
80117,26550
80118,26560
80118,26747
80117,26756
80116,26765
80114,26774
80110,26782
80107,26791
80102,26798
80096,26806
80090,26813
80083,26819
80076,26824
80068,26829
80060,26833
80051,26836
80042,26838
80033,26840
80024,26840
79798,26840
79789,26840
79779,26838
79771,26836
79762,26833
79754,26829
79746,26824
79738,26819
79732,26813
79725,26806
79720,26798
79715,26791
79711,26782
79708,26774
79706,26765
79705,26756
79704,26747
79704,26560
79705,26550
79706,26541
79708,26532
79711,26524
79715,26515
79720,26508
79725,26500
79732,26493
79738,26487
79746,26482
79754,26477
79762,26473
79771,26470
79779,26468
79789,26466
79798,26466
80024,26466
80033,26466
" /> 
<polyline style="fill-rule:evenodd;"
points="79344,26466
79353,26468
79362,26470
79371,26473
79379,26477
79387,26482
79394,26487
79401,26493
79407,26500
79413,26508
79418,26515
79422,26524
79425,26532
79427,26541
79428,26550
79429,26560
79429,26747
79428,26756
79427,26765
79425,26774
79422,26782
79418,26791
79413,26798
79407,26806
79401,26813
79394,26819
79387,26824
79379,26829
79371,26833
79362,26836
79353,26838
79344,26840
79335,26840
79109,26840
79100,26840
79091,26838
79082,26836
79073,26833
79065,26829
79057,26824
79049,26819
79043,26813
79036,26806
79031,26798
79026,26791
79022,26782
79019,26774
79017,26765
79016,26756
79015,26747
79015,26560
79016,26550
79017,26541
79019,26532
79022,26524
79026,26515
79031,26508
79036,26500
79043,26493
79049,26487
79057,26482
79065,26477
79073,26473
79082,26470
79091,26468
79100,26466
79109,26466
79335,26466
79344,26466
" /> 
<polyline style="fill-rule:evenodd;"
points="79344,25718
79353,25720
79362,25722
79371,25725
79379,25729
79387,25734
79394,25739
79401,25745
79407,25752
79413,25760
79418,25767
79422,25776
79425,25784
79427,25793
79428,25802
79429,25812
79429,25999
79428,26008
79427,26017
79425,26026
79422,26034
79418,26043
79413,26050
79407,26058
79401,26065
79394,26071
79387,26076
79379,26081
79371,26085
79362,26088
79353,26090
79344,26092
79335,26092
79109,26092
79100,26092
79091,26090
79082,26088
79073,26085
79065,26081
79057,26076
79049,26071
79043,26065
79036,26058
79031,26050
79026,26043
79022,26034
79019,26026
79017,26017
79016,26008
79015,25999
79015,25812
79016,25802
79017,25793
79019,25784
79022,25776
79026,25767
79031,25760
79036,25752
79043,25745
79049,25739
79057,25734
79065,25729
79073,25725
79082,25722
79091,25720
79100,25718
79109,25718
79335,25718
79344,25718
" /> 
<polyline style="fill-rule:evenodd;"
points="80033,25718
80042,25720
80051,25722
80060,25725
80068,25729
80076,25734
80083,25739
80090,25745
80096,25752
80102,25760
80107,25767
80110,25776
80114,25784
80116,25793
80117,25802
80118,25812
80118,25999
80117,26008
80116,26017
80114,26026
80110,26034
80107,26043
80102,26050
80096,26058
80090,26065
80083,26071
80076,26076
80068,26081
80060,26085
80051,26088
80042,26090
80033,26092
80024,26092
79798,26092
79789,26092
79779,26090
79771,26088
79762,26085
79754,26081
79746,26076
79738,26071
79732,26065
79725,26058
79720,26050
79715,26043
79711,26034
79708,26026
79706,26017
79705,26008
79704,25999
79704,25812
79705,25802
79706,25793
79708,25784
79711,25776
79715,25767
79720,25760
79725,25752
79732,25745
79738,25739
79746,25734
79754,25729
79762,25725
79771,25722
79779,25720
79789,25718
79798,25718
80024,25718
80033,25718
" /> 
<circle cx="78779.5" cy="24685" r="157.48" /> 
</g>
<g style="fill:#000000; fill-opacity:1.0; 
stroke:#000000; stroke-width:39.3701; stroke-opacity:1; 
stroke-linecap:round; stroke-linejoin:round;">
</g>
<g style="fill:#000000; fill-opacity:1.0; 
stroke:#000000; stroke-width:0; stroke-opacity:1; 
stroke-linecap:round; stroke-linejoin:round;">
<circle cx="81653.5" cy="24015.7" r="157.48" /> 
</g>
<g style="fill:#000000; fill-opacity:1.0; 
stroke:#000000; stroke-width:39.3701; stroke-opacity:1; 
stroke-linecap:round; stroke-linejoin:round;">
</g>
<g style="fill:#000000; fill-opacity:1.0; 
stroke:#000000; stroke-width:0; stroke-opacity:1; 
stroke-linecap:round; stroke-linejoin:round;">
<circle cx="80748" cy="26732.3" r="157.48" /> 
</g>
<g style="fill:#000000; fill-opacity:1.0; 
stroke:#000000; stroke-width:39.3701; stroke-opacity:1; 
stroke-linecap:round; stroke-linejoin:round;">
</g>
<g style="fill:#000000; fill-opacity:1.0; 
stroke:#000000; stroke-width:0; stroke-opacity:1; 
stroke-linecap:round; stroke-linejoin:round;">
<circle cx="81850.4" cy="26220.5" r="157.48" /> 
</g>
<g style="fill:#000000; fill-opacity:1.0; 
stroke:#000000; stroke-width:39.3701; stroke-opacity:1; 
stroke-linecap:round; stroke-linejoin:round;">
</g>
<g style="fill:#000000; fill-opacity:1.0; 
stroke:#000000; stroke-width:0; stroke-opacity:1; 
stroke-linecap:round; stroke-linejoin:round;">
<circle cx="79763.8" cy="22716.5" r="157.48" /> 
</g>
<g style="fill:#000000; fill-opacity:1.0; 
stroke:#000000; stroke-width:39.3701; stroke-opacity:1; 
stroke-linecap:round; stroke-linejoin:round;">
</g>
<g style="fill:#000000; fill-opacity:1.0; 
stroke:#000000; stroke-width:0; stroke-opacity:1; 
stroke-linecap:round; stroke-linejoin:round;">
<circle cx="80393.7" cy="25157.5" r="157.48" /> 
</g>
<g style="fill:#000000; fill-opacity:1.0; 
stroke:#000000; stroke-width:39.3701; stroke-opacity:1; 
stroke-linecap:round; stroke-linejoin:round;">
</g>
<g style="fill:#000000; fill-opacity:1.0; 
stroke:#000000; stroke-width:0; stroke-opacity:1; 
stroke-linecap:round; stroke-linejoin:round;">
<circle cx="72598.4" cy="21574.8" r="157.48" /> 
</g>
<g style="fill:#000000; fill-opacity:1.0; 
stroke:#000000; stroke-width:39.3701; stroke-opacity:1; 
stroke-linecap:round; stroke-linejoin:round;">
</g>
<g style="fill:#000000; fill-opacity:1.0; 
stroke:#000000; stroke-width:0; stroke-opacity:1; 
stroke-linecap:round; stroke-linejoin:round;">
<circle cx="74409.4" cy="21968.5" r="157.48" /> 
</g>
<g style="fill:#000000; fill-opacity:1.0; 
stroke:#000000; stroke-width:39.3701; stroke-opacity:1; 
stroke-linecap:round; stroke-linejoin:round;">
</g>
<g style="fill:#000000; fill-opacity:1.0; 
stroke:#000000; stroke-width:0; stroke-opacity:1; 
stroke-linecap:round; stroke-linejoin:round;">
<circle cx="76574.8" cy="21968.5" r="157.48" /> 
</g>
<g style="fill:#000000; fill-opacity:1.0; 
stroke:#000000; stroke-width:39.3701; stroke-opacity:1; 
stroke-linecap:round; stroke-linejoin:round;">
</g>
<g style="fill:#000000; fill-opacity:1.0; 
stroke:#000000; stroke-width:0; stroke-opacity:1; 
stroke-linecap:round; stroke-linejoin:round;">
<circle cx="80390.1" cy="25902" r="157.48" /> 
</g>
<g style="fill:#000000; fill-opacity:1.0; 
stroke:#000000; stroke-width:39.3701; stroke-opacity:1; 
stroke-linecap:round; stroke-linejoin:round;">
</g>
<g style="fill:#000000; fill-opacity:1.0; 
stroke:#000000; stroke-width:0; stroke-opacity:1; 
stroke-linecap:round; stroke-linejoin:round;">
<circle cx="80393.7" cy="26732.3" r="157.48" /> 
</g>
<g style="fill:#000000; fill-opacity:1.0; 
stroke:#000000; stroke-width:39.3701; stroke-opacity:1; 
stroke-linecap:round; stroke-linejoin:round;">
</g>
<g style="fill:#000000; fill-opacity:1.0; 
stroke:#000000; stroke-width:118.11; stroke-opacity:1; 
stroke-linecap:round; stroke-linejoin:round;">
</g>
<g style="fill:#000000; fill-opacity:0.0; 
stroke:#000000; stroke-width:118.11; stroke-opacity:1; 
stroke-linecap:round; stroke-linejoin:round;">
<path d="M78297 21968
L78297 22677
" />
<path d="M79291 23395
L79291 23405
" />
<path d="M78562 22677
L79291 23405
" />
<path d="M78297 22677
L78562 22677
" />
<path d="M79606 23405
L79291 23405
" />
<path d="M80354 23031
L79980 23031
" />
<path d="M79980 23031
L79606 23405
" />
<path d="M81259 21929
L81259 22125
" />
<path d="M81259 22125
L80354 23031
" />
<path d="M74488 25157
L73267 26377
" />
<path d="M79222 25157
L74488 25157
" />
<path d="M81692 24566
L83188 24566
" />
<path d="M79222 25157
L79616 24763
" />
<path d="M81496 24763
L81692 24566
" />
<path d="M79616 24763
L81496 24763
" />
<path d="M77637 26377
L77598 26377
" />
<path d="M77874 26653
L77598 26377
" />
<path d="M79222 26653
L77874 26653
" />
<path d="M79418 26457
L79222 26653
" />
<path d="M80495 26269
L79606 26269
" />
<path d="M79606 26269
L79418 26457
" />
<path d="M83188 26692
L82992 26692
" />
<path d="M82992 26692
L82086 25787
" />
<path d="M82086 25787
L80977 25787
" />
<path d="M80977 25787
L80495 26269
" />
<path d="M75897 25913
L75433 26377
" />
<path d="M76101 25709
L75897 25913
" />
<path d="M78622 25709
L76101 25709
" />
<path d="M79222 25905
L78818 25905
" />
<path d="M78818 25905
L78622 25709
" />
<path d="M79418 25709
L79222 25905
" />
<path d="M79586 25541
L79418 25709
" />
<path d="M83188 25629
L83100 25541
" />
<path d="M83100 25541
L79586 25541
" />
<path d="M73966 21968
L73966 22677
" />
<path d="M73966 21968
L74340 21594
" />
<path d="M78976 21712
L79291 21712
" />
<path d="M78858 21594
L78976 21712
" />
<path d="M74340 21594
L78858 21594
" />
<path d="M79980 21712
L80196 21929
" />
<path d="M79291 21712
L79980 21712
" />
<path d="M76131 21968
L76131 22677
" />
<path d="M76131 23021
L76131 22677
" />
<path d="M76535 23425
L76131 23021
" />
<path d="M76535 24173
L76535 23425
" />
<path d="M80196 23405
L80196 23425
" />
<path d="M80196 23425
L79763 23858
" />
<path d="M79763 23858
L78937 23858
" />
<path d="M78937 23858
L78228 24566
" />
<path d="M78228 24566
L76929 24566
" />
<path d="M76929 24566
L76535 24173
" />
<path d="M80492 23405
L80196 23405
" />
<path d="M81220 22677
L80492 23405
" />
<path d="M81771 22677
L81220 22677
" />
<path d="M82322 21929
L82322 22125
" />
<path d="M82322 22125
L81771 22677
" />
</g>
<g style="fill:#000000; fill-opacity:0.0; 
stroke:#000000; stroke-width:157.48; stroke-opacity:1; 
stroke-linecap:round; stroke-linejoin:round;">
<path d="M75433 23858
L75393 23858
" />
</g>
<g style="fill:#000000; fill-opacity:0.0; 
stroke:#000000; stroke-width:118.11; stroke-opacity:1; 
stroke-linecap:round; stroke-linejoin:round;">
<path d="M74763 23267
L74763 22667
" />
<path d="M75433 23858
L75354 23858
" />
<path d="M75354 23858
L74763 23267
" />
<path d="M75433 22667
L75442 22677
" />
<path d="M74763 22667
L75433 22667
" />
<path d="M75442 22677
L75442 21968
" />
</g>
<g style="fill:#000000; fill-opacity:0.0; 
stroke:#000000; stroke-width:157.48; stroke-opacity:1; 
stroke-linecap:round; stroke-linejoin:round;">
<path d="M73267 23858
L73188 23858
" />
</g>
<g style="fill:#000000; fill-opacity:0.0; 
stroke:#000000; stroke-width:118.11; stroke-opacity:1; 
stroke-linecap:round; stroke-linejoin:round;">
<path d="M72598 22913
L72598 22667
" />
<path d="M73188 23858
L72598 23267
" />
<path d="M72598 23267
L72598 22913
" />
<path d="M73267 22667
L73277 22677
" />
<path d="M72598 22667
L73267 22667
" />
<path d="M73277 22677
L73277 21968
" />
</g>
<g style="fill:#000000; fill-opacity:0.0; 
stroke:#000000; stroke-width:157.48; stroke-opacity:1; 
stroke-linecap:round; stroke-linejoin:round;">
<path d="M77598 23858
L77559 23858
" />
<path d="M77598 22667
L77608 22677
" />
<path d="M76929 22667
L77598 22667
" />
</g>
<g style="fill:#000000; fill-opacity:0.0; 
stroke:#000000; stroke-width:118.11; stroke-opacity:1; 
stroke-linecap:round; stroke-linejoin:round;">
<path d="M76929 22913
L76929 22667
" />
<path d="M77559 23858
L76929 23228
" />
<path d="M76929 23228
L76929 22913
" />
<path d="M77608 22677
L77608 21968
" />
<path d="M81200 23503
L81102 23405
" />
<path d="M83188 23503
L81200 23503
" />
<path d="M83385 22125
L83385 21929
" />
<path d="M81496 22992
L82519 22992
" />
<path d="M82519 22992
L83385 22125
" />
<path d="M81102 23405
L81102 23385
" />
<path d="M81102 23385
L81496 22992
" />
</g>
<g style="fill:#000000; fill-opacity:1.0; 
stroke:#000000; stroke-width:118.11; stroke-opacity:1; 
stroke-linecap:round; stroke-linejoin:round;">
<polyline style="fill-rule:evenodd;"
points="82516,26551
82516,26840
82539,26958
79502,26958
79529,26940
79588,26851
79609,26747
79609,26600
79704,26505
80472,26505
80495,26510
80518,26505
80518,26505
80587,26492
80665,26439
80679,26420
81075,26023
81988,26023
82516,26551
" /> 
<polyline style="fill-rule:evenodd;"
points="75055,21875
75055,22062
75076,22166
75135,22255
75206,22303
75206,22342
75135,22389
75108,22431
75098,22431
75051,22360
74962,22300
74857,22279
74670,22279
74565,22300
74476,22360
74417,22449
74396,22554
74396,22780
74417,22885
74476,22974
74527,23008
74527,23244
74522,23267
74527,23290
74527,23290
74541,23359
74593,23438
74613,23451
74750,23588
74750,24202
74771,24309
74832,24400
74922,24460
75029,24481
75836,24481
75943,24460
76033,24400
76094,24309
76115,24202
76115,23513
76094,23406
76033,23316
75943,23255
75836,23234
75064,23234
75000,23169
75000,23008
75051,22974
75096,22906
75135,22964
75224,23023
75329,23044
75556,23044
75661,23023
75749,22964
75787,22908
75824,22964
75893,23010
75891,23021
75895,23044
75895,23044
75909,23113
75961,23191
75981,23205
76299,23523
76299,24149
76294,24173
76299,24196
76299,24196
76312,24265
76365,24343
76384,24356
76745,24717
76758,24737
76778,24750
76778,24750
76836,24789
76836,24789
76905,24803
76905,24803
76929,24807
76952,24803
78205,24803
78228,24807
78251,24803
78251,24803
78320,24789
78398,24737
78411,24717
79034,24094
79740,24094
79763,24099
79787,24094
79787,24094
79855,24080
79934,24028
79947,24008
80173,23782
80295,23782
80402,23761
80492,23701
80534,23637
80584,23628
80662,23575
80675,23556
80725,23506
80746,23610
80806,23701
80897,23761
81003,23782
81200,23782
81307,23761
81339,23740
82533,23740
82541,23777
82612,23883
82718,23954
82844,23979
83533,23979
83651,23956
83651,24114
83533,24091
82844,24091
82718,24116
82612,24187
82541,24293
82533,24330
81716,24330
81692,24326
81669,24330
81669,24330
81600,24344
81522,24396
81509,24416
81398,24527
79639,24527
79616,24522
79592,24527
79592,24527
79523,24541
79445,24593
79432,24613
79256,24789
79109,24789
79004,24810
78915,24870
78881,24921
74511,24921
74488,24916
74464,24921
74464,24921
74396,24934
74317,24987
74304,25006
73557,25754
72864,25754
72757,25775
72666,25836
72606,25926
72585,26033
72585,26722
72606,26829
72666,26919
72725,26958
72253,26958
72253,22888
72311,22974
72362,23008
72362,23244
72357,23267
72362,23290
72362,23290
72375,23359
72428,23438
72447,23451
72585,23588
72585,24202
72606,24309
72666,24400
72757,24460
72864,24481
73671,24481
73778,24460
73868,24400
73929,24309
73950,24202
73950,23513
73929,23406
73868,23316
73778,23255
73671,23234
72899,23234
72834,23169
72834,23008
72885,22974
72931,22906
72970,22964
73059,23023
73164,23044
73390,23044
73495,23023
73584,22964
73622,22908
73659,22964
73748,23023
73853,23044
74079,23044
74184,23023
74273,22964
74332,22875
74353,22770
74353,22583
74332,22478
74273,22389
74202,22342
74202,22303
74273,22255
74332,22166
74353,22062
74353,21915
74438,21830
75064,21830
75055,21875
" /> 
<polyline style="fill-rule:evenodd;"
points="80397,26033
79629,26033
79606,26028
79603,26029
79609,25999
79609,25852
79684,25777
80653,25777
80397,26033
" /> 
<polyline style="fill-rule:evenodd;"
points="82541,24840
82612,24946
82718,25017
82844,25042
83533,25042
83651,25019
83651,25177
83533,25154
82844,25154
82718,25178
82612,25250
82575,25305
79609,25305
79599,25303
79609,25250
79609,25104
79713,25000
81472,25000
81496,25004
81519,25000
81519,25000
81588,24986
81666,24934
81679,24914
81790,24803
82533,24803
82541,24840
" /> 
<polyline style="fill-rule:evenodd;"
points="77220,21875
77220,22062
77241,22166
77301,22255
77372,22303
77372,22342
77301,22389
77286,22411
77250,22411
77216,22360
77127,22300
77022,22279
76835,22279
76730,22300
76641,22360
76582,22449
76561,22554
76561,22780
76582,22885
76641,22974
76692,23008
76692,23205
76688,23228
76691,23245
76686,23241
76420,22976
76438,22964
76498,22875
76519,22770
76519,22583
76498,22478
76438,22389
76368,22342
76368,22303
76438,22255
76498,22166
76519,22062
76519,21875
76510,21830
77229,21830
77220,21875
" /> 
<polyline style="fill-rule:evenodd;"
points="78792,21863
78806,21882
78884,21935
78953,21948
78953,21948
78956,21949
78995,22008
79086,22068
79192,22090
79389,22090
79496,22068
79587,22008
79626,21948
79720,21948
79720,22273
79745,22399
79817,22505
79923,22576
80049,22601
80344,22601
80470,22576
80484,22567
80256,22795
80003,22795
79980,22790
79957,22795
79957,22795
79888,22808
79810,22861
79796,22880
79575,23102
79496,23049
79389,23028
79247,23028
78746,22526
78733,22506
78655,22454
78646,22452
78604,22389
78533,22342
78533,22303
78604,22255
78663,22166
78684,22062
78684,21875
78675,21830
78760,21830
78792,21863
" /> 
<polyline style="fill-rule:evenodd;"
points="74000,21600
73853,21600
73748,21621
73659,21681
73622,21737
73584,21681
73495,21621
73390,21600
73164,21600
73059,21621
72970,21681
72911,21770
72890,21875
72890,22062
72911,22166
72970,22255
73041,22303
73041,22342
72970,22389
72942,22431
72933,22431
72885,22360
72796,22300
72691,22279
72504,22279
72400,22300
72311,22360
72253,22445
72253,21466
74134,21466
74000,21600
" /> 
</g> 
</svg>
