G04 #@! TF.GenerationSoftware,KiCad,Pcbnew,5.0.2+dfsg1-1*
G04 #@! TF.CreationDate,2020-07-10T14:10:22+02:00*
G04 #@! TF.ProjectId,HDTVii,48445456-6969-42e6-9b69-6361645f7063,rev?*
G04 #@! TF.SameCoordinates,Original*
G04 #@! TF.FileFunction,Copper,L1,Top*
G04 #@! TF.FilePolarity,Positive*
%FSLAX46Y46*%
G04 Gerber Fmt 4.6, Leading zero omitted, Abs format (unit mm)*
G04 Created by KiCad (PCBNEW 5.0.2+dfsg1-1) date Fri 10 Jul 2020 02:10:22 PM CEST*
%MOMM*%
%LPD*%
G01*
G04 APERTURE LIST*
G04 #@! TA.AperFunction,Conductor*
%ADD10C,0.100000*%
G04 #@! TD*
G04 #@! TA.AperFunction,SMDPad,CuDef*
%ADD11C,1.500000*%
G04 #@! TD*
G04 #@! TA.AperFunction,SMDPad,CuDef*
%ADD12C,1.000000*%
G04 #@! TD*
G04 #@! TA.AperFunction,SMDPad,CuDef*
%ADD13C,2.250000*%
G04 #@! TD*
G04 #@! TA.AperFunction,SMDPad,CuDef*
%ADD14C,0.950000*%
G04 #@! TD*
G04 #@! TA.AperFunction,ViaPad*
%ADD15C,0.800000*%
G04 #@! TD*
G04 #@! TA.AperFunction,Conductor*
%ADD16C,0.300000*%
G04 #@! TD*
G04 #@! TA.AperFunction,Conductor*
%ADD17C,0.400000*%
G04 #@! TD*
G04 APERTURE END LIST*
D10*
G04 #@! TO.N,GND*
G04 #@! TO.C,J9*
G36*
X206811756Y-66151806D02*
X206848159Y-66157206D01*
X206883857Y-66166147D01*
X206918506Y-66178545D01*
X206951774Y-66194280D01*
X206983339Y-66213199D01*
X207012897Y-66235121D01*
X207040165Y-66259835D01*
X207064879Y-66287103D01*
X207086801Y-66316661D01*
X207105720Y-66348226D01*
X207121455Y-66381494D01*
X207133853Y-66416143D01*
X207142794Y-66451841D01*
X207148194Y-66488244D01*
X207150000Y-66525000D01*
X207150000Y-68275000D01*
X207148194Y-68311756D01*
X207142794Y-68348159D01*
X207133853Y-68383857D01*
X207121455Y-68418506D01*
X207105720Y-68451774D01*
X207086801Y-68483339D01*
X207064879Y-68512897D01*
X207040165Y-68540165D01*
X207012897Y-68564879D01*
X206983339Y-68586801D01*
X206951774Y-68605720D01*
X206918506Y-68621455D01*
X206883857Y-68633853D01*
X206848159Y-68642794D01*
X206811756Y-68648194D01*
X206775000Y-68650000D01*
X206025000Y-68650000D01*
X205988244Y-68648194D01*
X205951841Y-68642794D01*
X205916143Y-68633853D01*
X205881494Y-68621455D01*
X205848226Y-68605720D01*
X205816661Y-68586801D01*
X205787103Y-68564879D01*
X205759835Y-68540165D01*
X205735121Y-68512897D01*
X205713199Y-68483339D01*
X205694280Y-68451774D01*
X205678545Y-68418506D01*
X205666147Y-68383857D01*
X205657206Y-68348159D01*
X205651806Y-68311756D01*
X205650000Y-68275000D01*
X205650000Y-66525000D01*
X205651806Y-66488244D01*
X205657206Y-66451841D01*
X205666147Y-66416143D01*
X205678545Y-66381494D01*
X205694280Y-66348226D01*
X205713199Y-66316661D01*
X205735121Y-66287103D01*
X205759835Y-66259835D01*
X205787103Y-66235121D01*
X205816661Y-66213199D01*
X205848226Y-66194280D01*
X205881494Y-66178545D01*
X205916143Y-66166147D01*
X205951841Y-66157206D01*
X205988244Y-66151806D01*
X206025000Y-66150000D01*
X206775000Y-66150000D01*
X206811756Y-66151806D01*
X206811756Y-66151806D01*
G37*
D11*
G04 #@! TD*
G04 #@! TO.P,J9,1*
G04 #@! TO.N,GND*
X206400000Y-67400000D03*
D10*
G04 #@! TO.N,YOut*
G04 #@! TO.C,J1*
G36*
X204111756Y-54451806D02*
X204148159Y-54457206D01*
X204183857Y-54466147D01*
X204218506Y-54478545D01*
X204251774Y-54494280D01*
X204283339Y-54513199D01*
X204312897Y-54535121D01*
X204340165Y-54559835D01*
X204364879Y-54587103D01*
X204386801Y-54616661D01*
X204405720Y-54648226D01*
X204421455Y-54681494D01*
X204433853Y-54716143D01*
X204442794Y-54751841D01*
X204448194Y-54788244D01*
X204450000Y-54825000D01*
X204450000Y-56575000D01*
X204448194Y-56611756D01*
X204442794Y-56648159D01*
X204433853Y-56683857D01*
X204421455Y-56718506D01*
X204405720Y-56751774D01*
X204386801Y-56783339D01*
X204364879Y-56812897D01*
X204340165Y-56840165D01*
X204312897Y-56864879D01*
X204283339Y-56886801D01*
X204251774Y-56905720D01*
X204218506Y-56921455D01*
X204183857Y-56933853D01*
X204148159Y-56942794D01*
X204111756Y-56948194D01*
X204075000Y-56950000D01*
X203325000Y-56950000D01*
X203288244Y-56948194D01*
X203251841Y-56942794D01*
X203216143Y-56933853D01*
X203181494Y-56921455D01*
X203148226Y-56905720D01*
X203116661Y-56886801D01*
X203087103Y-56864879D01*
X203059835Y-56840165D01*
X203035121Y-56812897D01*
X203013199Y-56783339D01*
X202994280Y-56751774D01*
X202978545Y-56718506D01*
X202966147Y-56683857D01*
X202957206Y-56648159D01*
X202951806Y-56611756D01*
X202950000Y-56575000D01*
X202950000Y-54825000D01*
X202951806Y-54788244D01*
X202957206Y-54751841D01*
X202966147Y-54716143D01*
X202978545Y-54681494D01*
X202994280Y-54648226D01*
X203013199Y-54616661D01*
X203035121Y-54587103D01*
X203059835Y-54559835D01*
X203087103Y-54535121D01*
X203116661Y-54513199D01*
X203148226Y-54494280D01*
X203181494Y-54478545D01*
X203216143Y-54466147D01*
X203251841Y-54457206D01*
X203288244Y-54451806D01*
X203325000Y-54450000D01*
X204075000Y-54450000D01*
X204111756Y-54451806D01*
X204111756Y-54451806D01*
G37*
D11*
G04 #@! TD*
G04 #@! TO.P,J1,1*
G04 #@! TO.N,YOut*
X203700000Y-55700000D03*
D10*
G04 #@! TO.N,PbOut*
G04 #@! TO.C,J2*
G36*
X206811756Y-54451806D02*
X206848159Y-54457206D01*
X206883857Y-54466147D01*
X206918506Y-54478545D01*
X206951774Y-54494280D01*
X206983339Y-54513199D01*
X207012897Y-54535121D01*
X207040165Y-54559835D01*
X207064879Y-54587103D01*
X207086801Y-54616661D01*
X207105720Y-54648226D01*
X207121455Y-54681494D01*
X207133853Y-54716143D01*
X207142794Y-54751841D01*
X207148194Y-54788244D01*
X207150000Y-54825000D01*
X207150000Y-56575000D01*
X207148194Y-56611756D01*
X207142794Y-56648159D01*
X207133853Y-56683857D01*
X207121455Y-56718506D01*
X207105720Y-56751774D01*
X207086801Y-56783339D01*
X207064879Y-56812897D01*
X207040165Y-56840165D01*
X207012897Y-56864879D01*
X206983339Y-56886801D01*
X206951774Y-56905720D01*
X206918506Y-56921455D01*
X206883857Y-56933853D01*
X206848159Y-56942794D01*
X206811756Y-56948194D01*
X206775000Y-56950000D01*
X206025000Y-56950000D01*
X205988244Y-56948194D01*
X205951841Y-56942794D01*
X205916143Y-56933853D01*
X205881494Y-56921455D01*
X205848226Y-56905720D01*
X205816661Y-56886801D01*
X205787103Y-56864879D01*
X205759835Y-56840165D01*
X205735121Y-56812897D01*
X205713199Y-56783339D01*
X205694280Y-56751774D01*
X205678545Y-56718506D01*
X205666147Y-56683857D01*
X205657206Y-56648159D01*
X205651806Y-56611756D01*
X205650000Y-56575000D01*
X205650000Y-54825000D01*
X205651806Y-54788244D01*
X205657206Y-54751841D01*
X205666147Y-54716143D01*
X205678545Y-54681494D01*
X205694280Y-54648226D01*
X205713199Y-54616661D01*
X205735121Y-54587103D01*
X205759835Y-54559835D01*
X205787103Y-54535121D01*
X205816661Y-54513199D01*
X205848226Y-54494280D01*
X205881494Y-54478545D01*
X205916143Y-54466147D01*
X205951841Y-54457206D01*
X205988244Y-54451806D01*
X206025000Y-54450000D01*
X206775000Y-54450000D01*
X206811756Y-54451806D01*
X206811756Y-54451806D01*
G37*
D11*
G04 #@! TD*
G04 #@! TO.P,J2,1*
G04 #@! TO.N,PbOut*
X206400000Y-55700000D03*
D10*
G04 #@! TO.N,PrOut*
G04 #@! TO.C,J3*
G36*
X209511756Y-54451806D02*
X209548159Y-54457206D01*
X209583857Y-54466147D01*
X209618506Y-54478545D01*
X209651774Y-54494280D01*
X209683339Y-54513199D01*
X209712897Y-54535121D01*
X209740165Y-54559835D01*
X209764879Y-54587103D01*
X209786801Y-54616661D01*
X209805720Y-54648226D01*
X209821455Y-54681494D01*
X209833853Y-54716143D01*
X209842794Y-54751841D01*
X209848194Y-54788244D01*
X209850000Y-54825000D01*
X209850000Y-56575000D01*
X209848194Y-56611756D01*
X209842794Y-56648159D01*
X209833853Y-56683857D01*
X209821455Y-56718506D01*
X209805720Y-56751774D01*
X209786801Y-56783339D01*
X209764879Y-56812897D01*
X209740165Y-56840165D01*
X209712897Y-56864879D01*
X209683339Y-56886801D01*
X209651774Y-56905720D01*
X209618506Y-56921455D01*
X209583857Y-56933853D01*
X209548159Y-56942794D01*
X209511756Y-56948194D01*
X209475000Y-56950000D01*
X208725000Y-56950000D01*
X208688244Y-56948194D01*
X208651841Y-56942794D01*
X208616143Y-56933853D01*
X208581494Y-56921455D01*
X208548226Y-56905720D01*
X208516661Y-56886801D01*
X208487103Y-56864879D01*
X208459835Y-56840165D01*
X208435121Y-56812897D01*
X208413199Y-56783339D01*
X208394280Y-56751774D01*
X208378545Y-56718506D01*
X208366147Y-56683857D01*
X208357206Y-56648159D01*
X208351806Y-56611756D01*
X208350000Y-56575000D01*
X208350000Y-54825000D01*
X208351806Y-54788244D01*
X208357206Y-54751841D01*
X208366147Y-54716143D01*
X208378545Y-54681494D01*
X208394280Y-54648226D01*
X208413199Y-54616661D01*
X208435121Y-54587103D01*
X208459835Y-54559835D01*
X208487103Y-54535121D01*
X208516661Y-54513199D01*
X208548226Y-54494280D01*
X208581494Y-54478545D01*
X208616143Y-54466147D01*
X208651841Y-54457206D01*
X208688244Y-54451806D01*
X208725000Y-54450000D01*
X209475000Y-54450000D01*
X209511756Y-54451806D01*
X209511756Y-54451806D01*
G37*
D11*
G04 #@! TD*
G04 #@! TO.P,J3,1*
G04 #@! TO.N,PrOut*
X209100000Y-55700000D03*
D10*
G04 #@! TO.N,MODE*
G04 #@! TO.C,J4*
G36*
X212211756Y-58951806D02*
X212248159Y-58957206D01*
X212283857Y-58966147D01*
X212318506Y-58978545D01*
X212351774Y-58994280D01*
X212383339Y-59013199D01*
X212412897Y-59035121D01*
X212440165Y-59059835D01*
X212464879Y-59087103D01*
X212486801Y-59116661D01*
X212505720Y-59148226D01*
X212521455Y-59181494D01*
X212533853Y-59216143D01*
X212542794Y-59251841D01*
X212548194Y-59288244D01*
X212550000Y-59325000D01*
X212550000Y-60075000D01*
X212548194Y-60111756D01*
X212542794Y-60148159D01*
X212533853Y-60183857D01*
X212521455Y-60218506D01*
X212505720Y-60251774D01*
X212486801Y-60283339D01*
X212464879Y-60312897D01*
X212440165Y-60340165D01*
X212412897Y-60364879D01*
X212383339Y-60386801D01*
X212351774Y-60405720D01*
X212318506Y-60421455D01*
X212283857Y-60433853D01*
X212248159Y-60442794D01*
X212211756Y-60448194D01*
X212175000Y-60450000D01*
X210425000Y-60450000D01*
X210388244Y-60448194D01*
X210351841Y-60442794D01*
X210316143Y-60433853D01*
X210281494Y-60421455D01*
X210248226Y-60405720D01*
X210216661Y-60386801D01*
X210187103Y-60364879D01*
X210159835Y-60340165D01*
X210135121Y-60312897D01*
X210113199Y-60283339D01*
X210094280Y-60251774D01*
X210078545Y-60218506D01*
X210066147Y-60183857D01*
X210057206Y-60148159D01*
X210051806Y-60111756D01*
X210050000Y-60075000D01*
X210050000Y-59325000D01*
X210051806Y-59288244D01*
X210057206Y-59251841D01*
X210066147Y-59216143D01*
X210078545Y-59181494D01*
X210094280Y-59148226D01*
X210113199Y-59116661D01*
X210135121Y-59087103D01*
X210159835Y-59059835D01*
X210187103Y-59035121D01*
X210216661Y-59013199D01*
X210248226Y-58994280D01*
X210281494Y-58978545D01*
X210316143Y-58966147D01*
X210351841Y-58957206D01*
X210388244Y-58951806D01*
X210425000Y-58950000D01*
X212175000Y-58950000D01*
X212211756Y-58951806D01*
X212211756Y-58951806D01*
G37*
D11*
G04 #@! TD*
G04 #@! TO.P,J4,1*
G04 #@! TO.N,MODE*
X211300000Y-59700000D03*
D10*
G04 #@! TO.N,AVE59*
G04 #@! TO.C,J6*
G36*
X212211756Y-64351806D02*
X212248159Y-64357206D01*
X212283857Y-64366147D01*
X212318506Y-64378545D01*
X212351774Y-64394280D01*
X212383339Y-64413199D01*
X212412897Y-64435121D01*
X212440165Y-64459835D01*
X212464879Y-64487103D01*
X212486801Y-64516661D01*
X212505720Y-64548226D01*
X212521455Y-64581494D01*
X212533853Y-64616143D01*
X212542794Y-64651841D01*
X212548194Y-64688244D01*
X212550000Y-64725000D01*
X212550000Y-65475000D01*
X212548194Y-65511756D01*
X212542794Y-65548159D01*
X212533853Y-65583857D01*
X212521455Y-65618506D01*
X212505720Y-65651774D01*
X212486801Y-65683339D01*
X212464879Y-65712897D01*
X212440165Y-65740165D01*
X212412897Y-65764879D01*
X212383339Y-65786801D01*
X212351774Y-65805720D01*
X212318506Y-65821455D01*
X212283857Y-65833853D01*
X212248159Y-65842794D01*
X212211756Y-65848194D01*
X212175000Y-65850000D01*
X210425000Y-65850000D01*
X210388244Y-65848194D01*
X210351841Y-65842794D01*
X210316143Y-65833853D01*
X210281494Y-65821455D01*
X210248226Y-65805720D01*
X210216661Y-65786801D01*
X210187103Y-65764879D01*
X210159835Y-65740165D01*
X210135121Y-65712897D01*
X210113199Y-65683339D01*
X210094280Y-65651774D01*
X210078545Y-65618506D01*
X210066147Y-65583857D01*
X210057206Y-65548159D01*
X210051806Y-65511756D01*
X210050000Y-65475000D01*
X210050000Y-64725000D01*
X210051806Y-64688244D01*
X210057206Y-64651841D01*
X210066147Y-64616143D01*
X210078545Y-64581494D01*
X210094280Y-64548226D01*
X210113199Y-64516661D01*
X210135121Y-64487103D01*
X210159835Y-64459835D01*
X210187103Y-64435121D01*
X210216661Y-64413199D01*
X210248226Y-64394280D01*
X210281494Y-64378545D01*
X210316143Y-64366147D01*
X210351841Y-64357206D01*
X210388244Y-64351806D01*
X210425000Y-64350000D01*
X212175000Y-64350000D01*
X212211756Y-64351806D01*
X212211756Y-64351806D01*
G37*
D11*
G04 #@! TD*
G04 #@! TO.P,J6,1*
G04 #@! TO.N,AVE59*
X211300000Y-65100000D03*
D10*
G04 #@! TO.N,AVE57*
G04 #@! TO.C,J7*
G36*
X212211756Y-67051806D02*
X212248159Y-67057206D01*
X212283857Y-67066147D01*
X212318506Y-67078545D01*
X212351774Y-67094280D01*
X212383339Y-67113199D01*
X212412897Y-67135121D01*
X212440165Y-67159835D01*
X212464879Y-67187103D01*
X212486801Y-67216661D01*
X212505720Y-67248226D01*
X212521455Y-67281494D01*
X212533853Y-67316143D01*
X212542794Y-67351841D01*
X212548194Y-67388244D01*
X212550000Y-67425000D01*
X212550000Y-68175000D01*
X212548194Y-68211756D01*
X212542794Y-68248159D01*
X212533853Y-68283857D01*
X212521455Y-68318506D01*
X212505720Y-68351774D01*
X212486801Y-68383339D01*
X212464879Y-68412897D01*
X212440165Y-68440165D01*
X212412897Y-68464879D01*
X212383339Y-68486801D01*
X212351774Y-68505720D01*
X212318506Y-68521455D01*
X212283857Y-68533853D01*
X212248159Y-68542794D01*
X212211756Y-68548194D01*
X212175000Y-68550000D01*
X210425000Y-68550000D01*
X210388244Y-68548194D01*
X210351841Y-68542794D01*
X210316143Y-68533853D01*
X210281494Y-68521455D01*
X210248226Y-68505720D01*
X210216661Y-68486801D01*
X210187103Y-68464879D01*
X210159835Y-68440165D01*
X210135121Y-68412897D01*
X210113199Y-68383339D01*
X210094280Y-68351774D01*
X210078545Y-68318506D01*
X210066147Y-68283857D01*
X210057206Y-68248159D01*
X210051806Y-68211756D01*
X210050000Y-68175000D01*
X210050000Y-67425000D01*
X210051806Y-67388244D01*
X210057206Y-67351841D01*
X210066147Y-67316143D01*
X210078545Y-67281494D01*
X210094280Y-67248226D01*
X210113199Y-67216661D01*
X210135121Y-67187103D01*
X210159835Y-67159835D01*
X210187103Y-67135121D01*
X210216661Y-67113199D01*
X210248226Y-67094280D01*
X210281494Y-67078545D01*
X210316143Y-67066147D01*
X210351841Y-67057206D01*
X210388244Y-67051806D01*
X210425000Y-67050000D01*
X212175000Y-67050000D01*
X212211756Y-67051806D01*
X212211756Y-67051806D01*
G37*
D11*
G04 #@! TD*
G04 #@! TO.P,J7,1*
G04 #@! TO.N,AVE57*
X211300000Y-67800000D03*
D10*
G04 #@! TO.N,AVE54*
G04 #@! TO.C,J8*
G36*
X212211756Y-61651806D02*
X212248159Y-61657206D01*
X212283857Y-61666147D01*
X212318506Y-61678545D01*
X212351774Y-61694280D01*
X212383339Y-61713199D01*
X212412897Y-61735121D01*
X212440165Y-61759835D01*
X212464879Y-61787103D01*
X212486801Y-61816661D01*
X212505720Y-61848226D01*
X212521455Y-61881494D01*
X212533853Y-61916143D01*
X212542794Y-61951841D01*
X212548194Y-61988244D01*
X212550000Y-62025000D01*
X212550000Y-62775000D01*
X212548194Y-62811756D01*
X212542794Y-62848159D01*
X212533853Y-62883857D01*
X212521455Y-62918506D01*
X212505720Y-62951774D01*
X212486801Y-62983339D01*
X212464879Y-63012897D01*
X212440165Y-63040165D01*
X212412897Y-63064879D01*
X212383339Y-63086801D01*
X212351774Y-63105720D01*
X212318506Y-63121455D01*
X212283857Y-63133853D01*
X212248159Y-63142794D01*
X212211756Y-63148194D01*
X212175000Y-63150000D01*
X210425000Y-63150000D01*
X210388244Y-63148194D01*
X210351841Y-63142794D01*
X210316143Y-63133853D01*
X210281494Y-63121455D01*
X210248226Y-63105720D01*
X210216661Y-63086801D01*
X210187103Y-63064879D01*
X210159835Y-63040165D01*
X210135121Y-63012897D01*
X210113199Y-62983339D01*
X210094280Y-62951774D01*
X210078545Y-62918506D01*
X210066147Y-62883857D01*
X210057206Y-62848159D01*
X210051806Y-62811756D01*
X210050000Y-62775000D01*
X210050000Y-62025000D01*
X210051806Y-61988244D01*
X210057206Y-61951841D01*
X210066147Y-61916143D01*
X210078545Y-61881494D01*
X210094280Y-61848226D01*
X210113199Y-61816661D01*
X210135121Y-61787103D01*
X210159835Y-61759835D01*
X210187103Y-61735121D01*
X210216661Y-61713199D01*
X210248226Y-61694280D01*
X210281494Y-61678545D01*
X210316143Y-61666147D01*
X210351841Y-61657206D01*
X210388244Y-61651806D01*
X210425000Y-61650000D01*
X212175000Y-61650000D01*
X212211756Y-61651806D01*
X212211756Y-61651806D01*
G37*
D11*
G04 #@! TD*
G04 #@! TO.P,J8,1*
G04 #@! TO.N,AVE54*
X211300000Y-62400000D03*
D10*
G04 #@! TO.N,MODE*
G04 #@! TO.C,J5*
G36*
X212211756Y-54451806D02*
X212248159Y-54457206D01*
X212283857Y-54466147D01*
X212318506Y-54478545D01*
X212351774Y-54494280D01*
X212383339Y-54513199D01*
X212412897Y-54535121D01*
X212440165Y-54559835D01*
X212464879Y-54587103D01*
X212486801Y-54616661D01*
X212505720Y-54648226D01*
X212521455Y-54681494D01*
X212533853Y-54716143D01*
X212542794Y-54751841D01*
X212548194Y-54788244D01*
X212550000Y-54825000D01*
X212550000Y-56575000D01*
X212548194Y-56611756D01*
X212542794Y-56648159D01*
X212533853Y-56683857D01*
X212521455Y-56718506D01*
X212505720Y-56751774D01*
X212486801Y-56783339D01*
X212464879Y-56812897D01*
X212440165Y-56840165D01*
X212412897Y-56864879D01*
X212383339Y-56886801D01*
X212351774Y-56905720D01*
X212318506Y-56921455D01*
X212283857Y-56933853D01*
X212248159Y-56942794D01*
X212211756Y-56948194D01*
X212175000Y-56950000D01*
X211425000Y-56950000D01*
X211388244Y-56948194D01*
X211351841Y-56942794D01*
X211316143Y-56933853D01*
X211281494Y-56921455D01*
X211248226Y-56905720D01*
X211216661Y-56886801D01*
X211187103Y-56864879D01*
X211159835Y-56840165D01*
X211135121Y-56812897D01*
X211113199Y-56783339D01*
X211094280Y-56751774D01*
X211078545Y-56718506D01*
X211066147Y-56683857D01*
X211057206Y-56648159D01*
X211051806Y-56611756D01*
X211050000Y-56575000D01*
X211050000Y-54825000D01*
X211051806Y-54788244D01*
X211057206Y-54751841D01*
X211066147Y-54716143D01*
X211078545Y-54681494D01*
X211094280Y-54648226D01*
X211113199Y-54616661D01*
X211135121Y-54587103D01*
X211159835Y-54559835D01*
X211187103Y-54535121D01*
X211216661Y-54513199D01*
X211248226Y-54494280D01*
X211281494Y-54478545D01*
X211316143Y-54466147D01*
X211351841Y-54457206D01*
X211388244Y-54451806D01*
X211425000Y-54450000D01*
X212175000Y-54450000D01*
X212211756Y-54451806D01*
X212211756Y-54451806D01*
G37*
D11*
G04 #@! TD*
G04 #@! TO.P,J5,1*
G04 #@! TO.N,MODE*
X211800000Y-55700000D03*
D10*
G04 #@! TO.N,MODE*
G04 #@! TO.C,D4*
G36*
X206274504Y-58951204D02*
X206298773Y-58954804D01*
X206322571Y-58960765D01*
X206345671Y-58969030D01*
X206367849Y-58979520D01*
X206388893Y-58992133D01*
X206408598Y-59006747D01*
X206426777Y-59023223D01*
X206443253Y-59041402D01*
X206457867Y-59061107D01*
X206470480Y-59082151D01*
X206480970Y-59104329D01*
X206489235Y-59127429D01*
X206495196Y-59151227D01*
X206498796Y-59175496D01*
X206500000Y-59200000D01*
X206500000Y-59700000D01*
X206498796Y-59724504D01*
X206495196Y-59748773D01*
X206489235Y-59772571D01*
X206480970Y-59795671D01*
X206470480Y-59817849D01*
X206457867Y-59838893D01*
X206443253Y-59858598D01*
X206426777Y-59876777D01*
X206408598Y-59893253D01*
X206388893Y-59907867D01*
X206367849Y-59920480D01*
X206345671Y-59930970D01*
X206322571Y-59939235D01*
X206298773Y-59945196D01*
X206274504Y-59948796D01*
X206250000Y-59950000D01*
X205750000Y-59950000D01*
X205725496Y-59948796D01*
X205701227Y-59945196D01*
X205677429Y-59939235D01*
X205654329Y-59930970D01*
X205632151Y-59920480D01*
X205611107Y-59907867D01*
X205591402Y-59893253D01*
X205573223Y-59876777D01*
X205556747Y-59858598D01*
X205542133Y-59838893D01*
X205529520Y-59817849D01*
X205519030Y-59795671D01*
X205510765Y-59772571D01*
X205504804Y-59748773D01*
X205501204Y-59724504D01*
X205500000Y-59700000D01*
X205500000Y-59200000D01*
X205501204Y-59175496D01*
X205504804Y-59151227D01*
X205510765Y-59127429D01*
X205519030Y-59104329D01*
X205529520Y-59082151D01*
X205542133Y-59061107D01*
X205556747Y-59041402D01*
X205573223Y-59023223D01*
X205591402Y-59006747D01*
X205611107Y-58992133D01*
X205632151Y-58979520D01*
X205654329Y-58969030D01*
X205677429Y-58960765D01*
X205701227Y-58954804D01*
X205725496Y-58951204D01*
X205750000Y-58950000D01*
X206250000Y-58950000D01*
X206274504Y-58951204D01*
X206274504Y-58951204D01*
G37*
D12*
G04 #@! TD*
G04 #@! TO.P,D4,1*
G04 #@! TO.N,MODE*
X206000000Y-59450000D03*
D10*
G04 #@! TO.N,GND*
G04 #@! TO.C,D4*
G36*
X206274504Y-61451204D02*
X206298773Y-61454804D01*
X206322571Y-61460765D01*
X206345671Y-61469030D01*
X206367849Y-61479520D01*
X206388893Y-61492133D01*
X206408598Y-61506747D01*
X206426777Y-61523223D01*
X206443253Y-61541402D01*
X206457867Y-61561107D01*
X206470480Y-61582151D01*
X206480970Y-61604329D01*
X206489235Y-61627429D01*
X206495196Y-61651227D01*
X206498796Y-61675496D01*
X206500000Y-61700000D01*
X206500000Y-62200000D01*
X206498796Y-62224504D01*
X206495196Y-62248773D01*
X206489235Y-62272571D01*
X206480970Y-62295671D01*
X206470480Y-62317849D01*
X206457867Y-62338893D01*
X206443253Y-62358598D01*
X206426777Y-62376777D01*
X206408598Y-62393253D01*
X206388893Y-62407867D01*
X206367849Y-62420480D01*
X206345671Y-62430970D01*
X206322571Y-62439235D01*
X206298773Y-62445196D01*
X206274504Y-62448796D01*
X206250000Y-62450000D01*
X205750000Y-62450000D01*
X205725496Y-62448796D01*
X205701227Y-62445196D01*
X205677429Y-62439235D01*
X205654329Y-62430970D01*
X205632151Y-62420480D01*
X205611107Y-62407867D01*
X205591402Y-62393253D01*
X205573223Y-62376777D01*
X205556747Y-62358598D01*
X205542133Y-62338893D01*
X205529520Y-62317849D01*
X205519030Y-62295671D01*
X205510765Y-62272571D01*
X205504804Y-62248773D01*
X205501204Y-62224504D01*
X205500000Y-62200000D01*
X205500000Y-61700000D01*
X205501204Y-61675496D01*
X205504804Y-61651227D01*
X205510765Y-61627429D01*
X205519030Y-61604329D01*
X205529520Y-61582151D01*
X205542133Y-61561107D01*
X205556747Y-61541402D01*
X205573223Y-61523223D01*
X205591402Y-61506747D01*
X205611107Y-61492133D01*
X205632151Y-61479520D01*
X205654329Y-61469030D01*
X205677429Y-61460765D01*
X205701227Y-61454804D01*
X205725496Y-61451204D01*
X205750000Y-61450000D01*
X206250000Y-61450000D01*
X206274504Y-61451204D01*
X206274504Y-61451204D01*
G37*
D12*
G04 #@! TD*
G04 #@! TO.P,D4,2*
G04 #@! TO.N,GND*
X206000000Y-61950000D03*
D10*
G04 #@! TO.N,AVE57*
G04 #@! TO.C,C64*
G36*
X198149505Y-65876204D02*
X198173773Y-65879804D01*
X198197572Y-65885765D01*
X198220671Y-65894030D01*
X198242850Y-65904520D01*
X198263893Y-65917132D01*
X198283599Y-65931747D01*
X198301777Y-65948223D01*
X198318253Y-65966401D01*
X198332868Y-65986107D01*
X198345480Y-66007150D01*
X198355970Y-66029329D01*
X198364235Y-66052428D01*
X198370196Y-66076227D01*
X198373796Y-66100495D01*
X198375000Y-66124999D01*
X198375000Y-67875001D01*
X198373796Y-67899505D01*
X198370196Y-67923773D01*
X198364235Y-67947572D01*
X198355970Y-67970671D01*
X198345480Y-67992850D01*
X198332868Y-68013893D01*
X198318253Y-68033599D01*
X198301777Y-68051777D01*
X198283599Y-68068253D01*
X198263893Y-68082868D01*
X198242850Y-68095480D01*
X198220671Y-68105970D01*
X198197572Y-68114235D01*
X198173773Y-68120196D01*
X198149505Y-68123796D01*
X198125001Y-68125000D01*
X196074999Y-68125000D01*
X196050495Y-68123796D01*
X196026227Y-68120196D01*
X196002428Y-68114235D01*
X195979329Y-68105970D01*
X195957150Y-68095480D01*
X195936107Y-68082868D01*
X195916401Y-68068253D01*
X195898223Y-68051777D01*
X195881747Y-68033599D01*
X195867132Y-68013893D01*
X195854520Y-67992850D01*
X195844030Y-67970671D01*
X195835765Y-67947572D01*
X195829804Y-67923773D01*
X195826204Y-67899505D01*
X195825000Y-67875001D01*
X195825000Y-66124999D01*
X195826204Y-66100495D01*
X195829804Y-66076227D01*
X195835765Y-66052428D01*
X195844030Y-66029329D01*
X195854520Y-66007150D01*
X195867132Y-65986107D01*
X195881747Y-65966401D01*
X195898223Y-65948223D01*
X195916401Y-65931747D01*
X195936107Y-65917132D01*
X195957150Y-65904520D01*
X195979329Y-65894030D01*
X196002428Y-65885765D01*
X196026227Y-65879804D01*
X196050495Y-65876204D01*
X196074999Y-65875000D01*
X198125001Y-65875000D01*
X198149505Y-65876204D01*
X198149505Y-65876204D01*
G37*
D13*
G04 #@! TD*
G04 #@! TO.P,C64,1*
G04 #@! TO.N,AVE57*
X197100000Y-67000000D03*
D10*
G04 #@! TO.N,Net-(C64-Pad2)*
G04 #@! TO.C,C64*
G36*
X198149505Y-59476204D02*
X198173773Y-59479804D01*
X198197572Y-59485765D01*
X198220671Y-59494030D01*
X198242850Y-59504520D01*
X198263893Y-59517132D01*
X198283599Y-59531747D01*
X198301777Y-59548223D01*
X198318253Y-59566401D01*
X198332868Y-59586107D01*
X198345480Y-59607150D01*
X198355970Y-59629329D01*
X198364235Y-59652428D01*
X198370196Y-59676227D01*
X198373796Y-59700495D01*
X198375000Y-59724999D01*
X198375000Y-61475001D01*
X198373796Y-61499505D01*
X198370196Y-61523773D01*
X198364235Y-61547572D01*
X198355970Y-61570671D01*
X198345480Y-61592850D01*
X198332868Y-61613893D01*
X198318253Y-61633599D01*
X198301777Y-61651777D01*
X198283599Y-61668253D01*
X198263893Y-61682868D01*
X198242850Y-61695480D01*
X198220671Y-61705970D01*
X198197572Y-61714235D01*
X198173773Y-61720196D01*
X198149505Y-61723796D01*
X198125001Y-61725000D01*
X196074999Y-61725000D01*
X196050495Y-61723796D01*
X196026227Y-61720196D01*
X196002428Y-61714235D01*
X195979329Y-61705970D01*
X195957150Y-61695480D01*
X195936107Y-61682868D01*
X195916401Y-61668253D01*
X195898223Y-61651777D01*
X195881747Y-61633599D01*
X195867132Y-61613893D01*
X195854520Y-61592850D01*
X195844030Y-61570671D01*
X195835765Y-61547572D01*
X195829804Y-61523773D01*
X195826204Y-61499505D01*
X195825000Y-61475001D01*
X195825000Y-59724999D01*
X195826204Y-59700495D01*
X195829804Y-59676227D01*
X195835765Y-59652428D01*
X195844030Y-59629329D01*
X195854520Y-59607150D01*
X195867132Y-59586107D01*
X195881747Y-59566401D01*
X195898223Y-59548223D01*
X195916401Y-59531747D01*
X195936107Y-59517132D01*
X195957150Y-59504520D01*
X195979329Y-59494030D01*
X196002428Y-59485765D01*
X196026227Y-59479804D01*
X196050495Y-59476204D01*
X196074999Y-59475000D01*
X198125001Y-59475000D01*
X198149505Y-59476204D01*
X198149505Y-59476204D01*
G37*
D13*
G04 #@! TD*
G04 #@! TO.P,C64,2*
G04 #@! TO.N,Net-(C64-Pad2)*
X197100000Y-60600000D03*
D10*
G04 #@! TO.N,Net-(C66-Pad1)*
G04 #@! TO.C,C69*
G36*
X192649505Y-59476204D02*
X192673773Y-59479804D01*
X192697572Y-59485765D01*
X192720671Y-59494030D01*
X192742850Y-59504520D01*
X192763893Y-59517132D01*
X192783599Y-59531747D01*
X192801777Y-59548223D01*
X192818253Y-59566401D01*
X192832868Y-59586107D01*
X192845480Y-59607150D01*
X192855970Y-59629329D01*
X192864235Y-59652428D01*
X192870196Y-59676227D01*
X192873796Y-59700495D01*
X192875000Y-59724999D01*
X192875000Y-61475001D01*
X192873796Y-61499505D01*
X192870196Y-61523773D01*
X192864235Y-61547572D01*
X192855970Y-61570671D01*
X192845480Y-61592850D01*
X192832868Y-61613893D01*
X192818253Y-61633599D01*
X192801777Y-61651777D01*
X192783599Y-61668253D01*
X192763893Y-61682868D01*
X192742850Y-61695480D01*
X192720671Y-61705970D01*
X192697572Y-61714235D01*
X192673773Y-61720196D01*
X192649505Y-61723796D01*
X192625001Y-61725000D01*
X190574999Y-61725000D01*
X190550495Y-61723796D01*
X190526227Y-61720196D01*
X190502428Y-61714235D01*
X190479329Y-61705970D01*
X190457150Y-61695480D01*
X190436107Y-61682868D01*
X190416401Y-61668253D01*
X190398223Y-61651777D01*
X190381747Y-61633599D01*
X190367132Y-61613893D01*
X190354520Y-61592850D01*
X190344030Y-61570671D01*
X190335765Y-61547572D01*
X190329804Y-61523773D01*
X190326204Y-61499505D01*
X190325000Y-61475001D01*
X190325000Y-59724999D01*
X190326204Y-59700495D01*
X190329804Y-59676227D01*
X190335765Y-59652428D01*
X190344030Y-59629329D01*
X190354520Y-59607150D01*
X190367132Y-59586107D01*
X190381747Y-59566401D01*
X190398223Y-59548223D01*
X190416401Y-59531747D01*
X190436107Y-59517132D01*
X190457150Y-59504520D01*
X190479329Y-59494030D01*
X190502428Y-59485765D01*
X190526227Y-59479804D01*
X190550495Y-59476204D01*
X190574999Y-59475000D01*
X192625001Y-59475000D01*
X192649505Y-59476204D01*
X192649505Y-59476204D01*
G37*
D13*
G04 #@! TD*
G04 #@! TO.P,C69,2*
G04 #@! TO.N,Net-(C66-Pad1)*
X191600000Y-60600000D03*
D10*
G04 #@! TO.N,AVE59*
G04 #@! TO.C,C69*
G36*
X192649505Y-65876204D02*
X192673773Y-65879804D01*
X192697572Y-65885765D01*
X192720671Y-65894030D01*
X192742850Y-65904520D01*
X192763893Y-65917132D01*
X192783599Y-65931747D01*
X192801777Y-65948223D01*
X192818253Y-65966401D01*
X192832868Y-65986107D01*
X192845480Y-66007150D01*
X192855970Y-66029329D01*
X192864235Y-66052428D01*
X192870196Y-66076227D01*
X192873796Y-66100495D01*
X192875000Y-66124999D01*
X192875000Y-67875001D01*
X192873796Y-67899505D01*
X192870196Y-67923773D01*
X192864235Y-67947572D01*
X192855970Y-67970671D01*
X192845480Y-67992850D01*
X192832868Y-68013893D01*
X192818253Y-68033599D01*
X192801777Y-68051777D01*
X192783599Y-68068253D01*
X192763893Y-68082868D01*
X192742850Y-68095480D01*
X192720671Y-68105970D01*
X192697572Y-68114235D01*
X192673773Y-68120196D01*
X192649505Y-68123796D01*
X192625001Y-68125000D01*
X190574999Y-68125000D01*
X190550495Y-68123796D01*
X190526227Y-68120196D01*
X190502428Y-68114235D01*
X190479329Y-68105970D01*
X190457150Y-68095480D01*
X190436107Y-68082868D01*
X190416401Y-68068253D01*
X190398223Y-68051777D01*
X190381747Y-68033599D01*
X190367132Y-68013893D01*
X190354520Y-67992850D01*
X190344030Y-67970671D01*
X190335765Y-67947572D01*
X190329804Y-67923773D01*
X190326204Y-67899505D01*
X190325000Y-67875001D01*
X190325000Y-66124999D01*
X190326204Y-66100495D01*
X190329804Y-66076227D01*
X190335765Y-66052428D01*
X190344030Y-66029329D01*
X190354520Y-66007150D01*
X190367132Y-65986107D01*
X190381747Y-65966401D01*
X190398223Y-65948223D01*
X190416401Y-65931747D01*
X190436107Y-65917132D01*
X190457150Y-65904520D01*
X190479329Y-65894030D01*
X190502428Y-65885765D01*
X190526227Y-65879804D01*
X190550495Y-65876204D01*
X190574999Y-65875000D01*
X192625001Y-65875000D01*
X192649505Y-65876204D01*
X192649505Y-65876204D01*
G37*
D13*
G04 #@! TD*
G04 #@! TO.P,C69,1*
G04 #@! TO.N,AVE59*
X191600000Y-67000000D03*
D10*
G04 #@! TO.N,AVE54*
G04 #@! TO.C,C84*
G36*
X187149505Y-65876204D02*
X187173773Y-65879804D01*
X187197572Y-65885765D01*
X187220671Y-65894030D01*
X187242850Y-65904520D01*
X187263893Y-65917132D01*
X187283599Y-65931747D01*
X187301777Y-65948223D01*
X187318253Y-65966401D01*
X187332868Y-65986107D01*
X187345480Y-66007150D01*
X187355970Y-66029329D01*
X187364235Y-66052428D01*
X187370196Y-66076227D01*
X187373796Y-66100495D01*
X187375000Y-66124999D01*
X187375000Y-67875001D01*
X187373796Y-67899505D01*
X187370196Y-67923773D01*
X187364235Y-67947572D01*
X187355970Y-67970671D01*
X187345480Y-67992850D01*
X187332868Y-68013893D01*
X187318253Y-68033599D01*
X187301777Y-68051777D01*
X187283599Y-68068253D01*
X187263893Y-68082868D01*
X187242850Y-68095480D01*
X187220671Y-68105970D01*
X187197572Y-68114235D01*
X187173773Y-68120196D01*
X187149505Y-68123796D01*
X187125001Y-68125000D01*
X185074999Y-68125000D01*
X185050495Y-68123796D01*
X185026227Y-68120196D01*
X185002428Y-68114235D01*
X184979329Y-68105970D01*
X184957150Y-68095480D01*
X184936107Y-68082868D01*
X184916401Y-68068253D01*
X184898223Y-68051777D01*
X184881747Y-68033599D01*
X184867132Y-68013893D01*
X184854520Y-67992850D01*
X184844030Y-67970671D01*
X184835765Y-67947572D01*
X184829804Y-67923773D01*
X184826204Y-67899505D01*
X184825000Y-67875001D01*
X184825000Y-66124999D01*
X184826204Y-66100495D01*
X184829804Y-66076227D01*
X184835765Y-66052428D01*
X184844030Y-66029329D01*
X184854520Y-66007150D01*
X184867132Y-65986107D01*
X184881747Y-65966401D01*
X184898223Y-65948223D01*
X184916401Y-65931747D01*
X184936107Y-65917132D01*
X184957150Y-65904520D01*
X184979329Y-65894030D01*
X185002428Y-65885765D01*
X185026227Y-65879804D01*
X185050495Y-65876204D01*
X185074999Y-65875000D01*
X187125001Y-65875000D01*
X187149505Y-65876204D01*
X187149505Y-65876204D01*
G37*
D13*
G04 #@! TD*
G04 #@! TO.P,C84,1*
G04 #@! TO.N,AVE54*
X186100000Y-67000000D03*
D10*
G04 #@! TO.N,Net-(C83-Pad1)*
G04 #@! TO.C,C84*
G36*
X187149505Y-59476204D02*
X187173773Y-59479804D01*
X187197572Y-59485765D01*
X187220671Y-59494030D01*
X187242850Y-59504520D01*
X187263893Y-59517132D01*
X187283599Y-59531747D01*
X187301777Y-59548223D01*
X187318253Y-59566401D01*
X187332868Y-59586107D01*
X187345480Y-59607150D01*
X187355970Y-59629329D01*
X187364235Y-59652428D01*
X187370196Y-59676227D01*
X187373796Y-59700495D01*
X187375000Y-59724999D01*
X187375000Y-61475001D01*
X187373796Y-61499505D01*
X187370196Y-61523773D01*
X187364235Y-61547572D01*
X187355970Y-61570671D01*
X187345480Y-61592850D01*
X187332868Y-61613893D01*
X187318253Y-61633599D01*
X187301777Y-61651777D01*
X187283599Y-61668253D01*
X187263893Y-61682868D01*
X187242850Y-61695480D01*
X187220671Y-61705970D01*
X187197572Y-61714235D01*
X187173773Y-61720196D01*
X187149505Y-61723796D01*
X187125001Y-61725000D01*
X185074999Y-61725000D01*
X185050495Y-61723796D01*
X185026227Y-61720196D01*
X185002428Y-61714235D01*
X184979329Y-61705970D01*
X184957150Y-61695480D01*
X184936107Y-61682868D01*
X184916401Y-61668253D01*
X184898223Y-61651777D01*
X184881747Y-61633599D01*
X184867132Y-61613893D01*
X184854520Y-61592850D01*
X184844030Y-61570671D01*
X184835765Y-61547572D01*
X184829804Y-61523773D01*
X184826204Y-61499505D01*
X184825000Y-61475001D01*
X184825000Y-59724999D01*
X184826204Y-59700495D01*
X184829804Y-59676227D01*
X184835765Y-59652428D01*
X184844030Y-59629329D01*
X184854520Y-59607150D01*
X184867132Y-59586107D01*
X184881747Y-59566401D01*
X184898223Y-59548223D01*
X184916401Y-59531747D01*
X184936107Y-59517132D01*
X184957150Y-59504520D01*
X184979329Y-59494030D01*
X185002428Y-59485765D01*
X185026227Y-59479804D01*
X185050495Y-59476204D01*
X185074999Y-59475000D01*
X187125001Y-59475000D01*
X187149505Y-59476204D01*
X187149505Y-59476204D01*
G37*
D13*
G04 #@! TD*
G04 #@! TO.P,C84,2*
G04 #@! TO.N,Net-(C83-Pad1)*
X186100000Y-60600000D03*
D10*
G04 #@! TO.N,YOut*
G04 #@! TO.C,D1*
G36*
X201674504Y-54651204D02*
X201698773Y-54654804D01*
X201722571Y-54660765D01*
X201745671Y-54669030D01*
X201767849Y-54679520D01*
X201788893Y-54692133D01*
X201808598Y-54706747D01*
X201826777Y-54723223D01*
X201843253Y-54741402D01*
X201857867Y-54761107D01*
X201870480Y-54782151D01*
X201880970Y-54804329D01*
X201889235Y-54827429D01*
X201895196Y-54851227D01*
X201898796Y-54875496D01*
X201900000Y-54900000D01*
X201900000Y-55400000D01*
X201898796Y-55424504D01*
X201895196Y-55448773D01*
X201889235Y-55472571D01*
X201880970Y-55495671D01*
X201870480Y-55517849D01*
X201857867Y-55538893D01*
X201843253Y-55558598D01*
X201826777Y-55576777D01*
X201808598Y-55593253D01*
X201788893Y-55607867D01*
X201767849Y-55620480D01*
X201745671Y-55630970D01*
X201722571Y-55639235D01*
X201698773Y-55645196D01*
X201674504Y-55648796D01*
X201650000Y-55650000D01*
X201150000Y-55650000D01*
X201125496Y-55648796D01*
X201101227Y-55645196D01*
X201077429Y-55639235D01*
X201054329Y-55630970D01*
X201032151Y-55620480D01*
X201011107Y-55607867D01*
X200991402Y-55593253D01*
X200973223Y-55576777D01*
X200956747Y-55558598D01*
X200942133Y-55538893D01*
X200929520Y-55517849D01*
X200919030Y-55495671D01*
X200910765Y-55472571D01*
X200904804Y-55448773D01*
X200901204Y-55424504D01*
X200900000Y-55400000D01*
X200900000Y-54900000D01*
X200901204Y-54875496D01*
X200904804Y-54851227D01*
X200910765Y-54827429D01*
X200919030Y-54804329D01*
X200929520Y-54782151D01*
X200942133Y-54761107D01*
X200956747Y-54741402D01*
X200973223Y-54723223D01*
X200991402Y-54706747D01*
X201011107Y-54692133D01*
X201032151Y-54679520D01*
X201054329Y-54669030D01*
X201077429Y-54660765D01*
X201101227Y-54654804D01*
X201125496Y-54651204D01*
X201150000Y-54650000D01*
X201650000Y-54650000D01*
X201674504Y-54651204D01*
X201674504Y-54651204D01*
G37*
D12*
G04 #@! TD*
G04 #@! TO.P,D1,1*
G04 #@! TO.N,YOut*
X201400000Y-55150000D03*
D10*
G04 #@! TO.N,GND*
G04 #@! TO.C,D1*
G36*
X201674504Y-57151204D02*
X201698773Y-57154804D01*
X201722571Y-57160765D01*
X201745671Y-57169030D01*
X201767849Y-57179520D01*
X201788893Y-57192133D01*
X201808598Y-57206747D01*
X201826777Y-57223223D01*
X201843253Y-57241402D01*
X201857867Y-57261107D01*
X201870480Y-57282151D01*
X201880970Y-57304329D01*
X201889235Y-57327429D01*
X201895196Y-57351227D01*
X201898796Y-57375496D01*
X201900000Y-57400000D01*
X201900000Y-57900000D01*
X201898796Y-57924504D01*
X201895196Y-57948773D01*
X201889235Y-57972571D01*
X201880970Y-57995671D01*
X201870480Y-58017849D01*
X201857867Y-58038893D01*
X201843253Y-58058598D01*
X201826777Y-58076777D01*
X201808598Y-58093253D01*
X201788893Y-58107867D01*
X201767849Y-58120480D01*
X201745671Y-58130970D01*
X201722571Y-58139235D01*
X201698773Y-58145196D01*
X201674504Y-58148796D01*
X201650000Y-58150000D01*
X201150000Y-58150000D01*
X201125496Y-58148796D01*
X201101227Y-58145196D01*
X201077429Y-58139235D01*
X201054329Y-58130970D01*
X201032151Y-58120480D01*
X201011107Y-58107867D01*
X200991402Y-58093253D01*
X200973223Y-58076777D01*
X200956747Y-58058598D01*
X200942133Y-58038893D01*
X200929520Y-58017849D01*
X200919030Y-57995671D01*
X200910765Y-57972571D01*
X200904804Y-57948773D01*
X200901204Y-57924504D01*
X200900000Y-57900000D01*
X200900000Y-57400000D01*
X200901204Y-57375496D01*
X200904804Y-57351227D01*
X200910765Y-57327429D01*
X200919030Y-57304329D01*
X200929520Y-57282151D01*
X200942133Y-57261107D01*
X200956747Y-57241402D01*
X200973223Y-57223223D01*
X200991402Y-57206747D01*
X201011107Y-57192133D01*
X201032151Y-57179520D01*
X201054329Y-57169030D01*
X201077429Y-57160765D01*
X201101227Y-57154804D01*
X201125496Y-57151204D01*
X201150000Y-57150000D01*
X201650000Y-57150000D01*
X201674504Y-57151204D01*
X201674504Y-57151204D01*
G37*
D12*
G04 #@! TD*
G04 #@! TO.P,D1,2*
G04 #@! TO.N,GND*
X201400000Y-57650000D03*
D10*
G04 #@! TO.N,GND*
G04 #@! TO.C,D2*
G36*
X201674504Y-61451204D02*
X201698773Y-61454804D01*
X201722571Y-61460765D01*
X201745671Y-61469030D01*
X201767849Y-61479520D01*
X201788893Y-61492133D01*
X201808598Y-61506747D01*
X201826777Y-61523223D01*
X201843253Y-61541402D01*
X201857867Y-61561107D01*
X201870480Y-61582151D01*
X201880970Y-61604329D01*
X201889235Y-61627429D01*
X201895196Y-61651227D01*
X201898796Y-61675496D01*
X201900000Y-61700000D01*
X201900000Y-62200000D01*
X201898796Y-62224504D01*
X201895196Y-62248773D01*
X201889235Y-62272571D01*
X201880970Y-62295671D01*
X201870480Y-62317849D01*
X201857867Y-62338893D01*
X201843253Y-62358598D01*
X201826777Y-62376777D01*
X201808598Y-62393253D01*
X201788893Y-62407867D01*
X201767849Y-62420480D01*
X201745671Y-62430970D01*
X201722571Y-62439235D01*
X201698773Y-62445196D01*
X201674504Y-62448796D01*
X201650000Y-62450000D01*
X201150000Y-62450000D01*
X201125496Y-62448796D01*
X201101227Y-62445196D01*
X201077429Y-62439235D01*
X201054329Y-62430970D01*
X201032151Y-62420480D01*
X201011107Y-62407867D01*
X200991402Y-62393253D01*
X200973223Y-62376777D01*
X200956747Y-62358598D01*
X200942133Y-62338893D01*
X200929520Y-62317849D01*
X200919030Y-62295671D01*
X200910765Y-62272571D01*
X200904804Y-62248773D01*
X200901204Y-62224504D01*
X200900000Y-62200000D01*
X200900000Y-61700000D01*
X200901204Y-61675496D01*
X200904804Y-61651227D01*
X200910765Y-61627429D01*
X200919030Y-61604329D01*
X200929520Y-61582151D01*
X200942133Y-61561107D01*
X200956747Y-61541402D01*
X200973223Y-61523223D01*
X200991402Y-61506747D01*
X201011107Y-61492133D01*
X201032151Y-61479520D01*
X201054329Y-61469030D01*
X201077429Y-61460765D01*
X201101227Y-61454804D01*
X201125496Y-61451204D01*
X201150000Y-61450000D01*
X201650000Y-61450000D01*
X201674504Y-61451204D01*
X201674504Y-61451204D01*
G37*
D12*
G04 #@! TD*
G04 #@! TO.P,D2,2*
G04 #@! TO.N,GND*
X201400000Y-61950000D03*
D10*
G04 #@! TO.N,PbOut*
G04 #@! TO.C,D2*
G36*
X201674504Y-58951204D02*
X201698773Y-58954804D01*
X201722571Y-58960765D01*
X201745671Y-58969030D01*
X201767849Y-58979520D01*
X201788893Y-58992133D01*
X201808598Y-59006747D01*
X201826777Y-59023223D01*
X201843253Y-59041402D01*
X201857867Y-59061107D01*
X201870480Y-59082151D01*
X201880970Y-59104329D01*
X201889235Y-59127429D01*
X201895196Y-59151227D01*
X201898796Y-59175496D01*
X201900000Y-59200000D01*
X201900000Y-59700000D01*
X201898796Y-59724504D01*
X201895196Y-59748773D01*
X201889235Y-59772571D01*
X201880970Y-59795671D01*
X201870480Y-59817849D01*
X201857867Y-59838893D01*
X201843253Y-59858598D01*
X201826777Y-59876777D01*
X201808598Y-59893253D01*
X201788893Y-59907867D01*
X201767849Y-59920480D01*
X201745671Y-59930970D01*
X201722571Y-59939235D01*
X201698773Y-59945196D01*
X201674504Y-59948796D01*
X201650000Y-59950000D01*
X201150000Y-59950000D01*
X201125496Y-59948796D01*
X201101227Y-59945196D01*
X201077429Y-59939235D01*
X201054329Y-59930970D01*
X201032151Y-59920480D01*
X201011107Y-59907867D01*
X200991402Y-59893253D01*
X200973223Y-59876777D01*
X200956747Y-59858598D01*
X200942133Y-59838893D01*
X200929520Y-59817849D01*
X200919030Y-59795671D01*
X200910765Y-59772571D01*
X200904804Y-59748773D01*
X200901204Y-59724504D01*
X200900000Y-59700000D01*
X200900000Y-59200000D01*
X200901204Y-59175496D01*
X200904804Y-59151227D01*
X200910765Y-59127429D01*
X200919030Y-59104329D01*
X200929520Y-59082151D01*
X200942133Y-59061107D01*
X200956747Y-59041402D01*
X200973223Y-59023223D01*
X200991402Y-59006747D01*
X201011107Y-58992133D01*
X201032151Y-58979520D01*
X201054329Y-58969030D01*
X201077429Y-58960765D01*
X201101227Y-58954804D01*
X201125496Y-58951204D01*
X201150000Y-58950000D01*
X201650000Y-58950000D01*
X201674504Y-58951204D01*
X201674504Y-58951204D01*
G37*
D12*
G04 #@! TD*
G04 #@! TO.P,D2,1*
G04 #@! TO.N,PbOut*
X201400000Y-59450000D03*
D10*
G04 #@! TO.N,PrOut*
G04 #@! TO.C,D3*
G36*
X203974504Y-58951204D02*
X203998773Y-58954804D01*
X204022571Y-58960765D01*
X204045671Y-58969030D01*
X204067849Y-58979520D01*
X204088893Y-58992133D01*
X204108598Y-59006747D01*
X204126777Y-59023223D01*
X204143253Y-59041402D01*
X204157867Y-59061107D01*
X204170480Y-59082151D01*
X204180970Y-59104329D01*
X204189235Y-59127429D01*
X204195196Y-59151227D01*
X204198796Y-59175496D01*
X204200000Y-59200000D01*
X204200000Y-59700000D01*
X204198796Y-59724504D01*
X204195196Y-59748773D01*
X204189235Y-59772571D01*
X204180970Y-59795671D01*
X204170480Y-59817849D01*
X204157867Y-59838893D01*
X204143253Y-59858598D01*
X204126777Y-59876777D01*
X204108598Y-59893253D01*
X204088893Y-59907867D01*
X204067849Y-59920480D01*
X204045671Y-59930970D01*
X204022571Y-59939235D01*
X203998773Y-59945196D01*
X203974504Y-59948796D01*
X203950000Y-59950000D01*
X203450000Y-59950000D01*
X203425496Y-59948796D01*
X203401227Y-59945196D01*
X203377429Y-59939235D01*
X203354329Y-59930970D01*
X203332151Y-59920480D01*
X203311107Y-59907867D01*
X203291402Y-59893253D01*
X203273223Y-59876777D01*
X203256747Y-59858598D01*
X203242133Y-59838893D01*
X203229520Y-59817849D01*
X203219030Y-59795671D01*
X203210765Y-59772571D01*
X203204804Y-59748773D01*
X203201204Y-59724504D01*
X203200000Y-59700000D01*
X203200000Y-59200000D01*
X203201204Y-59175496D01*
X203204804Y-59151227D01*
X203210765Y-59127429D01*
X203219030Y-59104329D01*
X203229520Y-59082151D01*
X203242133Y-59061107D01*
X203256747Y-59041402D01*
X203273223Y-59023223D01*
X203291402Y-59006747D01*
X203311107Y-58992133D01*
X203332151Y-58979520D01*
X203354329Y-58969030D01*
X203377429Y-58960765D01*
X203401227Y-58954804D01*
X203425496Y-58951204D01*
X203450000Y-58950000D01*
X203950000Y-58950000D01*
X203974504Y-58951204D01*
X203974504Y-58951204D01*
G37*
D12*
G04 #@! TD*
G04 #@! TO.P,D3,1*
G04 #@! TO.N,PrOut*
X203700000Y-59450000D03*
D10*
G04 #@! TO.N,GND*
G04 #@! TO.C,D3*
G36*
X203974504Y-61451204D02*
X203998773Y-61454804D01*
X204022571Y-61460765D01*
X204045671Y-61469030D01*
X204067849Y-61479520D01*
X204088893Y-61492133D01*
X204108598Y-61506747D01*
X204126777Y-61523223D01*
X204143253Y-61541402D01*
X204157867Y-61561107D01*
X204170480Y-61582151D01*
X204180970Y-61604329D01*
X204189235Y-61627429D01*
X204195196Y-61651227D01*
X204198796Y-61675496D01*
X204200000Y-61700000D01*
X204200000Y-62200000D01*
X204198796Y-62224504D01*
X204195196Y-62248773D01*
X204189235Y-62272571D01*
X204180970Y-62295671D01*
X204170480Y-62317849D01*
X204157867Y-62338893D01*
X204143253Y-62358598D01*
X204126777Y-62376777D01*
X204108598Y-62393253D01*
X204088893Y-62407867D01*
X204067849Y-62420480D01*
X204045671Y-62430970D01*
X204022571Y-62439235D01*
X203998773Y-62445196D01*
X203974504Y-62448796D01*
X203950000Y-62450000D01*
X203450000Y-62450000D01*
X203425496Y-62448796D01*
X203401227Y-62445196D01*
X203377429Y-62439235D01*
X203354329Y-62430970D01*
X203332151Y-62420480D01*
X203311107Y-62407867D01*
X203291402Y-62393253D01*
X203273223Y-62376777D01*
X203256747Y-62358598D01*
X203242133Y-62338893D01*
X203229520Y-62317849D01*
X203219030Y-62295671D01*
X203210765Y-62272571D01*
X203204804Y-62248773D01*
X203201204Y-62224504D01*
X203200000Y-62200000D01*
X203200000Y-61700000D01*
X203201204Y-61675496D01*
X203204804Y-61651227D01*
X203210765Y-61627429D01*
X203219030Y-61604329D01*
X203229520Y-61582151D01*
X203242133Y-61561107D01*
X203256747Y-61541402D01*
X203273223Y-61523223D01*
X203291402Y-61506747D01*
X203311107Y-61492133D01*
X203332151Y-61479520D01*
X203354329Y-61469030D01*
X203377429Y-61460765D01*
X203401227Y-61454804D01*
X203425496Y-61451204D01*
X203450000Y-61450000D01*
X203950000Y-61450000D01*
X203974504Y-61451204D01*
X203974504Y-61451204D01*
G37*
D12*
G04 #@! TD*
G04 #@! TO.P,D3,2*
G04 #@! TO.N,GND*
X203700000Y-61950000D03*
D10*
G04 #@! TO.N,Net-(C83-Pad1)*
G04 #@! TO.C,C85*
G36*
X184660779Y-57051144D02*
X184683834Y-57054563D01*
X184706443Y-57060227D01*
X184728387Y-57068079D01*
X184749457Y-57078044D01*
X184769448Y-57090026D01*
X184788168Y-57103910D01*
X184805438Y-57119562D01*
X184821090Y-57136832D01*
X184834974Y-57155552D01*
X184846956Y-57175543D01*
X184856921Y-57196613D01*
X184864773Y-57218557D01*
X184870437Y-57241166D01*
X184873856Y-57264221D01*
X184875000Y-57287500D01*
X184875000Y-57862500D01*
X184873856Y-57885779D01*
X184870437Y-57908834D01*
X184864773Y-57931443D01*
X184856921Y-57953387D01*
X184846956Y-57974457D01*
X184834974Y-57994448D01*
X184821090Y-58013168D01*
X184805438Y-58030438D01*
X184788168Y-58046090D01*
X184769448Y-58059974D01*
X184749457Y-58071956D01*
X184728387Y-58081921D01*
X184706443Y-58089773D01*
X184683834Y-58095437D01*
X184660779Y-58098856D01*
X184637500Y-58100000D01*
X184162500Y-58100000D01*
X184139221Y-58098856D01*
X184116166Y-58095437D01*
X184093557Y-58089773D01*
X184071613Y-58081921D01*
X184050543Y-58071956D01*
X184030552Y-58059974D01*
X184011832Y-58046090D01*
X183994562Y-58030438D01*
X183978910Y-58013168D01*
X183965026Y-57994448D01*
X183953044Y-57974457D01*
X183943079Y-57953387D01*
X183935227Y-57931443D01*
X183929563Y-57908834D01*
X183926144Y-57885779D01*
X183925000Y-57862500D01*
X183925000Y-57287500D01*
X183926144Y-57264221D01*
X183929563Y-57241166D01*
X183935227Y-57218557D01*
X183943079Y-57196613D01*
X183953044Y-57175543D01*
X183965026Y-57155552D01*
X183978910Y-57136832D01*
X183994562Y-57119562D01*
X184011832Y-57103910D01*
X184030552Y-57090026D01*
X184050543Y-57078044D01*
X184071613Y-57068079D01*
X184093557Y-57060227D01*
X184116166Y-57054563D01*
X184139221Y-57051144D01*
X184162500Y-57050000D01*
X184637500Y-57050000D01*
X184660779Y-57051144D01*
X184660779Y-57051144D01*
G37*
D14*
G04 #@! TD*
G04 #@! TO.P,C85,2*
G04 #@! TO.N,Net-(C83-Pad1)*
X184400000Y-57575000D03*
D10*
G04 #@! TO.N,GND*
G04 #@! TO.C,C85*
G36*
X184660779Y-55301144D02*
X184683834Y-55304563D01*
X184706443Y-55310227D01*
X184728387Y-55318079D01*
X184749457Y-55328044D01*
X184769448Y-55340026D01*
X184788168Y-55353910D01*
X184805438Y-55369562D01*
X184821090Y-55386832D01*
X184834974Y-55405552D01*
X184846956Y-55425543D01*
X184856921Y-55446613D01*
X184864773Y-55468557D01*
X184870437Y-55491166D01*
X184873856Y-55514221D01*
X184875000Y-55537500D01*
X184875000Y-56112500D01*
X184873856Y-56135779D01*
X184870437Y-56158834D01*
X184864773Y-56181443D01*
X184856921Y-56203387D01*
X184846956Y-56224457D01*
X184834974Y-56244448D01*
X184821090Y-56263168D01*
X184805438Y-56280438D01*
X184788168Y-56296090D01*
X184769448Y-56309974D01*
X184749457Y-56321956D01*
X184728387Y-56331921D01*
X184706443Y-56339773D01*
X184683834Y-56345437D01*
X184660779Y-56348856D01*
X184637500Y-56350000D01*
X184162500Y-56350000D01*
X184139221Y-56348856D01*
X184116166Y-56345437D01*
X184093557Y-56339773D01*
X184071613Y-56331921D01*
X184050543Y-56321956D01*
X184030552Y-56309974D01*
X184011832Y-56296090D01*
X183994562Y-56280438D01*
X183978910Y-56263168D01*
X183965026Y-56244448D01*
X183953044Y-56224457D01*
X183943079Y-56203387D01*
X183935227Y-56181443D01*
X183929563Y-56158834D01*
X183926144Y-56135779D01*
X183925000Y-56112500D01*
X183925000Y-55537500D01*
X183926144Y-55514221D01*
X183929563Y-55491166D01*
X183935227Y-55468557D01*
X183943079Y-55446613D01*
X183953044Y-55425543D01*
X183965026Y-55405552D01*
X183978910Y-55386832D01*
X183994562Y-55369562D01*
X184011832Y-55353910D01*
X184030552Y-55340026D01*
X184050543Y-55328044D01*
X184071613Y-55318079D01*
X184093557Y-55310227D01*
X184116166Y-55304563D01*
X184139221Y-55301144D01*
X184162500Y-55300000D01*
X184637500Y-55300000D01*
X184660779Y-55301144D01*
X184660779Y-55301144D01*
G37*
D14*
G04 #@! TD*
G04 #@! TO.P,C85,1*
G04 #@! TO.N,GND*
X184400000Y-55825000D03*
D10*
G04 #@! TO.N,Net-(C83-Pad1)*
G04 #@! TO.C,C83*
G36*
X186435779Y-55326144D02*
X186458834Y-55329563D01*
X186481443Y-55335227D01*
X186503387Y-55343079D01*
X186524457Y-55353044D01*
X186544448Y-55365026D01*
X186563168Y-55378910D01*
X186580438Y-55394562D01*
X186596090Y-55411832D01*
X186609974Y-55430552D01*
X186621956Y-55450543D01*
X186631921Y-55471613D01*
X186639773Y-55493557D01*
X186645437Y-55516166D01*
X186648856Y-55539221D01*
X186650000Y-55562500D01*
X186650000Y-56037500D01*
X186648856Y-56060779D01*
X186645437Y-56083834D01*
X186639773Y-56106443D01*
X186631921Y-56128387D01*
X186621956Y-56149457D01*
X186609974Y-56169448D01*
X186596090Y-56188168D01*
X186580438Y-56205438D01*
X186563168Y-56221090D01*
X186544448Y-56234974D01*
X186524457Y-56246956D01*
X186503387Y-56256921D01*
X186481443Y-56264773D01*
X186458834Y-56270437D01*
X186435779Y-56273856D01*
X186412500Y-56275000D01*
X185837500Y-56275000D01*
X185814221Y-56273856D01*
X185791166Y-56270437D01*
X185768557Y-56264773D01*
X185746613Y-56256921D01*
X185725543Y-56246956D01*
X185705552Y-56234974D01*
X185686832Y-56221090D01*
X185669562Y-56205438D01*
X185653910Y-56188168D01*
X185640026Y-56169448D01*
X185628044Y-56149457D01*
X185618079Y-56128387D01*
X185610227Y-56106443D01*
X185604563Y-56083834D01*
X185601144Y-56060779D01*
X185600000Y-56037500D01*
X185600000Y-55562500D01*
X185601144Y-55539221D01*
X185604563Y-55516166D01*
X185610227Y-55493557D01*
X185618079Y-55471613D01*
X185628044Y-55450543D01*
X185640026Y-55430552D01*
X185653910Y-55411832D01*
X185669562Y-55394562D01*
X185686832Y-55378910D01*
X185705552Y-55365026D01*
X185725543Y-55353044D01*
X185746613Y-55343079D01*
X185768557Y-55335227D01*
X185791166Y-55329563D01*
X185814221Y-55326144D01*
X185837500Y-55325000D01*
X186412500Y-55325000D01*
X186435779Y-55326144D01*
X186435779Y-55326144D01*
G37*
D14*
G04 #@! TD*
G04 #@! TO.P,C83,1*
G04 #@! TO.N,Net-(C83-Pad1)*
X186125000Y-55800000D03*
D10*
G04 #@! TO.N,YOut*
G04 #@! TO.C,C83*
G36*
X188185779Y-55326144D02*
X188208834Y-55329563D01*
X188231443Y-55335227D01*
X188253387Y-55343079D01*
X188274457Y-55353044D01*
X188294448Y-55365026D01*
X188313168Y-55378910D01*
X188330438Y-55394562D01*
X188346090Y-55411832D01*
X188359974Y-55430552D01*
X188371956Y-55450543D01*
X188381921Y-55471613D01*
X188389773Y-55493557D01*
X188395437Y-55516166D01*
X188398856Y-55539221D01*
X188400000Y-55562500D01*
X188400000Y-56037500D01*
X188398856Y-56060779D01*
X188395437Y-56083834D01*
X188389773Y-56106443D01*
X188381921Y-56128387D01*
X188371956Y-56149457D01*
X188359974Y-56169448D01*
X188346090Y-56188168D01*
X188330438Y-56205438D01*
X188313168Y-56221090D01*
X188294448Y-56234974D01*
X188274457Y-56246956D01*
X188253387Y-56256921D01*
X188231443Y-56264773D01*
X188208834Y-56270437D01*
X188185779Y-56273856D01*
X188162500Y-56275000D01*
X187587500Y-56275000D01*
X187564221Y-56273856D01*
X187541166Y-56270437D01*
X187518557Y-56264773D01*
X187496613Y-56256921D01*
X187475543Y-56246956D01*
X187455552Y-56234974D01*
X187436832Y-56221090D01*
X187419562Y-56205438D01*
X187403910Y-56188168D01*
X187390026Y-56169448D01*
X187378044Y-56149457D01*
X187368079Y-56128387D01*
X187360227Y-56106443D01*
X187354563Y-56083834D01*
X187351144Y-56060779D01*
X187350000Y-56037500D01*
X187350000Y-55562500D01*
X187351144Y-55539221D01*
X187354563Y-55516166D01*
X187360227Y-55493557D01*
X187368079Y-55471613D01*
X187378044Y-55450543D01*
X187390026Y-55430552D01*
X187403910Y-55411832D01*
X187419562Y-55394562D01*
X187436832Y-55378910D01*
X187455552Y-55365026D01*
X187475543Y-55353044D01*
X187496613Y-55343079D01*
X187518557Y-55335227D01*
X187541166Y-55329563D01*
X187564221Y-55326144D01*
X187587500Y-55325000D01*
X188162500Y-55325000D01*
X188185779Y-55326144D01*
X188185779Y-55326144D01*
G37*
D14*
G04 #@! TD*
G04 #@! TO.P,C83,2*
G04 #@! TO.N,YOut*
X187875000Y-55800000D03*
D10*
G04 #@! TO.N,Net-(C64-Pad2)*
G04 #@! TO.C,C78*
G36*
X195660779Y-57051144D02*
X195683834Y-57054563D01*
X195706443Y-57060227D01*
X195728387Y-57068079D01*
X195749457Y-57078044D01*
X195769448Y-57090026D01*
X195788168Y-57103910D01*
X195805438Y-57119562D01*
X195821090Y-57136832D01*
X195834974Y-57155552D01*
X195846956Y-57175543D01*
X195856921Y-57196613D01*
X195864773Y-57218557D01*
X195870437Y-57241166D01*
X195873856Y-57264221D01*
X195875000Y-57287500D01*
X195875000Y-57862500D01*
X195873856Y-57885779D01*
X195870437Y-57908834D01*
X195864773Y-57931443D01*
X195856921Y-57953387D01*
X195846956Y-57974457D01*
X195834974Y-57994448D01*
X195821090Y-58013168D01*
X195805438Y-58030438D01*
X195788168Y-58046090D01*
X195769448Y-58059974D01*
X195749457Y-58071956D01*
X195728387Y-58081921D01*
X195706443Y-58089773D01*
X195683834Y-58095437D01*
X195660779Y-58098856D01*
X195637500Y-58100000D01*
X195162500Y-58100000D01*
X195139221Y-58098856D01*
X195116166Y-58095437D01*
X195093557Y-58089773D01*
X195071613Y-58081921D01*
X195050543Y-58071956D01*
X195030552Y-58059974D01*
X195011832Y-58046090D01*
X194994562Y-58030438D01*
X194978910Y-58013168D01*
X194965026Y-57994448D01*
X194953044Y-57974457D01*
X194943079Y-57953387D01*
X194935227Y-57931443D01*
X194929563Y-57908834D01*
X194926144Y-57885779D01*
X194925000Y-57862500D01*
X194925000Y-57287500D01*
X194926144Y-57264221D01*
X194929563Y-57241166D01*
X194935227Y-57218557D01*
X194943079Y-57196613D01*
X194953044Y-57175543D01*
X194965026Y-57155552D01*
X194978910Y-57136832D01*
X194994562Y-57119562D01*
X195011832Y-57103910D01*
X195030552Y-57090026D01*
X195050543Y-57078044D01*
X195071613Y-57068079D01*
X195093557Y-57060227D01*
X195116166Y-57054563D01*
X195139221Y-57051144D01*
X195162500Y-57050000D01*
X195637500Y-57050000D01*
X195660779Y-57051144D01*
X195660779Y-57051144D01*
G37*
D14*
G04 #@! TD*
G04 #@! TO.P,C78,2*
G04 #@! TO.N,Net-(C64-Pad2)*
X195400000Y-57575000D03*
D10*
G04 #@! TO.N,GND*
G04 #@! TO.C,C78*
G36*
X195660779Y-55301144D02*
X195683834Y-55304563D01*
X195706443Y-55310227D01*
X195728387Y-55318079D01*
X195749457Y-55328044D01*
X195769448Y-55340026D01*
X195788168Y-55353910D01*
X195805438Y-55369562D01*
X195821090Y-55386832D01*
X195834974Y-55405552D01*
X195846956Y-55425543D01*
X195856921Y-55446613D01*
X195864773Y-55468557D01*
X195870437Y-55491166D01*
X195873856Y-55514221D01*
X195875000Y-55537500D01*
X195875000Y-56112500D01*
X195873856Y-56135779D01*
X195870437Y-56158834D01*
X195864773Y-56181443D01*
X195856921Y-56203387D01*
X195846956Y-56224457D01*
X195834974Y-56244448D01*
X195821090Y-56263168D01*
X195805438Y-56280438D01*
X195788168Y-56296090D01*
X195769448Y-56309974D01*
X195749457Y-56321956D01*
X195728387Y-56331921D01*
X195706443Y-56339773D01*
X195683834Y-56345437D01*
X195660779Y-56348856D01*
X195637500Y-56350000D01*
X195162500Y-56350000D01*
X195139221Y-56348856D01*
X195116166Y-56345437D01*
X195093557Y-56339773D01*
X195071613Y-56331921D01*
X195050543Y-56321956D01*
X195030552Y-56309974D01*
X195011832Y-56296090D01*
X194994562Y-56280438D01*
X194978910Y-56263168D01*
X194965026Y-56244448D01*
X194953044Y-56224457D01*
X194943079Y-56203387D01*
X194935227Y-56181443D01*
X194929563Y-56158834D01*
X194926144Y-56135779D01*
X194925000Y-56112500D01*
X194925000Y-55537500D01*
X194926144Y-55514221D01*
X194929563Y-55491166D01*
X194935227Y-55468557D01*
X194943079Y-55446613D01*
X194953044Y-55425543D01*
X194965026Y-55405552D01*
X194978910Y-55386832D01*
X194994562Y-55369562D01*
X195011832Y-55353910D01*
X195030552Y-55340026D01*
X195050543Y-55328044D01*
X195071613Y-55318079D01*
X195093557Y-55310227D01*
X195116166Y-55304563D01*
X195139221Y-55301144D01*
X195162500Y-55300000D01*
X195637500Y-55300000D01*
X195660779Y-55301144D01*
X195660779Y-55301144D01*
G37*
D14*
G04 #@! TD*
G04 #@! TO.P,C78,1*
G04 #@! TO.N,GND*
X195400000Y-55825000D03*
D10*
G04 #@! TO.N,Net-(C64-Pad2)*
G04 #@! TO.C,C74*
G36*
X197435779Y-55326144D02*
X197458834Y-55329563D01*
X197481443Y-55335227D01*
X197503387Y-55343079D01*
X197524457Y-55353044D01*
X197544448Y-55365026D01*
X197563168Y-55378910D01*
X197580438Y-55394562D01*
X197596090Y-55411832D01*
X197609974Y-55430552D01*
X197621956Y-55450543D01*
X197631921Y-55471613D01*
X197639773Y-55493557D01*
X197645437Y-55516166D01*
X197648856Y-55539221D01*
X197650000Y-55562500D01*
X197650000Y-56037500D01*
X197648856Y-56060779D01*
X197645437Y-56083834D01*
X197639773Y-56106443D01*
X197631921Y-56128387D01*
X197621956Y-56149457D01*
X197609974Y-56169448D01*
X197596090Y-56188168D01*
X197580438Y-56205438D01*
X197563168Y-56221090D01*
X197544448Y-56234974D01*
X197524457Y-56246956D01*
X197503387Y-56256921D01*
X197481443Y-56264773D01*
X197458834Y-56270437D01*
X197435779Y-56273856D01*
X197412500Y-56275000D01*
X196837500Y-56275000D01*
X196814221Y-56273856D01*
X196791166Y-56270437D01*
X196768557Y-56264773D01*
X196746613Y-56256921D01*
X196725543Y-56246956D01*
X196705552Y-56234974D01*
X196686832Y-56221090D01*
X196669562Y-56205438D01*
X196653910Y-56188168D01*
X196640026Y-56169448D01*
X196628044Y-56149457D01*
X196618079Y-56128387D01*
X196610227Y-56106443D01*
X196604563Y-56083834D01*
X196601144Y-56060779D01*
X196600000Y-56037500D01*
X196600000Y-55562500D01*
X196601144Y-55539221D01*
X196604563Y-55516166D01*
X196610227Y-55493557D01*
X196618079Y-55471613D01*
X196628044Y-55450543D01*
X196640026Y-55430552D01*
X196653910Y-55411832D01*
X196669562Y-55394562D01*
X196686832Y-55378910D01*
X196705552Y-55365026D01*
X196725543Y-55353044D01*
X196746613Y-55343079D01*
X196768557Y-55335227D01*
X196791166Y-55329563D01*
X196814221Y-55326144D01*
X196837500Y-55325000D01*
X197412500Y-55325000D01*
X197435779Y-55326144D01*
X197435779Y-55326144D01*
G37*
D14*
G04 #@! TD*
G04 #@! TO.P,C74,1*
G04 #@! TO.N,Net-(C64-Pad2)*
X197125000Y-55800000D03*
D10*
G04 #@! TO.N,PbOut*
G04 #@! TO.C,C74*
G36*
X199185779Y-55326144D02*
X199208834Y-55329563D01*
X199231443Y-55335227D01*
X199253387Y-55343079D01*
X199274457Y-55353044D01*
X199294448Y-55365026D01*
X199313168Y-55378910D01*
X199330438Y-55394562D01*
X199346090Y-55411832D01*
X199359974Y-55430552D01*
X199371956Y-55450543D01*
X199381921Y-55471613D01*
X199389773Y-55493557D01*
X199395437Y-55516166D01*
X199398856Y-55539221D01*
X199400000Y-55562500D01*
X199400000Y-56037500D01*
X199398856Y-56060779D01*
X199395437Y-56083834D01*
X199389773Y-56106443D01*
X199381921Y-56128387D01*
X199371956Y-56149457D01*
X199359974Y-56169448D01*
X199346090Y-56188168D01*
X199330438Y-56205438D01*
X199313168Y-56221090D01*
X199294448Y-56234974D01*
X199274457Y-56246956D01*
X199253387Y-56256921D01*
X199231443Y-56264773D01*
X199208834Y-56270437D01*
X199185779Y-56273856D01*
X199162500Y-56275000D01*
X198587500Y-56275000D01*
X198564221Y-56273856D01*
X198541166Y-56270437D01*
X198518557Y-56264773D01*
X198496613Y-56256921D01*
X198475543Y-56246956D01*
X198455552Y-56234974D01*
X198436832Y-56221090D01*
X198419562Y-56205438D01*
X198403910Y-56188168D01*
X198390026Y-56169448D01*
X198378044Y-56149457D01*
X198368079Y-56128387D01*
X198360227Y-56106443D01*
X198354563Y-56083834D01*
X198351144Y-56060779D01*
X198350000Y-56037500D01*
X198350000Y-55562500D01*
X198351144Y-55539221D01*
X198354563Y-55516166D01*
X198360227Y-55493557D01*
X198368079Y-55471613D01*
X198378044Y-55450543D01*
X198390026Y-55430552D01*
X198403910Y-55411832D01*
X198419562Y-55394562D01*
X198436832Y-55378910D01*
X198455552Y-55365026D01*
X198475543Y-55353044D01*
X198496613Y-55343079D01*
X198518557Y-55335227D01*
X198541166Y-55329563D01*
X198564221Y-55326144D01*
X198587500Y-55325000D01*
X199162500Y-55325000D01*
X199185779Y-55326144D01*
X199185779Y-55326144D01*
G37*
D14*
G04 #@! TD*
G04 #@! TO.P,C74,2*
G04 #@! TO.N,PbOut*
X198875000Y-55800000D03*
D10*
G04 #@! TO.N,Net-(C66-Pad1)*
G04 #@! TO.C,C72*
G36*
X190160779Y-57051144D02*
X190183834Y-57054563D01*
X190206443Y-57060227D01*
X190228387Y-57068079D01*
X190249457Y-57078044D01*
X190269448Y-57090026D01*
X190288168Y-57103910D01*
X190305438Y-57119562D01*
X190321090Y-57136832D01*
X190334974Y-57155552D01*
X190346956Y-57175543D01*
X190356921Y-57196613D01*
X190364773Y-57218557D01*
X190370437Y-57241166D01*
X190373856Y-57264221D01*
X190375000Y-57287500D01*
X190375000Y-57862500D01*
X190373856Y-57885779D01*
X190370437Y-57908834D01*
X190364773Y-57931443D01*
X190356921Y-57953387D01*
X190346956Y-57974457D01*
X190334974Y-57994448D01*
X190321090Y-58013168D01*
X190305438Y-58030438D01*
X190288168Y-58046090D01*
X190269448Y-58059974D01*
X190249457Y-58071956D01*
X190228387Y-58081921D01*
X190206443Y-58089773D01*
X190183834Y-58095437D01*
X190160779Y-58098856D01*
X190137500Y-58100000D01*
X189662500Y-58100000D01*
X189639221Y-58098856D01*
X189616166Y-58095437D01*
X189593557Y-58089773D01*
X189571613Y-58081921D01*
X189550543Y-58071956D01*
X189530552Y-58059974D01*
X189511832Y-58046090D01*
X189494562Y-58030438D01*
X189478910Y-58013168D01*
X189465026Y-57994448D01*
X189453044Y-57974457D01*
X189443079Y-57953387D01*
X189435227Y-57931443D01*
X189429563Y-57908834D01*
X189426144Y-57885779D01*
X189425000Y-57862500D01*
X189425000Y-57287500D01*
X189426144Y-57264221D01*
X189429563Y-57241166D01*
X189435227Y-57218557D01*
X189443079Y-57196613D01*
X189453044Y-57175543D01*
X189465026Y-57155552D01*
X189478910Y-57136832D01*
X189494562Y-57119562D01*
X189511832Y-57103910D01*
X189530552Y-57090026D01*
X189550543Y-57078044D01*
X189571613Y-57068079D01*
X189593557Y-57060227D01*
X189616166Y-57054563D01*
X189639221Y-57051144D01*
X189662500Y-57050000D01*
X190137500Y-57050000D01*
X190160779Y-57051144D01*
X190160779Y-57051144D01*
G37*
D14*
G04 #@! TD*
G04 #@! TO.P,C72,2*
G04 #@! TO.N,Net-(C66-Pad1)*
X189900000Y-57575000D03*
D10*
G04 #@! TO.N,GND*
G04 #@! TO.C,C72*
G36*
X190160779Y-55301144D02*
X190183834Y-55304563D01*
X190206443Y-55310227D01*
X190228387Y-55318079D01*
X190249457Y-55328044D01*
X190269448Y-55340026D01*
X190288168Y-55353910D01*
X190305438Y-55369562D01*
X190321090Y-55386832D01*
X190334974Y-55405552D01*
X190346956Y-55425543D01*
X190356921Y-55446613D01*
X190364773Y-55468557D01*
X190370437Y-55491166D01*
X190373856Y-55514221D01*
X190375000Y-55537500D01*
X190375000Y-56112500D01*
X190373856Y-56135779D01*
X190370437Y-56158834D01*
X190364773Y-56181443D01*
X190356921Y-56203387D01*
X190346956Y-56224457D01*
X190334974Y-56244448D01*
X190321090Y-56263168D01*
X190305438Y-56280438D01*
X190288168Y-56296090D01*
X190269448Y-56309974D01*
X190249457Y-56321956D01*
X190228387Y-56331921D01*
X190206443Y-56339773D01*
X190183834Y-56345437D01*
X190160779Y-56348856D01*
X190137500Y-56350000D01*
X189662500Y-56350000D01*
X189639221Y-56348856D01*
X189616166Y-56345437D01*
X189593557Y-56339773D01*
X189571613Y-56331921D01*
X189550543Y-56321956D01*
X189530552Y-56309974D01*
X189511832Y-56296090D01*
X189494562Y-56280438D01*
X189478910Y-56263168D01*
X189465026Y-56244448D01*
X189453044Y-56224457D01*
X189443079Y-56203387D01*
X189435227Y-56181443D01*
X189429563Y-56158834D01*
X189426144Y-56135779D01*
X189425000Y-56112500D01*
X189425000Y-55537500D01*
X189426144Y-55514221D01*
X189429563Y-55491166D01*
X189435227Y-55468557D01*
X189443079Y-55446613D01*
X189453044Y-55425543D01*
X189465026Y-55405552D01*
X189478910Y-55386832D01*
X189494562Y-55369562D01*
X189511832Y-55353910D01*
X189530552Y-55340026D01*
X189550543Y-55328044D01*
X189571613Y-55318079D01*
X189593557Y-55310227D01*
X189616166Y-55304563D01*
X189639221Y-55301144D01*
X189662500Y-55300000D01*
X190137500Y-55300000D01*
X190160779Y-55301144D01*
X190160779Y-55301144D01*
G37*
D14*
G04 #@! TD*
G04 #@! TO.P,C72,1*
G04 #@! TO.N,GND*
X189900000Y-55825000D03*
D10*
G04 #@! TO.N,Net-(C66-Pad1)*
G04 #@! TO.C,C66*
G36*
X191935779Y-55326144D02*
X191958834Y-55329563D01*
X191981443Y-55335227D01*
X192003387Y-55343079D01*
X192024457Y-55353044D01*
X192044448Y-55365026D01*
X192063168Y-55378910D01*
X192080438Y-55394562D01*
X192096090Y-55411832D01*
X192109974Y-55430552D01*
X192121956Y-55450543D01*
X192131921Y-55471613D01*
X192139773Y-55493557D01*
X192145437Y-55516166D01*
X192148856Y-55539221D01*
X192150000Y-55562500D01*
X192150000Y-56037500D01*
X192148856Y-56060779D01*
X192145437Y-56083834D01*
X192139773Y-56106443D01*
X192131921Y-56128387D01*
X192121956Y-56149457D01*
X192109974Y-56169448D01*
X192096090Y-56188168D01*
X192080438Y-56205438D01*
X192063168Y-56221090D01*
X192044448Y-56234974D01*
X192024457Y-56246956D01*
X192003387Y-56256921D01*
X191981443Y-56264773D01*
X191958834Y-56270437D01*
X191935779Y-56273856D01*
X191912500Y-56275000D01*
X191337500Y-56275000D01*
X191314221Y-56273856D01*
X191291166Y-56270437D01*
X191268557Y-56264773D01*
X191246613Y-56256921D01*
X191225543Y-56246956D01*
X191205552Y-56234974D01*
X191186832Y-56221090D01*
X191169562Y-56205438D01*
X191153910Y-56188168D01*
X191140026Y-56169448D01*
X191128044Y-56149457D01*
X191118079Y-56128387D01*
X191110227Y-56106443D01*
X191104563Y-56083834D01*
X191101144Y-56060779D01*
X191100000Y-56037500D01*
X191100000Y-55562500D01*
X191101144Y-55539221D01*
X191104563Y-55516166D01*
X191110227Y-55493557D01*
X191118079Y-55471613D01*
X191128044Y-55450543D01*
X191140026Y-55430552D01*
X191153910Y-55411832D01*
X191169562Y-55394562D01*
X191186832Y-55378910D01*
X191205552Y-55365026D01*
X191225543Y-55353044D01*
X191246613Y-55343079D01*
X191268557Y-55335227D01*
X191291166Y-55329563D01*
X191314221Y-55326144D01*
X191337500Y-55325000D01*
X191912500Y-55325000D01*
X191935779Y-55326144D01*
X191935779Y-55326144D01*
G37*
D14*
G04 #@! TD*
G04 #@! TO.P,C66,1*
G04 #@! TO.N,Net-(C66-Pad1)*
X191625000Y-55800000D03*
D10*
G04 #@! TO.N,PrOut*
G04 #@! TO.C,C66*
G36*
X193685779Y-55326144D02*
X193708834Y-55329563D01*
X193731443Y-55335227D01*
X193753387Y-55343079D01*
X193774457Y-55353044D01*
X193794448Y-55365026D01*
X193813168Y-55378910D01*
X193830438Y-55394562D01*
X193846090Y-55411832D01*
X193859974Y-55430552D01*
X193871956Y-55450543D01*
X193881921Y-55471613D01*
X193889773Y-55493557D01*
X193895437Y-55516166D01*
X193898856Y-55539221D01*
X193900000Y-55562500D01*
X193900000Y-56037500D01*
X193898856Y-56060779D01*
X193895437Y-56083834D01*
X193889773Y-56106443D01*
X193881921Y-56128387D01*
X193871956Y-56149457D01*
X193859974Y-56169448D01*
X193846090Y-56188168D01*
X193830438Y-56205438D01*
X193813168Y-56221090D01*
X193794448Y-56234974D01*
X193774457Y-56246956D01*
X193753387Y-56256921D01*
X193731443Y-56264773D01*
X193708834Y-56270437D01*
X193685779Y-56273856D01*
X193662500Y-56275000D01*
X193087500Y-56275000D01*
X193064221Y-56273856D01*
X193041166Y-56270437D01*
X193018557Y-56264773D01*
X192996613Y-56256921D01*
X192975543Y-56246956D01*
X192955552Y-56234974D01*
X192936832Y-56221090D01*
X192919562Y-56205438D01*
X192903910Y-56188168D01*
X192890026Y-56169448D01*
X192878044Y-56149457D01*
X192868079Y-56128387D01*
X192860227Y-56106443D01*
X192854563Y-56083834D01*
X192851144Y-56060779D01*
X192850000Y-56037500D01*
X192850000Y-55562500D01*
X192851144Y-55539221D01*
X192854563Y-55516166D01*
X192860227Y-55493557D01*
X192868079Y-55471613D01*
X192878044Y-55450543D01*
X192890026Y-55430552D01*
X192903910Y-55411832D01*
X192919562Y-55394562D01*
X192936832Y-55378910D01*
X192955552Y-55365026D01*
X192975543Y-55353044D01*
X192996613Y-55343079D01*
X193018557Y-55335227D01*
X193041166Y-55329563D01*
X193064221Y-55326144D01*
X193087500Y-55325000D01*
X193662500Y-55325000D01*
X193685779Y-55326144D01*
X193685779Y-55326144D01*
G37*
D14*
G04 #@! TD*
G04 #@! TO.P,C66,2*
G04 #@! TO.N,PrOut*
X193375000Y-55800000D03*
D10*
G04 #@! TO.N,YOut*
G04 #@! TO.C,FIL17*
G36*
X188185779Y-57126144D02*
X188208834Y-57129563D01*
X188231443Y-57135227D01*
X188253387Y-57143079D01*
X188274457Y-57153044D01*
X188294448Y-57165026D01*
X188313168Y-57178910D01*
X188330438Y-57194562D01*
X188346090Y-57211832D01*
X188359974Y-57230552D01*
X188371956Y-57250543D01*
X188381921Y-57271613D01*
X188389773Y-57293557D01*
X188395437Y-57316166D01*
X188398856Y-57339221D01*
X188400000Y-57362500D01*
X188400000Y-57837500D01*
X188398856Y-57860779D01*
X188395437Y-57883834D01*
X188389773Y-57906443D01*
X188381921Y-57928387D01*
X188371956Y-57949457D01*
X188359974Y-57969448D01*
X188346090Y-57988168D01*
X188330438Y-58005438D01*
X188313168Y-58021090D01*
X188294448Y-58034974D01*
X188274457Y-58046956D01*
X188253387Y-58056921D01*
X188231443Y-58064773D01*
X188208834Y-58070437D01*
X188185779Y-58073856D01*
X188162500Y-58075000D01*
X187587500Y-58075000D01*
X187564221Y-58073856D01*
X187541166Y-58070437D01*
X187518557Y-58064773D01*
X187496613Y-58056921D01*
X187475543Y-58046956D01*
X187455552Y-58034974D01*
X187436832Y-58021090D01*
X187419562Y-58005438D01*
X187403910Y-57988168D01*
X187390026Y-57969448D01*
X187378044Y-57949457D01*
X187368079Y-57928387D01*
X187360227Y-57906443D01*
X187354563Y-57883834D01*
X187351144Y-57860779D01*
X187350000Y-57837500D01*
X187350000Y-57362500D01*
X187351144Y-57339221D01*
X187354563Y-57316166D01*
X187360227Y-57293557D01*
X187368079Y-57271613D01*
X187378044Y-57250543D01*
X187390026Y-57230552D01*
X187403910Y-57211832D01*
X187419562Y-57194562D01*
X187436832Y-57178910D01*
X187455552Y-57165026D01*
X187475543Y-57153044D01*
X187496613Y-57143079D01*
X187518557Y-57135227D01*
X187541166Y-57129563D01*
X187564221Y-57126144D01*
X187587500Y-57125000D01*
X188162500Y-57125000D01*
X188185779Y-57126144D01*
X188185779Y-57126144D01*
G37*
D14*
G04 #@! TD*
G04 #@! TO.P,FIL17,1*
G04 #@! TO.N,YOut*
X187875000Y-57600000D03*
D10*
G04 #@! TO.N,Net-(C83-Pad1)*
G04 #@! TO.C,FIL17*
G36*
X186435779Y-57126144D02*
X186458834Y-57129563D01*
X186481443Y-57135227D01*
X186503387Y-57143079D01*
X186524457Y-57153044D01*
X186544448Y-57165026D01*
X186563168Y-57178910D01*
X186580438Y-57194562D01*
X186596090Y-57211832D01*
X186609974Y-57230552D01*
X186621956Y-57250543D01*
X186631921Y-57271613D01*
X186639773Y-57293557D01*
X186645437Y-57316166D01*
X186648856Y-57339221D01*
X186650000Y-57362500D01*
X186650000Y-57837500D01*
X186648856Y-57860779D01*
X186645437Y-57883834D01*
X186639773Y-57906443D01*
X186631921Y-57928387D01*
X186621956Y-57949457D01*
X186609974Y-57969448D01*
X186596090Y-57988168D01*
X186580438Y-58005438D01*
X186563168Y-58021090D01*
X186544448Y-58034974D01*
X186524457Y-58046956D01*
X186503387Y-58056921D01*
X186481443Y-58064773D01*
X186458834Y-58070437D01*
X186435779Y-58073856D01*
X186412500Y-58075000D01*
X185837500Y-58075000D01*
X185814221Y-58073856D01*
X185791166Y-58070437D01*
X185768557Y-58064773D01*
X185746613Y-58056921D01*
X185725543Y-58046956D01*
X185705552Y-58034974D01*
X185686832Y-58021090D01*
X185669562Y-58005438D01*
X185653910Y-57988168D01*
X185640026Y-57969448D01*
X185628044Y-57949457D01*
X185618079Y-57928387D01*
X185610227Y-57906443D01*
X185604563Y-57883834D01*
X185601144Y-57860779D01*
X185600000Y-57837500D01*
X185600000Y-57362500D01*
X185601144Y-57339221D01*
X185604563Y-57316166D01*
X185610227Y-57293557D01*
X185618079Y-57271613D01*
X185628044Y-57250543D01*
X185640026Y-57230552D01*
X185653910Y-57211832D01*
X185669562Y-57194562D01*
X185686832Y-57178910D01*
X185705552Y-57165026D01*
X185725543Y-57153044D01*
X185746613Y-57143079D01*
X185768557Y-57135227D01*
X185791166Y-57129563D01*
X185814221Y-57126144D01*
X185837500Y-57125000D01*
X186412500Y-57125000D01*
X186435779Y-57126144D01*
X186435779Y-57126144D01*
G37*
D14*
G04 #@! TD*
G04 #@! TO.P,FIL17,2*
G04 #@! TO.N,Net-(C83-Pad1)*
X186125000Y-57600000D03*
D10*
G04 #@! TO.N,Net-(C64-Pad2)*
G04 #@! TO.C,FIL16*
G36*
X197435779Y-57126144D02*
X197458834Y-57129563D01*
X197481443Y-57135227D01*
X197503387Y-57143079D01*
X197524457Y-57153044D01*
X197544448Y-57165026D01*
X197563168Y-57178910D01*
X197580438Y-57194562D01*
X197596090Y-57211832D01*
X197609974Y-57230552D01*
X197621956Y-57250543D01*
X197631921Y-57271613D01*
X197639773Y-57293557D01*
X197645437Y-57316166D01*
X197648856Y-57339221D01*
X197650000Y-57362500D01*
X197650000Y-57837500D01*
X197648856Y-57860779D01*
X197645437Y-57883834D01*
X197639773Y-57906443D01*
X197631921Y-57928387D01*
X197621956Y-57949457D01*
X197609974Y-57969448D01*
X197596090Y-57988168D01*
X197580438Y-58005438D01*
X197563168Y-58021090D01*
X197544448Y-58034974D01*
X197524457Y-58046956D01*
X197503387Y-58056921D01*
X197481443Y-58064773D01*
X197458834Y-58070437D01*
X197435779Y-58073856D01*
X197412500Y-58075000D01*
X196837500Y-58075000D01*
X196814221Y-58073856D01*
X196791166Y-58070437D01*
X196768557Y-58064773D01*
X196746613Y-58056921D01*
X196725543Y-58046956D01*
X196705552Y-58034974D01*
X196686832Y-58021090D01*
X196669562Y-58005438D01*
X196653910Y-57988168D01*
X196640026Y-57969448D01*
X196628044Y-57949457D01*
X196618079Y-57928387D01*
X196610227Y-57906443D01*
X196604563Y-57883834D01*
X196601144Y-57860779D01*
X196600000Y-57837500D01*
X196600000Y-57362500D01*
X196601144Y-57339221D01*
X196604563Y-57316166D01*
X196610227Y-57293557D01*
X196618079Y-57271613D01*
X196628044Y-57250543D01*
X196640026Y-57230552D01*
X196653910Y-57211832D01*
X196669562Y-57194562D01*
X196686832Y-57178910D01*
X196705552Y-57165026D01*
X196725543Y-57153044D01*
X196746613Y-57143079D01*
X196768557Y-57135227D01*
X196791166Y-57129563D01*
X196814221Y-57126144D01*
X196837500Y-57125000D01*
X197412500Y-57125000D01*
X197435779Y-57126144D01*
X197435779Y-57126144D01*
G37*
D14*
G04 #@! TD*
G04 #@! TO.P,FIL16,2*
G04 #@! TO.N,Net-(C64-Pad2)*
X197125000Y-57600000D03*
D10*
G04 #@! TO.N,PbOut*
G04 #@! TO.C,FIL16*
G36*
X199185779Y-57126144D02*
X199208834Y-57129563D01*
X199231443Y-57135227D01*
X199253387Y-57143079D01*
X199274457Y-57153044D01*
X199294448Y-57165026D01*
X199313168Y-57178910D01*
X199330438Y-57194562D01*
X199346090Y-57211832D01*
X199359974Y-57230552D01*
X199371956Y-57250543D01*
X199381921Y-57271613D01*
X199389773Y-57293557D01*
X199395437Y-57316166D01*
X199398856Y-57339221D01*
X199400000Y-57362500D01*
X199400000Y-57837500D01*
X199398856Y-57860779D01*
X199395437Y-57883834D01*
X199389773Y-57906443D01*
X199381921Y-57928387D01*
X199371956Y-57949457D01*
X199359974Y-57969448D01*
X199346090Y-57988168D01*
X199330438Y-58005438D01*
X199313168Y-58021090D01*
X199294448Y-58034974D01*
X199274457Y-58046956D01*
X199253387Y-58056921D01*
X199231443Y-58064773D01*
X199208834Y-58070437D01*
X199185779Y-58073856D01*
X199162500Y-58075000D01*
X198587500Y-58075000D01*
X198564221Y-58073856D01*
X198541166Y-58070437D01*
X198518557Y-58064773D01*
X198496613Y-58056921D01*
X198475543Y-58046956D01*
X198455552Y-58034974D01*
X198436832Y-58021090D01*
X198419562Y-58005438D01*
X198403910Y-57988168D01*
X198390026Y-57969448D01*
X198378044Y-57949457D01*
X198368079Y-57928387D01*
X198360227Y-57906443D01*
X198354563Y-57883834D01*
X198351144Y-57860779D01*
X198350000Y-57837500D01*
X198350000Y-57362500D01*
X198351144Y-57339221D01*
X198354563Y-57316166D01*
X198360227Y-57293557D01*
X198368079Y-57271613D01*
X198378044Y-57250543D01*
X198390026Y-57230552D01*
X198403910Y-57211832D01*
X198419562Y-57194562D01*
X198436832Y-57178910D01*
X198455552Y-57165026D01*
X198475543Y-57153044D01*
X198496613Y-57143079D01*
X198518557Y-57135227D01*
X198541166Y-57129563D01*
X198564221Y-57126144D01*
X198587500Y-57125000D01*
X199162500Y-57125000D01*
X199185779Y-57126144D01*
X199185779Y-57126144D01*
G37*
D14*
G04 #@! TD*
G04 #@! TO.P,FIL16,1*
G04 #@! TO.N,PbOut*
X198875000Y-57600000D03*
D10*
G04 #@! TO.N,PrOut*
G04 #@! TO.C,FIL15*
G36*
X193685779Y-57126144D02*
X193708834Y-57129563D01*
X193731443Y-57135227D01*
X193753387Y-57143079D01*
X193774457Y-57153044D01*
X193794448Y-57165026D01*
X193813168Y-57178910D01*
X193830438Y-57194562D01*
X193846090Y-57211832D01*
X193859974Y-57230552D01*
X193871956Y-57250543D01*
X193881921Y-57271613D01*
X193889773Y-57293557D01*
X193895437Y-57316166D01*
X193898856Y-57339221D01*
X193900000Y-57362500D01*
X193900000Y-57837500D01*
X193898856Y-57860779D01*
X193895437Y-57883834D01*
X193889773Y-57906443D01*
X193881921Y-57928387D01*
X193871956Y-57949457D01*
X193859974Y-57969448D01*
X193846090Y-57988168D01*
X193830438Y-58005438D01*
X193813168Y-58021090D01*
X193794448Y-58034974D01*
X193774457Y-58046956D01*
X193753387Y-58056921D01*
X193731443Y-58064773D01*
X193708834Y-58070437D01*
X193685779Y-58073856D01*
X193662500Y-58075000D01*
X193087500Y-58075000D01*
X193064221Y-58073856D01*
X193041166Y-58070437D01*
X193018557Y-58064773D01*
X192996613Y-58056921D01*
X192975543Y-58046956D01*
X192955552Y-58034974D01*
X192936832Y-58021090D01*
X192919562Y-58005438D01*
X192903910Y-57988168D01*
X192890026Y-57969448D01*
X192878044Y-57949457D01*
X192868079Y-57928387D01*
X192860227Y-57906443D01*
X192854563Y-57883834D01*
X192851144Y-57860779D01*
X192850000Y-57837500D01*
X192850000Y-57362500D01*
X192851144Y-57339221D01*
X192854563Y-57316166D01*
X192860227Y-57293557D01*
X192868079Y-57271613D01*
X192878044Y-57250543D01*
X192890026Y-57230552D01*
X192903910Y-57211832D01*
X192919562Y-57194562D01*
X192936832Y-57178910D01*
X192955552Y-57165026D01*
X192975543Y-57153044D01*
X192996613Y-57143079D01*
X193018557Y-57135227D01*
X193041166Y-57129563D01*
X193064221Y-57126144D01*
X193087500Y-57125000D01*
X193662500Y-57125000D01*
X193685779Y-57126144D01*
X193685779Y-57126144D01*
G37*
D14*
G04 #@! TD*
G04 #@! TO.P,FIL15,1*
G04 #@! TO.N,PrOut*
X193375000Y-57600000D03*
D10*
G04 #@! TO.N,Net-(C66-Pad1)*
G04 #@! TO.C,FIL15*
G36*
X191935779Y-57126144D02*
X191958834Y-57129563D01*
X191981443Y-57135227D01*
X192003387Y-57143079D01*
X192024457Y-57153044D01*
X192044448Y-57165026D01*
X192063168Y-57178910D01*
X192080438Y-57194562D01*
X192096090Y-57211832D01*
X192109974Y-57230552D01*
X192121956Y-57250543D01*
X192131921Y-57271613D01*
X192139773Y-57293557D01*
X192145437Y-57316166D01*
X192148856Y-57339221D01*
X192150000Y-57362500D01*
X192150000Y-57837500D01*
X192148856Y-57860779D01*
X192145437Y-57883834D01*
X192139773Y-57906443D01*
X192131921Y-57928387D01*
X192121956Y-57949457D01*
X192109974Y-57969448D01*
X192096090Y-57988168D01*
X192080438Y-58005438D01*
X192063168Y-58021090D01*
X192044448Y-58034974D01*
X192024457Y-58046956D01*
X192003387Y-58056921D01*
X191981443Y-58064773D01*
X191958834Y-58070437D01*
X191935779Y-58073856D01*
X191912500Y-58075000D01*
X191337500Y-58075000D01*
X191314221Y-58073856D01*
X191291166Y-58070437D01*
X191268557Y-58064773D01*
X191246613Y-58056921D01*
X191225543Y-58046956D01*
X191205552Y-58034974D01*
X191186832Y-58021090D01*
X191169562Y-58005438D01*
X191153910Y-57988168D01*
X191140026Y-57969448D01*
X191128044Y-57949457D01*
X191118079Y-57928387D01*
X191110227Y-57906443D01*
X191104563Y-57883834D01*
X191101144Y-57860779D01*
X191100000Y-57837500D01*
X191100000Y-57362500D01*
X191101144Y-57339221D01*
X191104563Y-57316166D01*
X191110227Y-57293557D01*
X191118079Y-57271613D01*
X191128044Y-57250543D01*
X191140026Y-57230552D01*
X191153910Y-57211832D01*
X191169562Y-57194562D01*
X191186832Y-57178910D01*
X191205552Y-57165026D01*
X191225543Y-57153044D01*
X191246613Y-57143079D01*
X191268557Y-57135227D01*
X191291166Y-57129563D01*
X191314221Y-57126144D01*
X191337500Y-57125000D01*
X191912500Y-57125000D01*
X191935779Y-57126144D01*
X191935779Y-57126144D01*
G37*
D14*
G04 #@! TD*
G04 #@! TO.P,FIL15,2*
G04 #@! TO.N,Net-(C66-Pad1)*
X191625000Y-57600000D03*
D10*
G04 #@! TO.N,GND*
G04 #@! TO.C,R37*
G36*
X203285779Y-63426144D02*
X203308834Y-63429563D01*
X203331443Y-63435227D01*
X203353387Y-63443079D01*
X203374457Y-63453044D01*
X203394448Y-63465026D01*
X203413168Y-63478910D01*
X203430438Y-63494562D01*
X203446090Y-63511832D01*
X203459974Y-63530552D01*
X203471956Y-63550543D01*
X203481921Y-63571613D01*
X203489773Y-63593557D01*
X203495437Y-63616166D01*
X203498856Y-63639221D01*
X203500000Y-63662500D01*
X203500000Y-64137500D01*
X203498856Y-64160779D01*
X203495437Y-64183834D01*
X203489773Y-64206443D01*
X203481921Y-64228387D01*
X203471956Y-64249457D01*
X203459974Y-64269448D01*
X203446090Y-64288168D01*
X203430438Y-64305438D01*
X203413168Y-64321090D01*
X203394448Y-64334974D01*
X203374457Y-64346956D01*
X203353387Y-64356921D01*
X203331443Y-64364773D01*
X203308834Y-64370437D01*
X203285779Y-64373856D01*
X203262500Y-64375000D01*
X202687500Y-64375000D01*
X202664221Y-64373856D01*
X202641166Y-64370437D01*
X202618557Y-64364773D01*
X202596613Y-64356921D01*
X202575543Y-64346956D01*
X202555552Y-64334974D01*
X202536832Y-64321090D01*
X202519562Y-64305438D01*
X202503910Y-64288168D01*
X202490026Y-64269448D01*
X202478044Y-64249457D01*
X202468079Y-64228387D01*
X202460227Y-64206443D01*
X202454563Y-64183834D01*
X202451144Y-64160779D01*
X202450000Y-64137500D01*
X202450000Y-63662500D01*
X202451144Y-63639221D01*
X202454563Y-63616166D01*
X202460227Y-63593557D01*
X202468079Y-63571613D01*
X202478044Y-63550543D01*
X202490026Y-63530552D01*
X202503910Y-63511832D01*
X202519562Y-63494562D01*
X202536832Y-63478910D01*
X202555552Y-63465026D01*
X202575543Y-63453044D01*
X202596613Y-63443079D01*
X202618557Y-63435227D01*
X202641166Y-63429563D01*
X202664221Y-63426144D01*
X202687500Y-63425000D01*
X203262500Y-63425000D01*
X203285779Y-63426144D01*
X203285779Y-63426144D01*
G37*
D14*
G04 #@! TD*
G04 #@! TO.P,R37,2*
G04 #@! TO.N,GND*
X202975000Y-63900000D03*
D10*
G04 #@! TO.N,AVE54*
G04 #@! TO.C,R37*
G36*
X201535779Y-63426144D02*
X201558834Y-63429563D01*
X201581443Y-63435227D01*
X201603387Y-63443079D01*
X201624457Y-63453044D01*
X201644448Y-63465026D01*
X201663168Y-63478910D01*
X201680438Y-63494562D01*
X201696090Y-63511832D01*
X201709974Y-63530552D01*
X201721956Y-63550543D01*
X201731921Y-63571613D01*
X201739773Y-63593557D01*
X201745437Y-63616166D01*
X201748856Y-63639221D01*
X201750000Y-63662500D01*
X201750000Y-64137500D01*
X201748856Y-64160779D01*
X201745437Y-64183834D01*
X201739773Y-64206443D01*
X201731921Y-64228387D01*
X201721956Y-64249457D01*
X201709974Y-64269448D01*
X201696090Y-64288168D01*
X201680438Y-64305438D01*
X201663168Y-64321090D01*
X201644448Y-64334974D01*
X201624457Y-64346956D01*
X201603387Y-64356921D01*
X201581443Y-64364773D01*
X201558834Y-64370437D01*
X201535779Y-64373856D01*
X201512500Y-64375000D01*
X200937500Y-64375000D01*
X200914221Y-64373856D01*
X200891166Y-64370437D01*
X200868557Y-64364773D01*
X200846613Y-64356921D01*
X200825543Y-64346956D01*
X200805552Y-64334974D01*
X200786832Y-64321090D01*
X200769562Y-64305438D01*
X200753910Y-64288168D01*
X200740026Y-64269448D01*
X200728044Y-64249457D01*
X200718079Y-64228387D01*
X200710227Y-64206443D01*
X200704563Y-64183834D01*
X200701144Y-64160779D01*
X200700000Y-64137500D01*
X200700000Y-63662500D01*
X200701144Y-63639221D01*
X200704563Y-63616166D01*
X200710227Y-63593557D01*
X200718079Y-63571613D01*
X200728044Y-63550543D01*
X200740026Y-63530552D01*
X200753910Y-63511832D01*
X200769562Y-63494562D01*
X200786832Y-63478910D01*
X200805552Y-63465026D01*
X200825543Y-63453044D01*
X200846613Y-63443079D01*
X200868557Y-63435227D01*
X200891166Y-63429563D01*
X200914221Y-63426144D01*
X200937500Y-63425000D01*
X201512500Y-63425000D01*
X201535779Y-63426144D01*
X201535779Y-63426144D01*
G37*
D14*
G04 #@! TD*
G04 #@! TO.P,R37,1*
G04 #@! TO.N,AVE54*
X201225000Y-63900000D03*
D10*
G04 #@! TO.N,GND*
G04 #@! TO.C,R39*
G36*
X203285779Y-67226144D02*
X203308834Y-67229563D01*
X203331443Y-67235227D01*
X203353387Y-67243079D01*
X203374457Y-67253044D01*
X203394448Y-67265026D01*
X203413168Y-67278910D01*
X203430438Y-67294562D01*
X203446090Y-67311832D01*
X203459974Y-67330552D01*
X203471956Y-67350543D01*
X203481921Y-67371613D01*
X203489773Y-67393557D01*
X203495437Y-67416166D01*
X203498856Y-67439221D01*
X203500000Y-67462500D01*
X203500000Y-67937500D01*
X203498856Y-67960779D01*
X203495437Y-67983834D01*
X203489773Y-68006443D01*
X203481921Y-68028387D01*
X203471956Y-68049457D01*
X203459974Y-68069448D01*
X203446090Y-68088168D01*
X203430438Y-68105438D01*
X203413168Y-68121090D01*
X203394448Y-68134974D01*
X203374457Y-68146956D01*
X203353387Y-68156921D01*
X203331443Y-68164773D01*
X203308834Y-68170437D01*
X203285779Y-68173856D01*
X203262500Y-68175000D01*
X202687500Y-68175000D01*
X202664221Y-68173856D01*
X202641166Y-68170437D01*
X202618557Y-68164773D01*
X202596613Y-68156921D01*
X202575543Y-68146956D01*
X202555552Y-68134974D01*
X202536832Y-68121090D01*
X202519562Y-68105438D01*
X202503910Y-68088168D01*
X202490026Y-68069448D01*
X202478044Y-68049457D01*
X202468079Y-68028387D01*
X202460227Y-68006443D01*
X202454563Y-67983834D01*
X202451144Y-67960779D01*
X202450000Y-67937500D01*
X202450000Y-67462500D01*
X202451144Y-67439221D01*
X202454563Y-67416166D01*
X202460227Y-67393557D01*
X202468079Y-67371613D01*
X202478044Y-67350543D01*
X202490026Y-67330552D01*
X202503910Y-67311832D01*
X202519562Y-67294562D01*
X202536832Y-67278910D01*
X202555552Y-67265026D01*
X202575543Y-67253044D01*
X202596613Y-67243079D01*
X202618557Y-67235227D01*
X202641166Y-67229563D01*
X202664221Y-67226144D01*
X202687500Y-67225000D01*
X203262500Y-67225000D01*
X203285779Y-67226144D01*
X203285779Y-67226144D01*
G37*
D14*
G04 #@! TD*
G04 #@! TO.P,R39,1*
G04 #@! TO.N,GND*
X202975000Y-67700000D03*
D10*
G04 #@! TO.N,AVE57*
G04 #@! TO.C,R39*
G36*
X201535779Y-67226144D02*
X201558834Y-67229563D01*
X201581443Y-67235227D01*
X201603387Y-67243079D01*
X201624457Y-67253044D01*
X201644448Y-67265026D01*
X201663168Y-67278910D01*
X201680438Y-67294562D01*
X201696090Y-67311832D01*
X201709974Y-67330552D01*
X201721956Y-67350543D01*
X201731921Y-67371613D01*
X201739773Y-67393557D01*
X201745437Y-67416166D01*
X201748856Y-67439221D01*
X201750000Y-67462500D01*
X201750000Y-67937500D01*
X201748856Y-67960779D01*
X201745437Y-67983834D01*
X201739773Y-68006443D01*
X201731921Y-68028387D01*
X201721956Y-68049457D01*
X201709974Y-68069448D01*
X201696090Y-68088168D01*
X201680438Y-68105438D01*
X201663168Y-68121090D01*
X201644448Y-68134974D01*
X201624457Y-68146956D01*
X201603387Y-68156921D01*
X201581443Y-68164773D01*
X201558834Y-68170437D01*
X201535779Y-68173856D01*
X201512500Y-68175000D01*
X200937500Y-68175000D01*
X200914221Y-68173856D01*
X200891166Y-68170437D01*
X200868557Y-68164773D01*
X200846613Y-68156921D01*
X200825543Y-68146956D01*
X200805552Y-68134974D01*
X200786832Y-68121090D01*
X200769562Y-68105438D01*
X200753910Y-68088168D01*
X200740026Y-68069448D01*
X200728044Y-68049457D01*
X200718079Y-68028387D01*
X200710227Y-68006443D01*
X200704563Y-67983834D01*
X200701144Y-67960779D01*
X200700000Y-67937500D01*
X200700000Y-67462500D01*
X200701144Y-67439221D01*
X200704563Y-67416166D01*
X200710227Y-67393557D01*
X200718079Y-67371613D01*
X200728044Y-67350543D01*
X200740026Y-67330552D01*
X200753910Y-67311832D01*
X200769562Y-67294562D01*
X200786832Y-67278910D01*
X200805552Y-67265026D01*
X200825543Y-67253044D01*
X200846613Y-67243079D01*
X200868557Y-67235227D01*
X200891166Y-67229563D01*
X200914221Y-67226144D01*
X200937500Y-67225000D01*
X201512500Y-67225000D01*
X201535779Y-67226144D01*
X201535779Y-67226144D01*
G37*
D14*
G04 #@! TD*
G04 #@! TO.P,R39,2*
G04 #@! TO.N,AVE57*
X201225000Y-67700000D03*
D10*
G04 #@! TO.N,AVE59*
G04 #@! TO.C,R40*
G36*
X201535779Y-65326144D02*
X201558834Y-65329563D01*
X201581443Y-65335227D01*
X201603387Y-65343079D01*
X201624457Y-65353044D01*
X201644448Y-65365026D01*
X201663168Y-65378910D01*
X201680438Y-65394562D01*
X201696090Y-65411832D01*
X201709974Y-65430552D01*
X201721956Y-65450543D01*
X201731921Y-65471613D01*
X201739773Y-65493557D01*
X201745437Y-65516166D01*
X201748856Y-65539221D01*
X201750000Y-65562500D01*
X201750000Y-66037500D01*
X201748856Y-66060779D01*
X201745437Y-66083834D01*
X201739773Y-66106443D01*
X201731921Y-66128387D01*
X201721956Y-66149457D01*
X201709974Y-66169448D01*
X201696090Y-66188168D01*
X201680438Y-66205438D01*
X201663168Y-66221090D01*
X201644448Y-66234974D01*
X201624457Y-66246956D01*
X201603387Y-66256921D01*
X201581443Y-66264773D01*
X201558834Y-66270437D01*
X201535779Y-66273856D01*
X201512500Y-66275000D01*
X200937500Y-66275000D01*
X200914221Y-66273856D01*
X200891166Y-66270437D01*
X200868557Y-66264773D01*
X200846613Y-66256921D01*
X200825543Y-66246956D01*
X200805552Y-66234974D01*
X200786832Y-66221090D01*
X200769562Y-66205438D01*
X200753910Y-66188168D01*
X200740026Y-66169448D01*
X200728044Y-66149457D01*
X200718079Y-66128387D01*
X200710227Y-66106443D01*
X200704563Y-66083834D01*
X200701144Y-66060779D01*
X200700000Y-66037500D01*
X200700000Y-65562500D01*
X200701144Y-65539221D01*
X200704563Y-65516166D01*
X200710227Y-65493557D01*
X200718079Y-65471613D01*
X200728044Y-65450543D01*
X200740026Y-65430552D01*
X200753910Y-65411832D01*
X200769562Y-65394562D01*
X200786832Y-65378910D01*
X200805552Y-65365026D01*
X200825543Y-65353044D01*
X200846613Y-65343079D01*
X200868557Y-65335227D01*
X200891166Y-65329563D01*
X200914221Y-65326144D01*
X200937500Y-65325000D01*
X201512500Y-65325000D01*
X201535779Y-65326144D01*
X201535779Y-65326144D01*
G37*
D14*
G04 #@! TD*
G04 #@! TO.P,R40,2*
G04 #@! TO.N,AVE59*
X201225000Y-65800000D03*
D10*
G04 #@! TO.N,GND*
G04 #@! TO.C,R40*
G36*
X203285779Y-65326144D02*
X203308834Y-65329563D01*
X203331443Y-65335227D01*
X203353387Y-65343079D01*
X203374457Y-65353044D01*
X203394448Y-65365026D01*
X203413168Y-65378910D01*
X203430438Y-65394562D01*
X203446090Y-65411832D01*
X203459974Y-65430552D01*
X203471956Y-65450543D01*
X203481921Y-65471613D01*
X203489773Y-65493557D01*
X203495437Y-65516166D01*
X203498856Y-65539221D01*
X203500000Y-65562500D01*
X203500000Y-66037500D01*
X203498856Y-66060779D01*
X203495437Y-66083834D01*
X203489773Y-66106443D01*
X203481921Y-66128387D01*
X203471956Y-66149457D01*
X203459974Y-66169448D01*
X203446090Y-66188168D01*
X203430438Y-66205438D01*
X203413168Y-66221090D01*
X203394448Y-66234974D01*
X203374457Y-66246956D01*
X203353387Y-66256921D01*
X203331443Y-66264773D01*
X203308834Y-66270437D01*
X203285779Y-66273856D01*
X203262500Y-66275000D01*
X202687500Y-66275000D01*
X202664221Y-66273856D01*
X202641166Y-66270437D01*
X202618557Y-66264773D01*
X202596613Y-66256921D01*
X202575543Y-66246956D01*
X202555552Y-66234974D01*
X202536832Y-66221090D01*
X202519562Y-66205438D01*
X202503910Y-66188168D01*
X202490026Y-66169448D01*
X202478044Y-66149457D01*
X202468079Y-66128387D01*
X202460227Y-66106443D01*
X202454563Y-66083834D01*
X202451144Y-66060779D01*
X202450000Y-66037500D01*
X202450000Y-65562500D01*
X202451144Y-65539221D01*
X202454563Y-65516166D01*
X202460227Y-65493557D01*
X202468079Y-65471613D01*
X202478044Y-65450543D01*
X202490026Y-65430552D01*
X202503910Y-65411832D01*
X202519562Y-65394562D01*
X202536832Y-65378910D01*
X202555552Y-65365026D01*
X202575543Y-65353044D01*
X202596613Y-65343079D01*
X202618557Y-65335227D01*
X202641166Y-65329563D01*
X202664221Y-65326144D01*
X202687500Y-65325000D01*
X203262500Y-65325000D01*
X203285779Y-65326144D01*
X203285779Y-65326144D01*
G37*
D14*
G04 #@! TD*
G04 #@! TO.P,R40,1*
G04 #@! TO.N,GND*
X202975000Y-65800000D03*
D15*
G04 #@! TO.N,GND*
X208600000Y-66500000D03*
X200100000Y-62700000D03*
X207400000Y-61000000D03*
X205100000Y-67900000D03*
X207700000Y-66500000D03*
X202600000Y-57700000D03*
X204200000Y-63900000D03*
X204200000Y-65800000D03*
X184400000Y-54800000D03*
X189000000Y-55800000D03*
X194500000Y-55800000D03*
G04 #@! TD*
D16*
G04 #@! TO.N,PbOut*
X198875000Y-55800000D02*
X198875000Y-57600000D01*
X201400000Y-59425000D02*
X201400000Y-59450000D01*
X199550000Y-57600000D02*
X201400000Y-59450000D01*
X198875000Y-57600000D02*
X199550000Y-57600000D01*
X202200000Y-59450000D02*
X201400000Y-59450000D01*
X204100000Y-58500000D02*
X203150000Y-58500000D01*
X203150000Y-58500000D02*
X202200000Y-59450000D01*
X206400000Y-55700000D02*
X206400000Y-56200000D01*
X206400000Y-56200000D02*
X204100000Y-58500000D01*
G04 #@! TO.N,AVE54*
X189200000Y-63900000D02*
X186100000Y-67000000D01*
X201225000Y-63900000D02*
X189200000Y-63900000D01*
X207500000Y-62400000D02*
X211300000Y-62400000D01*
X201225000Y-63900000D02*
X202224999Y-62900001D01*
X206999999Y-62900001D02*
X207500000Y-62400000D01*
X202224999Y-62900001D02*
X206999999Y-62900001D01*
G04 #@! TO.N,AVE57*
X197200000Y-67000000D02*
X197100000Y-67000000D01*
X197800000Y-67700000D02*
X197100000Y-67000000D01*
X201225000Y-67700000D02*
X197800000Y-67700000D01*
X201724072Y-67200928D02*
X201225000Y-67700000D01*
X202199990Y-66725010D02*
X201724072Y-67200928D01*
X204458992Y-66725010D02*
X202199990Y-66725010D01*
X205684002Y-65500000D02*
X204458992Y-66725010D01*
X209000000Y-65500000D02*
X205684002Y-65500000D01*
X211300000Y-67800000D02*
X209000000Y-65500000D01*
G04 #@! TO.N,AVE59*
X192780553Y-65819447D02*
X191600000Y-67000000D01*
X193299072Y-65300928D02*
X192780553Y-65819447D01*
X199700928Y-65300928D02*
X193299072Y-65300928D01*
X201225000Y-65800000D02*
X200200000Y-65800000D01*
X200200000Y-65800000D02*
X199700928Y-65300928D01*
X201724072Y-65300928D02*
X201225000Y-65800000D01*
X202150010Y-64874990D02*
X201724072Y-65300928D01*
X211300000Y-65100000D02*
X211074990Y-64874990D01*
X211074990Y-64874990D02*
X202150010Y-64874990D01*
G04 #@! TO.N,YOut*
X187875000Y-55800000D02*
X187875000Y-57600000D01*
X187875000Y-55800000D02*
X188825010Y-54849990D01*
X200600000Y-55150000D02*
X201400000Y-55150000D01*
X200299990Y-54849990D02*
X200600000Y-55150000D01*
X188825010Y-54849990D02*
X200299990Y-54849990D01*
X203150000Y-55150000D02*
X203700000Y-55700000D01*
X201400000Y-55150000D02*
X203150000Y-55150000D01*
G04 #@! TO.N,PrOut*
X193375000Y-55800000D02*
X193375000Y-57600000D01*
X193375000Y-58475000D02*
X193375000Y-57600000D01*
X194400000Y-59500000D02*
X193375000Y-58475000D01*
X194400000Y-61400000D02*
X194400000Y-59500000D01*
X203700000Y-59450000D02*
X203700000Y-59500000D01*
X203700000Y-59500000D02*
X202600000Y-60600000D01*
X202600000Y-60600000D02*
X200500000Y-60600000D01*
X200500000Y-60600000D02*
X198700000Y-62400000D01*
X198700000Y-62400000D02*
X195400000Y-62400000D01*
X195400000Y-62400000D02*
X194400000Y-61400000D01*
X204450000Y-59450000D02*
X203700000Y-59450000D01*
X206300000Y-57600000D02*
X204450000Y-59450000D01*
X207700000Y-57600000D02*
X206300000Y-57600000D01*
X209100000Y-55700000D02*
X209100000Y-56200000D01*
X209100000Y-56200000D02*
X207700000Y-57600000D01*
D17*
G04 #@! TO.N,Net-(C66-Pad1)*
X191600000Y-60600000D02*
X191500000Y-60600000D01*
D16*
X189900000Y-59100000D02*
X189900000Y-57575000D01*
X191600000Y-60600000D02*
X191400000Y-60600000D01*
X191400000Y-60600000D02*
X189900000Y-59100000D01*
X191600000Y-57575000D02*
X191625000Y-57600000D01*
X189900000Y-57575000D02*
X191600000Y-57575000D01*
X191625000Y-57600000D02*
X191625000Y-55800000D01*
D17*
G04 #@! TO.N,Net-(C83-Pad1)*
X186100000Y-60600000D02*
X185900000Y-60600000D01*
D16*
X184400000Y-58200000D02*
X184400000Y-57575000D01*
X185900000Y-60600000D02*
X184400000Y-59100000D01*
X184400000Y-59100000D02*
X184400000Y-58200000D01*
X186100000Y-57575000D02*
X186125000Y-57600000D01*
X184400000Y-57575000D02*
X186100000Y-57575000D01*
X186125000Y-57600000D02*
X186125000Y-55800000D01*
D17*
G04 #@! TO.N,Net-(C64-Pad2)*
X197100000Y-60600000D02*
X197000000Y-60600000D01*
X197100000Y-57575000D02*
X197125000Y-57600000D01*
X195400000Y-57575000D02*
X197100000Y-57575000D01*
D16*
X195400000Y-58200000D02*
X195400000Y-57575000D01*
X197000000Y-60600000D02*
X195400000Y-59000000D01*
X195400000Y-59000000D02*
X195400000Y-58200000D01*
X197125000Y-57600000D02*
X197125000Y-55800000D01*
G04 #@! TO.N,MODE*
X206250000Y-59700000D02*
X206000000Y-59450000D01*
X211300000Y-59700000D02*
X206250000Y-59700000D01*
X211800000Y-56200000D02*
X211800000Y-55700000D01*
X206999990Y-58400010D02*
X209599990Y-58400010D01*
X209599990Y-58400010D02*
X211800000Y-56200000D01*
X206000000Y-59450000D02*
X206000000Y-59400000D01*
X206000000Y-59400000D02*
X206999990Y-58400010D01*
G04 #@! TD*
G04 #@! TO.N,GND*
G36*
X209695802Y-67044330D02*
X209654654Y-67105912D01*
X209591184Y-67425000D01*
X209591184Y-68175000D01*
X209650857Y-68475000D01*
X201937328Y-68475000D01*
X202004870Y-68429870D01*
X202155812Y-68203969D01*
X202208816Y-67937500D01*
X202208816Y-67564711D01*
X202448518Y-67325010D01*
X204399906Y-67325010D01*
X204458992Y-67336763D01*
X204518078Y-67325010D01*
X204518083Y-67325010D01*
X204693100Y-67290197D01*
X204891567Y-67157585D01*
X204925041Y-67107489D01*
X205932530Y-66100000D01*
X208751473Y-66100000D01*
X209695802Y-67044330D01*
X209695802Y-67044330D01*
G37*
X209695802Y-67044330D02*
X209654654Y-67105912D01*
X209591184Y-67425000D01*
X209591184Y-68175000D01*
X209650857Y-68475000D01*
X201937328Y-68475000D01*
X202004870Y-68429870D01*
X202155812Y-68203969D01*
X202208816Y-67937500D01*
X202208816Y-67564711D01*
X202448518Y-67325010D01*
X204399906Y-67325010D01*
X204458992Y-67336763D01*
X204518078Y-67325010D01*
X204518083Y-67325010D01*
X204693100Y-67290197D01*
X204891567Y-67157585D01*
X204925041Y-67107489D01*
X205932530Y-66100000D01*
X208751473Y-66100000D01*
X209695802Y-67044330D01*
G36*
X190641184Y-55562500D02*
X190641184Y-56037500D01*
X190694188Y-56303969D01*
X190845130Y-56529870D01*
X191025001Y-56650055D01*
X191025000Y-56749945D01*
X190845130Y-56870130D01*
X190775058Y-56975000D01*
X190750055Y-56975000D01*
X190629870Y-56795130D01*
X190403969Y-56644188D01*
X190137500Y-56591184D01*
X189662500Y-56591184D01*
X189396031Y-56644188D01*
X189170130Y-56795130D01*
X189019188Y-57021031D01*
X188966184Y-57287500D01*
X188966184Y-57862500D01*
X189019188Y-58128969D01*
X189170130Y-58354870D01*
X189300000Y-58441647D01*
X189300000Y-59040913D01*
X189288247Y-59100000D01*
X189300000Y-59159086D01*
X189300000Y-59159090D01*
X189334813Y-59334107D01*
X189467425Y-59532575D01*
X189517522Y-59566049D01*
X189866184Y-59914711D01*
X189866184Y-61475001D01*
X189920139Y-61746253D01*
X190073791Y-61976209D01*
X190303747Y-62129861D01*
X190574999Y-62183816D01*
X192625001Y-62183816D01*
X192896253Y-62129861D01*
X193126209Y-61976209D01*
X193279861Y-61746253D01*
X193333816Y-61475001D01*
X193333816Y-59724999D01*
X193279861Y-59453747D01*
X193126209Y-59223791D01*
X192896253Y-59070139D01*
X192625001Y-59016184D01*
X190664711Y-59016184D01*
X190500000Y-58851473D01*
X190500000Y-58441646D01*
X190629870Y-58354870D01*
X190745852Y-58181290D01*
X190845130Y-58329870D01*
X191071031Y-58480812D01*
X191337500Y-58533816D01*
X191912500Y-58533816D01*
X192178969Y-58480812D01*
X192404870Y-58329870D01*
X192500000Y-58187498D01*
X192595130Y-58329870D01*
X192769006Y-58446050D01*
X192763247Y-58475000D01*
X192775000Y-58534086D01*
X192775000Y-58534090D01*
X192809813Y-58709107D01*
X192942425Y-58907575D01*
X192992521Y-58941049D01*
X193800001Y-59748529D01*
X193800000Y-61340913D01*
X193788247Y-61400000D01*
X193800000Y-61459086D01*
X193800000Y-61459090D01*
X193834813Y-61634107D01*
X193967425Y-61832575D01*
X194017521Y-61866048D01*
X194933955Y-62782484D01*
X194967425Y-62832575D01*
X195017516Y-62866045D01*
X195017519Y-62866048D01*
X195165891Y-62965186D01*
X195165892Y-62965187D01*
X195340909Y-63000000D01*
X195340912Y-63000000D01*
X195400000Y-63011753D01*
X195459088Y-63000000D01*
X198640914Y-63000000D01*
X198700000Y-63011753D01*
X198759086Y-63000000D01*
X198759091Y-63000000D01*
X198934108Y-62965187D01*
X199132575Y-62832575D01*
X199166049Y-62782478D01*
X200748528Y-61200000D01*
X202540914Y-61200000D01*
X202600000Y-61211753D01*
X202659086Y-61200000D01*
X202659091Y-61200000D01*
X202834108Y-61165187D01*
X203032575Y-61032575D01*
X203066049Y-60982479D01*
X203639712Y-60408816D01*
X203950000Y-60408816D01*
X204221252Y-60354861D01*
X204451209Y-60201209D01*
X204558858Y-60040101D01*
X204684108Y-60015187D01*
X204882575Y-59882575D01*
X204916049Y-59832478D01*
X205042402Y-59706125D01*
X205095139Y-59971252D01*
X205248791Y-60201209D01*
X205478748Y-60354861D01*
X205750000Y-60408816D01*
X206250000Y-60408816D01*
X206521252Y-60354861D01*
X206603357Y-60300000D01*
X209635939Y-60300000D01*
X209654654Y-60394088D01*
X209835403Y-60664597D01*
X210105912Y-60845346D01*
X210425000Y-60908816D01*
X212175000Y-60908816D01*
X212475001Y-60849143D01*
X212475001Y-61250857D01*
X212175000Y-61191184D01*
X210425000Y-61191184D01*
X210105912Y-61254654D01*
X209835403Y-61435403D01*
X209654654Y-61705912D01*
X209635939Y-61800000D01*
X207559086Y-61800000D01*
X207499999Y-61788247D01*
X207440913Y-61800000D01*
X207440909Y-61800000D01*
X207265892Y-61834813D01*
X207067425Y-61967425D01*
X207033953Y-62017519D01*
X206751472Y-62300001D01*
X202284085Y-62300001D01*
X202224998Y-62288248D01*
X202165912Y-62300001D01*
X202165908Y-62300001D01*
X201990891Y-62334814D01*
X201792424Y-62467426D01*
X201758952Y-62517520D01*
X201310288Y-62966184D01*
X200937500Y-62966184D01*
X200671031Y-63019188D01*
X200445130Y-63170130D01*
X200358354Y-63300000D01*
X189259086Y-63300000D01*
X189199999Y-63288247D01*
X189140913Y-63300000D01*
X189140909Y-63300000D01*
X188965892Y-63334813D01*
X188767425Y-63467425D01*
X188733953Y-63517519D01*
X186835289Y-65416184D01*
X185074999Y-65416184D01*
X184803747Y-65470139D01*
X184573791Y-65623791D01*
X184420139Y-65853747D01*
X184366184Y-66124999D01*
X184366184Y-67875001D01*
X184420139Y-68146253D01*
X184573791Y-68376209D01*
X184721642Y-68475000D01*
X183525000Y-68475000D01*
X183525000Y-58137667D01*
X183670130Y-58354870D01*
X183800001Y-58441647D01*
X183800000Y-59040913D01*
X183788247Y-59100000D01*
X183800000Y-59159086D01*
X183800000Y-59159090D01*
X183834813Y-59334107D01*
X183967425Y-59532575D01*
X184017522Y-59566049D01*
X184366184Y-59914711D01*
X184366184Y-61475001D01*
X184420139Y-61746253D01*
X184573791Y-61976209D01*
X184803747Y-62129861D01*
X185074999Y-62183816D01*
X187125001Y-62183816D01*
X187396253Y-62129861D01*
X187626209Y-61976209D01*
X187779861Y-61746253D01*
X187833816Y-61475001D01*
X187833816Y-59724999D01*
X187779861Y-59453747D01*
X187626209Y-59223791D01*
X187396253Y-59070139D01*
X187125001Y-59016184D01*
X185164711Y-59016184D01*
X185000000Y-58851473D01*
X185000000Y-58441646D01*
X185129870Y-58354870D01*
X185245852Y-58181290D01*
X185345130Y-58329870D01*
X185571031Y-58480812D01*
X185837500Y-58533816D01*
X186412500Y-58533816D01*
X186678969Y-58480812D01*
X186904870Y-58329870D01*
X187000000Y-58187498D01*
X187095130Y-58329870D01*
X187321031Y-58480812D01*
X187587500Y-58533816D01*
X188162500Y-58533816D01*
X188428969Y-58480812D01*
X188654870Y-58329870D01*
X188805812Y-58103969D01*
X188858816Y-57837500D01*
X188858816Y-57362500D01*
X188805812Y-57096031D01*
X188654870Y-56870130D01*
X188475000Y-56749945D01*
X188475000Y-56650055D01*
X188654870Y-56529870D01*
X188805812Y-56303969D01*
X188858816Y-56037500D01*
X188858816Y-55664712D01*
X189073538Y-55449990D01*
X190663564Y-55449990D01*
X190641184Y-55562500D01*
X190641184Y-55562500D01*
G37*
X190641184Y-55562500D02*
X190641184Y-56037500D01*
X190694188Y-56303969D01*
X190845130Y-56529870D01*
X191025001Y-56650055D01*
X191025000Y-56749945D01*
X190845130Y-56870130D01*
X190775058Y-56975000D01*
X190750055Y-56975000D01*
X190629870Y-56795130D01*
X190403969Y-56644188D01*
X190137500Y-56591184D01*
X189662500Y-56591184D01*
X189396031Y-56644188D01*
X189170130Y-56795130D01*
X189019188Y-57021031D01*
X188966184Y-57287500D01*
X188966184Y-57862500D01*
X189019188Y-58128969D01*
X189170130Y-58354870D01*
X189300000Y-58441647D01*
X189300000Y-59040913D01*
X189288247Y-59100000D01*
X189300000Y-59159086D01*
X189300000Y-59159090D01*
X189334813Y-59334107D01*
X189467425Y-59532575D01*
X189517522Y-59566049D01*
X189866184Y-59914711D01*
X189866184Y-61475001D01*
X189920139Y-61746253D01*
X190073791Y-61976209D01*
X190303747Y-62129861D01*
X190574999Y-62183816D01*
X192625001Y-62183816D01*
X192896253Y-62129861D01*
X193126209Y-61976209D01*
X193279861Y-61746253D01*
X193333816Y-61475001D01*
X193333816Y-59724999D01*
X193279861Y-59453747D01*
X193126209Y-59223791D01*
X192896253Y-59070139D01*
X192625001Y-59016184D01*
X190664711Y-59016184D01*
X190500000Y-58851473D01*
X190500000Y-58441646D01*
X190629870Y-58354870D01*
X190745852Y-58181290D01*
X190845130Y-58329870D01*
X191071031Y-58480812D01*
X191337500Y-58533816D01*
X191912500Y-58533816D01*
X192178969Y-58480812D01*
X192404870Y-58329870D01*
X192500000Y-58187498D01*
X192595130Y-58329870D01*
X192769006Y-58446050D01*
X192763247Y-58475000D01*
X192775000Y-58534086D01*
X192775000Y-58534090D01*
X192809813Y-58709107D01*
X192942425Y-58907575D01*
X192992521Y-58941049D01*
X193800001Y-59748529D01*
X193800000Y-61340913D01*
X193788247Y-61400000D01*
X193800000Y-61459086D01*
X193800000Y-61459090D01*
X193834813Y-61634107D01*
X193967425Y-61832575D01*
X194017521Y-61866048D01*
X194933955Y-62782484D01*
X194967425Y-62832575D01*
X195017516Y-62866045D01*
X195017519Y-62866048D01*
X195165891Y-62965186D01*
X195165892Y-62965187D01*
X195340909Y-63000000D01*
X195340912Y-63000000D01*
X195400000Y-63011753D01*
X195459088Y-63000000D01*
X198640914Y-63000000D01*
X198700000Y-63011753D01*
X198759086Y-63000000D01*
X198759091Y-63000000D01*
X198934108Y-62965187D01*
X199132575Y-62832575D01*
X199166049Y-62782478D01*
X200748528Y-61200000D01*
X202540914Y-61200000D01*
X202600000Y-61211753D01*
X202659086Y-61200000D01*
X202659091Y-61200000D01*
X202834108Y-61165187D01*
X203032575Y-61032575D01*
X203066049Y-60982479D01*
X203639712Y-60408816D01*
X203950000Y-60408816D01*
X204221252Y-60354861D01*
X204451209Y-60201209D01*
X204558858Y-60040101D01*
X204684108Y-60015187D01*
X204882575Y-59882575D01*
X204916049Y-59832478D01*
X205042402Y-59706125D01*
X205095139Y-59971252D01*
X205248791Y-60201209D01*
X205478748Y-60354861D01*
X205750000Y-60408816D01*
X206250000Y-60408816D01*
X206521252Y-60354861D01*
X206603357Y-60300000D01*
X209635939Y-60300000D01*
X209654654Y-60394088D01*
X209835403Y-60664597D01*
X210105912Y-60845346D01*
X210425000Y-60908816D01*
X212175000Y-60908816D01*
X212475001Y-60849143D01*
X212475001Y-61250857D01*
X212175000Y-61191184D01*
X210425000Y-61191184D01*
X210105912Y-61254654D01*
X209835403Y-61435403D01*
X209654654Y-61705912D01*
X209635939Y-61800000D01*
X207559086Y-61800000D01*
X207499999Y-61788247D01*
X207440913Y-61800000D01*
X207440909Y-61800000D01*
X207265892Y-61834813D01*
X207067425Y-61967425D01*
X207033953Y-62017519D01*
X206751472Y-62300001D01*
X202284085Y-62300001D01*
X202224998Y-62288248D01*
X202165912Y-62300001D01*
X202165908Y-62300001D01*
X201990891Y-62334814D01*
X201792424Y-62467426D01*
X201758952Y-62517520D01*
X201310288Y-62966184D01*
X200937500Y-62966184D01*
X200671031Y-63019188D01*
X200445130Y-63170130D01*
X200358354Y-63300000D01*
X189259086Y-63300000D01*
X189199999Y-63288247D01*
X189140913Y-63300000D01*
X189140909Y-63300000D01*
X188965892Y-63334813D01*
X188767425Y-63467425D01*
X188733953Y-63517519D01*
X186835289Y-65416184D01*
X185074999Y-65416184D01*
X184803747Y-65470139D01*
X184573791Y-65623791D01*
X184420139Y-65853747D01*
X184366184Y-66124999D01*
X184366184Y-67875001D01*
X184420139Y-68146253D01*
X184573791Y-68376209D01*
X184721642Y-68475000D01*
X183525000Y-68475000D01*
X183525000Y-58137667D01*
X183670130Y-58354870D01*
X183800001Y-58441647D01*
X183800000Y-59040913D01*
X183788247Y-59100000D01*
X183800000Y-59159086D01*
X183800000Y-59159090D01*
X183834813Y-59334107D01*
X183967425Y-59532575D01*
X184017522Y-59566049D01*
X184366184Y-59914711D01*
X184366184Y-61475001D01*
X184420139Y-61746253D01*
X184573791Y-61976209D01*
X184803747Y-62129861D01*
X185074999Y-62183816D01*
X187125001Y-62183816D01*
X187396253Y-62129861D01*
X187626209Y-61976209D01*
X187779861Y-61746253D01*
X187833816Y-61475001D01*
X187833816Y-59724999D01*
X187779861Y-59453747D01*
X187626209Y-59223791D01*
X187396253Y-59070139D01*
X187125001Y-59016184D01*
X185164711Y-59016184D01*
X185000000Y-58851473D01*
X185000000Y-58441646D01*
X185129870Y-58354870D01*
X185245852Y-58181290D01*
X185345130Y-58329870D01*
X185571031Y-58480812D01*
X185837500Y-58533816D01*
X186412500Y-58533816D01*
X186678969Y-58480812D01*
X186904870Y-58329870D01*
X187000000Y-58187498D01*
X187095130Y-58329870D01*
X187321031Y-58480812D01*
X187587500Y-58533816D01*
X188162500Y-58533816D01*
X188428969Y-58480812D01*
X188654870Y-58329870D01*
X188805812Y-58103969D01*
X188858816Y-57837500D01*
X188858816Y-57362500D01*
X188805812Y-57096031D01*
X188654870Y-56870130D01*
X188475000Y-56749945D01*
X188475000Y-56650055D01*
X188654870Y-56529870D01*
X188805812Y-56303969D01*
X188858816Y-56037500D01*
X188858816Y-55664712D01*
X189073538Y-55449990D01*
X190663564Y-55449990D01*
X190641184Y-55562500D01*
G36*
X204210465Y-66125010D02*
X202259078Y-66125010D01*
X202199990Y-66113257D01*
X202193490Y-66114550D01*
X202208816Y-66037500D01*
X202208816Y-65664711D01*
X202398538Y-65474990D01*
X204860484Y-65474990D01*
X204210465Y-66125010D01*
X204210465Y-66125010D01*
G37*
X204210465Y-66125010D02*
X202259078Y-66125010D01*
X202199990Y-66113257D01*
X202193490Y-66114550D01*
X202208816Y-66037500D01*
X202208816Y-65664711D01*
X202398538Y-65474990D01*
X204860484Y-65474990D01*
X204210465Y-66125010D01*
G36*
X209654654Y-63094088D02*
X209835403Y-63364597D01*
X210105912Y-63545346D01*
X210425000Y-63608816D01*
X212175000Y-63608816D01*
X212475000Y-63549143D01*
X212475000Y-63950857D01*
X212175000Y-63891184D01*
X210425000Y-63891184D01*
X210105912Y-63954654D01*
X209835403Y-64135403D01*
X209742134Y-64274990D01*
X202209095Y-64274990D01*
X202182519Y-64269704D01*
X202208816Y-64137500D01*
X202208816Y-63764712D01*
X202473527Y-63500001D01*
X206940913Y-63500001D01*
X206999999Y-63511754D01*
X207059085Y-63500001D01*
X207059090Y-63500001D01*
X207234107Y-63465188D01*
X207432574Y-63332576D01*
X207466047Y-63282480D01*
X207748528Y-63000000D01*
X209635939Y-63000000D01*
X209654654Y-63094088D01*
X209654654Y-63094088D01*
G37*
X209654654Y-63094088D02*
X209835403Y-63364597D01*
X210105912Y-63545346D01*
X210425000Y-63608816D01*
X212175000Y-63608816D01*
X212475000Y-63549143D01*
X212475000Y-63950857D01*
X212175000Y-63891184D01*
X210425000Y-63891184D01*
X210105912Y-63954654D01*
X209835403Y-64135403D01*
X209742134Y-64274990D01*
X202209095Y-64274990D01*
X202182519Y-64269704D01*
X202208816Y-64137500D01*
X202208816Y-63764712D01*
X202473527Y-63500001D01*
X206940913Y-63500001D01*
X206999999Y-63511754D01*
X207059085Y-63500001D01*
X207059090Y-63500001D01*
X207234107Y-63465188D01*
X207432574Y-63332576D01*
X207466047Y-63282480D01*
X207748528Y-63000000D01*
X209635939Y-63000000D01*
X209654654Y-63094088D01*
G36*
X196141184Y-55562500D02*
X196141184Y-56037500D01*
X196194188Y-56303969D01*
X196345130Y-56529870D01*
X196525001Y-56650055D01*
X196525000Y-56749945D01*
X196345130Y-56870130D01*
X196308467Y-56925000D01*
X196216646Y-56925000D01*
X196129870Y-56795130D01*
X195903969Y-56644188D01*
X195637500Y-56591184D01*
X195162500Y-56591184D01*
X194896031Y-56644188D01*
X194670130Y-56795130D01*
X194519188Y-57021031D01*
X194466184Y-57287500D01*
X194466184Y-57862500D01*
X194519188Y-58128969D01*
X194670130Y-58354870D01*
X194800000Y-58441646D01*
X194800000Y-58940914D01*
X194788247Y-59000000D01*
X194796920Y-59043601D01*
X194782481Y-59033953D01*
X194109028Y-58360501D01*
X194154870Y-58329870D01*
X194305812Y-58103969D01*
X194358816Y-57837500D01*
X194358816Y-57362500D01*
X194305812Y-57096031D01*
X194154870Y-56870130D01*
X193975000Y-56749945D01*
X193975000Y-56650055D01*
X194154870Y-56529870D01*
X194305812Y-56303969D01*
X194358816Y-56037500D01*
X194358816Y-55562500D01*
X194336436Y-55449990D01*
X196163564Y-55449990D01*
X196141184Y-55562500D01*
X196141184Y-55562500D01*
G37*
X196141184Y-55562500D02*
X196141184Y-56037500D01*
X196194188Y-56303969D01*
X196345130Y-56529870D01*
X196525001Y-56650055D01*
X196525000Y-56749945D01*
X196345130Y-56870130D01*
X196308467Y-56925000D01*
X196216646Y-56925000D01*
X196129870Y-56795130D01*
X195903969Y-56644188D01*
X195637500Y-56591184D01*
X195162500Y-56591184D01*
X194896031Y-56644188D01*
X194670130Y-56795130D01*
X194519188Y-57021031D01*
X194466184Y-57287500D01*
X194466184Y-57862500D01*
X194519188Y-58128969D01*
X194670130Y-58354870D01*
X194800000Y-58441646D01*
X194800000Y-58940914D01*
X194788247Y-59000000D01*
X194796920Y-59043601D01*
X194782481Y-59033953D01*
X194109028Y-58360501D01*
X194154870Y-58329870D01*
X194305812Y-58103969D01*
X194358816Y-57837500D01*
X194358816Y-57362500D01*
X194305812Y-57096031D01*
X194154870Y-56870130D01*
X193975000Y-56749945D01*
X193975000Y-56650055D01*
X194154870Y-56529870D01*
X194305812Y-56303969D01*
X194358816Y-56037500D01*
X194358816Y-55562500D01*
X194336436Y-55449990D01*
X196163564Y-55449990D01*
X196141184Y-55562500D01*
G36*
X200133951Y-55532478D02*
X200167425Y-55582575D01*
X200365892Y-55715187D01*
X200540909Y-55750000D01*
X200540913Y-55750000D01*
X200548806Y-55751570D01*
X200648791Y-55901209D01*
X200878748Y-56054861D01*
X201150000Y-56108816D01*
X201650000Y-56108816D01*
X201921252Y-56054861D01*
X202151209Y-55901209D01*
X202252243Y-55750000D01*
X202491184Y-55750000D01*
X202491184Y-56575000D01*
X202554654Y-56894088D01*
X202735403Y-57164597D01*
X203005912Y-57345346D01*
X203325000Y-57408816D01*
X204075000Y-57408816D01*
X204394088Y-57345346D01*
X204430369Y-57321104D01*
X203851473Y-57900000D01*
X203209086Y-57900000D01*
X203150000Y-57888247D01*
X203090913Y-57900000D01*
X203090909Y-57900000D01*
X202915892Y-57934813D01*
X202717425Y-58067425D01*
X202683953Y-58117519D01*
X202122119Y-58679354D01*
X201921252Y-58545139D01*
X201650000Y-58491184D01*
X201289712Y-58491184D01*
X200016049Y-57217522D01*
X199982575Y-57167425D01*
X199784108Y-57034813D01*
X199761964Y-57030408D01*
X199654870Y-56870130D01*
X199475000Y-56749945D01*
X199475000Y-56650055D01*
X199654870Y-56529870D01*
X199805812Y-56303969D01*
X199858816Y-56037500D01*
X199858816Y-55562500D01*
X199836436Y-55449990D01*
X200051463Y-55449990D01*
X200133951Y-55532478D01*
X200133951Y-55532478D01*
G37*
X200133951Y-55532478D02*
X200167425Y-55582575D01*
X200365892Y-55715187D01*
X200540909Y-55750000D01*
X200540913Y-55750000D01*
X200548806Y-55751570D01*
X200648791Y-55901209D01*
X200878748Y-56054861D01*
X201150000Y-56108816D01*
X201650000Y-56108816D01*
X201921252Y-56054861D01*
X202151209Y-55901209D01*
X202252243Y-55750000D01*
X202491184Y-55750000D01*
X202491184Y-56575000D01*
X202554654Y-56894088D01*
X202735403Y-57164597D01*
X203005912Y-57345346D01*
X203325000Y-57408816D01*
X204075000Y-57408816D01*
X204394088Y-57345346D01*
X204430369Y-57321104D01*
X203851473Y-57900000D01*
X203209086Y-57900000D01*
X203150000Y-57888247D01*
X203090913Y-57900000D01*
X203090909Y-57900000D01*
X202915892Y-57934813D01*
X202717425Y-58067425D01*
X202683953Y-58117519D01*
X202122119Y-58679354D01*
X201921252Y-58545139D01*
X201650000Y-58491184D01*
X201289712Y-58491184D01*
X200016049Y-57217522D01*
X199982575Y-57167425D01*
X199784108Y-57034813D01*
X199761964Y-57030408D01*
X199654870Y-56870130D01*
X199475000Y-56749945D01*
X199475000Y-56650055D01*
X199654870Y-56529870D01*
X199805812Y-56303969D01*
X199858816Y-56037500D01*
X199858816Y-55562500D01*
X199836436Y-55449990D01*
X200051463Y-55449990D01*
X200133951Y-55532478D01*
G36*
X187960288Y-54866184D02*
X187587500Y-54866184D01*
X187321031Y-54919188D01*
X187095130Y-55070130D01*
X187000000Y-55212502D01*
X186904870Y-55070130D01*
X186678969Y-54919188D01*
X186412500Y-54866184D01*
X185837500Y-54866184D01*
X185571031Y-54919188D01*
X185345130Y-55070130D01*
X185194188Y-55296031D01*
X185141184Y-55562500D01*
X185141184Y-56037500D01*
X185194188Y-56303969D01*
X185345130Y-56529870D01*
X185525001Y-56650055D01*
X185525000Y-56749945D01*
X185345130Y-56870130D01*
X185275058Y-56975000D01*
X185250055Y-56975000D01*
X185129870Y-56795130D01*
X184903969Y-56644188D01*
X184637500Y-56591184D01*
X184162500Y-56591184D01*
X183896031Y-56644188D01*
X183670130Y-56795130D01*
X183525000Y-57012333D01*
X183525000Y-54525000D01*
X188301472Y-54525000D01*
X187960288Y-54866184D01*
X187960288Y-54866184D01*
G37*
X187960288Y-54866184D02*
X187587500Y-54866184D01*
X187321031Y-54919188D01*
X187095130Y-55070130D01*
X187000000Y-55212502D01*
X186904870Y-55070130D01*
X186678969Y-54919188D01*
X186412500Y-54866184D01*
X185837500Y-54866184D01*
X185571031Y-54919188D01*
X185345130Y-55070130D01*
X185194188Y-55296031D01*
X185141184Y-55562500D01*
X185141184Y-56037500D01*
X185194188Y-56303969D01*
X185345130Y-56529870D01*
X185525001Y-56650055D01*
X185525000Y-56749945D01*
X185345130Y-56870130D01*
X185275058Y-56975000D01*
X185250055Y-56975000D01*
X185129870Y-56795130D01*
X184903969Y-56644188D01*
X184637500Y-56591184D01*
X184162500Y-56591184D01*
X183896031Y-56644188D01*
X183670130Y-56795130D01*
X183525000Y-57012333D01*
X183525000Y-54525000D01*
X188301472Y-54525000D01*
X187960288Y-54866184D01*
G04 #@! TD*
M02*
