<?xml version="1.0" standalone="no"?>
 <!DOCTYPE svg PUBLIC "-//W3C//DTD SVG 1.1//EN" 
 "http://www.w3.org/Graphics/SVG/1.1/DTD/svg11.dtd"> 
<svg xmlns="http://www.w3.org/2000/svg" version="1.1" 
    width="29.7002cm" height="21.0007cm" viewBox="0 0 116930 82680 ">
<title>SVG Picture created as HDTVii-B.SilkS.svg date 2020/07/23 21:45:17 </title>
  <desc>Picture generated by PCBNEW </desc>
<g style="fill:#000000; fill-opacity:1;stroke:#000000; stroke-opacity:1;
stroke-linecap:round; stroke-linejoin:round; "
 transform="translate(0 0) scale(1 1)">
</g>
<g style="fill:#000000; fill-opacity:0.0; 
stroke:#000000; stroke-width:-0.000393701; stroke-opacity:1; 
stroke-linecap:round; stroke-linejoin:round;">
</g>
<g style="fill:#000000; fill-opacity:0.0; 
stroke:#000000; stroke-width:118.11; stroke-opacity:1; 
stroke-linecap:round; stroke-linejoin:round;">
<path d="M78501 23889
L78501 23298
" />
<path d="M78501 23523
L78444 23495
L78332 23495
L78276 23523
L78248 23551
L78219 23607
L78219 23776
L78248 23832
L78276 23861
L78332 23889
L78444 23889
L78501 23861
" />
<path d="M78023 23495
L77882 23889
" />
<path d="M77741 23495
L77882 23889
L77938 24029
L77966 24057
L78023 24086
" />
<path d="M82564 22196
L82424 22786
L82311 22365
L82199 22786
L82058 22196
" />
<path d="M81833 22786
L81833 22393
" />
<path d="M81833 22196
L81861 22224
L81833 22252
L81805 22224
L81833 22196
L81833 22252
" />
<path d="M81552 22786
L81552 22393
" />
<path d="M81552 22196
L81580 22224
L81552 22252
L81524 22224
L81552 22196
L81552 22252
" />
<path d="M80483 22730
L80511 22758
L80596 22786
L80652 22786
L80736 22758
L80793 22702
L80821 22646
L80849 22533
L80849 22449
L80821 22336
L80793 22280
L80736 22224
L80652 22196
L80596 22196
L80511 22224
L80483 22252
" />
<path d="M80146 22786
L80202 22758
L80230 22730
L80258 22674
L80258 22505
L80230 22449
L80202 22421
L80146 22393
L80061 22393
L80005 22421
L79977 22449
L79949 22505
L79949 22674
L79977 22730
L80005 22758
L80061 22786
L80146 22786
" />
<path d="M79696 22786
L79696 22393
" />
<path d="M79696 22449
L79668 22421
L79611 22393
L79527 22393
L79471 22421
L79443 22477
L79443 22786
" />
<path d="M79443 22477
L79415 22421
L79358 22393
L79274 22393
L79218 22421
L79190 22477
L79190 22786
" />
<path d="M78908 22393
L78908 22983
" />
<path d="M78908 22421
L78852 22393
L78740 22393
L78683 22421
L78655 22449
L78627 22505
L78627 22674
L78655 22730
L78683 22758
L78740 22786
L78852 22786
L78908 22758
" />
<path d="M78290 22786
L78346 22758
L78374 22730
L78402 22674
L78402 22505
L78374 22449
L78346 22421
L78290 22393
L78205 22393
L78149 22421
L78121 22449
L78093 22505
L78093 22674
L78121 22730
L78149 22758
L78205 22786
L78290 22786
" />
<path d="M77840 22393
L77840 22786
" />
<path d="M77840 22449
L77812 22421
L77755 22393
L77671 22393
L77615 22421
L77587 22477
L77587 22786
" />
<path d="M77080 22758
L77137 22786
L77249 22786
L77305 22758
L77334 22702
L77334 22477
L77305 22421
L77249 22393
L77137 22393
L77080 22421
L77052 22477
L77052 22533
L77334 22589
" />
<path d="M76799 22393
L76799 22786
" />
<path d="M76799 22449
L76771 22421
L76715 22393
L76631 22393
L76574 22421
L76546 22477
L76546 22786
" />
<path d="M76349 22393
L76124 22393
" />
<path d="M76265 22196
L76265 22702
L76237 22758
L76181 22786
L76124 22786
" />
<path d="M75562 22196
L75365 22786
L75168 22196
" />
<path d="M74971 22786
L74971 22393
" />
<path d="M74971 22196
L75000 22224
L74971 22252
L74943 22224
L74971 22196
L74971 22252
" />
<path d="M74437 22786
L74437 22196
" />
<path d="M74437 22758
L74493 22786
L74606 22786
L74662 22758
L74690 22730
L74718 22674
L74718 22505
L74690 22449
L74662 22421
L74606 22393
L74493 22393
L74437 22421
" />
<path d="M73931 22758
L73987 22786
L74100 22786
L74156 22758
L74184 22702
L74184 22477
L74156 22421
L74100 22393
L73987 22393
L73931 22421
L73903 22477
L73903 22533
L74184 22589
" />
<path d="M73565 22786
L73622 22758
L73650 22730
L73678 22674
L73678 22505
L73650 22449
L73622 22421
L73565 22393
L73481 22393
L73425 22421
L73397 22449
L73368 22505
L73368 22674
L73397 22730
L73425 22758
L73481 22786
L73565 22786
" />
<path d="M80452 24528
L80452 24950
L80480 25035
L80537 25091
L80621 25119
L80677 25119
" />
<path d="M80087 25119
L80143 25091
L80171 25063
L80199 25007
L80199 24838
L80171 24782
L80143 24753
L80087 24725
L80002 24725
L79946 24753
L79918 24782
L79890 24838
L79890 25007
L79918 25063
L79946 25091
L80002 25119
L80087 25119
" />
<path d="M79637 25119
L79637 24528
" />
<path d="M79637 24753
L79580 24725
L79468 24725
L79412 24753
L79384 24782
L79356 24838
L79356 25007
L79384 25063
L79412 25091
L79468 25119
L79580 25119
L79637 25091
" />
<path d="M79131 24725
L78709 24725
" />
<path d="M78962 24472
L79131 25232
" />
<path d="M78765 24978
L79187 24978
" />
<path d="M78934 25232
L78765 24472
" />
<path d="M78568 24528
L78203 24528
L78399 24753
L78315 24753
L78259 24782
L78231 24810
L78203 24866
L78203 25007
L78231 25063
L78259 25091
L78315 25119
L78484 25119
L78540 25091
L78568 25063
" />
<path d="M77668 24528
L77949 24528
L77978 24810
L77949 24782
L77893 24753
L77753 24753
L77696 24782
L77668 24810
L77640 24866
L77640 25007
L77668 25063
L77696 25091
L77753 25119
L77893 25119
L77949 25091
L77978 25063
" />
<path d="M77106 24528
L77387 24528
L77415 24810
L77387 24782
L77331 24753
L77190 24753
L77134 24782
L77106 24810
L77078 24866
L77078 25007
L77106 25063
L77134 25091
L77190 25119
L77331 25119
L77387 25091
L77415 25063
" />
<path d="M76571 24528
L76684 24528
L76740 24557
L76768 24585
L76825 24669
L76853 24782
L76853 25007
L76825 25063
L76796 25091
L76740 25119
L76628 25119
L76571 25091
L76543 25063
L76515 25007
L76515 24866
L76543 24810
L76571 24782
L76628 24753
L76740 24753
L76796 24782
L76825 24810
L76853 24866
" />
<path d="M75334 25119
L75362 25119
L75419 25091
L75503 25007
L75643 24838
L75700 24753
L75728 24669
L75728 24613
L75700 24557
L75643 24528
L75615 24528
L75559 24557
L75531 24613
L75531 24641
L75559 24697
L75587 24725
L75756 24838
L75784 24866
L75812 24922
L75812 25007
L75784 25063
L75756 25091
L75700 25119
L75615 25119
L75559 25091
L75531 25063
L75447 24950
L75419 24866
L75419 24810
" />
<path d="M81971 26067
L81999 26095
L82083 26123
L82140 26123
L82224 26095
L82280 26039
L82308 25982
L82336 25870
L82336 25785
L82308 25673
L82280 25617
L82224 25561
L82140 25532
L82083 25532
L81999 25561
L81971 25589
" />
<path d="M81633 26123
L81690 26095
L81718 26067
L81746 26010
L81746 25842
L81718 25785
L81690 25757
L81633 25729
L81549 25729
L81493 25757
L81465 25785
L81437 25842
L81437 26010
L81465 26067
L81493 26095
L81549 26123
L81633 26123
" />
<path d="M81183 26123
L81183 25729
" />
<path d="M81183 25785
L81155 25757
L81099 25729
L81015 25729
L80958 25757
L80930 25814
L80930 26123
" />
<path d="M80930 25814
L80902 25757
L80846 25729
L80762 25729
L80705 25757
L80677 25814
L80677 26123
" />
<path d="M80396 26123
L80396 25729
" />
<path d="M80396 25785
L80368 25757
L80312 25729
L80227 25729
L80171 25757
L80143 25814
L80143 26123
" />
<path d="M80143 25814
L80115 25757
L80059 25729
L79974 25729
L79918 25757
L79890 25814
L79890 26123
" />
<path d="M79356 26123
L79356 25814
L79384 25757
L79440 25729
L79552 25729
L79609 25757
" />
<path d="M79356 26095
L79412 26123
L79552 26123
L79609 26095
L79637 26039
L79637 25982
L79609 25926
L79552 25898
L79412 25898
L79356 25870
" />
<path d="M79074 25729
L79074 26123
" />
<path d="M79074 25785
L79046 25757
L78990 25729
L78906 25729
L78849 25757
L78821 25814
L78821 26123
" />
<path d="M78287 26123
L78287 25532
" />
<path d="M78287 26095
L78343 26123
L78456 26123
L78512 26095
L78540 26067
L78568 26010
L78568 25842
L78540 25785
L78512 25757
L78456 25729
L78343 25729
L78287 25757
" />
<path d="M78006 26123
L78006 25532
" />
<path d="M78006 25757
L77949 25729
L77837 25729
L77781 25757
L77753 25785
L77724 25842
L77724 26010
L77753 26067
L77781 26095
L77837 26123
L77949 26123
L78006 26095
" />
<path d="M77387 26123
L77443 26095
L77471 26039
L77471 25532
" />
<path d="M77078 26123
L77134 26095
L77162 26067
L77190 26010
L77190 25842
L77162 25785
L77134 25757
L77078 25729
L76993 25729
L76937 25757
L76909 25785
L76881 25842
L76881 26010
L76909 26067
L76937 26095
L76993 26123
L77078 26123
" />
<path d="M76375 26095
L76431 26123
L76543 26123
L76600 26095
L76628 26067
L76656 26010
L76656 25842
L76628 25785
L76600 25757
L76543 25729
L76431 25729
L76375 25757
" />
<path d="M76122 26123
L76122 25532
" />
<path d="M76065 25898
L75897 26123
" />
<path d="M75897 25729
L76122 25954
" />
<path d="M75390 25532
L75503 25532
L75559 25561
L75587 25589
L75643 25673
L75672 25785
L75672 26010
L75643 26067
L75615 26095
L75559 26123
L75447 26123
L75390 26095
L75362 26067
L75334 26010
L75334 25870
L75362 25814
L75390 25785
L75447 25757
L75559 25757
L75615 25785
L75643 25814
L75672 25870
" />
<path d="M74828 25729
L74828 26123
" />
<path d="M74969 25504
L75109 25926
L74744 25926
" />
<path d="M74209 26123
L74547 26123
" />
<path d="M74378 26123
L74378 25532
L74434 25617
L74491 25673
L74547 25701
" />
<path d="M74012 25532
L73619 25532
L73872 26123
" />
</g> 
</svg>
